<?xml version="1.0" encoding="UTF-8"?>
<svg width="125px" height="38px" viewBox="0 0 125 38" version="1.1" xmlns="http://www.w3.org/2000/svg" xmlns:xlink="http://www.w3.org/1999/xlink">
    <title>amazon_prime_day_logo_CMYK_WHT</title>
    <defs>
        <polygon id="path-1" points="0.435462698 0.453583985 60.5475238 0.453583985 60.5475238 13.94 0.435462698 13.94"></polygon>
        <polygon id="path-3" points="0.06 0.571 68.7697941 0.571 68.7697941 22.54 0.06 22.54"></polygon>
    </defs>
    <g id="Amazon" stroke="none" stroke-width="1" fill="none" fill-rule="evenodd">
        <g id="Amazon-Christmas-Smiles" transform="translate(-268.000000, -189.000000)">
            <g id="amazon_prime_day_logo_CMYK_WHT" transform="translate(268.000000, 189.000000)">
                <g id="Group-3" transform="translate(17.000000, 24.000000)">
                    <mask id="mask-2" fill="white">
                        <use xlink:href="#path-1"></use>
                    </mask>
                    <g id="Clip-2"></g>
                    <path d="M60.016,5.843 C52.799,11.168 42.337,14 33.328,14 C20.702,14 9.331,9.333 0.727,1.563 C0.052,0.953 0.654,0.12 1.466,0.593 C10.749,5.994 22.229,9.248 34.086,9.248 C42.084,9.248 50.877,7.588 58.967,4.156 C60.187,3.639 61.21,4.96 60.016,5.843" id="Fill-1" fill="#FFFFFE" mask="url(#mask-2)"></path>
                </g>
                <path d="M80.019,26.414 C79.095,25.232 73.918,25.854 71.591,26.133 C70.887,26.217 70.777,25.601 71.412,25.155 C75.543,22.254 82.312,23.092 83.099,24.063 C83.891,25.043 82.891,31.829 79.019,35.067 C78.424,35.565 77.857,35.3 78.121,34.642 C78.993,32.467 80.943,27.597 80.019,26.414" id="Fill-4" fill="#FFFFFE"></path>
                <path d="M71.794,4.659 L71.794,1.84 C71.796,1.41 72.119,1.124 72.509,1.126 L85.144,1.124 C85.548,1.124 85.873,1.418 85.873,1.836 L85.873,4.254 C85.869,4.66 85.527,5.188 84.922,6.029 L78.376,15.374 C80.805,15.317 83.376,15.682 85.583,16.922 C86.081,17.201 86.215,17.615 86.254,18.022 L86.254,21.03 C86.254,21.444 85.8,21.925 85.323,21.675 C81.434,19.638 76.273,19.415 71.972,21.7 C71.533,21.933 71.073,21.461 71.073,21.046 L71.073,18.186 C71.073,17.728 71.082,16.946 71.543,16.249 L79.127,5.37 L72.524,5.369 C72.12,5.369 71.796,5.081 71.794,4.659" id="Fill-5" fill="#FFFFFE"></path>
                <path d="M25.702,22.267 L21.858,22.267 C21.492,22.243 21.2,21.969 21.17,21.617 L21.173,1.888 C21.173,1.493 21.505,1.178 21.915,1.178 L25.495,1.177 C25.869,1.196 26.17,1.479 26.193,1.84 L26.193,4.415 L26.266,4.415 C27.199,1.924 28.957,0.761 31.325,0.761 C33.729,0.761 35.236,1.924 36.313,4.415 C37.246,1.924 39.363,0.761 41.624,0.761 C43.239,0.761 44.997,1.426 46.073,2.92 C47.293,4.581 47.043,6.989 47.043,9.106 L47.039,21.558 C47.039,21.951 46.708,22.267 46.297,22.267 L42.458,22.267 C42.072,22.242 41.769,21.937 41.769,21.558 L41.767,11.099 C41.767,10.27 41.839,8.193 41.66,7.405 C41.372,6.076 40.511,5.702 39.4,5.702 C38.466,5.702 37.497,6.325 37.102,7.321 C36.708,8.318 36.743,9.978 36.743,11.099 L36.743,21.558 C36.743,21.951 36.412,22.267 36.002,22.267 L32.162,22.267 C31.776,22.242 31.472,21.937 31.472,21.558 L31.469,11.099 C31.469,8.899 31.827,5.661 29.1,5.661 C26.337,5.661 26.445,8.815 26.445,11.099 L26.444,21.558 C26.444,21.951 26.112,22.267 25.702,22.267" id="Fill-6" fill="#FFFFFE"></path>
                <path d="M96.786,4.789 C93.951,4.789 93.771982,8.649 93.771982,11.058 C93.771982,13.466 93.737,18.613 96.751,18.613 C99.73,18.613 99.872,14.462 99.872,11.93 C99.872,10.27 99.801,8.276 99.298,6.699 C98.868,5.328 98.006,4.789 96.786,4.789 Z M96.751,0.761 C102.456,0.761 105.542,5.661 105.542,11.888 C105.542,17.907 102.134,22.683 96.751,22.683 C91.153,22.683 88.102,17.783 88.102,11.681 C88.102,5.536 91.188,0.761 96.751,0.761 L96.751,0.761 Z" id="Fill-7" fill="#FFFFFE"></path>
                <path d="M112.941,22.267 L109.111,22.267 C108.726,22.242 108.421,21.937 108.421,21.558 L108.415,1.822 C108.448,1.46 108.766,1.178 109.154,1.178 L112.719,1.177 C113.055,1.195 113.332,1.423 113.402,1.729 L113.402,4.747 L113.474,4.747 C114.552,2.048 116.058,0.761 118.713,0.761 C120.436,0.761 122.122,1.384 123.199,3.087 C124.203,4.664 124.203,7.321 124.203,9.231 L124.203,21.646 C124.161,21.996 123.847,22.267 123.467,22.267 L119.614,22.267 C119.258,22.244 118.971,21.982 118.929,21.646 L118.929,10.934 C118.929,8.775 119.181,5.619 116.525,5.619 C115.592,5.619 114.731,6.242 114.3,7.196 C113.762,8.401 113.689,9.604 113.689,10.934 L113.689,21.558 C113.683,21.951 113.351,22.267 112.941,22.267" id="Fill-8" fill="#FFFFFE"></path>
                <g id="Group-12">
                    <mask id="mask-4" fill="white">
                        <use xlink:href="#path-3"></use>
                    </mask>
                    <g id="Clip-10"></g>
                    <path d="M65.596,22.218 C65.342,22.446 64.975,22.462 64.688,22.308 C63.412,21.246 63.183,20.756 62.485,19.746 C60.375,21.896 58.88,22.54 56.147,22.54 C52.911,22.54 50.393,20.543 50.393,16.549 C50.393,13.428 52.083,11.306 54.493,10.266 C56.578,9.35 59.492,9.184 61.722,8.934 L61.722,8.434 C61.722,7.519 61.793,6.438 61.253,5.647 C60.785,4.939 59.887,4.648 59.096,4.648 C57.629,4.648 56.326,5.399 56.006,6.956 C55.939,7.303 55.686,7.646 55.338,7.664 L51.612,7.26 C51.297,7.189 50.948,6.936 51.038,6.456 C51.895,1.936 55.977,0.571 59.635,0.571 C61.506,0.571 63.95,1.069 65.425,2.485 C67.295,4.232 67.115,6.562 67.115,9.101 L67.115,15.089 C67.115,16.892 67.864,17.682 68.566,18.651 C68.812,19.002 68.867,19.418 68.553,19.674 C67.768,20.332 66.373,21.543 65.606,22.226 L65.596,22.218 Z M61.722,12.845 C61.722,14.344 61.757,15.591 61.001,16.924 C60.391,18.005 59.419,18.671 58.341,18.671 C56.867,18.671 56.003,17.547 56.003,15.883 C56.003,12.608 58.94,12.014 61.722,12.014 L61.722,12.845 L61.722,12.845 Z" id="Fill-9" fill="#FFFFFE" mask="url(#mask-4)"></path>
                    <path d="M15.203,22.218 C14.949,22.446 14.581,22.462 14.295,22.308 C13.017,21.246 12.789,20.756 12.092,19.746 C9.981,21.896 8.487,22.54 5.754,22.54 C2.517,22.54 0,20.543 0,16.549 C0,13.428 1.69,11.306 4.099,10.266 C6.185,9.35 9.098,9.184 11.327,8.934 L11.327,8.434 C11.327,7.519 11.399,6.438 10.86,5.647 C10.392,4.939 9.493,4.648 8.702,4.648 C7.236,4.648 5.932,5.399 5.613,6.956 C5.546,7.303 5.293,7.646 4.945,7.664 L1.219,7.26 C0.904,7.189 0.555,6.936 0.645,6.456 C1.501,1.936 5.583,0.571 9.242,0.571 C11.112,0.571 13.557,1.069 15.032,2.485 C16.901,4.232 16.722,6.562 16.722,9.101 L16.722,15.089 C16.722,16.892 17.47,17.682 18.172,18.651 C18.417,19.002 18.473,19.418 18.16,19.674 C17.375,20.332 15.979,21.543 15.212,22.226 L15.203,22.218 Z M11.327,12.845 C11.327,14.344 11.363,15.591 10.608,16.924 C9.997,18.005 9.026,18.671 7.947,18.671 C6.473,18.671 5.61,17.547 5.61,15.883 C5.61,12.608 8.547,12.014 11.327,12.014 L11.327,12.845 L11.327,12.845 Z" id="Fill-11" fill="#FFFFFE" mask="url(#mask-4)"></path>
                </g>
            </g>
        </g>
    </g>
</svg>