<?xml version="1.0" standalone="no"?>
<!DOCTYPE svg PUBLIC "-//W3C//DTD SVG 20010904//EN"
 "http://www.w3.org/TR/2001/REC-SVG-20010904/DTD/svg10.dtd">
<svg version="1.0" xmlns="http://www.w3.org/2000/svg"
 width="1024.000000pt" height="1024.000000pt" viewBox="0 0 1024.000000 1024.000000"
 preserveAspectRatio="xMidYMid meet">
<metadata>
Created by potrace 1.11, written by Peter Selinger 2001-2013
</metadata>
<g transform="translate(0.000000,1024.000000) scale(0.100000,-0.100000)"
fill="#000000" stroke="none">
<path d="M760 6319 c-118 -10 -249 -47 -355 -101 -59 -31 -101 -63 -160 -122
-129 -130 -175 -241 -175 -427 0 -176 46 -301 155 -417 106 -114 245 -193 535
-302 301 -113 370 -154 414 -242 50 -101 32 -213 -49 -294 -61 -61 -128 -87
-225 -87 -195 0 -328 117 -361 317 l-12 76 -263 0 -264 0 0 -39 c0 -67 30
-211 59 -288 88 -225 282 -391 539 -461 88 -23 113 -26 282 -26 168 1 194 3
285 27 186 49 333 141 428 265 l47 63 0 -165 0 -166 260 0 260 0 0 708 c1 585
3 703 14 682 7 -14 122 -332 257 -708 l243 -682 200 2 200 3 242 698 c133 384
245 701 248 705 3 3 6 -312 6 -700 l0 -705 206 -5 c269 -7 694 2 694 14 0 6
18 68 41 139 l41 129 409 0 408 0 43 -137 44 -138 287 -3 c176 -1 287 1 287 7
0 5 -18 58 -40 118 -22 59 -40 111 -40 115 0 4 35 -18 78 -49 335 -242 857
-294 1254 -123 177 76 345 207 449 350 l44 61 3 -241 2 -240 265 0 265 0 2
486 3 485 369 -485 369 -486 319 0 c262 0 318 2 311 13 -4 8 -206 264 -448
571 -242 306 -441 560 -442 564 -2 4 200 264 447 577 248 314 450 573 450 578
0 4 -143 6 -317 5 l-317 -3 -370 -489 -371 -489 -3 492 -2 491 -265 0 -265 0
-2 -221 -3 -221 -43 64 c-51 78 -166 194 -253 255 -111 79 -271 146 -424 179
-171 36 -449 36 -608 -1 -454 -105 -785 -448 -886 -919 l-17 -79 -79 219 c-43
120 -120 332 -169 469 l-91 250 -242 3 c-223 2 -243 1 -251 -15 -5 -10 -146
-403 -313 -874 l-304 -856 -5 871 -5 871 -301 3 -301 2 -288 -762 c-159 -420
-296 -781 -305 -803 l-17 -40 -15 35 c-8 19 -146 380 -308 803 l-293 767 -306
-2 -306 -3 -5 -172 -5 -173 -33 64 c-135 260 -451 397 -842 365z m248 -425
c83 -41 137 -129 148 -243 l7 -61 238 0 239 0 0 -309 0 -308 -82 81 c-127 124
-252 191 -568 306 -301 109 -390 184 -390 330 0 66 16 107 59 153 51 56 105
75 217 76 67 1 88 -3 132 -25z m5880 -59 c74 -8 155 -40 234 -92 107 -70 179
-169 218 -300 l22 -73 209 0 209 0 0 -290 0 -290 -209 0 -209 0 -41 -82 c-50
-104 -102 -164 -194 -226 -110 -73 -195 -97 -342 -97 -212 1 -361 60 -501 200
-65 65 -90 98 -122 166 -56 116 -72 184 -79 325 -4 92 -2 140 11 204 65 316
291 528 600 560 70 7 89 6 194 -5z m-1790 -1203 c-76 -1 -201 -1 -277 0 l-139
3 119 400 c65 220 128 432 140 470 l21 70 137 -470 137 -470 -138 -3z"/>
<path d="M9930 4421 c-135 -41 -209 -179 -166 -308 35 -106 117 -164 230 -164
138 0 236 99 236 239 0 158 -154 277 -300 233z"/>
</g>
</svg>
