<?xml version="1.0" encoding="UTF-8"?>
<svg width="322px" height="74px" viewBox="0 0 322 74" version="1.1" xmlns="http://www.w3.org/2000/svg" xmlns:xlink="http://www.w3.org/1999/xlink">
    <!-- Generator: Sketch 63.1 (92452) - https://sketch.com/ -->
    <title>Group 9</title>
    <desc>Created with Sketch.</desc>
    <g id="7-.-Retail" stroke="none" stroke-width="1" fill="none" fill-rule="evenodd">
        <g id="iRobot---Chatbox--Preview-Box" transform="translate(-122.000000, -170.000000)" fill="#FFFFFF" fill-rule="nonzero">
            <g id="Group-9" transform="translate(122.000000, 170.000000)">
                <path d="M30.8405797,17.6068522 C31.115942,16.7743041 31.115942,15.9417559 31.3913043,15.1092077 C32.4927536,10.3914347 33.3188406,5.67366167 34.4202899,1.23340471 C34.6956522,0.123340471 34.6956522,0.123340471 35.7971014,0.123340471 C37.173913,-0.154175589 38.5507246,0.123340471 40.2028986,0.123340471 C44.884058,0.123340471 49.5652174,0.123340471 54.2463768,0.123340471 C56.173913,0.123340471 58.3768116,0.123340471 60.3043478,0.400856531 C66.6376812,1.23340471 71.3188406,4.56359743 74.3478261,10.3914347 C75.4492754,12.8890792 76,15.3867238 76,17.8843683 C76,20.937045 75.7246377,23.9897216 74.6231884,26.7648822 C73.2463768,30.372591 71.3188406,33.7027837 68.8405797,36.4779443 C66.6376812,38.9755889 64.1594203,40.9182013 61.4057971,42.5832976 C61.1304348,42.8608137 60.8550725,42.8608137 60.5797101,43.1383298 C60.0289855,43.6933619 60.0289855,43.6933619 60.3043478,44.248394 C60.8550725,45.0809422 61.1304348,45.9134904 61.6811594,46.7460385 C66.0869565,54.7940043 70.4927536,63.1194861 74.8985507,71.1674518 C74.8985507,71.4449679 75.173913,71.4449679 75.173913,71.7224839 C74.8985507,71.7224839 74.6231884,71.7224839 74.3478261,71.7224839 C66.9130435,71.7224839 59.4782609,71.7224839 52.0434783,71.7224839 C51.4927536,71.7224839 51.2173913,71.4449679 50.942029,70.8899358 C48.1884058,65.6171306 45.1594203,60.0668094 42.4057971,54.7940043 C39.9275362,50.0762313 37.4492754,45.6359743 34.9710145,40.9182013 C33.0434783,37.5880086 31.3913043,34.2578158 29.4637681,30.9276231 C29.1884058,30.6501071 29.1884058,30.0950749 28.6376812,29.8175589 C28.3623188,29.8175589 28.3623188,30.0950749 28.3623188,30.372591 C27.5362319,34.5353319 26.7101449,38.6980728 25.884058,43.1383298 C25.057971,47.5785867 23.9565217,52.0188437 23.1304348,56.4591006 C22.0289855,61.4543897 21.2028986,66.4496788 20.1014493,71.4449679 C20.1014493,72 20.1014493,72 19.5507246,72 C14.3188406,72 8.8115942,72 3.57971014,72 C2.47826087,72 1.37681159,72 0.550724638,72 C0,72 0,72 0,71.4449679 C0.275362319,69.5023555 0.826086957,67.559743 1.10144928,65.6171306 C2.20289855,60.8993576 3.30434783,56.1815846 4.4057971,51.4638116 C5.50724638,46.7460385 7.43478261,42.5832976 10.7391304,38.9755889 C14.3188406,34.5353319 19,31.7601713 24.5072464,30.6501071 C26.1594203,30.372591 28.0869565,30.0950749 29.7391304,30.0950749 C32.2173913,30.0950749 34.6956522,30.0950749 37.173913,30.0950749 C39.9275362,30.0950749 42.6811594,30.0950749 45.4347826,30.0950749 C46.5362319,30.0950749 47.6376812,30.0950749 48.4637681,29.5400428 C51.2173913,28.4299786 53.1449275,25.3773019 53.1449275,22.3246253 C53.1449275,21.214561 52.8695652,20.3820128 52.0434783,19.5494647 C51.2173913,18.7169165 50.115942,18.1618844 49.0144928,18.1618844 C45.7101449,18.1618844 42.4057971,18.1618844 39.1014493,17.8843683 C36.8985507,17.8843683 34.6956522,17.8843683 32.2173913,17.8843683 C31.3913043,17.6068522 31.115942,17.6068522 30.8405797,17.6068522 Z" id="Path"></path>
                <path d="M160.256873,0.120552532 L172.150094,0.120552532 C172.703267,0.120552532 172.703267,0.120552532 172.426681,0.663038928 C172.150094,2.29049812 171.596921,4.1892005 171.320335,5.81665969 C170.490575,10.1565509 169.384229,14.2251988 168.554469,18.56509 C168.001296,19.1075764 168.001296,19.1075764 168.001296,19.3788196 C168.554469,19.3788196 169.107642,19.1075764 169.660815,18.8363332 C171.596921,18.2938468 173.809614,18.0226036 176.022306,17.7513604 C177.681825,17.4801172 179.341345,17.4801172 181.277451,17.4801172 C186.532595,17.4801172 191.511153,18.8363332 195.936538,21.277522 C199.532163,23.4474676 202.574615,26.4311427 204.510721,29.9573043 C205.340481,31.8560067 206.17024,33.7547091 206.723413,35.6534115 C207,36.7383843 207,37.5521139 207,38.6370866 C207,40.535789 207,42.7057346 206.723413,44.604437 C206.446827,46.7743826 205.893654,48.9443282 205.063894,50.8430306 C203.957548,53.8267057 202.574615,56.5391377 200.638509,58.9803265 C198.425817,61.9640017 195.936538,64.1339473 192.894086,66.0326496 C188.468701,68.7450816 183.76673,70.3725408 178.788172,71.1862704 C175.469133,71.7287568 172.150094,72 168.831056,72 C164.129084,72 159.703699,71.1862704 155.554901,69.287568 C151.406103,67.3888656 148.087064,64.6764337 145.597785,60.6077857 C144.214852,58.1665969 143.385093,55.4541649 143.108506,52.7417329 C142.83192,50.029301 143.108506,47.316869 143.661679,44.604437 C145.044612,37.2808707 146.704131,29.9573043 148.363651,22.9049812 C150.02317,15.5814148 151.682689,8.25784847 153.065622,0.934282126 C153.342209,0.120552532 153.342209,0.120552532 153.895382,0.120552532 C156.108074,-0.150690666 158.04418,0.120552532 160.256873,0.120552532 Z M178.150111,34.0828402 C176.216788,34.0828402 174.283464,34.0828402 172.35014,34.6269338 C170.140628,35.1710273 168.207304,35.9871676 166.826358,37.3474014 C163.2359,40.6119626 161.578766,44.6926641 162.131144,49.589506 C162.407333,53.3981607 165.445413,55.8465816 168.759682,56.3906751 C170.416817,56.6627219 172.073951,56.6627219 173.731086,56.6627219 C177.597733,56.3906751 180.912002,54.7583945 183.397704,52.0379269 C186.159595,49.3174592 187.264351,46.3249447 187.264351,42.51629 C187.264351,42.2442432 187.264351,42.2442432 187.540541,42.2442432 C187.540541,39.2517288 186.435784,37.0753547 183.950082,35.7151208 C182.016759,34.6269338 180.083435,34.0828402 178.150111,34.0828402 Z" id="Combined-Shape"></path>
                <path d="M251.328682,18 C253.774904,18 255.949323,18.5490196 258.395545,19.0980392 C261.928976,19.9215686 264.918803,21.5686275 267.908629,23.7647059 C271.170258,26.5098039 273.344677,30.0784314 274.431887,34.1960784 C274.975492,36.9411765 275.247294,39.6862745 274.703689,42.7058824 C274.160084,46.5490196 273.344677,50.3921569 271.713863,53.9607843 C268.724036,60.5490196 264.103395,65.4901961 257.85194,68.7843137 C253.774904,70.9803922 249.697868,72.0784314 245.077227,72.627451 C241.815598,73.7254902 239.097574,74 236.107747,74 C233.117921,74 230.128094,73.7254902 227.138268,72.9019608 C223.333034,71.8039216 220.071405,70.1568627 217.081579,67.4117647 C214.635357,65.2156863 213.004543,62.4705882 211.917333,59.1764706 C211.101926,56.4313725 210.830123,53.6862745 211.101926,50.9411765 C211.373728,48.1960784 211.645531,45.4509804 212.460938,42.7058824 C213.548148,38.8627451 215.450764,35.5686275 217.896986,32.2745098 C221.70222,27.3333333 226.594663,23.7647059 232.302514,21.2941176 C235.564143,19.9215686 239.097574,18.8235294 242.902808,18.2745098 C245.620832,18 248.610658,18 251.328682,18 Z M248.423072,34.5751759 C246.22899,34.3005824 244.034908,34.3005824 241.840826,34.5751759 C238.275442,35.3989564 235.258579,37.0465175 233.064496,40.0670462 C231.144674,42.8129813 230.321893,45.8335099 230.321893,48.8540386 C230.321893,49.4032256 230.047633,49.6778191 230.321893,49.4032256 C230.321893,50.2270061 230.596154,51.0507867 230.870414,51.8745672 C231.967455,54.3459088 233.887277,55.9934699 236.35562,56.5426569 C238.823962,57.3664375 241.566565,57.3664375 244.034908,56.8172504 C251.439936,55.1696894 256.10236,48.5794451 255.27958,41.4400137 C255.005319,39.7924526 254.456799,38.1448916 253.085497,36.771924 C251.714196,35.67355 250.068634,34.8497694 248.423072,34.5751759 Z" id="Combined-Shape"></path>
                <path d="M116.904062,18.2772277 C121.276451,18.8316832 125.375565,19.9405941 128.928131,22.4356436 C131.660873,24.3762376 133.847068,26.5940594 135.486713,29.3663366 C136.57981,31.3069307 137.126359,33.2475248 137.672908,35.4653465 C138.49273,40.4554455 137.672908,45.1683168 136.306536,49.8811881 C134.940165,54.039604 133.027245,57.9207921 130.294502,61.5247525 C127.835033,64.5742574 124.829016,67.0693069 121.276451,69.009901 C117.450611,71.2277228 113.351496,72.6138614 108.979108,73.1683168 C105.973091,73.7227723 102.967074,74 98.8679596,74 C96.4084911,74 93.1291997,73.7227723 89.8499083,72.6138614 C86.5706169,71.5049505 83.5645998,70.1188119 81.1051313,68.1782178 C78.0991142,65.6831683 76.1861942,62.6336634 75.0930971,59.029703 C74,55.4257426 73.7267257,52.0990099 74.2732743,48.4950495 C75.0930971,43.7821782 76.4594685,39.3465347 79.1922113,35.1881188 C82.744777,29.6435644 87.3904398,25.4851485 93.1291997,22.4356436 C97.2283139,20.2178218 101.600702,19.1089109 106.246365,18.2772277 C108.189649,18.0308031 110.348853,18.0034226 112.340119,18.0003803 L113.078222,18 C114.444594,18 115.537691,18 116.904062,18.2772277 Z M110.65493,34.1770428 C108.454794,33.8993424 106.529675,34.1770428 104.329539,34.4547432 C101.029335,35.2878444 98.279165,36.6763463 96.354046,39.4533503 C94.428927,41.9526538 93.3288591,45.0073582 93.3288591,48.3397629 C93.3288591,49.7282649 93.6038761,50.8390665 93.878893,51.9498681 C94.428927,54.4491716 96.079029,55.8376736 98.279165,56.6707748 C99.9292669,57.2261756 101.579369,57.503876 103.229471,57.503876 C104.329539,57.503876 105.429607,57.2261756 106.529675,56.9484752 C109.829879,56.3930744 112.580049,55.0045724 114.780185,52.5052689 C117.805372,49.4505645 118.90544,45.562759 118.630423,41.397253 C118.355406,40.0087511 117.805372,38.3425487 116.705304,37.2317471 C115.055202,35.2878444 113.130083,34.4547432 110.65493,34.1770428 Z" id="Combined-Shape"></path>
                <path d="M314.404103,55.6390977 C313.853638,57.8646617 313.578405,60.0902256 313.027939,62.037594 C312.202241,65.6541353 311.376542,69.2706767 310.826077,73.1654135 C310.550844,74 310.550844,74 309.725145,74 C306.147119,74 302.569092,73.7218045 298.991065,72.887218 C294.58734,71.7744361 290.458847,70.1052632 286.880821,67.3233083 C283.578027,64.5413534 281.376164,61.2030075 280.275233,57.3082707 C280,56.4736842 280,55.9172932 280,55.0827068 C280,53.1353383 280,50.9097744 280,48.962406 C280.275233,47.2932331 280.550466,45.3458647 280.825698,43.6766917 C282.201863,37.556391 283.302794,31.4360902 284.678958,25.593985 C286.055122,19.4736842 287.156054,13.3533835 288.532218,6.95488722 C289.082683,4.72932331 289.357916,2.78195489 289.908382,0.556390977 C289.908382,0 289.908382,0 290.73408,0 C296.238737,0 301.743393,0 307.24805,0 C307.798516,0 308.073748,0 308.624214,0 C309.17468,0 309.17468,0.278195489 309.17468,0.834586466 C308.899447,1.94736842 308.899447,2.78195489 308.624214,3.89473684 C307.798516,8.06766917 306.697584,12.518797 305.871886,16.6917293 C305.871886,16.6917293 305.871886,16.9699248 305.871886,16.9699248 C305.871886,17.5263158 305.871886,17.5263158 306.147119,17.5263158 C307.798516,17.5263158 309.449913,17.5263158 311.10131,17.5263158 C313.853638,17.5263158 316.605966,17.5263158 319.083062,17.5263158 C319.90876,17.5263158 320.734458,17.5263158 321.284924,17.5263158 C322.110623,17.5263158 322.110623,17.5263158 321.83539,18.3609023 C321.284924,21.6992481 320.459226,24.7593985 319.90876,28.0977444 C319.633527,30.0451128 319.083062,31.7142857 318.807829,33.6616541 C318.807829,34.2180451 318.807829,34.2180451 317.98213,34.2180451 C313.578405,34.2180451 309.17468,34.2180451 304.495722,34.2180451 C303.670023,34.2180451 302.844325,34.2180451 302.018626,34.2180451 C301.743393,34.2180451 301.468161,34.2180451 301.468161,34.7744361 C300.917695,37.2781955 300.367229,39.7819549 299.816764,42.2857143 C299.541531,43.6766917 299.266298,45.0676692 298.991065,46.7368421 C298.715832,49.518797 299.541531,51.7443609 301.743393,53.1353383 C303.670023,54.5263158 306.147119,55.3609023 308.624214,55.6390977 C310.000378,55.6390977 311.376542,55.6390977 313.027939,55.6390977 C313.853638,55.6390977 314.128871,55.6390977 314.404103,55.6390977 Z" id="Path"></path>
                <path d="M16.235158,18.9890343 C10.8102458,19.2642377 6.74156158,14.3105765 7.01280719,9.63211883 C7.01280719,4.12805093 11.0814914,0 16.5064036,0 C22.4738071,0.275203395 26,4.67845772 26,9.63211883 C25.7287544,14.0353731 22.2025614,18.9890343 16.235158,18.9890343 Z" id="Path"></path>
            </g>
        </g>
    </g>
</svg>