<?xml version="1.0" encoding="UTF-8"?>
<svg width="1440px" height="700px" viewBox="0 0 1440 700" version="1.1" xmlns="http://www.w3.org/2000/svg" xmlns:xlink="http://www.w3.org/1999/xlink">
    <title>bespoke-online-quizzes-header</title>
    <defs>
        <polygon id="path-1" points="0 372.997319 662.878659 372.997319 662.878659 0.158362266 0 0.158362266"></polygon>
    </defs>
    <g id="/*-Blog-*/" stroke="none" stroke-width="1" fill="none" fill-rule="evenodd">
        <g id="Group-95">
            <polygon id="Fill-1" fill="#D7A76C" points="949 570 949 584.563006 1392.28317 661 1558 590.031635 1558 574.383156 952.534545 570"></polygon>
            <polygon id="Fill-2" fill="#FCCF8C" points="949 570.466658 1388.60612 644 1558 574.865084 1123.30404 516"></polygon>
            <polygon id="Fill-3" fill="#FEFEFE" points="1226.14415 606 1137 591.608799 1205.85585 561 1295 575.391391"></polygon>
            <polygon id="Fill-4" fill="#D7A76C" points="1260.08804 576 1201 566.597467 1205.91196 565 1265 574.402533"></polygon>
            <polygon id="Fill-5" fill="#D7A76C" points="1253.08804 579 1194 569.597467 1198.91196 568 1258 577.402533"></polygon>
            <polygon id="Fill-6" fill="#D7A76C" points="1246.08804 582 1187 572.597467 1191.91196 571 1251 580.402723"></polygon>
            <polygon id="Fill-7" fill="#D7A76C" points="1235.08804 588 1176 578.597467 1180.91196 577 1240 586.402533"></polygon>
            <polygon id="Fill-8" fill="#D7A76C" points="1209.57115 589 1169 582.446563 1172.42885 581 1213 587.553255"></polygon>
            <g id="Group-94" transform="translate(895.000000, 303.000000)">
                <path d="M216.327562,155.254374 C216.327562,155.254374 194.141977,62.6824086 221.430341,0.158400289 C221.430341,0.158400289 253.099337,90.6458009 216.312156,157.759843" id="Fill-9" fill="#81B49D"></path>
                <path d="M224.52514,84.5514391 C227.878749,83.0590696 230.457716,79.7458192 232.921809,77.2148746 C233.307893,76.8184937 233.682186,76.4114665 234.064657,76.0118537 C234.041073,74.6474288 234.009121,73.2888972 233.962335,71.9419625 C233.404509,72.5605829 232.847445,73.1799638 232.281251,73.7915501 C230.795682,75.3962751 229.284818,76.9772362 227.748469,78.5334829 C227.125789,79.1642704 225.868828,80.802645 224.593038,81.8879873 C224.784178,74.3274723 224.911225,66.7652464 224.974367,59.20226 C226.459175,58.266915 227.40841,56.74793 228.443421,55.3295136 C229.710652,53.5928517 230.977694,51.8561899 232.244925,50.119338 C232.045607,48.4708875 231.836208,46.8441097 231.614638,45.2507914 C229.415288,48.2651877 227.215749,51.279584 225.016399,54.2941704 C225.043786,48.3959839 225.022295,42.4974172 224.971895,36.5990407 C226.782688,35.7828952 228.254373,34.3471787 229.599391,32.8152661 C229.355759,31.4964678 229.108132,30.211319 228.858033,28.9548769 C227.567979,30.3981979 226.265943,31.8291616 224.943747,33.2388329 C224.859493,25.6083572 224.710575,17.9782617 224.496041,10.3494969 C222.729753,3.87204296 221.430379,0.1584193 221.430379,0.1584193 C220.826909,1.54109489 220.256151,2.94354199 219.700227,4.35435397 C220.02431,14.0309919 220.250255,23.7101012 220.362847,33.389971 C220.242647,33.3118354 220.119404,33.2325593 219.991597,33.1521424 C218.247561,32.0553934 216.515317,30.9392531 214.777176,29.8329986 C214.038861,29.3628546 213.300356,28.8929008 212.562041,28.422947 C212.283984,29.7274871 212.023235,31.03697 211.772946,32.3494948 C213.092669,33.1890239 214.410111,34.031975 215.731356,34.8690327 C217.311259,35.870156 218.791693,36.7534106 220.393467,37.1151914 C220.448622,43.3576684 220.467831,49.6001455 220.435119,55.8422423 C219.988935,55.4399679 219.604181,55.074575 219.435103,54.9472008 C217.416624,53.4270752 215.398144,51.9069495 213.379665,50.3868238 C212.079531,49.4075633 210.779397,48.4284928 209.479262,47.4492323 C209.303908,48.9706887 209.149284,50.4923353 209.00436,52.0136016 C210.455314,53.1063583 211.906078,54.1989249 213.356842,55.2916815 C215.587763,56.9716904 217.816972,59.2752625 220.399173,59.9423612 C220.340595,66.9857749 220.227622,74.028238 220.057403,81.0697506 C219.280479,80.1433408 218.564607,79.1055262 218.05585,78.5572467 C216.50904,76.891116 214.962231,75.2251754 213.415421,73.5588545 C211.609383,71.613261 209.803155,69.6678575 207.996927,67.722264 C207.927127,69.7515062 207.877678,71.7723837 207.850481,73.7801434 C209.305239,75.3472265 210.759807,76.9141194 212.214565,78.4810123 C214.541342,80.9872425 216.734034,84.3485909 219.953179,85.1272846 C219.782199,91.4129168 219.565953,97.6972182 219.305774,103.979809 C215.916981,98.4979648 212.145907,93.2818957 207.996546,88.3521335 C208.08004,90.9277541 208.19149,93.4674438 208.327476,95.9645487 C212.157128,101.061038 215.628654,106.420451 218.702684,112.046779 C218.762974,112.157043 218.850842,112.236319 218.941942,112.311223 C218.784465,115.613447 218.617479,118.9151 218.435658,122.215994 C218.415118,122.19242 218.391154,122.162382 218.371564,122.140139 C216.835976,120.420968 215.300197,118.701606 213.764608,116.982434 C212.370711,115.421625 210.976813,113.861006 209.582725,112.300196 C209.841193,114.91498 210.118869,117.446875 210.408527,119.889608 C210.812299,120.341692 211.216071,120.793775 211.620033,121.245858 C213.596481,123.459128 215.510546,126.375617 218.105109,127.811334 C217.570107,136.828287 216.950089,145.840488 216.232315,154.845845 C216.292225,155.105536 216.3276,155.254393 216.3276,155.254393 L216.312194,157.759862 C218.150755,154.405738 219.810917,150.991349 221.319689,147.534755 C221.790788,141.219846 222.215101,134.901895 222.59624,128.581662 C224.543398,128.305622 226.530306,127.58206 228.491348,126.681315 C228.847953,125.313848 229.187441,123.944481 229.505628,122.573212 C228.195033,123.131377 226.881015,123.676424 225.5592,124.191815 C224.854548,124.466715 223.784733,124.984577 222.79708,125.201683 C223.06848,120.500624 223.322763,115.798805 223.544524,111.095274 C226.685311,109.027059 229.727959,106.83204 232.666765,104.510598 C232.850481,102.996556 233.009867,101.485936 233.155742,99.9775968 C230.12983,102.567666 226.982386,105.017053 223.710369,107.315872 C224.046624,99.7300726 224.318024,92.1418015 224.52514,84.5514391" id="Fill-11" fill="#487568"></path>
                <path d="M217.580415,184.069158 C217.580415,184.069158 213.72794,88.9559823 252.600356,32.8890861 C252.600356,32.8890861 266.160285,127.790859 217.080597,186.524248" id="Fill-13" fill="#81B49D"></path>
                <path d="M254.295305,66.5087679 C254.311471,65.1675365 254.317367,63.8590041 254.315275,62.5778477 C252.769986,63.7445574 251.215759,64.8966287 249.645746,66.0239855 C251.039644,58.5214543 252.370208,51.006756 253.635918,43.480461 C253.156451,36.7838093 252.600337,32.8890101 252.600337,32.8890101 C251.740682,34.1291026 250.909174,35.3944798 250.090789,36.6712637 C248.536182,46.2277516 246.884768,55.76789 245.122093,65.2865458 C245.019391,65.1867377 244.913836,65.0850284 244.803906,64.9814181 C243.304834,63.5683247 241.821357,62.1383116 240.330273,60.7168534 C239.696752,60.1128715 239.063231,59.5090797 238.429901,58.9050978 C237.904598,60.1311221 237.395271,61.3655113 236.895834,62.6048434 C238.028031,63.683722 239.157565,64.7654522 240.291855,65.8422396 C241.648095,67.1298598 242.929781,68.2826915 244.431135,68.9475088 C243.277256,75.0825733 242.088193,81.2107938 240.848158,87.3287483 C240.48832,86.8479581 240.181545,86.4148858 240.040234,86.257284 C238.354015,84.3755676 236.667797,82.4938513 234.981578,80.612135 C233.895597,79.4001788 232.809426,78.1880326 231.723255,76.9758864 C231.257101,78.4347964 230.810726,79.8976987 230.374052,81.362312 C231.586128,82.71476 232.798205,84.0673981 234.010281,85.4200362 C235.873756,87.4996578 237.61513,90.1908658 240.019503,91.3444579 C238.59917,98.2435776 237.125392,105.131291 235.5957,112.006646 C235.012769,110.947729 234.51124,109.790905 234.118119,109.154795 C232.922969,107.220988 231.727819,105.287371 230.53267,103.353565 C229.13706,101.095619 227.741451,98.8374836 226.345842,96.5793479 C225.884633,98.5568801 225.445105,100.52985 225.029922,102.494644 C226.153941,104.313244 227.27796,106.131843 228.401978,107.950443 C230.199648,110.859328 231.700622,114.581126 234.708276,115.967604 C233.323888,122.101338 231.895756,128.225186 230.425022,134.338768 C228.160818,128.305412 225.4704,122.458556 222.353387,116.819681 C221.936873,119.362792 221.554592,121.876057 221.205024,124.352249 C223.976083,130.093024 226.344891,136.022389 228.271889,142.136731 C228.309737,142.256691 228.380677,142.351366 228.455422,142.442619 C227.662142,145.652069 226.859353,148.859048 226.042109,152.062414 C226.026514,152.035228 226.008826,152.001198 225.993801,151.975533 C224.819953,149.991918 223.646104,148.008112 222.472256,146.024496 C221.406435,144.223767 220.340994,142.422848 219.275363,140.622119 C219.022792,143.237472 218.805405,145.775261 218.616928,148.22788 C218.925605,148.749544 219.234092,149.271208 219.542769,149.792682 C221.053824,152.346249 222.367461,155.577752 224.634898,157.488175 C222.365369,166.231369 220.013108,174.953461 217.566132,183.649888 C217.57469,183.916233 217.580396,184.069082 217.580396,184.069082 L217.080578,186.524172 C219.53345,183.589052 221.822759,180.560208 223.972279,177.460642 C225.656405,171.355995 227.295267,165.239561 228.892287,159.112101 C230.855991,159.217803 232.945411,158.892333 235.04377,158.387779 C235.658462,157.114988 236.256227,155.837253 236.834022,154.553245 C235.440125,154.847537 234.045276,155.12814 232.648906,155.378326 C231.904125,155.511784 230.75443,155.812919 229.743384,155.834972 C230.919515,151.275165 232.078909,146.711366 233.206731,142.139583 C236.688147,140.717744 240.098242,139.152372 243.430739,137.443086 C243.90393,135.993112 244.352777,134.541806 244.78774,133.09031 C241.317736,135.04636 237.75568,136.840815 234.100812,138.463411 C235.898671,131.085972 237.633198,123.693515 239.305343,116.28661 C242.884515,115.470845 246.055732,112.718801 248.963157,110.712182 C249.41866,110.397929 249.864654,110.070939 250.317114,109.752883 C250.557894,108.409561 250.789545,107.07042 251.004459,105.739835 C250.337275,106.239066 249.670851,106.739057 248.99701,107.229543 C247.22901,108.516783 245.44066,109.775696 243.63234,111.005523 C242.89935,111.503993 241.349117,112.868418 239.887322,113.686465 C241.537785,106.305795 243.125866,98.9110564 244.651374,91.5032004 C246.289285,90.8724129 247.514485,89.5657816 248.804349,88.3741673 C250.383681,86.9152573 251.963013,85.4563473 253.542345,83.9976274 C253.665778,82.3415726 253.775327,80.7050991 253.866238,79.0990434 C251.125039,81.6313188 248.38365,84.163404 245.642451,86.6956794 C246.810784,80.914221 247.930999,75.1230669 249.023066,69.3262095 C250.957672,68.8756469 252.679266,67.7517121 254.295305,66.5087679" id="Fill-15" fill="#487568"></path>
                <path d="M218.339346,179.635604 C218.339346,179.635604 175.514605,114.141875 179.303367,58.2006424 C179.303367,58.2006424 228.889148,119.455091 219.021936,181.578726" id="Fill-17" fill="#81B49D"></path>
                <path d="M215.79798,157.258807 C217.228393,156.505968 218.565424,155.395911 219.833417,154.155819 C219.730334,152.998805 219.613558,151.845212 219.479665,150.695803 C218.620199,151.490656 217.754267,152.276384 216.874451,153.041199 C216.405064,153.449177 215.720953,154.145933 215.016682,154.58775 C213.923854,150.874507 212.817523,147.165446 211.685516,143.464369 C213.542714,140.99407 215.289033,138.45286 216.919906,135.842639 C216.64242,134.620037 216.347056,133.40694 216.041992,132.199356 C214.418156,135.041512 212.661377,137.808574 210.766521,140.493509 C208.924347,134.530304 207.031202,128.582879 205.087848,122.651613 C207.269319,120.567999 208.346742,117.29011 209.552352,114.649091 C209.74121,114.23541 209.918086,113.816786 210.10314,113.401584 C209.706786,112.352173 209.305486,111.309795 208.896009,110.280346 C208.63583,110.913604 208.376412,111.547244 208.107864,112.177271 C207.402832,113.830474 206.671745,115.47227 205.91422,117.10209 C205.607255,117.762535 205.088609,119.378476 204.402025,120.571612 C202.454677,114.668102 200.457118,108.780752 198.40992,102.910702 C199.299816,101.77574 199.613248,100.337362 200.021204,98.953166 C200.520451,97.2581384 201.019698,95.5633009 201.518945,93.8684635 C200.907867,92.6479524 200.294887,91.4470227 199.681906,90.27537 C198.815214,93.217144 197.948711,96.1591081 197.082018,99.100882 C195.468642,94.5289083 193.817228,89.9702423 192.143562,85.419751 C193.318552,84.286881 194.059529,82.7682762 194.675933,81.2103185 C194.121721,80.2571031 193.573976,79.3312637 193.032317,78.4282376 C192.433981,79.9021663 191.822903,81.3702016 191.190523,82.8272105 C189.010573,76.9457538 186.780603,71.0823576 184.500233,65.2381626 C181.338146,60.7146671 179.30331,58.2006424 179.30331,58.2006424 C179.219627,59.4378832 179.166564,60.6812076 179.127385,61.9268134 C182.060104,69.3255441 184.917509,76.7531716 187.687426,84.2127378 C187.572742,84.1855519 187.455395,84.1583661 187.334245,84.1315605 C185.680548,83.7657874 184.030656,83.3817636 182.379052,83.0068652 C181.677443,82.8477425 180.975645,82.6884297 180.274036,82.529307 C180.420482,83.6155999 180.581382,84.7013224 180.751602,85.7862846 C182.00552,86.0705002 183.258868,86.3579476 184.513166,86.6398819 C186.01319,86.9771384 187.403854,87.2507078 188.743548,87.0870224 C190.516302,91.9025281 192.261289,96.7279195 193.965956,101.567569 C193.509122,101.37993 193.110294,101.203507 192.944069,101.151797 C190.960775,100.534507 188.97729,99.9170276 186.993996,99.2995478 C185.716494,98.9018361 184.438992,98.5041244 183.161491,98.1066027 C183.447535,99.332437 183.749556,100.552758 184.058994,101.770227 C185.484653,102.213946 186.910122,102.657664 188.335782,103.101573 C190.527904,103.78388 192.891387,104.949259 195.07438,104.750404 C196.981218,110.217039 198.845644,115.698312 200.665375,121.194414 C199.807431,120.692712 198.965844,120.08778 198.42019,119.804515 C196.761359,118.943503 195.102718,118.082491 193.443887,117.22167 C191.506998,116.216174 189.56992,115.210868 187.633032,114.205372 C188.141408,115.795079 188.663288,117.372428 189.198861,118.933807 C190.758794,119.743679 192.318727,120.553361 193.878659,121.363043 C196.373943,122.658267 199.00236,124.652149 201.709325,124.363561 C203.319087,129.274882 204.893474,134.197801 206.433437,139.131745 C202.291684,135.82819 197.9276,132.835847 193.350313,130.169924 C194.128949,132.140042 194.918995,134.074609 195.716269,135.969253 C200.092335,138.852663 204.264138,142.038729 208.202198,145.54133 C208.279605,145.61015 208.369565,145.647031 208.460856,145.67992 C209.254325,148.278925 210.039998,150.88021 210.814068,153.484918 C210.791626,153.47237 210.764809,153.455641 210.743508,153.444044 C209.078591,152.538736 207.413863,151.633619 205.748946,150.728312 C204.237702,149.906653 202.726457,149.084804 201.215023,148.263145 C202.139723,150.215013 203.056436,152.097299 203.957553,153.907534 C204.395369,154.145553 204.833184,154.383571 205.27081,154.62159 C207.413863,155.786779 209.703362,157.513745 212.108877,157.906514 C214.194113,165.032436 216.212022,172.178319 218.152333,179.345875 C218.270821,179.530092 218.339289,179.635604 218.339289,179.635604 L219.021879,181.578726 C219.51504,178.474027 219.853387,175.37199 220.063165,172.279268 C218.677446,167.262055 217.25483,162.255298 215.79798,157.258807" id="Fill-19" fill="#487568"></path>
                <mask id="mask-2" fill="white">
                    <use xlink:href="#path-1"></use>
                </mask>
                <g id="Clip-22"></g>
                <polygon id="Fill-21" fill="#3B3247" mask="url(#mask-2)" points="187.638319 238.936151 252.487935 238.936151 252.487935 174.113323 187.638319 174.113323"></polygon>
                <path d="M220.034085,221.163627 C213.787317,221.257542 201.316032,205.01657 207.734351,199.419709 C213.789219,194.139762 219.378693,202.114149 219.378693,202.114149 C219.378693,202.114149 225.848363,194.562189 230.898651,198.353758 C238.867774,204.336733 226.351795,221.068572 220.034085,221.163627" id="Fill-23" fill="#E45E4A" mask="url(#mask-2)"></path>
                <polygon id="Fill-24" fill="#24223E" mask="url(#mask-2)" points="256.570216 19.3318693 261.243739 17.0109971 523.845562 51.0628767 523.845562 225.611554 517.25322 228.613403"></polygon>
                <polyline id="Fill-25" fill="#24223E" mask="url(#mask-2)" points="317.392003 247.642179 317.392003 253.923058 409.865668 266.911806 450.607646 253.386755 450.607646 248.395968 318.129367 247.642179"></polyline>
                <polygon id="Fill-26" fill="#3B3247" mask="url(#mask-2)" points="409.098539 260.244013 317.391908 247.64214 358.901109 235.794057 450.607551 248.39593"></polygon>
                <polygon id="Fill-27" fill="#3B3247" mask="url(#mask-2)" points="393.151887 250.547071 377.326043 248.670298 377.326043 183.247861 393.151887 183.247861"></polygon>
                <polygon id="Fill-28" fill="#3B3247" mask="url(#mask-2)" points="517.25322 228.613365 256.570216 194.12423 256.570216 19.3318313 517.25322 53.8209657"></polygon>
                <path d="M388.488445,39.4018246 C388.488445,40.5495233 387.557658,41.4797353 386.409675,41.4797353 C385.261502,41.4797353 384.330906,40.5495233 384.330906,39.4018246 C384.330906,38.2543161 385.261502,37.323914 386.409675,37.323914 C387.557658,37.323914 388.488445,38.2543161 388.488445,39.4018246" id="Fill-29" fill="#102328" mask="url(#mask-2)"></path>
                <path d="M387.879591,39.4018246 C387.879591,40.2134075 387.221536,40.8711907 386.409618,40.8711907 C385.59789,40.8711907 384.939645,40.2134075 384.939645,39.4018246 C384.939645,38.5904319 385.59789,37.9324585 386.409618,37.9324585 C387.221536,37.9324585 387.879591,38.5904319 387.879591,39.4018246" id="Fill-30" fill="#3A464A" mask="url(#mask-2)"></path>
                <polygon id="Fill-31" fill="#FEFEFE" mask="url(#mask-2)" points="507.738599 217.6031 265.080789 187.126633 265.080789 28.0214141 507.738599 58.4978806"></polygon>
                <polygon id="Fill-32" fill="#FCCF8C" mask="url(#mask-2)" points="382.62409 151.151859 285.076554 138.900361 285.076554 109.645166 382.62409 121.896665"></polygon>
                <polygon id="Fill-33" fill="#FCCF8C" mask="url(#mask-2)" points="487.926444 125.114669 285.076592 99.6377358 285.076592 70.3825409 487.926444 95.8594745"></polygon>
                <polygon id="Fill-34" fill="#FCCF8C" mask="url(#mask-2)" points="382.62409 187.534269 285.076554 175.282771 285.076554 146.027576 382.62409 158.279074"></polygon>
                <polygon id="Fill-35" fill="#81B49D" mask="url(#mask-2)" points="487.926444 164.377276 390.378907 152.125778 390.378907 122.870583 487.926444 135.122081"></polygon>
                <polygon id="Fill-36" fill="#FCCF8C" mask="url(#mask-2)" points="487.926444 200.759685 390.378907 188.508187 390.378907 159.252992 487.926444 171.50449"></polygon>
                <path d="M299.665939,53.025238 C299.665939,57.5789612 295.973033,60.8064716 291.417428,60.2344283 C286.861823,59.6621949 283.168917,55.506944 283.168917,50.9532208 C283.168917,46.3996878 286.861823,43.1719872 291.417428,43.7442206 C295.973033,44.3162639 299.665939,48.4715149 299.665939,53.025238" id="Fill-37" fill="#FCCF8C" mask="url(#mask-2)"></path>
                <polygon id="Fill-38" fill="#FCCF8C" mask="url(#mask-2)" points="350.936227 67.7096406 304.67971 61.9000458 304.67971 46.5415675 350.936227 52.3511623"></polygon>
                <polygon id="Fill-39" fill="#3B3247" mask="url(#mask-2)" points="457.968011 101.674792 290.409691 80.6302905 290.409691 76.9659056 457.968011 98.0102166"></polygon>
                <polygon id="Fill-40" fill="#3B3247" mask="url(#mask-2)" points="457.968011 108.556706 290.409691 87.5122051 290.409691 83.8478202 457.968011 104.892131"></polygon>
                <polygon id="Fill-41" fill="#3B3247" mask="url(#mask-2)" points="412.250699 109.928298 290.40971 94.6257127 290.40971 90.9611376 412.250699 106.263723"></polygon>
                <polygon id="Fill-42" fill="#3B3247" mask="url(#mask-2)" points="338.822612 125.120012 290.409729 119.039699 290.409729 115.375124 338.822612 121.455627"></polygon>
                <polygon id="Fill-43" fill="#3B3247" mask="url(#mask-2)" points="359.30916 165.415813 290.409653 156.762351 290.409653 153.097966 359.30916 161.751238"></polygon>
                <polygon id="Fill-44" fill="#3B3247" mask="url(#mask-2)" points="463.359194 140.761166 394.459686 132.107704 394.459686 128.443319 463.359194 137.09659"></polygon>
                <polygon id="Fill-45" fill="#3B3247" mask="url(#mask-2)" points="342.919918 169.752316 290.409786 163.157373 290.409786 159.492798 342.919918 166.087741"></polygon>
                <polygon id="Fill-46" fill="#3B3247" mask="url(#mask-2)" points="467.384608 178.989512 395.376265 169.945563 395.376265 166.281178 467.384608 175.324937"></polygon>
                <polygon id="Fill-47" fill="#3B3247" mask="url(#mask-2)" points="457.24919 184.111458 395.376227 176.34049 395.376227 172.676105 457.24919 180.446883"></polygon>
                <polygon id="Fill-48" fill="#FEFEFE" mask="url(#mask-2)" points="484.180475 143.069528 480.11765 139.201345 468.00259 152.326402 460.608409 145.28641 457.249095 148.9257 468.67529 159.804219 468.700775 159.776462 468.731776 159.80593"></polygon>
                <path d="M2.50601067,200.846737 C2.29090654,199.639534 2.15111738,198.413319 2.11250895,197.170565 C1.8709685,189.402639 5.08022324,182.351051 10.3374367,176.75324 C15.4550511,171.304095 21.8636707,167.36576 27.8844943,163.02344 C31.5496329,160.38014 35.055583,157.535133 38.060194,154.233099 C34.9437516,160.403334 29.8898506,166.813488 21.5277964,173.660137 C7.6222938,185.045491 3.23196334,194.253125 2.50601067,200.846737 M165.215073,124.157576 C166.353547,124.989881 167.526064,125.776559 168.772185,126.453543 C170.874728,127.595729 173.095378,128.527652 175.35768,129.357866 C179.147012,132.046792 183.086024,134.530399 186.964364,137.086439 C192.254861,140.57307 197.834445,144.742199 202.243604,149.689832 C191.023195,145.126603 176.568996,140.475733 165.215073,124.157576 M220.860667,167.60644 C218.23111,161.477269 214.317584,155.502468 208.548571,152.517159 C207.679406,152.067357 206.771442,151.636756 205.833808,151.2149 C205.704099,151.048363 205.578004,150.878404 205.445632,150.713958 C198.567625,142.175704 188.91837,136.939863 179.922414,130.901755 C180.96256,131.227795 182.003656,131.547371 183.038096,131.859343 C193.241753,134.937617 203.863067,137.686428 211.781599,145.265954 C215.392724,148.722548 218.305474,152.971904 219.934826,157.714407 C221.037734,160.924807 221.156982,164.266004 220.860667,167.60644 M172.506362,127.250678 C171.451952,126.752208 170.416561,126.219707 169.42111,125.621048 C166.841953,124.070125 164.55854,122.111414 162.501833,119.931984 C160.939237,117.285262 159.454809,114.369343 158.063194,111.159133 C161.248295,116.224254 164.825185,120.875694 169.438228,124.818211 C170.432157,125.667816 171.470971,126.457156 172.506362,127.250678 M5.63557608,212.502428 C7.5422241,215.018544 9.88269398,217.262992 12.677336,219.060299 C13.2572232,219.433106 15.3806871,219.174746 14.3494806,218.511449 C11.7423652,216.834862 9.47264578,214.725013 7.61240396,212.315169 L25.8802792,210.182697 L31.6690718,197.527974 L33.9349874,209.242599 L181.834578,191.979021 L180.24954,179.333233 L189.667906,191.059075 L214.370837,188.069203 C213.655535,189.140287 212.853506,190.146163 211.92291,191.032839 C211.640859,191.301656 213.602092,191.921987 214.033821,191.510588 C215.190363,190.408325 216.167365,189.126028 217.013898,187.749436 L225.889463,186.67512 C225.889463,186.67512 225.164271,179.743872 222.522732,171.954654 C222.815623,170.267801 223.051458,168.572963 223.155682,166.872042 C223.700955,157.968585 219.290654,150.055795 212.720184,144.239166 C204.870499,137.290237 194.653719,134.541236 184.841091,131.600792 C182.453834,130.885596 180.016558,130.161464 177.621884,129.322695 C174.963037,127.45961 172.384831,125.498237 169.990347,123.314815 C164.573375,118.375167 160.830449,112.302649 157.151236,106.037168 C156.124024,104.288149 155.079123,102.542172 153.988388,100.828704 C134.346965,54.5044138 92.6167637,72.5189296 92.6167637,72.5189296 C71.4386114,66.6557236 54.5298291,85.8017786 46.8123265,108.054244 C42.1692344,121.441844 44.7636071,133.615206 41.0707009,146.514602 C40.2730468,147.980926 39.4137714,149.416452 38.4109031,150.776885 C29.2394031,163.219254 12.8424203,167.990844 4.34780413,181.084153 C-1.66617263,190.353954 -1.22322169,201.880559 4.33258898,210.631548 C4.9436673,211.714229 5.49540654,212.349389 5.63557608,212.502428" id="Fill-49" fill="#30323E" mask="url(#mask-2)"></path>
                <path d="M127.666204,95.5189101 C101.623198,92.2991942 74.9887044,94.1299608 49.6670873,100.912923 C48.6124875,103.238738 47.6545039,105.625959 46.8123455,108.054434 C46.5862104,108.706323 46.390886,109.35308 46.1974634,109.999457 C50.0978662,108.661647 54.0326932,107.421555 58.0200125,106.346669 C75.3354195,101.678499 92.9271717,99.6536291 110.368484,100.108564 C115.968228,100.254759 120.855143,100.574145 126.03495,101.185922 C126.257852,99.2093402 126.801222,97.3202096 127.666204,95.5189101" id="Fill-50" fill="#FEFEFE" mask="url(#mask-2)"></path>
                <path d="M5.03516738,184.311397 C4.14051678,184.455121 3.24434466,184.59067 2.35159596,184.756256 C2.91379561,183.502476 3.57565448,182.27436 4.34782315,181.084267 C4.87160456,180.276486 5.4269574,179.501785 6.00741523,178.753699 C6.92983348,178.678225 7.8526321,178.614158 8.77619148,178.558836 C7.30869062,180.354812 6.05534294,182.280444 5.03516738,184.311397" id="Fill-51" fill="#FEFEFE" mask="url(#mask-2)"></path>
                <path d="M221.197854,158.435782 C221.10371,158.437113 220.968486,158.437113 220.775253,158.434832 C220.567567,158.43236 220.35988,158.43179 220.152193,158.428178 C220.081443,158.189969 220.016017,157.95119 219.934807,157.714502 C219.048334,155.134319 217.771783,152.707175 216.219838,150.46729 C216.912318,150.457594 217.604797,150.461016 218.297086,150.475464 C220.027429,152.971238 221.372258,155.684689 222.212324,158.567339 C222.003496,158.540723 221.79619,158.506694 221.586791,158.48369 C221.401737,158.463158 221.278114,158.447569 221.197854,158.435782" id="Fill-52" fill="#FEFEFE" mask="url(#mask-2)"></path>
                <path d="M215.619506,158.571122 C215.457845,158.582909 215.295423,158.581958 215.133952,158.594886 C214.881381,158.625494 214.073837,158.708762 213.94622,158.726062 C213.296343,158.815414 212.647988,158.916553 212.001534,159.028909 C210.598888,159.272631 209.205941,159.570725 207.825167,159.916916 C205.6688,160.457971 203.282685,161.263281 200.833997,162.262503 C190.701661,166.396461 181.851961,172.953572 173.511018,179.932538 C171.128516,181.926039 166.784212,181.387456 164.225594,180.0736 C161.999048,178.930464 160.181409,176.424994 162.576653,174.420847 C172.059303,166.486384 182.366043,159.097349 194.03568,154.743812 C197.997514,153.265891 202.093241,152.140816 206.248878,151.414022 C207.03531,151.773712 207.812234,152.136063 208.548457,152.517235 C211.31438,153.948389 213.643629,156.07801 215.619506,158.571122" id="Fill-53" fill="#FEFEFE" mask="url(#mask-2)"></path>
                <path d="M162.835957,141.961449 C142.718301,130.901755 154.990077,101.807584 130.647745,90.7475101 C106.305412,79.6874362 88.1995785,99.3945081 88.1995785,99.3945081 L116.807287,199.569383 L181.83454,191.979021 L180.249502,179.333233 L189.667868,191.059075 L205.616955,189.12869 C204.119594,179.055101 196.255455,160.950472 162.835957,141.961449" id="Fill-54" fill="#222432" mask="url(#mask-2)"></path>
                <path d="M19.7349767,325.897339 C19.7349767,325.897339 78.3749113,191.979135 114.421495,191.979135 C200.377752,191.979135 179.637035,372.37771 179.637035,372.37771 C145.368342,376.864894 38.8185739,356.532168 19.7349767,325.897339" id="Fill-55" fill="#E45E4A" mask="url(#mask-2)"></path>
                <path d="M154.125324,210.084238 C144.513155,198.922645 131.757347,191.97904 114.894781,191.97904 C107.072864,191.97904 98.1872189,198.287105 89.0676406,208.161648 C96.9291165,214.902786 109.127099,219.231798 122.823203,219.231798 C135.167632,219.231798 146.293137,215.713988 154.125324,210.084238" id="Fill-56" fill="#BF4240" mask="url(#mask-2)"></path>
                <path d="M106.419165,274.345479 C88.2703479,218.441697 70.5949125,236.55355 71.3857197,266.911768 C72.1763367,297.269985 94.532712,337.669473 121.647244,354.782674 C130.812658,360.567364 139.952206,366.530568 149.85156,372.000245 C162.193517,373.161822 172.798093,373.335203 180.110112,372.377615 C180.110112,372.377615 182.19725,354.222417 182.303375,329.431403 C151.625076,320.750946 116.180252,304.412447 106.419165,274.345479" id="Fill-57" fill="#BF4240" mask="url(#mask-2)"></path>
                <path d="M487.426417,299.589469 C487.173275,312.733728 426.541487,330.126201 410.932079,318.419941 C396.814135,307.832102 423.716225,284.328708 445.054707,281.285225 C466.393379,278.241742 487.766095,281.950422 487.426417,299.589469" id="Fill-58" fill="#3B3247" mask="url(#mask-2)"></path>
                <path d="M82.8349271,288.982239 C103.948795,343.329964 174.715392,371.705897 220.535805,371.765025 C323.950682,371.897338 392.995114,337.663713 413.66489,306.342394 C415.619466,303.380658 417.75377,299.378256 416.34713,296.153788 C412.021084,286.23685 378.403598,293.312963 358.408424,295.617485 C297.687437,302.616033 245.515462,279.104464 211.95237,263.978872 C147.149731,234.775007 121.430808,214.125746 92.7862034,222.463434 C70.0245347,229.088794 72.0091603,261.116184 82.8349271,288.982239" id="Fill-59" fill="#E45E4A" mask="url(#mask-2)"></path>
                <path d="M416.575034,305.778563 C407.275156,310.586084 394.84305,287.724885 422.257701,275.510268 C443.903529,265.865759 478.57162,276.383067 479.498032,279.573886 C480.424635,282.764515 475.229233,283.208804 475.229233,283.208804 C475.229233,283.208804 479.993666,283.847576 479.810513,287.067482 C479.627361,290.287388 474.699365,289.268964 474.699365,289.268964 C474.699365,289.268964 479.565169,291.302579 477.414128,293.48429 C474.082581,296.863699 442.68879,292.278798 416.575034,305.778563" id="Fill-60" fill="#E9987B" mask="url(#mask-2)"></path>
                <path d="M471.344597,281.822421 C465.004065,279.852303 458.410201,278.742436 451.772403,278.549094 C449.873553,278.493772 447.973371,278.512402 446.076043,278.605557 C445.868926,278.615633 445.483222,278.603465 445.351802,278.40537 C445.227988,278.218681 445.407527,278.11393 445.596195,278.104805 C452.440158,277.768879 459.306944,278.360504 465.991338,279.868653 C467.914913,280.302675 469.819849,280.815784 471.702914,281.400945 C471.855826,281.448473 472.13179,281.554935 472.033653,281.755882 C471.944644,281.938008 471.476969,281.863485 471.344597,281.822421" id="Fill-61" fill="#C8665C" mask="url(#mask-2)"></path>
                <path d="M471.459281,288.499567 C464.93883,286.63382 458.114266,285.880982 451.343336,286.265956 C449.434596,286.374509 447.532893,286.574886 445.643172,286.864615 C445.403723,286.901306 445.05834,286.859672 444.925587,286.622223 C444.805388,286.407208 444.965527,286.195425 445.194705,286.160254 C452.114934,285.099436 459.199867,285.198104 466.08358,286.484393 C468.026934,286.847695 469.952031,287.306812 471.852593,287.850719 C472.056475,287.908893 472.281469,288.129612 472.16108,288.35071 C472.033272,288.585497 471.668679,288.559452 471.459281,288.499567" id="Fill-62" fill="#C8665C" mask="url(#mask-2)"></path>
                <path d="M362.336898,335.277461 C353.041395,339.104011 343.823299,342.251865 334.241941,344.86912 C342.83983,334.956364 352.556222,326.081994 363.230598,318.428705 C364.291094,317.668262 364.17736,316.510107 362.697878,316.441477 C351.984132,315.945288 341.270197,315.449099 330.556262,314.95291 C340.026359,311.882431 349.357998,308.393708 358.509909,304.470012 C359.038445,304.2434 362.203766,302.435447 360.073265,301.839069 C354.069939,300.15811 348.066422,298.47715 342.063096,296.796191 C336.121391,296.974325 330.275922,296.879269 324.535818,296.551518 C333.529491,299.069536 342.522974,301.587743 351.516647,304.10595 C341.457153,308.245422 331.254066,311.849542 320.928878,314.887321 C319.972225,315.168876 318.409059,315.643202 317.923696,316.61809 C317.516691,317.435376 318.239601,317.918447 319.067495,317.95666 C331.100774,318.514065 343.134243,319.071469 355.167521,319.628684 C344.134638,327.844511 334.081991,337.370961 325.303422,347.960701 C323.686623,349.911047 328.232528,349.427025 328.928621,349.255736 C339.169175,346.734677 349.255106,343.572754 359.104821,339.800577 C358.188679,342.383041 357.272537,344.965696 356.356395,347.548161 C359.068495,346.401412 361.701286,345.228049 364.251344,344.030161 C365.219978,341.29979 366.188613,338.569419 367.157247,335.838858 C367.846303,333.896307 362.910509,335.041344 362.336898,335.277461" id="Fill-63" fill="#FEFEFE" mask="url(#mask-2)"></path>
                <path d="M323.222428,325.623542 C324.820018,324.098663 323.349855,323.165029 321.746559,322.983664 C309.269188,321.572662 296.791627,320.16185 284.314446,318.750847 C294.600836,313.565957 305.430216,309.231811 316.227645,305.938523 C317.236409,305.630923 318.447915,305.169144 319.046631,304.226385 C319.456489,303.580769 319.379652,302.701126 318.558795,302.406265 C312.308984,300.162197 306.291774,297.293236 300.631169,293.836262 C295.50918,292.972778 290.495029,291.951884 285.597273,290.805706 C292.76703,296.349526 300.618046,300.925302 308.994364,304.351478 C297.31693,308.300269 286.004278,313.219955 275.141424,319.075557 C274.495351,319.42384 273.577878,320.256335 273.804584,321.102137 C274.050689,322.020182 275.226819,322.104591 275.976165,322.189191 C289.037608,323.666161 302.09905,325.143132 315.160302,326.620102 C305.444671,335.480595 294.372989,343.131412 282.796925,348.862491 C282.009161,349.252409 280.859657,349.80335 280.660719,350.784321 C280.484033,351.656359 281.297282,352.15597 282.041874,352.294751 C295.030283,354.71296 308.018693,357.131359 321.007293,359.549758 C324.404074,358.641789 327.721547,357.692566 330.958569,356.705891 C317.534816,354.206315 304.111063,351.706929 290.68712,349.207542 C302.513092,342.811076 313.482262,334.920338 323.222428,325.623542" id="Fill-64" fill="#FEFEFE" mask="url(#mask-2)"></path>
                <path d="M132.156517,202.980768 C128.054133,208.451586 108.837593,206.420252 104.880134,200.843733 C101.040401,195.432991 109.108042,146.924899 109.108042,146.924899 L136.384425,149.061934 C136.384425,149.061934 136.918477,196.630118 132.156517,202.980768" id="Fill-65" fill="#E9987B" mask="url(#mask-2)"></path>
                <path d="M135.305139,186.972606 C136.629617,170.912999 136.384463,149.061858 136.384463,149.061858 L109.10808,146.925013 C109.10808,146.925013 107.412543,157.119893 105.945993,168.68338 C110.457474,178.714384 121.766892,186.055701 135.305139,186.972606" id="Fill-66" fill="#C8665C" mask="url(#mask-2)"></path>
                <path d="M164.660995,131.044775 C145.651381,119.469501 144.462127,94.3341968 138.883304,89.2686955 C138.883304,89.2686955 118.359403,76.292115 107.293807,82.1581727 C91.5124674,90.5236167 84.9155603,128.792153 97.6373245,149.02336 C110.358899,169.254377 130.669217,185.997813 149.379663,179.894307 C160.913695,176.131634 161.628997,158.709884 160.940701,142.62005 C164.150146,139.768388 169.823684,134.188447 164.660995,131.044775" id="Fill-67" fill="#E9987B" mask="url(#mask-2)"></path>
                <path d="M136.665449,97.7969123 L147.971444,110.629199 C143.740872,101.15617 141.993793,92.0930191 138.883437,89.2687335 C138.883437,89.2687335 118.359536,76.292153 107.29375,82.1580206 C95.4025429,88.4615232 88.7280386,111.742107 91.6014189,131.491764 L138.295372,114.592058 L136.665449,97.7969123 Z" id="Fill-68" fill="#C8665C" mask="url(#mask-2)"></path>
                <path d="M94.249425,75.0918697 C94.249425,75.0918697 115.765354,59.5643829 138.028916,69.0708717 C160.292289,78.5775506 158.367763,96.2736308 158.367763,96.2736308 L145.082658,101.508331 L133.468937,87.1574394 L135.09886,105.442103 L87.6007864,124.157557 C87.6007864,124.157557 73.5381874,100.56367 94.249425,75.0918697" id="Fill-69" fill="#30323E" mask="url(#mask-2)"></path>
                <path d="M98.4939753,95.487884 C98.9083978,95.2690665 99.3235812,95.0523402 99.7395252,94.8363744 C99.7359116,94.8382755 99.8975725,94.7551971 100.004459,94.700065 C100.111916,94.6456933 100.272816,94.5637556 100.269202,94.5656567 C101.046126,94.1738384 101.825141,93.7858223 102.60739,93.4048404 C104.111978,92.6721535 105.627026,91.9611392 107.152154,91.2723679 C110.202601,89.8946352 113.292987,88.6054941 116.417988,87.4066556 C118.043156,86.7832825 119.677643,86.1844335 121.320689,85.610299 C121.498135,85.5483229 122.249764,85.2931943 121.948504,85.3937629 C122.278482,85.2827382 122.60827,85.1713333 122.93882,85.0618295 C123.765002,84.78807 124.593086,84.5205841 125.423263,84.2593719 C128.615971,83.2546366 131.837778,82.3424851 135.083359,81.5246286 C136.770909,81.0995409 138.464925,80.6999281 140.164838,80.3259802 C140.949178,80.1535498 141.734851,79.9866325 142.521664,79.8250384 C142.71851,79.7847349 142.915165,79.7450017 143.112011,79.7048884 C143.124944,79.7022268 143.255224,79.6761816 143.362491,79.654509 C143.468426,79.6337869 143.59281,79.6094528 143.605553,79.6069813 C143.868585,79.5567921 144.131616,79.5066028 144.394838,79.4573642 C146.754137,79.0163072 149.123896,78.6307626 151.499741,78.289894 C150.372489,77.0408662 149.064747,75.8028649 147.544184,74.6047869 C140.555106,75.7939297 133.635828,77.3944723 126.828381,79.4246651 C112.932959,83.5685094 99.5407774,89.3438843 87.0232765,96.66524 C85.7900889,97.3865202 84.5702145,98.1290928 83.3566164,98.8815513 C83.0652464,100.93874 82.9391509,102.915892 82.9376293,104.795137 C85.1598015,103.298205 87.4318032,101.842717 89.75915,100.433235 C92.6214994,98.6998054 95.5348195,97.0505945 98.4939753,95.487884" id="Fill-70" fill="#FEFEFE" mask="url(#mask-2)"></path>
                <path d="M140.169859,123.010638 C141.170635,125.77732 140.790066,128.451037 139.320093,128.982207 C137.849929,129.513566 135.847045,127.70124 134.846269,124.934558 C133.845683,122.167686 134.226062,119.494159 135.696035,118.962989 C137.166199,118.43163 139.169082,120.243956 140.169859,123.010638" id="Fill-71" fill="#30323E" mask="url(#mask-2)"></path>
                <path d="M149.827026,157.569143 L134.359118,155.892747 C134.359118,155.892747 133.827539,167.103388 140.583635,169.743647 C147.33992,172.383715 149.827026,157.569143 149.827026,157.569143" id="Fill-72" fill="#222432" mask="url(#mask-2)"></path>
                <path d="M144.456079,167.427033 C144.603476,167.974172 144.69819,168.521691 144.745548,169.063696 C143.589006,170.001323 142.210324,170.379263 140.583635,169.743532 C136.987725,168.338424 135.456511,164.505221 134.810628,161.22676 C134.830027,161.221437 134.848475,161.214783 134.867875,161.20965 C138.942871,160.112901 143.235635,162.896503 144.456079,167.427033" id="Fill-73" fill="#BF4240" mask="url(#mask-2)"></path>
                <path d="M111.670159,95.0737657 C111.670159,95.0737657 100.784673,151.414041 123.405411,168.771724 C139.976227,181.487093 128.837218,197.729016 128.837218,197.729016 L115.914994,199.311688 L107.51243,186.534914 L106.56852,200.456535 L53.0720659,207.008892 C53.0720659,207.008892 59.3642897,113.005203 111.670159,95.0737657" id="Fill-74" fill="#30323E" mask="url(#mask-2)"></path>
                <path d="M9.49369974,185.649967 C8.72932883,186.841201 20.1144424,191.602145 26.9186559,191.901189 C35.4786972,192.277228 44.1393486,191.171354 52.5917428,189.919284 C69.3692944,187.433776 85.6373288,183.584223 102.582818,182.561998 C110.251251,182.099268 132.367988,183.516924 132.367988,183.178147 C132.367988,181.842619 131.251386,177.954854 130.277617,176.562102 C128.97501,174.698827 96.1196137,177.336613 83.4640354,179.316427 C66.9407669,181.900983 50.8570259,185.622971 34.1024872,186.388737 C30.052976,186.573905 25.9450767,186.512309 22.142241,185.450161 C21.2736464,185.207579 20.4094261,184.943515 19.5661266,184.622608 C19.2165586,184.489531 18.8702238,184.347328 18.5292144,184.193338 C18.385241,184.12832 18.2431696,184.059881 18.1001472,183.992962 C17.2190001,183.580231 18.3055517,184.131742 17.8317901,183.850379 C16.3089441,182.945641 15.0805113,181.806878 14.1092144,180.400058 C14.1092144,180.400058 10.2997221,184.393525 9.49369974,185.649967" id="Fill-75" fill="#FEFEFE" mask="url(#mask-2)"></path>
                <polygon id="Fill-76" fill="#3B3247" mask="url(#mask-2)" points="651.58535 270.74421 594.014279 236.786816 492.335451 274.221336 554.86742 306.276483"></polygon>
                <polygon id="Fill-77" fill="#24223E" mask="url(#mask-2)" points="491.846835 257.727345 492.335432 274.221355 588.184957 238.895353 588.564766 222.195073"></polygon>
                <polygon id="Fill-78" fill="#FCCF8C" mask="url(#mask-2)" points="498.583284 256.324537 498.583284 274.916419 552.764801 302.244651 646.08633 269.581341 646.08633 250.827865"></polygon>
                <polygon id="Fill-79" fill="#3B3247" mask="url(#mask-2)" points="651.096735 254.250163 588.564766 222.195016 491.846835 257.727288 554.378804 289.782435"></polygon>
                <polygon id="Fill-80" fill="#E45E4A" mask="url(#mask-2)" points="662.878621 253.449967 605.307551 219.492573 503.628722 256.927093 566.160691 288.982239"></polygon>
                <polygon id="Fill-81" fill="#BF4240" mask="url(#mask-2)" points="503.140106 240.433102 503.628703 256.927112 599.478229 221.60111 599.858037 204.90083"></polygon>
                <polygon id="Fill-82" fill="#FCCF8C" mask="url(#mask-2)" points="509.876555 239.030256 509.876555 257.622138 564.058072 284.95037 657.379601 252.28706 657.379601 233.533583"></polygon>
                <polygon id="Fill-83" fill="#E45E4A" mask="url(#mask-2)" points="662.390063 236.9559 599.858094 204.900754 503.140164 240.433026 565.671942 272.488172"></polygon>
                <polygon id="Fill-84" fill="#81B49D" mask="url(#mask-2)" points="487.926444 231.797093 545.497514 197.839698 647.176343 235.274219 584.644374 267.329365"></polygon>
                <polygon id="Fill-86" fill="#FCCF8C" mask="url(#mask-2)" points="640.928528 217.377381 640.928528 235.969264 586.747012 263.297496 493.425483 230.634185 493.425483 211.880709"></polygon>
                <polygon id="Fill-87" fill="#81B49D" mask="url(#mask-2)" points="488.415059 215.303007 550.947028 183.247861 647.664958 218.780133 585.132989 250.835279"></polygon>
                <polygon id="Fill-88" fill="#3B3247" mask="url(#mask-2)" points="238.047678 258.056161 237.048233 258.212622 236.753629 256.333187 237.753074 256.176536"></polygon>
                <polygon id="Fill-89" fill="#3B3247" mask="url(#mask-2)" points="236.866963 257.073802 249.152813 255.149881 249.019301 254.297994 236.73345 256.221915"></polygon>
                <polygon id="Fill-90" fill="#3B3247" mask="url(#mask-2)" points="291.165275 252.183963 285.146543 253.126532 285.021399 252.327877 291.04013 251.385307"></polygon>
                <polygon id="Fill-91" fill="#E45E4A" mask="url(#mask-2)" points="286.615775 254.650251 235.72111 262.620074 235.062295 258.416155 285.956959 250.446331"></polygon>
                <polygon id="Fill-92" fill="#E45E4A" mask="url(#mask-2)" points="234.554546 262.139854 230.986024 262.69859 230.485255 259.504349 234.053968 258.945423"></polygon>
                <polygon id="Fill-93" fill="#3B3247" mask="url(#mask-2)" points="236.221118 263.024364 233.771099 263.408007 232.953285 258.190417 235.403494 257.806774"></polygon>
            </g>
        </g>
    </g>
</svg>