<?xml version="1.0" encoding="UTF-8"?>
<svg width="672px" height="672px" viewBox="0 0 672 672" version="1.1" xmlns="http://www.w3.org/2000/svg" xmlns:xlink="http://www.w3.org/1999/xlink">
    <title>bespoke-online-quizzes-square</title>
    <defs>
        <path d="M4,0 L668,0 C670.209139,-4.05812251e-16 672,1.790861 672,4 L672,668 C672,670.209139 670.209139,672 668,672 L4,672 C1.790861,672 2.705415e-16,670.209139 0,668 L0,4 C-2.705415e-16,1.790861 1.790861,4.05812251e-16 4,0 Z" id="path-1"></path>
        <polygon id="path-3" points="0 433.83378 770.858893 433.83378 770.858893 0.184191406 0 0.184191406"></polygon>
    </defs>
    <g id="bespoke-online-quizzes-square" stroke="none" stroke-width="1" fill="none" fill-rule="evenodd">
        <rect fill="#FFFFFF" x="0" y="0" width="672" height="672"></rect>
        <g id="Mask">
            <mask id="mask-2" fill="white">
                <use xlink:href="#path-1"></use>
            </mask>
            <use fill="#3F8566" xlink:href="#path-1"></use>
            <polygon id="Rectangle-2-Copy-6" fill="#6BA088" mask="url(#mask-2)" points="0 0 672 0 0 672"></polygon>
        </g>
        <g id="Group-95" transform="translate(33.000000, 119.000000)">
            <polygon id="Fill-1" fill="#D7A76C" points="63 310 63 326.963502 578.343979 416 771 333.333552 771 315.105655 67.1091263 310"></polygon>
            <polygon id="Fill-2" fill="#FCCF8C" points="63 311.402594 574.069178 397 771 316.522637 265.639183 248"></polygon>
            <polygon id="Fill-3" fill="#FEFEFE" points="384.813442 352 281 335.370168 361.186558 300 465 316.630052"></polygon>
            <polygon id="Fill-4" fill="#D7A76C" points="424.320541 318 356 306.887916 361.679459 305 430 316.112084"></polygon>
            <polygon id="Fill-5" fill="#D7A76C" points="416.320541 321 348 309.887916 353.679459 308 422 319.112084"></polygon>
            <polygon id="Fill-6" fill="#D7A76C" points="408.320541 325 340 313.887916 345.679459 312 414 323.112309"></polygon>
            <polygon id="Fill-7" fill="#D7A76C" points="395.320541 332 327 320.887916 332.679459 319 401 330.112084"></polygon>
            <polygon id="Fill-8" fill="#D7A76C" points="366.025656 332 319 324.627384 322.974344 323 370 330.372412"></polygon>
            <g id="Group-94">
                <path d="M251.566441,180.576611 C251.566441,180.576611 225.766914,72.90601 257.500442,0.18423563 C257.500442,0.18423563 294.328188,105.430276 251.548526,183.490727" id="Fill-9" fill="#81B49D"></path>
                <path d="M261.099371,98.3419145 C264.999269,96.6061371 267.998339,92.7524903 270.863823,89.8087445 C271.312799,89.3477132 271.748062,88.8742993 272.192836,88.409509 C272.165411,86.8225441 272.128254,85.2424339 272.073846,83.675812 C271.425153,84.3953304 270.777345,85.1157333 270.118921,85.8270703 C268.391359,87.6935285 266.634381,89.5323469 264.847767,91.3424199 C264.123655,92.0760899 262.66194,93.981686 261.178329,95.2440494 C261.400605,86.4504023 261.548347,77.6547652 261.621776,68.8582435 C263.348453,67.7703423 264.452314,66.0036084 265.655924,64.353846 C267.129582,62.3339318 268.603019,60.3140177 270.076678,58.2938824 C269.844891,56.3765671 269.601382,54.4844592 269.343719,52.6312681 C266.786104,56.1373172 264.228269,59.6433664 261.670654,63.1496366 C261.702503,56.2894465 261.677511,49.4288142 261.6189,42.5684029 C263.724664,41.6191428 265.43608,39.9492586 267.000197,38.1674887 C266.716878,36.6335922 266.428914,35.1388336 266.138075,33.6774638 C264.637876,35.3561927 263.123744,37.0205489 261.586167,38.6601399 C261.488189,29.7851213 261.315012,20.910545 261.065532,12.0375165 C259.011523,4.50357938 257.500486,0.184257742 257.500486,0.184257742 C256.798713,1.79244993 256.13498,3.42363841 255.488499,5.06455609 C255.865374,16.3194691 256.128124,27.5772567 256.259057,38.8359288 C256.119277,38.7450492 255.975959,38.652843 255.827332,38.55931 C253.7992,37.2836795 251.78478,35.9854949 249.763504,34.6988085 C248.90492,34.1519833 248.046116,33.6053793 247.187532,33.0587753 C246.864181,34.5760879 246.560956,36.0991496 246.269896,37.6257492 C247.804598,38.6022069 249.336645,39.5826447 250.873116,40.5562279 C252.710378,41.720636 254.431968,42.7479508 256.294665,43.1687386 C256.358805,50.4293737 256.381143,57.6900088 256.343102,64.9502016 C255.824236,64.4823156 255.376808,64.0573266 255.180188,63.9091774 C252.832906,62.1411168 250.485625,60.3730562 248.138344,58.6049956 C246.626423,57.4660161 245.114502,56.3272577 243.602581,55.1882782 C243.398662,56.9578866 243.218851,58.7277162 243.050319,60.4971035 C244.737628,61.7680905 246.424715,63.0388565 248.111803,64.3098435 C250.706132,66.2638645 253.29847,68.9431529 256.301301,69.7190564 C256.23318,77.9112622 256.101805,86.1023624 255.903857,94.292357 C255.000376,93.2148483 254.167891,92.0077644 253.57626,91.3700597 C251.777481,89.4321804 249.978702,87.4945221 248.179924,85.5564217 C246.07969,83.2934987 243.979234,81.0307968 241.878779,78.7678738 C241.79761,81.1280888 241.740105,83.4785746 241.708478,85.8138032 C243.40021,87.63648 245.091721,89.4589357 246.783454,91.2813913 C249.489252,94.1963917 252.039126,98.1059814 255.782656,99.0116813 C255.583824,106.32251 255.332353,113.631791 255.029792,120.939082 C251.088978,114.563141 246.703611,108.496323 241.878337,102.762508 C241.975431,105.758217 242.105036,108.712134 242.263173,111.616521 C246.71666,117.544256 250.753684,123.777797 254.328461,130.321788 C254.398572,130.450037 254.500752,130.542243 254.606693,130.629363 C254.423564,134.470185 254.229376,138.310344 254.017937,142.149618 C253.994051,142.1222 253.966184,142.087263 253.943403,142.061392 C252.157673,140.061821 250.371722,138.062028 248.585993,136.062457 C246.965035,134.247077 245.344077,132.431918 243.722898,130.616539 C244.023468,133.657797 244.346377,136.602649 244.68322,139.443796 C245.152764,139.969615 245.622309,140.495433 246.092075,141.021252 C248.390478,143.59551 250.616337,146.987683 253.633543,148.657567 C253.011391,159.1452 252.290375,169.627305 251.455678,180.10145 C251.525347,180.403498 251.566485,180.576633 251.566485,180.576633 L251.54857,183.490749 C253.686624,179.589562 255.617221,175.61828 257.371765,171.59791 C257.919604,164.253029 258.413036,156.90461 258.856261,149.553538 C261.120604,149.232474 263.431171,148.390899 265.711659,147.343241 C266.126353,145.752738 266.521142,144.160024 266.89116,142.565099 C265.367075,143.214302 263.839009,143.848248 262.301875,144.447699 C261.482438,144.767436 260.238355,145.369762 259.089817,145.622279 C259.405427,140.154469 259.701132,134.685776 259.959017,129.215092 C263.611425,126.809548 267.149709,124.256518 270.567233,121.556444 C270.780884,119.795459 270.966225,118.038455 271.135863,116.284103 C267.617042,119.296617 263.956893,122.145503 260.151877,124.819263 C260.542906,115.996207 260.858517,107.170277 261.099371,98.3419145" id="Fill-11" fill="#487568"></path>
                <path d="M253.023378,214.091133 C253.023378,214.091133 248.543351,103.464846 293.747926,38.2533488 C293.747926,38.2533488 309.516711,148.633753 252.442143,216.946653" id="Fill-13" fill="#81B49D"></path>
                <path d="M295.718974,77.3564547 C295.737774,75.7964662 295.74463,74.2745101 295.742197,72.784395 C293.945188,74.141397 292.137783,75.4813729 290.312022,76.7926034 C291.932979,68.0663974 293.480287,59.3260397 294.952176,50.5721939 C294.394606,42.7833076 293.747904,38.2532604 293.747904,38.2532604 C292.748213,39.695614 291.781256,41.1673763 290.82956,42.6524057 C289.021713,53.7675721 287.101291,64.8637223 285.051484,75.9348862 C284.932052,75.8187992 284.809302,75.700501 284.681466,75.5799916 C282.938201,73.9364205 281.213071,72.2731699 279.479096,70.6198696 C278.742377,69.9173773 278.005658,69.2151061 277.269161,68.5126138 C276.658288,69.9386046 276.065994,71.3743247 275.485201,72.8157938 C276.801828,74.0706392 278.115359,75.3288014 279.434419,76.5812145 C281.011585,78.0788476 282.502052,79.419708 284.247972,80.1929581 C282.906131,87.3286614 281.523373,94.4564045 280.081343,101.572207 C279.662888,101.012999 279.30614,100.509292 279.141811,100.325985 C277.180914,98.1373581 275.220017,95.9487308 273.25912,93.7601035 C271.996238,92.3504754 270.733133,90.9406262 269.470029,89.5307769 C268.927941,91.2276375 268.408854,92.9291416 267.901046,94.6326357 C269.310565,96.2056701 270.720084,97.7789256 272.129603,99.3521811 C274.296631,101.770992 276.321667,104.901141 279.117703,106.242886 C277.466003,114.267263 275.752153,122.278373 273.97328,130.27511 C273.295392,129.043482 272.712166,127.697978 272.255007,126.958117 C270.865172,124.708903 269.475337,122.459911 268.085503,120.210697 C266.462554,117.584477 264.839606,114.958036 263.216657,112.331595 C262.680319,114.631665 262.169194,116.926429 261.68638,119.211685 C262.993497,121.326901 264.300614,123.442117 265.607731,125.557333 C267.698233,128.940662 269.44371,133.269492 272.941299,134.882106 C271.331399,142.016262 269.670631,149.138919 267.96032,156.249636 C265.327287,149.232231 262.19861,142.431743 258.573849,135.873158 C258.089485,138.831055 257.644933,141.754237 257.238422,144.634301 C260.460874,151.311405 263.215552,158.207858 265.45645,165.31946 C265.500463,165.458985 265.58296,165.569102 265.66988,165.675239 C264.747378,169.408155 263.813818,173.138197 262.863448,176.864038 C262.845312,176.832418 262.824744,176.792838 262.807271,176.762987 C261.442207,174.45584 260.077144,172.148472 258.71208,169.841326 C257.472641,167.746895 256.233645,165.652243 254.994427,163.557812 C254.700713,166.599734 254.447915,169.55144 254.228735,172.404085 C254.587694,173.010833 254.946433,173.617581 255.305392,174.224108 C257.062591,177.194167 258.590215,180.952733 261.227009,183.174749 C258.587782,193.343972 255.852347,203.488651 253.006769,213.603479 C253.016721,213.913266 253.023356,214.091045 253.023356,214.091045 L252.44212,216.946564 C255.294555,213.532721 257.956783,210.009867 260.456451,206.404757 C262.414915,199.304433 264.32074,192.190399 266.177908,185.06354 C268.461492,185.186482 270.89127,184.807928 273.331443,184.22108 C274.046266,182.740694 274.741404,181.254559 275.41332,179.761127 C273.792362,180.103418 272.170299,180.429789 270.546466,180.72078 C269.680362,180.876005 268.343387,181.226256 267.167645,181.251906 C268.535363,175.948387 269.883618,170.640225 271.195158,165.322777 C275.243682,163.669034 279.209268,161.848347 283.084615,159.860274 C283.634887,158.173806 284.156849,156.48579 284.662666,154.797553 C280.627412,157.072638 276.485112,159.159772 272.23488,161.047015 C274.325604,152.466305 276.342678,143.868126 278.287208,135.253143 C282.449414,134.304325 286.137209,131.103419 289.518241,128.769517 C290.047944,128.404008 290.566589,128.023685 291.092753,127.653755 C291.372755,126.091334 291.64214,124.533778 291.892063,122.986172 C291.116197,123.566828 290.341216,124.148369 289.557609,124.718854 C287.501609,126.216044 285.421944,127.680289 283.319056,129.110702 C282.466665,129.690474 280.663905,131.277439 278.96399,132.22891 C280.883306,123.644441 282.730079,115.043608 284.504087,106.427519 C286.408806,105.693849 287.833586,104.174104 289.333564,102.788136 C291.170163,101.091275 293.006762,99.3944147 294.843361,97.6977752 C294.9869,95.7716152 295.114294,93.8682303 295.220014,92.0002243 C292.032285,94.9455178 288.844335,97.8905903 285.656606,100.835884 C287.015256,94.1114602 288.317949,87.3757596 289.58791,80.6334254 C291.837655,80.1093755 293.839689,78.802125 295.718974,77.3564547" id="Fill-15" fill="#487568"></path>
                <path d="M253.905937,208.934459 C253.905937,208.934459 204.10522,132.758598 208.511155,67.6932605 C208.511155,67.6932605 266.174259,138.938408 254.699717,211.194508" id="Fill-17" fill="#81B49D"></path>
                <path d="M250.950592,182.90797 C252.614014,182.032342 254.168842,180.741234 255.643385,179.29888 C255.523511,177.953155 255.387712,176.61141 255.232008,175.27453 C254.232539,176.199025 253.22555,177.112906 252.202416,178.002464 C251.656567,178.476984 250.861018,179.287382 250.042024,179.80126 C248.771178,175.482381 247.48463,171.168366 246.168224,166.863638 C248.327953,163.990429 250.35874,161.034743 252.255276,157.998791 C251.932588,156.57678 251.58911,155.165826 251.234353,153.761283 C249.346,157.066999 247.303049,160.285374 245.099529,163.408225 C242.957272,156.472413 240.755742,149.554953 238.495823,142.656288 C241.032648,140.232834 242.285578,136.420315 243.687577,133.348542 C243.907199,132.867388 244.112888,132.380486 244.328086,131.897564 C243.867167,130.676992 243.400498,129.464601 242.924318,128.267247 C242.621757,129.003791 242.32008,129.740778 242.007788,130.473564 C241.187909,132.396407 240.33773,134.305983 239.456808,136.201629 C239.099839,136.969793 238.496708,138.849297 237.698283,140.237035 C235.433719,133.370653 233.110766,126.523067 230.730088,119.695602 C231.764944,118.375527 232.129433,116.702547 232.603844,115.092586 C233.184416,113.121097 233.764988,111.149829 234.345561,109.17856 C233.63494,107.758982 232.922108,106.362179 232.209276,104.999428 C231.201402,108.42101 230.19375,111.842813 229.185876,115.264395 C227.309688,109.946725 225.389265,104.644533 223.442966,99.3518494 C224.809357,98.0342065 225.671036,96.2679148 226.38785,94.4558517 C225.743359,93.3471654 225.106388,92.2703201 224.476495,91.2200089 C223.780693,92.9343378 223.070073,94.6418121 222.334681,96.3364614 C219.799626,89.4957297 217.206403,82.6760042 214.55457,75.8786116 C210.877391,70.6173267 208.511089,67.6932605 208.511089,67.6932605 C208.413774,69.1322973 208.352067,70.5784099 208.306506,72.027176 C211.716954,80.6326515 215.039818,89.271737 218.260944,97.9479704 C218.127578,97.9163505 217.991116,97.8847306 217.85023,97.853553 C215.927154,97.4281217 214.0085,96.981463 212.087857,96.5454181 C211.271959,96.3603422 210.45584,96.1750452 209.639943,95.9899693 C209.810244,97.2534384 209.997354,98.516244 210.195302,99.7781652 C211.653478,100.108737 213.110991,100.443067 214.56961,100.770986 C216.313981,101.163249 217.931178,101.481438 219.489103,101.291055 C221.550632,106.891978 223.57987,112.504398 225.562221,118.133403 C225.030969,117.915159 224.567175,117.709961 224.373872,117.649817 C222.067507,116.931847 219.760921,116.213655 217.454556,115.495463 C215.968955,115.032884 214.483353,114.570305 212.997752,114.107947 C213.330392,115.533717 213.68161,116.953074 214.041455,118.369115 C215.699348,118.885204 217.35702,119.401294 219.014913,119.917605 C221.564123,120.711198 224.312608,122.066652 226.851202,121.835362 C229.068656,128.193614 231.23679,134.568893 233.352948,140.961418 C232.355248,140.377887 231.376569,139.674289 230.742031,139.344823 C228.812983,138.343379 226.884156,137.341935 224.955108,136.340712 C222.702709,135.171218 220.450088,134.001946 218.197689,132.832452 C218.788877,134.681442 219.395769,136.516059 220.018585,138.332102 C221.832624,139.274065 223.646664,140.215807 225.460703,141.15755 C228.362459,142.664027 231.419034,144.983114 234.566952,144.647457 C236.438938,150.359823 238.269787,156.085677 240.060604,161.824356 C235.244176,157.981986 230.1692,154.501587 224.846292,151.400847 C225.751764,153.692294 226.670506,155.942393 227.597652,158.146056 C232.686561,161.499755 237.537934,165.205473 242.117488,169.279354 C242.207505,169.359399 242.312118,169.402296 242.41828,169.440549 C243.341003,172.463455 244.254658,175.489015 245.154821,178.518554 C245.128723,178.50396 245.097538,178.484502 245.072767,178.471014 C243.136641,177.418049 241.200737,176.365306 239.264611,175.312341 C237.507191,174.356669 235.749771,173.400775 233.99213,172.445102 C235.067461,174.715322 236.133502,176.904613 237.181407,179.0101 C237.690542,179.28694 238.199676,179.563779 238.708589,179.840619 C241.200737,181.195852 243.863186,183.20449 246.660549,183.66132 C249.085462,191.949491 251.43208,200.260879 253.68846,208.597475 C253.826249,208.811739 253.90587,208.934459 253.90587,208.934459 L254.699651,211.194508 C255.273146,207.583427 255.666608,203.975443 255.910559,200.378293 C254.299111,194.542764 252.644757,188.719397 250.950592,182.90797" id="Fill-19" fill="#487568"></path>
                <mask id="mask-4" fill="white">
                    <use xlink:href="#path-3"></use>
                </mask>
                <g id="Clip-22"></g>
                <polygon id="Fill-21" fill="#3B3247" mask="url(#mask-4)" points="218.203837 277.907021 293.617192 277.907021 293.617192 202.511486 218.203837 202.511486"></polygon>
                <path d="M255.876742,257.23577 C248.6124,257.345002 234.109594,238.455101 241.573431,231.945383 C248.614612,225.804269 255.114589,235.07929 255.114589,235.07929 C255.114589,235.07929 262.638142,226.295594 268.511101,230.705574 C277.778362,237.664383 263.22358,257.125211 255.876742,257.23577" id="Fill-23" fill="#E45E4A" mask="url(#mask-4)"></path>
                <polygon id="Fill-24" fill="#24223E" mask="url(#mask-4)" points="298.36446 22.4849282 303.79928 19.785518 609.177871 59.3913138 609.177871 262.40916 601.511663 265.900616"></polygon>
                <polyline id="Fill-25" fill="#24223E" mask="url(#mask-4)" points="369.093868 288.033015 369.093868 295.338316 476.631116 310.445549 524.009796 294.714542 524.009796 288.909749 369.951345 288.033015"></polyline>
                <polygon id="Fill-26" fill="#3B3247" mask="url(#mask-4)" points="475.739025 302.690229 369.093757 288.032971 417.364638 274.252446 524.009686 288.909704"></polygon>
                <polygon id="Fill-27" fill="#3B3247" mask="url(#mask-4)" points="457.194728 291.4117 438.790918 289.228822 438.790918 213.135881 457.194728 213.135881"></polygon>
                <polygon id="Fill-28" fill="#3B3247" mask="url(#mask-4)" points="601.511663 265.900571 298.36446 225.786204 298.36446 22.484884 601.511663 62.5992515"></polygon>
                <path d="M451.77163,45.8283255 C451.77163,47.1632156 450.689222,48.2451467 449.354238,48.2451467 C448.019032,48.2451467 446.936845,47.1632156 446.936845,45.8283255 C446.936845,44.4936564 448.019032,43.4115042 449.354238,43.4115042 C450.689222,43.4115042 451.77163,44.4936564 451.77163,45.8283255" id="Fill-29" fill="#102328" mask="url(#mask-4)"></path>
                <path d="M451.063597,45.8283255 C451.063597,46.7722788 450.298348,47.5373475 449.354171,47.5373475 C448.410216,47.5373475 447.644745,46.7722788 447.644745,45.8283255 C447.644745,44.8845933 448.410216,44.1193034 449.354171,44.1193034 C450.298348,44.1193034 451.063597,44.8845933 451.063597,45.8283255" id="Fill-30" fill="#3A464A" mask="url(#mask-4)"></path>
                <polygon id="Fill-31" fill="#FEFEFE" mask="url(#mask-4)" points="590.447149 253.094515 308.26137 217.647288 308.26137 32.5917517 590.447149 68.0389787"></polygon>
                <polygon id="Fill-32" fill="#FCCF8C" mask="url(#mask-4)" points="444.951996 175.80497 331.514363 161.555233 331.514363 127.528469 444.951996 141.778206"></polygon>
                <polygon id="Fill-33" fill="#FCCF8C" mask="url(#mask-4)" points="567.407674 145.521073 331.514407 115.88881 331.514407 81.8620462 567.407674 111.494309"></polygon>
                <polygon id="Fill-34" fill="#FCCF8C" mask="url(#mask-4)" points="444.951996 218.121409 331.514363 203.871672 331.514363 169.844908 444.951996 184.094645"></polygon>
                <polygon id="Fill-35" fill="#81B49D" mask="url(#mask-4)" points="567.407674 191.187473 453.970042 176.937736 453.970042 142.910972 567.407674 157.160709"></polygon>
                <polygon id="Fill-36" fill="#FCCF8C" mask="url(#mask-4)" points="567.407674 233.503912 453.970042 219.254175 453.970042 185.227411 567.407674 199.477148"></polygon>
                <path d="M348.4803,61.6737394 C348.4803,66.9701821 344.185835,70.7241047 338.88814,70.0587602 C333.590446,69.3931946 329.29598,64.5602156 329.29598,59.2637729 C329.29598,53.9675513 333.590446,50.2134076 338.88814,50.8789732 C344.185835,51.5443177 348.4803,56.3772968 348.4803,61.6737394" id="Fill-37" fill="#FCCF8C" mask="url(#mask-4)"></path>
                <polygon id="Fill-38" fill="#FCCF8C" mask="url(#mask-4)" points="408.10231 78.7531916 354.310794 71.9960425 354.310794 54.1325718 408.10231 60.8897209"></polygon>
                <polygon id="Fill-39" fill="#3B3247" mask="url(#mask-4)" points="532.569135 118.258113 337.716247 93.7812203 337.716247 89.5191682 532.569135 113.99584"></polygon>
                <polygon id="Fill-40" fill="#3B3247" mask="url(#mask-4)" points="532.569135 126.262479 337.716247 101.785586 337.716247 97.5235342 532.569135 122.000206"></polygon>
                <polygon id="Fill-41" fill="#3B3247" mask="url(#mask-4)" points="479.404659 127.85778 337.716269 110.059318 337.716269 105.797045 479.404659 123.595507"></polygon>
                <polygon id="Fill-42" fill="#3B3247" mask="url(#mask-4)" points="394.015436 145.527286 337.716291 138.455265 337.716291 134.192992 394.015436 141.265234"></polygon>
                <polygon id="Fill-43" fill="#3B3247" mask="url(#mask-4)" points="417.839159 192.395398 337.716202 182.330542 337.716202 178.06849 417.839159 188.133124"></polygon>
                <polygon id="Fill-44" fill="#3B3247" mask="url(#mask-4)" points="538.838519 163.719537 458.715562 153.654682 458.715562 149.39263 538.838519 159.457264"></polygon>
                <polygon id="Fill-45" fill="#3B3247" mask="url(#mask-4)" points="398.780176 197.439191 337.716357 189.768603 337.716357 185.506329 398.780176 193.176917"></polygon>
                <polygon id="Fill-46" fill="#3B3247" mask="url(#mask-4)" points="543.519657 208.182989 459.781449 197.663957 459.781449 193.401905 543.519657 203.920716"></polygon>
                <polygon id="Fill-47" fill="#3B3247" mask="url(#mask-4)" points="531.733221 214.140332 459.781404 205.101907 459.781404 200.839855 531.733221 209.878059"></polygon>
                <polygon id="Fill-48" fill="#FEFEFE" mask="url(#mask-4)" points="563.051502 166.404398 558.32686 161.905307 544.238306 177.171082 535.639643 168.982857 531.733111 173.215721 545.020586 185.868543 545.050222 185.83626 545.086273 185.870533"></polygon>
                <path d="M2.9142296,233.605162 C2.66408589,232.201062 2.50152565,230.77485 2.45662806,229.329401 C2.17574165,220.294514 5.90777091,212.0928 12.021363,205.581976 C17.972616,199.244067 25.4251737,194.663384 32.4267649,189.612825 C36.6889396,186.538398 40.7659947,183.229365 44.2600446,179.388764 C40.6359465,186.565375 34.7587855,194.021036 25.0345867,201.984384 C8.86393442,215.226707 3.75843701,225.936122 2.9142296,233.605162 M192.127936,144.407876 C193.451862,145.375931 194.815378,146.290918 196.264486,147.078319 C198.709525,148.406797 201.29191,149.490718 203.922732,150.456341 C208.329331,153.583836 212.909991,156.472523 217.420098,159.445457 C223.572395,163.500763 230.060871,168.349884 235.188264,174.104483 C222.140095,168.796985 205.331366,163.387551 192.127936,144.407876 M256.837971,194.94332 C253.780069,187.814471 249.229045,180.86517 242.520284,177.392952 C241.509535,176.869787 240.453668,176.368954 239.363298,175.878293 C239.212459,175.684594 239.065823,175.486914 238.911889,175.295647 C230.913483,165.364789 219.692403,159.274974 209.231043,152.252041 C210.440624,152.631259 211.65131,153.002959 212.854256,153.365813 C224.720048,156.946158 237.07153,160.143305 246.279959,168.959064 C250.479322,172.979434 253.866546,177.921867 255.761313,183.43788 C257.04388,187.171902 257.182554,191.058053 256.837971,194.94332 M200.606946,148.005468 C199.380777,147.425696 198.176725,146.806344 197.019119,146.110043 C194.019828,144.306161 191.364456,142.027981 188.972719,139.493083 C187.155583,136.414676 185.429348,133.023166 183.811045,129.289365 C187.514985,135.180616 191.674537,140.590713 197.039025,145.176261 C198.194861,146.164438 199.402894,147.082521 200.606946,148.005468 M6.55358847,247.161915 C8.77082169,250.088414 11.4925446,252.698934 14.7424224,254.789385 C15.4167709,255.222998 17.8861384,254.922498 16.6869525,254.151017 C13.6551487,252.200976 11.0157012,249.747007 8.85243356,246.944114 L30.0960713,244.463832 L36.8278346,229.745103 L39.4628587,243.370402 L211.45469,223.291107 L209.611456,208.582771 L220.564035,222.221116 L249.290973,218.743591 C248.459151,219.989371 247.526476,221.159307 246.444289,222.190602 C246.116293,222.503263 248.397002,223.224771 248.899059,222.746272 C250.243996,221.464229 251.380149,219.972787 252.364578,218.371671 L262.685937,217.122132 C262.685937,217.122132 261.842614,209.060386 258.770779,200.000734 C259.111381,198.038752 259.385632,196.067484 259.506834,194.08914 C260.140929,183.733515 255.012209,174.530136 247.371435,167.764805 C238.24307,159.682495 226.362017,156.485127 214.950952,153.065093 C212.174821,152.233246 209.340522,151.391007 206.555766,150.415434 C203.463804,148.248476 200.465618,145.967201 197.681082,143.427659 C191.381707,137.682346 187.029074,130.619391 182.750533,123.332001 C181.555991,121.297714 180.340881,119.266965 179.072469,117.274027 C156.231539,63.3941712 107.703657,84.3468834 107.703657,84.3468834 C83.0756702,77.527379 63.4125162,99.7961863 54.4378639,125.678064 C49.038431,141.249203 52.0554164,155.408061 47.7609508,170.411368 C46.8333621,172.116852 45.8341143,173.786515 44.6678828,175.368837 C34.0023828,189.840576 14.9343983,195.390421 5.05604372,210.619269 C-1.93758537,221.400989 -1.42247952,234.807603 5.03835009,244.985891 C5.74897057,246.245159 6.39058589,246.983915 6.55358847,247.161915" id="Fill-49" fill="#30323E" mask="url(#mask-4)"></path>
                <path d="M148.462508,111.098198 C118.177204,107.353341 87.204059,109.482708 57.7576536,117.371982 C56.5312638,120.077142 55.4172285,122.853722 54.437886,125.678285 C54.1749144,126.436499 53.9477724,127.188743 53.7228421,127.940545 C58.2586046,126.384536 62.8343989,124.942183 67.4712362,123.691981 C87.6072526,118.262425 108.06463,115.907296 128.347061,116.436432 C134.858981,116.606471 140.541954,116.97795 146.56553,117.689508 C146.824741,115.390543 147.456625,113.193292 148.462508,111.098198" id="Fill-50" fill="#FEFEFE" mask="url(#mask-4)"></path>
                <path d="M5.85537565,214.372882 C4.8149901,214.540047 3.7728352,214.697704 2.73466136,214.890298 C3.38844105,213.432024 4.15811403,212.003601 5.05606583,210.619401 C5.6651691,209.67987 6.31098666,208.778814 6.98599871,207.908714 C8.05867513,207.82093 9.13179389,207.746413 10.2057973,207.682068 C8.49924656,209.770971 7.04173365,212.010677 5.85537565,214.372882" id="Fill-51" fill="#FEFEFE" mask="url(#mask-4)"></path>
                <path d="M257.230084,184.276913 C257.120604,184.27846 256.963352,184.27846 256.738643,184.275807 C256.497125,184.272932 256.255607,184.272269 256.014089,184.268068 C255.931813,183.991007 255.855731,183.713282 255.761291,183.43799 C254.730416,180.436975 253.24592,177.61396 251.44117,175.008746 C252.246451,174.997469 253.051732,175.001449 253.856793,175.018254 C255.869001,177.921093 257.432897,181.077112 258.409806,184.429926 C258.166961,184.39897 257.925886,184.35939 257.682377,184.332634 C257.467178,184.308754 257.323417,184.290622 257.230084,184.276913" id="Fill-52" fill="#FEFEFE" mask="url(#mask-4)"></path>
                <path d="M250.743045,184.434327 C250.55505,184.448036 250.366171,184.44693 250.178397,184.461966 C249.884683,184.497566 248.945593,184.594416 248.797188,184.614538 C248.041449,184.718463 247.287479,184.836098 246.535721,184.966779 C244.904589,185.250252 243.284737,185.596966 241.67904,185.999622 C239.17141,186.628924 236.396606,187.56558 233.549038,188.727777 C221.766185,193.535991 211.474905,201.162577 201.775256,209.279823 C199.004655,211.598468 193.95268,210.972041 190.977275,209.443893 C188.388033,208.11431 186.274308,205.200194 189.059728,202.869167 C200.087062,193.64058 212.072729,185.046382 225.643302,179.982776 C230.250502,178.263804 235.013407,176.955227 239.84598,176.109892 C240.760519,176.528248 241.664001,176.949699 242.520151,177.393041 C245.736632,179.057618 248.445306,181.534583 250.743045,184.434327" id="Fill-53" fill="#FEFEFE" mask="url(#mask-4)"></path>
                <path d="M189.361271,165.115589 C165.96653,152.252041 180.237329,118.412564 151.92973,105.548575 C123.622131,92.6845849 102.566931,115.605912 102.566931,115.605912 L135.834718,232.119469 L211.454646,223.291107 L209.611412,208.582771 L220.563991,222.221116 L239.111119,219.975883 C237.369845,208.259275 228.22467,187.201753 189.361271,165.115589" id="Fill-54" fill="#222432" mask="url(#mask-4)"></path>
                <path d="M22.949724,379.051718 C22.949724,379.051718 91.1418651,223.291239 133.06029,223.291239 C233.018472,223.291239 208.899177,433.113112 208.899177,433.113112 C169.048252,438.332163 45.1419615,414.683137 22.949724,379.051718" id="Fill-55" fill="#E45E4A" mask="url(#mask-4)"></path>
                <path d="M179.231712,244.349314 C168.05376,231.367248 153.220082,223.291129 133.610673,223.291129 C124.514598,223.291129 114.181517,230.62805 103.576397,242.113147 C112.718475,249.953775 126.903459,254.988856 142.830603,254.988856 C157.185889,254.988856 170.123693,250.897286 179.231712,244.349314" id="Fill-56" fill="#BF4240" mask="url(#mask-4)"></path>
                <path d="M123.754413,319.091666 C102.649228,254.069889 82.0945362,275.135813 83.0141627,310.445505 C83.9335681,345.755197 109.931706,392.743906 141.463084,412.648297 C152.121507,419.376479 162.74985,426.312292 174.261769,432.674082 C188.61418,434.025114 200.946199,434.226773 209.449316,433.113001 C209.449316,433.113001 211.87644,411.996662 211.999853,383.162194 C176.324183,373.06594 135.105541,354.062605 123.754413,319.091666" id="Fill-57" fill="#BF4240" mask="url(#mask-4)"></path>
                <path d="M566.826195,348.452993 C566.531817,363.7411 496.023359,383.970314 477.871241,370.354744 C461.453541,358.040012 492.737872,330.703177 517.552306,327.163296 C542.366961,323.623416 567.221206,327.936989 566.826195,348.452993" id="Fill-58" fill="#3B3247" mask="url(#mask-4)"></path>
                <path d="M96.3283994,336.115706 C120.881631,399.327632 203.175818,432.331725 256.460189,432.400497 C376.720929,432.554391 457.012417,392.737206 481.049216,356.30733 C483.322184,352.86253 485.804158,348.20733 484.168382,344.456946 C479.13764,332.922539 440.044004,341.152777 416.791696,343.833171 C346.179509,351.973193 285.50893,324.62685 246.478548,307.034249 C171.119823,273.067187 141.211393,249.049999 107.900698,258.747577 C81.4312462,266.453544 83.7391593,303.704652 96.3283994,336.115706" id="Fill-59" fill="#E45E4A" mask="url(#mask-4)"></path>
                <path d="M484.433411,355.651538 C473.618621,361.243173 459.161375,334.653275 491.041761,320.446435 C516.213606,309.228891 556.528988,321.461588 557.606309,325.172835 C558.683851,328.883861 552.64214,329.400614 552.64214,329.400614 C552.64214,329.400614 558.182679,330.143571 557.969692,333.888649 C557.756705,337.633726 552.025959,336.449197 552.025959,336.449197 C552.025959,336.449197 557.684382,338.814497 555.182945,341.352049 C551.308703,345.282645 514.800991,339.949939 484.433411,355.651538" id="Fill-60" fill="#E9987B" mask="url(#mask-4)"></path>
                <path d="M548.124712,327.78811 C540.751333,325.496663 533.083356,324.205775 525.364288,323.980898 C523.156123,323.916552 520.946409,323.938222 518.740013,324.04657 C518.499159,324.058289 518.050625,324.044138 517.897796,323.813733 C517.753815,323.596595 517.962599,323.474758 518.182,323.464145 C526.140817,323.073429 534.126174,323.761549 541.899429,325.515679 C544.136346,326.020492 546.351589,326.617289 548.541397,327.297891 C548.719218,327.35317 549.040136,327.476997 548.926012,327.710719 C548.822505,327.92255 548.278647,327.835871 548.124712,327.78811" id="Fill-61" fill="#C8665C" mask="url(#mask-4)"></path>
                <path d="M548.258078,335.554309 C540.675472,333.384256 532.739215,332.508628 524.865327,332.956392 C522.645661,333.082651 520.434179,333.315709 518.23663,333.652693 C517.958176,333.695369 517.556531,333.646944 517.402154,333.370768 C517.262374,333.120683 517.448599,332.874358 517.71511,332.833451 C525.762616,331.599612 534.001655,331.714372 542.006697,333.210457 C544.266616,333.633014 546.505302,334.167014 548.715458,334.799633 C548.952553,334.867295 549.214198,335.124014 549.074197,335.381174 C548.92557,335.654255 548.501586,335.623962 548.258078,335.554309" id="Fill-62" fill="#C8665C" mask="url(#mask-4)"></path>
                <path d="M421.360104,389.961753 C410.5504,394.412419 399.830714,398.073693 388.688591,401.117826 C398.687042,389.588285 409.986195,379.26649 422.399383,370.364937 C423.632629,369.480465 423.500369,368.133413 421.779885,368.05359 C409.320914,367.476471 396.861722,366.899353 384.40253,366.322235 C395.415268,362.750956 406.266993,358.693217 416.909713,354.129559 C417.524345,353.865987 421.205284,351.763153 418.727733,351.069506 C411.74649,349.114379 404.765025,347.159253 397.783782,345.204126 C390.874197,345.411314 384.076525,345.300755 377.401381,344.919547 C387.860087,347.848257 398.318572,350.777187 408.777277,353.706118 C397.079133,358.520744 385.214005,362.712702 373.206885,366.245949 C372.094398,366.573425 370.276598,367.125114 369.712172,368.259008 C369.238867,369.209595 370.079536,369.771456 371.04229,369.815901 C385.035741,370.464219 399.029413,371.112538 413.022864,371.760635 C400.19277,381.316476 388.502587,392.396706 378.294025,404.71365 C376.413856,406.9821 381.70027,406.419134 382.509754,406.219906 C394.418453,403.287659 406.14734,399.610022 417.601534,395.222596 C416.536156,398.226265 415.470778,401.230154 414.4054,404.233823 C417.55929,402.900039 420.620952,401.535297 423.586405,400.142032 C424.712826,396.966333 425.839246,393.790635 426.965667,390.614715 C427.766968,388.35533 422.027153,389.687124 421.360104,389.961753" id="Fill-63" fill="#FEFEFE" mask="url(#mask-4)"></path>
                <path d="M375.874045,378.733264 C377.731876,376.959675 376.022229,375.873764 374.157763,375.662817 C359.647879,374.021679 345.137774,372.380761 330.628111,370.739622 C342.590112,364.709067 355.183555,359.668016 367.73984,355.837586 C368.912928,355.479817 370.321783,354.942721 371.018028,353.846197 C371.49465,353.095279 371.405297,352.072166 370.450726,351.729212 C363.182845,349.119133 356.185456,345.782239 349.602762,341.761427 C343.646422,340.757109 337.815486,339.569704 332.119906,338.236583 C340.457587,344.684609 349.587501,350.006701 359.328288,353.991692 C345.748647,358.584537 332.59321,364.306632 319.960842,371.117292 C319.209526,371.52238 318.1426,372.490657 318.406235,373.474411 C318.69243,374.542191 320.060148,374.640367 320.931559,374.738765 C336.120657,376.456631 351.309755,378.174498 366.498632,379.892365 C355.200364,390.198018 342.32515,399.096696 328.863393,405.762523 C327.947305,406.216037 326.610551,406.856837 326.379207,407.997807 C326.17374,409.012076 327.119464,409.593174 327.985346,409.75459 C343.089515,412.567213 358.193684,415.380057 373.298073,418.1929 C377.248177,417.13684 381.106052,416.032797 384.870372,414.885194 C369.259944,411.977933 353.649517,409.070893 338.038868,406.163853 C351.791243,398.724112 364.547246,389.546383 375.874045,378.733264" id="Fill-64" fill="#FEFEFE" mask="url(#mask-4)"></path>
                <path d="M153.684275,236.087257 C148.913629,242.450374 126.566794,240.087727 121.96468,233.601668 C117.499471,227.308425 126.881298,170.888585 126.881298,170.888585 L158.600893,173.374174 C158.600893,173.374174 159.221939,228.700806 153.684275,236.087257" id="Fill-65" fill="#E9987B" mask="url(#mask-4)"></path>
                <path d="M157.345795,217.468138 C158.886026,198.789183 158.600937,173.374086 158.600937,173.374086 L126.881342,170.888718 C126.881342,170.888718 124.909608,182.746399 123.204163,196.19591 C128.450546,207.862987 141.602223,216.401685 157.345795,217.468138" id="Fill-66" fill="#C8665C" mask="url(#mask-4)"></path>
                <path d="M191.4836,152.418389 C169.377398,138.955169 167.99442,109.720256 161.506828,103.828563 C161.506828,103.828563 137.639668,88.7354813 124.771532,95.5583025 C106.419476,105.288164 98.7479593,149.79836 113.542047,173.329309 C128.335914,196.860038 151.9547,216.334354 173.713001,209.235357 C187.12588,204.858987 187.957702,184.595721 187.157286,165.881608 C190.889537,162.564836 197.487271,156.074798 191.4836,152.418389" id="Fill-67" fill="#E9987B" mask="url(#mask-4)"></path>
                <path d="M158.927694,113.747746 L172.07539,128.672999 C167.155675,117.654903 165.124004,107.113538 161.506983,103.828607 C161.506983,103.828607 137.639822,88.7355256 124.771465,95.5581256 C110.943229,102.88974 103.181475,129.967424 106.522917,152.938282 L160.823124,133.282206 L158.927694,113.747746 Z" id="Fill-68" fill="#C8665C" mask="url(#mask-4)"></path>
                <path d="M109.602272,87.3394741 C109.602272,87.3394741 134.623058,69.2794293 160.513265,80.3364417 C186.40325,91.3936751 184.165227,111.976014 184.165227,111.976014 L168.716032,118.064502 L155.210483,101.372958 L157.105914,122.639879 L101.870598,144.407853 C101.870598,144.407853 85.5172587,116.965766 109.602272,87.3394741" id="Fill-69" fill="#30323E" mask="url(#mask-4)"></path>
                <path d="M114.538243,111.062111 C115.020173,110.807604 115.502988,110.555529 115.986688,110.304339 C115.982485,110.30655 116.17048,110.209922 116.294778,110.145798 C116.419739,110.082558 116.606849,109.987256 116.602647,109.989467 C117.506128,109.533743 118.412042,109.08244 119.321716,108.63932 C121.071395,107.78713 122.833238,106.960149 124.606804,106.159038 C128.154156,104.556594 131.747954,103.057192 135.382004,101.662821 C137.271905,100.937775 139.172644,100.241253 141.083335,99.5734762 C141.289687,99.5013916 142.163752,99.2046511 141.813418,99.3216226 C142.197149,99.1924896 142.580658,99.0629144 142.965053,98.9355503 C143.925817,98.6171402 144.888793,98.306027 145.854201,98.0022107 C149.566989,96.8336013 153.313615,95.7726765 157.087888,94.8214263 C159.050333,94.3270062 161.020298,93.8622159 162.997119,93.4272765 C163.909226,93.2267223 164.82288,93.0325806 165.737862,92.8446302 C165.966774,92.7977532 166.195464,92.7515395 166.424375,92.7048835 C166.439415,92.7017879 166.590917,92.6714947 166.715657,92.6462872 C166.838849,92.6221854 166.983494,92.5938822 166.998312,92.5910077 C167.304191,92.5326325 167.61007,92.4742573 167.91617,92.4169877 C170.659788,91.9039937 173.415572,91.4555661 176.178432,91.0591013 C174.867555,89.6063551 173.346788,88.1664338 171.57853,86.7729473 C163.45096,88.1560413 155.40456,90.0176348 147.488208,92.3789554 C131.329278,97.1986674 115.755565,103.916015 101.199014,112.431496 C99.764945,113.270418 98.3463581,114.134105 96.9350698,115.009291 C96.5962367,117.40201 96.4496008,119.701639 96.4478314,121.887392 C99.0319863,120.146307 101.674088,118.453427 104.38055,116.814057 C107.709164,114.797902 111.097053,112.879702 114.538243,111.062111" id="Fill-70" fill="#FEFEFE" mask="url(#mask-4)"></path>
                <path d="M163.002958,143.07387 C164.166756,146.291802 163.724194,149.401608 162.014768,150.019412 C160.305121,150.637437 157.975976,148.529518 156.812177,145.311585 C155.6486,142.093432 156.090941,138.983848 157.800367,138.366044 C159.510014,137.748018 161.839159,139.855938 163.002958,143.07387" id="Fill-71" fill="#30323E" mask="url(#mask-4)"></path>
                <path d="M174.233238,183.268923 L156.245671,181.319104 C156.245671,181.319104 155.6275,194.358219 163.484136,197.429108 C171.340993,200.499775 174.233238,183.268923 174.233238,183.268923" id="Fill-72" fill="#222432" mask="url(#mask-4)"></path>
                <path d="M167.987386,194.73465 C168.158794,195.371028 168.268936,196.007849 168.324008,196.638257 C166.979071,197.728811 165.375806,198.168394 163.484136,197.428975 C159.302467,195.794691 157.521825,191.336286 156.77073,187.523104 C156.793289,187.516912 156.814743,187.509173 156.837302,187.503203 C161.576099,186.227572 166.568136,189.465184 167.987386,194.73465" id="Fill-73" fill="#BF4240" mask="url(#mask-4)"></path>
                <path d="M129.860773,110.580449 C129.860773,110.580449 117.202085,176.109914 143.50765,196.298663 C162.777784,211.087929 149.824276,229.978935 149.824276,229.978935 L134.797075,231.819744 L125.025767,216.959057 L123.928098,233.151317 L61.7172893,240.772375 C61.7172893,240.772375 69.0344907,131.436533 129.860773,110.580449" id="Fill-74" fill="#30323E" mask="url(#mask-4)"></path>
                <path d="M11.0401848,215.929775 C10.1513009,217.315301 23.3910032,222.852762 31.3035953,223.200581 C41.2580324,223.637953 51.3294688,222.351708 61.1587235,220.895424 C80.66927,218.004526 99.5873009,213.527105 119.293141,212.338153 C128.210731,211.799951 153.930194,213.448829 153.930194,213.054797 C153.930194,211.501442 152.631703,206.979576 151.49931,205.359664 C149.984514,203.192485 111.777107,206.2605 97.0599868,208.563224 C77.8451452,211.569325 59.1414283,215.898376 39.6576435,216.78904 C34.9484834,217.004409 30.171424,216.932766 25.7491219,215.697379 C24.7390367,215.415233 23.7340385,215.1081 22.7533689,214.734852 C22.3468577,214.580069 21.9441065,214.414673 21.5475479,214.235567 C21.3801219,214.159945 21.2149077,214.080342 21.0485875,214.002509 C20.0239051,213.522461 21.2874515,214.163925 20.7365161,213.83667 C18.9656047,212.784369 17.5370651,211.459871 16.4075479,209.823597 C16.4075479,209.823597 11.9775049,214.468405 11.0401848,215.929775" id="Fill-75" fill="#FEFEFE" mask="url(#mask-4)"></path>
                <polygon id="Fill-76" fill="#3B3247" mask="url(#mask-4)" points="757.72595 314.903025 690.776786 275.407125 572.534891 318.947276 645.253063 356.230668"></polygon>
                <polygon id="Fill-77" fill="#24223E" mask="url(#mask-4)" points="571.966682 299.763089 572.534869 318.947298 683.997892 277.859569 684.439569 258.435446"></polygon>
                <polygon id="Fill-78" fill="#FCCF8C" mask="url(#mask-4)" points="579.800471 298.13148 579.800471 319.755728 642.807936 351.541239 751.331162 313.55049 751.331162 291.738292"></polygon>
                <polygon id="Fill-79" fill="#3B3247" mask="url(#mask-4)" points="757.157741 295.718772 684.439569 258.43538 571.966682 299.763023 644.684854 337.046415"></polygon>
                <polygon id="Fill-80" fill="#E45E4A" mask="url(#mask-4)" points="770.858849 294.788064 703.909686 255.292163 585.66779 298.832314 658.385962 336.115706"></polygon>
                <polygon id="Fill-81" fill="#BF4240" mask="url(#mask-4)" points="585.099581 279.648127 585.667768 298.832336 697.130791 257.744607 697.572468 238.320484"></polygon>
                <polygon id="Fill-82" fill="#FCCF8C" mask="url(#mask-4)" points="592.93337 278.016474 592.93337 299.640722 655.940835 331.426233 764.464061 293.435484 764.464061 271.623286"></polygon>
                <polygon id="Fill-83" fill="#E45E4A" mask="url(#mask-4)" points="770.290707 275.603788 697.572534 238.320396 585.099647 279.648039 657.817598 316.931431"></polygon>
                <polygon id="Fill-84" fill="#81B49D" mask="url(#mask-4)" points="567.407674 269.60357 634.356838 230.10767 752.598734 273.647821 679.880562 310.931213"></polygon>
                <polygon id="Fill-86" fill="#FCCF8C" mask="url(#mask-4)" points="745.333176 252.831981 745.333176 274.456229 682.325711 306.24174 573.802485 268.250991 573.802485 246.438792"></polygon>
                <polygon id="Fill-87" fill="#81B49D" mask="url(#mask-4)" points="567.975883 250.419273 640.694055 213.135881 753.166943 254.463523 680.44877 291.746915"></polygon>
                <polygon id="Fill-88" fill="#3B3247" mask="url(#mask-4)" points="276.824675 300.145535 275.662424 300.327515 275.319831 298.141541 276.482082 297.95934"></polygon>
                <polygon id="Fill-89" fill="#3B3247" mask="url(#mask-4)" points="275.451627 299.002951 289.738792 296.765236 289.58353 295.774405 275.296365 298.012121"></polygon>
                <polygon id="Fill-90" fill="#3B3247" mask="url(#mask-4)" points="338.594912 293.315572 331.595754 294.411875 331.450224 293.482958 338.449382 292.386654"></polygon>
                <polygon id="Fill-91" fill="#E45E4A" mask="url(#mask-4)" points="333.304317 296.184115 274.119119 305.453829 273.352985 300.564244 332.538183 291.29453"></polygon>
                <polygon id="Fill-92" fill="#E45E4A" mask="url(#mask-4)" points="272.762527 304.895285 268.612706 305.545151 268.030365 301.829924 272.180406 301.179837"></polygon>
                <polygon id="Fill-93" fill="#3B3247" mask="url(#mask-4)" points="274.700576 305.924059 271.851459 306.370276 270.900427 300.301688 273.749765 299.855472"></polygon>
            </g>
        </g>
    </g>
</svg>