<?xml version="1.0" encoding="UTF-8"?>
<svg width="255px" height="116px" viewBox="0 0 255 116" version="1.1" xmlns="http://www.w3.org/2000/svg" xmlns:xlink="http://www.w3.org/1999/xlink">
    <!-- Generator: Sketch 53.2 (72643) - https://sketchapp.com/ -->
    <title>Logo</title>
    <desc>Created with Sketch.</desc>
    <g id="Design-Round-3" stroke="none" stroke-width="1" fill="none" fill-rule="evenodd">
        <g id="smack_website_home-1-1-copy" transform="translate(-953.000000, -1620.000000)" fill="#FFFFFF">
            <g id="Testimonial" transform="translate(720.000000, 1500.000000)">
                <g id="Logo" transform="translate(233.000000, 120.000000)">
                    <path d="M10,15.007 L10.014,15.01 C10.014,15.007 10.012,15.004 10.011,15 L10,15.007" id="Fill-1"></path>
                    <path d="M254.585302,1.65539755 C253.687091,0.139776945 252.078226,0.0388269292 251.364874,0 L148.281934,0 C145.366457,0 143.00376,0.899871183 141.259061,2.67631739 C140.010021,3.94390243 139.15094,5.5910778 138.702509,7.57490549 C138.684967,7.65347293 138.551383,8.05087797 137.688254,8.05087797 L117.313198,8.05087797 C116.431178,8.05087797 116.311537,7.63794215 116.301192,7.59089305 C115.85321,5.59747283 114.990981,3.94390243 113.740592,2.67403345 C111.997242,0.899871183 109.634995,0 106.719968,0 L3.62353408,0 C2.96280654,0.0246665197 1.31526063,0.139776945 0.421996584,1.65082967 C-0.00934290106,2.38717096 -0.327787484,3.62552161 0.600109656,5.36359768 C0.605507022,5.37501736 2.48648901,8.55334411 2.48648901,8.55334411 C3.25246518,9.83280562 4.13628383,10.3055806 5.98892965,10.42937 C6.0177156,10.4316539 6.87589676,10.5179867 7.47500437,11.5845853 L9.40051463,15.0136883 C9.8066664,15.8002762 10.7597513,17.6475245 14.0197602,18.0928922 C14.0741836,18.0992872 15.030417,18.2089162 15.5530619,19.2202435 C15.5593588,19.23212 17.9265535,23.4633417 17.9265535,23.4633417 C18.6178661,24.8254817 19.5862435,25.3329725 21.3466843,25.8834014 C21.3529812,25.8843149 64.4675892,38.7410532 64.4675892,38.7410532 C65.9302753,39.1763716 66.5302825,40.8568924 66.5302825,40.8568924 C67.5584807,43.5597035 68.8952283,45.7833446 75.6270928,47.8448261 C75.6329399,47.8466532 110.904276,57.6191629 110.904276,57.6191629 C111.333366,57.7653349 115.377343,59.0096238 118.421457,56.0249749 C118.418758,56.026802 126.695169,48.0069856 126.695169,48.0069856 C126.690671,48.0115535 127.033854,47.6557161 127.501176,47.6557161 C127.967598,47.6557161 128.31258,48.0115535 128.315728,48.0161214 C128.33327,48.0339361 136.585392,56.0295428 136.585392,56.0295428 C139.626358,59.0109941 143.668985,57.7653349 144.119665,57.6132247 C144.098525,57.6191629 179.358167,47.8498508 179.381556,47.8416286 C186.108472,45.782431 187.491098,43.5167655 188.46892,40.8619171 C188.5103,40.748177 189.089168,39.1713469 190.533863,38.7419667 C190.533863,38.7419667 197.053881,36.7974228 233.639925,25.8879692 C235.413409,25.3329725 236.384485,24.8254817 237.077147,23.4633417 L239.431298,19.2540458 C239.966537,18.218052 240.90343,18.1015712 240.94481,18.0970033 C244.241251,17.6475245 245.195685,15.8021034 245.602287,15.0136883 C245.602287,15.0150587 247.525998,11.5845853 247.525998,11.5845853 C248.125555,10.5207275 248.985535,10.4316539 249.021518,10.42937 C250.865618,10.3055806 251.749886,9.8337192 252.512714,8.55928235 C252.510015,8.56293664 254.404041,5.36405447 254.404041,5.36405447 C254.801197,4.61903421 255,3.90005084 255,3.22491906 C255,2.65667553 254.861917,2.12908608 254.585302,1.65539755 Z M140.575395,8.01113746 C140.939267,6.39228291 141.626532,5.06120442 142.617848,4.0539882 C143.988779,2.65850268 145.895848,1.95139578 148.281934,1.95139578 C148.281934,1.95139578 171.342629,1.95139578 195.643819,1.95139578 C194.016513,3.18791928 193.16193,4.75150256 193.103908,4.85793402 C192.554726,5.90169324 191.872859,7.12542669 191.056957,8.4884803 L140.407627,8.4884803 C140.512426,8.30576534 140.575395,8.01113746 140.575395,8.01113746 Z M76.448392,24.5879523 C76.4407457,24.5792733 76.4317501,24.5701376 76.4232043,24.5619154 L76.4232043,10.0086688 L178.569702,10.0086688 L178.569702,24.5715079 C178.565204,24.5760758 178.561606,24.5792733 178.558007,24.5829276 L76.448392,24.5879523 Z M74.9317322,11.9947804 L66.5532213,12.5598264 C65.9518648,11.675486 65.3950365,10.82038 64.8804877,10.0027305 L74.9317322,10.0027305 L74.9317322,11.9947804 Z M74.9317322,13.568413 L74.9317322,15.6422278 L69.3247686,16.4059763 C68.7166654,15.6093391 68.1427455,14.8277759 67.5989609,14.0622002 L74.9317322,13.568413 Z M74.9317322,17.1701817 L74.9317322,19.5655748 L72.317608,20.1123493 C71.6487844,19.3294157 71.0105459,18.5533339 70.4001938,17.788215 L74.9317322,17.1701817 Z M74.9317322,21.1122569 L74.9317322,23.0202579 C74.4284278,22.4853599 73.9381671,21.9518322 73.4618495,21.4192181 C74.0537607,21.2954287 74.5476196,21.1921947 74.9317322,21.1122569 Z M93.8036218,26.0976347 L103.037615,26.0976347 L90.147806,35.4681714 C87.9096983,34.0955253 85.7336603,32.5849293 83.6169933,30.9395811 C88.4579807,28.6391998 92.9391437,26.5092001 93.8036218,26.0976347 Z M82.3018352,29.8917108 C82.187591,29.7980694 79.2455768,27.2852819 77.9960866,26.0976347 L90.2836397,26.0976347 L82.3018352,29.8917108 Z M105.599565,26.0976347 L110.553897,26.0976347 L97.8525457,39.5509372 C95.7052936,38.5839183 93.6048188,37.5027025 91.55337,36.3100306 C97.646996,31.8801064 104.003294,27.2587882 105.599565,26.0976347 Z M112.621538,26.0976347 L116.832832,26.0976347 L107.047858,42.9206579 C104.408546,42.1655883 101.831754,41.2520135 99.3161314,40.1886124 C104.652327,34.5381523 111.071144,27.7393286 112.621538,26.0976347 Z M118.565837,26.0976347 L122.1245,26.0976347 L116.961919,45.0022381 C114.09142,44.6094009 111.283441,44.0530339 108.541129,43.3326801 C112.292748,36.8810149 117.307351,28.260523 118.565837,26.0976347 Z M136.437864,26.0976347 L146.458074,43.3294826 C143.717561,44.0498364 140.909132,44.6080306 138.040432,45.0022381 L132.877852,26.0976347 L136.437864,26.0976347 Z M138.170868,26.0976347 L142.379914,26.0976347 L155.688919,40.19181 C153.173296,41.255211 150.592456,42.1605637 147.954044,42.9192875 L138.170868,26.0976347 Z M144.447555,26.0976347 L149.400538,26.0976347 L163.449881,36.3100306 C161.397533,37.5049865 159.298857,38.5852887 157.152055,39.553678 C152.525613,34.6537195 146.955981,28.7538534 144.447555,26.0976347 Z M151.964736,26.0976347 L161.199179,26.0976347 L171.385358,30.9395811 C169.269141,32.5876701 167.091304,34.0955253 164.854096,35.4695418 C159.939794,31.8956372 154.757873,28.1285114 151.964736,26.0976347 Z M164.718712,26.0976347 L177.007164,26.0976347 C175.754975,27.3647629 172.799468,29.8108595 172.698267,29.8917108 C169.710376,28.4706452 166.796248,27.087493 164.718712,26.0976347 Z M180.059375,21.1095162 L181.541851,21.4192181 C181.063285,21.9568569 180.566277,22.4954092 180.059375,23.0339616 L180.059375,21.1095162 Z M180.059375,19.5642044 L180.059375,17.1683545 L184.606655,17.788215 C183.995404,18.5556179 183.353567,19.3303293 182.686093,20.1123493 C181.512166,19.8670545 180.607657,19.6779445 180.059375,19.5642044 Z M180.059375,15.6404007 L180.059375,13.568413 L187.409238,14.0631138 C186.865903,14.8277759 186.287485,15.6116231 185.681181,16.4068899 L180.059375,15.6404007 Z M180.059375,11.9938668 L180.059375,10.0027305 L190.125462,10.0027305 C189.612712,10.82038 189.054085,11.675486 188.452728,12.5598264 L180.059375,11.9938668 Z M106.719968,1.95139578 C109.106503,1.95139578 111.012673,2.65850268 112.384054,4.0539882 C113.37582,5.05983406 114.063084,6.39228291 114.427406,8.01113746 C114.427406,8.01113746 114.50207,8.29343208 114.595624,8.4884803 L63.9498918,8.4884803 C63.1753699,7.19805589 61.8993426,4.85793402 61.8993426,4.85793402 C61.8422205,4.75150256 60.986738,3.18791928 59.359882,1.95139578 C83.6619714,1.95139578 106.719968,1.95139578 106.719968,1.95139578 Z M6.12791182,8.4884803 C4.81950039,8.38981422 4.53928714,8.23359293 4.12818778,7.54749825 C4.13088646,7.55206612 2.41542369,4.65649078 2.28228867,4.4308378 C1.99847718,3.89685333 1.90222416,3.50538653 1.91436823,3.2235487 C1.94585287,2.51826895 2.42082106,1.96966728 3.67166059,1.95139578 L55.0554828,1.95413651 C58.5358841,1.95413651 60.5864334,5.58011491 60.5864334,5.58011491 C61.0384628,6.43476414 61.5790989,7.41320275 62.207892,8.4884803 L6.12791182,8.4884803 Z M13.0914133,15.8866091 C11.7816525,15.4257106 11.3660553,14.6286166 11.0979862,14.1092493 C10.2987263,12.7279242 9.2466897,10.6609612 8.7280928,10.0027305 L63.1164486,10.0027305 C63.6377442,10.8523551 64.2062667,11.7453745 64.8269638,12.6749368 L17.112001,15.8916337 C16.3604179,15.9848184 14.1834803,16.1611383 13.0914133,15.8866091 Z M21.9075606,22.8640366 C20.1709581,23.1011093 19.6271735,22.5168782 19.5232742,22.3780148 L17.2397387,18.2938787 C17.0827653,17.9910286 16.9028531,17.7343141 16.7112466,17.5114019 C17.0045035,17.4858218 65.851114,14.1814217 65.851114,14.1814217 C66.4070426,14.9798861 66.9976044,15.8002762 67.6223495,16.6375676 L21.9075606,22.8640366 Z M32.9919508,27.3277631 C28.2535134,25.9135493 24.4074405,24.767013 22.7639426,24.2759665 L68.6793336,18.0220902 C69.3058779,18.8246656 69.9598587,19.6377472 70.6493722,20.4585942 L39.2322053,27.0148638 C38.0645752,27.2606154 34.7182083,27.7850073 32.9919508,27.3277631 Z M48.5593032,31.9691799 C45.0546137,30.9240504 41.3601168,29.8218224 37.8729687,28.7821742 C38.8008658,28.6524466 39.4638422,28.5131264 39.5344578,28.4975957 C39.5326587,28.4980525 62.2951494,23.748377 71.7738234,21.771858 C72.7075677,22.8379998 73.6930367,23.9123637 74.7351781,24.9853573 L53.6868007,31.5790835 C53.6386742,31.5959846 50.7654765,32.5625468 48.5593032,31.9691799 Z M64.9744918,36.8632002 C64.5247113,36.7298182 59.5263008,35.2388642 53.0827455,33.3176163 C53.6966959,33.1732715 54.0996992,33.0376057 54.1464764,33.0216181 C54.128935,33.0275563 71.8147534,27.4867251 75.9347427,26.1944736 C77.4478042,27.6854277 79.0665642,29.1649621 80.7991186,30.6061263 L69.4165239,36.0163163 C68.6649407,36.4027585 66.4673132,37.2733952 64.9744918,36.8632002 Z M74.0951405,45.2694587 C69.6427634,43.5638146 68.9752892,41.8641086 68.3410987,40.2146493 C68.2889242,40.0648231 67.9650822,39.1896184 67.2332894,38.3463889 C68.7396042,38.0576992 69.989994,37.4195672 70.0709545,37.3757156 C70.0592602,37.3821106 76.0921658,34.5157697 82.0967353,31.6613052 C84.2759217,33.3943566 86.5207761,34.9839768 88.8272505,36.4283386 L78.1872433,44.1631196 C78.1485622,44.192354 75.9432885,45.8582577 74.0951405,45.2694587 Z M86.8675569,48.9420294 L77.4352103,46.3278351 C78.3734524,45.9144425 79.0170883,45.4238529 79.0728611,45.3822852 C79.064765,45.3882234 84.3397906,41.5530364 90.2211202,37.2779631 C92.3472325,38.5428074 94.5246199,39.6902574 96.7528324,40.7143747 L90.5607045,47.2701875 C90.0070247,47.8594433 88.2803174,49.2814225 86.8675569,48.9420294 Z M99.9512214,52.5666375 L89.8019248,49.7541974 C90.8544111,49.1443863 91.5835053,48.3788106 91.6401776,48.3194282 C91.6392781,48.3194282 94.5421613,45.2434218 98.2060731,41.3639264 C100.824695,42.4976728 103.508985,43.4692596 106.259843,44.274119 L102.906279,50.0419735 C102.497429,50.7874505 101.128297,52.7525499 99.9512214,52.5666375 Z M114.843004,52.7644264 C114.839855,52.7817843 114.436852,54.6253783 113.168921,55.4096823 C112.593651,55.7655197 111.925278,55.8472846 111.133214,55.6641129 L102.261294,53.2070534 C103.345715,52.3103797 104.07346,51.0272639 104.201197,50.7920184 C104.198049,50.7984134 105.703464,48.2107128 107.749965,44.6925362 C110.617766,45.4635934 113.553933,46.0610713 116.557567,46.4804021 L114.843004,52.7644264 Z M117.092805,54.6226376 C116.414087,55.28772 115.656207,55.6613721 114.923514,55.8596179 C115.904485,54.7363776 116.248568,53.3221638 116.298043,53.1029059 L118.053537,46.6745368 C120.258361,46.9371895 122.499617,47.1057441 124.772807,47.1806572 C122.955694,48.9424862 117.092805,54.6226376 117.092805,54.6226376 Z M118.458339,45.1913481 L123.673094,26.0976347 L126.75499,26.0976347 L126.75499,45.7061475 C123.936216,45.6801106 121.170515,45.5056178 118.458339,45.1913481 Z M128.246462,45.7070611 L128.246462,26.0976347 L131.328358,26.0976347 L136.543113,45.1931752 C133.832286,45.5088153 131.066586,45.6805674 128.246462,45.7070611 Z M136.624973,53.3783487 C136.624973,53.3783487 131.846955,48.7492652 130.227745,47.1806572 C132.500936,47.1043737 134.742642,46.933992 136.946116,46.6690553 L138.702509,53.1061034 C138.754234,53.3317564 139.101014,54.7409455 140.079737,55.8600746 C138.734893,55.4722621 138.327392,55.0666349 136.624973,53.3783487 Z M143.867788,55.6650264 C143.075725,55.8472846 142.407801,55.7655197 141.832981,55.4096823 C140.597434,54.6463905 140.184536,52.8790801 140.160247,52.774019 L138.442536,46.4772046 C141.444821,46.0555898 144.382337,45.4590255 147.248338,44.6879684 L150.811049,50.8112035 C150.931591,51.0345725 151.655737,52.3117501 152.738359,53.2070534 L143.867788,55.6650264 Z M155.048881,52.5666375 C153.873155,52.7525499 152.503124,50.7874505 152.106417,50.0593314 L148.738911,44.2695511 C151.489768,43.4628645 154.176757,42.4990431 156.796278,41.3639264 L163.363523,48.3212554 C163.418846,48.3792674 164.146141,49.1452998 165.198178,49.7541974 L155.048881,52.5666375 Z M169.812925,48.4765631 L168.135694,48.9420294 C166.719785,49.2814225 164.994427,47.8594433 164.442996,47.2733851 C164.442097,47.2729283 161.734868,44.4061305 158.250419,40.7162019 C160.478181,39.6902574 162.656918,38.5455482 164.781231,37.2802471 L175.945682,45.3946185 C175.992909,45.4316183 176.631148,45.9171833 177.565342,46.3278351 C175.088851,47.0143866 169.812925,48.4765631 169.812925,48.4765631 Z M186.663951,40.2059704 C186.028412,41.859084 185.366784,43.5619874 180.892818,45.2726562 C179.046019,45.8500355 176.853339,44.192354 176.829951,44.1754529 C176.824553,44.1704282 171.845933,40.552672 166.175551,36.4283386 C168.479776,34.9816928 170.726879,33.3966406 172.904717,31.6631324 L184.951637,37.3880489 C185.020453,37.4241351 186.263647,38.0595264 187.768612,38.3463889 C187.047614,39.1763716 186.721073,40.0374158 186.663951,40.2059704 Z M190.030558,36.8632002 C188.537737,37.2756792 186.336961,36.4027585 185.608317,36.0272792 C185.608317,36.0272792 179.980663,33.3514186 174.204582,30.6065831 C175.936687,29.1649621 177.557696,27.6858845 179.068059,26.195844 L200.874766,33.0275563 C200.914796,33.0421735 201.309704,33.1755555 201.918706,33.3176163 L190.030558,36.8632002 Z M206.453393,31.9664392 C204.244971,32.5662011 201.363227,31.5959846 201.333092,31.5863921 L201.298909,31.5745156 C201.298909,31.5745156 201.295311,31.5731453 201.290813,31.5717749 L180.268523,24.9853573 C181.310214,23.9123637 182.299731,22.8398269 183.231227,21.771858 L215.469243,28.4980525 C215.539409,28.5135832 216.202385,28.6524466 217.129383,28.7821742 L206.453393,31.9664392 Z M222.026143,27.3231953 C220.305283,27.787748 216.940925,27.2624425 215.771495,27.0148638 C215.769696,27.0148638 194.265691,22.5287547 184.356128,20.4595078 C185.044742,19.6391176 185.70412,18.8255792 186.329315,18.022547 L232.239758,24.2759665 L222.026143,27.3231953 Z M237.750019,18.3144341 C237.761263,18.2970762 235.873085,21.6736487 235.481776,22.3748173 C235.385073,22.5063721 234.848485,23.1024797 233.094791,22.865407 L187.38405,16.6375676 C188.009245,15.8021034 188.602505,14.9798861 189.157984,14.1814217 L237.724381,17.4543034 C237.793198,17.4625256 237.997398,17.4858218 238.289755,17.5114019 C238.095,17.7407091 237.91104,18.005189 237.750019,18.3144341 Z M245.860011,10.6203071 L243.904815,14.1092493 C243.635846,14.6286166 243.221598,15.4257106 241.914087,15.8856955 C240.822469,16.1611383 238.643733,15.9848184 237.889001,15.8916337 L190.179885,12.6749368 C190.799683,11.7453745 191.370005,10.850528 191.888601,10.0027305 L246.273809,10.0027305 C246.129879,10.1872726 245.991796,10.3909998 245.860011,10.6203071 Z M252.719163,4.4308378 C252.693975,4.47423261 250.871915,7.55206612 250.871915,7.55206612 C250.523785,8.13127255 250.311488,8.39346852 248.887483,8.48756672 C248.880287,8.48756672 192.797158,8.4884803 192.797158,8.4884803 C193.426401,7.41320275 193.964788,6.43476414 194.417717,5.58011491 C194.434359,5.54813979 196.418341,1.95413651 199.948218,1.95413651 L251.330691,1.95139578 C251.869528,1.97195122 252.570736,2.0377286 252.936407,2.65530517 C252.986333,2.73935405 253.088433,2.91384684 253.088433,3.2235487 C253.088433,3.50538653 253.002975,3.89685333 252.719163,4.4308378 L252.719163,4.4308378 Z" id="Fill-2"></path>
                    <path d="M83.7972993,13 L83.3683421,13 L79,23 L80.1842461,23 L80.204051,22.9382943 C80.5578395,21.7230613 81.0129032,20.5612452 81.4544636,19.4371892 C81.4544636,19.4371892 81.5165791,19.2769387 81.5444861,19.2055627 C81.6538635,19.2055627 84.8172543,19.2055627 84.923931,19.2055627 C85.3794449,20.2674526 85.8448612,21.4882115 86.3462866,22.9424388 L86.3665416,23 L88,23 L83.7972993,13 Z M81.8753188,18.4383864 C81.9653413,18.2228771 83.1135784,15.4700682 83.2490623,15.1468042 C83.3854464,15.4700682 84.5525881,18.2228771 84.6430608,18.4383864 C84.4153038,18.4383864 82.1008252,18.4383864 81.8753188,18.4383864 L81.8753188,18.4383864 Z" id="Fill-3"></path>
                    <path d="M88,22.1319114 L88.0356895,22.1694969 C88.5705678,22.7355432 89.7687138,23 90.4106605,23 C92.5242178,23 94,21.669112 94,19.7635738 C94,18.1786442 92.7745075,17.709505 91.5902665,17.2534982 C90.5344148,16.8477562 89.5369641,16.4651089 89.5369641,15.2981479 C89.5369641,14.4092288 90.2502897,13.7643889 91.2329085,13.7643889 C92.0162225,13.7643889 92.6122827,14.1728479 92.9103129,14.9136893 L92.9325608,14.9675769 L93.198146,14.9675769 L93.620394,13.7295204 L93.5726535,13.6865009 C92.9974508,13.180682 92.1195829,13 91.4892236,13 C89.5239861,13 88.2544612,14.0759408 88.2544612,15.7401168 C88.2544612,17.4368972 89.5480881,17.931848 90.6896871,18.3706471 C91.7163384,18.7650682 92.6887601,19.1373002 92.6887601,20.3010913 C92.6887601,21.3851832 91.8623407,22.2342526 90.808343,22.2342526 C89.8484357,22.2342526 89.205562,21.830322 88.5872538,20.8390617 L88.5622248,20.7969479 L88.2947856,20.7969479 L88,22.1319114" id="Fill-4"></path>
                    <path d="M101.906896,13 L94,13 L94,14.0492264 L94.1035038,14.0393812 C95.0097809,13.9465541 95.8883249,13.8682607 97.3180636,13.8663854 C97.3180636,14.0431317 97.3180636,23 97.3180636,23 L98.8379349,23 C98.8379349,23 98.8379349,14.0454759 98.8379349,13.8682607 C99.9081342,13.870136 100.93822,13.92827 101.89402,14.0393812 L102,14.0501641 L102,13 L101.906896,13" id="Fill-5"></path>
                    <path d="M106.939656,13 C104.031096,13 102,15.064484 102,18.0210569 C102,21.0002717 103.975261,23 106.916033,23 C109.956019,23 112,20.9155912 112,17.8141104 C112,14.4875696 109.458661,13 106.939656,13 Z M109.374909,21.2823892 C108.731521,22.0073812 107.916334,22.3755377 106.95297,22.3755377 C104.823949,22.3755377 103.448267,20.7317393 103.448267,18.1877009 C103.448267,15.3746774 104.836404,13.6276321 107.070652,13.6276321 C108.12464,13.6276321 109.122364,14.1157904 109.737405,14.9345198 C110.411287,15.8469864 110.549586,16.7916044 110.549586,17.9259611 C110.553022,17.9893583 110.555599,18.0550197 110.555599,18.1238509 C110.555599,19.0449214 110.200404,20.3567903 109.374909,21.2823892 L109.374909,21.2823892 Z" id="Fill-6"></path>
                    <path d="M121.905608,13 L120.960201,13 C120.960201,13 120.960201,20.2233457 120.960201,20.3978272 C120.952749,20.3978272 120.950762,20.3978272 120.9448,20.3978272 C120.888662,20.3409208 113.728803,13 113.728803,13 L113,13 L113,23 L114.037812,23 C114.037812,23 114.037812,15.4375676 114.037812,15.2630861 C114.048245,15.2630861 114.051225,15.2630861 114.058181,15.2630861 C114.113325,15.3204628 120.590086,22.0984339 120.590086,22.0984339 L121.400861,22.9971782 L121.44756,23 L122,23 L122,13 L121.905608,13" id="Fill-7"></path>
                    <path d="M137.803517,13 L137.469159,13 L135.178456,17.3930772 C135.178456,17.3930772 133.731205,20.1828999 133.599596,20.434981 C132.187914,17.94521 130.914511,15.3204628 129.831407,13.0493816 L129.807842,13 L129.327203,13 L129.31831,13.0808917 C129.184479,14.5604571 128.369483,20.5770117 128.015562,22.8974745 L128,23 L129.144907,23 L129.144907,22.9111132 C129.144907,21.5035037 129.380113,19.4012604 129.629547,17.175328 C129.629547,17.175328 129.739369,16.1914593 129.781609,15.7992287 C129.941673,16.1213846 131.721948,19.6975497 132.4,21.170531 L133.171423,22.8433899 L133.428416,22.8433899 L133.450202,22.7888351 C134.23941,20.8676574 135.353193,18.6699431 136.8827,15.7813573 C137.097454,17.5026572 137.386015,20.9466679 137.545635,22.9195786 L137.55097,23 L139,23 L138.986661,22.8979448 C138.663864,20.4758971 138.305053,17.2637445 137.886217,13.0808917 L137.878213,13 L137.803517,13" id="Fill-8"></path>
                    <path d="M143.79892,13 L143.372599,13 L139,23 L140.188475,23 L140.205132,22.9378339 C140.561224,21.715233 141.018157,20.5446675 141.462935,19.4150857 C141.462935,19.4150857 141.519208,19.2750967 141.544418,19.2055627 C141.654712,19.2055627 144.815876,19.2055627 144.92392,19.2055627 C145.388055,20.2886351 145.867947,21.5430098 146.346038,22.9424388 L146.366747,23 L148,23 L143.79892,13 Z M141.877551,18.4383864 C141.968037,18.2228771 143.115996,15.4709891 143.2506,15.1468042 C143.386555,15.4700682 144.553872,18.2228771 144.646158,18.4383864 C144.419268,18.4383864 142.104442,18.4383864 141.877551,18.4383864 L141.877551,18.4383864 Z" id="Fill-9"></path>
                    <path d="M152.775699,18.0562009 C154.703736,17.6931289 155.855636,16.6631708 155.855636,15.2724921 C155.855636,13.744956 154.70876,13 152.351711,13 L149,13 L149,23 L150.541727,23 C150.541727,23 150.541727,18.3778865 150.541727,18.2052862 C150.662292,18.2052862 150.922512,18.2052862 150.983297,18.2052862 C151.037551,18.2654846 152.18292,19.5235385 152.18292,19.5235385 C152.180911,19.5202464 153.992904,21.7179608 153.992904,21.7179608 L154.989074,22.9985891 L155.039309,23 L157,23 C157,23 152.955542,18.2678361 152.775699,18.0562009 Z M150.541727,17.486667 C150.541727,17.3281757 150.541727,13.8681748 150.541727,13.7082726 C151.172182,13.6795843 152.152276,13.6410196 152.686279,13.7228519 C153.753281,13.8865165 154.296829,14.466397 154.296829,15.4455627 C154.296829,16.4496543 153.589513,17.1852043 152.40898,17.4090674 C151.739341,17.5341673 150.929042,17.5073602 150.541727,17.486667 L150.541727,17.486667 Z" id="Fill-10"></path>
                    <path d="M163.904956,13 L156,13 L156,14.0492264 L156.103459,14.0393812 C157.009839,13.9465541 157.888002,13.8682607 159.314646,13.8663854 C159.314646,14.0431317 159.314646,23 159.314646,23 L160.836829,23 C160.836829,23 160.836829,14.0454759 160.836829,13.8682607 C161.908545,13.8706048 162.936699,13.92827 163.894561,14.0393812 L164,14.0501641 L164,13 L163.904956,13" id="Fill-11"></path>
                    <polygon id="Fill-12" points="163 23 164 23 164 13 163 13"></polygon>
                    <path d="M175.960468,13 C175.960468,13 175.960468,20.2233457 175.960468,20.3978272 C175.953511,20.3978272 175.949536,20.3978272 175.945064,20.3978272 C175.890404,20.3409208 168.72797,13 168.72797,13 L168,13 L168,23 L169.038041,23 C169.038041,23 169.038041,15.4375676 169.038041,15.2630861 C169.047979,15.2630861 169.04947,15.2630861 169.056427,15.2630861 C169.11208,15.3204628 175.591265,22.0984339 175.591265,22.0984339 C175.594247,22.0984339 176.405201,22.9971782 176.405201,22.9971782 L177,23 L177,13 L175.960468,13" id="Fill-13"></path>
                    <path d="M48,116 C47.464512,115.965738 47.0101031,115.912957 46.5259193,115.912957 C45.9885991,115.912957 45.5071638,115.965738 45.0234381,116 C44.2039445,113.618816 43.1819824,110.871403 42.04596,108.274001 L34.845502,108.274001 C33.8542308,110.788064 32.833643,113.310461 32.0402596,116 C31.6426517,115.965738 31.3320779,115.912957 30.9894389,115.912957 C30.6225219,115.912957 30.3078254,115.965738 30,116 L38.844026,96 L39.4958646,96 L48,116 Z M38.4748187,99.7460935 L35.3851126,107.070676 L41.622242,107.070676 L38.4748187,99.7460935 L38.4748187,99.7460935 Z" id="Fill-14"></path>
                    <path d="M49.7767051,111.862713 C50.8234367,113.664838 52.0305371,114.790086 54.1235667,114.790086 C56.2972142,114.790086 57.8514914,112.902383 57.8514914,110.681021 C57.8514914,105.448073 49.4568344,107.756834 49.4568344,101.395908 C49.4568344,97.7698068 52.1922062,96 55.4108515,96 C56.6972694,96 58.2537137,96.4192366 59.2440995,97.3469286 C58.9233618,98.0743337 58.7365538,98.8618249 58.5207061,99.653868 L58.2537137,99.653868 C57.6893889,98.1321438 56.5117617,97.2035414 54.9306119,97.2035414 C53.0781355,97.2035414 51.5498641,98.4990327 51.5498641,100.495072 C51.5498641,105.671575 60,103.589048 60,109.582174 C60,113.606573 57.0175736,116 53.3711336,116 C52.0569762,116 49.9123685,115.409154 49,114.369028 C49.2656921,113.553315 49.4017889,112.705283 49.5075456,111.862713 L49.7767051,111.862713" id="Fill-15"></path>
                    <path d="M70.9243776,115 C70.4598403,114.969979 70.0526069,114.90949 69.6449037,114.90949 C69.2071395,114.90949 68.7717238,114.969979 68.3663692,115 L68.3663692,97.3294265 C65.4307186,97.3294265 63.6538281,97.4902839 62,97.6574144 C62.0300611,97.3814027 62.0883044,97.105391 62.0883044,96.8311716 C62.0883044,96.5515753 62.0300611,96.2979672 62,96 L77,96 C76.9694692,96.2979672 76.9149836,96.5515753 76.9149836,96.8311716 C76.9149836,97.105391 76.9694692,97.3814027 77,97.6574144 C75.5453264,97.4902839 73.5133866,97.3294265 70.9243776,97.3294265 L70.9243776,115" id="Fill-16"></path>
                    <path d="M75,106.037554 C75,99.8764595 79.5676008,96 85.374733,96 C90.647272,96 96,98.8618249 96,105.61331 C96,111.889114 91.5696719,116 85.3208207,116 C79.1236166,116 75,112.062999 75,106.037554 Z M91.4863116,99.653868 C90.0882144,97.8808749 87.8991004,96.9240503 85.655168,96.9240503 C80.7233189,96.9240503 77.7504369,100.663951 77.7504369,106.37622 C77.7504369,112.092132 81.2257459,115.067301 85.4005566,115.067301 C91.3191379,115.067301 93.4516213,108.938526 93.2518284,105.845916 C93.2518284,103.51212 92.9460229,101.536109 91.4863116,99.653868 L91.4863116,99.653868 Z" id="Fill-17"></path>
                    <path d="M115,115 L114.167581,115 C113.866787,114.612144 113.313772,113.942047 112.736248,113.30431 L100.820805,100.024174 L100.544966,100.024174 L100.544966,115 C100.270464,114.966742 100.020025,114.915508 99.7709233,114.915508 C99.4968667,114.915508 99.249993,114.966742 99,115 L99,96 L100.076619,96 L113.174293,110.303032 L113.453252,110.303032 L113.453252,96 C113.702353,96.0242691 113.950118,96.0817958 114.224175,96.0817958 C114.470603,96.0817958 114.721487,96.0242691 115,96 L115,115" id="Fill-18"></path>
                    <path d="M148.655217,96 C149.410166,102.85422 150.221678,109.696755 151,115 C150.476444,114.966742 150.069286,114.915508 149.639222,114.915508 C149.177371,114.915508 148.714585,114.966742 148.281716,115 C147.790415,109.413615 147.207959,103.410611 146.802671,100.662811 C143.448173,106.412787 140.958477,110.85448 139.221861,114.69349 L138.909597,114.69349 L137.314621,111.555138 C135.46114,107.892752 133.43984,104.273962 131.471363,100.662811 C130.834214,106.076616 130.047945,111.581654 130.047945,115 C129.679119,114.966742 129.356103,114.915508 129.041035,114.915508 C128.662859,114.915508 128.347791,114.966742 128,115 C128.752612,110.528196 130.482684,98.9113918 130.774847,96 L131.528861,96 C133.843258,100.42012 136.621845,105.63348 139.713162,110.55606 C142.46744,105.801116 145.124487,100.970669 148.049856,96 L148.655217,96" id="Fill-19"></path>
                    <path d="M169,116 C168.457183,115.965738 168.007813,115.912957 167.523629,115.912957 C166.987683,115.912957 166.503041,115.965738 166.026187,116 C165.20028,113.618816 164.180608,110.871403 163.042295,108.274001 L155.849167,108.274001 C154.852399,110.788064 153.829062,113.310461 153.037969,116 C152.641736,115.965738 152.332078,115.912957 151.988523,115.912957 C151.624812,115.912957 151.305993,115.965738 151,116 L159.842194,96 L160.496323,96 L169,116 Z M159.475277,99.7460935 L156.382364,107.070676 L162.620868,107.070676 L159.475277,99.7460935 L159.475277,99.7460935 Z" id="Fill-20"></path>
                    <path d="M170,96 L176.334417,96 C180.937359,96 182.96868,97.414798 182.96868,100.216529 C182.96868,103.440273 179.865448,104.998439 176.842851,105.496405 L183.00103,112.747918 L184.433625,114.302488 L185,115 C184.375201,114.966742 183.833934,114.915508 183.269008,114.915508 C182.70215,114.915508 182.102942,114.966742 181.562158,115 C180.905492,114.137998 180.308698,113.356893 179.680519,112.580282 L176.157214,108.332293 L173.763761,105.725613 L172.629563,105.725613 L172.629563,115 C172.1501,114.966742 171.733406,114.915508 171.314781,114.915508 C170.864772,114.915508 170.415728,114.966742 170,115 L170,96 Z M172.629563,104.663166 C173.046256,104.690581 174.960729,104.804286 176.48265,104.52654 C178.671377,104.111269 180.308698,102.719841 180.308698,100.554499 C180.308698,98.6367916 179.263825,97.3855852 177.022951,97.0485145 C175.917724,96.8898666 173.88254,96.9676176 172.629563,97.0246949 L172.629563,104.663166 L172.629563,104.663166 Z" id="Fill-21"></path>
                    <path d="M193.931054,115 C193.462333,114.969979 193.054668,114.90949 192.647473,114.90949 C192.21022,114.90949 191.776254,114.969979 191.369059,115 L191.369059,97.3294265 C188.433684,97.3294265 186.661187,97.4902839 185,97.6574144 C185.034755,97.3814027 185.089705,97.105391 185.089705,96.8311716 C185.089705,96.5515753 185.034755,96.2979672 185,96 L200,96 C199.970411,96.2979672 199.918279,96.5515753 199.918279,96.8311716 C199.918279,97.105391 199.970411,97.3814027 200,97.6574144 C198.548751,97.4902839 196.515123,97.3294265 193.931054,97.3294265 L193.931054,115" id="Fill-22"></path>
                    <path d="M202,96 C202.638384,96.0242691 203.32966,96.0817958 204.00551,96.0817958 C204.64022,96.0817958 205.277135,96.0242691 206,96 L206,115 C205.277135,114.966742 204.64022,114.915508 204.00551,114.915508 C203.32966,114.915508 202.638384,114.966742 202,115 L202,96" id="Fill-23"></path>
                    <path d="M225,115 L224.169832,115 C223.86771,114.612144 223.315156,113.942047 222.73542,113.30431 L210.816298,100.024174 L210.548933,100.024174 L210.548933,115 C210.2682,114.966742 210.02267,114.915508 209.771793,114.915508 C209.497744,114.915508 209.249095,114.966742 209,115 L209,96 L210.078371,96 L223.177463,110.303032 L223.451958,110.303032 L223.451958,96 C223.701498,96.0242691 223.951484,96.0817958 224.227316,96.0817958 C224.475965,96.0817958 224.72506,96.0242691 225,96 L225,115" id="Fill-24"></path>
                </g>
            </g>
        </g>
    </g>
</svg>