<?xml version="1.0" encoding="UTF-8"?>
<svg width="224px" height="127px" viewBox="0 0 224 127" version="1.1" xmlns="http://www.w3.org/2000/svg" xmlns:xlink="http://www.w3.org/1999/xlink">
    <!-- Generator: Sketch 53.2 (72643) - https://sketchapp.com/ -->
    <title>Rectangle Copy 3</title>
    <desc>Created with Sketch.</desc>
    <defs>
        <polygon id="path-1" points="3.13286713 3.13580247 3.13286713 -2.42807997e-13 1.15e-14 -3.109e-13 1.15e-14 3.13580247 3.13286713 3.13580247"></polygon>
    </defs>
    <g id="Design-Round-3" stroke="none" stroke-width="1" fill="none" fill-rule="evenodd">
        <g id="smack_website_home-1-1-copy" transform="translate(-257.000000, -2575.000000)">
            <g id="Clients-&amp;-Awards" transform="translate(0.000000, 2399.000000)">
                <g id="Group-18" transform="translate(33.000000, 176.000000)">
                    <g id="Group-11" transform="translate(224.000000, 0.000000)">
                        <rect id="Rectangle-Copy-3" x="0" y="0" width="224" height="127"></rect>
                        <g id="Page-1" transform="translate(37.594406, 5.487654)">
                            <path d="M125.67741,90.9382716 C127.101781,90.9382716 128.327044,91.7654799 128.871414,92.9512118 C129.290954,93.8652135 129.323967,95.0285794 129.069835,95.9999982 C128.679182,97.4961836 127.379641,98.9579854 124.641284,100.345679 L123.885769,99.3532294 C124.421541,98.9199299 124.972101,98.472276 125.194939,98.1451315 C125.593158,97.5602772 125.07286,97.7041541 124.63475,97.5712933 C123.213473,97.1406643 122.181818,95.8534509 122.181818,94.3315613 C122.181818,92.4578244 123.747183,90.9382716 125.67741,90.9382716 L125.67741,90.9382716 Z M115.132867,104.265432 C116.8633,104.265432 118.265734,105.66918 118.265734,107.400907 C118.265734,109.132961 116.8633,110.537037 115.132867,110.537037 C113.402434,110.537037 112,109.132961 112,107.400907 C112,105.66918 113.402434,104.265432 115.132867,104.265432 L115.132867,104.265432 Z M114.741426,98.7777778 C119.71576,98.7777778 123.748252,102.814048 123.748252,107.793042 C123.748252,112.772372 119.71576,116.808642 114.741426,116.808642 C109.767093,116.808642 105.734266,112.772372 105.734266,107.793042 C105.734266,102.814048 109.767093,98.7777778 114.741426,98.7777778 L114.741426,98.7777778 Z M7.04895105,109.753086 L7.04895105,98.7777778 L9.91040725,98.7777778 C10.8184365,98.7777778 11.5957494,98.834272 12.2376895,98.9469319 C12.8799622,99.0595918 13.404823,99.2336727 13.806285,99.4688461 C14.6591007,99.9677686 15.3103539,100.63059 15.7666968,101.454682 C16.2207114,102.278446 16.4475524,103.217826 16.4475524,104.272165 C16.4475524,105.323877 16.2207114,106.257673 15.7690251,107.07651 C15.3173388,107.895348 14.6637573,108.558169 13.806285,109.062347 C13.3911859,109.302775 12.8616685,109.479155 12.2217241,109.589188 C11.5821123,109.69922 10.7223118,109.753086 9.64897466,109.753086 L7.04895105,109.753086 Z M0,116.808642 L0,92.5061728 L7.15369393,92.5061728 C9.42380218,92.5061728 11.3671833,92.6310454 12.9722898,92.8804475 C14.5773962,93.1295066 15.8897389,93.5151022 16.8930153,94.0362051 C19.0255722,95.1411902 20.653434,96.6084431 21.7942619,98.4331609 C22.9293161,100.257536 23.4965035,102.337144 23.4965035,104.671644 C23.4965035,107.000312 22.9293161,109.0686 21.8000357,110.881997 C20.6707553,112.695051 19.0371197,114.162304 16.8930153,115.27861 C15.8554359,115.811377 14.5312061,116.202461 12.9322131,116.446031 C11.3328804,116.689601 9.18300225,116.808642 6.50023966,116.808642 L0,116.808642 Z M34.4615385,104.265432 C36.1919716,104.265432 37.5944056,105.66918 37.5944056,107.400907 C37.5944056,109.132961 36.1919716,110.537037 34.4615385,110.537037 C32.7311053,110.537037 31.3286713,109.132961 31.3286713,107.400907 C31.3286713,105.66918 32.7311053,104.265432 34.4615385,104.265432 L34.4615385,104.265432 Z M34.0699301,98.7777778 C39.0441712,98.7777778 43.0769231,102.814048 43.0769231,107.793042 C43.0769231,112.772372 39.0441712,116.808642 34.0699301,116.808642 C29.0953537,116.808642 25.0629371,112.772372 25.0629371,107.793042 C25.0629371,102.814048 29.0953537,98.7777778 34.0699301,98.7777778 L34.0699301,98.7777778 Z M45.4265734,116.808642 L45.4265734,100.05199 L51.6775493,100.05199 L51.6775493,102.402925 C53.5497874,99.3533074 60.7696593,97.8651744 62.8437079,102.594845 C65.7902092,98.2975804 74.4086825,98.4935196 74.4055936,104.332507 L74.3990725,116.808642 L67.7726194,116.808642 L67.7726194,107.641368 C67.7726194,105.178563 67.3422277,104.942766 65.2215019,105.034539 C63.4858633,105.109565 63.091166,106.514299 63.0836153,108.108607 L63.0420862,116.808642 L56.8089576,116.808642 L56.7396281,108.383257 C56.7118277,105.013773 55.9543521,104.727065 54.2574969,104.883147 C52.5764295,105.037888 51.8422925,105.265312 51.8422925,108.383257 L51.8422925,116.808642 L45.4265734,116.808642 Z M76.7552448,116.808642 L83.020979,116.808642 L83.020979,99.5617284 L76.7552448,99.5617284 L76.7552448,116.808642 Z M86.1538462,116.808642 L86.1538462,99.9520651 L92.371546,99.9520651 L92.371546,102.31702 C94.7839261,98.3677915 104.165101,98.3088277 104.165784,104.47678 L104.167832,116.808642 L97.9675441,116.808642 L97.8982385,108.333014 C97.870926,104.943437 96.6224015,104.624358 94.9379005,104.812032 C93.5408641,104.967696 92.2899498,105.468046 92.2899498,108.333014 L92.2899498,116.808642 L86.1538462,116.808642 Z M128.267678,103.962077 C128.444916,98.0256332 137.842193,97.4843583 143.289595,100.831405 L141.277678,104.846508 C139.401687,103.523242 137.777228,102.905897 135.711673,103.077307 C133.751394,103.239926 133.540174,105.404687 136.717798,105.322871 C141.679795,105.195412 144.357354,107.842622 144.094162,111.243762 C143.669391,116.736299 135.142979,118.984906 127.664336,114.169892 L130.413856,110.086834 C132.492738,111.29887 134.564956,112.381758 136.650834,112.128194 C138.815003,111.865501 139.907082,110.094271 136.046826,109.678426 C130.789321,109.112133 128.165066,107.409534 128.267678,103.962077 L128.267678,103.962077 Z M80.2798886,90.9382716 C82.226389,90.9382716 83.8041958,92.5173705 83.8041958,94.4662179 C83.8041958,96.4147282 82.226389,97.9938272 80.2798886,97.9938272 C78.3333882,97.9938272 76.7552448,96.4147282 76.7552448,94.4662179 C76.7552448,92.5173705 78.3333882,90.9382716 80.2798886,90.9382716 L80.2798886,90.9382716 Z" id="Fill-1" fill-opacity="0.9" fill="#242527"></path>
                            <g id="Group-5" transform="translate(145.678322, 97.993827)">
                                <mask id="mask-2" fill="white">
                                    <use xlink:href="#path-1"></use>
                                </mask>
                                <g id="Clip-4"></g>
                                <path d="M0.783216783,1.56790123 L1.13348456,1.56790123 C1.2999745,1.56790123 1.41422493,1.53129866 1.47510838,1.45918613 C1.53599184,1.3870736 1.56643357,1.29092356 1.56643357,1.17073601 C1.56643357,1.09425302 1.55140061,1.02541833 1.52246218,0.964778251 C1.49314793,0.904138168 1.45218313,0.858248376 1.40069527,0.828747795 C1.34807994,0.798700908 1.25186905,0.783950617 1.11055931,0.783950617 L0.783216783,0.783950617 L0.783216783,1.56790123 Z M0.783216783,2.35185185 L0.783216783,0.783950617 L1.42367397,0.783950617 C1.64330412,0.783950617 1.80175158,0.79780833 1.89940855,0.826843538 C1.99745773,0.855878746 2.07511267,0.90669036 2.13394217,0.978618489 C2.19198728,1.05087656 2.22061764,1.12742393 2.22061764,1.20859053 C2.22061764,1.32341158 2.17237745,1.42272519 2.07511267,1.50785115 C1.97784789,1.5929771 1.84842298,1.64048925 1.68801454,1.65104751 C1.75390358,1.6741437 1.80724233,1.70185913 1.8460698,1.73419379 C1.92176376,1.79589361 2.01314559,1.89982645 2.12217627,2.04533244 L2.34965035,2.35185185 L1.98176986,2.35185185 L1.81626286,2.10472264 C1.68644575,1.91071466 1.58212143,1.78896475 1.50211331,1.73980286 C1.44759797,1.7038388 1.36680545,1.68569179 1.26091235,1.68569179 L1.08442384,1.68569179 L1.08442384,2.35185185 L0.783216783,2.35185185 Z M1.17594087,-1.53248331e-13 C0.977984978,-1.53248331e-13 0.78544817,0.0510439903 0.598011675,0.152174896 C0.410893949,0.253943852 0.264578726,0.399100199 0.158428466,0.587324913 C0.0529157452,0.776187677 2.34904087e-14,0.972388015 2.34904087e-14,1.176883 C2.34904087e-14,1.37946384 0.0522782061,1.57406905 0.156197079,1.76037961 C0.260115952,1.94637115 0.405156097,2.09184653 0.591955053,2.19584866 C0.77875401,2.29953176 0.972884665,2.35185185 1.17594087,2.35185185 C1.3786783,2.35185185 1.5734465,2.29953176 1.76024545,2.19584866 C1.94672564,2.09184653 2.09144701,1.94637115 2.19440958,1.76037961 C2.29769091,1.57406905 2.34965035,1.37946384 2.34965035,1.176883 C2.34965035,0.972388015 2.29705337,0.776187677 2.19185942,0.587324913 C2.08698424,0.399100199 1.94035025,0.253943852 1.75227621,0.152174896 C1.56452095,0.0510439903 1.37230291,-1.53248331e-13 1.17594087,-1.53248331e-13 L1.17594087,-1.53248331e-13 Z M1.56732006,-3.109e-13 C1.83043126,-3.109e-13 2.0868051,0.0677915418 2.33785999,0.202664766 C2.58785108,0.33789292 2.78358879,0.530974589 2.92294553,0.782619632 C3.06265687,1.03390974 3.13286713,1.29620267 3.13286713,1.56914349 C3.13286713,1.8395998 3.06407526,2.09905329 2.92578231,2.34821382 C2.78819856,2.59772929 2.59494303,2.79116589 2.34672492,2.92887855 C2.09815222,3.06730107 1.83894159,3.13580247 1.56732006,3.13580247 C1.29605313,3.13580247 1.03613331,3.06730107 0.788269795,2.92887855 C0.538987894,2.79116589 0.345732366,2.59772929 0.20743942,2.34821382 C0.0684372786,2.09905329 1.15e-14,1.8395998 1.15e-14,1.56914349 C1.15e-14,1.29620267 0.0698556678,1.03390974 0.210630795,0.782619632 C0.350696728,0.530974589 0.546434437,0.33789292 0.797134727,0.202664766 C1.04712582,0.0677915418 1.30456346,-3.109e-13 1.56732006,-3.109e-13 L1.56732006,-3.109e-13 Z" id="Fill-3" fill-opacity="0.9" fill="#242527" mask="url(#mask-2)"></path>
                            </g>
                            <path d="M80.8325231,18.9617107 C83.1306016,16.6697414 86.8500215,16.6760453 89.1398132,18.9763093 C91.4299364,21.2765733 91.423307,24.9991987 89.12556,27.2914998 C86.8274816,29.5834692 83.1080616,29.5768335 80.8179384,27.2769013 C78.5284782,24.9769691 78.5344446,21.2536801 80.8325231,18.9617107 L80.8325231,18.9617107 Z M61.0909091,23.1104383 L83.5581037,0.70116639 C84.4979231,-0.236100948 86.0332108,-0.233376334 86.9696275,0.707296773 L108.166603,21.9977739 C109.10302,22.938447 109.100297,24.474789 108.160478,25.4120563 L85.6932834,47.8209877 L61.0909091,23.1104383 Z" id="Fill-6" fill-opacity="0.9" fill="#242527"></path>
                            <path d="M36.7344592,47.4955321 L59.2017339,25.0864198 L83.8041958,49.7971337 L61.3369212,72.206246 C60.3970985,73.1435067 58.8621455,73.1407821 57.9257255,72.2001157 L36.7286747,50.9094496 C35.7919144,49.9691237 35.7949768,48.4327928 36.7344592,47.4955321 M46.3712398,44.8322288 C48.6689947,42.539952 52.3884275,42.5465876 54.6785586,44.8464954 C56.9683582,47.146735 56.9617288,50.8693209 54.6639739,53.1619295 C52.3658875,55.4538746 48.6464547,55.447239 46.356655,53.1469994 C44.0665239,50.8470916 44.0731534,47.1241739 46.3712398,44.8322288 M63.6017188,44.8323348 C65.8998053,42.5400822 69.6192382,42.546386 71.909038,44.8466013 C74.1991692,47.1468166 74.1925398,50.8693632 71.8947847,53.1619476 C69.5966982,55.4538685 65.8772653,55.447233 63.5874655,53.1470177 C61.2973343,50.8471341 61.3039637,47.1239239 63.6017188,44.8323348" id="Fill-8" fill-opacity="0.9" fill="#242527"></path>
                            <path d="M72.8391608,74.4753086 L72.8391608,71.3395062 L73.6214584,71.3395062 L74.4264312,73.8434453 L75.2044388,71.3395062 L75.972028,71.3395062 L75.972028,74.4753086 L75.4860413,74.4753086 L75.4860413,71.8438513 L74.6651346,74.4753086 L74.1846635,74.4753086 L73.3279053,71.8055656 L73.3279053,74.4753086 L72.8391608,74.4753086 Z M70.6385235,74.4753086 L70.6385235,71.8055656 L69.7062937,71.8055656 L69.7062937,71.3395062 L72.0559441,71.3395062 L72.0559441,71.8055656 L71.1179086,71.8055656 L71.1179086,74.4753086 L70.6385235,74.4753086 Z" id="Fill-10" fill-opacity="0.9" fill="#242527"></path>
                        </g>
                    </g>
                </g>
            </g>
        </g>
    </g>
</svg>