<?xml version="1.0" encoding="UTF-8"?>
<svg width="224px" height="127px" viewBox="0 0 224 127" version="1.1" xmlns="http://www.w3.org/2000/svg" xmlns:xlink="http://www.w3.org/1999/xlink">
    <!-- Generator: Sketch 53.2 (72643) - https://sketchapp.com/ -->
    <title>Rectangle Copy 3</title>
    <desc>Created with Sketch.</desc>
    <g id="Design-Round-3" stroke="none" stroke-width="1" fill="none" fill-rule="evenodd">
        <g id="smack_website_home-1-1-copy" transform="translate(-1184.000000, -2575.000000)">
            <g id="Clients-&amp;-Awards" transform="translate(0.000000, 2399.000000)">
                <g id="Group-19" transform="translate(736.000000, 176.000000)">
                    <g id="Group-14" transform="translate(448.000000, 0.000000)">
                        <rect id="Rectangle-Copy-3" x="0" y="0" width="223.666667" height="126.692308"></rect>
                        <g id="net-awards-logo" transform="translate(53.961538, 5.474359)">
                            <path d="M104.583428,62.7715934 C105.173246,59.620418 105.48637,56.3716629 105.48637,53.0496145 C105.48637,24.0898964 82.009886,0.613292848 53.0500481,0.613292848 C24.0899935,0.613292848 0.613292848,24.0898964 0.613292848,53.0496145 C0.613292848,82.0091157 24.0899935,105.48637 53.0500481,105.48637 C56.3718934,105.48637 59.6210956,105.173247 62.7714167,104.582564 L104.583428,62.7715934 Z" id="Shape" fill="#4E5966" fill-rule="nonzero"></path>
                            <path d="M104.583428,62.7715934 C105.173246,59.620418 105.48637,56.3716629 105.48637,53.0496145 C105.48637,24.0898964 82.009886,0.613292848 53.0500481,0.613292848 C24.0899935,0.613292848 0.613292848,24.0898964 0.613292848,53.0496145 C0.613292848,82.0091157 24.0899935,105.48637 53.0500481,105.48637 C56.3718934,105.48637 59.6210956,105.173247 62.7714167,104.582564 L104.583428,62.7715934 Z" id="Shape" fill="#242527" fill-rule="nonzero"></path>
                            <polyline id="Shape" points="105.48637 105.48637 105.48637 0 0 0 0 105.48637"></polyline>
                            <path d="M47.836842,48.0577674 L45.5712257,47.4930392 C45.5625635,47.4895639 45.5545509,47.4856543 45.5443727,47.482179 C45.2732437,47.3913881 45.1108262,47.1989461 45.1108262,46.8787887 C45.1108262,46.8701006 45.1093102,46.8644532 45.1090937,46.8570684 L45.1090937,35.9938698 C45.1090937,27.0722504 37.8791314,25.1450067 33.1501826,25.1450067 C30.9402213,25.1450067 28.2092247,25.7179886 25.878858,27.0722503 L25.2987025,25.6552169 L16.5589069,26.5991818 L16.5589069,30.0379422 L20.4328899,30.7023666 C20.6440326,30.7905511 20.7780812,30.9488922 20.8042846,31.193463 C20.8042846,32.8107576 20.8047177,37.8053441 20.8047177,37.8053441 L20.8107813,37.7986108 L20.8107813,46.8835671 C20.8107813,46.8848703 20.8103482,46.8861735 20.8103482,46.8879111 C20.8103482,47.2076342 20.6477141,47.4000762 20.3768016,47.4917359 C20.3562288,47.4986864 20.3397704,47.5052025 20.324828,47.512153 L18.1832987,48.0577673 L18.1832987,52.129892 L18.6387175,52.129892 L20.8107813,52.129892 L28.0946662,52.129892 L30.5657947,52.129892 L30.5657947,48.0577673 L28.4944298,47.4774005 C28.245173,47.3813967 28.096182,47.1928644 28.096182,46.8879111 C28.096182,46.8822639 28.0950992,46.8787886 28.0946661,46.8735757 L28.0946661,35.8287955 C28.0946661,31.2025855 32.2534211,31.2025855 33.1289599,31.2025855 C33.1296097,31.2025855 33.1302593,31.2028027 33.130909,31.2028027 C33.1369726,31.2028027 33.1443355,31.2025855 33.1501825,31.2025855 C33.9040164,31.2025855 35.2752535,31.3392063 36.3485086,32.1174452 C37.2158182,32.742773 37.8895261,33.7810041 37.8895261,35.4982122 L37.8895261,42.2814667 L37.8875771,42.2814667 L37.8875771,46.8197094 C37.8845454,46.8366512 37.8821632,46.8553307 37.8821632,46.8787886 C37.8821632,47.1989461 37.7195291,47.3913881 37.4484002,47.482179 C37.4468842,47.4830478 37.4458015,47.4839166 37.4442856,47.484351 L35.3969585,48.0577673 L35.3969585,52.129892 L37.8895262,52.129892 L45.1090938,52.129892 L47.3814233,52.129892 L47.8368421,52.129892 L47.8368421,48.0577674 L47.836842,48.0577674 Z M54.5830634,36.1666045 C54.5830634,31.2779352 58.7489395,31.2779352 59.6264488,31.2779352 C60.9966562,31.2779352 64.395749,31.743643 64.395749,35.8172663 L64.395749,36.184278 L54.5830634,36.1666045 Z M54.6325633,41.4273528 L71.7552632,41.4273528 L71.7552632,36.0184808 C71.7552632,27.0766224 64.4562245,25.1450067 59.6815897,25.1450067 C54.7423199,25.1450067 47.2235493,27.5734043 47.2235493,35.4666217 L47.2235493,42.3660574 C47.2235493,50.2592749 54.9067363,52.7431849 59.8460061,52.7431849 C65.828839,52.7431849 69.1127943,50.8823205 71.5278788,49.4472692 L71.5278788,45.1260059 L64.8401543,45.1260059 C64.8401543,45.1260059 62.9196308,46.9472496 59.8460061,46.9472496 C58.9683899,46.9472496 54.6325633,46.6163519 54.6325633,41.9798649 L54.6325633,41.4273528 L54.6325633,41.4273528 Z M81.6389779,44.8409117 L81.6389779,31.0894562 L88.4430942,31.0894562 L88.4430942,25.6605448 L81.6389779,25.6605448 L81.6389779,19.6253711 L74.2306284,20.4192397 L74.2306284,25.6605448 L71.7552632,25.6605448 L71.7552632,31.0894562 L74.2306284,31.0894562 L74.2306284,44.9507089 C74.2306284,52.129892 80.8157318,52.129892 83.0655916,52.129892 C86.0832951,52.129892 89.5407557,50.4855271 89.5407557,50.4855271 L89.5407557,45.5532969 L85.6444036,45.5532969 C85.6444036,45.5532969 84.9860664,46.3754794 83.2850374,46.3754794 C82.1878086,46.3754794 81.6389779,45.937155 81.6389779,44.8409117 L81.6389779,44.8409117 Z" id="Shape" fill="#FFFFFF" fill-rule="nonzero"></path>
                            <path d="M28.9649286,69.7092285 C28.8817229,69.2434365 28.8256907,68.8949551 28.796832,68.662059 C28.768184,68.4300256 28.7536492,68.1790154 28.7536492,67.9107537 L28.7536492,67.7529019 C28.3565789,68.3886218 27.8013124,68.9078937 27.0876391,69.3107176 C26.3737551,69.714404 25.5334826,69.9153846 24.5668218,69.9153846 C23.6064804,69.9153846 22.8494137,69.6488481 22.2958323,69.1149124 C21.7420403,68.5801141 21.4652497,67.8805635 21.4652497,67.0153979 C21.4652497,66.0587991 21.8907574,65.2790287 22.7424048,64.6760868 C23.5936308,64.0731448 24.7363929,63.7721052 26.1704803,63.7721052 L28.7536492,63.7721052 L28.7536492,62.2186025 C28.7536492,61.3335976 28.476648,60.6443979 27.9230666,60.1492782 C27.369064,59.6541585 26.5896686,59.4065987 25.5848806,59.4065987 C24.9253436,59.4065987 24.3089894,59.5023449 23.7362392,59.692112 C23.1632783,59.8818791 22.6749976,60.1441028 22.2718185,60.4779204 L22.2621288,62.1789239 L21.7437255,62.1789239 L21.7532047,60.1544537 C22.2461196,59.7809575 22.8270851,59.4738798 23.4961012,59.2349457 C24.1651173,58.9960117 24.8613069,58.8761134 25.5848807,58.8761134 C26.6985734,58.8761134 27.5917183,59.1642144 28.2638941,59.741279 C28.9360699,60.3183435 29.2722631,61.1507311 29.2722631,62.2384418 L29.2722631,67.5665852 C29.2722631,67.840885 29.2832168,68.1134595 29.3057561,68.3825838 C29.3282953,68.6508456 29.364948,68.9165195 29.416346,69.1787432 L30.6646424,69.1787432 L30.6646424,69.7092286 L28.9649286,69.7092286 L28.9649286,69.7092285 Z M24.6526398,69.3020918 C25.6287102,69.3020918 26.476947,69.083921 27.1979797,68.6475797 C27.9188025,68.2112382 28.4612038,67.6066889 28.8247638,66.8347643 L28.8247638,64.395749 L26.2794239,64.395749 C25.0099026,64.395749 23.9924803,64.6413992 23.2269472,65.1310343 C22.461414,65.6223347 22.0785425,66.2593599 22.0785425,67.0437752 C22.0785425,67.6832985 22.3146886,68.2187327 22.7867708,68.652576 C23.2588531,69.0855865 23.8805995,69.3020918 24.6526398,69.3020918 Z" id="Shape" fill="#FFFFFF" fill-rule="nonzero"></path>
                            <polygon id="Shape" fill="#FFFFFF" fill-rule="nonzero" points="33.2019941 60.0093946 31.7540584 60.0093946 33.7694922 66.899452 34.3174583 69.0385912 34.376054 69.0478918 35.0708313 66.899452 37.448571 59.4894062 37.9866639 59.4894062 40.3545303 66.899452 41.0394344 69.0478918 41.0982447 69.0385912 41.6657428 66.899452 43.6616446 60.0093946 42.2233675 60.0093946 42.2233675 59.4894062 45.3836707 59.4894062 45.3836707 60.0093946 44.2780797 60.0093946 41.3525886 69.9153846 40.8241543 69.9153846 38.2118173 62.080893 37.7419787 60.3180056 37.683383 60.3180056 37.1744806 62.080893 34.6012074 69.9153846 34.0727731 69.9153846 31.1472819 60.0093946 30.0513495 60.0093946 30.0513495 59.4894062 33.2019941 59.4894062"></polygon>
                            <path d="M54.1099354,69.7092285 C54.0267296,69.2434365 53.9706974,68.8949551 53.9418388,68.662059 C53.9131907,68.4300256 53.898656,68.1790154 53.898656,67.9107537 L53.898656,67.7529019 C53.5017963,68.3886218 52.9463192,68.9078937 52.2326458,69.3107176 C51.5187618,69.714404 50.6784894,69.9153846 49.7118286,69.9153846 C48.7516978,69.9153846 47.9944204,69.6488481 47.4408391,69.1149124 C46.8870471,68.5801141 46.6102564,67.8805635 46.6102564,67.0153979 C46.6102564,66.0587991 47.0359748,65.2790287 47.8874115,64.6760868 C48.7386376,64.0731448 49.8813997,63.7721052 51.3154871,63.7721052 L53.898656,63.7721052 L53.898656,62.2186025 C53.898656,61.3335976 53.6216547,60.6443979 53.0680734,60.1492782 C52.5142814,59.6541585 51.7346754,59.4065987 50.7298874,59.4065987 C50.0703504,59.4065987 49.4539961,59.5023449 48.8812459,59.692112 C48.308285,59.8818791 47.820215,60.1441028 47.4168253,60.4779204 L47.4073461,62.1789239 L46.8887323,62.1789239 L46.8984221,60.1544537 C47.3911263,59.7809575 47.9720918,59.4738798 48.6413186,59.2349457 C49.310124,58.9960117 50.0063136,58.8761134 50.7298874,58.8761134 C51.8437908,58.8761134 52.7367251,59.1642144 53.4089009,59.741279 C54.0810766,60.3183435 54.4172699,61.1507311 54.4172699,62.2384418 L54.4172699,67.5665852 C54.4172699,67.840885 54.4282235,68.1134595 54.4507628,68.3825838 C54.4733021,68.6508456 54.5099547,68.9165195 54.5613527,69.1787432 L55.8096491,69.1787432 L55.8096491,69.7092286 L54.1099354,69.7092286 L54.1099354,69.7092285 Z M49.7976465,69.3020918 C50.773717,69.3020918 51.6219537,69.083921 52.3431963,68.6475797 C53.0640191,68.2112382 53.6062106,67.6066889 53.9697706,66.8347643 L53.9697706,64.395749 L51.4244307,64.395749 C50.1549093,64.395749 49.137487,64.6413992 48.3719539,65.1310343 C47.6064208,65.6223347 47.2235493,66.2593599 47.2235493,67.0437752 C47.2235493,67.6832985 47.4596953,68.2187327 47.9317776,68.652576 C48.4038598,69.0855865 49.0258162,69.3020918 49.7976465,69.3020918 Z" id="Shape" fill="#FFFFFF" fill-rule="nonzero"></path>
                            <path d="M59.6145638,59.0765237 L59.7095253,60.9602054 L59.7095253,61.3302614 C59.9944097,60.5558687 60.4184044,59.9528796 60.9819257,59.5221731 C61.5450306,59.0914666 62.2380827,58.8761134 63.0606657,58.8761134 C63.2064399,58.8761134 63.3409686,58.8875403 63.4646684,58.9112731 C63.5879517,58.9341269 63.6937421,58.9596177 63.7824561,58.9859875 L63.7253959,59.4667966 L63.0606656,59.407025 C62.1431212,59.407025 61.3980068,59.7190675 60.8253225,60.3440314 C60.2526382,60.9681164 59.8802893,61.7908537 59.7095253,62.8131223 L59.7095253,69.374804 L61.2572306,69.374804 L61.2572306,69.9153846 L57.6495277,69.9153846 L57.6495277,69.374804 L59.197233,69.374804 L59.197233,59.6171043 L57.6495277,59.6171043 L57.6495277,59.0765237 L59.197233,59.0765237 L59.6145638,59.0765237 L59.6145638,59.0765237 Z" id="Shape" fill="#FFFFFF" fill-rule="nonzero"></path>
                            <path d="M72.6744972,68.0339459 C72.325594,68.6100355 71.8404276,69.0669928 71.2207338,69.4065197 C70.6010401,69.7460466 69.8689509,69.9153846 69.0249003,69.9153846 C67.7655507,69.9153846 66.7813312,69.4439613 66.0722419,68.5002636 C65.3635865,67.555715 65.0090418,66.2758942 65.0090418,64.6599503 L65.0090418,64.4557236 C65.0090418,62.7938286 65.3653223,61.4740134 66.0774494,60.4937252 C66.7895765,59.5142878 67.7785695,59.0249946 69.0448625,59.0249946 C69.8893471,59.0249946 70.6140589,59.2139044 71.2207339,59.5925747 C71.8274089,59.9703942 72.3121413,60.4894705 72.6744973,61.1489525 L72.6744973,55.1068199 L71.0627728,55.1068199 L71.0627728,54.5830634 L72.6744973,54.5830634 L73.209135,54.5830634 L73.209135,69.1886778 L74.8217274,69.1886778 L74.8217274,69.7120088 L72.6944594,69.7120088 L72.6744972,68.0339459 Z M65.6223347,64.5849112 C65.6223347,66.0286518 65.9245836,67.1746527 66.5281832,68.0263069 C67.1317829,68.8771129 68.0210145,69.3020918 69.1949798,69.3020918 C70.1569667,69.3020918 70.9572751,69.0959643 71.5950069,68.6837094 C72.2331877,68.2714544 72.6957678,67.7200846 72.9818489,67.0304483 L72.9818489,62.1291951 C72.7159776,61.3810287 72.2861823,60.7550119 71.6920139,60.2486 C71.0987438,59.7430363 70.2728363,59.4894062 69.2151896,59.4894062 C68.0416734,59.4894062 67.1488489,59.9423777 66.5380636,60.8474724 C65.9272782,61.7534153 65.6223347,62.9308019 65.6223347,64.3813286 L65.6223347,64.5849112 Z" id="Shape" fill="#FFFFFF" fill-rule="nonzero"></path>
                            <path d="M83.263291,62.3065855 L82.7434677,62.3065855 L82.7434677,60.5866053 C82.4091749,60.2062085 81.983596,59.9146572 81.4671537,59.7119514 C80.9498661,59.5092456 80.3505902,59.4065988 79.6701711,59.4065988 C78.6939176,59.4065988 77.9560221,59.6222433 77.4547942,60.0509445 C76.9539888,60.4805082 76.7033749,60.9764905 76.7033749,61.5397539 C76.7033749,62.0969792 76.9155304,62.5722595 77.3394188,62.965595 C77.7633072,63.3589305 78.6043221,63.7030991 79.8628861,63.9981007 C81.0250926,64.273263 81.906679,64.6484843 82.5072229,65.1237647 C83.1077667,65.5981826 83.4078273,66.2623675 83.4078273,67.1145944 C83.4078273,67.9461194 83.073957,68.6215179 82.4062166,69.1390646 C81.7380535,69.6566113 80.8518182,69.9153846 79.7475107,69.9153846 C78.9897521,69.9153846 78.2911603,69.7911734 77.6525807,69.542751 C77.0131558,69.293466 76.4785408,68.9492974 76.0483131,68.5102453 L76.0483131,66.6125741 L76.568559,66.6125741 L76.568559,68.2152437 C76.9476496,68.6275559 77.4159132,68.9260078 77.9750401,69.1097369 C78.5341671,69.293466 79.1241454,69.3848992 79.7475107,69.3848992 C80.7106629,69.3848992 81.4747609,69.1554536 82.0398046,68.6965621 C82.6048482,68.2385333 82.888004,67.7071853 82.888004,67.1042434 C82.888004,66.5409801 82.6517591,66.0277463 82.1796919,65.5662671 C81.7076248,65.1039254 80.8839373,64.7416427 79.7090522,64.479419 C78.4817621,64.2171954 77.587497,63.8687139 77.0262569,63.4322495 C76.4641716,62.9966477 76.1835516,62.3721414 76.1835516,61.559593 C76.1835516,60.799662 76.4975586,60.1622169 77.1272633,59.6481205 C77.7565453,59.1331616 78.6043221,58.8761134 79.6701711,58.8761134 C80.4152512,58.8761134 81.1037,59.0072252 81.736363,59.2694489 C82.369026,59.5316725 82.8778611,59.8818791 83.263291,60.3209312 L83.263291,62.3065855 L83.263291,62.3065855 Z" id="Shape" fill="#FFFFFF" fill-rule="nonzero"></path>
                            <polygon id="Rectangle-path" fill="#4E5966" fill-rule="nonzero" transform="translate(83.171676, 83.917888) rotate(45.000000) translate(-83.171676, -83.917888) " points="82.6716759 38.5342168 82.7716759 38.5342168 82.7716759 129.301558 82.6716759 129.301558"></polygon>
                        </g>
                    </g>
                </g>
            </g>
        </g>
    </g>
</svg>