<?xml version="1.0" encoding="UTF-8"?>
<svg width="214px" height="51px" viewBox="0 0 214 51" version="1.1" xmlns="http://www.w3.org/2000/svg" xmlns:xlink="http://www.w3.org/1999/xlink">
    <!-- Generator: Sketch 53.2 (72643) - https://sketchapp.com/ -->
    <title>Ted Baker</title>
    <desc>Created with Sketch.</desc>
    <g id="2.-Fashion" stroke="none" stroke-width="1" fill="none" fill-rule="evenodd">
        <g id="Ted-Baker---Sole-Mates" transform="translate(-270.000000, -152.000000)" fill="#FFFFFF">
            <g id="Header">
                <g id="Ted-Baker" transform="translate(270.000000, 152.000000)">
                    <g id="Group" transform="translate(0.126316, 0.448598)">
                        <polyline id="Fill-56" points="58.7052632 40.8785047 58.7052632 49.7746697 63.1276225 49.7746697 63.1276225 48.482823 60.0721302 48.482823 60.0721302 40.8785047 58.7052632 40.8785047"></polyline>
                        <path d="M82.5714701,44.5636314 C82.5714701,43.1564971 82.041017,41.8749576 81.0564852,40.8763614 C80.0705646,39.9005146 78.8055314,39.364486 77.4071906,39.364486 C76.0102385,39.364486 74.7313191,39.9005146 73.7500273,40.8763614 C72.7567008,41.8749576 72.2526316,43.1503359 72.2526316,44.5636314 C72.2526316,45.9650783 72.7567008,47.2328736 73.7500273,48.2120381 C74.7225245,49.2044729 76.0292163,49.7433451 77.4071906,49.7433451 C78.7916452,49.7433451 80.0705646,49.2044729 81.0564852,48.2120381 C82.041017,47.2328736 82.5714701,45.9650783 82.5714701,44.5636314 M80.9204004,44.5636314 C80.9204004,45.5456395 80.5644506,46.4565563 79.8928212,47.1688914 C79.2170259,47.8774349 78.3537669,48.2480577 77.4071906,48.2480577 C76.4680204,48.2480577 75.5774518,47.8774349 74.9118397,47.1688914 C74.2332672,46.4565563 73.8773175,45.5456395 73.8773175,44.5636314 C73.8773175,43.5579261 74.2332672,42.6327911 74.9118397,41.928513 C75.5774518,41.216178 76.4782036,40.8483989 77.4071906,40.8483989 C78.3366406,40.8483989 79.2272092,41.216178 79.8928212,41.928513 C80.5644506,42.6327911 80.9204004,43.5579261 80.9204004,44.5636314" id="Fill-57"></path>
                        <path d="M91.8210526,49.3634056 L93.0534383,49.3634056 L93.0534383,42.668529 C93.2822873,43.0517001 93.5494755,43.4200984 93.8439358,43.7557193 L99.1916515,49.7433451 L99.1916515,39.7356542 L97.9497799,39.7356542 L97.9497799,46.4171428 C97.6742915,46.0099658 97.3936649,45.6207932 97.0525652,45.2473168 L91.8210526,39.364486 L91.8210526,49.3634056" id="Fill-58"></path>
                        <path d="M108.378947,49.7745112 L110.278994,49.7745112 C111.867784,49.7745112 113.129898,49.8069301 114.228259,48.9444163 C115.217866,48.1574045 115.749546,46.9306044 115.749546,45.3356791 C115.749546,43.7454459 115.217866,42.4964645 114.228259,41.7196902 C113.161566,40.8785047 111.916118,40.8785047 110.278994,40.8785047 L108.378947,40.8785047 L108.378947,49.7745112 Z M109.788982,48.4713561 L109.788982,42.1748348 L110.292745,42.1748348 C111.591943,42.1748348 112.556967,42.1202345 113.289485,42.7643471 C113.957835,43.3291188 114.283677,44.1916326 114.283677,45.3275743 C114.283677,46.4537051 113.957835,47.3106736 113.289485,47.8886687 C112.539467,48.5447252 111.586527,48.4713561 110.292745,48.4713561 L109.788982,48.4713561 L109.788982,48.4713561 Z" id="Fill-59"></path>
                        <path d="M136.760944,44.5636314 C136.760944,43.1564971 136.231156,41.8749576 135.247859,40.8763614 C134.265949,39.9005146 132.988634,39.364486 131.599906,39.364486 C130.218113,39.364486 128.930628,39.9005146 127.950567,40.8763614 C126.958486,41.8749576 126.442105,43.1503359 126.442105,44.5636314 C126.442105,45.9650783 126.958486,47.2328736 127.950567,48.2120381 C128.918608,49.2044729 130.224123,49.7433451 131.599906,49.7433451 C132.978926,49.7433451 134.265949,49.2044729 135.247859,48.2120381 C136.231156,47.2328736 136.760944,45.9650783 136.760944,44.5636314 M135.11888,44.5636314 C135.11888,45.5456395 134.753668,46.4565563 134.085655,47.1688914 C133.418104,47.8774349 132.542522,48.2480577 131.599906,48.2480577 C130.659141,48.2480577 129.79003,47.8774349 129.108148,47.1688914 C128.433201,46.4565563 128.077697,45.5456395 128.077697,44.5636314 C128.077697,43.5579261 128.433201,42.6327911 129.108148,41.928513 C129.79003,41.216178 130.66515,40.8483989 131.599906,40.8483989 C132.527728,40.8483989 133.418104,41.216178 134.085655,41.928513 C134.753668,42.6327911 135.11888,43.5579261 135.11888,44.5636314" id="Fill-60"></path>
                        <path d="M146.010526,49.3634056 L147.2383,49.3634056 L147.2383,42.668529 C147.468508,43.0517001 147.73471,43.4200984 148.044027,43.7557193 L153.381125,49.7433451 L153.381125,39.7356542 L152.153351,39.7356542 L152.153351,46.4171428 C151.867767,46.0099658 151.579019,45.6207932 151.243201,45.2473168 L146.010526,39.364486 L146.010526,49.3634056" id="Fill-61"></path>
                        <polyline id="Fill-62" points="0 1.51401869 0 4.58308634 3.96767086 4.58308634 3.96767086 23.7544312 6.37883321 23.7544312 6.37883321 4.58308634 10.3188385 4.58308634 10.3188385 1.51401869 0 1.51401869"></polyline>
                        <polyline id="Fill-63" points="27.0947368 1.51401869 27.0947368 23.7544312 34.4653358 23.7544312 34.4653358 20.5167004 29.2416998 20.5167004 29.2416998 13.3310699 34.4653358 13.3310699 34.4653358 10.1639563 29.2416998 10.1639563 29.2416998 4.58253475 34.4653358 4.58253475 34.4653358 1.51401869 27.0947368 1.51401869"></polyline>
                        <path d="M49.6736842,23.7539545 L53.1069919,23.7539545 C55.9720925,23.7539545 58.2217468,23.8410027 60.1928683,21.6625762 C61.9696852,19.7022144 62.9407623,16.6253258 62.9407623,12.6415367 C62.9407623,8.66396529 61.9696852,5.55554388 60.1928683,3.59251736 C58.2917143,1.51401869 56.0362664,1.51401869 53.1069919,1.51401869 L49.6736842,1.51401869 L49.6736842,23.7539545 Z M52.2183606,20.4834279 L52.2183606,4.74857122 L53.1399702,4.74857122 C55.4653855,4.74857122 57.1936263,4.62288422 58.5270189,6.20707328 C59.7133461,7.64203678 60.2967053,9.78049214 60.2967053,12.6135569 C60.2967053,15.4488423 59.7133461,17.5930712 58.5270189,19.0222611 C57.1780284,20.6672951 55.4497876,20.4834279 53.1399702,20.4834279 L52.2183606,20.4834279 L52.2183606,20.4834279 Z" id="Fill-64"></path>
                        <path d="M99.3473684,23.7544312 L103.420703,23.7544312 C105.66315,23.7544312 107.200526,23.6567219 108.34839,22.0591749 C109.153136,20.9501744 109.666207,19.2744599 109.666207,17.4397458 C109.666207,14.4507296 108.508237,12.3615272 106.634172,11.9586984 C108.142151,11.3364678 108.951031,9.69184271 108.951031,7.32683359 C108.951031,5.337117 108.374572,3.63431043 107.380583,2.63101361 C106.388891,1.61172799 105.104146,1.51401869 103.390847,1.51401869 L99.3473684,1.51401869 L99.3473684,23.7544312 Z M101.918695,20.7307726 L101.918695,13.6388542 L102.804283,13.6388542 C103.936989,13.6388542 104.904797,13.5535806 105.715513,14.1380598 C106.521177,14.73231 106.954325,15.8168832 106.954325,17.2216764 C106.954325,18.4283862 106.569866,19.4561104 105.943341,20.0472516 C105.307169,20.638837 104.269085,20.7307726 102.804283,20.7307726 L101.918695,20.7307726 Z M101.918695,10.9101 L101.918695,4.52524157 L102.899364,4.52524157 C105.224949,4.52524157 106.317694,5.05686897 106.317694,7.82337447 C106.317694,10.1639563 105.267208,10.9101 102.899364,10.9101 L101.918695,10.9101 L101.918695,10.9101 Z" id="Fill-65"></path>
                        <path d="M135.546347,22.2404125 L138.172777,22.2404125 L130.802612,0 L123.431579,22.2404125 L126.038895,22.2404125 L127.79955,16.7252963 L133.824788,16.7252963 L135.546347,22.2404125 Z M128.711807,13.8264729 L130.266987,8.95121786 C130.437275,8.3767533 130.626677,7.59925997 130.826939,6.51871949 C131.036324,7.59925997 131.231373,8.3767533 131.392973,8.95121786 L132.948153,13.8264729 L128.711807,13.8264729 L128.711807,13.8264729 Z" id="Fill-66"></path>
                        <polyline id="Fill-67" points="160.041312 1.51401869 154.52701 10.7084635 154.52701 1.51401869 152.031579 1.51401869 152.031579 23.7544312 154.52701 23.7544312 154.52701 12.4019433 160.601546 23.7544312 163.824537 23.7544312 157.014994 11.3955375 163.091283 1.51401869 160.041312 1.51401869"></polyline>
                        <polyline id="Fill-68" points="179.126316 1.51401869 179.126316 23.7544312 186.496915 23.7544312 186.496915 20.5167004 181.267542 20.5167004 181.267542 13.3310699 186.496915 13.3310699 186.496915 10.1639563 181.267542 10.1639563 181.267542 4.58253475 186.496915 4.58253475 186.496915 1.51401869 179.126316 1.51401869"></polyline>
                        <path d="M205.498648,13.8023885 L205.776841,13.8023885 L210.774445,23.7544312 L213.529365,23.7544312 L208.361158,13.6384903 C210.631277,13.240071 211.800628,11.2088878 211.800628,7.64265769 C211.800628,5.55550921 211.260961,3.80281973 210.347512,2.75591423 C209.429349,1.69301866 208.230421,1.51401869 206.611847,1.51401869 L203.210526,1.51401869 L203.210526,23.7544312 L205.498648,23.7544312 L205.498648,13.8023885 Z M205.645246,10.9908009 L205.645246,4.62142255 L206.089754,4.62142255 C208.278858,4.62142255 209.297754,5.20683682 209.297754,7.95535241 C209.297754,10.6252502 208.230421,10.9908009 206.089754,10.9908009 L205.645246,10.9908009 L205.645246,10.9908009 Z" id="Fill-69"></path>
                    </g>
                </g>
            </g>
        </g>
    </g>
</svg>