<?xml version="1.0" encoding="UTF-8"?>
<svg width="91px" height="91px" viewBox="0 0 91 91" version="1.1" xmlns="http://www.w3.org/2000/svg" xmlns:xlink="http://www.w3.org/1999/xlink">
    <title>Shape</title>
    <g id="2.-Fashion" stroke="none" stroke-width="1" fill="none" fill-rule="evenodd">
        <g id="BT-Unbreakables" transform="translate(-264.000000, -150.000000)" fill="#FFFFFF" fill-rule="nonzero">
            <path d="M313,179 L335,179 L335,185.655219 L327.622623,185.655219 L327.622623,210 L320.377377,210 L320.377377,185.655219 L313,185.655219 L313,179 L313,179 Z M309.999126,235 C287.924491,235 270,217.075117 270,195 C270,172.924883 287.924491,155 309.999126,155 C332.07376,155 350,172.924883 350,195 C350,217.075117 332.075509,235 309.999126,235 M309.5,241 C334.614939,241 355,220.616293 355,195.499128 C355,170.381962 334.616684,150 309.5,150 C284.385061,150 264,170.383707 264,195.500872 C264,220.618038 284.385061,241 309.5,241 M301,201.550094 C301,199.431002 299.820029,198 297.808716,198 L293,198 L293,205 L297.808716,205 C299.820029,205.001888 301,203.570887 301,201.550094 M301,188.951763 C301,187.209647 299.870854,186 297.956951,186 L293,186 L293,192 L297.956951,192 C299.870854,191.998145 301,190.790353 301,188.951763 M310,200.882147 C310,206.762603 305.724645,210 299.616996,210 L286,210 L286,179 L298.725171,179 C304.879664,179 309.061332,182.053851 309.061332,187.66161 C309.061332,190.21377 307.886645,192.493233 306.007507,193.86196 C308.167705,195.092591 310,197.462953 310,200.882147" id="Shape"></path>
        </g>
    </g>
</svg>