<?xml version="1.0" encoding="UTF-8"?>
<svg width="249px" height="43px" viewBox="0 0 249 43" version="1.1" xmlns="http://www.w3.org/2000/svg" xmlns:xlink="http://www.w3.org/1999/xlink">
    <title>me-and-buddy-logo</title>
    <defs>
        <polygon id="path-1" points="37.6452311 42.8686409 0.152355203 42.8686409 0.152355203 0.231902642 37.6452311 0.231902642 37.6452311 42.8686409"></polygon>
    </defs>
    <g id="Page-1" stroke="none" stroke-width="1" fill="none" fill-rule="evenodd">
        <g id="Me-&amp;-Buddy" transform="translate(-269.000000, -165.000000)">
            <g id="me-and-buddy-logo" transform="translate(269.000000, 165.000000)">
                <g id="Group-3" transform="translate(68.000000, 0.000000)">
                    <mask id="mask-2" fill="white">
                        <use xlink:href="#path-1"></use>
                    </mask>
                    <g id="Clip-2"></g>
                    <path d="M37.6452311,28.1475484 C36.3517115,29.0654389 34.9943106,29.707843 33.5733284,30.0720806 C32.1523552,30.4392963 30.6842779,30.5337062 29.1706229,30.3481625 C28.8389205,32.2923509 28.1935102,34.1439165 27.2331926,35.9034547 C26.1616077,37.809224 24.8129042,39.3498623 23.1903813,40.5209023 C21.5651592,41.6967074 19.7383963,42.4287563 17.7085931,42.7209207 C16.9330212,42.8305195 16.1574492,42.8865103 15.3809775,42.8865103 C13.4615419,42.8865103 11.5966902,42.5577137 9.78762213,41.8968445 C7.97795423,41.2371666 6.35363183,40.3014067 4.91465494,39.0913519 C3.36351102,37.7722939 2.18215838,36.252801 1.36999718,34.5275125 C0.556936243,32.8046065 0.152355203,30.9712082 0.152355203,29.0291045 C0.152355203,23.7120707 2.23674233,19.6610824 6.41151481,16.8749483 C5.44969762,15.5549968 4.80428739,14.0060195 4.47258492,12.2283141 C4.13908298,10.4509065 4.45309065,8.49748549 5.41400811,6.37013589 C6.00333483,5.08741228 6.81549603,3.98010641 7.85049171,3.04464441 C8.88368792,2.10769329 10.0659403,1.40363974 11.3948496,0.927420784 C14.1996249,-0.098877232 16.9330212,0.0101259816 19.5905398,1.25770648 C21.3252297,2.06391331 22.7099226,3.31893938 23.7449183,5.02308251 C24.7754153,6.72990606 25.2747684,8.5895128 25.2390789,10.6069657 L18.8149678,10.439887 C18.8149678,9.70754029 18.630522,9.02850388 18.2622303,8.40605383 C17.8921392,7.78390161 17.4296751,7.32436074 16.8766377,7.03040945 C15.7696632,6.5541905 14.6782841,6.51874956 13.6093984,6.92081059 C12.5387132,7.32436074 11.7445467,8.03883809 11.2289983,9.06483828 C10.8208183,9.91035775 10.6738616,10.6796345 10.7851288,11.3762425 C10.8948966,12.0731483 11.0898392,12.677729 11.3651583,13.1902823 C11.6440763,13.7037291 11.9484868,14.1159162 12.2801892,14.4283325 C12.6118917,14.7392597 12.8338265,14.9131883 12.9444939,14.9504162 L14.8816243,15.4459936 L14.8816243,19.9547358 L12.7795424,20.7249061 C10.6738616,21.5314107 9.11491993,22.5928519 8.10031825,23.9139946 C7.08241755,25.2345418 6.57556658,26.9371958 6.57556658,29.0291045 C6.57556658,30.3127215 6.85208527,31.3750561 7.40722205,32.2170017 C7.96085926,33.0625212 8.51449647,33.7406641 9.06813369,34.2532175 C10.1016298,35.0960565 11.3006772,35.7182088 12.6679752,36.1229502 C14.0355731,36.5265004 15.4004718,36.6176342 16.7662702,36.3963517 C18.0196017,36.2146797 19.0453001,35.7569258 19.8403663,35.0233877 C20.633933,34.2904454 21.232557,33.5563117 21.6383377,32.8233693 C22.3773204,31.4670834 22.8025953,29.9833293 22.9129629,28.3685331 C21.252951,27.8923141 19.756391,28.0754753 18.4271818,28.9177187 C17.7994664,29.3227579 17.3379021,29.743284 17.0418892,30.1834664 C16.7476757,30.6242444 16.5995192,30.8625028 16.5995192,30.8979437 L10.8406125,28.0400343 C10.876302,27.9655786 10.9797716,27.7824174 11.1468225,27.4896574 C11.3099745,27.1954083 11.5607008,26.8383186 11.8924033,26.416899 C12.2250055,25.994586 12.6304862,25.5359386 13.1112449,25.0421481 C13.5908039,24.5465707 14.1648351,24.0786908 14.8273403,23.6385084 C15.4547558,23.2364473 16.185341,22.8599991 17.0160967,22.5103549 C17.8453529,22.1630933 18.7885756,21.9343652 19.8403663,21.8235751 C20.8915572,21.7148697 22.0543153,21.7610323 23.3298403,21.9623606 C24.6020662,22.1630933 25.9585674,22.5928519 27.3999436,23.2534233 C29.7998379,24.3908092 31.9031195,24.3360098 33.7118877,23.0887271 C34.9313291,24.6326415 36.6816145,26.9127743 37.6452311,28.1475484" id="Fill-1" fill="#FFFFFE" mask="url(#mask-2)"></path>
                </g>
                <polyline id="Fill-4" fill="#FFFFFE" points="249 3 241.080577 3 231.582587 14.4137483 231.582587 3 225.025398 3 225 41 231.557189 41 231.582587 24.3281074 249 3"></polyline>
                <polyline id="Fill-5" fill="#FFFFFE" points="12.3745819 20.149379 6.39297169 40.8326876 0 40.8326876 10.6726108 3 21.4997041 27.5504081 32.3273892 3 43 40.8326876 36.6064364 40.8326876 30.6266019 20.149379 21.4997041 41 12.3745819 20.149379"></polyline>
                <polyline id="Fill-6" fill="#FFFFFE" points="52.0499089 8.63391918 52.0499089 17.339362 62.7001019 17.339362 62.7001019 22.8192493 52.0499089 22.8192493 52.0499089 35.3660808 66 35.3660808 66 41 46 41 46 3 66 3 66 8.63391918 52.0499089 8.63391918"></polyline>
                <path d="M127.34394,32.3448233 C127.724491,31.52528 127.838209,30.6293087 127.682407,29.6554397 C127.525709,28.6830404 127.15262,27.8217557 126.563736,27.0701157 C125.974553,26.3531623 125.437006,25.7047002 124.951989,25.1235534 C124.466376,24.5435825 124.015983,24.0141717 123.599615,23.5359088 C123.426203,23.6393805 123.235778,23.7325639 123.027445,23.8175166 C122.820306,23.9033511 122.611972,23.9974163 122.404535,24.0994183 C121.156327,24.6811529 119.951099,25.3290272 118.790641,26.0456866 C117.627796,26.76264 116.580161,27.8217557 115.644154,29.220682 C115.227488,29.9041246 114.950208,30.774228 114.812016,31.8330497 C114.673227,32.8912835 114.586073,33.881614 114.552346,34.8034532 L123.496344,34.8034532 C125.402383,34.5985674 126.685512,33.7784362 127.34394,32.3448233 Z M123.963452,10.4775976 C123.685873,10.1019246 123.269505,9.74330095 122.716139,9.40172659 C122.160982,9.06074014 121.398387,8.88907111 120.427459,8.88907111 L114.29178,8.88907111 L114.29178,22.5123615 C114.741875,22.1369825 115.158243,21.7954081 115.540883,21.4879324 C115.921733,21.1801628 116.302583,20.8817996 116.684328,20.5916672 C117.065177,20.3018287 117.498558,20.0366823 117.984171,19.7982858 C118.469188,19.5598892 119.041357,19.3032675 119.699786,19.0298905 C121.121406,18.4840182 122.1965,17.9205087 122.924174,17.339362 C123.652146,16.7590971 124.188798,15.957485 124.535621,14.932174 C124.640683,14.6255802 124.709332,14.2751872 124.743955,13.8827588 C124.777682,13.4900365 124.77022,13.0884956 124.718585,12.6790179 C124.666054,12.2698341 124.579795,11.8679993 124.458019,11.4764528 C124.335944,11.0837304 124.171785,10.7509747 123.963452,10.4775976 Z M131.504633,23.2807569 C132.82149,24.9527663 133.618707,26.8399499 133.896286,28.9387802 C134.172969,31.0390804 133.896286,33.0106288 133.06355,34.8534253 C132.266034,36.6297884 131.07961,38.0542886 129.502188,39.1304536 C127.924467,40.2057367 126.060811,40.8292128 123.912114,41 L108,41 L108,3 L120.427459,3 C122.230227,3 123.860479,3.35832972 125.316125,4.07616499 C126.77177,4.79311839 128.002368,5.81666564 129.00762,7.14857046 C130.013171,8.51398601 130.646528,10.0075654 130.906198,11.6296027 C131.166167,13.25164 131.035735,14.8478093 130.516096,16.4175227 C130.064807,17.7838202 129.441001,18.9273006 128.644082,19.8491398 C128.816599,20.0884182 129.068509,20.395306 129.398021,20.7700972 C129.726937,21.146946 130.048092,21.5220311 130.360293,21.8971162 C130.741143,22.3415744 131.121993,22.8022 131.504633,23.2807569 L131.504633,23.2807569 Z" id="Fill-7" fill="#FFFFFE"></path>
                <path d="M158.1253,3.16739931 C158.1253,4.06743356 157.815048,4.8205173 157.193645,5.42635003 C156.571343,6.03218277 155.829436,6.33479862 154.966727,6.33479862 C154.068945,6.33479862 153.317746,6.03218277 152.713129,5.42635003 C152.109113,4.8205173 151.806355,4.06743356 151.806355,3.16739931 C151.806355,2.302525 152.109113,1.5578556 152.713129,0.934893668 C153.317746,0.311931735 154.068945,0 154.966727,0 C155.829436,0 156.571343,0.311931735 157.193645,0.934893668 C157.815048,1.5578556 158.1253,2.302525 158.1253,3.16739931 Z M147.193345,3.16739931 C147.193345,4.06743356 146.883094,4.8205173 146.261091,5.42635003 C145.638789,6.03218277 144.897482,6.33479862 144.033873,6.33479862 C143.136391,6.33479862 142.384892,6.03218277 141.781775,5.42635003 C141.176259,4.8205173 140.8744,4.06743356 140.8744,3.16739931 C140.8744,2.302525 141.176259,1.5578556 141.781775,0.934893668 C142.384892,0.311931735 143.136391,0 144.033873,0 C144.897482,0 145.638789,0.311931735 146.261091,0.934893668 C146.883094,1.5578556 147.193345,2.302525 147.193345,3.16739931 Z M149.526679,43 C147.646583,43 145.88789,42.6423904 144.251799,41.9274717 C142.614508,41.2122525 141.18735,40.2443025 139.969424,39.0215181 C138.7503,37.8005367 137.784173,36.3697978 137.071043,34.7287003 C136.356715,33.0882038 136,31.3259999 136,29.441187 L136,10.2964519 L142.318645,10.2964519 L142.318645,29.4003173 C142.318645,30.41094 142.501499,31.3599578 142.865408,32.2497746 C143.229017,33.1377884 143.740707,33.9046957 144.39958,34.5486935 C145.059053,35.1929918 145.822242,35.7077693 146.689448,36.0912229 C147.557254,36.4746766 148.494005,36.6655019 149.4994,36.6655019 C150.470923,36.6655019 151.40018,36.4746766 152.284173,36.0912229 C153.169065,35.7077693 153.931355,35.1929918 154.572842,34.5486935 C155.214928,33.9046957 155.726619,33.1377884 156.108213,32.2497746 C156.489808,31.3599578 156.680156,30.41094 156.680156,29.4003173 L156.680156,10.2964519 L163,10.2964519 L163,29.441187 C163,31.3259999 162.642086,33.0882038 161.929556,34.7287003 C161.215827,36.3697978 160.2494,37.8005367 159.031475,39.0215181 C157.81235,40.2443025 156.384293,41.2122525 154.749101,41.9274717 C153.111811,42.6423904 151.371103,43 149.526679,43 L149.526679,43 Z" id="Fill-8" fill="#FFFFFE"></path>
                <path d="M172.380717,9.19742868 L172.380717,34.8034532 C173.013341,34.8034532 173.426211,34.7952225 173.619933,34.7767034 C173.812444,34.760242 173.927466,34.7517173 173.962578,34.7517173 C175.403688,34.7185005 176.871435,34.5136147 178.365818,34.1382357 C179.859899,33.7640324 181.221401,33.0996968 182.453049,32.1455226 C183.682881,31.1919364 184.685392,29.8956 185.458767,28.2603348 C186.232141,26.6250696 186.618374,24.5127174 186.618374,21.9229841 C186.618374,19.3682313 186.232141,17.2726344 185.458767,15.6373693 C184.685392,14.0012222 183.682881,12.7066495 182.453049,11.7530633 C181.221401,10.7985952 179.859899,10.1427842 178.365818,9.78504239 C176.871435,9.42730058 175.403688,9.23093941 173.962578,9.19742868 L172.380717,9.19742868 Z M166,41 L166,3 L174.121188,3 C175.56139,3.0343926 177.258576,3.24780308 179.209417,3.64023145 C181.161166,4.03265982 183.102623,4.82633517 185.037422,6.02184541 C185.950639,6.56830559 186.882926,7.27702828 187.831861,8.14713163 C188.781099,9.01723498 189.63287,10.0928121 190.389899,11.372981 C191.145112,12.6534439 191.768049,14.1643666 192.26083,15.9057491 C192.753307,17.6468377 193,19.6615973 193,21.948852 C193,24.2361068 192.753307,26.2505724 192.26083,27.9919549 C191.768049,29.7321616 191.145112,31.2527848 190.389899,32.5497091 C189.63287,33.8475153 188.781099,34.9401417 187.831861,35.8272944 C186.882926,36.7156229 185.950639,37.4322823 185.037422,37.9775667 C184.087881,38.5593013 183.112309,39.045501 182.110404,39.4382233 C181.108195,39.8306516 180.132926,40.1381274 179.183688,40.3597686 C178.234148,40.5814097 177.327892,40.7433783 176.467948,40.8459682 C175.605583,40.9482641 174.82343,41 174.121188,41 L166,41 L166,41 Z" id="Fill-9" fill="#FFFFFE"></path>
                <path d="M202.380272,9.19742868 L202.380272,34.8034532 C203.013789,34.8034532 203.425742,34.7952225 203.619762,34.7767034 C203.812269,34.760242 203.927289,34.7517173 203.963308,34.7517173 C205.403478,34.7185005 206.870889,34.5136147 208.366146,34.1382357 C209.859588,33.7640324 211.221665,33.0996968 212.453588,32.1455226 C213.682485,31.1919364 214.684973,29.8956 215.458936,28.2603348 C216.231385,26.6250696 216.618518,24.5127174 216.618518,21.9229841 C216.618518,19.3682313 216.231385,17.2726344 215.458936,15.6373693 C214.684973,14.0012222 213.682485,12.7066495 212.453588,11.7530633 C211.221665,10.7985952 209.859588,10.1427842 208.366146,9.78504239 C206.870889,9.42730058 205.403478,9.23093941 203.963308,9.19742868 L202.380272,9.19742868 Z M196,41 L196,3 L204.121006,3 C205.562084,3.0343926 207.259232,3.24780308 209.209121,3.64023145 C211.160826,4.03265982 213.10224,4.82633517 215.036995,6.02184541 C215.949889,6.56830559 216.882155,7.27702828 217.831371,8.14713163 C218.780588,9.01723498 219.632037,10.0928121 220.38905,11.372981 C221.144548,12.6534439 221.76838,14.1643666 222.261149,15.9057491 C222.752707,17.6468377 223,19.6615973 223,21.948852 C223,24.2361068 222.752707,26.2505724 222.261149,27.9919549 C221.76838,29.7321616 221.144548,31.2527848 220.38905,32.5497091 C219.632037,33.8475153 218.780588,34.9401417 217.831371,35.8272944 C216.882155,36.7156229 215.949889,37.4322823 215.036995,37.9775667 C214.087476,38.5593013 213.112531,39.045501 212.110042,39.4382233 C211.107554,39.8306516 210.132609,40.1381274 209.183393,40.3597686 C208.233874,40.5814097 207.328546,40.7433783 206.467714,40.8459682 C205.605973,40.9482641 204.823233,41 204.121006,41 L196,41 L196,41 Z" id="Fill-10" fill="#FFFFFE"></path>
            </g>
        </g>
    </g>
</svg>