<?xml version="1.0" encoding="UTF-8"?>
<svg width="169px" height="66px" viewBox="0 0 169 66" version="1.1" xmlns="http://www.w3.org/2000/svg" xmlns:xlink="http://www.w3.org/1999/xlink">
    <!-- Generator: Sketch 62 (91390) - https://sketch.com/ -->
    <title>karl-lagerfeld-logo</title>
    <desc>Created with Sketch.</desc>
    <g id="2.-Fashion" stroke="none" stroke-width="1" fill="none" fill-rule="evenodd">
        <g id="Karl-Lagerfeld" transform="translate(-272.000000, -157.000000)" fill="#FFFFFF">
            <g id="karl-lagerfeld-logo" transform="translate(272.000000, 157.000000)">
                <polyline id="Fill-1" points="134.2198 59.6744 141.3372 59.6744 141.3372 56.7476 134.2198 56.7476 134.2198 54.203 142.0134 54.203 142.0134 51.173 130.4348 51.173 130.4348 65.6938 142.2154 65.6938 142.2154 62.4418 134.2198 62.4418 134.2198 59.6744"></polyline>
                <polyline id="Fill-2" points="118.8404 65.6938 122.63 65.6938 122.63 60.1 128.606 60.1 128.606 57.1732 122.63 57.1732 122.63 54.203 129.544 54.203 129.544 51.173 118.8404 51.173 118.8404 65.6938"></polyline>
                <polyline id="Fill-3" points="96.237 59.6744 103.354 59.6744 103.354 56.7476 96.237 56.7476 96.237 54.203 104.0296 54.203 104.0296 51.173 92.4552 51.173 92.4552 65.6938 104.233 65.6938 104.233 62.4418 96.237 62.4418 96.237 59.6744"></polyline>
                <path d="M84.5154,60.2668 L87.6718,60.2668 L87.6718,61.9682 C86.9408,62.4574 85.9946,62.716 84.9346,62.716 C82.5628,62.716 80.8438,60.9104 80.8438,58.378 C80.8438,56.0556 82.5786,54.1636 84.712,54.1636 C86.3082,54.1636 87.2354,54.6762 88.2926,55.559 L88.4636,55.6982 L90.7098,52.9862 L90.547,52.8474 C88.8694,51.4234 87.211,50.8436 84.8134,50.8436 C80.5072,50.8436 77.1338,54.1712 77.1338,58.461 C77.1338,62.8304 80.3724,66 84.8354,66 C87.1552,66 89.2466,65.2246 91.06,63.6894 L91.1318,63.626 L91.1318,57.125 L84.5154,57.125 L84.5154,60.2668" id="Fill-5"></path>
                <path d="M33.4444,51.1732 C36.1528,51.1732 38.6954,52.4138 38.6954,55.849 C38.6954,58.1874 37.8242,59.5948 36.3454,60.2944 L36.3454,60.2944 L40.1764,65.694 L35.695,65.694 L32.262,60.8552 L30.3334,60.8552 L30.3334,65.694 L26.5502,65.694 L26.5502,51.1732 Z M32.8746,54.203 L30.3334,54.203 L30.3334,57.9242 L32.8746,57.9242 C34.0568,57.9242 34.9122,57.4358 34.9122,56.1154 C34.9122,54.7516 34.0376,54.203 32.8746,54.203 L32.8746,54.203 Z" id="Combined-Shape"></path>
                <polyline id="Fill-9" points="0.183 51.173 0.183 65.6938 4.1012 65.6938 4.0814 57.9204 4.0814 51.173 0.183 51.173"></polyline>
                <path d="M14.0852,51.173 L8.6794,57.9204 L12.6518,63.5352 L17.2742,51.173 L21.1208,51.173 L26.55,65.6938 L22.6052,65.6938 L21.7092,63.0894 L16.6436,63.0894 L15.7292,65.6938 L9.6974,65.6938 L4.0814,57.9204 L9.3018,51.173 L14.0852,51.173 Z M19.2066,55.201 L19.167,55.201 L17.5184,60.2864 L20.8146,60.2864 L19.2066,55.201 Z" id="Combined-Shape"></path>
                <path d="M112.4468,51.1732 C115.155,51.173 117.6994,52.4136 117.6994,55.849 C117.6994,58.3186 116.7334,59.7534 115.0992,60.41 L118.8404,65.694 L114.3632,65.694 L110.932,60.8552 L109.3416,60.8552 L109.3416,65.694 L105.5562,65.694 L105.5562,51.1732 L112.4468,51.1732 Z M111.882,54.203 L109.3418,54.203 L109.3418,57.9242 L111.882,57.9242 C113.0638,57.9242 113.9186,57.4358 113.9184,56.1154 C113.9184,54.7516 113.0398,54.203 111.882,54.203 L111.882,54.203 Z" id="Combined-Shape"></path>
                <path d="M161.385,51.173 C165.8378,51.173 168.4978,53.877 168.4978,58.3736 C168.4978,63.1334 165.7986,65.6938 161.385,65.6938 L161.385,65.6938 L155.1384,65.6938 L155.1384,51.173 Z M160.7124,54.4256 L158.9238,54.4256 L158.9238,62.4418 L160.7124,62.4418 C163.5792,62.3782 164.7168,61.261 164.7168,58.3542 C164.7168,55.7058 163.2928,54.4256 160.7124,54.4256 L160.7124,54.4256 Z" id="Combined-Shape"></path>
                <path d="M58.6272,51.173 L58.6272,62.4418 L64.7004,62.4418 L68.913,51.173 L72.7582,51.173 L78.1874,65.6938 L74.2432,65.6938 L73.3484,63.0936 L68.281,63.0936 L67.367,65.6938 L54.844,65.6938 L54.844,51.173 L58.6272,51.173 Z M70.8454,55.201 L70.8042,55.201 L69.1556,60.2864 L72.452,60.2864 L70.8454,55.201 Z" id="Combined-Shape"></path>
                <polyline id="Fill-18" points="43.9596 51.173 43.9596 62.4418 50.7328 62.4418 50.7328 65.6938 40.1764 65.6938 40.1764 51.173 43.9596 51.173"></polyline>
                <g id="Group-22">
                    <polyline id="Fill-19" points="147.3174 51.173 143.532 51.173 143.532 65.6938 154.0926 65.6938 154.0926 62.4418 147.3176 62.4418 147.3176 51.173 147.3174 51.173"></polyline>
                    <path d="M144.204,0.067 L131.7392,0.067 L131.7392,47.905 L166.5176,47.905 L166.5176,37.1896 L144.204,37.1896 L144.204,0.067 Z M27.7466,42.9306 L27.7154,42.863 C27.0574,41.6944 25.8764,40.7242 25.6278,39.444 L25.6242,39.4124 L25.616,39.3642 L25.6136,39.3486 L25.6042,39.2848 C25.5324,38.7324 25.6758,38.0204 25.739,37.4634 C25.8184,36.784 25.719,36.891 26.4032,36.9114 L26.437,36.9114 L26.4432,36.9148 L26.6832,36.9148 L26.689,36.9192 L26.7588,36.9192 L26.7648,36.9228 L26.8404,36.9228 C27.9912,36.9512 28.1718,37.8534 28.2294,38.8238 C28.3174,40.3188 28.4504,41.5708 27.7466,42.9306 Z M56.299,0.067 L41.0726,40.7918 L27.9858,22.2952 L45.796,0.0688 L30.0306,0.0688 L13.338,21.6488 C14.2484,21.5974 15.2382,21.5934 16.2524,21.6372 C19.8308,21.7902 23.9994,22.4918 25.902,26.536 C25.902,26.536 27.5422,31.0348 25.8204,34.5574 C31.8876,36.5572 32.896,42.8394 31.3432,47.9052 L51.2054,47.9052 L54.2238,39.3246 L70.9072,39.3246 L73.8592,47.9052 L86.8572,47.9052 L68.9668,0.067 L56.299,0.067 Z M57.104,30.0862 L62.5322,13.3372 L62.6672,13.3372 L67.9606,30.0862 L57.104,30.0862 Z M126.8566,15.4738 C126.8566,4.1522 118.4866,0.0688 109.5646,0.0688 L86.8572,0.0688 L86.8572,47.905 L99.318,47.905 L99.318,31.9612 L105.6724,31.9612 L116.9762,47.905 L131.739,47.905 L119.1228,30.118 C123.9972,27.804 126.8566,23.1698 126.8566,15.4738 Z M7.8188,30.088 C9.2782,30.6646 9.608,30.7284 10.133,32.2694 C11.612,32.3848 13.093,32.4996 14.5744,32.615 C15.773,32.6886 16.433,32.7878 17.2406,33.001 C18.29,33.2808 18.5626,33.3386 19.3498,33.945 C19.7496,34.2492 19.6202,34.4738 19.107,34.2118 C16.6162,32.943 12.7594,33.4304 10.0196,33.4206 C9.6598,34.1974 9.3632,34.9376 8.6618,34.758 C7.8724,34.5596 7.3936,33.6276 7.0294,32.9234 L7.0196,32.9054 L7.0118,32.8938 L7.01,32.892 L7.01,32.89 L7.0078,32.886 L7.0058,32.8842 L7.004,32.876 L7.002,32.8738 L7,32.872 L6.998,32.866 L6.996,32.862 L6.9942,32.8576 L6.9906,32.852 L6.9906,32.85 L6.9866,32.8464 L6.9848,32.8402 L6.9848,32.8382 L6.9806,32.8346 L6.979,32.8302 L6.9768,32.8286 L6.9768,32.8244 L6.975,32.8244 L6.975,32.8226 C6.589,33.516 5.5196,34.8424 5.5196,34.8424 C4.679,36.0728 6.9274,36.7174 6.9274,36.7174 C5.86,39.4448 6.6112,38.9994 6.8598,39.3574 C6.8818,39.3972 6.9176,39.5126 6.85,39.5558 C5.8878,40.208 7.1998,40.5264 7.1104,41.1388 C6.367,42.562 7.2994,43.469 7.661,43.8186 C8.152,44.3036 11.289,43.9218 12.17,43.9738 C12.4286,43.9858 12.7026,44.0328 12.836,44.2084 C12.8794,44.268 12.8956,46.4904 12.8992,47.461 L12.8992,47.5718 L12.9012,47.6196 L12.9012,47.906 L0,47.906 L0,0.0688 L12.8388,0.0688 L12.8368,21.6828 C10.9086,21.8356 9.4114,22.2196 8.9322,22.8478 C7.9284,24.1158 9.3436,24.4782 9.1388,25.0368 C8.7314,25.796 8.137,29.2054 7.8188,30.088 Z M107.692,22.309 L99.318,22.309 L99.318,10.0508 L107.692,10.0508 C111.5126,10.0508 114.3994,11.8598 114.3994,16.3486 C114.3994,20.6988 111.5804,22.309 107.692,22.309 L107.692,22.309 Z" id="Fill-21"></path>
                </g>
            </g>
        </g>
    </g>
</svg>