<?xml version="1.0" encoding="UTF-8"?>
<svg width="324px" height="49px" viewBox="0 0 324 49" version="1.1" xmlns="http://www.w3.org/2000/svg" xmlns:xlink="http://www.w3.org/1999/xlink">
    <!-- Generator: Sketch 63.1 (92452) - https://sketch.com/ -->
    <title>poundland-seeklogo.com</title>
    <desc>Created with Sketch.</desc>
    <defs>
        <polygon id="path-1" points="368.875786 109.983589 0.240701527 109.983589 0.240701527 0.272820511 368.875786 0.272820511"></polygon>
        <polygon id="path-3" points="0.244788911 109.983589 368.879874 109.983589 368.879874 0.272820511 0.244788911 0.272820511"></polygon>
    </defs>
    <g id="7-.-Retail" stroke="none" stroke-width="1" fill="none" fill-rule="evenodd">
        <g id="Poundland" transform="translate(-270.000000, -146.000000)">
            <g id="poundland-seeklogo.com" transform="translate(246.000000, 120.000000)">
                <g id="g8964" transform="translate(184.500000, 55.000000) scale(-1, 1) rotate(-180.000000) translate(-184.500000, -55.000000) translate(0.000000, 0.000000)">
                    <g id="g8966-Clipped" transform="translate(-0.000000, 0.000000)">
                        <mask id="mask-2" fill="white">
                            <use xlink:href="#path-1"></use>
                        </mask>
                        <g id="path8970"></g>
                        <g id="g8966" mask="url(#mask-2)">
                            <g transform="translate(-0.000000, 0.000000)" id="g8972">
                                <g transform="translate(-0.000000, 0.000000)">
                                    <g id="g8974-Clipped" transform="translate(-0.000000, 0.000000)">
                                        <mask id="mask-4" fill="white">
                                            <use xlink:href="#path-3"></use>
                                        </mask>
                                        <g id="path8978"></g>
                                        <g id="g8974" mask="url(#mask-4)" fill-rule="nonzero">
                                            <g transform="translate(24.354000, 35.185185)">
                                                <path d="M35.4644193,20.8660965 C35.4644193,15.4445581 38.0456026,12.4045581 41.981754,12.4045581 C45.9015558,12.4045581 48.4847829,15.4445581 48.4847829,20.8660965 C48.4847829,26.2896862 45.9485607,29.2784041 41.981754,29.2784041 C38.0456026,29.2784041 35.4644193,26.2322503 35.4644193,20.8660965 M55.6070505,20.8660965 C55.6070505,13.1614811 49.8336198,7.33584016 41.981754,7.33584016 C34.1217134,7.33584016 28.346239,13.1614811 28.346239,20.8660965 C28.346239,28.564558 34.1217134,34.3409682 41.981754,34.3409682 C49.7825275,34.3409682 55.6070505,28.564558 55.6070505,20.8660965" id="path8984" fill="#FFFFFF"></path>
                                                <path d="M63.1196634,33.430199 C64.364272,33.430199 65.7110652,33.5327631 67.053771,33.7276348 C66.7002123,31.0937887 66.5019741,27.3071221 66.5019741,22.2343016 C66.5019741,16.2548145 67.1947858,13.0650709 71.0267089,13.0650709 C74.3109224,13.0650709 75.8498227,16.098917 75.8498227,22.1809683 C75.8498227,25.7337888 75.7476381,29.5819939 75.4472153,33.7276348 C76.8859747,33.4773784 78.132627,33.3748143 79.1830848,33.3748143 C80.2744165,33.3748143 81.512894,33.5327631 82.8637746,33.7276348 C82.7166288,31.2989169 82.655318,29.6332759 82.655318,28.7184041 L82.655318,14.1809683 C82.655318,12.2096863 82.9148669,9.97378886 83.4584891,7.94712221 C82.2629291,8.15635298 81.2267771,8.30404528 80.1763193,8.30404528 C79.1830848,8.30404528 78.0897094,8.15635298 76.9513728,7.94712221 C76.5467218,9.21481451 76.3934448,10.7368658 76.3934448,12.5584042 C75.0016904,9.32148117 71.8687101,7.33584016 68.196195,7.33584016 C62.0732929,7.33584016 59.8395373,11.3009683 59.8395373,19.0404555 C59.8395373,22.033276 59.8906296,24.3676349 59.8906296,25.8794298 C59.8906296,28.2137887 59.8395373,30.8455836 59.688304,33.7276348 C61.1801994,33.5327631 62.3124049,33.430199 63.1196634,33.430199" id="path8986" fill="#FFFFFF"></path>
                                                <path d="M108.49372,8.25276323 C107.545446,8.25276323 106.29675,8.15635298 104.800768,7.94712221 C105.058273,10.8866094 105.158414,14.7860965 105.158414,19.5512247 L105.158414,21.0691734 C105.158414,26.0907118 103.715567,28.564558 101.181389,28.564558 C99.3400219,28.564558 97.6519321,27.4076349 95.8596139,24.9707118 C95.8105653,23.1491734 95.8105653,21.3727631 95.8105653,19.6517375 C95.8105653,15.5553273 95.9107062,11.6989171 96.1600367,7.94712221 C94.6660976,8.15635298 93.3765278,8.25276323 92.2770213,8.25276323 C91.4881561,8.25276323 90.3355137,8.15635298 88.7945697,7.94712221 C89.0459438,12.7163529 89.1419974,17.5778914 89.1419974,22.4927631 C89.1419974,25.6804554 89.0949924,29.4322503 88.7945697,33.7276348 C90.1985863,33.5327631 91.3328355,33.430199 92.2238853,33.430199 C93.129241,33.430199 94.2226164,33.5327631 95.6061961,33.7276348 L95.5142299,29.2784041 C97.9441801,32.7204554 100.482446,34.3409682 103.870888,34.3409682 C109.777158,34.3409682 111.816763,30.6445579 111.816763,23.350199 L111.816763,18.1255837 C111.816763,14.7409683 111.816763,11.3378914 112.172366,7.94712221 C110.674339,8.15635298 109.427687,8.25276323 108.49372,8.25276323" id="path8988" fill="#FFFFFF"></path>
                                                <path d="M130.553334,29.2291733 C126.970742,29.2291733 124.344597,26.1932759 124.344597,20.6671221 C124.344597,15.4035324 126.837902,12.4045581 130.359184,12.4045581 C134.340296,12.4045581 136.469823,15.9594298 136.469823,22.9399426 C136.469823,23.9594298 136.426906,25.0219939 136.322678,26.1932759 C134.785821,28.2137887 132.746216,29.2291733 130.553334,29.2291733 M139.606891,43.3625066 C140.551077,43.3625066 141.795686,43.4650707 143.279406,43.664045 C142.997377,38.9501989 142.944241,35.2517374 142.944241,32.521481 L142.944241,29.4322503 L142.944241,24.5112247 C142.944241,16.8086606 142.997377,11.3009683 143.835291,7.94712221 C142.441492,8.15635298 141.299068,8.30404528 140.305834,8.30404528 C139.666158,8.30404528 138.666793,8.15635298 137.324087,7.94712221 C136.970528,9.41789143 136.825426,10.8866094 136.825426,12.3553273 C134.941142,9.0671222 132.204638,7.39532734 128.620001,7.39532734 C122.100623,7.39532734 117.185543,12.4599427 117.185543,20.4660965 C117.185543,28.9789169 122.057705,34.29584 128.916337,34.29584 C131.853123,34.29584 134.340296,33.3748143 136.273629,31.5573785 C136.273629,32.3122502 136.322678,33.1184041 136.322678,33.9307118 C136.322678,37.0301989 136.175532,40.2712245 135.928245,43.664045 C137.42014,43.4650707 138.605482,43.3625066 139.606891,43.3625066" id="path8990" fill="#FFFFFF"></path>
                                                <path d="M154.139587,43.2045579 C155.384196,43.2045579 156.624717,43.3625066 158.014428,43.6189168 C157.667,36.6260964 157.667,30.6978913 157.667,25.7830195 L157.667,22.8025067 C157.667,18.5953273 157.720136,13.618917 158.014428,7.94712221 C156.68194,8.20353246 155.423026,8.30404528 154.139587,8.30404528 C152.950158,8.30404528 151.707593,8.20353246 150.405761,7.94712221 C150.72049,13.618917 150.75932,18.5953273 150.75932,22.8025067 L150.75932,25.7830195 C150.75932,30.6978913 150.75932,36.6260964 150.405761,43.6189168 C151.707593,43.3625066 152.999207,43.2045579 154.139587,43.2045579" id="path8992" fill="#FFFFFF"></path>
                                                <path d="M173.814213,19.7091734 C171.38835,18.9317375 170.141698,17.7358401 170.141698,15.8014811 C170.141698,13.6743017 171.48236,12.3060965 173.773339,12.3060965 C177.345713,12.3060965 180.039299,15.4035324 180.039299,20.7676349 C180.039299,21.124558 180.039299,21.5840452 179.988207,21.9758401 C177.68701,20.5686606 175.557482,20.2117375 173.814213,19.7091734 M184.212519,8.25276323 C183.370518,8.25276323 182.324147,8.15635298 180.985529,7.94712221 C180.629927,9.21481451 180.431688,10.5235324 180.431688,11.8999427 L180.431688,12.3553273 C178.155015,9.0671222 175.011816,7.33584016 171.339301,7.33584016 C166.407872,7.33584016 163.32394,10.4784042 163.32394,15.0425068 C163.32394,19.5512247 166.009352,21.8835324 171.433311,23.1491734 C175.261147,24.0599426 178.097792,24.470199 179.783838,25.5819939 L179.783838,25.9307118 C179.783838,28.4681477 177.646136,29.990199 173.716116,29.990199 C171.226898,29.990199 168.796948,29.1778913 166.461008,27.6537887 L166.461008,32.6753272 C169.138245,33.830199 171.878836,34.3409682 174.91985,34.3409682 C183.272421,34.3409682 186.501455,31.0466092 186.501455,23.6004554 L186.501455,20.0086606 C186.501455,15.5553273 186.60977,11.5984042 187.551912,7.94712221 C186.156071,8.15635298 185.009559,8.25276323 184.212519,8.25276323" id="path8994" fill="#FFFFFF"></path>
                                                <path d="M212.826255,8.25276323 C211.877982,8.25276323 210.627242,8.15635298 209.135347,7.94712221 C209.386721,10.8866094 209.492993,14.7860965 209.492993,19.5512247 L209.492993,21.0691734 C209.492993,26.0907118 208.046059,28.564558 205.513924,28.564558 C203.674601,28.564558 201.972205,27.4076349 200.190106,24.9707118 C200.141057,23.1491734 200.141057,21.3727631 200.141057,19.6517375 C200.141057,15.5553273 200.233023,11.6989171 200.492572,7.94712221 C198.996589,8.15635298 197.707019,8.25276323 196.609557,8.25276323 C195.81456,8.25276323 194.67418,8.15635298 193.125061,7.94712221 C193.374392,12.7163529 193.474533,17.5778914 193.474533,22.4927631 C193.474533,25.6804554 193.427528,29.4322503 193.125061,33.7276348 C194.520903,33.5327631 195.667414,33.430199 196.568683,33.430199 C197.451558,33.430199 198.551064,33.5327631 199.942819,33.7276348 L199.842678,29.2784041 C202.282846,32.7204554 204.814981,34.3409682 208.205467,34.3409682 C214.115825,34.3409682 216.151342,30.6445579 216.151342,23.350199 L216.151342,18.1255837 C216.151342,14.7409683 216.151342,11.3378914 216.494683,7.94712221 C214.9987,8.15635298 213.76431,8.25276323 212.826255,8.25276323" id="path8996" fill="#FFFFFF"></path>
                                                <path d="M234.892001,29.2291733 C231.307364,29.2291733 228.675089,26.1932759 228.675089,20.6671221 C228.675089,15.4035324 231.160219,12.4045581 234.695806,12.4045581 C238.674875,12.4045581 240.804402,15.9594298 240.804402,22.9399426 C240.804402,23.9594298 240.759441,25.0219939 240.663388,26.1932759 C239.112225,28.2137887 237.076708,29.2291733 234.892001,29.2291733 M243.94147,43.3625066 C244.8877,43.3625066 246.128221,43.4650707 247.62216,43.664045 C247.323781,38.9501989 247.27882,35.2517374 247.27882,32.521481 L247.27882,29.4322503 L247.27882,24.5112247 C247.27882,16.8086606 247.323781,11.3009683 248.165782,7.94712221 C246.767897,8.15635298 245.625473,8.30404528 244.640413,8.30404528 C243.992562,8.30404528 243.003415,8.15635298 241.654578,7.94712221 C241.307151,9.41789143 241.153874,10.8866094 241.153874,12.3553273 C239.265502,9.0671222 236.533086,7.39532734 232.944362,7.39532734 C226.439289,7.39532734 221.509904,12.4599427 221.509904,20.4660965 C221.509904,28.9789169 226.388197,34.29584 233.248872,34.29584 C236.179527,34.29584 238.674875,33.3748143 240.610252,31.5573785 C240.610252,32.3122502 240.663388,33.1184041 240.663388,33.9307118 C240.663388,37.0301989 240.516242,40.2712245 240.26078,43.664045 C241.754719,43.4650707 242.944148,43.3625066 243.94147,43.3625066" id="path8998" fill="#FFFFFF"></path>
                                                <path d="M13.0124157,24.004558 C10.8093154,24.004558 8.77992899,25.0137888 7.238985,27.044558 C7.13884408,28.201481 7.08979546,28.3184041 7.08979546,29.3255836 L7.08162069,34.0107118 C7.08162069,34.9255836 7.12658192,36.8312246 7.17767423,37.8363528 C8.81262807,40.172763 10.4680188,40.7676348 12.8877505,40.7676348 C16.7176299,40.7676348 19.2129781,37.2066092 19.2129781,31.6845579 L19.2211529,31.6107118 C19.2211529,26.0907118 16.5888772,24.004558 13.0124157,24.004558 M26.3822507,32.1317374 C26.3822507,40.1419938 21.5060009,45.4076348 14.8905689,45.4076348 C11.8597733,45.4076348 10.3719653,44.9850707 7.03870316,43.6845579 C5.99028901,43.3276348 4.45956348,43.3707117 3.76062072,43.3707117 C2.71425026,43.3707117 1.47372904,43.4732758 0.0758435124,43.6845579 C0.372178895,38.9091733 0.419183818,35.4794297 0.419183818,30.7655836 L0.419183818,27.2271221 L0.419183818,21.1430196 C0.419183818,17.3460965 0.370135203,12.9891735 0.0717561278,7.96968631 C1.5636515,8.17481451 2.75103672,8.28148118 3.74631487,8.28148118 C4.69663179,8.28148118 6.18852716,8.14814785 7.690641,7.94712221 L7.64159238,8.60968631 C7.38613085,12.0045581 7.238985,15.2517375 7.238985,18.3409683 C7.238985,19.1471221 7.27985885,20.913276 7.27985885,21.670199 C9.2274976,19.8527632 11.7167148,18.9317375 14.6412385,18.9317375 C21.5060009,18.9317375 26.3822507,23.298917 26.3822507,31.8096861 L26.3822507,32.1317374" id="path9000" fill="#FFFFFF"></path>
                                                <path d="M287.564082,0.2055838 C289.331876,0.2055838 291.12215,1.30507097 291.53702,2.65481455 C291.964152,4.00045557 290.866689,5.10199402 289.098895,5.10199402 C287.318839,5.10199402 285.534696,4.00045557 285.115739,2.65481455 C284.698826,1.30507097 285.78607,0.2055838 287.564082,0.2055838" id="path9002" fill="#FAB20B"></path>
                                                <path d="M300.909393,14.0784042 C300.909393,14.0784042 298.387477,8.07019913 291.722996,6.81276324 C291.722996,6.81276324 294.347097,13.0896863 300.909393,14.0784042" id="path9004" fill="#FAB20B"></path>
                                                <path d="M307.465558,19.713276 C307.465558,19.713276 308.189025,14.193276 302.082472,9.95327604 C302.082472,9.95327604 301.299738,15.7071222 307.465558,19.713276" id="path9006" fill="#FAB20B"></path>
                                                <path d="M311.070631,27.0035323 C311.070631,27.0035323 314.841243,23.4691734 310.925529,17.3809683 C310.925529,17.3809683 306.981203,21.0650708 311.070631,27.0035323" id="path9008" fill="#FAB20B"></path>
                                                <path d="M310.74364,33.9819938 C310.74364,33.9819938 316.555901,33.3748143 315.883526,27.1019939 C315.883526,27.1019939 309.821935,27.7173785 310.74364,33.9819938" id="path9010" fill="#FAB20B"></path>
                                                <path d="M306.580639,38.7491733 C306.580639,38.7491733 312.846599,41.2476348 315.621934,36.4784041 C315.621934,36.4784041 309.086206,33.8548143 306.580639,38.7491733" id="path9012" fill="#FAB20B"></path>
                                                <path d="M315.762948,48.6158399 C315.762948,48.6158399 320.181411,45.758404 317.023907,39.4630194 C317.023907,39.4630194 312.417424,42.4250707 315.762948,48.6158399" id="path9014" fill="#FAB20B"></path>
                                                <path d="M306.466192,48.1501989 C306.466192,48.1501989 312.462385,48.0907117 312.399031,41.9409681 C312.399031,41.9409681 306.131027,41.9963527 306.466192,48.1501989" id="path9016" fill="#FAB20B"></path>
                                                <path d="M303.686771,4.46199403 C303.686771,4.46199403 297.588393,1.21891713 293.987407,5.34609658 C293.987407,5.34609658 300.347377,8.74507092 303.686771,4.46199403" id="path9018" fill="#FAB20B"></path>
                                                <path d="M312.117001,10.4968658 C312.117001,10.4968658 306.964853,5.69686581 301.636947,7.89173759 C301.636947,7.89173759 307.011858,12.9091735 312.117001,10.4968658" id="path9020" fill="#FAB20B"></path>
                                                <path d="M318.67521,18.4291734 C318.67521,18.4291734 315.076268,12.6609683 308.689729,12.6527632 C308.689729,12.6527632 312.429686,18.673276 318.67521,18.4291734" id="path9022" fill="#FAB20B"></path>
                                                <path d="M322.5664,27.2722503 C322.5664,27.2722503 320.970276,21.2455837 314.281271,19.0281478 C314.281271,19.0281478 315.926444,25.3276349 322.5664,27.2722503" id="path9024" fill="#FAB20B"></path>
                                                <path d="M323.310304,35.9840451 C323.310304,35.9840451 323.896844,30.4086605 317.737155,26.2630195 C317.737155,26.2630195 317.093392,32.0763528 323.310304,35.9840451" id="path9026" fill="#FAB20B"></path>
                                                <path d="M320.810868,43.4732758 C320.810868,43.4732758 323.531023,39.0466092 318.632292,33.4712246 C318.632292,33.4712246 315.785429,38.0845579 320.810868,43.4732758" id="path9028" fill="#FAB20B"></path>
                                                <path d="M283.010736,14.0784042 C283.010736,14.0784042 281.782477,8.07019913 287.654005,6.81276324 C287.654005,6.81276324 288.953793,13.0896863 283.010736,14.0784042" id="path9030" fill="#FAB20B"></path>
                                                <path d="M279.981984,19.713276 C279.981984,19.713276 275.798546,14.193276 279.270779,9.95327604 C279.270779,9.95327604 283.642237,15.7071222 279.981984,19.713276" id="path9032" fill="#FAB20B"></path>
                                                <path d="M280.936388,27.0035323 C280.936388,27.0035323 274.952457,23.4691734 275.062816,17.3809683 C275.062816,17.3809683 281.318558,21.0650708 280.936388,27.0035323" id="path9034" fill="#FAB20B"></path>
                                                <path d="M285.612356,33.9819938 C285.612356,33.9819938 279.442449,33.3748143 276.174585,27.1019939 C276.174585,27.1019939 282.624478,27.7173785 285.612356,33.9819938" id="path9036" fill="#FAB20B"></path>
                                                <path d="M292.761192,38.7491733 C292.761192,38.7491733 288.072962,41.2476348 282.299531,36.4784041 C282.299531,36.4784041 287.198261,33.8548143 292.761192,38.7491733" id="path9038" fill="#FAB20B"></path>
                                                <path d="M289.734483,48.6158399 C289.734483,48.6158399 283.538008,45.758404 282.755274,39.4630194 C282.755274,39.4630194 289.221517,42.4250707 289.734483,48.6158399" id="path9040" fill="#FAB20B"></path>
                                                <path d="M298.753297,48.1501989 C298.753297,48.1501989 292.712143,48.0907117 288.953793,41.9409681 C288.953793,41.9409681 295.252453,41.9963527 298.753297,48.1501989" id="path9042" fill="#FAB20B"></path>
                                                <path d="M274.233077,4.46199403 C274.233077,4.46199403 278.300025,1.21891713 284.474019,5.34609658 C284.474019,5.34609658 280.241533,8.74507092 274.233077,4.46199403" id="path9044" fill="#FAB20B"></path>
                                                <path d="M269.57959,10.4968658 C269.57959,10.4968658 271.727511,5.69686581 278.418559,7.89173759 C278.418559,7.89173759 276.176629,12.9091735 269.57959,10.4968658" id="path9046" fill="#FAB20B"></path>
                                                <path d="M267.96916,18.4291734 C267.96916,18.4291734 267.960986,12.6609683 274.345481,12.6527632 C274.345481,12.6527632 274.365917,18.673276 267.96916,18.4291734" id="path9048" fill="#FAB20B"></path>
                                                <path d="M269.610245,27.2722503 C269.610245,27.2722503 267.435757,21.2455837 272.741182,19.0281478 C272.741182,19.0281478 275.028074,25.3276349 269.610245,27.2722503" id="path9050" fill="#FAB20B"></path>
                                                <path d="M274.304607,35.9840451 C274.304607,35.9840451 270.231528,30.4086605 273.805946,26.2630195 C273.805946,26.2630195 278.08135,32.0763528 274.304607,35.9840451" id="path9052" fill="#FAB20B"></path>
                                                <path d="M281.477966,43.4732758 C281.477966,43.4732758 275.99474,39.0466092 277.413063,33.4712246 C277.413063,33.4712246 283.147663,38.0845579 281.477966,43.4732758" id="path9054" fill="#FAB20B"></path>
                                                <path d="M259.307992,39.8117374 L259.931319,39.8117374 C260.654786,39.8117374 261.010388,40.0291733 261.010388,40.5481476 C261.010388,41.0937886 260.62413,41.321481 259.876139,41.321481 L259.307992,41.321481 L259.307992,39.8117374 Z M260.088683,42.1194297 C261.568316,42.1194297 262.310176,41.6189168 262.310176,40.6322502 C262.310176,39.9409681 261.87487,39.4260963 261.173884,39.2455835 L262.330613,36.9235323 L260.926597,36.9235323 L259.931319,39.0486605 L259.307992,39.0486605 L259.307992,36.9235323 L258.055209,36.9235323 L258.055209,42.1194297 L260.088683,42.1194297 L260.088683,42.1194297 Z M257.288824,42.2404553 C256.526527,41.4814809 256.101439,40.4701989 256.101439,39.4445579 C256.101439,38.4045579 256.489741,37.4445579 257.22547,36.7040451 C257.975505,35.932763 258.954434,35.5163528 259.982411,35.5163528 C261.010388,35.5163528 261.987273,35.9245579 262.761832,36.6568656 C263.487343,37.372763 263.896082,38.3532758 263.896082,39.3645579 C263.896082,40.4886604 263.528217,41.4322502 262.792488,42.1748143 C262.032234,42.9543015 261.07783,43.3543014 259.99876,43.3543014 C258.946259,43.3543014 258.028641,42.9768656 257.288824,42.2404553 M263.344285,42.7122502 C264.212854,41.838404 264.672685,40.6773784 264.672685,39.4260963 C264.672685,38.1358399 264.186286,36.9686605 263.293192,36.1091733 C262.377618,35.2086605 261.196364,34.7389169 259.982411,34.7389169 C258.74189,34.7389169 257.56881,35.2455836 256.665498,36.1604553 C255.796929,37.0466092 255.328924,38.2158399 255.328924,39.4260963 C255.328924,40.267122 255.557817,41.081481 256.015604,41.867122 C256.8433,43.2804553 258.300452,44.1255835 259.982411,44.1255835 C261.271981,44.1255835 262.443016,43.6332758 263.344285,42.7122502" id="path9056" fill="#FFFFFF"></path>
                                            </g>
                                        </g>
                                    </g>
                                </g>
                            </g>
                        </g>
                    </g>
                </g>
            </g>
        </g>
    </g>
</svg>