<?xml version="1.0" encoding="UTF-8"?>
<svg width="40px" height="40px" viewBox="0 0 40 40" version="1.1" xmlns="http://www.w3.org/2000/svg" xmlns:xlink="http://www.w3.org/1999/xlink">
    <!-- Generator: Sketch 53.2 (72643) - https://sketchapp.com -->
    <title>Group 9 Copy 3</title>
    <desc>Created with Sketch.</desc>
    <g id="Design-Round-5" stroke="none" stroke-width="1" fill="none" fill-rule="evenodd">
        <g id="4.About-Copy" transform="translate(-1094.000000, -1723.000000)">
            <g id="Group-24" transform="translate(720.000000, 1203.000000)">
                <g id="Group-12">
                    <g id="Group-9-Copy-3" transform="translate(374.000000, 520.000000)">
                        <circle id="Oval-2" fill="#EF6565" cx="20" cy="20" r="20"></circle>
                        <g id="Icon-/-Add---Light" transform="translate(8.333333, 8.333333)">
                            <g id="Group" transform="translate(11.500000, 11.500000) scale(-1, 1) translate(-11.500000, -11.500000) ">
                                <polygon id="Shape" points="0 0 23 0 23 23 0 23"></polygon>
                                <g id="Group-8" transform="translate(3.833333, 10.541667)" fill="#FFFFFF">
                                    <rect id="Rectangle-10" x="0" y="0" width="15.3333333" height="1.91666667" rx="0.958333333"></rect>
                                    <path d="M5.32907052e-15,0.958333333 C5.32907052e-15,0.429060448 0.426104575,-8.8817842e-16 0.959168673,-8.8817842e-16 L14.3741647,-8.8817842e-16 C14.9038989,-8.8817842e-16 15.3333333,0.425370455 15.3333333,0.958333333 L15.3333333,0.958333333 C15.3333333,1.48760622 14.9072288,1.91666667 14.3741647,1.91666667 L0.959168673,1.91666667 C0.429434442,1.91666667 5.32907052e-15,1.49129621 5.32907052e-15,0.958333333 L5.32907052e-15,0.958333333 Z" id="Rectangle-10-Copy" transform="translate(7.666667, 0.958333) rotate(90.000000) translate(-7.666667, -0.958333) "></path>
                                </g>
                            </g>
                        </g>
                    </g>
                </g>
            </g>
        </g>
    </g>
</svg>