<?xml version="1.0" encoding="UTF-8"?>
<svg width="25px" height="19px" viewBox="0 0 25 19" version="1.1" xmlns="http://www.w3.org/2000/svg" xmlns:xlink="http://www.w3.org/1999/xlink">
    <title>noun_envelope_922415</title>
    <g id="/*-Blog-*/" stroke="none" stroke-width="1" fill="none" fill-rule="evenodd">
        <g id="5.Blog2" transform="translate(-177.000000, -1147.000000)" fill="#000000" fill-rule="nonzero">
            <g id="Group" transform="translate(177.000000, 1147.000000)">
                <path d="M1.11111117,0.102704925 C0.509958389,0.102704925 5.55555744e-08,0.623319104 5.55555744e-08,1.23703328 L5.55555744e-08,17.684803 C5.55555744e-08,18.298503 0.509958389,18.8191313 1.11111117,18.8191313 L23.8888889,18.8191313 C24.4900417,18.8191313 25.0000001,18.298503 25.0000001,17.684803 L25.0000001,1.23703328 C25.0000001,0.623319104 24.4900417,0.102704925 23.8888889,0.102704925 L1.11111117,0.102704925 Z M2.5,1.80419746 L22.5,1.80419746 L12.5,10.0635343 L2.5,1.80419746 Z M1.66666667,3.29300343 L11.9791667,11.8181985 C12.2836216,12.0670102 12.7163784,12.0670102 13.0208333,11.8181985 L23.3333333,3.29300343 L23.3333333,17.1176388 L1.66666667,17.1176388 L1.66666667,3.29300343 Z" id="Shape"></path>
            </g>
        </g>
    </g>
</svg>