<?xml version="1.0" encoding="UTF-8"?>
<svg width="32px" height="32px" viewBox="0 0 32 32" version="1.1" xmlns="http://www.w3.org/2000/svg" xmlns:xlink="http://www.w3.org/1999/xlink">
    <title>Group 4</title>
    <g id="/*-Blog-*/" stroke="none" stroke-width="1" fill="none" fill-rule="evenodd">
        <g id="5.Blog2" transform="translate(-128.000000, -1141.000000)">
            <g id="Group-4" transform="translate(128.000000, 1141.000000)">
                <circle id="Oval" stroke="#242527" stroke-width="2" cx="16" cy="16" r="15"></circle>
                <path d="M23,23 L20.114248,23 L20.114248,18.2538907 C20.114248,17.1224583 20.0947862,15.6672725 18.6135272,15.6672725 C17.1128063,15.6672725 16.8835896,16.9009429 16.8835896,18.1732364 L16.8835896,23 L14,23 L14,13.241963 L16.7657376,13.241963 L16.7657376,14.5755992 L16.8057424,14.5755992 C17.1917347,13.8088152 18.1323883,13 19.5368813,13 C22.4604757,13 23,15.019766 23,17.6484153 L23,23 Z M10.501453,12 C9.67032612,12 9,11.3277365 9,10.4995157 C9,9.67226348 9.67032612,9 10.501453,9 C11.3277365,9 12,9.67226348 12,10.4995157 C12,11.3277365 11.3277365,12 10.501453,12 Z M9,23 L12,23 L12,14 L9,14 L9,23 Z" id="Icon" fill="#000000"></path>
            </g>
        </g>
    </g>
</svg>