<?xml version="1.0" encoding="UTF-8"?>
<svg width="822px" height="196px" viewBox="0 0 822 196" version="1.1" xmlns="http://www.w3.org/2000/svg" xmlns:xlink="http://www.w3.org/1999/xlink">
    <!-- Generator: Sketch 49.3 (51167) - http://www.bohemiancoding.com/sketch -->
    <title>Component / Logo / Dark</title>
    <desc>Created with Sketch.</desc>
    <defs>
        <polygon id="path-1" points="0.0005 195 139.1405 195 139.1405 0.6762 0.0005 0.6762"></polygon>
        <polygon id="path-3" points="191.6758 0.676 0.2558 0.676 0.2558 194.9996 191.6758 194.9996 191.6758 0.676"></polygon>
        <polygon id="path-5" points="39.652 0.4868 39.652 39.4428 0.6953 39.4428 0.6953 0.4868 39.652 0.4868"></polygon>
    </defs>
    <g id="Component-/-Logo-/-Dark" stroke="none" stroke-width="1" fill="none" fill-rule="evenodd">
        <g id="Page-1">
            <g id="Group-3" transform="translate(0.000000, 0.324000)">
                <mask id="mask-2" fill="white">
                    <use xlink:href="#path-1"></use>
                </mask>
                <g id="Clip-2"></g>
                <path d="M42.7715,128.9922 C42.7715,149.0582 54.9175,160.9402 72.3435,160.9402 C86.0725,160.9402 96.6325,152.2262 96.6325,139.2892 C96.6325,124.5032 83.9595,119.4882 67.8535,113.4152 C33.7945,101.0052 5.2795,90.1802 5.2795,52.6872 C5.2795,18.6302 36.4335,0.6762 70.2305,0.6762 C114.0585,0.6762 135.9725,28.1342 135.9725,59.5532 L93.1995,59.5532 C93.1995,43.1852 85.0155,32.8882 70.2305,32.8882 C58.0855,32.8882 47.7895,39.2242 47.7895,51.8972 C47.7895,64.0412 58.6155,70.6442 74.1895,76.1882 C104.5545,86.7492 139.1405,98.8932 139.1405,135.8562 C139.1405,173.8772 110.3615,195.0002 69.7015,195.0002 C30.0975,195.0002 0.0005,171.2372 0.0005,128.9922 L42.7715,128.9922 Z" id="Fill-1" fill="#242527" mask="url(#mask-2)"></path>
            </g>
            <polygon id="Fill-4" fill="#242527" points="328.0781 193.159 286.3611 193.159 286.3611 78.573 246.4941 193.159 214.8101 193.159 173.6211 78.573 173.6211 193.159 131.9061 193.159 131.9061 8.342 181.2791 8.342 230.6521 136.923 279.4961 8.342 328.0781 8.342"></polygon>
            <path d="M398.3164,61.1463 L375.6114,137.1873 L420.4964,137.1873 L398.3164,61.1463 Z M438.1874,193.1593 L431.0584,170.7173 L365.3144,170.7173 L358.1854,193.1593 L312.5094,193.1593 L378.5154,8.3413 L417.8554,8.3413 L484.6544,193.1593 L438.1874,193.1593 Z" id="Fill-6" fill="#242527"></path>
            <g id="Group-10" transform="translate(444.000000, 0.324000)">
                <mask id="mask-4" fill="white">
                    <use xlink:href="#path-3"></use>
                </mask>
                <g id="Clip-9"></g>
                <path d="M191.6758,123.9766 C184.5468,163.3156 150.4878,194.9996 99.5308,194.9996 C37.2228,194.9996 0.2558,149.5856 0.2558,97.5736 C0.2558,47.1456 36.6938,0.6756 97.1558,0.6756 C154.4488,0.6756 186.1328,34.9986 191.4118,77.2426 L146.7908,77.2426 C142.8298,55.5926 126.1968,39.2246 99.7948,39.2246 C63.6248,39.2246 43.8218,67.2116 43.8218,97.5736 C43.8218,130.0486 64.9438,156.4516 101.9058,156.4516 C122.7658,156.4516 141.2478,142.4576 146.2638,123.9766 L191.6758,123.9766 Z" id="Fill-8" fill="#242527" mask="url(#mask-4)"></path>
            </g>
            <polygon id="Fill-11" fill="#242527" points="667.3672 115.0076 667.3672 193.1586 624.5962 193.1586 624.5962 8.3416 667.3672 8.3416 667.3672 86.7586 727.0352 8.3416 778.5212 8.3416 705.3872 100.7496 778.5212 193.1586 727.0352 193.1586"></polygon>
            <g id="Group-15" transform="translate(782.000000, 152.324000)">
                <mask id="mask-6" fill="white">
                    <use xlink:href="#path-5"></use>
                </mask>
                <g id="Clip-14"></g>
                <path d="M39.6523,19.9668 C39.6523,9.2088 30.9313,0.4868 20.1753,0.4868 C9.4183,0.4868 0.6953,9.2088 0.6953,19.9668 C0.6953,30.7228 9.4183,39.4428 20.1753,39.4428 C30.9313,39.4428 39.6523,30.7228 39.6523,19.9668" id="Fill-13" fill="#242527" mask="url(#mask-6)"></path>
            </g>
        </g>
    </g>
</svg>