<?xml version="1.0" encoding="UTF-8"?>
<svg width="213px" height="74px" viewBox="0 0 213 74" version="1.1" xmlns="http://www.w3.org/2000/svg" xmlns:xlink="http://www.w3.org/1999/xlink">
    <!-- Generator: Sketch 49.3 (51167) - http://www.bohemiancoding.com/sketch -->
    <title>Logo</title>
    <desc>Created with Sketch.</desc>
    <defs>
        <polygon id="path-1" points="0.000129562044 50.7397959 36.0546551 50.7397959 36.0546551 0.17595 0.000129562044 0.17595"></polygon>
        <polygon id="path-3" points="49.6678168 0.175897959 0.0662839416 0.175897959 0.0662839416 50.7396918 49.6678168 50.7396918 49.6678168 0.175897959"></polygon>
        <polygon id="path-5" points="10.2747883 0.126667347 10.2747883 10.2631776 0.180168978 10.2631776 0.180168978 0.126667347 10.2747883 0.126667347"></polygon>
    </defs>
    <g id="Symbols" stroke="none" stroke-width="1" fill="none" fill-rule="evenodd">
        <g id="Component-/-Main-Nav-/-Light-/-XL-/-Default" transform="translate(-32.000000, -24.000000)">
            <g id="Logo" transform="translate(32.000000, 24.000000)">
                <path d="M7.704,69 L7.704,68.226 C7.02,68.838 6.102,69.18 5.094,69.18 C4.338,69.18 3.546,68.964 2.97,68.622 C1.692,67.866 0.81,66.462 0.81,64.77 C0.81,63.078 1.71,61.656 2.988,60.9 C3.564,60.558 4.266,60.36 5.058,60.36 C6.012,60.36 6.93,60.648 7.704,61.314 L7.704,60.54 L9.36,60.54 L9.36,69 L7.704,69 Z M7.65,66.354 L7.65,63.186 C7.128,62.502 6.264,61.98 5.238,61.98 C3.6,61.98 2.52,63.294 2.52,64.77 C2.52,66.282 3.69,67.56 5.328,67.56 C6.192,67.56 7.074,67.128 7.65,66.354 Z M23.526,66.246 L24.84,67.2 C24.138,68.37 22.626,69.18 21.078,69.18 C18.468,69.18 16.56,67.272 16.56,64.77 C16.56,62.268 18.432,60.36 20.97,60.36 C22.446,60.36 23.778,61.098 24.57,62.196 L23.31,63.258 C22.842,62.61 22.05,61.98 20.97,61.98 C19.44,61.98 18.27,63.168 18.27,64.77 C18.27,66.426 19.458,67.56 21.078,67.56 C22.194,67.56 22.986,66.966 23.526,66.246 Z M31.68,60.414 L31.482,62.052 C31.284,61.998 31.086,61.98 30.816,61.98 C29.934,61.98 28.998,62.592 28.53,63.402 L28.53,69 L26.82,69 L26.82,60.54 L28.476,60.54 L28.476,61.512 C28.89,60.936 29.772,60.36 31.014,60.36 C31.194,60.36 31.482,60.378 31.68,60.414 Z M41.202,65.13 L34.686,65.13 C34.776,66.552 35.946,67.686 37.422,67.686 C38.682,67.686 39.366,67.074 39.852,66.534 L40.968,67.596 C40.338,68.406 39.132,69.18 37.404,69.18 C34.938,69.18 33.03,67.308 33.03,64.77 C33.03,62.232 34.758,60.36 37.152,60.36 C39.51,60.36 41.22,62.268 41.22,64.77 C41.22,64.842 41.22,64.968 41.202,65.13 Z M37.206,61.854 C36.108,61.854 35.118,62.592 34.83,63.69 L39.438,63.69 C39.186,62.61 38.214,61.854 37.206,61.854 Z M49.734,69 L49.734,68.226 C49.05,68.838 48.132,69.18 47.124,69.18 C46.368,69.18 45.576,68.964 45,68.622 C43.722,67.866 42.84,66.462 42.84,64.77 C42.84,63.078 43.74,61.656 45.018,60.9 C45.594,60.558 46.296,60.36 47.088,60.36 C48.042,60.36 48.96,60.648 49.734,61.314 L49.734,60.54 L51.39,60.54 L51.39,69 L49.734,69 Z M49.68,66.354 L49.68,63.186 C49.158,62.502 48.294,61.98 47.268,61.98 C45.63,61.98 44.55,63.294 44.55,64.77 C44.55,66.282 45.72,67.56 47.358,67.56 C48.222,67.56 49.104,67.128 49.68,66.354 Z M59.328,67.452 L59.67,69 C59.346,69.108 58.824,69.18 58.338,69.18 C57.276,69.18 56.484,68.802 55.944,68.19 C55.44,67.632 55.26,66.858 55.26,65.94 L55.26,62.07 L53.1,62.07 L53.1,60.54 L55.26,60.54 L55.26,58.2 L56.97,58.2 L56.97,60.54 L59.67,60.54 L59.67,62.07 L56.97,62.07 L56.97,66.03 C56.97,66.48 57.006,66.858 57.222,67.11 C57.456,67.398 57.942,67.56 58.392,67.56 C58.644,67.56 59.076,67.524 59.328,67.452 Z M62.01,69 L62.01,60.54 L63.72,60.54 L63.72,69 L62.01,69 Z M61.74,57.534 C61.74,56.904 62.226,56.4 62.856,56.4 C63.486,56.4 63.99,56.904 63.99,57.534 C63.99,58.164 63.486,58.65 62.856,58.65 C62.226,58.65 61.74,58.164 61.74,57.534 Z M69.102,69 L65.43,60.54 L67.194,60.54 L69.696,66.3 L72.198,60.54 L73.962,60.54 L70.29,69 L69.102,69 Z M83.124,65.13 L76.608,65.13 C76.698,66.552 77.868,67.686 79.344,67.686 C80.604,67.686 81.288,67.074 81.774,66.534 L82.89,67.596 C82.26,68.406 81.054,69.18 79.326,69.18 C76.86,69.18 74.952,67.308 74.952,64.77 C74.952,62.232 76.68,60.36 79.074,60.36 C81.432,60.36 83.142,62.268 83.142,64.77 C83.142,64.842 83.142,64.968 83.124,65.13 Z M79.128,61.854 C78.03,61.854 77.04,62.592 76.752,63.69 L81.36,63.69 C81.108,62.61 80.136,61.854 79.128,61.854 Z M96.516,69 L96.516,68.226 C95.832,68.838 94.914,69.18 93.906,69.18 C93.15,69.18 92.358,68.964 91.782,68.622 C90.504,67.866 89.622,66.462 89.622,64.77 C89.622,63.078 90.522,61.656 91.8,60.9 C92.376,60.558 93.078,60.36 93.87,60.36 C94.788,60.36 95.706,60.648 96.462,61.278 L96.462,56.22 L98.172,56.22 L98.172,69 L96.516,69 Z M96.462,66.354 L96.462,63.186 C95.94,62.502 95.076,61.98 94.05,61.98 C92.412,61.98 91.332,63.294 91.332,64.77 C91.332,66.282 92.502,67.56 94.14,67.56 C95.004,67.56 95.886,67.128 96.462,66.354 Z M101.232,69 L101.232,60.54 L102.942,60.54 L102.942,69 L101.232,69 Z M100.962,57.534 C100.962,56.904 101.448,56.4 102.078,56.4 C102.708,56.4 103.212,56.904 103.212,57.534 C103.212,58.164 102.708,58.65 102.078,58.65 C101.448,58.65 100.962,58.164 100.962,57.534 Z M112.122,68.262 C111.438,68.856 110.574,69.18 109.566,69.18 C108.81,69.18 108.018,68.964 107.442,68.622 C106.164,67.866 105.282,66.462 105.282,64.77 C105.282,63.078 106.182,61.656 107.46,60.9 C108.036,60.558 108.738,60.36 109.53,60.36 C110.484,60.36 111.402,60.648 112.176,61.314 L112.176,60.54 L113.832,60.54 L113.832,68.64 C113.832,69.9 113.67,70.746 113.328,71.412 C112.644,72.726 111.348,73.5 109.674,73.5 C107.478,73.5 106.092,72.384 105.552,71.538 L106.812,70.368 C107.424,71.178 108.216,71.88 109.602,71.88 C110.52,71.88 111.24,71.538 111.654,70.908 C111.96,70.44 112.122,69.792 112.122,68.73 L112.122,68.262 Z M112.122,66.354 L112.122,63.186 C111.6,62.502 110.736,61.98 109.71,61.98 C108.072,61.98 106.992,63.294 106.992,64.77 C106.992,66.282 108.162,67.56 109.8,67.56 C110.664,67.56 111.546,67.128 112.122,66.354 Z M116.892,69 L116.892,60.54 L118.602,60.54 L118.602,69 L116.892,69 Z M116.622,57.534 C116.622,56.904 117.108,56.4 117.738,56.4 C118.368,56.4 118.872,56.904 118.872,57.534 C118.872,58.164 118.368,58.65 117.738,58.65 C117.108,58.65 116.622,58.164 116.622,57.534 Z M126.54,67.452 L126.882,69 C126.558,69.108 126.036,69.18 125.55,69.18 C124.488,69.18 123.696,68.802 123.156,68.19 C122.652,67.632 122.472,66.858 122.472,65.94 L122.472,62.07 L120.312,62.07 L120.312,60.54 L122.472,60.54 L122.472,58.2 L124.182,58.2 L124.182,60.54 L126.882,60.54 L126.882,62.07 L124.182,62.07 L124.182,66.03 C124.182,66.48 124.218,66.858 124.434,67.11 C124.668,67.398 125.154,67.56 125.604,67.56 C125.856,67.56 126.288,67.524 126.54,67.452 Z M135.396,69 L135.396,68.226 C134.712,68.838 133.794,69.18 132.786,69.18 C132.03,69.18 131.238,68.964 130.662,68.622 C129.384,67.866 128.502,66.462 128.502,64.77 C128.502,63.078 129.402,61.656 130.68,60.9 C131.256,60.558 131.958,60.36 132.75,60.36 C133.704,60.36 134.622,60.648 135.396,61.314 L135.396,60.54 L137.052,60.54 L137.052,69 L135.396,69 Z M135.342,66.354 L135.342,63.186 C134.82,62.502 133.956,61.98 132.93,61.98 C131.292,61.98 130.212,63.294 130.212,64.77 C130.212,66.282 131.382,67.56 133.02,67.56 C133.884,67.56 134.766,67.128 135.342,66.354 Z M140.112,69 L140.112,56.22 L141.822,56.22 L141.822,69 L140.112,69 Z M155.916,69 L155.916,68.226 C155.232,68.838 154.314,69.18 153.306,69.18 C152.55,69.18 151.758,68.964 151.182,68.622 C149.904,67.866 149.022,66.462 149.022,64.77 C149.022,63.078 149.922,61.656 151.2,60.9 C151.776,60.558 152.478,60.36 153.27,60.36 C154.224,60.36 155.142,60.648 155.916,61.314 L155.916,60.54 L157.572,60.54 L157.572,69 L155.916,69 Z M155.862,66.354 L155.862,63.186 C155.34,62.502 154.476,61.98 153.45,61.98 C151.812,61.98 150.732,63.294 150.732,64.77 C150.732,66.282 151.902,67.56 153.54,67.56 C154.404,67.56 155.286,67.128 155.862,66.354 Z M166.752,68.262 C166.068,68.856 165.204,69.18 164.196,69.18 C163.44,69.18 162.648,68.964 162.072,68.622 C160.794,67.866 159.912,66.462 159.912,64.77 C159.912,63.078 160.812,61.656 162.09,60.9 C162.666,60.558 163.368,60.36 164.16,60.36 C165.114,60.36 166.032,60.648 166.806,61.314 L166.806,60.54 L168.462,60.54 L168.462,68.64 C168.462,69.9 168.3,70.746 167.958,71.412 C167.274,72.726 165.978,73.5 164.304,73.5 C162.108,73.5 160.722,72.384 160.182,71.538 L161.442,70.368 C162.054,71.178 162.846,71.88 164.232,71.88 C165.15,71.88 165.87,71.538 166.284,70.908 C166.59,70.44 166.752,69.792 166.752,68.73 L166.752,68.262 Z M166.752,66.354 L166.752,63.186 C166.23,62.502 165.366,61.98 164.34,61.98 C162.702,61.98 161.622,63.294 161.622,64.77 C161.622,66.282 162.792,67.56 164.43,67.56 C165.294,67.56 166.176,67.128 166.752,66.354 Z M178.974,65.13 L172.458,65.13 C172.548,66.552 173.718,67.686 175.194,67.686 C176.454,67.686 177.138,67.074 177.624,66.534 L178.74,67.596 C178.11,68.406 176.904,69.18 175.176,69.18 C172.71,69.18 170.802,67.308 170.802,64.77 C170.802,62.232 172.53,60.36 174.924,60.36 C177.282,60.36 178.992,62.268 178.992,64.77 C178.992,64.842 178.992,64.968 178.974,65.13 Z M174.978,61.854 C173.88,61.854 172.89,62.592 172.602,63.69 L177.21,63.69 C176.958,62.61 175.986,61.854 174.978,61.854 Z M182.988,60.54 L182.988,61.35 C183.438,60.918 184.302,60.36 185.526,60.36 C186.768,60.36 187.884,60.936 188.604,61.854 C189.144,62.538 189.432,63.402 189.432,64.86 L189.432,69 L187.722,69 L187.722,64.77 C187.722,63.69 187.524,63.186 187.218,62.808 C186.822,62.304 186.174,61.98 185.472,61.98 C184.356,61.98 183.546,62.574 183.042,63.186 L183.042,69 L181.332,69 L181.332,60.54 L182.988,60.54 Z M198.558,66.246 L199.872,67.2 C199.17,68.37 197.658,69.18 196.11,69.18 C193.5,69.18 191.592,67.272 191.592,64.77 C191.592,62.268 193.464,60.36 196.002,60.36 C197.478,60.36 198.81,61.098 199.602,62.196 L198.342,63.258 C197.874,62.61 197.082,61.98 196.002,61.98 C194.472,61.98 193.302,63.168 193.302,64.77 C193.302,66.426 194.49,67.56 196.11,67.56 C197.226,67.56 198.018,66.966 198.558,66.246 Z M203.652,73.32 L201.834,73.32 L204.12,68.118 L200.502,60.54 L202.338,60.54 L204.984,66.12 L207.414,60.54 L209.214,60.54 L203.652,73.32 Z" id="a-creative-digital-a" fill="#FFFFFF"></path>
                <g id="Component-/-Logo">
                    <g id="Page-1">
                        <g id="Group-3" transform="translate(0.000000, 0.084306)">
                            <mask id="mask-2" fill="white">
                                <use xlink:href="#path-1"></use>
                            </mask>
                            <g id="Clip-2"></g>
                            <path d="M11.0831259,33.5642969 C11.0831259,38.785552 14.2304471,41.8772969 18.7459434,41.8772969 C22.303458,41.8772969 25.0398084,39.6098786 25.0398084,36.2436184 C25.0398084,32.3962408 21.7559288,31.0913173 17.5824763,29.511098 C8.75696898,26.2819653 1.36804562,23.4652561 1.36804562,13.7094245 C1.36804562,4.84765408 9.44079745,0.17595 18.1984142,0.17595 C29.5553047,0.17595 35.23375,7.32063367 35.23375,15.4959857 L24.1502354,15.4959857 C24.1502354,11.2369653 22.0295639,8.55764388 18.1984142,8.55764388 C15.0513522,8.55764388 12.3834106,10.2062969 12.3834106,13.5038633 C12.3834106,16.6637816 15.188688,18.3819092 19.2242865,19.8244806 C27.0925894,22.5724959 36.0546551,25.7324143 36.0546551,35.3503378 C36.0546551,45.2435571 28.597323,50.739848 18.0613376,50.739848 C7.79898723,50.739848 0.000129562044,44.5566184 0.000129562044,33.5642969 L11.0831259,33.5642969 Z" id="Fill-1" fill="#FFFFFF" mask="url(#mask-2)"></path>
                        </g>
                        <polygon id="Fill-4" fill="#FFFFFF" points="85.0129383 50.2607602 74.2030588 50.2607602 74.2030588 20.4450153 63.8725588 50.2607602 55.6624712 50.2607602 44.9894091 20.4450153 44.9894091 50.2607602 34.1800478 50.2607602 34.1800478 2.17062245 46.9737814 2.17062245 59.767515 35.6279235 72.4241719 2.17062245 85.0129383 2.17062245"></polygon>
                        <path d="M103.213374,15.9105168 L97.3299613,35.6966954 L108.960746,35.6966954 L103.213374,15.9105168 Z M113.54491,50.2608383 L111.697615,44.4213383 L94.6617606,44.4213383 L92.814465,50.2608383 L80.9787131,50.2608383 L98.0824577,2.17044031 L108.276399,2.17044031 L125.585629,50.2608383 L113.54491,50.2608383 Z" id="Fill-6" fill="#FFFFFF"></path>
                        <g id="Group-10" transform="translate(115.051095, 0.084306)">
                            <mask id="mask-4" fill="white">
                                <use xlink:href="#path-3"></use>
                            </mask>
                            <g id="Clip-9"></g>
                            <path d="M49.6678168,32.2592173 C47.8205212,42.4953857 38.9950139,50.7396918 25.7908277,50.7396918 C9.64532409,50.7396918 0.0662839416,38.9227837 0.0662839416,25.389049 C0.0662839416,12.2674776 9.50824745,0.175793878 25.175408,0.175793878 C40.0214044,0.175793878 48.231492,9.10677857 49.599408,20.0988398 L38.0370321,20.0988398 C37.0106416,14.4654214 32.7006307,10.206401 25.8592365,10.206401 C16.4867182,10.206401 11.3552839,17.4887327 11.3552839,25.389049 C11.3552839,33.8391765 16.8285029,40.7093449 26.4062474,40.7093449 C31.8115759,40.7093449 36.6007073,37.068049 37.9004737,32.2592173 L49.6678168,32.2592173 Z" id="Fill-8" fill="#FFFFFF" mask="url(#mask-4)"></path>
                        </g>
                        <polygon id="Fill-11" fill="#FFFFFF" points="172.930917 29.9254469 172.930917 50.2606561 161.84792 50.2606561 161.84792 2.17051837 172.930917 2.17051837 172.930917 22.5749418 188.392333 2.17051837 201.733596 2.17051837 182.782815 26.2154571 201.733596 50.2606561 188.392333 50.2606561"></polygon>
                        <g id="Group-15" transform="translate(202.635036, 39.635327)">
                            <mask id="mask-6" fill="white">
                                <use xlink:href="#path-5"></use>
                            </mask>
                            <g id="Clip-14"></g>
                            <path d="M10.2748661,5.19544286 C10.2748661,2.39616735 8.01504489,0.126667347 5.2279062,0.126667347 C2.44050839,0.126667347 0.180168978,2.39616735 0.180168978,5.19544286 C0.180168978,7.99419796 2.44050839,10.2631776 5.2279062,10.2631776 C8.01504489,10.2631776 10.2748661,7.99419796 10.2748661,5.19544286" id="Fill-13" fill="#FFFFFF" mask="url(#mask-6)"></path>
                        </g>
                    </g>
                </g>
            </g>
        </g>
    </g>
</svg>