<?xml version="1.0" encoding="UTF-8"?>
<svg width="163px" height="59px" viewBox="0 0 163 59" version="1.1" xmlns="http://www.w3.org/2000/svg" xmlns:xlink="http://www.w3.org/1999/xlink">
    <!-- Generator: Sketch 49.3 (51167) - http://www.bohemiancoding.com/sketch -->
    <title>Logo</title>
    <desc>Created with Sketch.</desc>
    <defs>
        <polygon id="path-1" points="9.91484185e-05 38.8010204 27.591121 38.8010204 27.591121 0.13455 9.91484185e-05 0.13455"></polygon>
        <polygon id="path-3" points="38.0087049 0.134510204 0.0507243309 0.134510204 0.0507243309 38.8009408 38.0087049 38.8009408 38.0087049 0.134510204"></polygon>
        <polygon id="path-5" points="7.86286618 0.0968632653 7.86286618 7.84831224 0.137875791 7.84831224 0.137875791 0.0968632653 7.86286618 0.0968632653"></polygon>
    </defs>
    <g id="Symbols" stroke="none" stroke-width="1" fill="none" fill-rule="evenodd">
        <g id="Component-/-Main-Nav-/-Dark-/-XL-/-Default" transform="translate(-32.000000, -32.000000)">
            <g id="Logo" transform="translate(32.000000, 32.000000)">
                <path d="M5.992,55 L5.992,54.398 C5.46,54.874 4.746,55.14 3.962,55.14 C3.374,55.14 2.758,54.972 2.31,54.706 C1.316,54.118 0.63,53.026 0.63,51.71 C0.63,50.394 1.33,49.288 2.324,48.7 C2.772,48.434 3.318,48.28 3.934,48.28 C4.676,48.28 5.39,48.504 5.992,49.022 L5.992,48.42 L7.28,48.42 L7.28,55 L5.992,55 Z M5.95,52.942 L5.95,50.478 C5.544,49.946 4.872,49.54 4.074,49.54 C2.8,49.54 1.96,50.562 1.96,51.71 C1.96,52.886 2.87,53.88 4.144,53.88 C4.816,53.88 5.502,53.544 5.95,52.942 Z M18.298,52.858 L19.32,53.6 C18.774,54.51 17.598,55.14 16.394,55.14 C14.364,55.14 12.88,53.656 12.88,51.71 C12.88,49.764 14.336,48.28 16.31,48.28 C17.458,48.28 18.494,48.854 19.11,49.708 L18.13,50.534 C17.766,50.03 17.15,49.54 16.31,49.54 C15.12,49.54 14.21,50.464 14.21,51.71 C14.21,52.998 15.134,53.88 16.394,53.88 C17.262,53.88 17.878,53.418 18.298,52.858 Z M24.64,48.322 L24.486,49.596 C24.332,49.554 24.178,49.54 23.968,49.54 C23.282,49.54 22.554,50.016 22.19,50.646 L22.19,55 L20.86,55 L20.86,48.42 L22.148,48.42 L22.148,49.176 C22.47,48.728 23.156,48.28 24.122,48.28 C24.262,48.28 24.486,48.294 24.64,48.322 Z M32.046,51.99 L26.978,51.99 C27.048,53.096 27.958,53.978 29.106,53.978 C30.086,53.978 30.618,53.502 30.996,53.082 L31.864,53.908 C31.374,54.538 30.436,55.14 29.092,55.14 C27.174,55.14 25.69,53.684 25.69,51.71 C25.69,49.736 27.034,48.28 28.896,48.28 C30.73,48.28 32.06,49.764 32.06,51.71 C32.06,51.766 32.06,51.864 32.046,51.99 Z M28.938,49.442 C28.084,49.442 27.314,50.016 27.09,50.87 L30.674,50.87 C30.478,50.03 29.722,49.442 28.938,49.442 Z M38.682,55 L38.682,54.398 C38.15,54.874 37.436,55.14 36.652,55.14 C36.064,55.14 35.448,54.972 35,54.706 C34.006,54.118 33.32,53.026 33.32,51.71 C33.32,50.394 34.02,49.288 35.014,48.7 C35.462,48.434 36.008,48.28 36.624,48.28 C37.366,48.28 38.08,48.504 38.682,49.022 L38.682,48.42 L39.97,48.42 L39.97,55 L38.682,55 Z M38.64,52.942 L38.64,50.478 C38.234,49.946 37.562,49.54 36.764,49.54 C35.49,49.54 34.65,50.562 34.65,51.71 C34.65,52.886 35.56,53.88 36.834,53.88 C37.506,53.88 38.192,53.544 38.64,52.942 Z M46.144,53.796 L46.41,55 C46.158,55.084 45.752,55.14 45.374,55.14 C44.548,55.14 43.932,54.846 43.512,54.37 C43.12,53.936 42.98,53.334 42.98,52.62 L42.98,49.61 L41.3,49.61 L41.3,48.42 L42.98,48.42 L42.98,46.6 L44.31,46.6 L44.31,48.42 L46.41,48.42 L46.41,49.61 L44.31,49.61 L44.31,52.69 C44.31,53.04 44.338,53.334 44.506,53.53 C44.688,53.754 45.066,53.88 45.416,53.88 C45.612,53.88 45.948,53.852 46.144,53.796 Z M48.23,55 L48.23,48.42 L49.56,48.42 L49.56,55 L48.23,55 Z M48.02,46.082 C48.02,45.592 48.398,45.2 48.888,45.2 C49.378,45.2 49.77,45.592 49.77,46.082 C49.77,46.572 49.378,46.95 48.888,46.95 C48.398,46.95 48.02,46.572 48.02,46.082 Z M53.746,55 L50.89,48.42 L52.262,48.42 L54.208,52.9 L56.154,48.42 L57.526,48.42 L54.67,55 L53.746,55 Z M64.652,51.99 L59.584,51.99 C59.654,53.096 60.564,53.978 61.712,53.978 C62.692,53.978 63.224,53.502 63.602,53.082 L64.47,53.908 C63.98,54.538 63.042,55.14 61.698,55.14 C59.78,55.14 58.296,53.684 58.296,51.71 C58.296,49.736 59.64,48.28 61.502,48.28 C63.336,48.28 64.666,49.764 64.666,51.71 C64.666,51.766 64.666,51.864 64.652,51.99 Z M61.544,49.442 C60.69,49.442 59.92,50.016 59.696,50.87 L63.28,50.87 C63.084,50.03 62.328,49.442 61.544,49.442 Z M75.068,55 L75.068,54.398 C74.536,54.874 73.822,55.14 73.038,55.14 C72.45,55.14 71.834,54.972 71.386,54.706 C70.392,54.118 69.706,53.026 69.706,51.71 C69.706,50.394 70.406,49.288 71.4,48.7 C71.848,48.434 72.394,48.28 73.01,48.28 C73.724,48.28 74.438,48.504 75.026,48.994 L75.026,45.06 L76.356,45.06 L76.356,55 L75.068,55 Z M75.026,52.942 L75.026,50.478 C74.62,49.946 73.948,49.54 73.15,49.54 C71.876,49.54 71.036,50.562 71.036,51.71 C71.036,52.886 71.946,53.88 73.22,53.88 C73.892,53.88 74.578,53.544 75.026,52.942 Z M78.736,55 L78.736,48.42 L80.066,48.42 L80.066,55 L78.736,55 Z M78.526,46.082 C78.526,45.592 78.904,45.2 79.394,45.2 C79.884,45.2 80.276,45.592 80.276,46.082 C80.276,46.572 79.884,46.95 79.394,46.95 C78.904,46.95 78.526,46.572 78.526,46.082 Z M87.206,54.426 C86.674,54.888 86.002,55.14 85.218,55.14 C84.63,55.14 84.014,54.972 83.566,54.706 C82.572,54.118 81.886,53.026 81.886,51.71 C81.886,50.394 82.586,49.288 83.58,48.7 C84.028,48.434 84.574,48.28 85.19,48.28 C85.932,48.28 86.646,48.504 87.248,49.022 L87.248,48.42 L88.536,48.42 L88.536,54.72 C88.536,55.7 88.41,56.358 88.144,56.876 C87.612,57.898 86.604,58.5 85.302,58.5 C83.594,58.5 82.516,57.632 82.096,56.974 L83.076,56.064 C83.552,56.694 84.168,57.24 85.246,57.24 C85.96,57.24 86.52,56.974 86.842,56.484 C87.08,56.12 87.206,55.616 87.206,54.79 L87.206,54.426 Z M87.206,52.942 L87.206,50.478 C86.8,49.946 86.128,49.54 85.33,49.54 C84.056,49.54 83.216,50.562 83.216,51.71 C83.216,52.886 84.126,53.88 85.4,53.88 C86.072,53.88 86.758,53.544 87.206,52.942 Z M90.916,55 L90.916,48.42 L92.246,48.42 L92.246,55 L90.916,55 Z M90.706,46.082 C90.706,45.592 91.084,45.2 91.574,45.2 C92.064,45.2 92.456,45.592 92.456,46.082 C92.456,46.572 92.064,46.95 91.574,46.95 C91.084,46.95 90.706,46.572 90.706,46.082 Z M98.42,53.796 L98.686,55 C98.434,55.084 98.028,55.14 97.65,55.14 C96.824,55.14 96.208,54.846 95.788,54.37 C95.396,53.936 95.256,53.334 95.256,52.62 L95.256,49.61 L93.576,49.61 L93.576,48.42 L95.256,48.42 L95.256,46.6 L96.586,46.6 L96.586,48.42 L98.686,48.42 L98.686,49.61 L96.586,49.61 L96.586,52.69 C96.586,53.04 96.614,53.334 96.782,53.53 C96.964,53.754 97.342,53.88 97.692,53.88 C97.888,53.88 98.224,53.852 98.42,53.796 Z M105.308,55 L105.308,54.398 C104.776,54.874 104.062,55.14 103.278,55.14 C102.69,55.14 102.074,54.972 101.626,54.706 C100.632,54.118 99.946,53.026 99.946,51.71 C99.946,50.394 100.646,49.288 101.64,48.7 C102.088,48.434 102.634,48.28 103.25,48.28 C103.992,48.28 104.706,48.504 105.308,49.022 L105.308,48.42 L106.596,48.42 L106.596,55 L105.308,55 Z M105.266,52.942 L105.266,50.478 C104.86,49.946 104.188,49.54 103.39,49.54 C102.116,49.54 101.276,50.562 101.276,51.71 C101.276,52.886 102.186,53.88 103.46,53.88 C104.132,53.88 104.818,53.544 105.266,52.942 Z M108.976,55 L108.976,45.06 L110.306,45.06 L110.306,55 L108.976,55 Z M121.268,55 L121.268,54.398 C120.736,54.874 120.022,55.14 119.238,55.14 C118.65,55.14 118.034,54.972 117.586,54.706 C116.592,54.118 115.906,53.026 115.906,51.71 C115.906,50.394 116.606,49.288 117.6,48.7 C118.048,48.434 118.594,48.28 119.21,48.28 C119.952,48.28 120.666,48.504 121.268,49.022 L121.268,48.42 L122.556,48.42 L122.556,55 L121.268,55 Z M121.226,52.942 L121.226,50.478 C120.82,49.946 120.148,49.54 119.35,49.54 C118.076,49.54 117.236,50.562 117.236,51.71 C117.236,52.886 118.146,53.88 119.42,53.88 C120.092,53.88 120.778,53.544 121.226,52.942 Z M129.696,54.426 C129.164,54.888 128.492,55.14 127.708,55.14 C127.12,55.14 126.504,54.972 126.056,54.706 C125.062,54.118 124.376,53.026 124.376,51.71 C124.376,50.394 125.076,49.288 126.07,48.7 C126.518,48.434 127.064,48.28 127.68,48.28 C128.422,48.28 129.136,48.504 129.738,49.022 L129.738,48.42 L131.026,48.42 L131.026,54.72 C131.026,55.7 130.9,56.358 130.634,56.876 C130.102,57.898 129.094,58.5 127.792,58.5 C126.084,58.5 125.006,57.632 124.586,56.974 L125.566,56.064 C126.042,56.694 126.658,57.24 127.736,57.24 C128.45,57.24 129.01,56.974 129.332,56.484 C129.57,56.12 129.696,55.616 129.696,54.79 L129.696,54.426 Z M129.696,52.942 L129.696,50.478 C129.29,49.946 128.618,49.54 127.82,49.54 C126.546,49.54 125.706,50.562 125.706,51.71 C125.706,52.886 126.616,53.88 127.89,53.88 C128.562,53.88 129.248,53.544 129.696,52.942 Z M139.202,51.99 L134.134,51.99 C134.204,53.096 135.114,53.978 136.262,53.978 C137.242,53.978 137.774,53.502 138.152,53.082 L139.02,53.908 C138.53,54.538 137.592,55.14 136.248,55.14 C134.33,55.14 132.846,53.684 132.846,51.71 C132.846,49.736 134.19,48.28 136.052,48.28 C137.886,48.28 139.216,49.764 139.216,51.71 C139.216,51.766 139.216,51.864 139.202,51.99 Z M136.094,49.442 C135.24,49.442 134.47,50.016 134.246,50.87 L137.83,50.87 C137.634,50.03 136.878,49.442 136.094,49.442 Z M142.324,48.42 L142.324,49.05 C142.674,48.714 143.346,48.28 144.298,48.28 C145.264,48.28 146.132,48.728 146.692,49.442 C147.112,49.974 147.336,50.646 147.336,51.78 L147.336,55 L146.006,55 L146.006,51.71 C146.006,50.87 145.852,50.478 145.614,50.184 C145.306,49.792 144.802,49.54 144.256,49.54 C143.388,49.54 142.758,50.002 142.366,50.478 L142.366,55 L141.036,55 L141.036,48.42 L142.324,48.42 Z M154.434,52.858 L155.456,53.6 C154.91,54.51 153.734,55.14 152.53,55.14 C150.5,55.14 149.016,53.656 149.016,51.71 C149.016,49.764 150.472,48.28 152.446,48.28 C153.594,48.28 154.63,48.854 155.246,49.708 L154.266,50.534 C153.902,50.03 153.286,49.54 152.446,49.54 C151.256,49.54 150.346,50.464 150.346,51.71 C150.346,52.998 151.27,53.88 152.53,53.88 C153.398,53.88 154.014,53.418 154.434,52.858 Z M158.396,58.36 L156.982,58.36 L158.76,54.314 L155.946,48.42 L157.374,48.42 L159.432,52.76 L161.322,48.42 L162.722,48.42 L158.396,58.36 Z" id="a-creative-digital-a" fill="#242527"></path>
                <g id="Component-/-Logo-/-Dark">
                    <g id="Page-1">
                        <g id="Group-3" transform="translate(0.000000, 0.064469)">
                            <mask id="mask-2" fill="white">
                                <use xlink:href="#path-1"></use>
                            </mask>
                            <g id="Clip-2"></g>
                            <path d="M8.48145316,25.6668153 C8.48145316,29.6595398 10.8899665,32.0238153 14.3454872,32.0238153 C17.0679045,32.0238153 19.1619191,30.2899071 19.1619191,27.7157082 C19.1619191,24.7735959 16.6489033,23.7757133 13.4551344,22.5673102 C6.70134246,20.0979735 1.04690815,17.9440194 1.04690815,10.4836776 C1.04690815,3.70702959 7.22464781,0.13455 13.926486,0.13455 C22.6174398,0.13455 26.9629167,5.59813163 26.9629167,11.8498714 L18.4811661,11.8498714 C18.4811661,8.59297347 16.8583047,6.54408061 13.926486,6.54408061 C11.5181709,6.54408061 9.47650669,7.80481531 9.47650669,10.3264837 C9.47650669,12.7428918 11.6232682,14.0567541 14.7115432,15.1598969 C20.7328266,17.2613204 27.591121,19.6777286 27.591121,27.0326112 C27.591121,34.5980143 21.8843364,38.8010602 13.821587,38.8010602 C5.96823905,38.8010602 9.91484185e-05,34.0727082 9.91484185e-05,25.6668153 L8.48145316,25.6668153 Z" id="Fill-1" fill="#242527" mask="url(#mask-2)"></path>
                        </g>
                        <polygon id="Fill-4" fill="#242527" points="65.0568495 38.434699 56.7845004 38.434699 56.7845004 15.6344235 48.8790004 38.434699 42.5961634 38.434699 34.428515 15.6344235 34.428515 38.434699 26.1565624 38.434699 26.1565624 1.65988776 35.9470721 1.65988776 45.7375819 27.2448827 55.4231926 1.65988776 65.0568495 1.65988776"></polygon>
                        <path d="M78.9848822,12.1668658 L74.4825526,27.297473 L83.3831061,27.297473 L78.9848822,12.1668658 Z M86.8911754,38.4347587 L85.4775173,33.9692587 L72.44069,33.9692587 L71.0270319,38.4347587 L61.9696255,38.4347587 L75.0584066,1.65974847 L82.8594041,1.65974847 L96.1054345,38.4347587 L86.8911754,38.4347587 Z" id="Fill-6" fill="#242527"></path>
                        <g id="Group-10" transform="translate(88.043796, 0.064469)">
                            <mask id="mask-4" fill="white">
                                <use xlink:href="#path-3"></use>
                            </mask>
                            <g id="Clip-9"></g>
                            <path d="M38.0087049,24.6688133 C36.5950467,32.4964714 29.8412547,38.8009408 19.7366428,38.8009408 C7.3811635,38.8009408 0.0507243309,29.7644816 0.0507243309,19.4151551 C0.0507243309,9.38101224 7.27626448,0.134430612 19.2656878,0.134430612 C30.6267085,0.134430612 36.9095455,6.96400714 37.9563545,15.369701 L29.1081513,15.369701 C28.3226976,11.0617929 25.0244263,7.8048949 19.7889932,7.8048949 C12.6165966,7.8048949 8.68972433,13.3737367 8.68972433,19.4151551 C8.68972433,25.8770173 12.8781501,31.1306755 20.2075978,31.1306755 C24.3440698,31.1306755 28.008992,28.3461551 29.0036489,24.6688133 L38.0087049,24.6688133 Z" id="Fill-8" fill="#242527" mask="url(#mask-4)"></path>
                        </g>
                        <polygon id="Fill-11" fill="#242527" points="132.336805 22.8841653 132.336805 38.4346194 123.855451 38.4346194 123.855451 1.65980816 132.336805 1.65980816 132.336805 17.2631908 144.168781 1.65980816 154.378291 1.65980816 139.876051 20.0471143 154.378291 38.4346194 144.168781 38.4346194"></polygon>
                        <g id="Group-15" transform="translate(155.068127, 30.309367)">
                            <mask id="mask-6" fill="white">
                                <use xlink:href="#path-5"></use>
                            </mask>
                            <g id="Clip-14"></g>
                            <path d="M7.86292567,3.97298571 C7.86292567,1.83236327 6.13357895,0.0968632653 4.00069818,0.0968632653 C1.8676191,0.0968632653 0.137875791,1.83236327 0.137875791,3.97298571 C0.137875791,6.1132102 1.8676191,7.84831224 4.00069818,7.84831224 C6.13357895,7.84831224 7.86292567,6.1132102 7.86292567,3.97298571" id="Fill-13" fill="#242527" mask="url(#mask-6)"></path>
                        </g>
                    </g>
                </g>
            </g>
        </g>
    </g>
</svg>