<?xml version="1.0" encoding="UTF-8"?>
<svg width="23px" height="23px" viewBox="0 0 23 23" version="1.1" xmlns="http://www.w3.org/2000/svg" xmlns:xlink="http://www.w3.org/1999/xlink">
    <!-- Generator: Sketch 50 (54983) - http://www.bohemiancoding.com/sketch -->
    <title>rotating-arrow-to-the-left</title>
    <desc>Created with Sketch.</desc>
    <defs></defs>
    <g id="2.-Design" stroke="none" stroke-width="1" fill="none" fill-rule="evenodd">
        <g id="smack_website_project_1-1" transform="translate(-710.000000, -1351.000000)" fill="#FFFFFF" fill-rule="nonzero">
            <g id="Video-Copy" transform="translate(0.000000, 1003.000000)">
                <g id="Component-/-Button-/-No-Label-/-Default-Copy-4" transform="translate(720.000000, 359.000000) scale(-1, 1) translate(-720.000000, -359.000000) translate(672.000000, 311.000000)">
                    <g id="Group-9-Copy-3">
                        <g id="rotating-arrow-to-the-left" transform="translate(46.500000, 48.500000) scale(-1, 1) translate(-46.500000, -48.500000) translate(35.000000, 37.000000)">
                            <path d="M11.4942876,22.2294248 C17.8319902,22.2294248 22.9876732,17.0732157 22.9876732,10.7355882 C22.9876732,7.76843791 21.8367712,4.93064379 19.8048039,2.80103922 C19.8048039,2.80103922 20.1007974,2.13531699 20.4672941,1.3140817 C20.8328889,0.492846405 20.3065948,-0.0866633987 19.2911373,0.0191666667 L13.3438333,0.642196078 C12.3283007,0.748251634 11.9909673,1.50409477 12.5906209,2.33044118 L16.1038333,7.17043791 C16.7040882,7.99663399 17.4442974,8.09569935 17.7580294,7.39119281 L18.3262647,6.11612092 C19.2411536,7.46996405 19.7525654,9.07222222 19.7525654,10.7355882 C19.7525654,15.2900392 16.0479118,18.9941667 11.4943627,18.9941667 C6.94013725,18.9941667 3.23525817,15.2895882 3.23525817,10.7355882 C3.23525817,9.30101961 3.60806863,7.88854902 4.31437908,6.65143464 C4.75716667,5.87537255 4.4872549,4.88757516 3.71119281,4.44486275 C2.93490523,4.00169935 1.94755882,4.27198693 1.50439542,5.0485 C0.520356209,6.77274837 0,8.73924837 0,10.7355131 C0,17.0732157 5.15635948,22.2294248 11.4942876,22.2294248 Z" id="Shape"></path>
                        </g>
                    </g>
                </g>
            </g>
        </g>
    </g>
</svg>