<?xml version="1.0" encoding="utf-8"?>
<!-- Generator: Adobe Illustrator 22.1.0, SVG Export Plug-In . SVG Version: 6.00 Build 0)  -->
<svg version="1.1" id="Layer_1" xmlns="http://www.w3.org/2000/svg" xmlns:xlink="http://www.w3.org/1999/xlink" x="0px" y="0px"
	 viewBox="0 0 30 30" style="enable-background:new 0 0 30 30;" xml:space="preserve">
<style type="text/css">
	.st0{fill:#F48181;}
</style>
<path class="st0" d="M26.9,7.2c0,0.4-0.2,0.9-0.5,1.2L10.8,24c-0.7,0.7-1.7,0.7-2.4,0c0,0-0.1-0.1-0.1-0.1l-4.7-4.7
	c-0.7-0.7-0.7-1.7,0-2.4c0.3-0.3,0.8-0.5,1.2-0.5c0.4,0,0.9,0.2,1.2,0.5l3.6,3.6L24,6c0.7-0.7,1.7-0.7,2.4,0
	C26.8,6.3,26.9,6.7,26.9,7.2z"/>
</svg>
