<?xml version="1.0" encoding="UTF-8"?>
<svg width="48px" height="48px" viewBox="0 0 48 48" version="1.1" xmlns="http://www.w3.org/2000/svg" xmlns:xlink="http://www.w3.org/1999/xlink">
    <!-- Generator: Sketch 49.3 (51167) - http://www.bohemiancoding.com/sketch -->
    <title>Icon / Social - Dark / Twitter</title>
    <desc>Created with Sketch.</desc>
    <defs></defs>
    <g id="Icon-/-Social---Dark-/-Twitter" stroke="none" stroke-width="1" fill="none" fill-rule="evenodd">
        <circle id="Oval" stroke="#242527" stroke-width="2" cx="24" cy="24" r="23"></circle>
        <g id="Group-2" transform="translate(12.000000, 12.000000)">
            <rect id="Rectangle-4-Copy" x="0" y="0" width="24" height="24"></rect>
            <path d="M23,5.13087757 C22.1916417,5.49230769 21.3213007,5.73672806 20.4083465,5.84593716 C21.3406703,5.28429036 22.0560545,4.39371614 22.3930856,3.33282774 C21.520162,3.85287107 20.5555556,4.2312026 19.5250924,4.4340195 C18.7038211,3.55124594 17.5300229,3 16.2309679,3 C13.7400364,3 11.7191407,5.03466956 11.7191407,7.54387866 C11.7191407,7.90010834 11.7578799,8.24593716 11.8353583,8.5787649 C8.08411105,8.38894908 4.75899513,6.58179848 2.53149029,3.82946912 C2.14280683,4.50292524 1.920702,5.28429036 1.920702,6.1163597 C1.920702,7.69209101 2.71743852,9.08320693 3.92868463,9.89837486 C3.19005693,9.87627302 2.49275107,9.6695558 1.88325409,9.33152763 L1.88325409,9.38743229 C1.88325409,11.5898158 3.43927922,13.4268689 5.50537066,13.8429036 C5.12701767,13.9495125 4.72800376,14.0028169 4.31607677,14.0028169 C4.02553266,14.0028169 3.74144509,13.9755146 3.46639667,13.9222102 C4.04102835,15.7267606 5.70681458,17.0411701 7.68251453,17.076273 C6.13811117,18.2957746 4.19081998,19.0225352 2.07695017,19.0225352 C1.71280155,19.0225352 1.35252685,19.0017335 1,18.96013 C2.99765217,20.2472373 5.37107472,21 7.91882374,21 C16.2219287,21 20.7608734,14.0769231 20.7608734,8.07172264 C20.7608734,7.87410618 20.7569995,7.67648971 20.7492516,7.48277356 C21.6312144,6.84182015 22.3969596,6.04225352 23,5.13087757" id="Twitter" fill="#242527"></path>
        </g>
    </g>
</svg>