<?xml version="1.0" encoding="UTF-8"?>
<svg width="48px" height="48px" viewBox="0 0 48 48" version="1.1" xmlns="http://www.w3.org/2000/svg" xmlns:xlink="http://www.w3.org/1999/xlink">
    <!-- Generator: Sketch 49.3 (51167) - http://www.bohemiancoding.com/sketch -->
    <title>Icon / Social - Dark / Youtube</title>
    <desc>Created with Sketch.</desc>
    <defs>
        <polygon id="path-1" points="0 15.6651786 21.7255238 15.6651786 21.7255238 0.189258929 0 0.189258929"></polygon>
    </defs>
    <g id="Icon-/-Social---Dark-/-Youtube" stroke="none" stroke-width="1" fill="none" fill-rule="evenodd">
        <circle id="Oval" stroke="#242527" stroke-width="2" cx="24" cy="24" r="23"></circle>
        <g id="Group-2" transform="translate(12.000000, 12.000000)">
            <rect id="Rectangle-4-Copy-3" x="0" y="0" width="24" height="24"></rect>
            <g id="Page-1" transform="translate(1.000000, 4.000000)">
                <polygon id="Fill-1" points="8.61834286 10.9035182 14.4892 7.82233958 8.61834286 4.72100179"></polygon>
                <g id="Group-7" transform="translate(0.000000, 0.122177)">
                    <polygon id="Fill-2" fill="#4A4A4A" points="8.61834286 4.5986122 13.7663429 8.07979226 14.4892 7.69995"></polygon>
                    <g id="Group-6">
                        <mask id="mask-2" fill="white">
                            <use xlink:href="#path-1"></use>
                        </mask>
                        <g id="Clip-5"></g>
                        <path d="M8.62033333,10.7813408 L8.6182381,4.5988244 L14.4890952,7.7001622 L8.62033333,10.7813408 Z M21.5091905,3.52826339 C21.5091905,3.52826339 21.2965238,2.01101637 20.6459524,1.34363988 C19.8183333,0.467244048 18.8932857,0.463 18.4679524,0.412071429 C15.4277619,0.189258929 10.8685238,0.189258929 10.8685238,0.189258929 L10.8580476,0.189258929 C10.8580476,0.189258929 6.2977619,0.189258929 3.25757143,0.412071429 C2.8322381,0.463 1.90719048,0.467244048 1.08061905,1.34363988 C0.430047619,2.01101637 0.217380952,3.52826339 0.217380952,3.52826339 C0.217380952,3.52826339 -0.000523809524,5.30758036 -0.000523809524,7.08901935 L-0.000523809524,8.75799107 C-0.000523809524,10.538369 0.217380952,12.319808 0.217380952,12.319808 C0.217380952,12.319808 0.430047619,13.835994 1.08061905,14.5033705 C1.90719048,15.3797664 2.99147619,15.3521801 3.47652381,15.4444881 C5.21452381,15.613189 10.8632857,15.6651786 10.8632857,15.6651786 C10.8632857,15.6651786 15.4277619,15.6588125 18.4679524,15.434939 C18.8932857,15.3840104 19.8183333,15.3797664 20.6459524,14.5033705 C21.2965238,13.835994 21.5091905,12.319808 21.5091905,12.319808 C21.5091905,12.319808 21.7260476,10.538369 21.7260476,8.75799107 L21.7260476,7.08901935 C21.7260476,5.30758036 21.5091905,3.52826339 21.5091905,3.52826339 L21.5091905,3.52826339 Z" id="Fill-4" fill="#242527" mask="url(#mask-2)"></path>
                    </g>
                </g>
            </g>
        </g>
    </g>
</svg>