<?xml version="1.0" encoding="UTF-8"?>
<svg width="189px" height="94px" viewBox="0 0 189 94" version="1.1" xmlns="http://www.w3.org/2000/svg" xmlns:xlink="http://www.w3.org/1999/xlink">
    <!-- Generator: Sketch 53.2 (72643) - https://sketchapp.com/ -->
    <title>Rectangle Copy 3</title>
    <desc>Created with Sketch.</desc>
    <g id="All-for-Richard" stroke="none" stroke-width="1" fill="none" fill-rule="evenodd">
        <g id="Richard-Modules" transform="translate(-740.000000, -7922.000000)">
            <g id="Group-7" transform="translate(0.000000, 7906.000000)">
                <g id="Group-6">
                    <g id="Clients-&amp;-Awards-2">
                        <g id="Clients-&amp;-Awards">
                            <g id="awwwards" transform="translate(740.000000, 16.000000)">
                                <rect id="Rectangle-Copy-3" x="0" y="0" width="189" height="94"></rect>
                                <g id="awwwards-website-logo" transform="translate(0.000000, 36.000000)" fill="#373839">
                                    <path d="M115.225989,16.6145574 L107.771131,16.6145574 L105.982772,22 L102,22 L109.480776,1 L113.515384,1 L121,22 L117.018188,22 L115.225989,16.6145574 Z M111.483201,4.63963313 C111.483201,4.63963313 111.003233,6.71183301 110.587581,7.89404961 L108.705148,13.5091041 L114.266054,13.5091041 L112.379781,7.89404961 C111.990047,6.70803777 111.543677,4.63963313 111.543677,4.63963313 L111.483201,4.63963313 Z" id="Fill-1"></path>
                                    <path d="M127,1 L134.234884,1 C136.669827,1 137.774776,1.17739531 138.748956,1.59669332 C140.99839,2.53774224 142.415564,4.55359805 142.415564,7.32931292 C142.415564,9.84510096 140.994335,12.1759046 138.626297,13.0733162 L138.626297,13.1321317 C138.626297,13.1321317 138.939535,13.4252609 139.386583,14.1661472 L144,22 L139.450447,22 L134.99517,14.1661472 L131.071079,14.1661472 L131.071079,21.9962054 L127,21.9962054 L127,1 Z M134.741741,10.8459141 C136.919201,10.8459141 138.277579,9.63450332 138.277579,7.53706464 C138.277579,5.52500339 137.363208,4.28323621 134.172033,4.28323621 L131.075134,4.28323621 L131.075134,10.8497086 L134.741741,10.8459141 Z" id="Fill-2"></path>
                                    <path d="M150,1 L157.617563,1 C164.505365,1 169,4.84811785 169,11.4682091 C169,18.1006372 164.505365,22 157.617563,22 L150,22 L150,1 Z M157.396515,18.7155768 C161.927486,18.7155768 164.817255,16.2055222 164.817255,11.4682091 C164.817255,6.8011207 161.855822,4.28442316 157.396515,4.28442316 L154.057586,4.28442316 L154.057586,18.7155768 L157.396515,18.7155768 Z" id="Fill-3"></path>
                                    <path d="M176.198848,16.1786479 C176.198848,16.1786479 178.608736,18.4283529 181.74119,18.4283529 C183.433539,18.4283529 184.968109,17.5909627 184.968109,15.8556133 C184.968109,12.0436132 174.475345,12.7012192 174.475345,6.17419045 C174.475345,2.63234716 177.670106,0 181.930122,0 C186.314753,0 188.567868,2.27566316 188.567868,2.27566316 L186.813212,5.42717301 C186.813212,5.42717301 184.677677,3.56780142 181.890929,3.56780142 C180.017687,3.56780142 178.542409,4.61958659 178.542409,6.11746712 C178.542409,9.89581786 189,8.96420924 189,15.7690862 C189,19.1571035 186.306713,22 181.670843,22 C176.724441,22 174,19.0965345 174,19.0965345 L176.198848,16.1786479 Z" id="Fill-4"></path>
                                    <path d="M69.9228353,1.00379524 L66.341449,15.5319658 C66.0655802,16.7151313 65.9732967,17.7455383 65.9732967,17.7455383 L65.9114471,17.7455383 C65.8810132,17.7455383 65.8505792,16.7407491 65.5128608,15.5319658 L61.658551,1.00379524 L58.2342431,1.00379524 L54.3190654,15.5319658 C53.97742,16.7369539 53.950913,17.7455383 53.9194973,17.7455383 L53.8586295,17.7455383 C53.8586295,17.7455383 53.762419,16.711336 53.4944041,15.5319658 L50.9291184,4.65481408 L49,12.5821172 L51.4386413,22 L55.9988219,22 L59.3347732,9.58008404 C59.7029256,8.21949126 59.8874926,6.83043419 59.8874926,6.83043419 L59.9444335,6.83043419 C59.9444335,6.83043419 60.1290006,8.21949126 60.497153,9.58008404 L63.8370312,22 L68.3932849,22 L74,1 L69.9228353,1.00379524 Z" id="Fill-5"></path>
                                    <path d="M94.9262166,1 L91.3469388,15.5307967 C91.0702512,16.714176 90.9790031,17.7447693 90.9790031,17.7447693 L90.9132653,17.7447693 C90.8867739,17.7447693 90.8593014,16.7397985 90.522763,15.5307967 L86.6667975,1 L83.2445055,1 L79.3306515,15.5307967 C78.9901884,16.7360025 78.9627159,17.7447693 78.9322998,17.7447693 L78.8714678,17.7447693 C78.8714678,17.7447693 78.7792386,16.71038 78.5035322,15.5307967 L75.9240581,4.59948484 L74,12.5320168 L76.4568289,22 L81.0094192,22 L84.3404631,9.58163496 C84.7083987,8.21700032 84.8958006,6.83148809 84.8958006,6.83148809 L84.9576138,6.83148809 C84.9576138,6.83148809 85.1410911,8.21700032 85.505102,9.58163496 L88.8439953,22 L93.3965856,22 L99,1 L94.9262166,1 Z" id="Fill-6"></path>
                                    <path d="M13.2250291,16.613584 L5.77497095,16.613584 L3.98181175,22 L0,22 L7.48077603,1 L11.5230637,1 L19,22 L15.0210681,22 L13.2250291,16.613584 Z M9.48704087,4.6364951 C9.48704087,4.6364951 9.00707321,6.70906955 8.58662153,7.89149984 L6.70418835,13.5075693 L12.2689335,13.5075693 L10.3788208,7.89149984 C9.99292679,6.70906955 9.54271712,4.6364951 9.54271712,4.6364951 L9.48704087,4.6364951 Z" id="Fill-7"></path>
                                    <path d="M40.5241067,15.5291194 C40.8618465,16.7369539 40.8922823,17.7455383 40.9197728,17.7455383 L40.9845717,17.7455383 C40.9845717,17.7455383 41.076861,16.7075408 41.3488201,15.5291194 L44.9314141,1 L49,1 L43.4007854,22 L38.840317,22 L35.5080823,9.58008404 C35.1399067,8.21949126 34.9514008,6.83043419 34.9514008,6.83043419 L34.8944563,6.83043419 C34.8944563,6.83043419 34.7098776,8.21949126 34.341702,9.58008404 L31.0055402,22 L26.4450717,22 L21,1.00379524 L25.0685859,1.00379524 L28.4970371,15.5319658 C28.7739051,16.7151313 28.8652127,17.7455383 28.8652127,17.7455383 L28.9270662,17.7455383 C28.9614292,17.7455383 28.9840107,16.7407491 29.3256776,15.5319658 L33.2411024,1.00379524 L36.662681,1.00379524 L40.5241067,15.5291194 Z" id="Fill-8"></path>
                                </g>
                            </g>
                        </g>
                    </g>
                </g>
            </g>
        </g>
    </g>
</svg>