<?xml version="1.0" encoding="UTF-8"?>
<svg width="156px" height="94px" viewBox="0 0 156 94" version="1.1" xmlns="http://www.w3.org/2000/svg" xmlns:xlink="http://www.w3.org/1999/xlink">
    <!-- Generator: Sketch 53.2 (72643) - https://sketchapp.com/ -->
    <title>Rectangle Copy 3</title>
    <desc>Created with Sketch.</desc>
    <defs>
        <polygon id="path-1" points="0 0 156 0 156 47 0 47"></polygon>
    </defs>
    <g id="All-for-Richard" stroke="none" stroke-width="1" fill="none" fill-rule="evenodd">
        <g id="Richard-Modules" transform="translate(-642.000000, -8090.000000)">
            <g id="Group-6-Copy" transform="translate(0.000000, 8073.000000)">
                <g id="Clients-&amp;-Awards-2">
                    <g id="Clients-&amp;-Awards">
                        <g id="fwa" transform="translate(642.000000, 17.000000)">
                            <rect id="Rectangle-Copy-3" x="0" y="0" width="156" height="94"></rect>
                            <g id="Group-4" transform="translate(0.000000, 23.000000)">
                                <mask id="mask-2" fill="white">
                                    <use xlink:href="#path-1"></use>
                                </mask>
                                <g id="Clip-2"></g>
                                <path d="M132.977404,0 L101.715589,0 C99.4453454,0 97.2300794,0.765431114 95.4333809,2.16278792 C94.2104802,3.04392373 93.1797694,4.19628637 92.4391914,5.51635055 L92.3994598,5.58708501 L92.3615762,5.6582879 L88.0382271,13.7918133 C88.0382271,13.7918133 83.0186516,3.82856089 81.5624434,2.61389573 C79.6862817,0.972481636 77.3019256,0.0716713345 74.8187025,0.0716713345 C73.2839552,0.0716713345 71.7390439,0.429559567 70.351673,1.10598706 C67.6624001,2.41715089 66.1747763,4.82024857 64.906138,7.65056362 L61.6421434,13.7913448 L57.6805364,5.90656115 C56.6415097,3.77047432 54.9071805,2.05317293 52.7755356,1.04883737 C51.3775388,0.362104193 49.8266216,0 48.2784764,0 L23.0225963,0 C21.3067469,0 19.6047574,0.437991488 18.1000397,1.26666202 C14.7718278,3.09966811 12.7048622,6.62280606 12.7048622,10.4616726 L12.7048622,13.1945521 L10.3177341,13.1945521 C4.6282658,13.1945521 0,17.887385 0,23.6562248 C0,29.4245961 4.6282658,34.1178974 10.3177341,34.1178974 L12.7048622,34.1178974 L12.7048622,36.5383274 C12.7048622,42.3071671 17.333128,47 23.0225963,47 C28.7116026,47 33.3403304,42.3071671 33.3403304,36.5383274 L33.3403304,34.1178974 L42.503539,34.1178974 C44.4864215,34.1178974 46.3408694,33.5478058 47.9148863,32.5603341 L51.9550325,40.6001714 C52.1569243,41.0601796 52.3930037,41.506603 52.6595748,41.9338204 C54.5223386,45.0391098 57.8828902,46.9601826 61.4762872,46.9601826 C63.0114966,46.9601826 64.5559458,46.6022944 65.9433168,45.9258669 C68.4602655,44.6985538 70.6464258,42.6280486 71.7630676,39.9733986 L74.6971978,33.3285758 L78.3525022,40.6029821 C78.55347,41.0601796 78.7881635,41.5042608 79.0533486,41.9296044 C80.9156504,45.0377044 84.2766639,46.9601826 87.8719089,46.9601826 C89.4071183,46.9601826 90.9515675,46.6022944 92.3389385,45.9263353 C94.6983469,44.7763149 96.531543,42.7409427 97.4753988,40.2956854 C99.0166141,44.1101931 102.71858,46.8037236 107.028531,46.8037236 L132.977404,46.8107502 C138.66641,46.8107502 143.295138,42.3071671 143.295138,36.5383274 L143.295138,34.1178974 L145.682266,34.1178974 C151.371272,34.1178974 156,29.4245961 156,23.6562248 C156,17.887385 151.371272,13.1945521 145.682266,13.1945521 L143.295138,13.1945521 L143.295138,10.4616726 C143.295138,6.6232745 141.22771,3.09966811 137.89996,1.26666202 C136.394781,0.437991488 134.693253,0 132.977404,0 L132.977404,0 Z M110.262496,32.9069798 L129.589594,32.9069798 L129.589594,27.091296 L110.262496,27.091296 L110.262496,32.9069798 Z M132.977404,7.02660142 C133.562289,7.02660142 134.112063,7.17697069 134.592076,7.4411709 C135.648197,8.0229735 136.365213,9.15753541 136.365213,10.4616726 L136.365213,10.4616726 L136.365213,20.2211536 L145.682266,20.2211536 C147.553346,20.2211536 149.070075,21.7590424 149.070075,23.6562248 C149.070075,25.5534072 147.553346,27.091296 145.682266,27.091296 L136.365213,27.091296 L136.365213,36.3523567 C136.365213,38.249539 134.848483,39.7874279 132.977404,39.7874279 C132.583784,39.7874279 107.028531,39.7771222 107.028531,39.7771222 C105.156989,39.7771222 103.64026,38.2387649 103.64026,36.3415825 L103.64026,23.5002342 L103.648114,23.5002342 C103.728963,21.6756601 105.209195,20.2211536 107.028531,20.2211536 L129.589594,20.2211536 L129.589594,13.8972123 L103.549247,13.8972123 L91.1904189,37.1491733 C90.9931471,38.1783361 90.3394242,39.1044422 89.3355091,39.5934937 C88.8628882,39.8239662 88.3639336,39.9335812 87.8719089,39.9335812 C86.6970557,39.9335812 85.5660919,39.3091505 84.9451707,38.2289277 C84.81997,38.0354619 84.7137112,37.8307536 84.6300901,37.6180818 L74.8699839,18.1928079 L64.995765,37.1847747 C64.5684197,38.2022266 63.9433405,39.1039738 62.9394253,39.5934937 C62.4668045,39.8239662 61.9678499,39.9335812 61.4762872,39.9335812 C60.300972,39.9335812 59.1704702,39.309619 58.549087,38.2293961 C58.4234243,38.0354619 58.3171655,37.8302852 58.2330824,37.6166765 L46.3154597,13.8972123 L26.4104055,13.8972123 L26.4104055,20.2211536 L42.503539,20.2211536 C44.3746187,20.2211536 45.8913483,21.7590424 45.8913483,23.6562248 C45.8913483,25.5534072 44.3746187,27.091296 42.503539,27.091296 L26.4104055,27.091296 L26.4104055,36.5383274 C26.4104055,38.4355098 24.893676,39.9733986 23.0225963,39.9733986 C21.1515166,39.9733986 19.634787,38.4355098 19.634787,36.5383274 L19.634787,27.091296 L10.3177341,27.091296 C8.44665439,27.091296 6.92992484,25.5534072 6.92992484,23.6562248 C6.92992484,21.7590424 8.44665439,20.2211536 10.3177341,20.2211536 L19.634787,20.2211536 L19.634787,10.4616726 L19.634787,10.4616726 C19.634787,9.15753541 20.3513413,8.0229735 21.4074618,7.4411709 C21.8874746,7.17697069 22.4377106,7.02660142 23.0225963,7.02660142 L48.2784764,7.02660142 C48.8277884,7.02660142 49.3452228,7.16244904 49.8039838,7.39760597 C50.5126841,7.71708212 51.1178976,8.28155243 51.4805636,9.04604666 L61.4693573,28.9275812 L71.4900286,9.93936192 C71.9940651,8.9003618 72.2731101,7.96582381 73.3555644,7.43789182 C73.8281852,7.20741929 74.3271398,7.09827275 74.8187025,7.09827275 C75.6567614,7.09827275 76.4721826,7.41587514 77.0972618,7.98924581 C77.7144871,8.47876571 78,8.80995286 78.4236494,9.64190246 L87.865441,28.9275812 L98.4617581,8.99217605 C98.7375691,8.50078239 99.115943,8.10729272 99.5520662,7.81826518 C100.139262,7.32406088 100.893238,7.02660142 101.715589,7.02660142 L132.977404,7.02660142 L132.977404,7.02660142 Z" id="Fill-3" fill="#373839" mask="url(#mask-2)"></path>
                            </g>
                        </g>
                    </g>
                </g>
            </g>
        </g>
    </g>
</svg>