<?xml version="1.0" encoding="UTF-8"?>
<svg width="204px" height="62px" viewBox="0 0 204 62" version="1.1" xmlns="http://www.w3.org/2000/svg" xmlns:xlink="http://www.w3.org/1999/xlink">
    <!-- Generator: Sketch 53.2 (72643) - https://sketchapp.com/ -->
    <title>Group 22</title>
    <desc>Created with Sketch.</desc>
    <defs>
        <polygon id="path-1" points="0.1281375 0.460027586 8.8205625 0.460027586 8.8205625 31.9099586 0.1281375 31.9099586"></polygon>
    </defs>
    <g id="3.-Beauty" stroke="none" stroke-width="1" fill="none" fill-rule="evenodd">
        <g id="Gucci" transform="translate(-267.000000, -161.000000)">
            <g id="Group-22" transform="translate(267.000000, 161.000000)">
                <path d="M8.53037761,26.1886758 C6.87815239,23.5580384 5.82228591,19.9972829 5.82228591,16.5393211 C5.82228591,13.1410461 6.72183075,9.95056938 8.29061025,7.18784752 L8.47363452,6.87338688 C10.0457519,3.72933314 13.5999831,1.57840025 17.0607552,1.57840025 L17.0607552,1.57508432 C19.3260283,1.57508432 21.7442852,2.23384897 23.6168071,3.20375832 C27.0208361,5.29113589 29.7022252,8.42192592 31.2214936,12.1578731 L31.2214936,6.48929172 C31.2114801,5.21542217 29.2594066,3.82881102 29.2594066,3.82881102 C25.938267,1.39989272 21.8310688,0.0033337783 17.3845246,1.78488768e-05 C15.5820971,-0.00329808054 13.0570297,0.456510799 13.0570297,0.456510799 C5.58585637,2.02218214 0,8.6501724 0,16.5393211 C0,24.9573606 6.39194201,31.8871005 14.6196898,32.8067182 C14.6196898,32.8067182 16.3186446,33.0620448 17.4507249,32.9857784 C22.267768,32.9857784 26.6742583,31.3012863 30.1350303,28.4921414 L30.5884187,27.978725 C30.9945212,27.4398865 31.2476399,26.7678581 31.2476399,26.0433275 L31.2476399,21.3341551 C31.2476399,19.9375961 31.9374579,18.6968859 33,17.939196 L24.1558665,17.939196 C25.2156271,18.6968859 25.9048887,19.9348329 25.9048887,21.3341551 L25.9649697,25.7388147 C25.9649697,26.6153253 25.6117161,27.4067272 25.0320465,27.9825936 C24.3060688,28.7795219 21.5345583,30.1799495 21.5345583,30.1799495 C20.1955327,30.8978482 18.6595752,31.3012863 17.0312711,31.3012863 C13.3435266,31.3012863 10.1191841,29.2332516 8.53037761,26.1853598 L8.53037761,26.1886758 Z" id="Fill-1" fill="#FEFEFE"></path>
                <path d="M97,16.5828332 C97,24.4930097 102.413819,30.972982 109.644638,32.5422724 C109.644638,32.5422724 112.093169,33.0033069 113.842274,32.9999821 C118.146602,32.9972115 122.053798,31.613554 125.270189,29.1814864 C125.270189,29.1814864 127.228907,27.9335902 127.235373,26.6629748 L128,20.6473617 C125.78048,26.3177531 122.047332,28.4450503 119.875769,29.7356143 C118.059308,30.70423 115.720163,31.401323 113.525969,31.401323 L113.525969,31.3974441 C110.170554,31.3974441 106.753711,29.4236403 105.223918,26.2745311 L105.037476,25.9597864 C103.514149,23.1924714 102.643369,19.9940449 102.643369,16.5828332 C102.643369,13.1755004 103.514149,9.97707383 105.037476,7.20975882 L105.208291,6.89446002 C106.734313,3.74258021 110.170554,1.58591421 113.525969,1.58591421 L113.525969,1.57926467 C115.720163,1.57926467 118.059308,2.24255583 119.875769,3.21172563 C123.173527,5.30522104 125.774014,8.44380178 127.235373,12.1902609 L127.235373,6.50601632 C127.228907,5.23207615 125.341318,3.84176911 125.341318,3.84176911 C122.124387,1.40305198 118.146602,0.00332476773 113.842274,0 C112.093169,0 109.644638,0.457709691 109.644638,0.457709691 C102.413819,2.02700006 97,8.67598139 97,16.5828332" id="Fill-3" fill="#FEFEFE"></path>
                <path d="M147,16.583393 C147,24.490239 152.413348,30.9729771 159.643539,32.5422663 C159.643539,32.5422663 162.091857,33.0038546 163.84081,32.9999757 C168.144225,32.9972051 172.051082,31.6168733 175.270965,29.178158 C175.270965,29.178158 177.232206,27.9308169 177.232206,26.6602024 L178,20.6479185 C175.77744,26.3177516 172.044616,28.4417225 169.877014,29.7322855 C168.063944,30.7014546 165.717998,31.4013177 163.524533,31.4013177 L163.524533,31.397993 C160.172104,31.397993 156.749631,29.4236365 155.226436,26.2750838 L155.036239,25.9597852 C153.513583,23.1924722 152.642339,19.9907233 152.642339,16.583393 C152.642339,13.1755086 153.513583,9.97708438 155.036239,7.20977141 L155.207039,6.89447283 C156.732928,3.74259535 160.172104,1.5892557 163.524533,1.5892557 L163.524533,1.5792814 C165.717998,1.5792814 168.063944,2.23980144 169.877014,3.21174116 C173.170713,5.30523503 175.770435,8.44436758 177.232206,12.1902698 L177.232206,6.50658355 C177.232206,5.23264432 175.342087,3.83901354 175.342087,3.83901354 C172.125437,1.40362297 168.144225,0.00334266172 163.84081,1.78964382e-05 C162.091857,-0.00330686884 159.643539,0.45772725 159.643539,0.45772725 C152.413348,2.02701646 147,8.67654702 147,16.583393" id="Fill-5" fill="#FEFEFE"></path>
                <g id="Group-9" transform="translate(195.000000, 1.000000)">
                    <mask id="mask-2" fill="white">
                        <use xlink:href="#path-1"></use>
                    </mask>
                    <g id="Clip-8"></g>
                    <path d="M8.8210125,0.460027586 L0.1281375,0.460027586 C1.198575,1.18995862 1.896075,2.39602759 1.896075,3.77037241 L1.896075,28.6525793 C1.896075,29.9872 1.2362625,31.1734069 0.222075,31.9099586 L8.7298875,31.9099586 C7.7162625,31.1734069 7.0558875,29.9872 7.0558875,28.6525793 L7.0558875,3.77037241 C7.0558875,2.39602759 7.7533875,1.18995862 8.8210125,0.460027586" id="Fill-7" fill="#FEFEFE" mask="url(#mask-2)"></path>
                </g>
                <path d="M56.6840845,5.29833518 C56.6840845,3.9403891 57.3622904,2.71948845 58.3986501,2 L58.4079033,2 L50,2 C51.0330938,2.71948845 51.7107555,3.9403891 51.7107555,5.29833518 L51.7042238,5.30866796 L51.7042238,23.615108 L51.7042238,23.6379489 C51.9910734,26.9787029 54.0931853,29.8218515 57.0231875,31.1303089 L57.05258,31.1471677 C59.4448073,32.3125976 62.107555,33 64.9493795,33 C67.8336599,33 70.5551927,32.3843833 72.9735467,31.1863235 L73.0192685,31.1634826 C75.942739,29.8310966 78.0350533,26.9852288 78.299042,23.6346859 L78.299042,23.6314229 L78.299042,5.21730435 C78.299042,3.86262127 78.970172,2.71948845 80,2 L75.0952536,2 C76.1283475,2.71948845 76.8027433,3.86262127 76.8027433,5.21730435 L76.8027433,23.6314229 L76.7967559,23.6934196 C76.5910081,25.7153834 75.603636,27.5034998 74.1171348,28.7341894 L74.0490965,28.7989053 C72.3965818,30.0823465 69.4763771,31.0590671 66.7254518,31.0590671 C65.0081646,31.0590671 63.3687133,30.6979633 61.8631613,30.1242215 L61.7036795,30.0660316 C59.0011975,29.121941 57.0035924,26.5947582 56.693882,23.6542638 L56.693882,23.615108 L56.693882,5.30866796 L56.6840845,5.29833518 Z" id="Fill-10" fill="#FEFEFE"></path>
                <path d="M54.3938816,56.3135369 C54.3938816,53.8309079 53.163619,52.3459861 49.9179305,52.3459861 C49.4270734,52.3459861 48.9091776,52.3725122 48.3439639,52.4477598 L48.3439639,52.8581027 L48.3439639,56.6464669 C48.3439639,58.107028 48.3439639,59.0792918 48.3928417,60.0786231 C48.6892278,60.1035251 49.007453,60.1035251 49.2783603,60.1035251 C52.9675882,60.1035251 54.3938816,58.5157469 54.3938816,56.3135369 M52.3529769,47.9426488 C52.3529769,45.8941821 51.4185805,44.843964 48.3928417,44.843964 C48.3439639,46.3797726 48.3439639,48.1207528 48.3439639,51.4749546 C51.2209897,51.4749546 52.3529769,50.451804 52.3529769,47.9426488 M57,56.3135369 C57,58.9775181 54.0252188,61 49.49987,61 C48.2456885,61 46.2541815,60.9734739 45,60.8717002 L45,60.7688437 C45.3691828,60.7184982 45.7378456,60.5138681 45.7617645,59.7705952 C45.8106422,58.107028 45.8106422,56.4418368 45.8106422,52.4742859 C45.8106422,48.4802089 45.8106422,46.815559 45.7617645,45.1768939 C45.7378456,44.435245 45.3691828,44.2046301 45,44.1797281 L45,44.0757889 C46.0815495,44.0249021 47.7298726,44 48.1224543,44 C51.8605598,44 54.9102175,45.2034201 54.9102175,47.9426488 C54.9102175,50.0679871 53.1890978,51.6795848 50.6557761,51.8084259 C54.2706474,51.8084259 57,53.1406872 57,56.3135369" id="Fill-12" fill="#FEFEFE"></path>
                <path d="M78,58.5210023 C77.877509,58.8010112 77.001544,60.6426913 76.9768399,60.8978346 L68.8965517,60.8978346 C68.0689655,60.8978346 66.8512609,60.9237814 66.0236747,61 L66,60.8978346 C66.5362841,60.6426913 66.7303139,60.3610608 66.7539887,59.7983402 C66.8023675,58.1372063 66.8023675,56.4749913 66.8023675,52.5132437 C66.8023675,48.5250087 66.8023675,46.8627937 66.7539887,45.2259849 C66.7303139,44.6383987 66.4873906,44.332443 66,44.1021654 L66.0236747,44 C66.3885744,44.1021654 67.6798765,44.1264905 68.0689655,44.1264905 C68.4338652,44.1264905 69.748842,44.0756781 70.0885229,44 L70.1137416,44.1021654 C69.5779722,44.332443 69.3834277,44.6897517 69.358209,45.2259849 C69.2861554,46.8627937 69.3098302,48.5250087 69.3098302,52.5132437 C69.3098302,56.4749913 69.2861554,58.4437025 69.358209,60.1064581 C72.6685538,60.1815956 75.9063304,59.9005056 77.877509,58.4177557 L78,58.5210023 Z" id="Fill-14" fill="#FEFEFE"></path>
                <path d="M100.093853,53.0008179 C100.093853,48.049741 97.0038419,45.0327467 93.5005488,45.0327467 C89.9961581,45.0327467 86.9077936,48.049741 86.9077936,53.0008179 C86.9077936,57.9251765 89.9961581,60.9421708 93.5005488,60.9421708 C97.0038419,60.9421708 100.093853,57.9251765 100.093853,53.0008179 M103,53.0008179 C103,58.4420951 98.5614709,62 93.5005488,62 C88.4385291,62 84,58.4420951 84,53.0008179 C84,47.5333677 88.4385291,44 93.5005488,44 C98.5614709,44 103,47.5333677 103,53.0008179" id="Fill-16" fill="#FEFEFE"></path>
                <path d="M128.093853,53.0008179 C128.093853,48.049741 125.003293,45.0327467 121.500549,45.0327467 C117.996158,45.0327467 114.907794,48.049741 114.907794,53.0008179 C114.907794,57.9251765 117.996158,60.9421708 121.500549,60.9421708 C125.003293,60.9421708 128.093853,57.9251765 128.093853,53.0008179 M131,53.0008179 C131,58.4420951 126.561471,62 121.500549,62 C116.438529,62 112,58.4420951 112,53.0008179 C112,47.5333677 116.438529,44 121.500549,44 C126.561471,44 131,47.5333677 131,53.0008179" id="Fill-18" fill="#FEFEFE"></path>
                <path d="M158.975293,61 C158.618646,60.9237814 157.27263,60.8983751 156.866569,60.8983751 C156.459433,60.8983751 155.087635,60.9237814 154.7326,61 L154.706819,60.8983751 C155.190224,60.667557 155.468989,60.4372794 155.49477,59.7983402 C155.545259,58.1372063 155.545259,56.5014786 155.545259,52.5132437 C155.545259,49.0877293 155.646774,47.3741613 155.646774,45.9178988 C154.935631,47.4255143 154.199242,49.1390823 152.75171,52.4359439 C150.948069,56.6279691 150.084384,59.0064231 149.397411,60.6426913 L148.560044,60.6426913 C147.874682,59.0064231 146.680669,56.5014786 144.826002,52.5132437 C143.200684,49.0104296 142.590518,47.6298451 141.905156,46.1989888 L141.726833,45.8914115 C141.777322,47.399027 141.905156,49.163948 141.905156,52.5132437 C141.905156,56.4749913 142.006134,58.1372063 142.057161,59.7983402 C142.081868,60.4124137 142.361169,60.667557 142.844038,60.8983751 L142.819331,61 C142.463222,60.9237814 141.828349,60.8983751 141.422288,60.8983751 C141.041471,60.8983751 140.380816,60.9237814 140.02417,61 L140,60.8983751 C140.532821,60.6426913 140.76217,60.4124137 140.78634,59.7983402 C140.836829,58.1372063 140.939956,56.4749913 140.939956,52.5132437 C140.939956,48.5250087 140.939956,46.8627937 140.887855,45.2259849 C140.863148,44.6897517 140.660118,44.383796 140.100978,44.1264905 L140.127297,44 C140.380816,44.051353 141.395969,44.1264905 141.905156,44.1264905 C142.336462,44.1264905 143.606208,44.1021654 143.860802,44.0756781 C144.571408,45.7384337 145.841692,48.5250087 147.67004,52.5132437 C149.5,56.3993132 149.093402,55.4776622 149.881354,57.2420427 C150.668231,55.5041496 151.404082,53.6127381 151.91327,52.4359439 C153.716911,48.2698655 154.682111,45.7119463 155.366936,44.0756781 C155.571578,44.1021654 156.712953,44.1264905 157.120625,44.1264905 C157.730791,44.1264905 158.390909,44.0756781 158.975293,44 L159,44.1264905 C158.441935,44.3573087 158.237293,44.664886 158.213123,45.2259849 C158.162096,46.8627937 158.162096,48.5250087 158.162096,52.5132437 C158.162096,56.4749913 158.162096,58.1372063 158.213123,59.7983402 C158.237293,60.3610608 158.415616,60.6426913 159,60.8983751 L158.975293,61 Z" id="Fill-20" fill="#FEFEFE"></path>
            </g>
        </g>
    </g>
</svg>