<?xml version="1.0" encoding="UTF-8"?>
<svg width="53px" height="53px" viewBox="0 0 53 53" version="1.1" xmlns="http://www.w3.org/2000/svg" xmlns:xlink="http://www.w3.org/1999/xlink">
    <!-- Generator: Sketch 53.2 (72643) - https://sketchapp.com/ -->
    <title>Shape</title>
    <desc>Created with Sketch.</desc>
    <g id="2.-Fashion" stroke="none" stroke-width="1" fill="none" fill-rule="evenodd">
        <g id="River-Island" transform="translate(-270.000000, -165.000000)" fill="#FFFFFF" fill-rule="nonzero">
            <g id="Group-17">
                <path d="M295.334,214.979 C291.430911,212.33821 289.192865,207.848718 289.433333,203.142333 C289.433333,193.991 295.245667,188.699833 295.245667,180.361167 C295.245667,174.858 292.9225,170.238167 283.002667,170.238167 L278.1355,170.238167 L278.1355,218 L270,218 L270,165 L284.3365,165 C288.691333,165 293.629167,165.724333 297.666,168.056333 C301.577446,170.702096 303.81661,175.203888 303.566667,179.9195 C303.566667,188.9295 297.754333,194.733 297.754333,202.700667 C297.736667,208.283333 300.033333,212.814833 309.979667,212.814833 L314.8645,212.814833 L314.8645,165 L323,165 L323,218 L308.6635,218 C303.875833,218 299.370833,217.302167 295.334,214.979 Z" id="Shape"></path>
            </g>
        </g>
    </g>
</svg>