<?xml version="1.0" encoding="UTF-8"?>
<svg width="267px" height="41px" viewBox="0 0 267 41" version="1.1" xmlns="http://www.w3.org/2000/svg" xmlns:xlink="http://www.w3.org/1999/xlink">
    <!-- Generator: Sketch 53.2 (72643) - https://sketchapp.com/ -->
    <title>Group 13</title>
    <desc>Created with Sketch.</desc>
    <defs>
        <polygon id="path-1" points="0 41 267 41 267 0 0 0"></polygon>
    </defs>
    <g id="3.-Beauty" stroke="none" stroke-width="1" fill="none" fill-rule="evenodd">
        <g id="St-Tropez" transform="translate(-267.000000, -186.000000)">
            <g id="Group-13" transform="translate(267.000000, 186.000000)">
                <path d="M11.4662918,41 C17.0131235,41 23,36.7874524 23,29.980438 C23,21.9657962 16.1416143,20.2165772 13.5592624,19.5587565 C13.3864315,19.5146381 13.2350512,19.4759965 13.1091052,19.4413103 C7.95328821,18.1363181 2.10553453,16.6563736 2.16283841,9.99175516 C2.16283841,4.8600233 6.09841985,1.13429956 11.5211442,1.13429956 C16.4762444,1.13429956 19.5044633,3.76923362 20.5230628,8.96699097 L21.8327782,8.96699097 C20.8699504,2.35987859 15.9461069,0 11.6296232,0 C8.44787892,0 5.49014069,1.15316398 3.5136165,3.16374647 C1.70716532,5.00181075 0.788464613,7.45540293 0.857413132,10.259204 C0.857413132,17.6056801 7.60548124,19.2541874 11.2309476,20.1395982 L11.581206,20.231182 C15.3635685,21.2319092 21.6939618,22.9071918 21.6939618,30.1967703 C21.6939618,36.1694904 16.3570401,39.866309 11.4117459,39.866309 C7.33091292,39.866309 2.25691484,37.4151509 1.31216692,30.5211167 L0,30.5211167 C0.646890322,38.2047183 7.19179013,41 11.4662918,41" id="Fill-1" fill="#FEFEFE"></path>
                <polygon id="Fill-3" fill="#FEFEFE" points="52 0 29 0 29 1.14463749 39.8529929 1.14463749 39.8529929 40 41.1482236 40 41.1482236 1.14463749 52 1.14463749"></polygon>
                <mask id="mask-2" fill="white">
                    <use xlink:href="#path-1"></use>
                </mask>
                <g id="Clip-6"></g>
                <polygon id="Fill-5" fill="#FEFEFE" mask="url(#mask-2)" points="61 40 62 40 62 38 61 38"></polygon>
                <polygon id="Fill-7" fill="#FEFEFE" mask="url(#mask-2)" points="93 0 70 0 70 1.14463749 80.8520977 1.14463749 80.8520977 40 82.1466859 40 82.1466859 1.14463749 93 1.14463749"></polygon>
                <path d="M127,40 L113.582323,24.8084597 L115.477349,24.7412364 C118.780083,24.7203634 121.609965,23.5459513 123.666526,21.3447725 C126.280625,18.5465652 127.095535,14.8219657 126.98674,12.2687089 C126.986438,7.7883848 124.615546,3.33476579 121.349881,1.67229419 C119.563348,0.611148628 117.281963,0 110.881127,0 L102,0 L102,40 L103.283844,40 L103.283844,1.14433053 L110.881127,1.14433053 C115.675953,1.14433053 118.506437,1.22137639 120.920124,2.80557431 C123.825349,4.72619559 125.702594,8.45938977 125.702594,12.316594 C125.702594,15.8410584 124.648697,18.5315243 122.28564,21.0393517 C119.679678,23.2620173 117.344347,23.6506231 113.395472,23.6506231 L111.288582,23.6506231 L125.400318,40 L127,40 Z" id="Fill-8" fill="#FEFEFE" mask="url(#mask-2)"></path>
                <path d="M171.708938,20.5001519 C171.708938,31.3606987 163.271274,39.8680916 152.500303,39.8680916 C141.728726,39.8680916 133.290759,31.3606987 133.290759,20.5001519 C133.290759,9.63960512 141.728726,1.1325161 152.500303,1.1325161 C163.271274,1.1325161 171.708938,9.63960512 171.708938,20.5001519 M132,20.5001519 C132,32.186612 140.813163,41 152.500303,41 C164.18714,41 173,32.186612 173,20.5001519 C173,8.81308411 164.18714,0 152.500303,0 C140.813163,0 132,8.81308411 132,20.5001519" id="Fill-9" fill="#FEFEFE" mask="url(#mask-2)"></path>
                <path d="M182.304098,1.1446287 L190.238587,1.1446287 C195.219263,1.1446287 198.13879,1.80120172 200.314124,3.41086461 C202.303945,4.85201016 203.694983,8.11154681 203.694983,11.3354769 C203.694983,14.4949468 202.303945,17.7093613 200.312899,19.1517347 C198.168484,20.73899 195.154976,21.4167428 190.238587,21.4167428 L182.304098,21.4167428 L182.304098,1.1446287 Z M200.989745,20.1956827 C203.351203,18.4736749 205,14.8077322 205,11.2805323 C205,7.75363931 203.351203,4.0880035 200.990357,2.36660962 C198.315119,0.39566275 194.872422,0 190.184709,0 L181,0 L181,40 L182.304098,40 L182.304098,22.5613715 L190.184709,22.5613715 C194.742318,22.5613715 198.323996,22.1592627 200.989745,20.1956827 L200.989745,20.1956827 Z" id="Fill-10" fill="#FEFEFE" mask="url(#mask-2)"></path>
                <polygon id="Fill-11" fill="#FEFEFE" mask="url(#mask-2)" points="233 1.1446287 233 0 211 0 211 40 233 40 233 38.8553713 212.320632 38.8553713 212.320632 20.4360271 233 20.4360271 233 19.2920123 212.320632 19.2920123 212.320632 1.1446287"></polygon>
                <polygon id="Fill-12" fill="#FEFEFE" mask="url(#mask-2)" points="240.896944 1.1446287 264.92921 1.1446287 264.767913 1.39663733 240 40 265.288294 40 265.288294 38.8553713 242.069564 38.8553713 242.231167 38.6033627 267 0 240.896944 0"></polygon>
            </g>
        </g>
    </g>
</svg>