<?xml version="1.0" encoding="UTF-8"?>
<svg width="305px" height="66px" viewBox="0 0 305 66" version="1.1" xmlns="http://www.w3.org/2000/svg" xmlns:xlink="http://www.w3.org/1999/xlink">
    <!-- Generator: Sketch 53.2 (72643) - https://sketchapp.com/ -->
    <title>Group 15</title>
    <desc>Created with Sketch.</desc>
    <defs>
        <polygon id="path-1" points="0 0.524190476 32.5644384 0.524190476 32.5644384 31.8064762 0 31.8064762"></polygon>
        <polygon id="path-3" points="0.442328103 0.43667234 36.5706458 0.43667234 36.5706458 35.8859489 0.442328103 35.8859489"></polygon>
    </defs>
    <g id="3.-Beauty" stroke="none" stroke-width="1" fill="none" fill-rule="evenodd">
        <g id="Superdrug" transform="translate(-267.000000, -166.000000)">
            <g id="Group-15" transform="translate(267.000000, 166.000000)">
                <g id="Group-3" transform="translate(0.000000, 25.000000)">
                    <mask id="mask-2" fill="white">
                        <use xlink:href="#path-1"></use>
                    </mask>
                    <g id="Clip-2"></g>
                    <path d="M16.7975372,31.8064762 C14.139886,31.8064762 12.7884209,31.7401905 10.3141884,31.5565714 C9.28735116,31.4986667 8.38867674,31.2700952 7.59514186,31.0681905 C7.35646744,31.0064762 7.1154907,30.9447619 6.87297907,30.8899048 C5.46318837,30.5394286 4.54609535,30.0213333 3.65816512,29.5207619 C3.38035116,29.3645714 3.09563023,29.2045714 2.7871186,29.0445714 C2.42335116,28.8579048 2.15167674,28.5371429 2.02888605,28.1500952 C1.90686279,27.7630476 1.9437,27.3455238 2.13325814,26.9866667 L2.59602558,26.1081905 C2.78558372,25.7485714 3.11021163,25.480381 3.49776977,25.3584762 C3.64742093,25.3127619 3.8009093,25.2891429 3.95439767,25.2891429 C4.20151395,25.2891429 4.44863023,25.3493333 4.67042093,25.4659048 C5.03802558,25.656381 5.36265349,25.8392381 5.66732791,26.0106667 C6.46853721,26.4609524 6.99730465,26.7588571 7.8269093,26.9638095 C8.07786279,27.0224762 8.33725814,27.088 8.58897907,27.152 C9.30807209,27.3348571 9.92893256,27.4925714 10.5781884,27.527619 C13.0086767,27.7081905 14.2404209,27.7660952 16.7975372,27.7660952 L16.9702116,27.7660952 L17.2303744,27.7660952 C19.7038395,27.7660952 21.3576767,27.7127619 22.1458395,27.6038095 C23.0790488,27.4925714 24.6661186,26.6499048 25.1004907,26.1401905 C25.5233512,25.6700952 25.8073047,24.944 25.8042349,24.3817143 C25.8042349,24.1828571 25.7758395,24.0129524 25.7213512,23.8841905 C25.5494442,23.4354286 24.3276767,22.5607619 22.1926535,21.9611429 C19.0737698,20.9828571 15.8021651,20.192 12.6380023,19.4278095 L10.8122581,18.9851429 C10.4538628,18.8944762 10.0732116,18.807619 9.66953721,18.7169524 C6.72716512,18.0464762 2.28060698,17.0354286 0.5577,13.223619 C0.184723256,12.3664762 -0.000230232558,11.5314286 -0.000230232558,10.7238095 C0.0887930233,7.05828571 3.39416512,5.21904762 5.58137442,4.00304762 C5.96509535,3.79047619 6.32502558,3.59161905 6.64044419,3.39733333 C9.10009535,1.97790476 11.5029558,1.25790476 14.7170023,0.966095238 C15.202793,0.928 15.7561186,0.872380952 16.345514,0.813714286 C17.7008163,0.679619048 19.2364674,0.525714286 20.4697465,0.524190476 C20.5902349,0.524190476 20.7007465,0.527238095 20.8104907,0.530285714 L21.1727233,0.539428571 C23.0683047,0.585904762 25.215607,0.637714286 27.0943047,1.18857143 C27.1257698,1.19771429 27.1580023,1.20838095 27.1894674,1.21904762 L27.3099558,1.264 C29.0459093,1.89409524 32.2783744,3.06895238 32.5592581,6.12419048 C32.5638628,6.17752381 32.5653977,6.23161905 32.5638628,6.28571429 C32.5316302,8.42971429 31.1463977,10.2735238 30.1341419,11.6205714 L29.8578628,11.9900952 C29.6161186,12.32 29.2508163,12.5371429 28.845607,12.5980952 C28.7711651,12.6087619 28.6951884,12.6148571 28.6207465,12.6148571 C28.2899791,12.6148571 27.966886,12.5081905 27.6982814,12.3093333 L26.9001419,11.7142857 C26.5724442,11.4697143 26.356793,11.1055238 26.3023047,10.7017143 C26.2470488,10.2994286 26.3552581,9.89104762 26.6039093,9.5687619 C27.801886,8.01828571 28.4373279,6.95619048 28.494886,6.40761905 C28.1917465,6.06247619 27.1242349,5.41028571 25.920886,5.05295238 C24.5901419,4.65980952 22.6170488,4.61180952 20.8757233,4.56990476 L20.6961419,4.56533333 L20.4712814,4.56380952 C19.4636302,4.56380952 18.0361884,4.704 16.7791186,4.82895238 C16.152886,4.89219048 15.5619558,4.95085714 15.058514,4.98971429 C12.4346302,5.2327619 10.6510953,5.75847619 8.72251395,6.864 C8.48383953,7.00114286 8.23058372,7.14285714 7.9681186,7.28914286 C6.40023488,8.16609524 4.02730465,9.49180952 4.06797907,10.6712381 C4.06951395,10.9820952 4.13935116,11.2685714 4.28209535,11.6 C5.09251395,13.552 8.53142093,14.327619 11.0417233,14.8944762 L11.7669558,15.0598095 L13.552793,15.4925714 C16.7913977,16.2735238 20.1397465,17.0834286 23.3668395,18.096 C24.9531419,18.5874286 28.2677233,19.6129524 29.4633977,22.3017143 C29.7396767,22.9638095 29.8716767,23.6495238 29.8716767,24.3733333 C29.8655372,25.9710476 29.2462116,27.5771429 28.1733279,28.7870476 C26.9530953,30.135619 24.6630488,31.3158095 22.7160488,31.6022857 C21.2057233,31.8049524 18.5534442,31.8049524 16.9702116,31.8049524 L16.7975372,31.8064762 Z" id="Fill-1" fill="#FEFEFE" mask="url(#mask-2)"></path>
                </g>
                <path d="M72.7751541,64 L71.7884271,64 C70.949823,64 70.2692168,63.3166926 70.2692168,62.4755228 L70.2676976,61.7190039 L70.2676976,60.9571466 C70.2676976,56.4996334 70.2866878,52.1549878 70.5252038,47.9964216 C70.5715397,47.1964333 71.2240405,46.5695597 72.0208662,46.5581204 L73.0045549,46.5436307 L73.0281026,46.5436307 C73.8401205,46.5436307 74.5093326,47.1865192 74.5435148,48.0032851 C74.6111197,48.6042296 75.9039676,50.3376646 76.4926616,50.6045816 C76.5207669,50.6175461 76.5473531,50.6312733 76.5746989,50.6450004 C77.3107563,51.0362244 78.338502,51.277975 79.2545858,51.277975 C79.3624497,51.277975 79.4513235,51.2764497 79.5379185,51.2741619 C80.2215631,51.2421318 80.95838,51.1818848 81.702793,51.1208753 C82.5117725,51.0537647 83.328348,50.9874168 84.1046644,50.9546241 C85.1202565,50.934796 86.508055,50.8661602 87.2380355,50.4940017 C87.5760598,50.3170739 87.906488,50.1424339 87.9649776,48.9969789 C87.9702949,48.8307277 87.9748525,48.6248203 87.9748525,48.402898 C87.9763717,47.2277007 87.8624309,45.4950283 87.7492498,44.2992403 C87.660376,43.5396709 87.660376,43.5396709 86.0788781,42.8525504 L85.8471986,42.7511219 C84.5049763,42.163142 83.0313424,42.0418854 81.2363955,42.0418854 C80.8672274,42.0418854 80.4972997,42.0479864 80.1220548,42.0525621 C79.7285793,42.0571378 79.3297867,42.0617135 78.9271959,42.0617135 C77.8158937,42.0617135 74.808617,42.3621858 73.612239,42.5429267 C72.3642077,42.7823893 71.5772568,43.4763734 70.3064375,44.939841 L69.9737304,45.2997976 C69.3045183,46.0197108 68.8191307,46.5405802 68.2577825,47.2925234 C68.0785157,47.531986 67.9106429,47.7744992 67.7420106,48.0208254 C67.3903134,48.5340686 67.0249434,49.0640894 66.5441133,49.5979233 C66.2265984,49.9952483 65.9197179,50.461209 65.5923281,50.9530989 C64.7362532,52.2487901 63.7639586,53.7160707 62.1247308,54.7303552 C61.1683879,55.2939313 60.2120451,55.5699997 59.2549426,55.5699997 C55.033817,55.457132 52.9319897,50.7837973 52.1245294,48.7842079 C51.1408408,50.3063972 49.9102805,51.7195319 48.464752,52.9786173 C47.395228,53.8708826 45.4536773,55.4883994 43.0730749,55.5120406 C42.9219134,55.5120406 42.7851845,55.5067023 42.6332635,55.4929751 C39.3517694,55.1147156 37.5325151,51.8804447 36.7561987,50.4985774 C34.7037457,46.7663157 34.3725579,43.4962016 34.0223799,40.0346699 L34.0079474,39.8951104 C33.9228716,39.0577538 34.5305557,38.3088611 35.3646021,38.2242102 L36.3467716,38.1227818 C36.3991843,38.1166808 36.4508375,38.1151556 36.5032502,38.1151556 C36.8503897,38.1151556 37.1876544,38.2348869 37.4611123,38.4568093 C37.7740696,38.712287 37.9723265,39.0829202 38.0125856,39.4840583 L38.0247393,39.6037896 C38.3627635,42.9173731 38.6293849,45.5354472 40.2731704,48.5340686 C41.3237043,50.4955269 42.4008243,51.4282111 42.9606533,51.4663421 L43.0578828,51.4709178 C43.4361661,51.4709178 44.25578,51.2688235 45.8410759,49.9121227 C49.0086292,47.1522013 50.7861052,43.6113572 50.8354795,39.9492564 C50.846114,39.1553691 51.4598749,38.5025665 52.2491047,38.4476579 L53.2312741,38.3790221 C53.2669755,38.3759716 53.302677,38.3759716 53.3368592,38.3759716 C54.083551,38.3759716 54.7269365,38.9242953 54.8401177,39.6754759 C54.9882407,40.674508 55.0490091,41.6933681 55.1067391,42.6779104 C55.2009301,44.2832253 55.2905635,45.7977884 55.7402498,46.9737483 C56.7444477,49.7077406 58.3236668,51.5319274 59.1744245,51.5319274 C59.4904202,51.5288769 59.7517244,51.4427008 60.0540472,51.265773 C60.8523922,50.788373 61.4881817,49.8411991 62.2234794,48.743789 C62.6017628,48.1809756 62.9929594,47.5968087 63.4449245,47.0233186 C63.466953,46.9951016 63.488222,46.9684099 63.5132889,46.9440061 C63.824727,46.5993019 64.0989445,46.1996891 64.4179786,45.7383041 C64.6131971,45.4568973 64.8152521,45.1663391 65.0362972,44.8666295 C65.7290571,43.9415716 66.3238279,43.3017335 67.0120301,42.5612296 L67.3143529,42.2363535 C68.6641712,40.6714575 70.2433903,39.0638548 72.9445461,38.559763 C74.2335959,38.3652949 77.4239374,38.0213534 78.9256767,38.0198281 C79.3039601,38.0198281 79.6799646,38.0137272 80.058248,38.0091514 C80.4502042,38.0045757 80.8429201,38 81.2363955,38 C83.2288397,38.0015252 85.3580129,38.1288828 87.4469269,39.0417388 C89.0246268,39.6625114 91.4880262,40.6318012 91.7584456,43.934708 C91.8739056,45.1732027 92,47.0126419 92,48.402898 C92,48.6812542 91.9954424,48.9466459 91.9848079,49.1807702 C91.9270779,51.4266858 90.847679,53.234095 89.0246268,54.114921 C87.5433968,54.8538996 85.8471986,54.9538028 84.2391145,54.9919338 C83.5683832,55.0224386 82.8163741,55.0842108 82.0575286,55.145983 C81.2675393,55.2115684 80.4707135,55.2756284 79.7164257,55.3091837 C79.5629854,55.3152847 79.4186605,55.3183351 79.2728163,55.3183351 C77.6647322,55.3168099 76.0452541,54.929399 74.7106279,54.2270261 C74.5868123,54.1599155 74.4629967,54.0882293 74.339181,54.0089168 C74.2966432,56.2838119 74.2928451,58.6014138 74.2928451,60.9571466 L74.2943643,61.7129029 L74.2943643,62.4755228 C74.2943643,63.3166926 73.6137582,64 72.7751541,64" id="Fill-4" fill="#FEFEFE"></path>
                <path d="M109.305708,56 C107.562137,56 106.153455,55.9063145 105.001316,55.7135237 C103.233934,55.3612354 100.191518,54.0581555 98.8074143,52.2386442 C97.5968999,50.7040606 97.0177578,48.1908121 97.0008598,46.5129904 C96.9417166,41.8612354 99.9388152,38.553596 104.45597,38.285702 C106.963793,38.1486579 109.101395,38.0874914 111.389544,38.0874914 L111.878819,38.0828458 C112.088509,38.0797488 112.312024,38.0766518 112.541684,38.0766518 C113.869716,38.0859429 115.260732,38.1579491 116.509652,38.8834308 C118.320047,39.9712663 119.349291,42.0013765 119.345451,44.4658465 C119.375406,46.6004818 118.075793,48.3998624 115.952016,49.1346352 C114.498016,49.6673262 112.822806,49.747075 111.232853,49.7540434 C110.91179,49.7540434 110.607626,49.7509463 110.319591,49.747075 C110.074569,49.743978 109.844141,49.7408809 109.629843,49.7408809 C108.781869,49.7408809 108.093658,49.0471438 108.093658,48.1923606 L108.093658,47.1858224 C108.093658,46.3310392 108.781869,45.6373021 109.629843,45.6373021 C109.865648,45.6373021 110.117582,45.6411734 110.377966,45.642722 C110.650639,45.645819 110.934833,45.648916 111.228245,45.648916 L111.305822,45.648916 C111.863458,45.648916 113.56632,45.648916 114.572521,45.2726256 C115.264573,44.9985375 115.266109,44.8669133 115.27379,44.4364246 C115.27379,43.9950964 115.193908,42.8592567 114.46038,42.4287681 C114.417366,42.4032175 114.035624,42.1802306 112.636159,42.1802306 L112.550901,42.1802306 C112.341979,42.1802306 112.143811,42.1833276 111.952556,42.1864246 C111.758229,42.1879732 111.569278,42.1910702 111.389544,42.1910702 C109.162075,42.1910702 107.157352,42.2483655 104.68947,42.3830867 C102.236949,42.5758775 101.108621,43.8534067 101.070984,46.5199587 C101.060231,47.4668789 101.550274,49.1570888 101.990391,49.6866827 C102.021115,49.7222987 102.04723,49.7586889 102.074113,49.7966277 C102.466609,50.3664831 104.647993,51.4984515 105.66418,51.6625946 C106.567457,51.8158981 107.823289,51.8956469 109.305708,51.8956469 C111.666058,51.8956469 113.941149,51.6989849 114.809862,51.6145905 C117.562707,51.3420509 119.177238,50.7087061 121.717321,48.9070028 C123.036905,48.0212491 124.23513,46.6678424 125.39495,45.3585685 C125.8704,44.827426 126.250606,44.2343427 126.653855,43.6056435 C127.299053,42.5991053 128.029509,41.4578458 129.180112,40.4799553 C129.700879,40.0363042 130.489711,39.3650206 131.662588,39.3425671 C132.71718,39.3526325 133.475288,39.8597729 134.021402,40.2995526 C135.228844,41.2294391 135.370941,42.4705781 135.454663,43.2115451 C135.471561,43.3555575 135.483083,43.4956986 135.514574,43.6234515 C135.645918,44.2436339 135.678946,45.0442189 135.708902,45.7511184 C135.722728,46.0631452 135.72964,46.3349105 135.749611,46.488214 C135.752683,46.5168617 135.755756,46.5455093 135.757292,46.5733827 C135.821043,47.4653304 135.980807,48.6166552 136.125976,49.2523228 C136.378679,50.2658293 136.569934,50.9038197 136.910199,51.5704577 C137.290405,51.3134033 137.771231,50.8565898 137.901039,50.5964384 C138.407212,49.5883517 138.776665,48.7056951 139.136132,47.8540089 C139.849691,46.1622505 140.52254,44.5657261 141.832139,42.8964212 C142.957395,41.4926875 144.194024,40.0363042 145.972159,38.8663971 C146.946869,38.2709911 148.047546,38.0046456 149.483112,38 C150.328014,38 151.136048,38.0991053 151.672177,38.17266 C152.076194,38.2284067 152.441038,38.4436511 152.688364,38.7719374 C152.93569,39.0986752 153.040918,39.5121301 152.985616,39.9201652 L152.848127,40.9174123 C152.740594,41.6908981 152.082338,42.2522368 151.328071,42.2522368 C151.258175,42.2522368 151.188278,42.2468169 151.117614,42.2375258 C150.457822,42.1461631 149.940127,42.1035788 149.487721,42.1035788 C148.768017,42.1035788 148.321755,42.2259119 148.154311,42.3296628 C146.921522,43.1418617 145.923769,44.3218341 145.009739,45.4607708 C144.077274,46.6376462 143.559579,47.8609773 142.904396,49.4125946 C142.533407,50.2898314 142.113261,51.2847557 141.561002,52.3888507 C140.677695,54.017894 138.788186,55.7592051 136.671322,55.8459222 C136.651352,55.8474708 136.598353,55.8474708 136.577615,55.8474708 C135.441606,55.8474708 134.380869,55.2474191 133.737975,54.2416552 C132.845452,52.7759807 132.499042,51.5511012 132.167225,50.2108568 C131.932957,49.1841879 131.764745,47.8114246 131.700225,46.8939264 C131.676414,46.7042326 131.654139,46.2729697 131.634169,45.8200275 C131.616503,45.4174123 131.586547,44.7445802 131.550447,44.5579835 C131.503593,44.3187371 131.472101,44.1228493 131.448291,43.9501893 C130.969769,44.4495871 130.573433,45.0620268 130.131011,45.7495699 C129.670924,46.4626635 129.150157,47.2709911 128.46809,48.0483482 L128.331369,48.2055231 C127.109334,49.5813833 125.72523,51.1430661 124.020832,52.2905196 C121.008372,54.4452856 118.608081,55.3767206 115.197749,55.7019098 C114.032552,55.8141776 111.716752,56 109.305708,56" id="Fill-6" fill="#FEFEFE"></path>
                <path d="M179.858386,56 C177.459633,56 175.549021,54.7080606 174.745877,52.5455804 C174.101379,50.9034751 174.096803,49.0169286 174.092989,47.6395097 C174.092989,46.5815141 174.089176,45.5212689 174.080786,44.4587743 C173.224252,44.3575487 172.381447,44.0831146 171.678982,43.8536698 C171.342623,43.7449459 170.962026,43.619726 170.791939,43.5919827 C170.760668,43.5874838 170.728633,43.5814852 170.698887,43.5732372 C168.514459,43.070858 166.086722,43.0303677 163.585002,43.0303677 L163.420255,43.0303677 L162.641518,43.0303677 C161.304471,43.0303677 160.071916,43.3692862 159.536487,43.8761644 C158.681479,44.7129632 158.091896,46.0311464 158.049947,47.2143619 C158.04232,47.3538284 158.04232,47.4558039 158.04232,47.5615285 C158.086557,51.4658399 160.226748,51.7057823 160.929976,51.786013 C161.219046,51.8175054 161.556168,51.8310022 161.952783,51.8310022 C162.525585,51.8310022 163.096099,51.8010094 163.663562,51.7717664 C164.267636,51.7410238 164.865608,51.711031 165.436885,51.7087815 C166.056976,51.7087815 166.754865,51.6840375 167.470296,51.6592934 C168.255897,51.6300505 169.063617,51.6023071 169.82176,51.6008075 C170.133712,51.6008075 170.439563,51.6068061 170.731684,51.6173035 C171.572964,51.6517952 172.22814,52.3491276 172.19458,53.175429 L172.154919,54.1501947 C172.138902,54.5490988 171.961188,54.9247585 171.663728,55.1954434 C171.380759,55.4511319 171.012365,55.5913482 170.630243,55.5913482 C170.608124,55.5913482 170.586005,55.5913482 170.563886,55.5898486 C170.328968,55.5786013 170.081847,55.575602 169.823285,55.575602 C169.131499,55.575602 168.384034,55.6025955 167.64267,55.6288392 C166.878425,55.6573324 166.123333,55.6850757 165.438411,55.6850757 C164.939592,55.6850757 164.42018,55.7113194 163.880175,55.7390627 C163.252457,55.7720548 162.600331,55.8050469 161.954308,55.8065465 C161.415065,55.8065465 160.933789,55.7833021 160.486073,55.7345638 C156.49705,55.3169142 153.952618,52.1031867 154.000669,47.5457823 C154.000669,47.3898198 154.00372,47.209863 154.012872,47.0389041 C154.097534,44.8359337 155.08068,42.6404614 156.706798,41.0373468 C158.48546,39.4064888 160.90862,39.064571 162.635417,39.056323 L163.022115,39.056323 L163.41873,39.0548234 C165.815957,39.056323 168.79819,39.0585725 171.595083,39.6974189 C172.013816,39.7821485 172.510346,39.9396107 173.037385,40.1075703 C173.334846,40.2027974 173.719257,40.3265177 174.049514,40.4134968 C174.041124,39.2610238 174.035023,38.1055516 174.035023,36.9478298 C174.035023,35.0350397 174.055616,33.2632156 174.095277,31.5318818 C174.11282,30.7565681 174.727572,30.1237203 175.515461,30.0704831 L176.500132,30.0037491 C176.535217,30 176.571065,30 176.60615,30 C177.345988,30 177.986672,30.524124 178.110233,31.2529488 C178.270404,32.2059697 178.347439,33.2692141 178.347439,34.5993944 C178.347439,35.3244701 178.324557,36.0525451 178.303964,36.7671233 C178.284896,37.4269647 178.265828,38.0755588 178.265828,38.7009084 C178.265828,38.8223792 178.268879,38.964845 178.271929,39.1208075 C178.277269,39.3345061 178.28337,39.5699495 178.28337,39.8128911 C178.275743,40.2965249 178.264302,40.9751118 178.104131,41.6581975 L178.108708,42.3585292 C178.123199,44.1221053 178.136928,45.8834319 178.136928,47.6365105 C178.133877,48.8789618 178.177352,50.2638789 178.522864,51.1321702 C178.788291,51.7597693 178.983547,52.0094593 179.953726,52.0244557 C180.669157,52.0244557 181.431876,51.2656381 182.315868,50.3853497 L182.766636,49.9399567 C183.865714,48.8842105 184.179955,48.3968277 184.938098,47.2196107 L185.282085,46.6887383 C185.466663,46.4090555 185.612342,46.1556164 185.758022,45.9051766 C186.048618,45.4057967 186.378875,44.8389329 186.919643,44.1595963 C187.36736,43.6024802 188.062197,42.8826532 188.676186,42.2460562 C188.950765,41.9618745 189.203988,41.6986878 189.40077,41.4864888 C190.274847,40.5649603 191.167991,40.1203172 192.145035,40.1113194 C192.857415,40.1203172 194.133445,40.3760058 195.02964,41.9873684 C195.382779,42.617217 195.654307,43.3940303 195.860242,44.3575487 C196.117278,45.6299928 196.247703,46.7487239 196.387281,47.9319394 C196.531435,49.160894 196.680928,50.4288392 196.982202,51.9652199 C197.156865,51.9007354 197.416952,51.7545205 197.577123,51.5205768 C197.847126,51.1344196 198.201028,50.4895746 198.511455,49.9212112 C198.668575,49.6370296 198.817305,49.3625955 198.953832,49.1271521 C199.181122,48.7327469 199.317649,48.4508147 199.451888,48.1711319 C199.634941,47.7902235 199.82562,47.397318 200.18181,46.8072098 C200.435033,46.3918097 200.653171,45.9651622 200.884275,45.5137707 C201.552417,44.2143331 202.311323,42.7431867 203.971764,41.4557462 C204.125833,41.3365249 204.282953,41.1918097 204.450752,41.0388464 C204.968638,40.5724585 205.609323,39.9943475 206.434585,39.6351839 C207.570274,39.077318 208.967577,39.0660707 209.897332,39.0600721 L210.159707,39.0585725 C210.69895,39.0585725 211.09175,39.0833165 211.475398,39.1095602 C211.782012,39.1298053 212.08176,39.1500505 212.452442,39.1500505 C213.295247,39.1500505 214,39.8226388 214,40.6504398 L214,41.6252055 C214,42.0226099 213.838303,42.405018 213.550758,42.6877001 C213.265501,42.9681327 212.876514,43.1255948 212.470747,43.1255948 C211.956674,43.1240952 211.560823,43.0971017 211.176412,43.070858 C210.869799,43.0506128 210.573101,43.0303677 210.204708,43.0303677 L209.969027,43.0273684 C209.053001,43.0273684 208.401639,43.1225955 208.231552,43.1900793 C208.175874,43.2208219 208.137738,43.2365681 208.077483,43.2613122 C207.898244,43.3362942 207.461968,43.7224513 207.17366,43.9788897 C206.950183,44.1768421 206.722893,44.3762942 206.497891,44.5570007 C205.534576,45.2970728 205.099826,46.1353713 204.498803,47.2983417 C204.248631,47.779726 203.983205,48.2896035 203.665913,48.827974 C203.402012,49.2561211 203.273875,49.5208075 203.110653,49.859726 C202.948194,50.1971449 202.774294,50.5570584 202.474545,51.0796828 C202.354036,51.2888825 202.222085,51.5303244 202.082507,51.786013 C201.725555,52.4361067 201.322839,53.1709301 200.920886,53.7527902 C199.965961,55.1152127 198.379504,55.9655083 196.777793,55.9752559 C194.886249,55.9752559 193.390556,54.7493006 193.070214,52.9947224 C192.698769,51.1771593 192.524106,49.6790195 192.368512,48.3585869 C192.238849,47.2601009 192.11834,46.2216006 191.899439,45.1546071 C191.871219,45.0233886 191.84071,44.8959193 191.809438,44.772199 C191.736217,44.8494304 191.661471,44.9266619 191.585199,45.0061428 C191.031464,45.5805047 190.405272,46.2320981 190.099421,46.6137563 C189.753146,47.0449027 189.546449,47.3988176 189.286362,47.8449603 C189.112462,48.1471377 188.924833,48.4650613 188.685339,48.8339726 L188.38559,49.298111 C187.561091,50.5788032 187.016509,51.42385 185.596325,52.7795242 C185.41251,52.9527325 185.237084,53.1289402 185.055557,53.3081471 C183.931308,54.4328767 182.390615,55.9737563 179.943811,55.9985004 C179.939234,55.9985004 179.863725,56 179.858386,56" id="Fill-8" fill="#FEFEFE"></path>
                <path d="M257.953756,59.9623147 L257.953756,59.9668177 C257.925681,60.1251709 257.912023,60.2617599 257.912023,60.3758342 C257.913541,60.5777158 257.915817,60.6602696 258.214016,61.0175025 C258.921954,61.8227773 259.421229,62.0073977 261.000243,62.0224075 C261.336381,62.0224075 261.719563,62.0103996 262.135372,61.9893859 C263.323616,61.9323488 264.388179,61.2246375 265.483093,59.7596827 C266.508199,58.382535 267.182752,57.001635 267.581109,55.4391166 C266.028653,55.4511244 264.457227,55.5396821 263.232562,56.033504 L262.907047,56.1565842 C261.472201,56.6991879 260.435713,57.0916937 259.47055,57.9104774 C259.060811,58.2564529 258.127516,59.5240291 257.953756,59.9623147 M260.98355,66 L260.865939,66 C259.149587,66 256.946101,65.7230695 255.124279,63.5654132 C254.301007,62.6182959 253.87761,61.533839 253.888992,60.3608245 C253.888992,60.0388646 253.92086,59.6853842 253.987632,59.2996328 C254.413306,57.2050176 256.687358,55.0428583 256.785241,54.9505481 C256.80421,54.9340374 256.823179,54.9145246 256.843666,54.8995149 C258.349078,53.6214318 259.833245,53.0615669 261.403153,52.4686805 L261.754466,52.3358439 C263.84186,51.5020504 266.146263,51.4637755 268.040927,51.4592726 C268.042445,51.2934145 268.043963,51.1268059 268.043963,50.9594468 C268.043963,50.389075 268.029546,49.8111984 268.000712,49.2183119 C267.98326,48.8265566 267.978708,48.4242944 267.975673,48.0190303 C267.965809,47.0839208 267.958221,46.1165402 267.768527,45.5078935 C267.422525,44.3423839 266.653126,43.8252968 265.099911,42.9922539 C264.222765,42.5201962 263.026934,42.4368919 261.774953,42.3866091 C260.637548,42.3550886 259.477379,42.325069 258.320245,42.325069 C257.060676,42.325069 255.961968,42.3625935 254.966454,42.4428958 C254.725922,42.4601571 254.482355,42.4759173 254.238787,42.4916776 C253.184088,42.5569702 251.989775,42.6327696 251.429798,43.0297783 C250.581486,43.573883 250.278734,44.129245 250.125461,45.3547937 C250.120909,45.4095795 250.120909,45.4921333 250.120909,45.5754376 C250.092075,48.0422954 253.819184,48.9496368 254.96266,49.1702806 L255.730542,49.315125 C256.244233,49.4126886 256.670665,49.764668 256.860359,50.2464821 C257.050053,50.7290466 256.974935,51.2731513 256.662319,51.6866708 L256.191878,52.3110778 C254.049852,55.1336675 250.760557,55.4608808 248.471329,55.4608808 C247.814988,55.4593798 247.179892,55.4308612 246.588046,55.4038436 C246.098636,55.3828299 245.640335,55.3625667 245.230596,55.3625667 L245.112985,55.3625667 L245.021932,55.3625667 C240.917712,55.3625667 237.541916,53.2664505 235.257999,49.3001153 C234.960559,48.7912836 234.729891,48.2696936 234.546267,47.7413493 C234.232134,48.2546839 233.914966,48.7432523 233.618284,49.1987992 L233.472599,49.4231955 C232.803358,50.4160926 232.077209,51.3992334 231.304016,52.3613605 C230.051277,53.9403897 228.526137,55.4068455 225.918981,55.4068455 C225.7217,55.4068455 225.55401,55.4023426 225.365833,55.3880833 C222.046946,55.0503632 220.19705,52.0836795 219.203812,50.4903911 C218.219679,49.0014206 217.652114,47.552226 217.271967,45.5311587 C217.136905,44.9682918 217.044334,44.3341285 216.946452,43.6654427 C216.831877,42.8766785 216.617902,41.4117237 216.356883,41.0710016 C216.09207,40.7602991 215.966113,40.3580369 216.007846,39.9520223 C216.04882,39.5467582 216.256725,39.178268 216.579963,38.9276046 L217.354674,38.3234608 C217.624798,38.1133239 217.954866,38 218.294039,38 C218.357776,38 218.423031,38.0045029 218.489044,38.0120078 C218.893472,38.0645421 219.26072,38.27618 219.506563,38.5973894 C220.498284,39.8987376 220.74261,41.7096679 220.936856,43.1641159 C221.012734,43.7269828 221.084818,44.2568281 221.180424,44.5960492 C221.192564,44.6388271 221.200911,44.681605 221.209257,44.7236324 C221.515803,46.3394355 221.854217,47.2235118 222.603129,48.3642553 C224.091089,50.8228578 225.088121,51.3797207 225.668585,51.4224986 C225.725493,51.4255005 225.805924,51.4270015 225.883319,51.4270015 C226.679275,51.4209976 227.057146,51.2273714 228.165718,49.8742395 C228.853169,49.0216838 229.508752,48.1338551 230.108185,47.2445254 L230.221243,47.070412 C230.747833,46.2613847 231.344232,45.3435364 231.794945,44.4669651 C232.686507,42.739339 233.318567,41.4102227 233.313256,40.0278217 C233.311738,39.2743306 233.877027,38.6356643 234.63125,38.5358493 L235.600208,38.4082661 C235.669256,38.3992602 235.736029,38.3940068 235.80356,38.3940068 C236.485699,38.3940068 237.094997,38.8503042 237.270274,39.5189901 C237.579096,40.6935056 237.68836,41.9025436 237.795347,43.0710552 C237.941791,44.6921118 238.080647,46.2253612 238.729401,47.2918063 C240.343318,50.0491034 242.407189,51.3797207 245.049248,51.3842236 L245.12285,51.3842236 L245.230596,51.3842236 C245.713936,51.3842236 246.234457,51.4074888 246.775464,51.432255 C247.314195,51.4547696 247.87569,51.4795358 248.443254,51.4795358 C248.889415,51.4795358 249.297636,51.4637755 249.670954,51.430754 C247.384003,50.0446005 246.117605,48.0205312 246.095601,45.5889464 C246.095601,45.3675521 246.106982,45.1521617 246.128987,44.91951 C246.385453,42.5712295 247.415871,40.8293441 249.189131,39.7268756 C250.670263,38.7204696 252.413931,38.6184031 253.813873,38.5358493 C254.09462,38.520089 254.364744,38.5043287 254.618176,38.4803131 C255.738888,38.3895039 256.943066,38.345225 258.320245,38.345225 C259.522905,38.345225 260.719495,38.3782465 261.913809,38.4097671 C263.417704,38.4780616 265.254701,38.5613659 267.008992,39.4904715 C268.418798,40.2364577 270.778592,41.4852717 271.62311,44.3746549 C271.979735,45.5739366 271.987323,46.8407623 271.994152,47.9604921 C271.995669,48.3327347 271.997187,48.6892171 272.014639,49.0186818 C272.048025,49.6813637 272.066236,50.324533 272.066236,50.9594468 C272.066236,51.1027902 272.064718,51.2461336 272.0632,51.3894771 C272.523019,51.3729663 272.982837,51.3534536 273.443414,51.3346914 C275.079336,51.2663968 276.772166,51.1966014 278.481689,51.1966014 C279.320136,51.1966014 280,51.8697901 280,52.6990807 L280,53.675467 C280,54.5055081 279.320136,55.1764454 278.481689,55.1764454 C276.857908,55.1764454 275.275859,55.2409874 273.599722,55.3092819 C272.971456,55.3347986 272.341671,55.3610657 271.710369,55.3828299 C271.236893,57.8774558 270.269453,60.045619 268.716997,62.1252245 C266.910351,64.5538074 264.75922,65.8461497 262.32886,65.9609746 C261.85159,65.9842397 261.406947,66 260.98355,66" id="Fill-10" fill="#FEFEFE"></path>
                <g id="Group-14" transform="translate(268.000000, 0.000000)">
                    <mask id="mask-4" fill="white">
                        <use xlink:href="#path-3"></use>
                    </mask>
                    <g id="Clip-13"></g>
                    <path d="M7.30857917,14.6612681 C7.73099583,15.0373532 8.11332917,15.4027149 8.49180833,15.7634809 C9.0969125,16.3387149 9.66655833,16.8817787 10.2516208,17.3421191 C10.5661208,17.5879915 10.8536417,17.8415234 11.1334542,18.0889277 C11.4880375,18.4037362 11.7948292,18.6741191 12.1031625,18.875566 C12.5209542,19.1520766 13.788975,19.9862043 13.7566,21.5725021 C13.7512042,21.9868851 13.6725792,22.3530128 13.5885583,22.7428851 L13.483725,23.1986298 C13.2771417,24.0863745 13.09985,24.8523319 12.98885,25.6956511 C12.8570375,26.9288426 12.7059542,28.2585447 12.5224958,29.5062894 C13.8367667,28.7096936 15.0785792,27.9544596 16.0675583,27.1923319 C16.240225,27.0690128 16.443725,26.8821191 16.6418292,26.6990553 C17.4273083,25.9767574 18.6159333,24.8845021 20.2146417,24.8048426 L20.2331417,24.8048426 C20.6185583,24.8048426 20.9376833,24.8553957 21.2252042,24.9488426 C22.2704542,25.301183 22.9403083,25.9882468 23.3843083,26.4424596 C23.5022458,26.5619489 23.6610375,26.7250979 23.7265583,26.7702894 C24.324725,27.227566 24.8966833,27.6266298 25.5750167,28.0601617 C25.5981417,28.0747149 25.619725,28.0892681 25.6405375,28.1038213 L25.9280583,28.3106298 C26.2633708,28.5511404 26.6210375,28.8085021 26.988725,29.0582043 C26.979475,29.027566 26.9679125,28.9969277 26.9578917,28.9662894 C26.6326,27.9904596 26.2649125,26.885183 26.0907042,25.7347149 C25.9982042,25.0024596 25.869475,24.2947149 25.7345792,23.5463745 C25.6621208,23.1419489 25.5888917,22.7352255 25.5202875,22.3246723 C25.4825167,22.0887574 25.4447458,21.8168426 25.4447458,21.521183 C25.4378083,20.3400766 26.0629542,19.6514809 26.4776625,19.1957362 L26.6264333,19.0310553 C26.9170375,18.712417 27.2099542,18.2972681 27.4943917,17.8951404 L27.8104333,17.4508851 C28.440975,16.6182894 29.088475,15.9557362 29.7143917,15.3169277 C30.0219542,15.0021191 30.3225792,14.6949702 30.6062458,14.3816936 C30.3696,14.3763319 30.1159958,14.3686723 29.8392667,14.3556511 L29.5856625,14.3556511 C27.9576625,14.3556511 26.0336625,14.339566 25.1379542,14.249183 C25.092475,14.2445872 25.0469958,14.2376936 25.0030583,14.230034 L24.9375375,14.230034 C24.6107042,14.2139489 24.0641833,14.1856085 23.4452042,13.9029702 C23.40435,13.8853532 23.3650375,13.8662043 23.325725,13.8432255 C22.3290375,13.2794809 21.8056417,12.3312255 21.3863083,11.567566 C21.1874333,11.188417 21.0147667,10.8276511 20.8621417,10.5082468 C20.7372667,10.2424596 20.62935,10.0134383 20.5422458,9.85794894 C20.5268292,9.83267234 20.5144958,9.8081617 20.5013917,9.78211915 C20.2863292,9.34935319 20.0165375,8.91735319 19.7321,8.4600766 C19.3513083,7.84960851 18.9574125,7.21769362 18.6097667,6.46475745 L18.4147458,6.00901277 C18.3785167,5.92475745 18.3430583,5.83897021 18.3076,5.75318298 C18.0647875,6.49845957 17.8743917,7.34867234 17.7132875,8.0694383 C17.6223292,8.47462979 17.535225,8.86603404 17.4434958,9.23139574 C17.4111208,9.36084255 16.6387458,12.3925021 15.2805375,13.7321617 C15.2466208,13.7643319 15.2127042,13.7949702 15.1780167,13.8240766 C14.1389333,14.6788851 12.8724542,14.7110553 11.7570583,14.7386298 L11.5628083,14.7432255 C10.9446,14.7432255 10.3726417,14.7179489 9.92555833,14.6965021 C9.68274583,14.6850128 9.48387083,14.6758213 9.3559125,14.6758213 C8.62207917,14.6758213 7.952225,14.6689277 7.30857917,14.6612681 M9.77524583,35.8859489 C9.607975,35.8859489 9.44070417,35.8591404 9.27805833,35.8039915 C8.79474583,35.6408426 8.42551667,35.2494383 8.28830833,34.7615234 L8.09405833,34.0583745 C7.9846,33.6677362 7.9314125,33.2372681 7.9314125,32.7478213 C7.9360375,31.8056936 8.12951667,30.826034 8.28445417,30.0393957 C8.34149583,29.7521617 8.39468333,29.4856085 8.43014167,29.2542894 C8.6321,27.9498638 8.7962875,26.4830553 8.9304125,25.2207574 C9.07455833,24.1330979 9.28730833,23.213183 9.49389167,22.3246723 L9.55555833,22.061183 C9.136225,21.7609277 8.74926667,21.4162468 8.40085,21.107566 C8.17499583,20.9053532 7.95530833,20.710034 7.72945417,20.5353957 C6.95014167,19.919566 6.27720417,19.2761617 5.62430833,18.6542043 C5.20805833,18.2582043 4.8002875,17.867566 4.3840375,17.5068 C3.11755833,16.4758213 1.5350375,15.0542043 0.8436,13.4602468 L0.560704167,12.7846723 C0.367225,12.3212681 0.412704167,11.7942894 0.6840375,11.3707149 C0.9546,10.9486723 1.4171,10.684417 1.92045417,10.6645021 L2.63887083,10.6353957 C3.47137083,10.6016936 4.2961625,10.5856085 5.2350375,10.5856085 C5.88176667,10.5856085 6.51462083,10.5932681 7.1682875,10.6001617 C7.85818333,10.6078213 8.571975,10.6162468 9.3559125,10.6162468 C9.5640375,10.6177787 9.83999583,10.6292681 10.1591208,10.6438213 C10.5591833,10.6614383 11.0394125,10.684417 11.5204125,10.684417 L11.7138917,10.6874809 C12.0569125,10.6874809 12.3529125,10.6560766 12.5571833,10.6239064 C12.8655167,10.0655234 13.3696417,8.81241702 13.4575167,8.34365106 C13.465225,8.30228936 13.4752458,8.2601617 13.4868083,8.21803404 C13.5939542,7.83811915 13.6864542,7.40688511 13.7858917,6.94960851 C14.2121625,4.9895234 14.7964542,2.30331064 16.8661417,0.746885106 C17.1359333,0.54467234 17.4635375,0.43667234 17.7980792,0.43667234 C17.8713083,0.43667234 17.9460792,0.441268085 18.02085,0.452757447 C18.1542042,0.471906383 18.284475,0.509438298 18.4078083,0.562289362 C18.5511833,0.509438298 18.7022667,0.476502128 18.857975,0.468842553 C18.8849542,0.467310638 18.9127042,0.467310638 18.9381417,0.467310638 C19.3220167,0.467310638 19.6912458,0.607480851 19.9764542,0.864842553 C21.105725,1.8828 21.6622667,3.2094383 22.1108917,4.27641702 C22.1864333,4.45718298 22.2604333,4.63335319 22.3336625,4.80109787 C22.5502667,5.26833191 22.8562875,5.76160851 23.1815792,6.28322553 C23.5037875,6.79871489 23.8352458,7.33411915 24.1458917,7.94611915 C24.2561208,8.13990638 24.407975,8.45854468 24.5721625,8.80475745 C24.7032042,9.08050213 24.8434958,9.37692766 24.9930375,9.66262979 C25.1024958,9.87939574 25.2096417,10.0570979 25.2975167,10.1865447 C25.3915583,10.1942043 25.4894542,10.2026298 25.5888917,10.2133532 C25.8247667,10.2378638 26.7266417,10.2976085 29.9356208,10.2976085 C30.522225,10.3221191 30.9369333,10.3267149 31.3069333,10.3267149 L31.6576625,10.3267149 L31.98835,10.325183 C32.7137042,10.325183 33.5331,10.3428 34.8581625,10.5641617 L35.2266208,10.6254383 C35.8980167,10.7388 36.4152458,11.2742043 36.4992667,11.944417 L36.5470583,12.3151404 C36.5632458,12.4277362 36.5709542,12.5548851 36.5709542,12.6942894 C36.5709542,12.7218638 36.5694125,12.7494383 36.5694125,12.7770128 C36.4907875,14.1925021 35.5673292,14.932417 35.1233292,15.2862894 C35.0739958,15.3268851 35.0262042,15.3636511 34.98535,15.401183 C34.9398708,15.4548 34.925225,15.4678213 34.8720375,15.5160766 C34.7379125,15.6325021 34.6130375,15.8148 34.4372875,16.0683319 C34.277725,16.2996511 34.1027458,16.5501191 33.8830583,16.822034 C33.4344333,17.3390553 33.0112458,17.7725872 32.6027042,18.1885021 C32.0500167,18.7545447 31.5281625,19.289183 31.1034333,19.8552255 C31.0224958,19.9662894 30.9261417,20.1026298 30.8251625,20.2466298 C30.4983292,20.710034 30.1275583,21.2370128 29.6835583,21.7233957 C29.6488708,21.7632255 29.6141833,21.8022894 29.5818083,21.8413532 C29.6334542,22.151566 29.689725,22.4617787 29.7467667,22.7750553 C29.8886,23.554034 30.0327458,24.3590553 30.1368083,25.1786298 C30.2462667,25.9200766 30.5376417,26.7909702 30.8444333,27.7139489 C30.956975,28.0548 31.0710583,28.396417 31.1751208,28.7342043 C31.2452667,28.9808426 31.3192667,29.1930128 31.3978917,29.4174383 C31.6530375,30.1481617 31.9683083,31.0558213 31.9767875,32.1082468 C31.9767875,32.3908851 31.9528917,32.662034 31.9066417,32.9278213 L31.8272458,33.3797362 C31.696975,34.120417 31.0517875,34.6504596 30.309475,34.6504596 C30.2586,34.6504596 30.2084958,34.6466298 30.15685,34.642034 L29.6951208,34.5968426 C27.3926417,34.3509702 25.3522458,32.8933532 23.8645375,31.8302043 C23.6664333,31.6877362 23.4775792,31.5521617 23.2948917,31.4265447 C22.5633708,30.9570128 21.90585,30.502034 21.2783917,30.0233106 C20.9307458,29.7422043 20.6601833,29.477183 20.4250792,29.2443319 C20.3549333,29.1769277 20.2763083,29.0988 20.2007667,29.026034 C19.8739333,29.2703745 19.4353292,29.6533532 19.1647667,29.8908 C18.9728292,30.0600766 18.7870583,30.2216936 18.6197875,30.3610979 C17.3625583,31.3277362 15.9457667,32.1871404 14.575225,33.0182043 C13.3619333,33.7550553 12.2133917,34.4513106 11.2876208,35.1414383 L10.7002458,35.579566 C10.4296833,35.7817787 10.1036208,35.8859489 9.77524583,35.8859489" id="Fill-12" fill="#FEFEFE" mask="url(#mask-4)"></path>
                </g>
            </g>
        </g>
    </g>
</svg>