<?xml version="1.0" encoding="UTF-8"?>
<svg width="203px" height="130px" viewBox="0 0 203 130" version="1.1" xmlns="http://www.w3.org/2000/svg" xmlns:xlink="http://www.w3.org/1999/xlink">
    <!-- Generator: Sketch 53.2 (72643) - https://sketchapp.com/ -->
    <title>Rectangle Copy 3</title>
    <desc>Created with Sketch.</desc>
    <defs>
        <polygon id="path-1" points="3.13286713 3.13580247 3.13286713 -2.42807997e-13 1.15e-14 -3.109e-13 1.15e-14 3.13580247 3.13286713 3.13580247"></polygon>
    </defs>
    <g id="Design-Round-5" stroke="none" stroke-width="1" fill="none" fill-rule="evenodd">
        <g id="4.About-Copy-3" transform="translate(-266.000000, -2187.000000)">
            <g id="Page-1" transform="translate(266.000000, 2187.000000)">
                <path d="M161.67741,94.9382716 C163.101781,94.9382716 164.327044,95.7654799 164.871414,96.9512118 C165.290954,97.8652135 165.323967,99.0285794 165.069835,99.9999982 C164.679182,101.496184 163.379641,102.957985 160.641284,104.345679 L159.885769,103.353229 C160.421541,102.91993 160.972101,102.472276 161.194939,102.145131 C161.593158,101.560277 161.07286,101.704154 160.63475,101.571293 C159.213473,101.140664 158.181818,99.8534509 158.181818,98.3315613 C158.181818,96.4578244 159.747183,94.9382716 161.67741,94.9382716 L161.67741,94.9382716 Z M151.132867,108.265432 C152.8633,108.265432 154.265734,109.66918 154.265734,111.400907 C154.265734,113.132961 152.8633,114.537037 151.132867,114.537037 C149.402434,114.537037 148,113.132961 148,111.400907 C148,109.66918 149.402434,108.265432 151.132867,108.265432 L151.132867,108.265432 Z M150.741426,102.777778 C155.71576,102.777778 159.748252,106.814048 159.748252,111.793042 C159.748252,116.772372 155.71576,120.808642 150.741426,120.808642 C145.767093,120.808642 141.734266,116.772372 141.734266,111.793042 C141.734266,106.814048 145.767093,102.777778 150.741426,102.777778 L150.741426,102.777778 Z M43.048951,113.753086 L43.048951,102.777778 L45.9104072,102.777778 C46.8184365,102.777778 47.5957494,102.834272 48.2376895,102.946932 C48.8799622,103.059592 49.404823,103.233673 49.806285,103.468846 C50.6591007,103.967769 51.3103539,104.63059 51.7666968,105.454682 C52.2207114,106.278446 52.4475524,107.217826 52.4475524,108.272165 C52.4475524,109.323877 52.2207114,110.257673 51.7690251,111.07651 C51.3173388,111.895348 50.6637573,112.558169 49.806285,113.062347 C49.3911859,113.302775 48.8616685,113.479155 48.2217241,113.589188 C47.5821123,113.69922 46.7223118,113.753086 45.6489747,113.753086 L43.048951,113.753086 Z M36,120.808642 L36,96.5061728 L43.1536939,96.5061728 C45.4238022,96.5061728 47.3671833,96.6310454 48.9722898,96.8804475 C50.5773962,97.1295066 51.8897389,97.5151022 52.8930153,98.0362051 C55.0255722,99.1411902 56.653434,100.608443 57.7942619,102.433161 C58.9293161,104.257536 59.4965035,106.337144 59.4965035,108.671644 C59.4965035,111.000312 58.9293161,113.0686 57.8000357,114.881997 C56.6707553,116.695051 55.0371197,118.162304 52.8930153,119.27861 C51.8554359,119.811377 50.5312061,120.202461 48.9322131,120.446031 C47.3328804,120.689601 45.1830022,120.808642 42.5002397,120.808642 L36,120.808642 Z M70.4615385,108.265432 C72.1919716,108.265432 73.5944056,109.66918 73.5944056,111.400907 C73.5944056,113.132961 72.1919716,114.537037 70.4615385,114.537037 C68.7311053,114.537037 67.3286713,113.132961 67.3286713,111.400907 C67.3286713,109.66918 68.7311053,108.265432 70.4615385,108.265432 L70.4615385,108.265432 Z M70.0699301,102.777778 C75.0441712,102.777778 79.0769231,106.814048 79.0769231,111.793042 C79.0769231,116.772372 75.0441712,120.808642 70.0699301,120.808642 C65.0953537,120.808642 61.0629371,116.772372 61.0629371,111.793042 C61.0629371,106.814048 65.0953537,102.777778 70.0699301,102.777778 L70.0699301,102.777778 Z M81.4265734,120.808642 L81.4265734,104.05199 L87.6775493,104.05199 L87.6775493,106.402925 C89.5497874,103.353307 96.7696593,101.865174 98.8437079,106.594845 C101.790209,102.29758 110.408683,102.49352 110.405594,108.332507 L110.399072,120.808642 L103.772619,120.808642 L103.772619,111.641368 C103.772619,109.178563 103.342228,108.942766 101.221502,109.034539 C99.4858633,109.109565 99.091166,110.514299 99.0836153,112.108607 L99.0420862,120.808642 L92.8089576,120.808642 L92.7396281,112.383257 C92.7118277,109.013773 91.9543521,108.727065 90.2574969,108.883147 C88.5764295,109.037888 87.8422925,109.265312 87.8422925,112.383257 L87.8422925,120.808642 L81.4265734,120.808642 Z M112.755245,120.808642 L119.020979,120.808642 L119.020979,103.561728 L112.755245,103.561728 L112.755245,120.808642 Z M122.153846,120.808642 L122.153846,103.952065 L128.371546,103.952065 L128.371546,106.31702 C130.783926,102.367792 140.165101,102.308828 140.165784,108.47678 L140.167832,120.808642 L133.967544,120.808642 L133.898239,112.333014 C133.870926,108.943437 132.622401,108.624358 130.937901,108.812032 C129.540864,108.967696 128.28995,109.468046 128.28995,112.333014 L128.28995,120.808642 L122.153846,120.808642 Z M164.267678,107.962077 C164.444916,102.025633 173.842193,101.484358 179.289595,104.831405 L177.277678,108.846508 C175.401687,107.523242 173.777228,106.905897 171.711673,107.077307 C169.751394,107.239926 169.540174,109.404687 172.717798,109.322871 C177.679795,109.195412 180.357354,111.842622 180.094162,115.243762 C179.669391,120.736299 171.142979,122.984906 163.664336,118.169892 L166.413856,114.086834 C168.492738,115.29887 170.564956,116.381758 172.650834,116.128194 C174.815003,115.865501 175.907082,114.094271 172.046826,113.678426 C166.789321,113.112133 164.165066,111.409534 164.267678,107.962077 L164.267678,107.962077 Z M116.279889,94.9382716 C118.226389,94.9382716 119.804196,96.5173705 119.804196,98.4662179 C119.804196,100.414728 118.226389,101.993827 116.279889,101.993827 C114.333388,101.993827 112.755245,100.414728 112.755245,98.4662179 C112.755245,96.5173705 114.333388,94.9382716 116.279889,94.9382716 L116.279889,94.9382716 Z" id="Fill-1" fill-opacity="0.9" fill="#242527"></path>
                <g id="Group-5" transform="translate(181.678322, 101.993827)">
                    <mask id="mask-2" fill="white">
                        <use xlink:href="#path-1"></use>
                    </mask>
                    <g id="Clip-4"></g>
                    <path d="M0.783216783,1.56790123 L1.13348456,1.56790123 C1.2999745,1.56790123 1.41422493,1.53129866 1.47510838,1.45918613 C1.53599184,1.3870736 1.56643357,1.29092356 1.56643357,1.17073601 C1.56643357,1.09425302 1.55140061,1.02541833 1.52246218,0.964778251 C1.49314793,0.904138168 1.45218313,0.858248376 1.40069527,0.828747795 C1.34807994,0.798700908 1.25186905,0.783950617 1.11055931,0.783950617 L0.783216783,0.783950617 L0.783216783,1.56790123 Z M0.783216783,2.35185185 L0.783216783,0.783950617 L1.42367397,0.783950617 C1.64330412,0.783950617 1.80175158,0.79780833 1.89940855,0.826843538 C1.99745773,0.855878746 2.07511267,0.90669036 2.13394217,0.978618489 C2.19198728,1.05087656 2.22061764,1.12742393 2.22061764,1.20859053 C2.22061764,1.32341158 2.17237745,1.42272519 2.07511267,1.50785115 C1.97784789,1.5929771 1.84842298,1.64048925 1.68801454,1.65104751 C1.75390358,1.6741437 1.80724233,1.70185913 1.8460698,1.73419379 C1.92176376,1.79589361 2.01314559,1.89982645 2.12217627,2.04533244 L2.34965035,2.35185185 L1.98176986,2.35185185 L1.81626286,2.10472264 C1.68644575,1.91071466 1.58212143,1.78896475 1.50211331,1.73980286 C1.44759797,1.7038388 1.36680545,1.68569179 1.26091235,1.68569179 L1.08442384,1.68569179 L1.08442384,2.35185185 L0.783216783,2.35185185 Z M1.17594087,-1.53248331e-13 C0.977984978,-1.53248331e-13 0.78544817,0.0510439903 0.598011675,0.152174896 C0.410893949,0.253943852 0.264578726,0.399100199 0.158428466,0.587324913 C0.0529157452,0.776187677 2.34904087e-14,0.972388015 2.34904087e-14,1.176883 C2.34904087e-14,1.37946384 0.0522782061,1.57406905 0.156197079,1.76037961 C0.260115952,1.94637115 0.405156097,2.09184653 0.591955053,2.19584866 C0.77875401,2.29953176 0.972884665,2.35185185 1.17594087,2.35185185 C1.3786783,2.35185185 1.5734465,2.29953176 1.76024545,2.19584866 C1.94672564,2.09184653 2.09144701,1.94637115 2.19440958,1.76037961 C2.29769091,1.57406905 2.34965035,1.37946384 2.34965035,1.176883 C2.34965035,0.972388015 2.29705337,0.776187677 2.19185942,0.587324913 C2.08698424,0.399100199 1.94035025,0.253943852 1.75227621,0.152174896 C1.56452095,0.0510439903 1.37230291,-1.53248331e-13 1.17594087,-1.53248331e-13 L1.17594087,-1.53248331e-13 Z M1.56732006,-3.109e-13 C1.83043126,-3.109e-13 2.0868051,0.0677915418 2.33785999,0.202664766 C2.58785108,0.33789292 2.78358879,0.530974589 2.92294553,0.782619632 C3.06265687,1.03390974 3.13286713,1.29620267 3.13286713,1.56914349 C3.13286713,1.8395998 3.06407526,2.09905329 2.92578231,2.34821382 C2.78819856,2.59772929 2.59494303,2.79116589 2.34672492,2.92887855 C2.09815222,3.06730107 1.83894159,3.13580247 1.56732006,3.13580247 C1.29605313,3.13580247 1.03613331,3.06730107 0.788269795,2.92887855 C0.538987894,2.79116589 0.345732366,2.59772929 0.20743942,2.34821382 C0.0684372786,2.09905329 1.15e-14,1.8395998 1.15e-14,1.56914349 C1.15e-14,1.29620267 0.0698556678,1.03390974 0.210630795,0.782619632 C0.350696728,0.530974589 0.546434437,0.33789292 0.797134727,0.202664766 C1.04712582,0.0677915418 1.30456346,-3.109e-13 1.56732006,-3.109e-13 L1.56732006,-3.109e-13 Z" id="Fill-3" fill-opacity="0.9" fill="#242527" mask="url(#mask-2)"></path>
                </g>
                <path d="M116.832523,22.9617107 C119.130602,20.6697414 122.850021,20.6760453 125.139813,22.9763093 C127.429936,25.2765733 127.423307,28.9991987 125.12556,31.2914998 C122.827482,33.5834692 119.108062,33.5768335 116.817938,31.2769013 C114.528478,28.9769691 114.534445,25.2536801 116.832523,22.9617107 L116.832523,22.9617107 Z M97.0909091,27.1104383 L119.558104,4.70116639 C120.497923,3.76389905 122.033211,3.76662367 122.969628,4.70729677 L144.166603,25.9977739 C145.10302,26.938447 145.100297,28.474789 144.160478,29.4120563 L121.693283,51.8209877 L97.0909091,27.1104383 Z" id="Fill-6" fill-opacity="0.9" fill="#242527"></path>
                <path d="M72.7344592,51.4955321 L95.2017339,29.0864198 L119.804196,53.7971337 L97.3369212,76.206246 C96.3970985,77.1435067 94.8621455,77.1407821 93.9257255,76.2001157 L72.7286747,54.9094496 C71.7919144,53.9691237 71.7949768,52.4327928 72.7344592,51.4955321 M82.3712398,48.8322288 C84.6689947,46.539952 88.3884275,46.5465876 90.6785586,48.8464954 C92.9683582,51.146735 92.9617288,54.8693209 90.6639739,57.1619295 C88.3658875,59.4538746 84.6464547,59.447239 82.356655,57.1469994 C80.0665239,54.8470916 80.0731534,51.1241739 82.3712398,48.8322288 M99.6017188,48.8323348 C101.899805,46.5400822 105.619238,46.546386 107.909038,48.8466013 C110.199169,51.1468166 110.19254,54.8693632 107.894785,57.1619476 C105.596698,59.4538685 101.877265,59.447233 99.5874655,57.1470177 C97.2973343,54.8471341 97.3039637,51.1239239 99.6017188,48.8323348" id="Fill-8" fill-opacity="0.9" fill="#242527"></path>
                <path d="M108.839161,78.4753086 L108.839161,75.3395062 L109.621458,75.3395062 L110.426431,77.8434453 L111.204439,75.3395062 L111.972028,75.3395062 L111.972028,78.4753086 L111.486041,78.4753086 L111.486041,75.8438513 L110.665135,78.4753086 L110.184664,78.4753086 L109.327905,75.8055656 L109.327905,78.4753086 L108.839161,78.4753086 Z M106.638523,78.4753086 L106.638523,75.8055656 L105.706294,75.8055656 L105.706294,75.3395062 L108.055944,75.3395062 L108.055944,75.8055656 L107.117909,75.8055656 L107.117909,78.4753086 L106.638523,78.4753086 Z" id="Fill-10" fill-opacity="0.9" fill="#242527"></path>
                <rect id="Rectangle-Copy-3" x="0" y="0" width="203" height="130"></rect>
            </g>
        </g>
    </g>
</svg>