<?xml version="1.0" encoding="UTF-8"?>
<svg width="203px" height="130px" viewBox="0 0 203 130" version="1.1" xmlns="http://www.w3.org/2000/svg" xmlns:xlink="http://www.w3.org/1999/xlink">
    <!-- Generator: Sketch 53.2 (72643) - https://sketchapp.com/ -->
    <title>Rectangle Copy 3</title>
    <desc>Created with Sketch.</desc>
    <g id="Design-Round-5" stroke="none" stroke-width="1" fill="none" fill-rule="evenodd">
        <g id="4.About-Copy-3" transform="translate(-500.000000, -2024.000000)">
            <g id="Aston_Martin_Black-Copy-2" transform="translate(500.000000, 2024.000000)">
                <g id="Aston_Martin_Black-Copy" transform="translate(12.000000, 23.000000)">
                    <path d="M6.84421134,10.6518743 L6.8548579,10.6541557 C6.8548579,10.6518743 6.85333696,10.6495929 6.85257649,10.646551 L6.84421134,10.6518743" id="Fill-1" fill="#4E5966"></path>
                    <path d="M184.493183,1.19376243 C183.842266,0.100797821 182.676352,0.0279993947 182.159399,0 L107.45713,0 C105.344338,0 103.632136,0.648927147 102.367786,1.9299818 C101.46263,2.84407969 100.84007,4.03191283 100.515101,5.4625172 C100.502389,5.51917479 100.405582,5.80575683 99.7800892,5.80575683 L85.0146692,5.80575683 C84.3754862,5.80575683 84.2887842,5.50797504 84.2812874,5.47404636 C83.9566437,4.0365245 83.3318024,2.84407969 82.4256685,1.92833478 C81.1622961,0.648927147 79.4504201,0 77.3379546,0 L2.62590703,0 C2.1470902,0.0177878507 0.953144651,0.100797821 0.305812991,1.19046838 C-0.00677062476,1.72146866 -0.237541428,2.61448465 0.434888186,3.86786932 C0.438799556,3.87610443 1.80191184,6.16810194 1.80191184,6.16810194 C2.35700037,7.09076435 2.99748713,7.43169815 4.34006473,7.52096681 C4.36092537,7.52261383 4.98283313,7.58487131 5.41699515,8.35403115 L6.81237623,10.8268718 C7.10670679,11.3941066 7.79738946,12.726219 10.1598567,13.0473885 C10.1992963,13.0520002 10.8922606,13.1310573 11.2710116,13.8603592 C11.2755748,13.8689237 12.9910363,16.9201989 12.9910363,16.9201989 C13.4920176,17.9024835 14.1937825,18.2684521 15.4695408,18.6653847 C15.4741041,18.6660435 46.71845,27.9374666 46.71845,27.9374666 C47.7784311,28.2513892 48.213245,29.4632689 48.213245,29.4632689 C48.9583609,31.4123562 49.9270768,33.015898 54.8055324,34.5025011 C54.8097698,34.5038187 80.3702438,41.5511017 80.3702438,41.5511017 C80.6811977,41.6565112 83.6117913,42.5538094 85.8178037,40.4014795 C85.815848,40.4027971 91.8136073,34.6194398 91.8136073,34.6194398 C91.8103478,34.6227338 92.0590457,34.3661276 92.3977052,34.3661276 C92.7357127,34.3661276 92.9857144,34.6227338 92.987996,34.6260279 C93.000708,34.6388746 98.980866,40.4047735 98.980866,40.4047735 C101.184597,42.5547976 104.114213,41.6565112 104.440812,41.5468194 C104.425492,41.5511017 129.977492,34.5061246 129.994441,34.5001953 C134.869311,33.0152392 135.871274,31.3813921 136.579884,29.4668923 C136.609871,29.3848706 137.029365,28.2477658 138.076308,27.9381254 C138.076308,27.9381254 142.801243,26.5358498 169.314461,18.6686787 C170.599672,18.2684521 171.303393,17.9024835 171.805352,16.9201989 L173.511361,13.8847351 C173.899238,13.1376454 174.578187,13.0536472 174.608174,13.0503531 C176.997043,12.726219 177.688704,11.3954242 177.98336,10.8268718 C177.98336,10.82786 179.377437,8.35403115 179.377437,8.35403115 C179.811925,7.58684774 180.435137,7.52261383 180.461213,7.52096681 C181.797597,7.43169815 182.43841,7.09142316 182.991217,6.1723842 C182.989261,6.17501944 184.361826,3.86819872 184.361826,3.86819872 C184.649638,3.33093975 184.793706,2.81245684 184.793706,2.32559678 C184.793706,1.9158174 184.69364,1.53535504 184.493183,1.19376243 Z M101.872346,5.77709863 C102.136037,4.60968857 102.634085,3.64980344 103.352473,2.92346621 C104.345961,1.91713502 105.727979,1.40721664 107.45713,1.40721664 C107.45713,1.40721664 124.168782,1.40721664 141.779398,1.40721664 C140.60012,2.298915 139.980819,3.4264671 139.938772,3.50321838 C139.54079,4.25590799 139.046654,5.13838303 138.455385,6.12132648 L101.750768,6.12132648 C101.826713,5.98956462 101.872346,5.77709863 101.872346,5.77709863 Z M55.4007125,17.7311931 C55.3951714,17.7249344 55.3886525,17.7183463 55.3824595,17.7124171 L55.3824595,7.21758513 L129.406106,7.21758513 L129.406106,17.7193346 C129.402846,17.7226286 129.400239,17.7249344 129.397631,17.7275697 L55.4007125,17.7311931 Z M54.3016177,8.64983652 L48.2298683,9.05731006 C47.7940766,8.41958268 47.3905536,7.80293718 47.0176697,7.21330287 L54.3016177,7.21330287 L54.3016177,8.64983652 Z M54.3016177,9.78463552 L54.3016177,11.2801326 L50.2383566,11.8308972 C49.7976756,11.2564155 49.3817667,10.6928041 48.9876962,10.1407219 L54.3016177,9.78463552 Z M54.3016177,12.3819911 L54.3016177,14.1093891 L52.407211,14.5036864 C51.9225271,13.9390869 51.4600077,13.3794284 51.017697,12.8276756 L54.3016177,12.3819911 Z M54.3016177,15.2247532 L54.3016177,16.6006764 C53.9368825,16.2149436 53.5815997,15.8301989 53.2364214,15.4461131 C53.6653682,15.3568445 54.0232585,15.282399 54.3016177,15.2247532 Z M67.9777213,18.8198755 L74.6694227,18.8198755 L65.3284203,25.5772823 C63.7065057,24.5874214 62.1295719,23.4980802 60.5956632,22.3115647 C64.1038357,20.6526829 67.3512503,19.1166691 67.9777213,18.8198755 Z M59.6425928,21.5559104 C59.5598021,21.4883825 57.4277798,19.6763275 56.5222977,18.8198755 L65.4268565,18.8198755 L59.6425928,21.5559104 Z M76.5260194,18.8198755 L80.1163307,18.8198755 L70.9119003,28.521501 C69.3558272,27.8241514 67.8336525,27.0444506 66.3470061,26.1843751 C70.7629424,22.9898088 75.3692319,19.6572221 76.5260194,18.8198755 Z M81.6147112,18.8198755 L84.6665573,18.8198755 L77.5755703,30.9515191 C75.6629106,30.4070132 73.7955575,29.7482039 71.9725334,28.9813499 C75.8395741,24.9066145 80.4911703,20.0037558 81.6147112,18.8198755 Z M85.9224329,18.8198755 L88.5013292,18.8198755 L84.7601042,32.452616 C82.6799075,32.169328 80.6450175,31.7681132 78.6577158,31.2486421 C81.3764436,26.5961309 85.0104319,20.3796065 85.9224329,18.8198755 Z M98.8739553,18.8198755 L106.135413,31.2463362 C104.149415,31.7658073 102.114199,32.1683398 100.035306,32.452616 L96.2940811,18.8198755 L98.8739553,18.8198755 Z M100.129831,18.8198755 L103.180047,18.8198755 L112.824833,28.9836557 C111.001808,29.7505097 109.131522,30.4033897 107.219514,30.9505309 L100.129831,18.8198755 Z M104.678428,18.8198755 L108.267761,18.8198755 L118.449056,26.1843751 C116.961758,27.0460976 115.440887,27.8251396 113.88514,28.5234774 C110.532444,24.9899538 106.496237,20.7353635 104.678428,18.8198755 Z M110.125988,18.8198755 L116.818015,18.8198755 L124.199747,22.3115647 C122.666164,23.5000566 121.087927,24.5874214 119.466664,25.5782705 C115.905362,23.0010086 112.150121,20.2844085 110.125988,18.8198755 Z M119.368554,18.8198755 L128.273764,18.8198755 C127.366327,19.733644 125.224526,21.4976058 125.151188,21.5559104 C122.985919,20.5311326 120.874105,19.5336953 119.368554,18.8198755 Z M130.485644,15.2227768 L131.559967,15.4461131 C131.213159,15.8338224 130.852987,16.2221905 130.485644,16.6105585 L130.485644,15.2227768 Z M130.485644,14.1084009 L130.485644,12.3806735 L133.780973,12.8276756 C133.33801,13.3810754 132.872883,13.9397457 132.389177,14.5036864 C131.538454,14.3267961 130.882974,14.1904226 130.485644,14.1084009 Z M130.485644,11.278815 L130.485644,9.78463552 L135.811951,10.1413807 C135.418207,10.6928041 134.999038,11.2580625 134.559661,11.831556 L130.485644,11.278815 Z M130.485644,8.64917771 L130.485644,7.21330287 L137.780348,7.21330287 C137.408768,7.80293718 137.003941,8.41958268 136.56815,9.05731006 L130.485644,8.64917771 Z M77.3379546,1.40721664 C79.0674318,1.40721664 80.4487971,1.91713502 81.4426109,2.92346621 C82.1613251,3.64881523 82.6593728,4.60968857 82.9233903,5.77709863 C82.9233903,5.77709863 82.9774975,5.9806707 83.0452946,6.12132648 L46.3432844,6.12132648 C45.7820029,5.19075836 44.85729,3.50321838 44.85729,3.50321838 C44.8158946,3.4264671 44.1959426,2.298915 43.0169906,1.40721664 C60.6282579,1.40721664 77.3379546,1.40721664 77.3379546,1.40721664 Z M4.4407825,6.12132648 C3.49260133,6.05017508 3.28953606,5.93751869 2.99162008,5.44275292 C2.99357576,5.44604696 1.75041214,3.35795093 1.65393169,3.19522504 C1.44825885,2.81015101 1.37850609,2.52785123 1.38730667,2.32460857 C1.41012299,1.8160078 1.75432351,1.42039282 2.66078341,1.40721664 L39.8976734,1.40919306 C42.4198548,1.40919306 43.9058493,4.02400712 43.9058493,4.02400712 C44.2334265,4.64032321 44.6252154,5.34590795 45.0808899,6.12132648 L4.4407825,6.12132648 Z M9.4871011,11.4563641 C8.53794209,11.1239948 8.23676664,10.5491837 8.04250195,10.1746506 C7.46329331,9.17853097 6.7009022,7.68797496 6.32508477,7.21330287 L45.7393038,7.21330287 C46.1170769,7.82599551 46.5290745,8.46998159 46.978882,9.14032003 L12.4007455,11.4599875 C11.8560873,11.5271861 10.2785015,11.6543363 9.4871011,11.4563641 Z M15.8759973,16.48802 C14.6175142,16.658981 14.2234437,16.2376725 14.1481498,16.1375335 L12.4933145,13.1923265 C12.3795589,12.9739313 12.2491799,12.7888059 12.1103263,12.6280564 C12.322844,12.6096097 47.7210644,10.2266965 47.7210644,10.2266965 C48.1239354,10.8024959 48.5519044,11.3941066 49.0046455,11.9979053 L15.8759973,16.48802 Z M23.9086466,19.7069622 C20.4747901,18.6871254 17.6876133,17.8603197 16.4966013,17.5062098 L49.770622,12.9963308 C50.2246668,13.5750947 50.6985944,14.161435 51.1982719,14.7533752 L28.4308417,19.48132 C27.584682,19.6585397 25.1596329,20.0366962 23.9086466,19.7069622 Z M35.1900142,23.0540428 C32.6502316,22.3003649 29.9728991,21.5055115 27.4458284,20.7557866 C28.118258,20.6622356 28.5987046,20.5617672 28.6498784,20.5505675 C28.6485746,20.5508969 45.1441237,17.1257474 52.0131405,15.7004135 C52.6898075,16.4692439 53.4039584,17.2440037 54.1591786,18.0177752 L38.9058152,22.7727312 C38.8709389,22.7849192 36.7887865,23.4819394 35.1900142,23.0540428 Z M47.0857928,26.5832841 C46.7598453,26.4870979 43.1375911,25.4119212 38.4680678,24.0264453 C38.9129861,23.9223534 39.205035,23.8245202 39.2389336,23.812991 C39.2262216,23.8172733 52.0428018,19.821595 55.0284805,18.8897093 C56.1249678,19.964886 57.2980527,21.0318276 58.5536023,22.0710993 L50.3048499,25.9725679 C49.7601917,26.2512442 48.1676124,26.8790895 47.0857928,26.5832841 Z M53.6953554,32.6453177 C50.4688015,31.4153208 49.9850954,30.1896061 49.5255095,29.000126 C49.4876996,28.8920812 49.2530174,28.2609419 48.7227009,27.652861 C49.814299,27.4446772 50.7204329,26.984499 50.7791034,26.9528761 C50.7706288,26.9574878 55.1425621,24.8904736 59.4939607,22.832024 C61.0731762,24.0817852 62.69998,25.2281134 64.3714386,26.2696909 L56.6608254,31.8474997 C56.6327939,31.8685816 55.0346735,33.0699203 53.6953554,32.6453177 Z M62.9512855,35.2937311 L56.1158412,33.4085483 C56.7957677,33.1104371 57.2621985,32.7566565 57.302616,32.7266807 C57.2967489,32.730963 61.1194607,29.9652816 65.3815498,26.8823835 C66.9223034,27.794505 68.5002151,28.6219694 70.1149588,29.3604946 L65.6276401,34.0881101 C65.2263988,34.5130421 63.9750865,35.5384787 62.9512855,35.2937311 Z M72.4327712,37.9075569 L65.0777667,35.8794125 C65.8404838,35.4396573 66.3688446,34.8875751 66.409914,34.8447525 C66.4092621,34.8447525 68.512927,32.6265417 71.168095,29.828908 C73.0657612,30.6464904 75.0110156,31.347134 77.0045103,31.927545 L74.574246,36.0869375 C74.2779598,36.6245258 73.2857757,38.0416246 72.4327712,37.9075569 Z M83.2245657,38.0501891 C83.2222841,38.0627065 82.9302352,39.3921836 82.0113893,39.9577714 C81.5945025,40.2143776 81.1101445,40.2733411 80.5361511,40.1412498 L74.1068374,38.3693822 C74.8926967,37.7227609 75.4200797,36.7974633 75.5126488,36.6278199 C75.5103671,36.6324315 76.6013133,34.7663542 78.0843742,32.2292797 C80.1626153,32.7853147 82.2904003,33.216176 84.4670775,33.5185695 L83.2245657,38.0501891 Z M84.8549549,39.3902072 C84.3631002,39.8698204 83.8138787,40.1392734 83.2829103,40.282235 C83.9938017,39.472229 84.2431515,38.4523922 84.2790058,38.294278 L85.5511787,33.6585664 C87.1489732,33.8479741 88.7731694,33.9695244 90.4205078,34.0235468 C89.1036801,35.2940605 84.8549549,39.3902072 84.8549549,39.3902072 Z M85.8445314,32.5889895 L89.6235663,18.8198755 L91.8569583,18.8198755 L91.8569583,32.9602286 C89.8142456,32.9414525 87.8099946,32.8156199 85.8445314,32.5889895 Z M92.9378001,32.9608874 L92.9378001,18.8198755 L95.1711921,18.8198755 L98.950227,32.5903072 C96.9857416,32.8179258 94.9814907,32.9417819 92.9378001,32.9608874 Z M99.0095494,38.492909 C99.0095494,38.492909 95.5470095,35.1547223 94.3735987,34.0235468 C96.0209371,33.9685362 97.6454593,33.8456683 99.2422759,33.6546136 L100.515101,38.2965838 C100.552585,38.4593097 100.80389,39.475523 101.513152,40.2825644 C100.538569,40.0028998 100.243261,39.7103885 99.0095494,38.492909 Z M104.258281,40.1419086 C103.684288,40.2733411 103.200256,40.2143776 102.783695,39.9577714 C101.888317,39.4073363 101.589098,38.1328697 101.571496,38.0571066 L100.326703,33.5162636 C102.502402,33.2122231 104.631165,32.7820207 106.708103,32.2259856 L109.289932,36.6416549 C109.377286,36.8027337 109.902062,37.7237491 110.686617,38.3693822 L104.258281,40.1419086 Z M112.361009,37.9075569 C111.508983,38.0416246 110.516147,36.6245258 110.228661,36.0994548 L107.788292,31.924251 C109.781787,31.3425224 111.728997,30.6474786 113.627315,29.828908 L118.386474,34.8460702 C118.426566,34.8879046 118.953623,35.4403161 119.716014,35.8794125 L112.361009,37.9075569 Z M123.060235,34.9580677 L121.844777,35.2937311 C120.818694,35.5384787 119.56836,34.5130421 119.168748,34.0904159 C119.168096,34.0900865 117.206218,32.022743 114.681103,29.3618123 C116.295521,28.6219694 117.874411,27.7964814 119.413861,26.8840305 L127.504528,32.7355746 C127.538753,32.7622564 128.001272,33.1124135 128.678265,33.4085483 C126.883599,33.9036435 123.060235,34.9580677 123.060235,34.9580677 Z M135.271856,28.9938673 C134.811293,30.1859827 134.331824,31.4140032 131.089625,32.6476236 C129.751284,33.063991 128.16229,31.8685816 128.145341,31.8563936 C128.14143,31.8527702 124.533517,29.2438854 120.424298,26.2696909 C122.094127,25.2264664 123.72256,24.0834323 125.300798,22.8333416 L134.030974,26.96177 C134.080844,26.987793 134.981763,27.4459949 136.072383,27.652861 C135.54989,28.2513892 135.313252,28.872317 135.271856,28.9938673 Z M137.711573,26.5832841 C136.629754,26.8807365 135.034893,26.2512442 134.506858,25.9804736 C134.506858,25.9804736 130.428603,24.0508212 126.242786,22.0714287 C127.49801,21.0318276 128.672724,19.9652154 129.767256,18.8906975 L145.570167,23.8172733 C145.599176,23.8278143 145.885358,23.9240004 146.326691,24.0264453 L137.711573,26.5832841 Z M149.612893,23.0520663 C148.012491,23.4845746 145.924145,22.7849192 145.902307,22.7780017 L145.877535,22.7694371 C145.877535,22.7694371 145.874927,22.7684489 145.871668,22.7674607 L130.63721,18.0177752 C131.392104,17.2440037 132.109188,16.4705616 132.784225,15.7004135 L156.14651,20.5508969 C156.197358,20.5620966 156.677804,20.6622356 157.349582,20.7557866 L149.612893,23.0520663 Z M160.898172,19.7036681 C159.651097,20.0386726 157.21301,19.6598573 156.365546,19.48132 C156.364243,19.48132 140.780695,16.246237 133.59942,14.754034 C134.098446,14.1624232 134.576285,13.5757536 135.029352,12.9966602 L168.299787,17.5062098 L160.898172,19.7036681 Z M172.292969,13.2071498 C172.301118,13.1946324 170.93279,15.6295915 170.649216,16.1352276 C170.579137,16.2300962 170.190282,16.6599692 168.919413,16.4890082 L135.793698,11.9979053 C136.246765,11.3954242 136.67669,10.8024959 137.079235,10.2266965 L172.27439,12.5868808 C172.32426,12.5928101 172.47224,12.6096097 172.684106,12.6280564 C172.542971,12.7934175 172.409658,12.9841428 172.292969,13.2071498 Z M178.170128,7.65865795 L176.753234,10.1746506 C176.558318,10.5491837 176.25812,11.1239948 175.310591,11.4557053 C174.519516,11.6543363 172.940627,11.5271861 172.393687,11.4599875 L137.819788,9.14032003 C138.268943,8.46998159 138.682245,7.82467789 139.058062,7.21330287 L178.47,7.21330287 C178.365696,7.34638235 178.265631,7.49329682 178.170128,7.65865795 Z M183.140827,3.19522504 C183.122574,3.22651848 181.80216,5.44604696 181.80216,5.44604696 C181.549877,5.86373205 181.39603,6.05281032 180.36408,6.12066767 C180.358865,6.12066767 139.716476,6.12132648 139.716476,6.12132648 C140.172477,5.34590795 140.562636,4.64032321 140.890865,4.02400712 C140.902925,4.00094879 142.340679,1.40919306 144.898715,1.40919306 L182.134627,1.40721664 C182.525112,1.42203984 183.033264,1.46947411 183.298259,1.91482919 C183.33444,1.97543964 183.40843,2.10127222 183.40843,2.32460857 C183.40843,2.52785123 183.3465,2.81015101 183.140827,3.19522504 L183.140827,3.19522504 Z" id="Fill-2" fill-opacity="0.9" fill="#242527"></path>
                    <path d="M60.2779321,9.12561513 L59.9879692,9.12561513 L57.0350945,15.9698265 L57.8356111,15.9698265 L57.8489987,15.9275938 C58.0881496,15.0958627 58.3957597,14.3006911 58.694242,13.5313634 C58.694242,13.5313634 58.7362303,13.4216846 58.7550946,13.3728334 C58.8290306,13.3728334 60.9673926,13.3728334 61.039503,13.3728334 C61.3474174,14.0996133 61.6620256,14.9351264 62.0009748,15.9304303 L62.0146667,15.9698265 L63.118838,15.9698265 L60.2779321,9.12561513 Z M58.9787281,12.8477617 C59.0395807,12.7002626 59.8157563,10.816182 59.9073395,10.5949333 C59.9995312,10.816182 60.7884858,12.7002626 60.8496427,12.8477617 C60.6956855,12.8477617 59.131164,12.8477617 58.9787281,12.8477617 L58.9787281,12.8477617 Z" id="Fill-3" fill-opacity="0.9" fill="#242527"></path>
                    <path d="M63.8793059,15.3756883 L63.9064466,15.4014126 C64.3132044,15.7888266 65.224356,15.9698265 65.7125359,15.9698265 C67.3198284,15.9698265 68.4421134,15.0589386 68.4421134,13.754748 C68.4421134,12.6699887 67.5101657,12.3488999 66.6095884,12.0367992 C65.8066471,11.7591008 65.0481178,11.4972089 65.0481178,10.6985161 C65.0481178,10.0901211 65.590579,9.64877904 66.3378291,9.64877904 C66.9335143,9.64877904 67.386799,9.92833701 67.6134413,10.4353845 L67.6303602,10.4722663 L67.8323292,10.4722663 L68.1534352,9.62491434 L68.1171302,9.59547087 C67.6797069,9.24927769 67.0121165,9.12561513 66.5327485,9.12561513 C65.0382484,9.12561513 64.0728154,9.86201173 64.0728154,11.001009 C64.0728154,12.1623213 65.0565772,12.5010761 65.9247267,12.8013995 C66.705462,13.0713496 67.4449576,13.3261131 67.4449576,14.1226363 C67.4449576,14.8646117 66.8164921,15.4457328 66.0149607,15.4457328 C65.2849819,15.4457328 64.7960971,15.1692741 64.3258935,14.4908346 L64.3068598,14.462011 L64.1034809,14.462011 L63.8793059,15.3756883" id="Fill-4" fill-opacity="0.9" fill="#242527"></path>
                    <path d="M73.7034367,9.12561513 L68.4421134,9.12561513 L68.4421134,9.84372788 L68.5109858,9.83698955 C69.1140312,9.77345679 69.6986226,9.71987108 70.6499843,9.71858759 C70.6499843,9.83955653 70.6499843,15.9698265 70.6499843,15.9698265 L71.661321,15.9698265 C71.661321,15.9698265 71.661321,9.8411609 71.661321,9.71987108 C72.3734417,9.72115457 73.0588703,9.76094276 73.6948689,9.83698955 L73.7653889,9.84436962 L73.7653889,9.12561513 L73.7034367,9.12561513" id="Fill-5" fill-opacity="0.9" fill="#242527"></path>
                    <path d="M77.5218385,9.12561513 C75.309972,9.12561513 73.7653889,10.5385916 73.7653889,12.5621326 C73.7653889,14.6011702 75.2675115,15.9698265 77.5038745,15.9698265 C79.8156865,15.9698265 81.3700682,14.543213 81.3700682,12.420494 C81.3700682,10.1437392 79.4374613,9.12561513 77.5218385,9.12561513 Z M79.3737705,14.7942573 C78.8844946,15.2904572 78.264571,15.5424313 77.5319637,15.5424313 C75.9129114,15.5424313 74.8667495,14.4173809 74.8667495,12.6761873 C74.8667495,10.7508945 75.9223834,9.55517981 77.6214575,9.55517981 C78.4229814,9.55517981 79.1817183,9.88928568 79.6494373,10.4496413 C80.1619031,11.0741528 80.2670745,11.7206693 80.2670745,12.497047 C80.2696875,12.5404374 80.2716472,12.5853774 80.2716472,12.632487 C80.2716472,13.2628871 80.001533,14.1607579 79.3737705,14.7942573 L79.3737705,14.7942573 Z" id="Fill-6" fill-opacity="0.9" fill="#242527"></path>
                    <path d="M88.1504735,9.12561513 L87.511405,9.12561513 C87.511405,9.12561513 87.511405,14.0694256 87.511405,14.1888444 C87.5063677,14.1888444 87.5050244,14.1888444 87.5009945,14.1888444 C87.4630467,14.1498965 82.6231864,9.12561513 82.6231864,9.12561513 L82.1305361,9.12561513 L82.1305361,15.9698265 L82.8320674,15.9698265 C82.8320674,15.9698265 82.8320674,10.7939379 82.8320674,10.6745191 C82.8391196,10.6745191 82.8411346,10.6745191 82.8458361,10.6745191 C82.8831123,10.7137889 87.261218,15.3527756 87.261218,15.3527756 L87.8092787,15.9678952 L87.840846,15.9698265 L88.2142795,15.9698265 L88.2142795,9.12561513 L88.1504735,9.12561513" id="Fill-7" fill-opacity="0.9" fill="#242527"></path>
                    <path d="M100.232347,9.12561513 L99.978079,9.12561513 L98.2360726,12.13233 C98.2360726,12.13233 97.1354843,14.0417436 97.0354001,14.2142732 C95.9618616,12.5102214 94.9934792,10.7137889 94.1698131,9.15941291 L94.1518926,9.12561513 L93.7863824,9.12561513 L93.7796199,9.18097911 C93.6778451,10.193625 93.0580668,14.3114821 92.7889214,15.8996558 L92.7770871,15.9698265 L93.6477522,15.9698265 L93.6477522,15.9089905 C93.6477522,14.9455928 93.8266189,13.506773 94.0163056,11.9832979 C94.0163056,11.9832979 94.0998218,11.3099173 94.1319434,11.0414664 C94.2536675,11.2619567 95.6075094,13.7095597 96.123146,14.7176992 L96.7097883,15.8626392 L96.905223,15.8626392 L96.921791,15.8253007 C97.5219582,14.5104062 98.3689547,13.006244 99.5320956,11.0292348 C99.6954087,12.2073289 99.9148501,14.5644826 100.036236,15.9147844 L100.040294,15.9698265 L101.142234,15.9698265 L101.132091,15.8999777 C100.886614,14.2422771 100.613749,12.043812 100.295238,9.18097911 L100.289152,9.12561513 L100.232347,9.12561513" id="Fill-8" fill-opacity="0.9" fill="#242527"></path>
                    <path d="M104.386167,9.12561513 L104.097987,9.12561513 L101.142234,15.9698265 L101.94561,15.9698265 L101.956869,15.9272786 C102.197578,15.0905048 102.506451,14.289345 102.807108,13.5162353 C102.807108,13.5162353 102.845147,13.4204239 102.862188,13.3728334 C102.936744,13.3728334 105.073601,13.3728334 105.146635,13.3728334 C105.460378,14.114111 105.784771,14.9726316 106.107947,15.9304303 L106.121945,15.9698265 L107.225978,15.9698265 L104.386167,9.12561513 Z M103.087377,12.8477617 C103.148543,12.7002626 103.924531,10.8168123 104.015519,10.5949333 C104.10742,10.816182 104.896493,12.7002626 104.958876,12.8477617 C104.805505,12.8477617 103.240748,12.8477617 103.087377,12.8477617 L103.087377,12.8477617 Z" id="Fill-9" fill-opacity="0.9" fill="#242527"></path>
                    <path d="M110.498831,12.5861859 C111.781766,12.3376917 112.54825,11.6327666 112.54825,10.6809568 C112.54825,9.63547877 111.785108,9.12561513 110.216706,9.12561513 L107.986446,9.12561513 L107.986446,15.9698265 L109.012325,15.9698265 C109.012325,15.9698265 109.012325,12.8063543 109.012325,12.688223 C109.09255,12.688223 109.265703,12.688223 109.30615,12.688223 C109.342251,12.7294241 110.104391,13.5904628 110.104391,13.5904628 C110.103054,13.5882096 111.308771,15.0923717 111.308771,15.0923717 L111.971632,15.9688608 L112.005059,15.9698265 L113.309721,15.9698265 C113.309721,15.9698265 110.6185,12.7310335 110.498831,12.5861859 Z M109.012325,12.1963848 C109.012325,12.0879101 109.012325,9.71981228 109.012325,9.61037185 C109.431836,9.59073695 110.084,9.5643425 110.439331,9.62035024 C111.149324,9.73236574 111.511006,10.1292482 111.511006,10.7994099 C111.511006,11.4866315 111.040351,11.9900574 110.254813,12.143274 C109.809229,12.2288951 109.270049,12.2105477 109.012325,12.1963848 L109.012325,12.1963848 Z" id="Fill-10" fill-opacity="0.9" fill="#242527"></path>
                    <path d="M117.809286,9.12561513 L112.549253,9.12561513 L112.549253,9.84372788 L112.618096,9.83698955 C113.221209,9.77345679 113.805548,9.71987108 114.75485,9.71858759 C114.75485,9.83955653 114.75485,15.9698265 114.75485,15.9698265 L115.767725,15.9698265 C115.767725,15.9698265 115.767725,9.8411609 115.767725,9.71987108 C116.480855,9.72147544 117.164998,9.76094276 117.802369,9.83698955 L117.872529,9.84436962 L117.872529,9.12561513 L117.809286,9.12561513" id="Fill-11" fill-opacity="0.9" fill="#242527"></path>
                    <polygon id="Fill-12" fill-opacity="0.9" fill="#242527" points="118.632997 15.9698265 119.393465 15.9698265 119.393465 9.12561513 118.632997 9.12561513"></polygon>
                    <path d="M127.055918,9.12561513 C127.055918,9.12561513 127.055918,14.0694256 127.055918,14.1888444 C127.051215,14.1888444 127.048528,14.1888444 127.045505,14.1888444 C127.008557,14.1498965 122.166956,9.12561513 122.166956,9.12561513 L121.674868,9.12561513 L121.674868,15.9698265 L122.376555,15.9698265 C122.376555,15.9698265 122.376555,10.7939379 122.376555,10.6745191 C122.383272,10.6745191 122.38428,10.6745191 122.388983,10.6745191 C122.426603,10.7137889 126.806347,15.3527756 126.806347,15.3527756 C126.808363,15.3527756 127.356545,15.9678952 127.356545,15.9678952 L127.758612,15.9698265 L127.758612,9.12561513 L127.055918,9.12561513" id="Fill-13" fill-opacity="0.9" fill="#242527"></path>
                    <path d="M34.9815246,83.651472 C34.5969266,83.6267199 34.2705612,83.5885882 33.9228109,83.5885882 C33.5368968,83.5885882 33.1911205,83.6267199 32.8436992,83.651472 C32.2551228,81.9311987 31.5211295,79.9463452 30.7052158,78.0698659 L25.5337049,78.0698659 C24.8217544,79.8861373 24.0887481,81.7084295 23.5189245,83.651472 C23.2333547,83.6267199 23.0102945,83.5885882 22.7642044,83.5885882 C22.5006774,83.5885882 22.2746562,83.6267199 22.0535699,83.651472 L28.4055236,69.2025814 L28.873687,69.2025814 L34.9815246,83.651472 Z M28.1403517,71.9089261 L25.9212639,77.2005308 L30.4008932,77.2005308 L28.1403517,71.9089261 L28.1403517,71.9089261 Z" id="Fill-14" fill-opacity="0.9" fill="#242527"></path>
                    <path d="M36.3326519,80.6625113 C37.1286577,81.9644472 38.0466188,82.7773761 39.6383007,82.7773761 C41.29129,82.7773761 42.4732679,81.4136155 42.4732679,79.8088044 C42.4732679,76.0282903 36.0894005,77.6962415 36.0894005,73.1008254 C36.0894005,70.4811686 38.169563,69.2025814 40.6172395,69.2025814 C41.5955191,69.2025814 42.7791451,69.5054566 43.5323017,70.1756625 C43.288391,70.7011724 43.1463295,71.2700911 42.9821842,71.8422983 L42.7791451,71.8422983 C42.3499941,70.742937 41.4544464,70.0720733 40.2520327,70.0720733 C38.8432838,70.0720733 37.6810824,71.0079939 37.6810824,72.4500219 C37.6810824,76.189758 44.1071398,74.6852476 44.1071398,79.014949 C44.1071398,81.9223538 41.8391001,83.651472 39.0660995,83.651472 C38.066725,83.651472 36.4358196,83.2246185 35.7419926,82.4731855 C35.9440429,81.8838778 36.0475401,81.2712214 36.1279647,80.6625113 L36.3326519,80.6625113" id="Fill-15" fill-opacity="0.9" fill="#242527"></path>
                    <path d="M51.2018638,82.8910041 C50.8721491,82.8693758 50.583107,82.8257965 50.2937315,82.8257965 C49.9830196,82.8257965 49.6739746,82.8693758 49.386266,82.8910041 L49.386266,70.1603578 C47.3026291,70.1603578 46.0414454,70.2762464 44.8676077,70.3966545 C44.8889441,70.1978037 44.9302835,69.9989529 44.9302835,69.8013934 C44.9302835,69.5999601 44.8889441,69.4172498 44.8676077,69.2025814 L55.5141587,69.2025814 C55.4924889,69.4172498 55.4538166,69.5999601 55.4538166,69.8013934 C55.4538166,69.9989529 55.4924889,70.1978037 55.5141587,70.3966545 C54.4816749,70.2762464 53.0394648,70.1603578 51.2018638,70.1603578 L51.2018638,82.8910041" id="Fill-16" fill-opacity="0.9" fill="#242527"></path>
                    <path d="M54.7536908,76.4541572 C54.7536908,72.0031083 58.0617992,69.2025814 62.2676448,69.2025814 C66.0863084,69.2025814 69.9630493,71.2700911 69.9630493,76.1476646 C69.9630493,80.6815848 66.7543612,83.651472 62.2285985,83.651472 C57.7402414,83.651472 54.7536908,80.8072074 54.7536908,76.4541572 Z M66.6939871,71.8422983 C65.681408,70.5614091 64.0959309,69.8701565 62.4707512,69.8701565 C58.898834,69.8701565 56.7457089,72.572027 56.7457089,76.6988251 C56.7457089,80.8282541 59.2627194,82.9776486 62.2863476,82.9776486 C66.5729107,82.9776486 68.1173728,78.5499484 67.9726718,76.3157093 C67.9726718,74.6296711 67.7511906,73.2021127 66.6939871,71.8422983 L66.6939871,71.8422983 Z" id="Fill-17" fill-opacity="0.9" fill="#242527"></path>
                    <path d="M83.651472,82.8910041 L83.0580084,82.8910041 C82.8435609,82.6115758 82.4492951,82.1288093 82.0375559,81.6693554 L73.5425753,72.1017709 L73.345919,72.1017709 L73.345919,82.8910041 C73.1502158,82.8670438 72.9716684,82.8301321 72.7940741,82.8301321 C72.5986886,82.8301321 72.4226828,82.8670438 72.2444531,82.8910041 L72.2444531,69.2025814 L73.0120163,69.2025814 L82.349855,79.5071053 L82.5487352,79.5071053 L82.5487352,69.2025814 C82.7263296,69.2200659 82.9029708,69.2615106 83.0983563,69.2615106 C83.2740444,69.2615106 83.4529095,69.2200659 83.651472,69.2025814 L83.651472,82.8910041" id="Fill-18" fill-opacity="0.9" fill="#242527"></path>
                    <path d="M107.118836,69.2025814 C107.643028,74.1406582 108.206493,79.0703165 108.746914,82.8910041 C108.383388,82.8670438 108.100681,82.8301321 107.802071,82.8301321 C107.481389,82.8301321 107.160058,82.8670438 106.8595,82.8910041 C106.518369,78.8663306 106.113947,74.5415066 105.832539,72.5618723 C103.503376,76.7044043 101.77468,79.904392 100.568877,82.6701813 L100.35206,82.6701813 L99.2446039,80.4091761 C97.957657,77.7706351 96.554187,75.1635016 95.1873942,72.5618723 C94.7449961,76.4622115 94.199058,80.4282795 94.199058,82.8910041 C93.9429669,82.8670438 93.7186843,82.8301321 93.4999196,82.8301321 C93.237337,82.8301321 93.0185722,82.8670438 92.7770871,82.8910041 C93.2996557,79.6693226 94.5009144,71.3000741 94.7037748,69.2025814 L95.2273172,69.2025814 C96.8342968,72.3870273 98.7635811,76.1429575 100.910007,79.6893974 C102.822414,76.2637301 104.667308,72.7836665 106.69851,69.2025814 L107.118836,69.2025814" id="Fill-19" fill-opacity="0.9" fill="#242527"></path>
                    <path d="M122.435336,83.651472 C122.045474,83.6267199 121.722728,83.5885882 121.374977,83.5885882 C120.99005,83.5885882 120.641971,83.6267199 120.299485,83.651472 C119.706302,81.9311987 118.973954,79.9463452 118.156395,78.0698659 L112.990149,78.0698659 C112.27425,79.8861373 111.53927,81.7084295 110.971091,83.651472 C110.686508,83.6267199 110.464106,83.5885882 110.217358,83.5885882 C109.956134,83.5885882 109.727152,83.6267199 109.507382,83.651472 L115.858019,69.2025814 L116.327828,69.2025814 L122.435336,83.651472 Z M115.594492,71.9089261 L113.373102,77.2005308 L117.853718,77.2005308 L115.594492,71.9089261 L115.594492,71.9089261 Z" id="Fill-20" fill-opacity="0.9" fill="#242527"></path>
                    <path d="M123.195804,69.2025814 L127.691784,69.2025814 C130.958814,69.2025814 132.400585,70.2218631 132.400585,72.2403518 C132.400585,74.5628765 130.198004,75.6854463 128.052655,76.0442024 L132.423546,81.268507 L133.440359,82.3884865 L133.842355,82.8910041 C133.398892,82.8670438 133.014717,82.8301321 132.613749,82.8301321 C132.21141,82.8301321 131.78611,82.8670438 131.402278,82.8910041 C130.936196,82.2699804 130.512609,81.7072385 130.066747,81.1477344 L127.56601,78.0872989 L125.867209,76.2093338 L125.062189,76.2093338 L125.062189,82.8910041 C124.721881,82.8670438 124.426124,82.8301321 124.128997,82.8301321 C123.809593,82.8301321 123.490875,82.8670438 123.195804,82.8910041 L123.195804,69.2025814 Z M125.062189,75.4439012 C125.357946,75.4636522 126.716781,75.5455703 127.796995,75.3454699 C129.350488,75.0462906 130.512609,74.0438458 130.512609,72.4838397 C130.512609,71.1022402 129.77099,70.2008169 128.180485,69.9579766 C127.396027,69.8436798 125.951515,69.899695 125.062189,69.9408159 L125.062189,75.4439012 L125.062189,75.4439012 Z" id="Fill-21" fill-opacity="0.9" fill="#242527"></path>
                    <path d="M140.18135,82.8910041 C139.848666,82.8693758 139.559318,82.8257965 139.270303,82.8257965 C138.959953,82.8257965 138.651937,82.8693758 138.362922,82.8910041 L138.362922,70.1603578 C136.279481,70.1603578 135.021416,70.2762464 133.842355,70.3966545 C133.867023,70.1978037 133.906025,69.9989529 133.906025,69.8013934 C133.906025,69.5999601 133.867023,69.4172498 133.842355,69.2025814 L144.488906,69.2025814 C144.467905,69.4172498 144.430903,69.5999601 144.430903,69.8013934 C144.430903,69.9989529 144.467905,70.1978037 144.488906,70.3966545 C143.458853,70.2762464 142.015445,70.1603578 140.18135,70.1603578 L140.18135,82.8910041" id="Fill-22" fill-opacity="0.9" fill="#242527"></path>
                    <path d="M146.77031,69.2025814 C147.134413,69.2200659 147.528683,69.2615106 147.914154,69.2615106 C148.276162,69.2615106 148.639427,69.2200659 149.051714,69.2025814 L149.051714,82.8910041 C148.639427,82.8670438 148.276162,82.8301321 147.914154,82.8301321 C147.528683,82.8301321 147.134413,82.8670438 146.77031,82.8910041 L146.77031,69.2025814" id="Fill-23" fill-opacity="0.9" fill="#242527"></path>
                    <path d="M162.740136,82.8910041 L162.148278,82.8910041 C161.932883,82.6115758 161.538946,82.1288093 161.12563,81.6693554 L152.628027,72.1017709 L152.437412,72.1017709 L152.437412,82.8910041 C152.237267,82.8670438 152.062219,82.8301321 151.883359,82.8301321 C151.687979,82.8301321 151.510707,82.8670438 151.333117,82.8910041 L151.333117,69.2025814 L152.10193,69.2025814 L161.44078,79.5071053 L161.636477,79.5071053 L161.636477,69.2025814 C161.814384,69.2200659 161.992609,69.2615106 162.18926,69.2615106 C162.366532,69.2615106 162.544121,69.2200659 162.740136,69.2025814 L162.740136,82.8910041" id="Fill-24" fill-opacity="0.9" fill="#242527"></path>
                </g>
            </g>
        </g>
    </g>
</svg>