<?xml version="1.0" encoding="UTF-8"?>
<svg width="203px" height="134px" viewBox="0 0 203 134" version="1.1" xmlns="http://www.w3.org/2000/svg" xmlns:xlink="http://www.w3.org/1999/xlink">
    <!-- Generator: Sketch 53.2 (72643) - https://sketchapp.com/ -->
    <title>3-Monkey-_-Zeno 2</title>
    <desc>Created with Sketch.</desc>
    <g id="Design-Round-5" stroke="none" stroke-width="1" fill="none" fill-rule="evenodd">
        <g id="7.-Partners" transform="translate(-383.000000, -3836.000000)">
            <rect fill="#FFFFFF" x="0" y="0" width="1440" height="5353"></rect>
            <g id="Logo_OMD-2" transform="translate(383.000000, 3836.000000)" fill="#EE2D23" fill-rule="nonzero">
                <g id="Logo_OMD" style="mix-blend-mode: luminosity;" transform="translate(25.000000, 21.000000)">
                    <path d="M155.954272,59.3499741 C155.954272,43.2035429 143.506252,28.5592556 119.428335,28.5592556 L95.509635,28.5592556 L95.509635,0 L75.1164375,0 L66.915615,15.1583282 L58.3333725,0 L37.942125,0 L37.942125,33.6555707 C33.8349375,29.7463707 28.3023975,27.5930037 22.3203825,27.5930037 C16.2272175,27.5930037 10.577385,29.8411244 6.4136475,33.9256234 C4.3903275,35.9082967 2.8063425,38.2336313 1.7042025,40.8312724 C0.5733975,43.4964267 0,46.3387418 0,49.279926 L0,49.3847724 C0,55.2292198 2.25927,60.6639827 6.361095,64.6872397 C10.49022,68.7368553 16.182465,70.9664564 22.277775,70.9664564 C28.37094,70.9664564 33.9575925,68.7177478 38.12094,64.6340327 C40.14387,62.6482238 41.728635,60.3248489 42.83175,57.7267179 C43.774575,55.5043679 44.3237925,53.1554184 44.482035,50.7317046 L55.7884275,50.7317046 L55.7884275,29.9158886 L66.916005,45.8787898 L77.66226,29.9158886 L77.66226,50.7317046 L95.200365,50.7317046 L95.200365,92 L118.708492,92 C142.956157,92 156,78.4854074 156,60.2639989 L155.954272,59.3499741 Z M29.376555,49.3847724 C29.376555,53.1741339 26.953485,56.7169597 22.3199925,56.7169597 C17.6333625,56.7169597 15.1057725,53.1848145 15.1057725,49.279926 L15.1057725,49.17312 L15.1049925,49.17312 C15.1049925,45.3843463 17.6084025,41.7374582 22.276995,41.7374582 C26.9278425,41.7374582 29.376165,45.3272198 29.376165,49.279926 L29.376555,49.3847724 L29.376555,49.3847724 Z M134.019795,60.0477411 C134.019795,67.8342951 127.976355,71.2255346 120.813907,71.2255346 L116.682735,71.2255346 L116.682735,48.7109143 L120.75258,48.7109143 C127.976355,48.7109143 134.019795,52.1092089 134.019795,59.8975267 L134.019795,60.0477411 L134.019795,60.0477411 Z" id="Shape"></path>
                </g>
            </g>
        </g>
    </g>
</svg>