<?xml version="1.0" encoding="UTF-8"?>
<svg width="111px" height="87px" viewBox="0 0 111 87" version="1.1" xmlns="http://www.w3.org/2000/svg" xmlns:xlink="http://www.w3.org/1999/xlink">
    <!-- Generator: Sketch 53.2 (72643) - https://sketchapp.com/ -->
    <title>rhp-light</title>
    <desc>Created with Sketch.</desc>
    <g id="6.-Charity/Third-Sector" stroke="none" stroke-width="1" fill="none" fill-rule="evenodd">
        <g id="RHP---Website" transform="translate(-269.000000, -149.000000)" fill="#FFFFFF" fill-rule="nonzero">
            <g id="rhp-light" transform="translate(269.000000, 149.000000)">
                <g id="Group" transform="translate(0.000000, 75.000000)">
                    <polygon id="Path" points="64.6820382 5.59324138 59.4663057 0.399310345 54.2551274 5.59324138 55.8316879 5.59324138 55.8316879 11.7318621 63.1063057 11.7318621 63.1063057 5.59324138"></polygon>
                    <polygon id="Path" points="45.9028344 0.399310345 40.6916561 5.59324138 42.2678025 5.59324138 42.2678025 11.7318621 49.5420064 11.7318621 49.5420064 5.59324138 51.1173248 5.59324138"></polygon>
                    <polygon id="Path" points="32.3393631 0.399310345 27.1277707 5.59324138 28.7039172 5.59324138 28.7039172 11.7318621 35.976879 11.7318621 35.976879 5.59324138 37.5530255 5.59324138"></polygon>
                    <polygon id="Path" points="18.7767197 0.399310345 13.5638854 5.59324138 15.1400318 5.59324138 15.1400318 11.7318621 22.4121656 11.7318621 22.4121656 5.59324138 23.9883121 5.59324138"></polygon>
                    <polygon id="Path" points="5.21324841 0.399310345 0 5.59324138 1.5761465 5.59324138 1.5761465 11.7318621 8.84786624 11.7318621 8.84786624 5.59324138 10.4240127 5.59324138"></polygon>
                </g>
                <path d="M5.49024942,35.5683266 L5.49024942,27.0376633 L0,27.0376633 L0,71 L5.49024942,71 L5.49024942,50.5749149 C5.49024942,41.2725925 11.272797,31.3876139 21.9853559,31.3876139 L23,31.3876139 L23,26 L21.9853559,26 C14.9790198,26 9.15279553,29.4345833 5.49024942,35.5683266 Z" id="Path"></path>
                <path d="M49.4211866,25.6780451 C42.6082746,25.6780451 36.9308479,29.3337773 33.3517163,35.8655732 L33.3517163,0 L28,1.50832647 L28,71 L33.3517163,71 L33.3517163,52.0453502 C33.3517163,42.3840982 37.5589452,31.1046197 49.4211866,31.1046197 C54.937804,31.1046197 58.6495113,34.7474956 58.6495113,40.1695084 L58.6495113,71 L64,71 L64,40.1695084 C64,31.7731438 57.8696067,25.6780451 49.4211866,25.6780451 Z" id="Path"></path>
                <path d="M107.84533,35.7704426 C103.995952,29.5608369 97.0558429,26 88.797633,26 C84.536759,26 80.2660484,26.966353 76.3592909,28.8008492 L76.3592909,26.9489487 L71,26.9489487 L71,87 L76.2691224,87 L76.2691224,69.7626983 C79.6008504,71.3837845 83.3752241,72.2345233 87.292228,72.2345233 C95.2073875,72.2345233 102.493416,68.4913556 106.779292,62.2253932 C109.579845,58.2456099 111,53.4826331 111,48.0761115 C111.00041,43.4668727 109.913469,39.2185659 107.84533,35.7704426 Z M87.2926378,66.9117082 C83.4367026,66.9117082 79.6348685,65.7601236 76.2695322,63.5746408 L76.2695322,34.8011888 C80.1930939,32.6173635 84.6195501,31.4222683 88.797633,31.4222683 C95.1483681,31.4222683 100.421179,34.0528039 103.253291,38.6264054 C104.861161,41.3041812 105.639479,44.3930301 105.639479,48.0756972 C105.639479,52.390306 104.537784,56.2242247 102.433987,59.1879284 C99.1870996,64.0238375 93.5310722,66.9117082 87.2926378,66.9117082 Z" id="Shape"></path>
            </g>
        </g>
    </g>
</svg>