<?xml version="1.0" encoding="UTF-8"?>
<svg width="203px" height="134px" viewBox="0 0 203 134" version="1.1" xmlns="http://www.w3.org/2000/svg" xmlns:xlink="http://www.w3.org/1999/xlink">
    <!-- Generator: Sketch 53.2 (72643) - https://sketchapp.com/ -->
    <title>3-Monkey-_-Zeno 2</title>
    <desc>Created with Sketch.</desc>
    <g id="Design-Round-5" stroke="none" stroke-width="1" fill="none" fill-rule="evenodd">
        <g id="7.-Partners" transform="translate(-618.000000, -3839.000000)">
            <rect fill="#FFFFFF" x="0" y="0" width="1440" height="5353"></rect>
            <g id="logo-2" transform="translate(618.000000, 3839.000000)" fill="#030304" fill-rule="nonzero">
                <g id="logo" transform="translate(10.000000, 55.000000)">
                    <path d="M10.1204657,6.72406052 C10.1204657,7.93256409 9.15211523,8.89297954 7.80903718,8.89297954 L4.96655096,8.89297954 L4.96655096,4.5240276 L7.80903718,4.5240276 C9.15211523,4.5240276 10.1204657,5.51555695 10.1204657,6.72406052 Z M17.8983033,22 L10.7139227,12.6422874 C13.2752802,11.6817073 14.9620522,9.26486478 14.9620522,6.53820021 C14.9620522,2.94380341 11.9946014,0.000164623835 8.37129449,0.000164623835 L0,0.000164623835 L0,22 L4.96655096,22 L4.96655096,13.0760712 L5.06014988,13.0760712 L11.9322022,22 L17.8983033,22 Z M19.712529,22 L24.7416452,22 L24.7416452,0 L19.712529,0 L19.712529,22 Z M49.2307062,22 L62.9746448,22 L62.9746448,17.1042518 L54.2284568,17.1042518 L54.2284568,13.3858932 L61.1003431,13.3858932 L61.1003431,8.61410677 L54.2284568,8.61410677 L54.2284568,4.89591284 L62.9746448,4.89591284 L62.9746448,0.000164623835 L49.2307062,0.000164623835 L49.2307062,22 Z M75.2221625,6.72406052 C75.2221625,7.93256409 74.253812,8.89297954 72.910568,8.89297954 L70.0680818,8.89297954 L70.0680818,4.5240276 L72.910568,4.5240276 C74.253812,4.5240276 75.2221625,5.51555695 75.2221625,6.72406052 Z M80.0637489,6.53820021 C80.0637489,2.94380341 77.0962982,0.000164623835 73.4728253,0.000164623835 L65.1015308,0.000164623835 L65.1015308,22 L70.0680818,22 L70.0680818,13.0760712 L70.1618466,13.0760712 L77.033733,22 L83,22 L75.8156194,12.6422874 C78.376977,11.6817073 80.0637489,9.26486478 80.0637489,6.53820021 Z" id="Fill-1"></path>
                    <path d="M48,0 L35,0 C37.6100815,0.56469697 38.8559148,3.17606061 38.8559148,3.17606061 C39.5294953,4.46560606 40.2799685,6.8269697 40.2799685,6.8269697 C40.2799685,6.8269697 40.2799685,6.84166667 40.2883412,6.8269697 C40.3438749,6.72863636 40.3992376,6.64136364 40.5205573,6.61378788 C40.7731073,6.55636364 40.7825053,6.65681818 40.8376972,6.67712121 C40.9581625,6.72151515 41.0439406,6.66227273 41.1890116,6.64136364 C41.2855547,6.62742424 41.3351078,6.65242424 41.4564274,6.65242424 C41.577918,6.65242424 41.5840694,6.4719697 41.988867,6.53863636 C42.0896819,6.55530303 42.0346609,6.71318182 42.0168901,6.83818182 C42.0045873,6.92439394 41.9258149,7.55348485 41.5314406,7.71863636 C41.1370662,7.88378788 40.8356467,8.47409091 40.8356467,8.47409091 C40.8356467,8.47409091 41.3940589,11.4334848 41.1596215,13 L48,0 Z" id="Fill-3"></path>
                    <path d="M38.5715556,14.8864898 C36.6277019,13.7308313 35.5418304,10.4510663 35.5418304,10.4510663 C35.5418304,10.4510663 35.436867,9.90815587 35.3392447,9.92378387 C35.0785544,9.96562135 34.254779,9.88048127 33.9889341,9.80071332 C33.7474558,9.728271 33.018335,9.07905758 32.8519867,8.9310799 C32.6854822,8.7834278 32.2532891,8.61314765 32.0502349,8.62731053 C31.8104747,8.64407808 31.8701414,8.53240295 31.9900996,8.45247221 C32.0353963,8.42219295 32.0785063,8.33900638 32.297961,8.33509938 C32.420887,8.33282029 32.5944202,8.13047017 32.6567422,8.0492371 C32.7745137,7.8957245 33.0070889,7.89100354 33.1935864,7.82035193 C33.4619303,7.71860709 33.3399416,7.54067573 33.6571748,7.48972192 C33.9031828,7.45032632 34.0404787,7.50681505 34.2672746,7.56607124 C34.4940706,7.62532743 34.5663891,7.45358216 34.7605402,7.48321025 C34.9546913,7.51283835 35.0484086,7.74904915 35.0969854,8.10019091 C35.141345,8.4212162 35.4060964,8.5965429 35.3898521,8.60875228 C35.3747011,7.83093339 35.3964123,7.04660283 35.6550722,4.91956609 C35.9185741,2.75329653 34.1499718,1.35068299 33.9417631,1.19358897 C33.93614,1.20172855 33.9286427,1.21198443 33.9186461,1.22468219 C33.8235231,1.34596203 33.7677612,1.64598718 33.8616348,1.99664057 C33.957695,2.35608471 34.1552824,2.88304154 34.099833,3.06048453 C34.0443836,3.23776472 33.3577479,2.66310991 33.1359502,2.63348182 C32.9141525,2.60385372 32.7448365,2.51529502 32.3288878,2.33785204 C31.912939,2.16057184 32.0008771,1.79461603 31.6958272,1.58770774 C31.3907773,1.38079946 31.0988478,1.24486836 30.7383484,1.09705347 C30.3778491,0.949238579 29.7277632,0.895680099 29.5612587,0.540794128 C29.4356775,0.27283894 29.1976354,0.0787911974 29.0886109,0 L26,0 L35.8487546,22 L39,14.9607228 C38.8831657,15.0066301 38.7419649,14.987909 38.5715556,14.8864898" id="Fill-5"></path>
                    <path d="M94.5291726,23 C97.3558838,23 100.532015,22.3030962 102.723433,20.7823507 L102.723433,10.8347052 L95.0373736,10.8347052 L94.7515001,11.4366147 L102.119996,11.4366147 L102.119996,20.4338152 C100.023814,21.7644048 97.0700103,22.3980905 94.5291726,22.3980905 C88.4946411,22.3980905 83.6351256,17.772636 83.6351256,11.5 C83.6351256,5.22719671 88.4946411,0.601909485 94.5291726,0.601909485 C97.3877407,0.601909485 99.8967215,1.3621986 101.834123,2.81955877 L102.215232,2.31264361 C100.182595,0.791898141 97.578379,0 94.5291726,0 C88.0499862,0 83,4.97382275 83,11.5 C83,18.0261772 88.0499862,23 94.5291726,23 Z M122.160992,22.746626 L122.923545,22.746626 L113.649169,11.5949943 L113.712715,11.5949943 C118.318046,11.5949943 120.38254,9.18735639 120.38254,5.92426776 C120.38254,2.66117914 118.318046,0.253373957 113.712715,0.253373957 L107.805276,0.253373957 L107.805276,22.746626 L108.408545,22.746626 L108.408545,11.5949943 L112.91864,11.5949943 L122.160992,22.746626 Z M108.408545,10.9930848 L108.408545,0.855283441 L113.871496,0.855283441 C117.810013,0.855283441 119.747247,2.88294407 119.747247,5.92426776 C119.747247,8.96559146 117.810013,10.9930848 113.871496,10.9930848 L108.408545,10.9930848 Z M135.373717,22.3980905 C129.370707,22.3980905 124.479502,17.772636 124.479502,11.5 C124.479502,5.22719671 129.370707,0.601909485 135.373717,0.601909485 C141.376391,0.601909485 146.267596,5.22719671 146.267596,11.5 C146.267596,17.772636 141.376391,22.3980905 135.373717,22.3980905 Z M135.373717,23 C141.852736,23 146.902722,18.0261772 146.902722,11.5 C146.902722,4.97382275 141.852736,0 135.373717,0 C128.894363,0 123.844377,4.97382275 123.844377,11.5 C123.844377,18.0261772 128.894363,23 135.373717,23 Z M159.607078,23 C164.815845,23 167.864884,19.9902853 167.864884,14.5095474 L167.864884,0.253373957 L167.261448,0.253373957 L167.261448,14.5095474 C167.261448,19.8319057 164.307644,22.3980905 159.607078,22.3980905 C154.906679,22.3980905 151.952708,19.8319057 151.952708,14.5095474 L151.952708,0.253373957 L151.349272,0.253373957 L151.349272,14.5095474 C151.349272,19.9902853 154.39831,23 159.607078,23 Z M172.946224,22.746626 L173.549661,22.746626 L173.549661,12.2286801 L179.171394,12.2286801 C183.840271,12.2286801 186,9.50411565 186,6.24102702 C186,2.9779384 183.840271,0.253373957 179.139537,0.253373957 L172.946224,0.253373957 L172.946224,22.746626 Z M173.549661,11.6267706 L173.549661,0.855283441 L179.266797,0.855283441 C183.300213,0.855283441 185.364707,3.19970332 185.364707,6.24102702 C185.364707,9.28235072 183.300213,11.6267706 179.266797,11.6267706 L173.549661,11.6267706 Z" id="Fill-7"></path>
                </g>
            </g>
        </g>
    </g>
</svg>