<?xml version="1.0" encoding="UTF-8"?>
<svg width="103px" height="121px" viewBox="0 0 103 121" version="1.1" xmlns="http://www.w3.org/2000/svg" xmlns:xlink="http://www.w3.org/1999/xlink">
    <!-- Generator: Sketch 53.2 (72643) - https://sketchapp.com/ -->
    <title>royal-british-legion-logo</title>
    <desc>Created with Sketch.</desc>
    <g id="6.-Charity/Third-Sector" stroke="none" stroke-width="1" fill="none" fill-rule="evenodd">
        <g id="Royal-British-Legion---Poppy-Shop-D-Day" transform="translate(-269.000000, -130.000000)">
            <g id="Group-2">
                <g id="royal-british-legion-logo" transform="translate(270.000000, 131.000000)">
                    <g id="Group-9" transform="translate(35.000000, 48.000000)" fill="#FFFFFF">
                        <path d="M64.1029186,34.3639341 C64.5544296,34.1854871 64.4583634,35.0994071 64.0160016,34.9453553 C63.6665037,34.8247341 64.1289937,34.9783341 63.9089564,34.5898165 C63.5370431,33.9356612 63.8938603,34.4479624 64.1029186,34.3639341" id="Fill-46"></path>
                        <path d="M66.569532,46.7590024 C67.0210431,46.5782965 66.9249769,47.4913129 66.4835299,47.3408753 C66.1326597,47.2175435 66.5951497,47.3711435 66.3755699,46.9821741 C66.0031991,46.3280188 66.3604737,46.8407718 66.569532,46.7590024" id="Fill-48"></path>
                        <path d="M34.125401,2.19533806 C34.3182324,2.31375597 34.7827453,1.99618066 34.7323905,2.2152538 C34.6816454,2.43378868 35.116492,1.77333967 34.7764997,1.49505758 C34.4365075,1.21462243 34.6191899,1.74965609 34.422455,1.54134822 C34.2257202,1.33519339 33.934131,2.07476709 34.125401,2.19533806" id="Fill-59"></path>
                        <path d="M37.5309947,2.4134804 C37.5309947,2.41562332 37.7962989,2.12954308 37.7189185,2.43330244 C38.4174478,3.03599958 38.5164105,0.862004026 37.7557664,2.06150527 C37.7578719,2.05989808 37.834726,2.24954678 37.5715273,2.04168323 C37.3041174,1.83435541 37.5309947,2.41562332 37.5309947,2.4134804" id="Fill-60"></path>
                        <path d="M43.702282,5.07179555 C43.4580963,5.20987491 43.1802877,3.94147149 43.4904582,4.29911309 C43.9981629,4.88715455 44.1675378,4.42916458 44.1952767,4.78680618 C44.2251169,5.14404638 43.9460475,4.93251201 43.702282,5.07179555" id="Fill-61"></path>
                        <path d="M45.4552793,6.03113433 C45.5671874,6.20357881 45.5570139,6.39534896 45.6225762,6.05293765 C45.6877617,5.71052634 46.1402925,6.14064648 45.6877617,6.60347161 C45.2325935,7.06481015 45.5833896,6.44787516 45.415339,6.53261081 C45.2450277,6.61833752 45.3433712,5.85918538 45.4552793,6.03113433" id="Fill-62"></path>
                        <path d="M58.2731092,59.9194234 C58.0105843,60.3439965 58.2433894,61.2736957 57.4285714,61.2705882 C57.8996304,60.9025281 56.9015402,59.559827 58.2731092,59.9194234" id="Fill-63"></path>
                        <path d="M53.983629,61.5694702 C54.2400123,62.15203 53.710558,62.6639005 53.2058824,62.9647059 C53.4086629,62.5300421 54.0362205,62.081842 53.8288888,61.5534272 C53.8304058,61.5499178 53.9871688,61.5664621 53.983629,61.5694702" id="Fill-64"></path>
                        <path d="M43.545116,68.0468235 C43.3687267,67.9688544 43.3250748,68.3933526 42.8631664,68.4366688 C42.4025942,68.4804181 42.1233112,69.0495922 41.9625118,68.8529369 C41.8021579,68.6536827 42.8199599,67.696829 42.8275322,68.0035073 C42.834659,68.3123514 42.9077091,68.1070329 43.0382194,68.0667489 C43.1705114,68.0234327 43.0907798,67.777397 43.2301987,67.8700936 C43.3687267,67.959758 43.3250748,67.6881658 43.464939,67.7864934 C43.6048033,67.8848211 43.7219507,68.1217604 43.545116,68.0468235" id="Fill-65"></path>
                        <path d="M53.7475619,63.9968072 C53.8445473,64.0593657 53.5829537,64.451739 53.5242286,64.3636465 C53.4646137,64.278533 53.5002047,64.3721579 53.2955566,64.3436448 C53.0904637,64.3125784 53.2790958,63.9346743 53.443704,63.8380705 C53.6100918,63.7414666 53.6532458,63.9376533 53.7475619,63.9968072" id="Fill-66"></path>
                        <path d="M8.66991072,59.5187395 C8.54643587,59.35531 8.2843822,59.9848723 8.58306296,59.8357853 C9.14228699,59.5564831 9.02900731,59.2771808 8.91421723,59.2949203 C8.80093755,59.3122823 8.79489597,59.6851885 8.66991072,59.5187395" id="Fill-67"></path>
                        <path d="M11.5247056,61.8186406 C11.6374327,61.920167 11.1674985,62.2747283 11.0419291,62.0373128 C10.9182622,61.8030211 10.7360913,62.0244267 10.4930383,61.9537488 C10.1439171,61.8498795 9.83474986,61.904157 9.85377554,61.7194571 C9.87422814,61.5343667 10.7722401,61.5003945 10.7517875,61.6335502 C10.7308592,61.7690489 11.4562132,61.7585057 11.5247056,61.8186406" id="Fill-68"></path>
                        <path d="M48.8345556,66.321905 C48.4675637,66.7464722 48.9277008,66.6113826 48.8222604,66.7403318 C48.3360427,67.3341996 48.3271008,66.2574304 48.6020653,66.1197092 C48.7298604,66.052603 48.7619024,65.7275986 48.9012475,65.7982136 C48.9996088,65.8508459 49.0432008,66.0815508 48.8345556,66.321905" id="Fill-69"></path>
                        <path d="M45.0420168,67.8212794 C44.7339135,68.0841334 44.9611054,68.120847 44.8623661,68.2356748 C44.7265995,68.3919031 44.6639732,68.1622475 44.5053503,68.3294118 C44.3499273,68.0376555 44.9277352,67.6099806 45.0420168,67.8212794" id="Fill-70"></path>
                        <path d="M18.8613311,67.0632121 C18.8655753,67.2100412 17.8634722,67.2639942 17.8634722,67.09674 C17.8634722,66.9294858 17.5946728,67.2948244 17.4612162,66.9452863 C17.3291744,66.6007581 19.0042192,66.5437221 18.6552515,66.7726368 C18.3076986,67.0042492 18.8566153,66.919466 18.8613311,67.0632121" id="Fill-71"></path>
                        <path d="M15.659227,64.7810783 C15.6765578,64.9638483 15.3928172,64.5957401 15.1292286,64.8011958 C14.6427586,65.1697321 14.4730785,64.7066006 14.8269481,64.5957401 C15.2303918,64.4698984 15.1344681,63.7529434 15.6914703,64.2931208 C15.8889602,64.4870197 15.6201321,64.3757312 15.659227,64.7810783" id="Fill-72"></path>
                        <path d="M22.2380248,68.2291385 C22.1862543,68.5066133 21.6858064,68.4938896 21.8083741,68.608403 C21.9327117,68.7190015 21.9397914,69.21229 21.4928839,68.5721894 C21.0437639,67.9320887 22.2880253,67.9550893 22.2380248,68.2291385" id="Fill-73"></path>
                        <path d="M20.3832979,66.7556731 C20.3293456,66.9842728 20.6521291,66.8208709 20.8116604,67.0873669 C20.9735172,67.3538628 20.1167922,67.8571083 19.9921439,67.0197241 C19.9335405,66.6334272 20.4377153,66.5246284 20.3832979,66.7556731" id="Fill-74"></path>
                        <path d="M34.6098362,69.3592239 C34.4302857,69.3417309 34.5510179,69.9452391 34.1640556,69.6684125 C33.7775356,69.3942099 34.6288526,68.6380753 34.5695921,68.9822499 C34.5138696,69.3294858 34.6761726,69.1869179 34.6098362,69.3592239" id="Fill-75"></path>
                        <path d="M26.5131371,68.9652561 C26.6576937,69.0065554 26.8907544,69.6260455 26.6163918,69.4151759 C26.2913852,69.1625212 26.2309074,69.4448143 25.9978468,69.2859333 C25.450105,68.9127816 25.5843361,68.6144546 25.8405062,68.4103873 C26.2274656,68.0960265 25.9044258,68.7859684 26.5131371,68.9652561" id="Fill-76"></path>
                        <path d="M25.3322319,69.2662797 C25.3890948,69.6773856 24.8064687,69.3340444 24.7614158,69.5943738 C24.7159255,69.8501856 24.2636466,69.4131033 24.6402541,69.4057621 C25.0181737,69.394468 25.0680381,69.1719738 25.3322319,69.2662797" id="Fill-77"></path>
                        <path d="M30.9609131,69.2279057 C31.0388268,69.7214587 30.2601765,69.3069645 30.1983325,69.6203763 C30.1384364,69.9287057 29.5360659,69.4052234 30.0395833,69.3939293 C30.5431008,69.3826351 30.6098144,69.1149645 30.9609131,69.2279057" id="Fill-78"></path>
                        <path d="M32.5112362,69.5548129 C32.8257889,69.7175293 32.9541875,69.288688 33.1599117,69.5396058 C33.3651585,69.7882424 32.969939,70.1916117 32.908365,69.9482976 C32.8444043,69.7023221 32.6515678,69.968447 32.4477529,69.8642781 C31.7838033,69.5293409 32.1962062,69.3901956 32.5112362,69.5548129" id="Fill-79"></path>
                        <path d="M46.154101,67.2865851 C46.7000497,67.3835158 46.2564664,66.9581256 46.8702267,66.917947 C47.1436329,66.9008711 47.0231269,67.6185602 46.5100042,67.6080134 C46.2188892,67.5979687 46.4262115,68.0268746 46.1886547,68.0469639 C46.0430972,68.0575107 45.6081523,67.1856365 46.154101,67.2865851" id="Fill-80"></path>
                        <path d="M23.6394938,68.1138162 C23.6969125,68.4589296 23.4107023,68.5730166 23.3462167,68.756982 C23.3462167,68.7603095 23.3051403,69.0778519 23.119192,68.7351153 C22.9350105,68.3895266 23.5290732,67.8594971 23.6394938,68.1138162" id="Fill-81"></path>
                        <path d="M17.4448305,65.5844346 C17.5045,65.9749559 17.2501194,66.4987201 17.1469315,66.3151047 C17.0446409,66.1304061 16.9145344,66.2896477 16.9163289,66.2858563 C16.7646876,65.8812524 17.3322211,65.2919499 17.4448305,65.5844346" id="Fill-82"></path>
                        <path d="M37.9981634,69.2339462 C38.060134,69.596429 37.6231028,70.2952153 37.6910854,69.9120911 C37.7586056,69.532491 37.5615947,70.0369463 37.4552274,69.8889325 C37.3483975,69.7373945 37.8820842,68.9615806 37.9981634,69.2339462" id="Fill-83"></path>
                        <path d="M13.3740146,63.2429 C13.1022592,63.3210929 12.3469628,62.269232 12.8207789,62.393592 C13.294595,62.5216953 12.5808994,61.8054816 13.0444504,61.8362596 C13.5074611,61.8666218 13.6463103,63.1684504 13.3740146,63.2429" id="Fill-84"></path>
                        <path d="M35.2857468,70.5882097 C34.9122359,70.5945461 34.7625072,69.4237656 35.0819644,69.797616 C35.4008812,70.1685419 35.0960184,68.8710324 35.5381775,69.2448828 C35.9797961,69.6187332 35.6587172,70.5784613 35.2857468,70.5882097" id="Fill-85"></path>
                        <path d="M54.8893831,63.2925378 C54.9491468,63.5249959 54.5068955,63.5200255 54.5883914,63.7238087 C54.6698874,63.9302682 54.356943,63.7085154 54.3580296,63.7085154 C54.204274,63.468793 54.7752888,63.1220176 54.8893831,63.2925378" id="Fill-86"></path>
                        <path d="M59.1119506,59.3596386 C59.172098,59.6884912 58.734334,59.5799291 58.813023,59.9721096 C58.889903,60.3647423 58.5792173,59.9508495 58.580574,59.9481354 C58.4272661,59.610236 58.9984395,59.1149216 59.1119506,59.3596386" id="Fill-87"></path>
                        <path d="M61.3692327,56.7277913 C61.3543165,57.4416484 60.6739459,57.9748736 60.5613528,57.8689029 C60.4492408,57.7634139 60.6099506,57.1714231 60.8779608,57.2200733 C61.1478957,57.26487 61.0131688,56.25574 61.1551132,56.5124781 C61.2980199,56.7696979 61.3769313,56.3646008 61.3692327,56.7277913" id="Fill-88"></path>
                        <path d="M8.1259966,57.3432869 C8.30735829,57.4977839 7.78613077,58.561374 7.6422405,58.4369632 C7.49984909,58.3145853 7.75840192,57.5547039 7.90978648,57.6717964 C8.06117103,57.7909217 7.9446349,57.1883833 8.1259966,57.3432869" id="Fill-89"></path>
                        <path d="M6.68117625,39.6273826 C6.9079853,39.8403323 6.57776332,40.50861 6.2680241,40.3532916 C5.95778529,40.2000169 6.72463966,39.9764402 6.55278435,39.6167555 C6.55478267,39.6138944 6.45436721,39.4148416 6.68117625,39.6273826" id="Fill-90"></path>
                        <path d="M64.1744372,51.6284871 C64.3162379,51.8824305 62.9577872,53.355929 63.4472022,52.5730489 C63.936212,51.7901688 63.8904307,51.1474727 63.9811831,51.4762106 C64.0699098,51.8107709 64.0334468,51.3745437 64.1744372,51.6284871" id="Fill-91"></path>
                        <path d="M40.7674602,68.3294909 C41.034422,68.9171668 40.1934923,70.0356631 40.0012798,69.6688688 C39.8069317,69.3035839 40.7493068,68.6354044 40.6419882,68.5413159 C40.5373392,68.4406864 40.769062,68.3259689 40.7674602,68.3294909" id="Fill-92"></path>
                        <path d="M55.9804785,61.8700754 C56.1629822,62.3429625 55.6744537,62.333121 55.5970927,62.6746232 C55.2363595,62.7331805 54.9508503,62.4512197 54.898279,62.0934789 C54.8328854,61.3317418 55.7522421,61.4892068 55.9804785,61.8700754" id="Fill-93"></path>
                        <path d="M65.2945152,48.873615 C65.3816013,49.0861647 65.0972384,49.5590562 65.0230375,49.3070989 C64.9519468,49.0526262 64.7799962,49.6680561 64.7520042,49.2790105 C64.7240122,48.8903842 64.8453108,48.3139428 64.929731,48.6832845 C65.0123739,49.0526262 65.1865461,48.8622958 65.2945152,48.873615" id="Fill-94"></path>
                        <path d="M62.1969749,55.2514804 C62.2864924,55.41681 62.003467,55.7262631 61.9268143,55.5896011 C61.8480175,55.4509755 61.6496853,55.5691803 61.6512934,55.5691803 C61.6496853,55.5691803 61.7070408,54.8823359 61.8319365,55.1022518 C61.954152,55.3253093 62.0897683,55.2416627 62.1969749,55.2514804" id="Fill-95"></path>
                        <path d="M64.8438591,47.6416909 C65.3160711,47.6473895 64.7611992,48.7033846 64.5652814,48.0918806 C64.4291894,47.6710606 64.284877,48.0686478 64.2862471,48.0660177 C64.284877,48.0686478 63.964741,47.4952806 64.4693777,47.4426781 C64.9703608,47.3900756 64.4447167,47.6355539 64.8438591,47.6416909" id="Fill-96"></path>
                        <path d="M39.0290698,68.9285762 C38.978575,68.2337437 39.7851277,68.8500665 39.6845929,69.183838 C39.5826934,69.5197087 39.3870828,69.2228829 39.1136828,69.3572312 C38.4567949,69.6737894 38.063754,69.1611667 38.4204023,69.0322763 C38.7770505,68.9063248 39.0759254,69.6234088 39.0290698,68.9285762" id="Fill-97"></path>
                        <path d="M51.2229589,66.3327684 C51.3017109,66.5984186 50.9772996,67.0600316 50.9855274,66.875072 C50.9929716,66.6895884 50.7935448,66.9028421 50.7449615,66.8399664 C50.5463183,66.5847955 50.8076497,65.9376989 50.9016819,66.0948883 C51.0180469,66.2908512 51.0078601,66.4658554 51.2229589,66.3327684" id="Fill-98"></path>
                        <path d="M59.3206818,30.716744 C58.7357212,30.4787565 58.8440472,30.2403635 58.8440472,30.2432015 C58.8440472,30.2403635 59.080395,30.1511688 59.3748448,30.2865825 C59.6707719,30.4244288 59.9036728,30.952299 59.3206818,30.716744" id="Fill-99"></path>
                        <path d="M62.1701619,34.8759089 C62.2157746,34.4973588 61.6538643,34.3054242 61.6538643,34.3054242 C61.6538643,34.3054242 61.5791371,33.9561298 62.2303319,34.358173 C62.8810415,34.7637624 62.1250344,35.254459 62.1701619,34.8759089" id="Fill-100"></path>
                        <path d="M61.1042399,33.5885941 C60.8749712,33.6552685 60.2899407,33.4205106 60.6279144,33.1222722 C60.9663822,32.821239 60.7840543,33.4185144 61.1600747,33.1677865 C61.5380716,32.9118684 61.3335086,33.5219196 61.1042399,33.5885941" id="Fill-101"></path>
                        <path d="M63.9444686,38.1740279 C63.746576,37.8124602 64.3166032,37.4447194 64.5198052,37.8508216 C64.7225244,38.2595695 64.9556516,37.073892 65.0251553,37.786004 C65.1009337,38.5012025 64.1423612,38.5364774 63.9444686,38.1740279" id="Fill-102"></path>
                        <path d="M65.217419,40.4724604 C65.5472321,40.8020166 64.909942,40.7390201 64.7640449,39.9205359 C64.6195735,39.1048725 65.4982829,39.7889015 65.2711206,39.9736598 C65.0415821,40.1588883 64.887606,40.1433742 65.217419,40.4724604" id="Fill-103"></path>
                        <path d="M65.6540029,45.1998762 C65.5576354,46.3199473 65.2156862,45.3289658 64.923475,45.4847469 C64.4136597,45.7599117 65.1424113,44.4418385 65.4848047,44.7529154 C65.5354309,44.80096 65.4848047,44.1278497 65.8476261,44.3903967 C65.9857381,44.4869713 66.2140003,44.859196 66.1416137,45.0149771 C66.0923197,45.1222283 65.6611084,45.1052428 65.6540029,45.1998762" id="Fill-104"></path>
                        <path d="M52.0944968,66.0689232 C51.4256658,66.098801 52.0944968,65.7185378 52.1239972,65.5736756 C52.1853029,65.3681524 51.8511179,65.1354675 52.276109,64.785082 C52.7006392,64.4346966 53.1247085,64.9000664 52.8218677,65.1354675 C52.518566,65.3681524 52.6402555,65.5428924 52.6402555,65.5736756 C52.6402555,65.6307151 52.7619449,66.0417616 52.0944968,66.0689232" id="Fill-105"></path>
                        <path d="M10.2728799,59.9242964 C10.2350972,60.0543302 10.2539885,60.1666517 10.2539885,60.2962535 C9.91437339,60.6133459 10.4042607,60.6133459 10.4244401,60.6509304 C10.4802555,60.7433796 10.7825173,61.4898858 11.1393063,61.206922 C11.1551923,61.1982819 11.1393063,61.1900737 11.1393063,61.1697695 C11.1766597,61.0976245 11.2912959,61.0224555 11.2526545,60.9274142 C11.2337631,60.9274142 11.2153011,60.9274142 11.2153011,60.8928537 L11.0276756,60.8928537 C10.9890342,60.8928537 10.9701428,60.7982444 10.9499634,60.7982444 C10.875686,60.7628199 10.8009793,60.7256674 10.7254138,60.6682106 C10.7052344,60.6682106 10.7683487,60.552433 10.7825173,60.5381768 C10.9499634,60.3537103 10.649419,60.2236765 10.649419,60.2042363 C10.6120657,60.1320913 10.630957,60.0193377 10.630957,59.9242964 C10.5918863,59.9242964 10.4429021,59.7769824 10.2728799,59.9242964" id="Fill-106"></path>
                        <path d="M60.476524,28.9717071 C61.3261392,29.4967266 60.249736,30.3418586 60.4030279,29.6963572 C60.5554799,29.0451395 60.0846847,29.2944578 60.0876246,29.2944578 C60.0846847,29.2944578 59.6277489,28.4462478 60.476524,28.9717071" id="Fill-50"></path>
                        <path d="M63.3294414,32.9183264 C63.4080808,32.6273231 63.029742,32.6418733 63.1902823,32.4112263 C63.2692841,32.2926694 62.8264392,32.012444 62.7815024,32.3465589 C62.7420015,32.6418733 62.9935026,32.5696614 63.0406138,32.7706692 C63.1214276,33.1053229 63.2834175,33.084306 63.3294414,32.9183264" id="Fill-51"></path>
                        <path d="M53.4658469,20.0541632 C53.4170094,20.1464042 53.4658469,20.297301 53.4170094,20.3573759 C53.3907123,20.3885959 53.3245939,20.405152 53.2915347,20.4519821 C53.2179028,20.5565219 53.2366864,20.7613442 53.2678673,21.0901006 C53.1450223,21.2130887 53.2426972,21.5792145 53.2426972,21.5792145 C53.2915347,21.7934975 53.4895143,21.7334225 53.6390321,21.7334225 C53.755115,21.648277 53.7303206,21.3422261 53.6878696,21.2760017 C53.5522516,21.0612458 53.6010891,20.9477184 53.5774217,20.7935103 C53.7506069,20.8564234 53.7866715,20.5342894 53.7618771,20.313384 C53.737834,20.0920056 53.4895143,20.0229431 53.4658469,20.0541632" id="Fill-32"></path>
                        <path d="M53.7345564,19.4794153 C53.6784332,19.4794153 53.5803248,19.4331699 53.6227385,19.3168106 C53.6642953,19.2074129 53.4603669,19.0477917 53.3472638,19.0776274 C53.2915691,18.7892153 53.0799291,18.2054293 53.3129901,18.3874273 C53.5443375,18.5734034 53.8133858,18.2586364 54.0875753,18.3874273 C54.3634784,18.5172128 54.376331,19.0279012 54.270511,19.1576866 C54.1933953,19.2536583 53.8759353,19.5127319 53.7345564,19.4794153" id="Fill-33"></path>
                        <path d="M53.2614683,15.096353 C53.0833027,15.0598031 53.3787606,14.9296254 53.3060097,14.859029 C53.0704352,14.6392288 52.8789072,15.2200219 52.7729976,15.2470588 C52.5418773,15.1298988 52.6472919,14.057935 52.8655448,14.2046353 C53.0833027,14.3578446 53.3342192,13.7435057 53.5900848,13.8471472 C53.84793,13.9507887 53.5109001,14.5215681 53.7618167,14.8354968 C53.8296186,14.9161069 53.3921231,15.1233899 53.2614683,15.096353" id="Fill-34"></path>
                        <path d="M49.7898422,8.49776312 C49.6820722,8.58592437 49.8415399,8.84440761 49.6820722,8.77193999 C49.5245929,8.69808763 49.6920141,9.18643633 49.5898116,9.17258902 C49.4860184,9.15735697 49.5898116,9.43568803 49.6705397,9.30044591 C49.7528584,9.16335747 49.8296097,9.28936805 49.9095424,9.30044591 C49.9453331,9.30506168 50.1851312,9.43568803 50.2276824,9.56816069 C50.2718244,9.69924863 50.42652,9.39599239 50.3831734,9.19566788 C50.3390315,8.99534336 50.1720079,9.03088481 50.1521242,8.96303296 C50.1294567,8.89379637 50.4002734,8.84440761 50.1680312,8.80886616 C49.9373796,8.77701734 49.8335864,8.73686012 49.9453331,8.64869887 C50.0566822,8.55961446 49.8972145,8.40867871 49.7898422,8.49776312" id="Fill-35"></path>
                        <path d="M51.259714,10.0080147 C51.1532476,10.062985 51.244072,9.93322523 51.0896705,9.88685574 C50.9327461,9.84198203 51.0962301,10.1474972 50.9968278,10.1388964 C50.894398,10.1287998 50.9968278,10.3038072 51.0755423,10.2174253 C51.1567797,10.1314174 51.4903071,10.3382104 51.5321872,10.4208528 C51.5740674,10.5031212 51.8298895,10.3808404 51.7950734,10.2050851 C51.7693399,10.0764471 51.7526887,10.0689682 51.6431948,10.0240945 C51.5321872,9.9818384 51.5286552,10.1265561 51.4665918,10.0267121 C51.4025102,9.92686812 51.3636575,9.95304445 51.259714,10.0080147" id="Fill-36"></path>
                        <path d="M47.9597993,7.085694 C47.8193308,7.03947692 47.8421375,7.58555631 47.9147043,7.59183825 C47.9463226,7.5945305 48.0862729,7.45408445 48.2277781,7.60844049 C48.2951615,7.68158013 48.4506618,7.47203282 48.4148967,7.34011225 C48.374985,7.20998651 48.3127849,7.17094879 48.2987899,7.12473172 C48.2329614,6.9241586 48.4314834,6.79986608 48.2277781,6.77743061 C48.0256278,6.75499514 48.0997495,7.13370591 47.9597993,7.085694" id="Fill-37"></path>
                        <path d="M46.7681377,5.14019454 C46.6649108,5.20540896 46.7848507,5.47025937 47.0355446,5.63041179 C47.1309066,5.69074622 47.3240884,5.58294279 47.290171,5.37399046 C47.2651016,5.22182348 47.2523211,5.21295077 47.1422124,5.1597145 C47.0355446,5.10914005 47.0311206,5.280827 46.9701676,5.16104541 C46.9082314,5.04392563 46.86989,5.07542376 46.7681377,5.14019454" id="Fill-38"></path>
                        <path d="M63.2459586,57.6740801 C63.116852,59.0138306 61.9260389,58.2554086 62.279615,58.0181611 C62.6028706,57.7992005 62.2145727,57.054253 62.8918934,57.4589693 C62.9681837,57.5042051 62.923192,56.8040122 63.4058748,57.1153695 C63.5863306,57.2308652 63.9848984,57.269845 63.8885575,57.4589693 C63.8244932,57.5812023 63.2552504,57.561953 63.2459586,57.6740801" id="Fill-39"></path>
                        <path d="M58.8976491,63.0944349 C58.8003559,63.9931243 58.4590888,63.2003658 58.1677031,63.3239517 C57.6570373,63.5427031 58.3855016,62.4907155 58.7277564,62.7404711 C58.7806009,62.7779344 58.7277564,62.2405293 59.0937171,62.4476542 C59.2290386,62.5251645 59.4581962,62.8244406 59.3851028,62.9506102 C59.3371971,63.0337185 58.9055511,63.0195083 58.8976491,63.0944349" id="Fill-40"></path>
                        <path d="M56.164141,65.3335975 C56.0547379,66.4286151 55.8180892,65.1817305 55.4842456,65.3335975 C54.9015451,65.5996929 55.2245894,64.7436359 55.8025944,64.8140987 C56.3801298,64.8841238 56.0265654,64.682364 56.2190773,64.457846 C56.4120586,64.2324526 56.6501159,64.530497 56.5670072,64.6854276 C56.5106622,64.7847757 56.1735318,65.2430025 56.164141,65.3335975" id="Fill-41"></path>
                        <path d="M47.3204316,68.7624573 C47.2257179,68.8975264 47.430316,68.9554132 47.0850823,69.2872975 C46.7402586,69.6186993 47.7378281,69.3678566 47.7378281,69.3678566 C47.8050708,69.2516006 47.8555028,69.1039893 47.8571429,68.9718145 C47.4832081,68.8816076 47.7858,68.6109868 47.8227015,68.4083831 C47.1629854,68.1121957 47.3462626,68.7431617 47.3204316,68.7624573" id="Fill-42"></path>
                        <path d="M64.9889808,36.5597927 C64.8197829,37.0358903 64.222036,36.2164436 64.5770951,35.9768977 C64.8526825,35.7837638 65.0035079,35.8037259 64.832601,36.2164436 C64.7227933,36.4859328 65.1607422,36.0767085 64.9889808,36.5597927" id="Fill-43"></path>
                        <path d="M66.4181408,40.9870509 C66.7906125,40.702133 66.8371715,41.8396743 66.4416263,41.7864186 C66.1321945,41.7470094 66.0250677,41.6229237 66.3674615,41.3917941 C66.5858355,41.2426782 66.0415487,41.2746316 66.4181408,40.9870509" id="Fill-44"></path>
                        <path d="M65.292221,52.2811468 C65.6636414,51.9966815 65.7118725,53.1308138 65.3157182,53.0807394 C65.0061325,53.0413191 64.8989524,52.9166658 65.2415166,52.6865365 C65.4616481,52.5363133 64.9154416,52.5650794 65.292221,52.2811468" id="Fill-45"></path>
                        <path d="M66.3643486,44.5298774 C65.5342095,43.5567343 66.9891017,42.0770299 65.5269713,41.9289232 C65.2401548,41.9411897 64.6199256,41.6227148 65.5437098,41.5286716 C66.3041805,41.0557295 65.4288022,40.2279673 65.6088542,40.0098961 C66.1517244,39.3461417 65.1148423,39.0912709 65.2098446,38.6819329 C65.7242141,36.4539715 63.7400235,37.1876905 64.0372449,36.3567481 C64.1290805,36.1018773 64.6651648,35.850641 64.2684172,35.320001 C63.8712171,34.786635 63.4907556,35.5744174 62.9442662,35.4263107 C62.3995865,35.2804755 63.6581406,35.0351454 63.591639,34.5622033 C63.5255898,34.0892613 63.0985319,34.2650812 62.746571,34.1078882 C62.0978411,33.8162179 63.3428234,33.6313116 62.9940293,33.0679608 C62.8537879,32.840349 62.2543687,32.8557957 62.1896766,32.6036508 C62.1489614,32.4491836 62.9397423,32.5586736 62.1385564,32.0430259 C61.7793572,31.8095079 62.3480138,31.7518099 62.1896766,31.5273782 C61.8408825,31.0398981 61.2550351,30.9517609 61.0849358,30.9790199 C61.1333417,30.4879052 60.9614328,30.2939126 60.2733448,30.3361639 C59.7865712,30.5060778 60.3149648,29.3389422 59.2902973,29.3116833 C59.5468035,28.0445984 58.1823897,28.5534314 57.9335742,27.7015905 C56.6913062,28.1931595 57.2133664,26.7261759 56.4180615,26.9774122 C55.3780127,27.4349075 56.2384619,26.2950308 54.9903129,26.4831173 C54.584065,26.5439955 54.8889771,26.3709015 54.8722386,26.1678226 C54.8559525,25.9647437 54.5447069,25.9438452 54.2094845,25.7493983 C54.0226467,25.6948805 54.0375756,24.8675727 53.0956958,25.0888241 C52.4605377,25.4886215 52.1497445,24.4945799 51.2512943,24.5977095 C50.9481917,23.9848384 51.9502397,23.7790336 51.7828547,23.2697463 C53.0368849,22.4238116 51.9669782,20.8205335 52.9341919,20.1599593 C53.4082986,19.8383041 52.7640926,19.7987787 52.854571,19.5439079 C53.0160749,19.0954989 52.5980648,19.1681893 52.55554,19.3135702 C52.5134675,19.4594053 52.7640926,20.099081 52.442442,19.6474918 C52.5084912,19.277225 51.9036433,19.2440599 52.2601281,18.7956509 C53.1594831,19.4321464 52.5311108,17.8679394 53.272581,18.0828305 C53.5666357,18.1677874 53.50692,16.9856594 52.9450493,16.8248319 C53.1970316,16.5667809 52.9405254,16.3032781 53.3010817,16.3973213 C53.6729478,16.4972706 53.2938434,15.172942 52.7758548,15.8035314 C52.5980648,16.0152423 52.9210726,16.1642577 52.7545924,16.3487096 C52.6478279,16.4727376 52.6215892,16.3886893 52.231175,16.5158976 C52.0922907,15.830336 52.4664188,14.9239773 51.8384989,14.7063604 C51.210579,14.4905607 51.829451,14.1416467 52.2442944,14.5568907 C52.6609473,14.9698632 52.5645878,13.0331178 52.1013385,12.9676964 C51.601898,12.8981862 52.2931527,13.8145398 50.9527157,14.2302381 C50.5057525,13.7722885 51.4327034,13.5723898 51.4372273,13.359316 C51.6398989,13.0830924 51.3992264,12.4147949 50.6962095,12.3739065 C49.9823352,12.3330181 50.9196911,12.8831938 50.5057525,13.1635062 C50.0927188,13.4469988 49.914024,12.1617413 50.1162431,12.0281727 C50.3080573,11.9736549 50.3836067,11.8950583 50.3971785,11.6965226 C50.4048691,11.5584108 50.1976737,11.1050043 50.4048691,10.5988973 C50.4804186,9.98193731 49.9927402,9.61212479 49.6710896,9.79430516 C49.6457556,9.80929756 49.7439247,9.89561744 49.6290171,9.98648046 C48.1166712,9.85790928 50.04567,8.11015896 48.5541341,7.7871409 C48.2691272,7.84756481 48.1895063,8.59218732 47.8135687,8.56492841 C47.4389882,8.53721519 47.1901727,7.51727771 47.4765367,7.33827755 C47.7647103,7.15791444 47.4887513,6.3851244 47.226364,6.38966755 C46.6934465,6.49870318 47.3136757,6.81717809 46.494394,7.0456986 C46.7083754,6.34423604 46.1170992,6.01213167 46.254174,5.63641306 C46.1636956,5.20435936 45.7664956,4.52833845 45.3968914,4.89360781 C45.0268349,5.26205739 45.5692527,5.31839246 45.1358613,5.52101701 C44.6223966,4.92995302 44.8323064,3.95681001 44.1998626,4.04040399 C44.1786002,4.64782333 43.9089747,4.27528492 43.8438302,4.46473433 C43.6927314,3.71284278 42.9544279,3.94181761 42.8625923,3.44161665 C42.76759,2.94141568 42.0519061,3.52475631 42.0324533,3.1640301 C42.0130005,2.80057799 41.6809448,3.03682186 41.7307079,3.4402537 C41.3113407,3.23399463 41.2416724,3.11723564 41.3366746,2.74424291 C41.4303198,2.37125019 40.9109739,2.57296611 40.6589917,2.86736232 C40.6196336,2.00325493 40.2654108,1.65888406 39.5528936,1.90784875 C39.1692653,1.6211759 38.9593555,2.04278035 39.1104544,2.40032636 C38.499273,2.01552144 38.4703199,1.04056116 37.7501121,1.25908674 C37.0294519,1.47852095 36.6376806,0.699824812 36.2174086,1.36948532 C36.1038582,1.302701 35.9844268,1.67705667 36.2635525,2.02733363 C35.6207037,2.14272968 35.3384112,1.10734549 34.9642831,1.04828452 C34.7032531,0.81022339 34.4286512,0.819309693 34.2110507,1.1618633 C32.8027549,0.226882758 30.690085,0.555806915 29.218002,0.0751415034 C28.7307759,-0.0934094112 28.4335545,0.00517697282 28.1933344,0.538997255 C28.1544287,0.525367801 28.1137135,0.52082465 28.0711886,0.510375402 C27.3953152,0.354090996 26.5710573,0.752525368 26.3009794,0.727083721 C26.0173297,0.698007552 26.197834,1.23637099 25.9716381,0.954241287 C25.7467994,0.675291795 25.4871264,0.701187758 25.2971219,0.914715871 C24.5135792,0.711637006 23.9313509,0.941974779 23.5431987,1.26953599 C23.1541417,1.59527994 22.0697585,1.61935864 21.9010163,1.38447772 C21.7349885,1.15141406 21.1328549,1.24682023 20.9573269,1.7470212 C19.7503455,1.87559238 18.6542,1.92284115 17.5236728,2.93051212 C17.1314491,3.31895156 16.3451921,2.96731165 15.9769451,3.53884008 C14.6894379,3.09133968 13.7792255,4.1008279 12.81925,4.65418374 C12.4844801,4.53742475 12.2700464,4.58921667 12.1764012,4.79683869 C12.0497315,4.61011517 11.1725437,5.11167908 11.3991921,5.62732675 C9.1503522,6.14115717 10.437407,7.06750573 9.31502284,7.20198301 C7.52174157,7.41914564 8.05013524,8.83024845 7.3647616,8.62989547 C6.83953467,8.47860853 6.43781072,8.61035992 6.33376059,9.23186303 C6.23152003,9.85472907 5.01458598,9.55442677 5.26521106,10.7279228 C3.94015535,11.2885476 3.83112892,12.919539 2.93946459,14.2543168 C2.34321215,14.2634031 2.81550923,14.9485104 2.42780942,15.0875308 C1.76957929,15.3274092 1.9356071,16.1851561 1.87815333,16.8702634 C1.48004851,17.2437104 1.02856145,17.5308376 1.04213321,18.2223052 C1.05253822,18.7615773 0.297948624,19.5952455 0.219232444,20.3839366 C0.198422419,20.6083683 0.230089848,20.8323457 0.35087847,21.0417849 C-0.0929179278,22.4328979 -0.153538435,23.9094221 0.388879385,25.3614132 C0.223756362,25.8711548 0.0188228574,26.5862468 0.305639286,27.1986636 C0.392950911,29.0418201 0.587479404,30.751408 2.10027773,32.1675082 C2.67662493,32.6886077 2.48209644,33.9647789 3.49771613,34.5985485 C3.90215444,35.001526 4.22651939,35.9992021 5.27244933,36.2418064 C5.30592632,37.2726474 6.80605768,37.1967768 6.93001304,38.2571483 C5.95329905,39.6578019 4.92275043,41.5622909 5.23354363,42.8112032 C5.54614639,44.0569353 4.09713532,42.7807641 4.58436134,44.6843445 C4.93315545,46.0422924 3.79086604,45.6025154 4.5255504,46.8855013 C4.14508886,47.7250757 4.83181967,48.4855992 4.46221554,48.6555131 C4.09215901,48.8254269 4.30387839,49.9562173 4.69022103,50.4745909 C4.44728661,51.9511151 5.37966619,53.2032076 5.10506435,53.4090123 C4.8304625,53.6152714 5.12180284,53.9214798 5.290545,53.8151701 C5.28783065,53.8242564 5.50226438,53.2786239 5.82662934,53.5725658 C6.14647037,53.8637818 5.35433225,56.4315709 5.8506061,56.5769518 C6.34733235,56.7255128 5.97456147,56.1617077 6.42876288,56.113096 C6.88160711,56.0617584 7.06573059,56.4556496 6.89970279,56.8131956 C6.73367498,57.1739218 6.42107222,56.7009798 6.37176151,57.4592317 C6.32154601,58.2170294 6.91644128,60.0479194 7.86103545,60.2178332 C8.80743919,60.3872928 8.17047147,61.1032934 8.62195853,61.1423645 C9.2118775,61.1909763 8.4740264,60.0056681 8.99020549,60.2151073 C9.33266612,60.3541278 9.46702649,60.3663943 9.65748346,60.2119271 C9.84748803,60.05746 9.81310625,60.7511992 9.23766383,61.2059687 C8.66448337,61.6607381 9.53805201,62.3340331 9.94113315,62.66114 C10.2474024,62.7338304 9.9049418,62.3885509 10.4903368,62.4821399 C11.0761843,62.5730029 10.1632575,62.8187874 10.3849295,62.9705286 C10.2460452,63.1372623 10.5767437,63.2222192 10.5523145,63.1249958 C10.5265282,63.0250465 10.6703888,62.6824928 10.8676316,62.7583635 C11.0639697,62.8337798 10.4966703,63.601118 10.9056326,63.8128289 C11.2087351,64.6464972 12.7486769,64.9708782 12.602102,64.7800658 C12.4315502,64.5651748 12.7663202,64.60152 12.6925803,64.3316568 C12.6188405,64.0649738 11.625388,63.867801 11.9289429,63.4071255 C12.1130664,63.128176 13.3612155,64.0954129 12.9508961,64.2012683 C12.5383147,64.3071238 14.1868306,64.7041952 14.0628752,64.9858706 C13.9407294,65.2684546 12.9052045,64.2889512 12.7875826,64.8772893 C12.5672678,65.9531075 13.731272,65.4383684 14.0859472,65.8567927 C14.4302174,66.2624961 14.0569941,65.5655767 14.3275245,65.4224674 C14.5899117,65.2802668 15.3743592,66.1080289 16.1429729,65.9562877 C16.5143866,66.4596689 15.8050362,66.8508342 16.5157438,66.8385677 C16.2696426,68.0175155 18.3253112,67.672236 18.2981677,68.4059549 C18.2814292,68.8970696 19.0799008,68.3964143 18.957755,68.2392212 C18.7948939,68.0266018 19.0817103,67.6145379 19.0903058,67.554114 C19.2251185,66.7717834 19.4060753,67.91166 19.7037491,67.878495 C19.9267783,67.853962 19.4395523,68.0752135 19.488863,68.4182214 C20.0023277,68.3846021 20.331669,69.67622 20.9229451,68.678544 C20.8582531,69.885205 22.0598058,68.9270544 22.0896637,69.800248 C22.3737658,70.3917663 22.8442533,70.4003983 23.226072,69.7639028 C23.2324055,70.1032762 23.7268698,70.2486571 23.594319,69.9551695 C23.460411,69.6612276 23.2002857,69.3454786 23.7485846,69.2396232 C24.2964311,69.1364936 23.6006524,69.9365426 23.9417559,69.9915147 C24.2371678,70.1973195 24.7447514,70.9946425 25.4133866,70.4521903 C26.0820217,69.9092837 25.2098102,69.9583497 25.602034,69.7639028 C25.8146581,69.6612276 26.3715525,69.7307378 26.3715525,70.1791469 C26.3715525,70.5703122 26.82123,70.9523912 27.5351043,70.6702615 C27.7938724,70.3554211 26.80042,70.3554211 27.3179562,69.8184206 C27.2274779,69.593989 27.1718337,69.3999964 27.2971462,69.2818745 C27.2636692,69.4881335 28.0594265,69.5730905 28.1390474,70.6216498 C28.303718,71.2009016 29.1098803,71.33129 28.9841154,70.9732897 C28.8882083,70.6947945 29.0374976,70.5639518 28.9343523,70.4035785 C28.6208447,69.9188243 28.9076612,69.5794509 29.0175924,69.6239738 C29.0791177,69.6485068 29.5790107,69.885205 29.3478384,70.3554211 C29.1745723,70.7129671 29.880756,70.7706652 29.6482266,70.9673836 C29.3329095,71.2313407 30.4286025,71.50711 30.5765347,71.1036782 C30.7262764,70.7034265 29.9065423,70.6884341 30.0906658,70.4735431 C30.2761465,70.2581977 30.4616271,70.3372485 30.478818,70.1309895 C30.4616271,70.3372485 31.7495867,70.6402767 31.3361006,70.8706145 C30.9226144,71.1036782 32.3091954,72.246735 31.6301553,70.4553705 C31.6301553,70.4553705 31.1687156,70.1278093 31.5654632,69.9824284 C31.7780874,69.9033776 32.0124264,70.1459819 31.8957093,70.4217511 C31.7943735,70.6611752 32.076666,70.8615282 32.1119526,70.8792465 C32.434508,71.0278075 32.5295102,70.7883835 32.8045645,71.0096349 C33.0701185,71.2190742 32.5810829,71.6284121 33.0701185,71.7101889 C33.4071504,71.7647067 33.6844666,71.50711 33.5003431,71.3676353 C33.2031217,71.1400234 33.1624064,70.6793478 33.6708949,70.9224064 C34.0993099,71.125031 34.2834334,70.9283125 34.3829596,70.4580964 C34.3906503,70.6670813 35.0927624,71.3435566 35.1755501,71.0768736 C35.2587902,70.8129165 36.0993343,70.8460815 35.8971151,70.151888 C36.3951985,70.2581977 37.1561216,70.4371979 36.8919248,70.7161474 C36.4947248,71.1400234 37.1561216,71.6434045 37.4216756,71.2858585 C37.6858725,70.9251323 37.321697,70.3731394 38.1957181,70.5430533 C38.8249951,70.6643554 38.2966015,70.1069108 38.9308548,69.8911111 C39.4624152,69.8429537 39.1425742,71.2708661 39.7094212,70.62483 C39.7202786,70.3885861 40.0007615,70.2581977 40.2531962,70.6611752 C40.5033689,71.0641527 41.4411772,70.3399744 40.9819994,70.0246797 C40.5897757,69.7575424 40.5608226,69.8365933 40.8489962,69.4363416 C40.9697849,69.5576438 40.9489748,69.5880829 41.2204099,69.6912124 C41.4072478,69.7484561 41.2900783,69.9669817 41.5343699,69.9669817 C41.784995,70.5067081 42.2921262,70.1732408 42.1410273,69.7607226 C42.7101363,70.2945429 42.3690328,69.4458822 42.8671162,69.1851054 C43.2204343,69.1851054 43.460202,69.5217529 43.6642307,69.3818238 C44.122956,68.8148385 44.746352,69.2273567 45.1494331,68.6149399 C45.1494331,68.6149399 45.0300017,69.0151915 45.3077702,68.9761204 C45.4027725,69.6580474 46.1709339,69.5335651 46.6676601,68.6544653 C46.6477549,67.9543657 47.816283,67.6567892 47.6864466,66.7631514 C47.8511172,67.3446747 48.1076234,67.3510352 47.9881919,67.8721346 C47.9203331,68.1724369 48.4337979,67.9816246 48.9558581,67.089804 C49.0540271,67.2778904 49.3182239,66.7963164 49.2168882,66.9844028 C48.8513555,67.6749618 49.0431697,67.8571422 49.1743633,67.7240279 C49.64847,67.6872284 49.7936878,66.8022225 50.0230504,66.814489 C50.2506035,66.823121 50.0488368,67.6631497 50.135696,67.8907615 C50.2221028,68.1147389 50.5889926,67.4355378 50.7939261,67.6236242 C51.6303986,67.1261492 51.7842119,66.2956611 51.9439062,66.3597195 C52.1013385,66.4233237 52.2881764,66.7776895 52.2881764,66.7776895 C52.4044411,66.9657759 52.8134033,66.4292297 52.6962338,66.2443235 C53.7512116,66.490108 52.9794311,65.250282 53.7190918,64.6982891 C54.1796267,65.0771879 53.7086868,65.8045464 53.9819314,65.9167623 C54.1076964,66.1021229 54.5799935,66.0716837 54.4510618,65.8867775 C54.0615524,65.3983887 54.6021607,64.783246 54.7003297,63.9404914 C55.0052418,64.0281743 54.7686409,64.7800658 55.0853151,64.582893 C55.414204,64.8345836 55.3205589,64.6405911 55.1576978,64.3861746 C55.7860701,64.6892028 55.8824296,64.1585627 55.7860701,63.6070241 C56.5537791,63.3771407 56.0891726,61.8610911 56.9342406,61.6121264 C57.2889158,62.2976879 56.4438478,62.6883989 56.5429217,63.128176 C56.6429003,63.5706789 56.9161449,63.3739605 56.7953563,64.0163621 C56.7048779,64.5074767 57.2993208,64.1104053 57.3567746,63.8827934 C57.3626557,62.8128813 58.0570772,63.2040466 58.0570772,62.3940027 C57.535017,61.7606874 58.0733633,61.3454434 58.5158025,60.9665446 C58.7836185,60.948372 58.2457246,62.503947 58.7030927,62.0546293 C59.0265529,61.7366087 58.6279957,61.5912279 59.3717279,61.6639183 C59.8304532,61.7093498 58.3470603,59.8961781 59.5119693,59.975229 C59.9177648,59.999762 59.8078336,58.9961798 60.0901261,58.3655904 C60.550661,58.6472658 60.0240769,58.892596 60.2715352,59.0475175 C61.1785809,59.2265176 60.7424751,58.3201589 61.0849358,57.8167778 C61.4468492,57.9680647 61.136056,58.1593314 61.5106365,58.2047629 C61.5993053,58.2170294 61.5119937,58.3624102 61.8273108,58.1625116 C62.1426279,57.9594327 62.303227,57.6713969 61.8092151,57.2379803 C62.7434043,57.2134473 62.1733905,56.5315202 62.4991127,56.113096 C62.8189537,56.3679668 62.8492639,56.4524694 62.7723573,56.4919948 C63.8513119,56.6346498 63.3233706,55.4584279 64.0114586,55.2371764 C64.3783484,55.1912906 64.2498691,54.4943712 63.7273565,54.573422 C62.913956,54.6942698 63.3428234,55.9431821 62.5624475,55.6610524 C62.2335586,55.0218311 62.9908626,54.5338966 63.0198157,54.672917 C63.5948057,54.4035082 63.4061583,53.957825 63.3459902,53.4389971 C63.8377401,53.5789262 63.8015488,53.7665583 63.6748791,54.0091626 C63.5482093,54.2517669 64.9868154,54.2308684 64.9850058,53.7997233 C64.9822915,53.3694869 64.3267757,53.0482861 64.1394855,52.9419764 C64.8551694,52.8724662 64.5982108,52.3413718 64.5231138,51.9079551 C64.8940751,52.1419274 65.2550838,52.0628766 65.3066564,51.8747901 C65.5523052,51.8629779 65.4057303,51.769389 65.143343,51.5867543 C65.7382383,51.2233022 64.8311926,50.4446061 65.0876988,50.2746922 C65.344205,50.1075042 65.5133995,50.6258778 65.5133995,50.6258778 C65.6473075,50.3532887 66.1576055,50.2533394 65.9540292,49.7772171 C65.7486433,49.298369 66.040436,48.8617722 65.3595863,48.4587946 C65.5599959,48.1130608 66.1336287,48.2493554 65.8305262,47.700997 C65.7785011,47.5792405 66.0096734,47.060867 65.8735034,46.9550115 C65.7368811,46.8427957 65.0664364,47.2825727 65.339681,46.9272983 C65.6129257,46.5761127 64.8429548,47.0735878 64.9682673,46.6974149 C65.0922227,46.318516 65.9241713,46.8909531 65.9884109,46.2185667 C66.249441,46.0572848 65.8015731,45.8573862 65.8603841,45.5907032 C66.1548911,45.7996882 66.6163308,45.5693504 66.3643486,44.5298774" id="Fill-1"></path>
                        <path d="M52.0431232,11.3306687 C52.2257684,11.8056342 51.6679716,12.9547442 51.6581104,12.1387525 C51.6469631,11.3207839 51.0102772,11.9123902 50.9571129,11.5530771 C50.8915149,10.7879922 51.8137448,10.949609 52.0431232,11.3306687" id="Fill-3"></path>
                        <path d="M52.2972483,12.7871778 C52.2989374,13.1531072 52.1013155,12.6516484 51.9965928,12.8707543 C51.8913071,13.0926837 51.7426685,12.8007307 52.0264332,12.5895307 C52.3101979,12.3749425 52.2949962,12.4235072 52.2972483,12.7871778" id="Fill-4"></path>
                        <path d="M52.9439085,22.7709333 C53.0497924,22.7372706 52.8887232,22.7886745 53.0816473,22.7859451 C53.2745714,22.7859451 53.0547277,22.7218039 53.1067723,22.5580392 C53.1570223,22.3942745 53.2122076,22.3515137 52.9681362,22.5430275 C52.7258594,22.7372706 52.8380246,22.8073255 52.9439085,22.7709333" id="Fill-5"></path>
                        <path d="M66.5908214,46.2252235 C66.695808,46.1920157 66.5356362,46.2434196 66.7290089,46.2402353 C66.921933,46.2402353 66.7016406,46.176549 66.7527879,46.0127843 C66.8048326,45.8490196 66.8591205,45.8062588 66.6163951,45.9977725 C66.3709777,46.1920157 66.4862835,46.2616157 66.5908214,46.2252235" id="Fill-7"></path>
                        <path d="M55.4948567,26.2542314 C55.6200768,26.2193237 55.7033801,26.137727 55.932066,26.1346726 C56.1602214,26.1346726 55.8699865,26.0591847 55.932066,25.9016637 C55.9920231,25.7445791 55.5813435,25.5495323 55.5919554,25.855411 C55.6025672,26.1521264 55.3701671,26.2860847 55.4948567,26.2542314" id="Fill-9"></path>
                        <path d="M66.1926454,48.8423782 C66.3155594,48.8104706 66.3985663,48.7256749 66.6289636,48.7256749 C66.8582967,48.7256749 66.5672405,48.6474357 66.6289636,48.4896459 C66.6901546,48.3322932 66.279909,48.1369136 66.2905509,48.4459368 C66.3006607,48.7431586 66.0670709,48.8742858 66.1926454,48.8423782" id="Fill-10"></path>
                        <path d="M62.191779,59.4265202 C62.2988865,59.7501106 62.003024,59.9426928 61.7409617,59.8230386 C61.4139326,59.8811189 61.7435955,59.5313268 61.1290442,59.4326339 C60.9253643,59.0889555 61.5460611,59.1208342 61.6294645,58.7474606 C62.2124104,58.6138322 61.8932826,59.2605764 62.191779,59.4265202" id="Fill-11"></path>
                        <path d="M60.7404328,61.3854583 C60.9867106,61.6635804 60.4382688,61.9349191 60.0020729,61.7992497 C59.7842118,61.1238103 60.5301494,59.410016 60.5225716,59.9691674 C60.5126258,60.5283189 60.9123536,59.7559728 61.0861689,60.0273114 C61.1287939,60.4411029 60.4951022,61.1073362 60.7404328,61.3854583" id="Fill-12"></path>
                        <path d="M54.029081,66.2556533 C54.1260515,66.3156656 53.864498,66.7106405 53.8048923,66.6225372 C53.7457314,66.5369877 53.7817617,66.6310496 53.577145,66.5999794 C53.3720835,66.5714629 53.5602419,66.1935128 53.7252697,66.0968972 C53.891632,66.0002816 53.9343346,66.1964922 54.029081,66.2556533" id="Fill-13"></path>
                        <path d="M53.467389,66.8209149 C53.5587226,66.8809703 53.3109378,67.2753767 53.2542771,67.1872103 C53.1976164,67.1020253 53.1976164,66.9998033 53.0031095,66.9687108 C52.8069112,66.9371924 53.0200231,66.7583039 53.1790114,66.661619 C53.3358854,66.564934 53.376901,66.7612854 53.467389,66.8209149" id="Fill-14"></path>
                        <path d="M52.0591302,67.2675427 C52.1548134,67.346346 51.8911232,67.861082 51.8313773,67.7487455 C51.7716315,67.6330556 51.8089165,67.756011 51.6022768,67.7191244 C51.3938403,67.6777667 51.6112611,67.4128537 51.7801666,67.2859861 C51.946826,67.1596773 51.9616502,67.1892984 52.0591302,67.2675427" id="Fill-15"></path>
                        <path d="M48.9200085,68.4489824 C48.6139404,68.8613466 49.0219068,68.7249138 48.8390125,69.0013562 C48.4396309,69.5940977 48.3011538,68.5031467 48.5318246,68.367225 C48.6385752,68.3059069 48.6632099,67.9885858 48.7807849,68.0565467 C48.8643937,68.1045792 49.0931983,68.2169957 48.9200085,68.4489824" id="Fill-16"></path>
                        <path d="M16.0432576,66.7247133 C16.081032,67.0018617 15.7497795,66.9796395 15.4829373,66.6630782 C15.2180322,66.3469362 14.1240274,66.2240853 14.4020082,66.1511295 C14.6799891,66.0815279 14.408304,65.5750299 14.6441518,65.8911719 C14.8785468,66.2073139 16.0049989,66.4479843 16.0432576,66.7247133" id="Fill-17"></path>
                        <path d="M39.2020868,70.9403294 C39.4801478,71.0415529 39.3021706,71.5053176 38.7455957,71.2368 C38.188568,70.9712471 38.9638782,70.4511529 39.1613286,70.5727059 C39.3610435,70.6972235 38.9226672,70.8327529 39.2020868,70.9403294" id="Fill-18"></path>
                        <path d="M29.2996728,71.4265412 C29.3553756,71.1381176 29.608076,71.4146824 29.6443054,71.4824471 C29.6805349,71.5506353 29.8598707,71.4066353 30.122987,71.5675765 C30.3856505,71.7340235 29.7362377,72.1469647 29.453648,71.9462118 C29.2435172,71.7962824 29.2403471,71.7259765 29.2996728,71.4265412" id="Fill-20"></path>
                        <path d="M45.7567236,69.5111251 C45.8851301,69.7545545 45.8266297,69.4901555 46.0194235,69.6082233 C46.2118495,69.7272029 46.2280383,69.9765584 46.0054423,69.9036208 C45.7835822,69.8274921 45.7611387,70.0677305 45.6544398,70.0162183 C45.5477409,69.9674412 45.6286849,69.2645047 45.7567236,69.5111251" id="Fill-22"></path>
                        <path d="M43.9849648,69.687887 C44.4426681,69.7375083 44.497474,69.340124 44.8697591,69.4947772 C45.2420441,69.6490169 44.9566585,70.1348927 44.52858,70.0410256 C44.0985266,69.944264 44.2698567,70.2866513 43.9074466,70.3056728 C43.6867418,70.3197322 43.3885187,69.6213117 43.9849648,69.687887" id="Fill-23"></path>
                        <path d="M20.6056602,69.6095068 C20.3987021,69.8662056 21.0501703,69.8223989 20.7527804,69.9534094 C20.0653195,70.2543242 19.6662502,69.5030608 19.2383868,69.2787053 C18.9423467,69.1231303 19.4210498,68.7296894 19.5065325,68.9700118 C19.5911154,69.2132001 20.8130682,69.3528081 20.6056602,69.6095068" id="Fill-24"></path>
                        <path d="M26.5832022,71.0595384 C26.5848788,71.0595384 27.2542581,70.7488473 26.942412,71.2399232 C26.6318234,71.7345761 25.9704078,71.1821796 25.9117271,70.7728645 C25.851789,70.3640604 26.0211248,70.1729445 26.1062118,70.4080069 C26.1887839,70.6466463 25.936876,70.9772666 26.5832022,71.0595384" id="Fill-25"></path>
                        <path d="M17.1813766,68.391143 C17.2742665,68.1544821 17.4904142,68.0658947 17.4484351,68.4822982 C17.4069026,68.8995576 16.1506559,68.1827273 16.3489401,68.0911442 C16.5485641,68.0029848 16.2922237,67.6803041 16.5561561,67.7855819 C16.8196419,67.8912876 17.0880401,68.628232 17.1813766,68.391143" id="Fill-26"></path>
                        <path d="M43.3359345,69.928481 C43.4183183,70.1130754 43.1799938,70.2765108 43.0786954,70.3056956 C43.0786954,70.3082493 42.8193546,70.283807 42.8222969,70.2812533 C42.8210359,70.2812533 42.7617701,70.1594064 42.8067449,70.0229671 C42.8479368,69.8992961 42.9277986,69.7993379 42.9904271,69.762492 C43.1715873,69.6603449 43.0480116,69.9602196 43.3359345,69.928481" id="Fill-27"></path>
                        <path d="M42.0537309,70.5955765 C42.1442149,70.8103059 42.1717736,70.9318588 41.9434965,71.0106353 C41.7501269,71.0762824 41.4681106,70.9826824 41.6288691,70.8357176 C41.7900869,70.6857882 41.4267727,70.8611294 41.4759188,70.7056941 C41.5204719,70.5616941 41.5291988,70.1263059 41.6766373,70.4032941 C41.8222386,70.6802824 41.7391035,70.6290353 42.0537309,70.5955765" id="Fill-28"></path>
                        <path d="M35.0400666,71.5900235 C34.7254392,71.4968471 34.6932875,71.6184 34.4622545,71.8644706 C34.2293843,72.1075765 33.3130608,70.7904 34.3423746,71.3104941 C34.624391,71.4515294 34.5954544,71.0703529 34.8710405,71.172 C35.148923,71.2706824 35.3523974,71.6832 35.0400666,71.5900235" id="Fill-30"></path>
                        <path d="M61.4805382,32.079715 C61.3545934,32.1707659 61.4619636,31.9613488 61.2780298,31.8853213 C61.0918308,31.8124806 61.2884497,32.3077975 61.1670353,32.2918636 C61.0465269,32.2768402 61.1670353,32.5595532 61.2626265,32.4197901 C61.3577646,32.2832137 61.7568919,32.6173705 61.8067262,32.7507601 C61.8583726,32.8846049 62.1619087,32.6842929 62.1211352,32.3988484 C62.0894224,32.1921629 62.07266,32.179871 61.9394666,32.1102171 C61.8067262,32.0369211 61.8035549,32.2741087 61.7283504,32.1102171 C61.6495217,31.9458702 61.6055769,31.9913956 61.4805382,32.079715" id="Fill-107"></path>
                    </g>
                    <g id="centre" transform="translate(56.000000, 73.000000)" fill="#0D559E">
                        <path d="M0.510700571,11.1648307 C1.41953038,10.9345832 1.22208626,12.256681 0.707306281,12.3082798 C0.139706854,12.3603654 -0.451787083,11.4121156 0.510700571,11.1648307" id="Fill-52"></path>
                        <path d="M3.6291219,5.69748254 C4.72252061,6.10259699 5.35436354,7.16690463 5.74789577,5.2170855 C6.07979592,3.56557364 8.08763204,2.94731535 9.03174416,3.33690276 C10.2319718,3.8577642 9.67773964,5.51821587 11.0071664,5.5309198 C12.4557485,5.54691735 12.3046357,3.64697294 12.3046357,3.64697294 C13.0437641,3.79189193 13.6573457,4.86231628 13.3026189,5.53703651 C12.4205954,7.20736902 14.4266053,4.5955336 15.4259581,5.34930055 C15.9573635,5.75112139 15.8815789,6.22822481 16.0212783,6.67709727 C17.2278974,5.01946869 19.4562394,4.88113693 19.1955585,5.61278962 C18.8285053,6.64886629 19.6036999,6.43195833 19.7908788,6.68321398 C21.0006936,8.3191988 16.461377,7.80727718 18.8590931,9.50866376 C19.8155316,10.1838545 17.418272,11.7290297 16.9243024,10.836931 C16.4326153,9.9514195 16.5955979,8.54175297 15.9377326,9.07249524 C15.0634701,9.77874006 16.0902149,10.1052783 15.3268902,10.4224062 C14.4891505,10.7710587 15.6432682,10.9846731 15.5309609,12.0772117 C15.3556518,13.7790688 12.7492998,14.2462914 11.5705292,13.9611586 C10.8560537,13.7851855 10.9765786,15.0941616 10.5319146,15.6220807 C10.0872506,16.1490589 9.19427023,15.5651483 9.32118666,14.9657106 C9.44719002,14.3690961 10.1726224,14.5135446 10.0813156,13.9357507 C9.73206718,11.6909179 8.83954339,14.1488945 7.92556251,13.9955062 C4.79282683,13.873172 7.08782279,11.1008906 6.22314756,10.5165095 C5.35755928,9.92930524 4.75630412,10.6167294 4.8476109,11.3013305 C4.93709155,11.9864021 3.11278205,11.6560997 2.62794304,10.6331975 C2.21386679,9.75709631 2.96166933,8.49187825 2.07416741,7.72258426 C1.06111867,6.84366 2.38141473,5.23590615 3.6291219,5.69748254" id="Fill-53"></path>
                        <path d="M2.92770232,14.0780114 C3.1442172,13.2384898 4.34149839,13.3118606 4.98735765,14.1413998 C5.63413826,14.9674451 4.08812992,15.6766961 3.55283144,15.5099896 C3.01522961,15.3472762 2.71072678,14.9170339 2.92770232,14.0780114" id="Fill-54"></path>
                        <path d="M4.38526091,3.74273353 C4.96662974,4.36803889 4.00484886,5.03522162 3.95895133,4.48558107 C3.91264029,3.93308524 3.65462169,4.31426453 3.46689662,4.142948 C3.28041202,3.96496915 3.80471905,3.12028345 4.38526091,3.74273353" id="Fill-55"></path>
                        <path d="M9.81132568,0.237026612 C10.402057,-0.312754349 10.6727161,0.259283033 11.2563248,0.309478366 C11.838598,0.360620781 11.7433331,1.16611382 11.6258101,1.68748232 C11.5087322,2.20885083 10.822736,2.29124694 10.7795552,2.63551116 C10.7377099,2.97977538 9.95377784,3.27052948 9.36082073,2.00664888 C8.76830878,0.74276827 9.54244723,0.486582655 9.81132568,0.237026612" id="Fill-56"></path>
                        <path d="M13.995115,14.4467258 C14.8167715,14.0764359 16.037857,14.9863732 15.9990996,15.9054003 C15.9621661,16.8249059 13.5934062,17.376992 13.0535387,16.6971702 C12.5136711,16.014478 13.1720906,14.8170158 13.995115,14.4467258" id="Fill-57"></path>
                        <path d="M14.1600454,1.77310539 C14.5981919,1.68161193 15.8390329,2.04139781 15.2915651,2.35079599 C14.7531356,2.65798418 15.2760707,3.8080614 14.5749503,3.44827552 C14.0180137,3.15611524 14.1299175,3.64894233 13.7051134,3.29180844 C13.2803093,2.93776853 13.2816005,1.9587443 14.1600454,1.77310539" id="Fill-58"></path>
                    </g>
                    <path d="M36.8386066,64.5077897 C36.896167,63.8244819 36.7280183,62.9689878 37.3842966,62.7365363 C37.7727155,62.5969747 37.3027151,61.913667 37.8955411,61.9046045 C38.7874995,60.5769574 38.8980878,58.954328 40.2197091,58.3978943 C39.9704321,57.2311055 41.1846376,57.5288066 41.2888807,56.9107483 C41.3917641,56.2908776 41.7937799,56.1590191 42.3186213,56.3103618 C43.0020935,56.5083761 42.4727198,55.1086826 44.2647948,54.890731 C45.3865412,54.7561538 44.1011784,53.8358633 46.3469375,53.3229293 C46.1216817,52.8122609 46.9955109,52.3115613 47.1242284,52.4973412 C47.2162343,52.292077 47.4310657,52.2390618 47.7650969,52.3568735 C48.7236802,51.8067835 49.6342211,50.8031185 50.9209436,51.2476311 C51.2871541,50.6789632 52.0735097,51.0283201 52.4664609,50.641354 C53.5940994,49.6417672 54.6877455,49.5919238 55.896059,49.4636903 C56.0700997,48.9675218 56.6701774,48.8737256 56.8378728,49.1070834 C57.0042086,49.3368162 58.0883369,49.3155194 58.4758493,48.990631 C58.8642681,48.6652895 59.4466698,48.4355567 60.2284931,48.6367429 C60.4188501,48.4251349 60.6771917,48.399307 60.9024474,48.6775238 C61.1277032,48.9557407 60.9495835,48.4233224 61.2323995,48.4505098 C61.4998058,48.4781502 62.3255924,48.0803092 63,48.2361831 L63,0 L0,0 L0,68 L35.1811413,68 C35.2581905,67.2170054 36.0141797,66.3855268 36.0023956,65.8535617 C35.9887987,65.1639102 36.4406699,64.8766309 36.8386066,64.5077897" id="Fill-109" stroke="#FFFFFF"></path>
                    <g id="text" transform="translate(4.000000, 22.000000)" fill="#FFFFFE">
                        <path d="M4.93676461,21.104908 C6.05464871,21.1785276 7.02608311,20.756135 7.846936,19.9858896 L7.8974359,19.9858896 L7.04123308,22.425 L0.282051282,22.425 L0.282051282,22.3711656 C1.11943141,22.0398773 1.02164524,20.6843558 1.02164524,19.8570552 L1.02164524,12.9363497 C1.02164524,12.093865 1.11943141,10.7521472 0.282051282,10.4033742 L0.282051282,10.35 L3.42360403,10.35 L3.42360403,10.4033742 C2.58392845,10.7521472 2.69916004,12.1104294 2.69916004,12.9363497 L2.69916004,20.9406442 L4.93676461,21.104908" id="Fill-111"></path>
                        <path d="M11.1670431,20.8607539 L13.2601927,21.0837501 C14.3467905,21.1959495 15.4858319,20.8046542 16.3083707,19.9841963 L16.3589744,19.9841963 L15.6174013,22.425 L8.74358974,22.425 L8.74358974,22.3721728 C9.58452988,22.0351072 9.48470274,20.655055 9.48470274,19.8158973 L9.48470274,12.7861396 C9.48470274,11.9264119 9.58452988,10.5650597 8.74358974,10.2106967 L8.74358974,10.154597 L14.018327,10.154597 C14.2994071,10.154597 14.578647,10.1919968 14.7921023,10.0625 L14.8427059,10.0625 L14.8427059,12.2429077 L14.7921023,12.2429077 C14.2823859,11.5725164 13.6056775,11.4977169 12.8489233,11.4977169 C12.2720421,11.4977169 11.6947008,11.5145468 11.1670431,11.6286161 L11.1670431,15.0974465 L13.1281633,15.0974465 C13.3922222,15.0974465 13.6562811,15.0974465 13.8540952,14.9852471 L13.9033187,14.9852471 L13.9033187,16.9613584 L13.8540952,16.9613584 C13.5900363,16.4218665 12.8963067,16.4391639 12.3856702,16.4391639 L11.1670431,16.4391639 L11.1670431,20.8607539" id="Fill-112"></path>
                        <path d="M25.5674905,12.4819366 L25.519243,12.4819366 C24.855952,11.6386951 23.6281198,11.3808976 22.6446817,11.3808976 C20.1231842,11.3808976 18.1991445,13.2511933 18.1991445,16.2027681 C18.1991445,19.1543429 20.2674759,21.3922642 22.8205372,21.3922642 C23.5636395,21.3922642 24.3401092,21.2819765 25.0665277,21.0430198 L25.0665277,18.4030078 C25.0665277,17.5593069 25.0516477,16.6613811 24.3234255,16.3314371 L24.3234255,16.2762932 L26.7948718,16.2762932 L26.7948718,16.3314371 C26.7155114,16.552472 26.7155114,16.845194 26.7155114,17.1195347 L26.7155114,21.3371204 C26.7155114,21.6119206 26.6988276,21.9046425 26.7948718,22.1606019 C25.5025592,22.4367807 24.2422614,22.7125 22.9350687,22.7125 C18.7975041,22.7125 16.3589744,20.1446346 16.3589744,16.4601061 C16.3589744,12.5186991 19.1212587,10.0625 23.0297602,10.0625 C23.8869431,10.0625 24.7278931,10.1714091 25.5674905,10.3736032 L25.5674905,12.4819366" id="Fill-113"></path>
                        <path d="M28.6419971,12.9359555 C28.6419971,12.0917591 28.7558944,10.7534661 27.9230769,10.4033661 L27.9230769,10.35 L31.025641,10.35 L31.025641,10.4033661 C30.2092247,10.7534661 30.3076321,12.108781 30.3076321,12.9359555 L30.3076321,19.8569865 C30.3076321,20.6814007 30.2092247,22.0210738 31.025641,22.3711738 L31.025641,22.425 L27.9230769,22.425 L27.9230769,22.3711738 C28.74086,22.0394759 28.6419971,20.6814007 28.6419971,19.8569865 L28.6419971,12.9359555" id="Fill-114"></path>
                        <path d="M33.7149909,16.1956143 C33.7149909,18.7600637 35.3142014,21.395633 37.852824,21.395633 C40.3084645,21.395633 41.8761056,19.3629777 41.8761056,16.6351818 C41.8761056,13.9633642 40.372956,11.3823966 37.8199017,11.3823966 C35.3142014,11.3823966 33.7149909,13.4324878 33.7149909,16.1956143 M43.7179487,16.270405 C43.7179487,20.0044341 40.9872044,22.7125 37.7716458,22.7125 C34.5714209,22.7125 31.8717949,20.1131789 31.8717949,16.3607962 C31.8717949,12.8841756 34.5394006,9.9728442 37.9340022,10.0646119 C41.3267998,10.0462584 43.7179487,12.9745668 43.7179487,16.270405" id="Fill-115"></path>
                        <path d="M46.2927052,20.0282335 C46.2927052,21.0558967 46.2760883,21.7889569 47.1289433,22.3593191 L47.1289433,22.4130922 L44.2820513,22.4130922 L44.2820513,22.3593191 C45.1344572,21.7889569 45.1344572,21.0558967 45.1344572,20.0282335 L45.1344572,12.7141767 C45.1344572,11.6869732 45.1344572,10.9539129 44.2968718,10.4033135 L44.2968718,10.35 L46.6479492,10.35 L46.6479492,10.3665456 C46.7121716,10.5857742 46.776843,10.6795324 46.8891199,10.8252253 L47.1136736,11.1915256 L53.0041666,19.6637716 L53.0041666,12.7141767 C53.0041666,11.6869732 53.0207836,10.9539129 52.1661321,10.4033135 L52.1661321,10.35 L55,10.35 L55,10.4033135 C54.1624147,10.9539129 54.1624147,11.6869732 54.1624147,12.7141767 L54.1624147,23 C53.0207836,22.5601639 52.5218252,21.9544125 51.8126846,20.9102038 L46.2927052,12.9334054 L46.2927052,20.0282335" id="Fill-116"></path>
                        <path d="M2.01864993,3.93305119 C2.01864993,4.35195331 2.01263654,4.63754735 2.35539996,4.86620774 L2.35539996,4.8875 L1.07593486,4.8875 L1.07593486,4.86620774 C1.39834527,4.72688228 1.35948949,4.19133559 1.35948949,3.85899114 L1.35948949,0.582297093 L0.790067388,0.582297093 C0.512526151,0.582297093 0.222495558,0.662374515 0.0198904553,0.87529714 L0,0.87529714 L0.228508952,0 L0.247011701,0 C0.324260679,0.0370300218 0.40752305,0.0370300218 0.492173127,0.0523049058 L3.06683067,0.0523049058 C3.17784716,0.0523049058 3.27961228,0.0448989014 3.36287465,0 L3.38461538,0 L3.17784716,0.87529714 L3.15610643,0.87529714 C3.07284406,0.617475613 2.81334301,0.582297093 2.60056139,0.582297093 L2.01864993,0.582297093 L2.01864993,3.93305119" id="Fill-117"></path>
                        <path d="M4.61028277,2.78973531 L4.61028277,4.13536521 C4.61028277,4.46990116 4.57187172,5.01264479 4.89582036,5.15347741 L4.89582036,5.175 L3.66666667,5.175 L3.66666667,5.15347741 C3.98968974,5.01264479 3.94942755,4.46990116 3.94942755,4.13536521 L3.94942755,1.32900632 C3.94942755,0.991663077 3.99570593,0.449855208 3.66666667,0.309490475 L3.66666667,0.2875 L4.89582036,0.2875 L4.89582036,0.309490475 C4.57187172,0.449855208 4.61028277,0.991663077 4.61028277,1.33508879 L4.61028277,2.25588144 L6.94641525,2.25588144 L6.94641525,1.33508879 C6.94641525,0.991663077 6.99130527,0.449855208 6.66087766,0.309490475 L6.66087766,0.2875 L7.8974359,0.2875 L7.8974359,0.309490475 C7.56700829,0.449855208 7.60727047,0.991663077 7.60727047,1.32900632 L7.60727047,4.13536521 C7.60727047,4.46990116 7.56700829,5.01264479 7.8974359,5.15347741 L7.8974359,5.175 L6.66087766,5.175 L6.66087766,5.15347741 C6.99130527,5.01264479 6.94641525,4.46990116 6.94641525,4.13536521 L6.94641525,2.78973531 L4.61028277,2.78973531" id="Fill-118"></path>
                        <path d="M9.35980763,4.55552969 L10.1345539,4.64515321 C10.5378584,4.68880404 10.9573126,4.53370428 11.2632828,4.20864489 L11.2820513,4.20864489 L11.0066344,5.175 L8.46153846,5.175 L8.46153846,5.15363895 C8.77318287,5.02036461 8.73826473,4.47519359 8.73826473,4.14316865 L8.73826473,1.36391093 C8.73826473,1.02445606 8.77318287,0.487179335 8.46153846,0.3474038 L8.46153846,0.322792162 L10.4156449,0.322792162 C10.517344,0.322792162 10.6225349,0.33811639 10.7011007,0.2875 L10.7211786,0.2875 L10.7211786,1.1498361 L10.7011007,1.1498361 C10.5116698,0.883751781 10.262878,0.854032067 9.98309645,0.854032067 C9.76747693,0.854032067 9.55491274,0.861926366 9.35980763,0.905112827 L9.35980763,2.27779216 L10.0865414,2.27779216 C10.1825663,2.27779216 10.2816465,2.27779216 10.3545382,2.23274822 L10.3719972,2.23274822 L10.3719972,3.01567696 L10.3545382,3.01567696 C10.2567674,2.80206651 10.0005555,2.80763895 9.8111246,2.80763895 L9.35980763,2.80763895 L9.35980763,4.55552969" id="Fill-119"></path>
                        <path d="M14.4477592,0.2875 C15.2783741,0.2875 15.7306716,0.805913747 15.7306716,1.48340752 C15.7306716,2.13610353 15.2531234,2.64937057 14.7450086,2.78973531 L15.6376428,4.13536521 C15.8976806,4.52136823 16.2879589,4.90830701 16.6410256,5.175 L16.0708915,5.175 C15.7426325,5.175 15.538855,5.08001986 15.3523542,4.80490499 L14.5974913,3.68292289 L14.0282432,2.63393045 C14.5235112,2.54643643 15.0998473,2.26991791 15.0998473,1.57230519 C15.0998473,1.03704767 14.7153279,0.724502202 14.3002419,0.747896324 C14.1580407,0.755850325 14.0220413,0.7778408 13.8776251,0.805913747 L13.8776251,4.13536521 C13.8776251,4.47738728 13.8421855,5.02059879 14.1580407,5.15347741 L14.1580407,5.175 L12.974359,5.175 L12.974359,5.15347741 C13.2906572,5.02059879 13.2463577,4.47130481 13.2463577,4.13536521 L13.2463577,1.33368514 C13.2463577,0.991663077 13.2906572,0.449855208 12.974359,0.309490475 L12.974359,0.2875 L14.4477592,0.2875" id="Fill-120"></path>
                        <path d="M17.3432645,2.50916889 C17.3432645,3.55908751 17.9530457,4.63683416 18.9207705,4.63683416 C19.8563552,4.63683416 20.4529281,3.80435152 20.4529281,2.69028692 C20.4529281,1.59650377 19.8801301,0.540925212 18.9062414,0.540925212 C17.9530457,0.540925212 17.3432645,1.37812447 17.3432645,2.50916889 M21.1538462,2.54077021 C21.1538462,4.067067 20.1134759,5.175 18.8886304,5.175 C17.6708293,5.175 16.6410256,4.11281818 16.6410256,2.57708815 C16.6410256,1.15408524 17.6558599,-0.0368601937 18.9502689,0.000872730771 C20.2429168,-0.00525886946 21.1538462,1.19181816 21.1538462,2.54077021" id="Fill-121"></path>
                        <path d="M22.9437692,4.2102264 C22.9437692,4.65565049 22.9437692,4.87883041 23.2747605,5.15347741 L23.2747605,5.175 L22.0110595,5.175 L22.0110595,5.15347741 C22.3281437,4.96772808 22.2817864,4.48534128 22.2817864,4.13536521 L22.2817864,3.03677724 L21.2067597,1.05248779 C21.0319926,0.724502202 20.902192,0.481203331 20.5897436,0.2875 L21.1803361,0.2875 C21.3880169,0.2875 21.5827177,0.338967069 21.6675517,0.495239805 L22.7041017,2.43414465 L23.5070108,1.05248779 C23.6182684,0.866738464 23.7666119,0.511147808 23.4045611,0.309490475 L23.4045611,0.2875 L24.5384615,0.2875 L22.9437692,3.03677724 L22.9437692,4.2102264" id="Fill-122"></path>
                        <path d="M25.8520696,0.918205533 L25.2251004,2.78973531 L26.4713432,2.78973531 L25.8520696,0.918205533 Z M25.0589648,3.34090082 L24.7312206,4.38661808 C24.5985838,4.80490499 24.5533153,5.02059879 24.8566145,5.15347741 L24.8566145,5.175 L23.6923077,5.175 L23.6923077,5.15347741 C24.0607936,4.9377836 24.166722,4.52136823 24.3070544,4.09793462 L25.3645275,0.999617078 C25.4514431,0.732456203 25.5723101,0.421782261 25.2690109,0.309490475 L25.2690109,0.2875 L26.2689929,0.2875 L27.5858546,4.09793462 C27.7307139,4.52136823 27.845696,4.9377836 28.2051282,5.15347741 L28.2051282,5.175 L26.9077319,5.175 L26.9077319,5.15347741 C27.2187268,4.98925067 27.1671206,4.90830701 26.9969109,4.38661808 L26.6555862,3.34090082 L25.0589648,3.34090082 L25.0589648,3.34090082 Z" id="Fill-123"></path>
                        <path d="M30.2105842,4.63974249 C30.6247763,4.67109061 30.9836556,4.49937775 31.2872222,4.18870381 L31.3076923,4.18870381 L30.9910597,5.175 L28.4871795,5.175 L28.4871795,5.15347741 C28.7981502,5.01919515 28.7620009,4.46990116 28.7620009,4.13536521 L28.7620009,1.33508879 C28.7620009,0.993066724 28.7981502,0.451726738 28.4871795,0.309490475 L28.4871795,0.2875 L29.6513597,0.2875 L29.6513597,0.309490475 C29.340389,0.451726738 29.3826357,1.00102073 29.3826357,1.33508879 L29.3826357,4.57236741 L30.2105842,4.63974249" id="Fill-124"></path>
                        <path d="M33.8096643,2.25652485 C34.2071272,2.25652485 34.7736862,2.0928292 34.7736862,1.48294597 C34.7736862,0.972683231 34.3827605,0.704222361 34.0162404,0.747718635 L33.6091896,0.801036647 L33.6091896,2.25652485 L33.8096643,2.25652485 Z M34.1382685,4.64086895 C34.6385836,4.70026709 35.1445644,4.41637206 35.1445644,3.71248075 C35.1445644,2.99175218 34.571904,2.67979504 34.0354162,2.71721119 L33.6091896,2.7466764 L33.6091896,4.58147082 L34.1382685,4.64086895 Z M32.9881538,1.32813665 C32.9881538,0.994197517 33.0291203,0.45306646 32.7179487,0.312288199 L32.7179487,0.2875 L34.1631099,0.2875 C34.9671878,0.2875 35.436996,0.704222361 35.436996,1.3655528 C35.436996,1.86365528 35.1750714,2.1442764 34.8259839,2.32995404 C35.3759819,2.47213541 35.8205128,2.91832299 35.8205128,3.64559939 C35.8205128,4.21666336 35.4967026,4.70821802 35.0892159,4.94393976 C34.6634251,5.19649877 34.1818499,5.17451678 33.7255521,5.17451678 L32.7179487,5.17451678 L32.7179487,5.1530025 C33.0230189,5.01082113 32.9881538,4.46969007 32.9881538,4.12780001 L32.9881538,1.32813665 L32.9881538,1.32813665 Z" id="Fill-125"></path>
                        <path d="M37.8593446,0.2875 C38.6886305,0.2875 39.1409281,0.805913747 39.1409281,1.48340752 C39.1409281,2.13610353 38.6651518,2.64937057 38.155265,2.78973531 L39.0492282,4.13536521 C39.307937,4.52136823 39.6982153,4.90830701 40.0512821,5.175 L39.480705,5.175 C39.1524459,5.175 38.9486684,5.08001986 38.7626106,4.80490499 L38.0073048,3.68292289 L37.4380566,2.63393045 C37.9333247,2.54643643 38.5096607,2.26991791 38.5096607,1.57230519 C38.5096607,1.03704767 38.1255843,0.724502202 37.7087264,0.747896324 C37.5669681,0.755850325 37.4322977,0.7778408 37.2887675,0.805913747 L37.2887675,4.13536521 C37.2887675,4.47738728 37.2519989,5.02059879 37.5669681,5.15347741 L37.5669681,5.175 L36.3846154,5.175 L36.3846154,5.15347741 C36.7004706,5.02059879 36.6579431,4.47130481 36.6579431,4.13536521 L36.6579431,1.33368514 C36.6579431,0.991663077 36.7004706,0.449855208 36.3846154,0.309490475 L36.3846154,0.2875 L37.8593446,0.2875" id="Fill-126"></path>
                        <path d="M40.5941458,1.33508879 C40.5941458,0.993066724 40.6366234,0.449855208 40.3333333,0.309490475 L40.3333333,0.2875 L41.4615385,0.2875 L41.4615385,0.309490475 C41.1650448,0.449855208 41.1990269,1.00102073 41.1990269,1.33508879 L41.1990269,4.13536521 C41.1990269,4.46990116 41.1650448,5.01264479 41.4615385,5.15347741 L41.4615385,5.175 L40.3333333,5.175 L40.3333333,5.15347741 C40.6294022,5.01919515 40.5941458,4.46990116 40.5941458,4.13536521 L40.5941458,1.33508879" id="Fill-127"></path>
                        <path d="M44.0453951,3.93305119 C44.0453951,4.35195331 44.0389156,4.63754735 44.3818665,4.86620774 L44.3818665,4.8875 L43.1003131,4.8875 L43.1003131,4.86620774 C43.4247511,4.72688228 43.3844857,4.19133559 43.3844857,3.85899114 L43.3844857,0.582297093 L42.8147521,0.582297093 C42.5365962,0.582297093 42.246407,0.662374515 42.0455424,0.87529714 L42.025641,0.87529714 L42.2528865,0 L42.2709365,0 C42.3500791,0.0370300218 42.4347754,0.0370300218 42.5180834,0.0523049058 L45.0936863,0.0523049058 C45.2033751,0.0523049058 45.3070472,0.0448989014 45.3903551,0 L45.4102564,0 L45.2033751,0.87529714 L45.1834738,0.87529714 C45.1001658,0.617475613 44.8405228,0.582297093 44.6276248,0.582297093 L44.0453951,0.582297093 L44.0453951,3.93305119" id="Fill-128"></path>
                        <path d="M45.9540988,1.33508879 C45.9540988,0.993066724 45.9965285,0.449855208 45.6923077,0.309490475 L45.6923077,0.2875 L46.8205128,0.2875 L46.8205128,0.309490475 C46.524778,0.449855208 46.5587217,1.00102073 46.5587217,1.33508879 L46.5587217,4.13536521 C46.5587217,4.46990116 46.524778,5.01264479 46.8205128,5.15347741 L46.8205128,5.175 L45.6923077,5.175 L45.6923077,5.15347741 C45.9897397,5.01919515 45.9540988,4.46990116 45.9540988,4.13536521 L45.9540988,1.33508879" id="Fill-129"></path>
                        <path d="M49.828325,1.01355754 C49.5732367,0.714118828 49.1689194,0.54078443 48.8033083,0.54078443 C48.4330339,0.54078443 47.9629625,0.706089714 47.9629625,1.2232591 C47.9629625,2.25051337 50.2051282,2.23634435 50.2051282,3.62301953 C50.2051282,4.42498631 49.4753051,5.175 48.4582163,5.175 C48.0608941,5.175 47.6631055,5.10698868 47.2909657,4.95112941 L47.1025641,4.0136123 C47.4868288,4.39664826 48.0207888,4.63421557 48.5295664,4.63421557 C48.9031052,4.63421557 49.4631803,4.37917313 49.4631803,3.85586383 C49.4631803,2.68550242 47.2191493,2.89473168 47.2191493,1.30638405 C47.2191493,0.361310121 48.0608941,0 48.8560048,0 C49.1824432,0 49.5140114,0.0538422926 49.828325,0.167194488 L49.828325,1.01355754" id="Fill-130"></path>
                        <path d="M51.4311551,2.78973531 L51.4311551,4.13536521 C51.4311551,4.46990116 51.3927483,5.01264479 51.7152733,5.15347741 L51.7152733,5.175 L50.4871795,5.175 L50.4871795,5.15347741 C50.8120182,5.01264479 50.7717604,4.46990116 50.7717604,4.13536521 L50.7717604,1.32900632 C50.7717604,0.991663077 50.8180337,0.449855208 50.4871795,0.309490475 L50.4871795,0.2875 L51.7152733,0.2875 L51.7152733,0.309490475 C51.3927483,0.449855208 51.4311551,0.991663077 51.4311551,1.33508879 L51.4311551,2.25588144 L53.7679576,2.25588144 L53.7679576,1.33508879 C53.7679576,0.991663077 53.8114545,0.449855208 53.4824512,0.309490475 L53.4824512,0.2875 L54.7179487,0.2875 L54.7179487,0.309490475 C54.3875572,0.449855208 54.4273523,0.991663077 54.4273523,1.32900632 L54.4273523,4.13536521 C54.4273523,4.46990116 54.3875572,5.01264479 54.7179487,5.15347741 L54.7179487,5.175 L53.4824512,5.175 L53.4824512,5.15347741 C53.8114545,5.01264479 53.7679576,4.46990116 53.7679576,4.13536521 L53.7679576,2.78973531 L51.4311551,2.78973531" id="Fill-131"></path>
                    </g>
                </g>
            </g>
        </g>
    </g>
</svg>