<?xml version="1.0" encoding="UTF-8"?>
<svg width="216px" height="52px" viewBox="0 0 216 52" version="1.1" xmlns="http://www.w3.org/2000/svg" xmlns:xlink="http://www.w3.org/1999/xlink">
    <!-- Generator: Sketch 53.2 (72643) - https://sketchapp.com/ -->
    <title>Logo</title>
    <desc>Created with Sketch.</desc>
    <defs>
        <polygon id="path-1" points="-6.37e-14 1.06473872e-14 -6.37e-14 25 25 25 25 0 -6.3689112e-14 0"></polygon>
    </defs>
    <g id="5.-Food-&amp;-Drink" stroke="none" stroke-width="1" fill="none" fill-rule="evenodd">
        <g id="Dishoom---Recruitment" transform="translate(-272.000000, -171.000000)">
            <g id="Logo" transform="translate(272.000000, 171.000000)">
                <g id="Group-3" transform="translate(0.000000, 1.000000)">
                    <mask id="mask-2" fill="white">
                        <use xlink:href="#path-1"></use>
                    </mask>
                    <g id="Clip-2"></g>
                    <path d="M7.14285714,21.3302264 C7.47907638,21.3637365 7.82051409,21.3877764 8.16866129,21.4045315 C8.51606298,21.4205581 8.95292434,21.4285714 9.48073635,21.4285714 C12.227148,21.4285714 14.3093217,20.6053868 15.7280029,18.955375 C17.146684,17.3068202 17.8571429,14.8773327 17.8571429,11.6669125 C17.8571429,8.50020124 17.1079182,6.16031704 15.6109598,4.64871687 C14.1140014,3.1371167 11.7850682,2.38095238 8.62266908,2.38095238 C8.22979206,2.38095238 7.93233867,2.38386631 7.73105443,2.38896568 C7.52902469,2.39479354 7.33892291,2.40280684 7.15925808,2.41373407 L7.14285714,21.3302264 Z M0,25 L0,23.715797 C0,23.5022627 0.0415035239,23.3269398 0.123727486,23.1913268 C0.205951449,23.056463 0.382145654,22.9208499 0.653876273,22.7859862 C1.33594362,22.4256001 1.76664056,22.0449846 1.94283477,21.6448887 C2.11981206,21.245542 2.2083007,20.6453981 2.2083007,19.8444571 L2.2083007,5.1555429 C2.2083007,4.34411245 2.13469068,3.74996254 1.98747063,3.37234393 C1.84025059,2.99472533 1.47768207,2.60961429 0.90054816,2.21476309 C0.700861394,2.09038871 0.565387627,1.96076962 0.494909945,1.82590584 C0.424432263,1.6902928 0.388410337,1.51047442 0.388410337,1.28420296 L0.388410337,0 L9.46985121,0 C14.3696163,0 18.1816758,1.07965954 20.9068128,3.2367309 C23.6350822,5.39530075 25,8.40126472 25,12.2553721 C25,16.0870021 23.6186374,19.1686397 20.8559123,21.501034 C18.0931872,23.8341775 14.4346124,25 9.87548943,25 L0,25 L0,25 Z" id="Fill-1" fill="#FFFFFF" mask="url(#mask-2)"></path>
                </g>
                <path d="M39.7997146,22.4320137 C39.7997146,23.3213055 39.8829686,23.9726976 40.0502696,24.3861899 C40.2175706,24.7996823 40.64732,25.2075104 41.3379321,25.608865 C41.6003806,25.7545179 41.7764034,25.90098 41.8652077,26.0466329 C41.9563907,26.193095 42,26.3824437 42,26.6130608 L42,28 L32,28 L32,26.6130608 C32,26.3824437 32.0388519,26.193095 32.1173486,26.0466329 C32.1934665,25.90098 32.364732,25.7545179 32.6263876,25.608865 C33.3169997,25.2196482 33.7530923,24.8085833 33.9322867,24.3764798 C34.1106882,23.9451854 34.2010783,23.29703 34.2010783,22.4320137 L34.2010783,6.56798633 C34.2010783,5.66736596 34.1289248,5.01597387 33.9854107,4.61461923 C33.8434824,4.2132646 33.4850936,3.80543651 32.9126229,3.39194414 C32.6866476,3.24548206 32.5367904,3.09901999 32.4654297,2.9533671 C32.3932762,2.80771421 32.3575959,2.61917463 32.3575959,2.38693919 L32.3575959,1 L41.6067238,1 L41.6067238,2.38693919 C41.6067238,2.63131237 41.5678719,2.82551623 41.490961,2.9719783 C41.4124643,3.11763119 41.2776721,3.2576198 41.0873771,3.39194414 C40.5038059,3.79329877 40.1430384,4.18898912 40.0042816,4.57820601 C39.8679036,4.96823209 39.7997146,5.63095274 39.7997146,6.56798633 L39.7997146,22.4320137" id="Fill-4" fill="#FFFFFF"></path>
                <path d="M54,26.5582502 L54,19.349269 L55.6705963,19.349269 C56.146697,19.349269 56.5479487,19.7142608 56.8720367,20.4442446 C57.0109315,20.7395277 57.1220474,20.9564864 57.2022978,21.0982537 C57.770995,22.0522453 58.5434046,22.785362 59.5179835,23.2983871 C60.4933339,23.8106289 61.6137523,24.0667498 62.878467,24.0667498 C64.3399494,24.0667498 65.4950915,23.6900093 66.3423501,22.935745 C67.1896086,22.1822639 67.6132379,21.1577802 67.6132379,19.8615108 C67.6132379,18.8714899 67.3107558,18.0835461 66.7081065,17.4937631 C66.1046856,16.9047633 64.7512325,16.2452715 62.6516054,15.5145045 C62.4671839,15.4557612 62.1639302,15.3555059 61.746474,15.2137387 C59.367514,14.4257948 57.6382732,13.5885066 56.5587517,12.705007 C55.8619625,12.1285391 55.336477,11.4181365 54.9822952,10.5753655 C54.628885,9.73337781 54.4521799,8.77625319 54.4521799,7.70399165 C54.4521799,5.41926781 55.1721181,3.56297865 56.611223,2.13825714 C58.0495563,0.712752379 59.9354396,0 62.268873,0 C63.219531,0 64.1902516,0.167614296 65.1756334,0.503626131 C66.1625584,0.838854723 66.7019334,1.00725226 66.7953016,1.00725226 C66.8755519,1.00725226 67.0036438,0.983754932 67.178034,0.935977025 C67.3524242,0.889765607 67.474343,0.865485031 67.5437905,0.865485031 L69.5801432,0.865485031 L69.5801432,7.45648642 L67.9612466,7.45648642 C67.5090667,7.45648642 67.2065846,7.18548387 67.0561152,6.64426201 C66.9403695,6.21974356 66.8061045,5.8727663 66.6556351,5.60098051 C66.1440391,4.69476677 65.5213272,4.01726039 64.7844129,3.5692446 C64.0474986,3.12122882 63.1848073,2.89722093 62.1994256,2.89722093 C61.1785485,2.89722093 60.3629271,3.17135646 59.7525614,3.71962752 C59.1445107,4.26711534 58.838942,4.99474936 58.838942,5.90174634 C58.838942,7.30375377 60.3019677,8.48801926 63.2264758,9.45297633 C63.6786556,9.60649223 64.0266644,9.72476213 64.270502,9.80700278 C65.9071462,10.3607566 67.1047284,10.8471513 67.8647919,11.2646206 C68.6263986,11.6828731 69.3015819,12.1747505 69.8941999,12.740253 C70.6017919,13.400528 71.1295923,14.2010037 71.4776011,15.1432467 C71.8256098,16.0862729 72,17.1875145 72,18.4477547 C72,21.0630077 71.2545977,23.1425215 69.7645647,24.6855129 C68.2714451,26.2292875 66.2620997,27 63.731127,27 C62.6408025,27 61.4301025,26.8120214 60.1005702,26.4352808 C58.7725811,26.0593235 57.9747074,25.8689951 57.7077207,25.8689951 C57.3705149,25.8689951 57.0047584,25.9849153 56.611223,26.2128394 C56.216916,26.4446797 55.9607322,26.5582502 55.8449865,26.5582502 L54,26.5582502" id="Fill-5" fill="#FFFFFF"></path>
                <path d="M89.66431,15.6591543 L89.66431,22.4320137 C89.66431,23.3083586 89.7492353,23.9540864 89.919865,24.3675787 C90.0897155,24.7810711 90.5197957,25.1953727 91.2116639,25.608865 C91.4461823,25.7431894 91.6074623,25.8823688 91.6939459,26.0288309 C91.7835459,26.1744838 91.8271772,26.3694968 91.8271772,26.6130608 L91.8271772,28 L82,28 L82,26.6130608 C82,26.3824437 82.0420731,26.193095 82.1238818,26.0466329 C82.2049114,25.90098 82.380995,25.7545179 82.6505742,25.608865 C83.3299763,25.2196482 83.7584983,24.8085833 83.9345819,24.3764798 C84.1098863,23.9451854 84.1979281,23.29703 84.1979281,22.4320137 L84.1979281,6.56798633 C84.1979281,5.69164144 84.1246898,5.04995954 83.9782132,4.64213145 C83.8317366,4.23430335 83.470999,3.81838343 82.8975587,3.39194414 C82.6973221,3.2576198 82.5633116,3.11763119 82.4924107,2.9719783 C82.4222889,2.82551623 82.387228,2.63131237 82.387228,2.38693919 L82.387228,1 L91.4570901,1 L91.4570901,2.38693919 C91.4570901,2.61917463 91.4220292,2.81014176 91.3519074,2.96226811 C91.2810065,3.11520364 91.1415421,3.2576198 90.9296185,3.39194414 C90.3561782,3.79329877 90.0016737,4.18898912 89.8661049,4.57820601 C89.7313153,4.96823209 89.66431,5.63095274 89.66431,6.56798633 L89.66431,12.6287649 L101.336469,12.6287649 L101.336469,6.56798633 C101.336469,5.66736596 101.265568,5.01597387 101.125325,4.61461923 C100.985081,4.2132646 100.632914,3.80543651 100.071161,3.39194414 C99.859237,3.2576198 99.72211,3.11763119 99.6582213,2.9719783 C99.5927743,2.82551623 99.5608299,2.63131237 99.5608299,2.38693919 L99.5608299,1 L108.630692,1 L108.630692,2.38693919 C108.630692,2.61917463 108.594852,2.81014176 108.52473,2.96226811 C108.454608,3.11520364 108.314365,3.2576198 108.10322,3.39194414 C107.52978,3.79329877 107.175276,4.18898912 107.041265,4.57820601 C106.904917,4.96823209 106.837912,5.63095274 106.837912,6.56798633 L106.837912,22.4320137 C106.837912,23.3083586 106.922837,23.9540864 107.091909,24.3675787 C107.263317,24.7810711 107.692618,25.1953727 108.385266,25.608865 C108.619005,25.7431894 108.778727,25.8823688 108.868327,26.0288309 C108.95481,26.1744838 109,26.3694968 109,26.6130608 L109,28 L99.1736019,28 L99.1736019,26.6130608 C99.1736019,26.3824437 99.215675,26.193095 99.2974837,26.0466329 C99.3785133,25.90098 99.5545969,25.7545179 99.8241761,25.608865 C100.480983,25.2317859 100.89626,24.8304313 101.072344,24.403992 C101.247648,23.9783619 101.336469,23.3213055 101.336469,22.4320137 L101.336469,15.6591543 L89.66431,15.6591543" id="Fill-6" fill="#FFFFFF"></path>
                <path d="M131.491498,2.45454545 C129.190108,2.45454545 127.388473,3.37315786 126.087334,5.21038268 C124.786933,7.04838074 124.136364,9.60704106 124.136364,12.8863636 C124.136364,16.1656862 124.786933,18.7251198 126.087334,20.5623446 C127.388473,22.4003427 129.190108,23.3181818 131.491498,23.3181818 C133.803978,23.3181818 135.610788,22.4003427 136.911927,20.5623446 C138.213067,18.7251198 138.863636,16.1656862 138.863636,12.8863636 C138.863636,9.59544242 138.213067,7.03368913 136.911927,5.20187701 C135.610788,3.37006489 133.803978,2.45454545 131.491498,2.45454545 Z M118,13.5 C118,11.4619981 118.364762,9.57751218 119.096579,7.84575888 C119.826102,6.11400557 120.88674,4.61800882 122.278492,3.35698538 C123.521128,2.23851242 124.903705,1.39887445 126.426221,0.838854723 C127.951796,0.280401485 129.634134,0 131.474,0 C133.27869,0 134.952617,0.280401485 136.494251,0.838854723 C138.035884,1.39887445 139.43299,2.23851242 140.686332,3.35698538 C142.07732,4.62897424 143.145604,6.13985263 143.885833,7.88962056 C144.629121,9.63860524 145,11.5097761 145,13.5 C145,15.5035391 144.629121,17.3762764 143.885833,19.1189951 C143.145604,20.8624971 142.07732,22.3647598 140.686332,23.625 C139.455931,24.7450395 138.070296,25.5870272 136.528662,26.1517463 C134.987028,26.7172488 133.303161,27 131.474,27 C129.634134,27 127.951796,26.7203818 126.426221,26.1619285 C124.903705,25.602692 123.521128,24.7560049 122.278492,23.625 C120.88674,22.3647598 119.826102,20.8687631 119.096579,19.1370097 C118.364762,17.4052564 118,15.5262532 118,13.5 L118,13.5 Z" id="Fill-7" fill="#FFFFFF"></path>
                <path d="M165.492238,2.45454545 C163.190108,2.45454545 161.389212,3.37315786 160.088073,5.21038268 C158.786933,7.04838074 158.136364,9.60704106 158.136364,12.8863636 C158.136364,16.1656862 158.786933,18.7251198 160.088073,20.5623446 C161.389212,22.4003427 163.190108,23.3181818 165.492238,23.3181818 C167.804717,23.3181818 169.611527,22.4003427 170.912666,20.5623446 C172.213067,18.7251198 172.863636,16.1656862 172.863636,12.8863636 C172.863636,9.59544242 172.213067,7.03368913 170.912666,5.20187701 C169.611527,3.37006489 167.804717,2.45454545 165.492238,2.45454545 Z M152,13.5 C152,11.4619981 152.364772,9.57751218 153.095845,7.84575888 C153.825389,6.11400557 154.886821,4.61800882 156.277849,3.35698538 C157.52052,2.23851242 158.9039,1.39887445 160.426459,0.838854723 C161.951313,0.280401485 163.633699,0 165.474382,0 C167.279123,0 168.953097,0.280401485 170.49401,0.838854723 C172.036452,1.39887445 173.433597,2.23851242 174.686974,3.35698538 C176.078002,4.62897424 177.145552,6.13985263 177.886566,7.88962056 C178.629875,9.63860524 179,11.5097761 179,13.5 C179,15.5035391 178.629875,17.3762764 177.886566,19.1189951 C177.145552,20.8624971 176.078002,22.3647598 174.686974,23.625 C173.455774,24.7450395 172.070864,25.5870272 170.529187,26.1517463 C168.986745,26.7172488 167.302829,27 165.474382,27 C163.633699,27 161.951313,26.7203818 160.426459,26.1619285 C158.9039,25.602692 157.52052,24.7560049 156.277849,23.625 C154.886821,22.3647598 153.825389,20.8687631 153.095845,19.1370097 C152.364772,17.4052564 152,15.5262532 152,13.5 L152,13.5 Z" id="Fill-8" fill="#FFFFFF"></path>
                <path d="M207.065407,28 L207.065407,26.6130608 C207.065407,26.3824437 207.104494,26.193095 207.181929,26.0466329 C207.258627,25.90098 207.425298,25.7545179 207.681204,25.608865 C208.324289,25.2196482 208.728429,24.8085833 208.8951,24.3764798 C209.06177,23.9451854 209.145106,23.29703 209.145106,22.4320137 L209.145106,5.41813768 L201.507744,28 L199.61094,28 L192.140249,5.41813768 L192.140249,22.4320137 C192.140249,23.3213055 192.218422,23.9726976 192.37403,24.3861899 C192.529639,24.7996823 192.929354,25.2075104 193.571701,25.608865 C193.81507,25.7545179 193.978791,25.90098 194.063601,26.0466329 C194.144724,26.193095 194.187498,26.3824437 194.187498,26.6130608 L194.187498,28 L187,28 L187,26.6130608 C187,26.3824437 187.039087,26.193095 187.116522,26.0466329 C187.19322,25.90098 187.359891,25.7545179 187.615797,25.608865 C188.258144,25.2196482 188.663022,24.8085833 188.829693,24.3764798 C188.996363,23.9451854 189.079699,23.29703 189.079699,22.4320137 L189.079699,6.56798633 C189.079699,5.69164144 189.009638,5.04995954 188.872466,4.64213145 C188.733082,4.23430335 188.390891,3.81838343 187.848104,3.39194414 C187.659309,3.2576198 187.531724,3.11763119 187.465351,2.9719783 C187.398978,2.82551623 187.365791,2.63131237 187.365791,2.38693919 L187.365791,1 L195.585027,1 L201.408184,19.1823358 L207.414236,1 L215.617247,1 L215.617247,2.38693919 C215.617247,2.63131237 215.58406,2.82551623 215.517687,2.9719783 C215.451313,3.11763119 215.328891,3.2576198 215.151158,3.39194414 C214.608372,3.79329877 214.272817,4.18898912 214.143758,4.57820601 C214.016911,4.96823209 213.953488,5.63095274 213.953488,6.56798633 L213.953488,22.4320137 C213.953488,23.3213055 214.030923,23.9726976 214.186532,24.3861899 C214.342141,24.7996823 214.741856,25.2075104 215.384203,25.608865 C215.617247,25.7431894 215.77728,25.8864147 215.866516,26.0377319 C215.955751,26.1906674 216,26.3824437 216,26.6130608 L216,28 L207.065407,28" id="Fill-9" fill="#FFFFFF"></path>
                <path d="M11.7032746,47.7897088 L12.9025189,47.7897088 C13.1700252,47.7897088 13.3649874,47.7718433 13.4881612,47.7361124 C13.611335,47.7011259 13.7088161,47.6400856 13.7813602,47.5544803 C13.7987406,47.5328929 13.8206549,47.4919512 13.8463476,47.4323997 C13.893199,47.3177631 13.9559194,47.2611892 14.0360202,47.2611892 L14.2914358,47.2611892 L14.2914358,49.0015818 L14.0579345,49.0015818 C13.9559194,49.0015818 13.8879093,48.9405415 13.8516373,48.8154834 C13.8342569,48.748488 13.8138539,48.6948916 13.7919395,48.6554387 C13.7088161,48.5087932 13.602267,48.4075556 13.4722922,48.3532149 C13.3415617,48.2981297 13.1450882,48.2705871 12.8806045,48.2705871 L11.7032746,48.2705871 L11.7032746,50.7181539 C11.7032746,50.945194 11.7297229,51.113427 11.7826196,51.2198753 C11.8347607,51.327068 11.9639798,51.4268168 12.1695214,51.519866 L12.1808564,51.5243324 C12.2964736,51.5823951 12.3546599,51.659812 12.3546599,51.7588164 L12.3546599,52 L10,52 L10,51.7588164 C10.0037783,51.659812 10.0634761,51.5823951 10.1790932,51.5243324 L10.1896725,51.519866 C10.3891688,51.4268168 10.5146096,51.3285568 10.5675063,51.2228529 C10.6196474,51.1178934 10.6453401,50.9496604 10.6453401,50.7181539 L10.6453401,45.3681958 C10.6453401,45.1411557 10.6196474,44.9759003 10.5675063,44.8716851 C10.5146096,44.7689588 10.3906801,44.6721876 10.1957179,44.5836047 C10.1156171,44.5441519 10.0634761,44.5069322 10.038539,44.4704569 C10.0128463,44.4354704 10,44.3885736 10,44.3275333 L10,44.09826 L15.0992443,44.09826 C15.2261965,44.09826 15.3652393,44.0885829 15.5171285,44.073695 C15.6690176,44.0565739 15.8299748,44.0334977 16,44 L16,45.5669489 L15.7884131,45.5669489 C15.6576826,45.5669489 15.5677582,45.4932539 15.5171285,45.3473527 C15.4884131,45.268447 15.4612091,45.2059179 15.4355164,45.1605099 C15.3123426,44.9438913 15.1521411,44.7912906 14.9526448,44.7064297 C14.7531486,44.62008 14.4176322,44.5776496 13.9438287,44.5776496 L11.7032746,44.5776496 L11.7032746,47.7897088" id="Fill-10" fill="#FFFFFF"></path>
                <path d="M20.2857143,47.4285714 L21.2575184,47.4285714 C22.1399194,47.4285714 22.7722826,47.2891204 23.1480663,47.009417 C23.5267573,46.7305149 23.7142857,46.2696854 23.7142857,45.6285314 C23.7142857,45.3095572 23.6575911,45.0322581 23.5412944,44.7958325 C23.4279051,44.5570026 23.2607287,44.3662593 23.0404918,44.2252054 C22.9125655,44.1442597 22.7330325,44.0865558 22.5040734,44.0520938 C22.2743875,44.0176317 21.9073261,44 21.4065235,44 L20.2857143,44 L20.2857143,47.4285714 Z M19.7434707,50.7022138 C19.7434707,50.9320772 19.7721029,51.1024023 19.826272,51.2101743 C19.8796672,51.3187 20.0096731,51.4196891 20.2224802,51.5138954 L20.2317663,51.5184173 C20.352486,51.5772021 20.4097504,51.6555817 20.4097504,51.7558172 L20.4097504,52 L18,52 L18,51.7558172 C18.0038692,51.6555817 18.0650029,51.5772021 18.183401,51.5184173 L18.1942349,51.5138954 C18.3985297,51.4196891 18.5269878,51.3202073 18.5819307,51.2131889 C18.6337783,51.1069242 18.6608628,50.9365992 18.6608628,50.7022138 L18.6608628,45.2857277 C18.6608628,45.0558643 18.6337783,44.8885539 18.5819307,44.7830429 C18.5269878,44.6790391 18.4000774,44.5810645 18.1996518,44.4913801 C18.1183981,44.4514366 18.0650029,44.4137541 18.0386922,44.3768252 C18.0123815,44.3414037 18,44.2939237 18,44.2321244 L18,44 L21.1557361,44 C22.4480557,44 23.3495841,44.1560057 23.8634165,44.4695243 C24.3749275,44.7830429 24.6318437,45.3136128 24.6318437,46.0604805 C24.6318437,46.5797456 24.4855872,46.9942534 24.1907526,47.3047574 C23.8951441,47.6152614 23.4602438,47.8164861 22.8829561,47.9106924 L24.9142968,50.8815827 C25.0249565,51.0421102 25.1332946,51.1657089 25.2346682,51.2508714 C25.3368156,51.3360339 25.498549,51.4159209 25.7144515,51.4920396 C25.7299284,51.4943005 25.7523699,51.5025907 25.7771329,51.5138954 C25.9241633,51.5598681 26,51.6307113 26,51.7249176 L26,52 L24.2921261,52 L22.5780615,49.4097033 C22.4000774,49.1383891 22.238344,48.9183231 22.0951828,48.7464908 C21.9527955,48.5746585 21.8289805,48.4540744 21.7206423,48.3862459 C21.6068872,48.319171 21.473786,48.2671691 21.3213388,48.2347621 C21.1681176,48.2023552 20.9684659,48.1857748 20.7208358,48.1857748 L19.7434707,48.1857748 L19.7434707,50.7022138 L19.7434707,50.7022138 Z" id="Fill-11" fill="#FFFFFF"></path>
                <path d="M31.9967113,44 C31.102187,44 30.4020609,44.3015058 29.8985256,44.9059262 C29.3949902,45.5096422 29.1428571,46.3500543 29.1428571,47.4299803 C29.1428571,48.5106108 29.3949902,49.3524318 29.8970639,49.9554434 C30.3991376,50.5563415 31.0992637,50.8571429 31.9967113,50.8571429 C32.8992747,50.8571429 33.602324,50.5563415 34.1043977,49.9554434 C34.6064714,49.3524318 34.8571429,48.5106108 34.8571429,47.4299803 C34.8571429,46.3500543 34.6050098,45.5096422 34.1014744,44.9059262 C33.5979391,44.3015058 32.8963514,44 31.9967113,44 Z M28,48.0003647 C28,47.398669 28.1083932,46.840733 28.3280895,46.325098 C28.5470583,45.807275 28.8620533,45.3645729 29.2738019,44.9940742 C29.638265,44.6629592 30.0485587,44.4149877 30.5032282,44.2487009 C30.9571701,44.0831434 31.4554879,44 31.9981813,44 C32.5459671,44 33.0457397,44.0831434 33.5004092,44.2487009 C33.9543512,44.4149877 34.3646449,44.6629592 34.7305629,44.9940742 C35.1372192,45.3645729 35.4507593,45.807275 35.6704556,46.325098 C35.8894244,46.840733 36,47.398669 36,48.0003647 C36,48.5954964 35.8908793,49.1519737 35.6733655,49.6668794 C35.4551241,50.1810557 35.1408566,50.6252165 34.7305629,50.9993618 C34.3646449,51.3312061 33.9543512,51.5813657 33.5004092,51.7483818 C33.0457397,51.9161273 32.5459671,52 31.9981813,52 C31.4554879,52 30.9571701,51.9161273 30.5032282,51.7483818 C30.0485587,51.5813657 29.638265,51.3312061 29.2738019,50.9993618 C28.8620533,50.6252165 28.5470583,50.1810557 28.3280895,49.6668794 C28.1083932,49.1519737 28,48.5954964 28,48.0003647 L28,48.0003647 Z" id="Fill-12" fill="#FFFFFF"></path>
                <path d="M39.3598742,50.7022138 C39.3598742,50.9365992 39.3921536,51.1054169 39.4542294,51.2101743 C39.519616,51.3156854 39.6768747,51.4159209 39.930144,51.5138954 C40.0244993,51.549317 40.0882304,51.5847386 40.1180268,51.6186528 C40.1469955,51.6525671 40.1627214,51.6992935 40.1627214,51.7558172 L40.1627214,52 L38,52 L38,51.7558172 C38,51.6992935 38.0132428,51.6540744 38.0389008,51.6216675 C38.0645588,51.5892605 38.1291177,51.5538389 38.2325774,51.5138954 C38.480053,51.4196891 38.6381394,51.3202073 38.7043536,51.2131889 C38.7689124,51.1069242 38.8028472,50.9365992 38.8028472,50.7022138 L38.8028472,45.2857277 C38.8028472,45.0596326 38.7722231,44.8938295 38.7126304,44.7883184 C38.6530376,44.6843146 38.510677,44.5848328 38.2847211,44.4853509 C38.2019533,44.4469147 38.1473266,44.4092322 38.1224963,44.3753179 C38.0968383,44.3414037 38.0827678,44.2939237 38.0827678,44.2321244 L38.0827678,44 L40.2521106,44 L43.0140705,50.5070184 L45.8372786,44 L48,44 L48,44.2321244 C48,44.2939237 47.9867572,44.3414037 47.9610992,44.3768252 C47.9354412,44.4137541 47.8816421,44.4499293 47.7963913,44.4853509 C47.5754014,44.5795572 47.4363516,44.6790391 47.3792418,44.7830429 C47.3213044,44.8885539 47.2923357,45.0558643 47.2923357,45.2857277 L47.2923357,50.7022138 C47.2923357,50.9365992 47.3213044,51.1069242 47.3792418,51.2131889 C47.4363516,51.3202073 47.5737461,51.4196891 47.7914253,51.5138954 L47.8030127,51.5184173 C47.9337858,51.5772021 48,51.6555817 48,51.7558172 L48,52 L45.4673067,52 L45.4673067,51.7558172 C45.4673067,51.6601036 45.5335209,51.5802167 45.664294,51.5184173 L45.6758815,51.5138954 C45.8935607,51.4196891 46.0309551,51.3202073 46.0888926,51.2131889 C46.1460023,51.1069242 46.174971,50.9365992 46.174971,50.7022138 L46.174971,44.588601 L42.9958616,52 L42.4967721,52 L39.3598742,44.588601 L39.3598742,50.7022138" id="Fill-13" fill="#FFFFFF"></path>
                <path d="M58.2,52 L59.7914729,52 C60.4844961,52 60.9937984,51.8552978 61.3162791,51.5651028 C61.6387597,51.2764892 61.8,50.8226147 61.8,50.2058513 C61.8,49.6302056 61.6147287,49.2150764 61.2426357,48.957301 C60.8728682,48.6995256 60.2682171,48.5714286 59.4302326,48.5714286 L58.2,48.5714286 L58.2,52 Z M58.2,47.4285714 L59.5675214,47.4285714 C60.3205128,47.4285714 60.8820513,47.283313 61.2504274,46.9904279 C61.6188034,46.6975428 61.8,46.2538732 61.8,45.660998 C61.8,45.0681228 61.6076923,44.6426104 61.2188034,44.3852505 C60.8299145,44.1294694 60.1717949,44 59.242735,44 L58.2,44 L58.2,47.4285714 Z M57,52 L57,51.7558172 C57.0028774,51.6555817 57.0604244,51.5772021 57.1697638,51.5184173 L57.1812732,51.5138954 C57.3704592,51.4196891 57.4898693,51.3202073 57.540223,51.2131889 C57.5898573,51.1069242 57.6150342,50.9365992 57.6150342,50.7022138 L57.6150342,45.2857277 C57.6150342,45.0558643 57.5898573,44.8885539 57.540223,44.7830429 C57.4898693,44.6790391 57.3718979,44.5810645 57.1855893,44.4913801 C57.1107781,44.4514366 57.0604244,44.4137541 57.0366862,44.3768252 C57.0115094,44.3414037 57,44.2939237 57,44.2321244 L57,44 L59.7838389,44 C60.7060305,44 61.4081045,44.170325 61.8922192,44.513236 C62.3763338,44.856147 62.6180314,45.3535563 62.6180314,46.0062176 C62.6180314,46.5292511 62.4748831,46.952049 62.1885865,47.275365 C61.9037286,47.5986811 61.468529,47.8300518 60.8829877,47.9694772 C61.6131159,48.0342911 62.1475842,48.224211 62.4899892,48.5384833 C62.8287975,48.8520019 63,49.3079604 63,49.9078662 C63,50.5921809 62.759741,51.1121997 62.2777844,51.4671691 C61.7951085,51.8228921 61.0908764,52 60.1643688,52 L57,52 L57,52 Z" id="Fill-14" fill="#FFFFFF"></path>
                <path d="M70.9970763,44 C70.1024376,44 69.402222,44.3015058 68.8986222,44.9059262 C68.3950225,45.5096422 68.1428571,46.3500543 68.1428571,47.4299803 C68.1428571,48.5106108 68.3950225,49.3524318 68.8971604,49.9554434 C69.3992983,50.5563415 70.0995139,50.8571429 70.9970763,50.8571429 C71.8997551,50.8571429 72.6028944,50.5563415 73.1050323,49.9554434 C73.6071703,49.3524318 73.8571429,48.5106108 73.8571429,47.4299803 C73.8571429,46.3500543 73.6057084,45.5096422 73.1021087,44.9059262 C72.5985089,44.3015058 71.8968315,44 70.9970763,44 Z M67,48.0003647 C67,47.398669 67.1083932,46.840733 67.3280895,46.325098 C67.5470583,45.807275 67.8620533,45.3645729 68.2738019,44.9940742 C68.638265,44.6629592 69.0485587,44.4149877 69.5032282,44.2487009 C69.9571701,44.0831434 70.4554879,44 70.9981813,44 C71.5459671,44 72.0457397,44.0831434 72.5011367,44.2487009 C72.9543512,44.4149877 73.3646449,44.6629592 73.7305629,44.9940742 C74.1379467,45.3645729 74.4507593,45.807275 74.6704556,46.325098 C74.8894244,46.840733 75,47.398669 75,48.0003647 C75,48.5954964 74.8908793,49.1519737 74.6733655,49.6668794 C74.4551241,50.1810557 74.1408566,50.6252165 73.7305629,50.9993618 C73.3646449,51.3312061 72.9543512,51.5813657 72.5011367,51.7483818 C72.0457397,51.9161273 71.5459671,52 70.9981813,52 C70.4554879,52 69.9571701,51.9161273 69.5032282,51.7483818 C69.0485587,51.5813657 68.638265,51.3312061 68.2738019,50.9993618 C67.8620533,50.6252165 67.5470583,50.1810557 67.3280895,49.6668794 C67.1083932,49.1519737 67,48.5954964 67,48.0003647 L67,48.0003647 Z" id="Fill-15" fill="#FFFFFF"></path>
                <path d="M79.3597616,50.7022138 C79.3597616,50.9365992 79.3920384,51.1054169 79.4549367,51.2101743 C79.5194902,51.3156854 79.6775635,51.4159209 79.9299843,51.5138954 C80.0251593,51.549317 80.0880576,51.5847386 80.1186791,51.6186528 C80.1468178,51.6525671 80.1625424,51.6992935 80.1625424,51.7558172 L80.1625424,52 L78,52 L78,51.7558172 C78,51.6992935 78.0132417,51.6540744 78.0388976,51.6216675 C78.0645535,51.5892605 78.129107,51.5538389 78.2325581,51.5138954 C78.4800132,51.4196891 78.6380866,51.3202073 78.7042953,51.2131889 C78.7688488,51.1069242 78.8027808,50.9365992 78.8027808,50.7022138 L78.8027808,45.2857277 C78.8027808,45.0596326 78.7721592,44.8938295 78.713399,44.7883184 C78.6538111,44.6843146 78.5106348,44.5848328 78.2846975,44.4853509 C78.2019366,44.4469147 78.1473144,44.4092322 78.1224861,44.3753179 C78.0968303,44.3414037 78.0827609,44.2939237 78.0827609,44.2321244 L78.0827609,44 L80.2527518,44 L83.0144832,50.5070184 L85.83663,44 L88,44 L88,44.2321244 C88,44.2939237 87.985103,44.3414037 87.9611024,44.3768252 C87.9354465,44.4137541 87.8799967,44.4499293 87.7964082,44.4853509 C87.574609,44.5795572 87.4355706,44.6790391 87.3784656,44.7830429 C87.320533,44.8885539 87.2915667,45.0558643 87.2915667,45.2857277 L87.2915667,50.7022138 C87.2915667,50.9365992 87.320533,51.1069242 87.3784656,51.2131889 C87.4355706,51.3202073 87.5729537,51.4196891 87.7914425,51.5138954 L87.8022014,51.5184173 C87.9337913,51.5772021 88,51.6555817 88,51.7558172 L88,52 L85.4666887,52 L85.4666887,51.7558172 C85.4666887,51.6601036 85.5328975,51.5802167 85.6636597,51.5184173 L85.6752462,51.5138954 C85.8929074,51.4196891 86.0311181,51.3202073 86.0873955,51.2131889 C86.1453281,51.1069242 86.1751221,50.9365992 86.1751221,50.7022138 L86.1751221,44.588601 L82.9954482,52 L82.4955723,52 L79.3597616,44.588601 L79.3597616,50.7022138" id="Fill-16" fill="#FFFFFF"></path>
                <path d="M92.2,52 L93.7918156,52 C94.4849882,52 94.9936248,51.8552978 95.3161749,51.5651028 C95.638725,51.2764892 95.8,50.8226147 95.8,50.2058513 C95.8,49.6302056 95.6162395,49.2150764 95.2440663,48.957301 C94.8726685,48.6995256 94.2686625,48.5714286 93.4312729,48.5714286 L92.2,48.5714286 L92.2,52 Z M92.2,47.4285714 L93.5663423,47.4285714 C94.320864,47.4285714 94.8814147,47.283313 95.2488488,46.9904279 C95.6179919,46.6975428 95.8,46.2538732 95.8,45.660998 C95.8,45.0681228 95.6068835,44.6426104 95.2172324,44.3852505 C94.8284358,44.1294694 94.1704723,44 93.243342,44 L92.2,44 L92.2,47.4285714 Z M91,52 L91,51.7558172 C91.002877,51.6555817 91.0604172,51.5772021 91.1697435,51.5184173 L91.1812515,51.5138954 C91.3704148,51.4196891 91.4898106,51.3202073 91.539439,51.2131889 C91.5897866,51.1069242 91.6149604,50.9365992 91.6149604,50.7022138 L91.6149604,45.2857277 C91.6149604,45.0558643 91.5897866,44.8885539 91.539439,44.7830429 C91.4898106,44.6790391 91.3718533,44.5810645 91.185567,44.4913801 C91.1107648,44.4514366 91.0604172,44.4137541 91.0366819,44.3768252 C91.011508,44.3414037 91,44.2939237 91,44.2321244 L91,44 L93.7835052,44 C94.7055862,44 95.4082954,44.170325 95.8916327,44.513236 C96.3756893,44.856147 96.6173579,45.3535563 96.6173579,46.0062176 C96.6173579,46.5292511 96.4742268,46.952049 96.1879645,47.275365 C95.9031407,47.5986811 95.4687125,47.8300518 94.8825222,47.9694772 C95.6125629,48.0342911 96.1469672,48.224211 96.4886118,48.5384833 C96.8280988,48.8520019 97,49.3079604 97,49.9078662 C97,50.5921809 96.7590506,51.1121997 96.2764325,51.4671691 C95.7945337,51.8228921 95.090386,52 94.1639895,52 L91,52 L91,52 Z" id="Fill-17" fill="#FFFFFF"></path>
                <path d="M101.285714,48.5714286 L104.714286,48.5714286 L103.048402,45.1428571 L101.285714,48.5714286 Z M100.906908,49.7050683 L100.453411,50.7520851 C100.423594,50.8232059 100.400711,50.8921272 100.386842,50.9610485 C100.370894,51.0292366 100.363959,51.095225 100.363959,51.1582806 C100.363959,51.2946568 100.437462,51.40977 100.588628,51.502887 C100.736327,51.596004 100.81191,51.6788562 100.81191,51.7536431 L100.81191,52 L99,52 L99,51.7837045 C99,51.6722574 99.0568605,51.5916048 99.1691948,51.5432133 C99.228829,51.5175511 99.2773685,51.4955549 99.3141198,51.474292 C99.4424027,51.3929062 99.5699922,51.2623957 99.6934212,51.0798277 C99.8196238,50.8965264 99.9714831,50.6113097 100.149692,50.2219778 L102.563491,44.9964256 L102.36448,44.6320227 C102.347837,44.607827 102.336049,44.5850976 102.329115,44.5660343 C102.323568,44.5462377 102.320794,44.5249748 102.320794,44.4993126 C102.320794,44.4274585 102.387362,44.3658693 102.523966,44.3160114 C102.573893,44.2976812 102.610644,44.2844835 102.633527,44.2734855 C102.693161,44.2456237 102.770824,44.1928329 102.86513,44.1158464 C102.958741,44.0395931 103.033631,44 103.086331,44 C103.110601,44 103.129323,44.0080653 103.145965,44.0241958 C103.162607,44.0395931 103.182023,44.0784529 103.205599,44.1422418 L106.032677,50.4067455 L106.047933,50.4485382 C106.309353,51.0197049 106.562451,51.3797086 106.805149,51.5270828 C106.814857,51.5300156 106.824564,51.5358812 106.834966,51.5432133 C106.944526,51.6062689 107,51.6832554 107,51.7749061 L107,52 L104.730433,52 L104.730433,51.7536431 C104.730433,51.6788562 104.803242,51.596004 104.953021,51.502887 C105.1028,51.40977 105.176302,51.2946568 105.176302,51.1582806 C105.176302,51.1025571 105.167981,51.0395014 105.149259,50.9691137 C105.13123,50.8979929 105.105573,50.8246723 105.072983,50.7476858 L104.645142,49.7050683 L100.906908,49.7050683 L100.906908,49.7050683 Z" id="Fill-18" fill="#FFFFFF"></path>
                <path d="M110.39153,45.5736222 L110.332095,45.5020254 C110.062407,45.1425341 109.869985,44.9081488 109.756315,44.8011305 C109.656761,44.7061705 109.495542,44.6134715 109.271174,44.5237871 C109.236256,44.5102214 109.208767,44.4989166 109.192422,44.4913801 C109.115899,44.4559585 109.067608,44.4190297 109.043091,44.3828545 C109.016345,44.3474329 109.002972,44.2969383 109,44.2321244 L109,44 L111.538633,44 L111.538633,44.2095148 C111.538633,44.3037211 111.477712,44.3813472 111.355869,44.4446538 C111.235513,44.5087141 111.176077,44.588601 111.176077,44.685822 C111.176077,44.7476213 111.193908,44.8139425 111.234027,44.8870466 C111.274146,44.9586434 111.34844,45.0664154 111.458395,45.21187 L113.30312,47.6574659 L115.138187,45.319642 C115.273403,45.1500707 115.364785,45.0219501 115.415305,44.9345266 C115.465082,44.8486105 115.489599,44.7732454 115.489599,44.7084315 C115.489599,44.6428639 115.471768,44.5916156 115.436107,44.5561941 C115.401189,44.5207725 115.308321,44.4793217 115.15899,44.4325954 C115.127043,44.420537 115.103269,44.403203 115.086924,44.3768252 C115.070579,44.3519548 115.06315,44.2999529 115.06315,44.2208196 L115.06315,44 L117,44 L117,44.1665568 C117,44.3150259 116.917533,44.4288271 116.753343,44.513236 C116.68945,44.545643 116.636701,44.5750353 116.595097,44.5991521 C116.473254,44.6647197 116.338782,44.7664626 116.18945,44.9051342 C116.040119,45.0445596 115.88633,45.21187 115.729569,45.4063118 L113.446508,48.2671691 L113.446508,50.7022138 C113.446508,50.9365992 113.481426,51.1069242 113.548291,51.2146962 C113.615899,51.3232219 113.775632,51.424211 114.028975,51.5138954 C114.127043,51.5538389 114.191679,51.5892605 114.220654,51.6216675 C114.248886,51.6540744 114.264487,51.6992935 114.269688,51.7558172 L114.269688,52 L111.590639,52 L111.590639,51.7558172 C111.590639,51.6992935 111.606241,51.6525671 111.632987,51.6186528 C111.661961,51.5847386 111.724368,51.549317 111.820951,51.5138954 C112.076523,51.424211 112.237741,51.3232219 112.306835,51.2131889 C112.3737,51.1039096 112.407132,50.9320772 112.407132,50.7022138 L112.407132,48.2671691 L110.39153,45.5736222" id="Fill-19" fill="#FFFFFF"></path>
                <path d="M128.940821,44.7534714 L129.455748,46.2857143 L130.027728,44.7763997 C130.060642,44.6973366 130.081122,44.627761 130.093557,44.5684637 C130.10526,44.509957 130.111111,44.4569847 130.111111,44.4079656 C130.111111,44.2640708 130.063568,44.1604981 129.964825,44.0956664 C129.866813,44.0308346 129.708092,44 129.4872,44 C129.287519,44 129.137576,44.0355784 129.038832,44.1098977 C128.937895,44.1826358 128.888889,44.2949054 128.888889,44.4403815 C128.888889,44.4909819 128.893277,44.5423729 128.902786,44.5985077 C128.910832,44.6530612 128.923266,44.7044522 128.940821,44.7534714 Z M128.394552,45.3673488 C128.376393,45.3217456 128.355207,45.2604429 128.329481,45.184936 C128.218256,44.8559948 128.017747,44.6219979 127.731738,44.4814503 C127.659857,44.4463134 127.611432,44.4104289 127.58495,44.3737968 C127.559981,44.3386599 127.547118,44.2915615 127.547118,44.2302589 L127.547118,44 L131.908378,44 L131.908378,44.2302589 C131.908378,44.2915615 131.895515,44.3401551 131.86752,44.3767872 C131.841794,44.4156621 131.794126,44.450799 131.725272,44.4814503 C131.402187,44.6175124 131.144931,44.9075787 130.951988,45.352397 C130.927775,45.4122045 130.909616,45.4548173 130.89978,45.4809831 L130.148439,47.1555929 L131.387055,50.4547239 L133.407277,45.5288291 C133.485211,45.3464162 133.537419,45.2006355 133.571468,45.0914868 C133.60249,44.9830857 133.620649,44.9008504 133.620649,44.846276 C133.620649,44.6960097 133.5238,44.5808803 133.333127,44.4978974 C133.320264,44.494907 133.308158,44.4889263 133.294538,44.4814503 C133.225684,44.450799 133.178016,44.4156621 133.150021,44.3767872 C133.122782,44.3401551 133.109919,44.2915615 133.109919,44.2302589 L133.109919,44 L135,44 L135,44.2302589 C135,44.3334268 134.945522,44.4141669 134.836566,44.4717316 C134.829,44.4754696 134.822947,44.47846 134.81538,44.4814503 C134.633787,44.5748995 134.476407,44.7042332 134.341725,44.8657135 C134.208557,45.0286889 134.090521,45.2350248 133.989132,45.4854686 L131.317444,52 L130.964851,52 L129.574151,48.4429493 L127.960242,52 L127.602352,52 L124.955634,45.3613681 C124.862567,45.1251285 124.758908,44.9442108 124.646925,44.8156247 C124.5357,44.686291 124.382102,44.5748995 124.186133,44.4814503 C124.108199,44.4463134 124.059018,44.4104289 124.036319,44.3737968 C124.012106,44.3386599 124,44.2915615 124,44.2302589 L124,44 L126.402325,44 L126.402325,44.2302589 C126.402325,44.3334268 126.319851,44.4253808 126.157174,44.5061209 C125.994497,44.586861 125.912024,44.6930193 125.912024,44.8253434 C125.912024,44.8672087 125.9264,44.9315017 125.950612,45.0167274 C125.975581,45.1012055 126.012656,45.2021306 126.058811,45.3187553 L128.097194,50.5406971 L129.339593,47.8037567 L128.394552,45.3673488 L128.394552,45.3673488 Z" id="Fill-20" fill="#FFFFFF"></path>
                <path d="M139.447191,50.7022138 C139.447191,50.9320772 139.469663,51.1024023 139.513965,51.2101743 C139.558909,51.3187 139.668058,51.4196891 139.843339,51.5138954 L139.85297,51.5184173 C139.951204,51.5772021 140,51.6555817 140,51.7558172 L140,52 L138,52 L138,51.7558172 C138.002568,51.6555817 138.053933,51.5772021 138.150883,51.5184173 L138.161798,51.5138954 C138.330016,51.4196891 138.437239,51.3202073 138.481541,51.2131889 C138.526485,51.1069242 138.548957,50.9365992 138.548957,50.7022138 L138.548957,45.2857277 C138.548957,45.0558643 138.526485,44.8885539 138.481541,44.7830429 C138.437239,44.6790391 138.3313,44.5810645 138.16565,44.4913801 C138.098234,44.4514366 138.053933,44.4137541 138.032745,44.3768252 C138.010273,44.3414037 138,44.2939237 138,44.2321244 L138,44 L140,44 L140,44.2321244 C140,44.2939237 139.990369,44.3414037 139.972392,44.3753179 C139.953772,44.4092322 139.908828,44.448422 139.839486,44.4913801 C139.667416,44.5855864 139.558909,44.6843146 139.513965,44.7883184 C139.469663,44.8938295 139.447191,45.0596326 139.447191,45.2857277 L139.447191,50.7022138" id="Fill-21" fill="#FFFFFF"></path>
                <path d="M144.891911,44.5852389 C144.518868,44.5852389 144.245584,44.6172151 144.069952,44.6796802 C143.895725,44.7421454 143.734845,44.8484848 143.590827,45.0024168 C143.527599,45.0700874 143.462264,45.1600669 143.399037,45.2738427 C143.328784,45.4054657 143.240967,45.4723926 143.136993,45.4723926 L143,45.4723926 L143,44 C143.101164,44.0342071 143.216379,44.0609779 143.342834,44.0788251 C143.471397,44.0966722 143.625953,44.1063395 143.807206,44.1063395 L149.198414,44.1063395 C149.377559,44.1063395 149.530008,44.0966722 149.657166,44.0788251 C149.785026,44.0609779 149.898836,44.0342071 150,44 L150,45.4723926 L149.858792,45.4723926 C149.754817,45.4723926 149.671216,45.4114148 149.607989,45.289459 C149.543356,45.1689905 149.480128,45.0730619 149.414793,45.0024168 C149.270775,44.8536903 149.106383,44.7466072 148.923725,44.6833984 C148.740365,44.6187024 148.466379,44.5852389 148.103874,44.5852389 L146.985448,44.5852389 L146.985448,50.7194646 C146.985448,50.9462725 147.017764,51.1158208 147.083802,51.2236475 C147.148434,51.3322179 147.302288,51.4318647 147.544661,51.5203569 C147.63599,51.5553077 147.695002,51.5902584 147.720996,51.6237219 C147.747692,51.6571854 147.760337,51.7032906 147.760337,51.759063 L147.760337,52 L145.23053,52 L145.23053,51.759063 C145.234043,51.7032906 145.248093,51.6586726 145.275492,51.6266964 C145.302188,51.5947202 145.363308,51.5597695 145.456744,51.5203569 C145.696307,51.4318647 145.84735,51.3322179 145.911281,51.2251348 C145.974508,51.1187953 146.00542,50.9507343 146.00542,50.7194646 L146.00542,44.5852389 L144.891911,44.5852389" id="Fill-22" fill="#FFFFFF"></path>
                <path d="M154.68918,50.7022138 C154.68918,50.9320772 154.71541,51.1024023 154.767119,51.2101743 C154.819578,51.3187 154.946979,51.4196891 155.151569,51.5138954 L155.162061,51.5184173 C155.27822,51.5772021 155.334426,51.6555817 155.334426,51.7558172 L155.334426,52 L153,52 L153,51.7558172 C153.002998,51.6555817 153.062951,51.5772021 153.176862,51.5184173 L153.188852,51.5138954 C153.385199,51.4196891 153.509602,51.3202073 153.56281,51.2131889 C153.61452,51.1069242 153.640749,50.9365992 153.640749,50.7022138 L153.640749,45.2857277 C153.640749,45.0558643 153.61452,44.8885539 153.56281,44.7830429 C153.509602,44.6790391 153.386698,44.5810645 153.193349,44.4913801 C153.11541,44.4514366 153.062951,44.4137541 153.03822,44.3768252 C153.011991,44.3414037 153,44.2939237 153,44.2321244 L153,44 L155.334426,44 L155.334426,44.2321244 C155.334426,44.2939237 155.323934,44.3414037 155.302201,44.3753179 C155.281218,44.4092322 155.228009,44.448422 155.147073,44.4913801 C154.94548,44.5855864 154.819578,44.6843146 154.767119,44.7883184 C154.71541,44.8938295 154.68918,45.0596326 154.68918,45.2857277 L154.68918,47.6348563 L159.304824,47.6348563 L159.304824,45.2857277 C159.304824,45.0558643 159.278595,44.8885539 159.226136,44.7830429 C159.174426,44.6790391 159.047775,44.5795572 158.847681,44.4853509 C158.771241,44.4469147 158.72178,44.4092322 158.699297,44.3753179 C158.676066,44.3414037 158.663326,44.2939237 158.663326,44.2321244 L158.663326,44 L161,44 L161,44.2321244 C161,44.2939237 160.988009,44.3414037 160.964778,44.3768252 C160.941546,44.4137541 160.892834,44.4499293 160.815644,44.4853509 C160.612553,44.5848328 160.483653,44.6843146 160.428197,44.7883184 C160.375738,44.8938295 160.348009,45.0596326 160.348009,45.2857277 L160.348009,50.7022138 C160.348009,50.9320772 160.375738,51.1024023 160.428197,51.2101743 C160.483653,51.3187 160.609555,51.4196891 160.810398,51.5138954 L160.821639,51.5184173 C160.940047,51.5802167 161,51.6601036 161,51.7558172 L161,52 L158.663326,52 L158.663326,51.7558172 C158.663326,51.6601036 158.723279,51.5802167 158.842436,51.5184173 L158.852927,51.5138954 C159.050023,51.4196891 159.174426,51.3202073 159.226136,51.2131889 C159.278595,51.1069242 159.304824,50.9365992 159.304824,50.7022138 L159.304824,48.1548752 L154.68918,48.1548752 L154.68918,50.7022138" id="Fill-23" fill="#FFFFFF"></path>
                <path d="M170.69755,45.2857277 C170.69755,45.0558643 170.669778,44.8885539 170.612602,44.7830429 C170.555426,44.6790391 170.42147,44.5810645 170.209918,44.4913801 C170.124971,44.4514366 170.068611,44.4137541 170.04084,44.3768252 C170.012252,44.3414037 170,44.2939237 170,44.2321244 L170,44 L172.544341,44 L172.544341,44.2321244 C172.544341,44.2939237 172.532089,44.3414037 172.509218,44.3753179 C172.485531,44.4092322 172.428355,44.448422 172.34014,44.4913801 C172.119603,44.5855864 171.98238,44.6843146 171.926021,44.7883184 C171.868845,44.8938295 171.841074,45.0596326 171.841074,45.2857277 L171.841074,51.5138954 L174.525904,51.5138954 C175.021704,51.5138954 175.412135,51.4536034 175.694749,51.3360339 C175.97818,51.2146962 176.191365,51.0247763 176.331855,50.7609986 C176.378413,50.6713142 176.424154,50.5529911 176.467445,50.4097975 C176.521354,50.2372115 176.588331,50.149788 176.665111,50.149788 L177,50.149788 L177,52 L170,52 L170,51.7558172 C170.003267,51.6555817 170.068611,51.5772021 170.191949,51.5184173 L170.205834,51.5138954 C170.419837,51.4196891 170.555426,51.3202073 170.612602,51.2131889 C170.669778,51.1069242 170.69755,50.9365992 170.69755,50.7022138 L170.69755,45.2857277" id="Fill-24" fill="#FFFFFF"></path>
                <path d="M183.997076,44 C183.101707,44 182.401491,44.3015058 181.898622,44.9059262 C181.394292,45.5096422 181.142857,46.3500543 181.142857,47.4299803 C181.142857,48.5106108 181.394292,49.3524318 181.89716,49.9554434 C182.398567,50.5563415 183.098783,50.8571429 183.997076,50.8571429 C184.899024,50.8571429 185.602164,50.5563415 186.105032,49.9554434 C186.606439,49.3524318 186.857143,48.5106108 186.857143,47.4299803 C186.857143,46.3500543 186.604978,45.5096422 186.102109,44.9059262 C185.597778,44.3015058 184.896101,44 183.997076,44 Z M180,48.0003647 C180,47.398669 180.108393,46.840733 180.328089,46.325098 C180.547058,45.807275 180.861326,45.3645729 181.273802,44.9940742 C181.638265,44.6629592 182.047831,44.4149877 182.503228,44.2487009 C182.956443,44.0831434 183.455488,44 183.998181,44 C184.545967,44 185.045012,44.0831434 185.500409,44.2487009 C185.953624,44.4149877 186.364645,44.6629592 186.730563,44.9940742 C187.137219,45.3645729 187.450759,45.807275 187.670456,46.325098 C187.889424,46.840733 188,47.398669 188,48.0003647 C188,48.5954964 187.890152,49.1519737 187.673365,49.6668794 C187.455124,50.1810557 187.140129,50.6252165 186.730563,50.9993618 C186.364645,51.3312061 185.953624,51.5813657 185.500409,51.7483818 C185.045012,51.9161273 184.545967,52 183.998181,52 C183.455488,52 182.956443,51.9161273 182.503228,51.7483818 C182.047831,51.5813657 181.638265,51.3312061 181.273802,50.9993618 C180.861326,50.6252165 180.547058,50.1810557 180.328089,49.6668794 C180.108393,49.1519737 180,48.5954964 180,48.0003647 L180,48.0003647 Z" id="Fill-25" fill="#FFFFFF"></path>
                <path d="M193.740595,52 L190.893777,45.3613681 C190.772977,45.0787777 190.664746,44.8844033 190.56699,44.7767498 C190.469931,44.6698439 190.337959,44.5719092 190.171773,44.4814503 C190.104739,44.4463134 190.058654,44.4104289 190.03631,44.3737968 C190.012569,44.3386599 190,44.2915615 190,44.2302589 L190,44 L192.27145,44 L192.27145,44.2302589 C192.27145,44.3334268 192.198132,44.4253808 192.050799,44.5061209 C191.903465,44.586861 191.830148,44.6930193 191.830148,44.8253434 C191.830148,44.8829081 191.84132,44.9561723 191.863664,45.0481263 C191.884612,45.1393328 191.913241,45.2297916 191.950947,45.3187553 L194.210526,50.6162041 L196.531553,45.5288291 C196.595095,45.3815531 196.648163,45.2477339 196.687964,45.1251285 C196.728463,45.0040183 196.748713,44.9150547 196.748713,44.8589851 C196.748713,44.7722643 196.728463,44.7027381 196.68936,44.6481637 C196.650956,44.594337 196.569259,44.5412578 196.441477,44.4874311 C196.371651,44.4522942 196.324169,44.4156621 196.301126,44.3797776 C196.278782,44.3446407 196.264118,44.2945519 196.261325,44.2302589 L196.261325,44 L198,44 L198,44.2302589 C198,44.3334268 197.948329,44.4141669 197.844986,44.4717316 C197.838003,44.4754696 197.832417,44.47846 197.825434,44.4814503 C197.557301,44.6317167 197.311513,44.9524344 197.083181,45.4428558 L197.063629,45.4854686 L194.065986,52 L193.740595,52" id="Fill-26" fill="#FFFFFF"></path>
                <path d="M202,52 L202,51.7588164 C202.004084,51.659812 202.068603,51.5823951 202.192743,51.5243324 L202.206627,51.519866 C202.419788,51.4268168 202.556178,51.3285568 202.613347,51.2228529 C202.6697,51.1178934 202.698285,50.9496604 202.698285,50.7181539 L202.698285,45.3681958 C202.698285,45.1411557 202.6697,44.9759003 202.613347,44.8716851 C202.556178,44.7689588 202.422238,44.6721876 202.210711,44.5836047 C202.125773,44.5441519 202.068603,44.5069322 202.041652,44.4704569 C202.013067,44.4354704 202,44.3885736 202,44.3275333 L202,44.09826 L207.416404,44.09826 C207.560961,44.09826 207.712052,44.0885829 207.867227,44.073695 C208.025668,44.0565739 208.19146,44.0334977 208.367052,44 L208.367052,45.4753885 L208.13919,45.4753885 C207.993816,45.4753885 207.894178,45.4113706 207.839459,45.2825905 C207.807607,45.2126175 207.779022,45.1545548 207.750438,45.1113799 C207.623031,44.9133712 207.449889,44.7741695 207.234278,44.6967526 C207.020301,44.6171024 206.656866,44.5776496 206.145607,44.5776496 L203.840859,44.5776496 L203.840859,47.710803 L205.288064,47.710803 C205.598413,47.710803 205.814841,47.693682 205.939797,47.6609286 C206.064753,47.6289197 206.163575,47.5730902 206.239529,47.4904625 C206.262396,47.4666419 206.286898,47.4249558 206.309765,47.3683819 C206.362851,47.2463013 206.435538,47.185261 206.526193,47.185261 L206.778556,47.185261 L206.778556,48.9286312 L206.537627,48.9286312 C206.428188,48.9241649 206.357135,48.8653578 206.320383,48.7514655 C206.295881,48.6792593 206.27628,48.6264074 206.25668,48.5906765 C206.161941,48.4417977 206.043519,48.3375826 205.897328,48.2780311 C205.753588,48.2199684 205.53961,48.1894482 205.254579,48.1894482 L203.840859,48.1894482 L203.840859,51.519866 L206.526193,51.519866 C207.021934,51.519866 207.412321,51.4603145 207.694901,51.3441891 C207.978299,51.2243417 208.19146,51.0367544 208.331933,50.7762166 C208.378486,50.6876338 208.424221,50.5707639 208.467507,50.4293291 C208.520593,50.2588629 208.587563,50.1725133 208.66515,50.1725133 L209,50.1725133 L209,52 L202,52" id="Fill-27" fill="#FFFFFF"></path>
            </g>
        </g>
    </g>
</svg>