<?xml version="1.0" encoding="UTF-8"?>
<svg width="202px" height="70px" viewBox="0 0 202 70" version="1.1" xmlns="http://www.w3.org/2000/svg" xmlns:xlink="http://www.w3.org/1999/xlink">
    <!-- Generator: Sketch 53.2 (72643) - https://sketchapp.com/ -->
    <title>Group 7</title>
    <desc>Created with Sketch.</desc>
    <g id="4.-Jewellery" stroke="none" stroke-width="1" fill="none" fill-rule="evenodd">
        <g id="House-of-Tabbah" transform="translate(-269.000000, -160.000000)" fill="#FFFFFF">
            <g id="Group-7" transform="translate(269.000000, 160.000000)">
                <path d="M88,0 C86.3453618,4.19800746 81.2153143,5.81510842 76.7877076,5.81510842 L47.1759275,5.88188479 C38.0620375,14.2033328 31.7077361,18.7229797 23.6062528,28.802872 C11.4640626,43.901008 24.4034673,51.6492922 40.8450408,39.915572 C46.0286076,36.2295166 53.9985227,28.8318084 53.1745485,24.7840477 C52.8946872,23.3861958 51.5957293,23.1157516 50.1495933,23.2092385 C43.9391251,23.6265908 38.9127713,28.8863424 34.5743634,34.7014508 C34.3602862,33.7031442 33.6634204,32.1105279 33.0892029,30.5691068 C35.1931802,28.2753387 37.7375767,26.5280238 40.678908,24.8230006 C45.9762033,21.7557396 52.152107,20.6717366 53.9896028,23.1001704 C57.8017376,28.1540283 46.4589919,38.0202362 42.5242087,40.7547283 C35.362658,45.7262286 30.65742,47.9877215 24.0912714,47.9999639 C18.5196898,48.0177709 6.42321401,41.4569931 20.4987887,26.4367628 C28.7485651,17.6311861 32.0288519,14.5305369 42.5242087,5.88188479 C38.1969507,5.88188479 33.7080198,5.41111142 27.1262614,5.77949436 C15.308532,6.46617798 1.25860201,11.2451398 1.69010133,20.4502617 C1.81832464,23.0734599 3.86320772,25.4896513 6.82126377,25.3816962 C7.81806065,25.3516468 8.20384557,24.7718054 8.54614606,24.5447658 L9.31437095,25.5185878 C8.74572844,26.3321465 7.71882695,26.5458308 6.60718659,26.6114943 C3.19087157,26.8040328 0.306404544,23.8113387 0.0533028766,20.939955 C-0.495269901,14.7230755 3.2265511,10.4048706 9.54963285,6.86015853 C14.3853242,4.15015106 23.0030457,1.92093342 29.663968,1.84525354 C29.663968,1.84525354 40.7759117,1.65160209 48.5440145,1.818543 L79.8862518,1.84525354 C82.2834703,1.84525354 86.4613203,1.47575766 88,0" id="Fill-222"></path>
                <path d="M60.8007583,41.5765278 C58.34697,43.9731603 55.474162,46.0183609 53.9779764,45.5913043 C52.9764973,45.3077121 52.6605871,44.0220939 53.2781476,42.1025636 C54.3421506,38.8151178 56.9517001,36.0648291 61.2998524,32.0222494 C65.7565989,27.8684571 70.5610659,24.4987139 72.404972,24.4987139 C74.251072,24.4987139 74.0887293,27.4769885 70.1014605,31.5829594 C68.859758,32.8685776 63.2589342,39.1765589 60.8007583,41.5765278 Z M86.9949756,31.6763781 C85.4834332,33.1454971 71.3980084,45.6780502 65.8322857,45.9093725 C64.1704666,45.9783243 64.458954,43.9731603 65.815832,42.5507506 C67.9701638,40.294246 83.3378767,23.242011 83.3378767,23.242011 L77.026255,23.242011 L75.1735736,25.4784973 C75.1735736,25.4784973 74.8488881,24.0082661 73.5698907,23.3765783 C71.2641854,22.2377608 66.8611875,23.7791681 62.9166982,26.689603 C46.0988699,39.1031586 48.9683872,47.3796037 53.4744946,47.5186195 C57.2687072,47.6331685 60.0395025,44.4469262 61.8230786,43.1857748 C62.5722684,43.0323013 60.7513973,53.9411498 75.1231157,43.4104243 C77.2412494,41.9201749 83.6691436,37.2826075 84.2702505,35.9591771 C84.0596437,36.1804902 87.1408646,31.5340259 86.9949756,31.6763781 L86.9949756,31.6763781 Z" id="Fill-223"></path>
                <path d="M142.043281,41.5765278 C139.530858,43.9731603 136.593341,46.0183609 135.062333,45.5913043 C134.047269,45.3077121 133.719757,44.0220939 134.352349,42.1025636 C135.436953,38.8151178 138.11089,36.0648291 142.546888,32.0222494 C147.108507,27.8684571 152.02007,24.4987139 153.911118,24.4987139 C155.796557,24.4987139 155.628314,27.4769885 151.556842,31.5829594 C150.280441,32.8685776 144.556827,39.1765589 142.043281,41.5765278 Z M171.997202,28.9572289 C170.453856,30.4374692 151.919125,46.0862006 147.190385,45.9093725 C145.491134,45.8448692 145.781633,43.9731603 147.175804,42.5507506 C149.375296,40.294246 165.086916,23.242011 165.086916,23.242011 L158.635371,23.242011 L156.743202,25.4784973 C156.743202,25.4784973 156.410082,24.0082661 155.102276,23.3765783 C152.740149,22.2377608 148.240219,23.7791681 144.209125,26.689603 C127.011362,39.1031586 129.945513,47.3796037 134.550876,47.5186195 C138.426065,47.6331685 141.264879,44.4469262 143.086386,43.1857748 C143.852451,43.0323013 141.992809,53.9411498 156.687121,43.4104243 C158.854087,41.9201749 165.427888,37.2826075 166.045899,35.9591771 C165.83167,36.1804902 172.151986,28.8204373 171.997202,28.9572289 L171.997202,28.9572289 Z" id="Fill-224"></path>
                <path d="M101.254928,35.6613032 C100.89965,35.2777879 102.856448,33.7805177 105.036818,31.4080747 C107.213867,29.0189087 109.139675,24.8950052 107.313478,24.0677717 C105.82817,23.3921606 103.55483,24.3777056 100.462469,28.5606972 C96.6208128,33.7470716 98.2975944,35.0603883 98.3064487,36.1696838 C97.4763588,37.5008384 86.5003566,47.4722342 83.8706318,44.8667834 C82.4273821,43.430831 85.2751439,40.2122018 87.0692449,38.2767878 C89.2872451,35.8865069 121,1 121,1 L114.953625,1 L86.7405293,31.9309487 L83.6426338,35.2911664 C81.7533491,37.6112105 77.5464535,43.0718429 81.9193671,46.2324989 C84.9453215,48.4198735 89.723319,45.3930019 91.9767364,43.8489072 C94.2290471,42.3036976 98.8166773,37.8620562 99.5737193,37.1095191 C105.379921,38.9657773 113.082049,32.2464568 113.824703,32.0836859 C114.272951,31.4036153 113.466104,30.9454038 113.917673,30.2731372 C113.628802,30.4425975 102.410413,36.8820856 101.254928,35.6613032" id="Fill-225"></path>
                <path d="M126.254887,35.6568402 C125.897375,35.2744645 127.856501,33.7850943 130.034783,31.4116894 C132.211959,29.0159885 134.138986,24.9001543 132.312682,24.0696298 C130.831716,23.3929474 128.55603,24.3750844 125.463489,28.5544621 C121.62161,33.7505356 123.300702,35.0604232 123.306237,36.170762 C122.480526,37.5029456 111.503886,47.4736989 108.86626,44.8695308 C107.428461,43.433671 110.274175,40.2074456 112.0717,38.2721563 C114.286509,35.884259 146,1 146,1 L139.957701,1 L111.742966,31.9311853 L108.64157,35.2945308 C106.753282,37.6077367 102.545035,43.0713616 106.921523,46.2351584 C109.944333,48.4179328 114.723715,45.3912563 116.977263,43.8450315 C119.229705,42.3043806 123.817602,37.8574514 124.571367,37.1060776 C130.379014,38.968905 141.907972,30.4340115 142.651776,30.2757102 C143.101158,29.5889947 142.285408,29.1341571 142.739217,28.4597043 C142.451436,28.6347276 127.412653,36.883118 126.254887,35.6568402" id="Fill-226"></path>
                <path d="M189.174967,24.5422868 C186.815436,22.7417491 182.606183,25.463673 180.564728,26.243906 C179.843237,26.5095409 180.391836,25.8837985 180.391836,25.8837985 L202,2 L196.044095,2 L155,47.3479856 L160.679942,47.3479856 C160.679942,47.3479856 173.803103,33.3082377 174.560059,32.4113032 C176.870826,29.6882678 181.072321,27.3898037 182.363469,26.8840972 C183.663483,26.3817249 185.570836,25.2091526 186.574939,26.2183428 C187.996864,27.6243182 179.0353,34.6208518 176.300061,37.8373679 C170.699915,44.4126646 175.237219,48.119327 177.737502,47.9970683 C181.582131,47.808123 186.680225,42.6510275 186.835385,42.3398234 C186.939563,42.1153119 186.673576,40.7071137 186.673576,40.7071137 C186.673576,40.7071137 181.113328,46.4955088 177.979108,46.4955088 C175.400137,46.4955088 176.427514,43.5724137 178.695058,41.0549953 C180.968143,38.545357 186.820977,33.2637799 188.310507,31.4121159 C189.793388,29.5648977 191.863658,26.5828961 189.174967,24.5422868" id="Fill-227"></path>
                <path d="M13.2261072,64.2857143 C13.2261072,63.0862585 13.2261072,62.8663946 13.2074592,62.6117007 C13.1911422,62.345034 13.1223776,62.2198639 12.8461538,62.1643537 C12.7797203,62.1480272 12.6328671,62.1393197 12.5151515,62.1393197 C12.4230769,62.1393197 12.3706294,62.1251701 12.3706294,62.0707483 C12.3706294,62.0130612 12.4312354,62 12.5571096,62 C13.0058275,62 13.539627,62.0217687 13.7575758,62.0217687 C13.958042,62.0217687 14.493007,62 14.8216783,62 C14.9405594,62 15,62.0130612 15,62.0707483 C15,62.1251701 14.9487179,62.1393197 14.8461538,62.1393197 C14.7529138,62.1393197 14.7039627,62.1480272 14.6037296,62.1643537 C14.3752914,62.2035374 14.3065268,62.337415 14.2913753,62.6117007 C14.2727273,62.8663946 14.2727273,63.0862585 14.2727273,64.2857143 L14.2727273,65.747483 C14.2727273,66.084898 14.2995338,66.4647619 14.2995338,66.8587755 C14.2995338,67.3093878 14.2645688,67.8122449 14.0967366,68.2552381 C13.9184149,68.737415 13.472028,69.2805442 12.6585082,69.7463946 C12.548951,69.8095238 12.4137529,69.8715646 12.2365967,69.9521088 C12.1771562,69.9836735 12.1107226,70 12.0664336,70 C12.034965,70 12,69.9771429 12,69.9390476 C12,69.8955102 12.0431235,69.865034 12.1853147,69.7931973 C12.2960373,69.7398639 12.4230769,69.6527891 12.5920746,69.4938776 C13.2354312,68.8843537 13.2261072,68.0963265 13.2261072,66.5507483 L13.2261072,64.2857143" id="Fill-228"></path>
                <path d="M20.7991254,64.3302752 C20.7991254,63.1408527 20.7991254,62.9228278 20.7849139,62.6702644 C20.7707024,62.4058284 20.7062039,62.2817053 20.4438371,62.2266595 C20.3793386,62.2104695 20.2459688,62.2018349 20.134463,62.2018349 C20.0470074,62.2018349 20,62.1878036 20,62.133837 C20,62.0766325 20.0557529,62.0636805 20.1749112,62.0636805 C20.594698,62.0636805 21.0942881,62.0852671 21.3151134,62.0852671 C21.5687346,62.0852671 23.1462148,62.0852671 23.2959825,62.0766325 C23.4468434,62.0636805 23.5747472,62.0485699 23.6359661,62.0302213 C23.6775075,62.0215866 23.7256081,62 23.7627767,62 C23.8043181,62 23.8119705,62.0302213 23.8119705,62.0712358 C23.8119705,62.1262817 23.7704291,62.2191042 23.7485652,62.5796006 C23.742006,62.6583918 23.7256081,63.001619 23.708117,63.0944414 C23.6993714,63.1332974 23.6851599,63.1807879 23.6294069,63.1807879 C23.5747472,63.1807879 23.5583493,63.1408527 23.5583493,63.0717755 C23.5583493,63.0156503 23.5517901,62.8839719 23.5102487,62.7911495 C23.455589,62.6508365 23.3757857,62.5536967 22.9800492,62.5083648 C22.8455862,62.4932542 22.0125717,62.4759849 21.8540585,62.4759849 C21.8136103,62.4759849 21.7983055,62.5008095 21.7983055,62.5536967 L21.7983055,64.5342688 C21.7983055,64.5914733 21.8048647,64.6206152 21.8540585,64.6206152 C22.0289697,64.6206152 22.939601,64.6206152 23.1210713,64.6044253 C23.3134736,64.5914733 23.4315387,64.5666487 23.5025963,64.4878575 C23.5583493,64.427415 23.5889587,64.3864004 23.6294069,64.3864004 C23.6622028,64.3864004 23.6851599,64.4025904 23.6851599,64.4490016 C23.6851599,64.4943335 23.6447117,64.6206152 23.6217546,65.0188883 C23.6064498,65.1775499 23.5889587,65.4862385 23.5889587,65.5445224 C23.5889587,65.6049649 23.5889587,65.6923907 23.5179011,65.6923907 C23.4621481,65.6923907 23.4468434,65.6600108 23.4468434,65.6222342 C23.4402842,65.5445224 23.4402842,65.441986 23.4151407,65.3405289 C23.3757857,65.1818672 23.2653731,65.0663788 22.9713036,65.0339989 C22.8204427,65.0188883 22.0344356,65.0124123 21.8464061,65.0124123 C21.8048647,65.0124123 21.7983055,65.0447922 21.7983055,65.0901241 L21.7983055,65.7085807 C21.7983055,65.9730167 21.7906532,66.6940097 21.7983055,66.9206692 C21.8136103,67.4624933 21.9393277,67.5779817 22.7493851,67.5779817 C22.9559989,67.5779817 23.2872369,67.5779817 23.494944,67.4830005 C23.6993714,67.3912574 23.7955726,67.2271991 23.8524187,66.9055586 C23.8666302,66.8192121 23.881935,66.7900702 23.9376879,66.7900702 C24,66.7900702 24,66.8505127 24,66.9303832 C24,67.1084727 23.9376879,67.6416622 23.9005193,67.7960065 C23.8447663,68 23.7704291,68 23.4687073,68 C22.2738453,68 21.7414594,67.9525094 21.2757584,67.9525094 C21.0942881,67.9525094 20.594698,67.9762547 20.2765783,67.9762547 C20.1749112,67.9762547 20.1202514,67.9525094 20.1202514,67.8996222 C20.1202514,67.8586077 20.1497677,67.8381004 20.2459688,67.8381004 C20.3662203,67.8381004 20.4580486,67.8197518 20.5323859,67.8046411 C20.6876196,67.7744199 20.7280678,67.6006476 20.7619568,67.3761468 C20.7991254,67.0469509 20.7991254,66.4295737 20.7991254,65.7085807 L20.7991254,64.3302752" id="Fill-229"></path>
                <path d="M29.7356769,62.7634409 C29.6437173,62.4731183 29.5528525,62.2860215 29.4433767,62.2086022 C29.3568909,62.1548387 29.1970563,62.1376344 29.1258971,62.1376344 C29.0470746,62.1376344 29,62.1322581 29,62.0698925 C29,62.0129032 29.0624012,62 29.1729717,62 C29.5856952,62 30.0225033,62.0215054 30.0936626,62.0215054 C30.1670113,62.0215054 30.5140494,62 30.9738475,62 C31.0866075,62 31.1413453,62.0215054 31.1413453,62.0698925 C31.1413453,62.1322581 31.0778494,62.1376344 31.0001216,62.1376344 C30.935531,62.1376344 30.8556137,62.1376344 30.799781,62.1709677 C30.7297166,62.2010753 30.71439,62.255914 30.71439,62.3408602 C30.71439,62.4430108 30.7921177,62.7075269 30.8884564,63.0591398 C31.0220168,63.5752688 31.7598832,65.9322581 31.9043912,66.372043 L31.9262863,66.372043 L33.4666099,62.3096774 C33.5552852,62.0913978 33.6034546,62.0290323 33.6658557,62.0290323 C33.7523416,62.0290323 33.7928476,62.1462366 33.89466,62.3956989 L35.5444593,66.316129 L35.5718282,66.316129 C35.7119572,65.7956989 36.3480112,63.7376344 36.6282691,62.8268817 C36.6786279,62.6473118 36.7059968,62.4806452 36.7059968,62.3709677 C36.7059968,62.2483871 36.6337429,62.1376344 36.3228318,62.1376344 C36.2429145,62.1376344 36.1870819,62.1172043 36.1870819,62.0698925 C36.1870819,62.0129032 36.2516725,62 36.3720959,62 C36.7913879,62 37.1263837,62.0215054 37.1964481,62.0215054 C37.2533755,62.0215054 37.593845,62 37.855492,62 C37.9430726,62 38,62.0129032 38,62.0623656 C38,62.1172043 37.959494,62.1376344 37.8883348,62.1376344 C37.8073227,62.1376344 37.6989417,62.1462366 37.6091716,62.1774194 C37.4197786,62.2483871 37.3311033,62.5580645 37.1647002,63.0043011 C36.7979565,63.9849462 35.9659409,66.4645161 35.5783968,67.6344086 C35.4897214,67.9075269 35.4524997,68 35.3484977,68 C35.2685805,68 35.2215059,67.9075269 35.1021774,67.6172043 L33.4523781,63.7139785 L33.4359567,63.7139785 C33.2826907,64.1107527 32.2284394,66.8688172 31.8879698,67.588172 C31.7357986,67.9075269 31.6963873,68 31.6033329,68 C31.5201314,68 31.4829096,67.9139785 31.4216032,67.7107527 L29.7356769,62.7634409" id="Fill-230"></path>
                <path d="M42.8,64.3302752 C42.8,63.1408527 42.8,62.9228278 42.7836066,62.6702644 C42.7693989,62.4058284 42.704918,62.2817053 42.4437158,62.2266595 C42.3803279,62.2104695 42.2459016,62.2018349 42.1333333,62.2018349 C42.0448087,62.2018349 42,62.1878036 42,62.133837 C42,62.0766325 42.0557377,62.0636805 42.1748634,62.0636805 C42.5945355,62.0636805 43.0918033,62.0852671 43.3136612,62.0852671 C43.5672131,62.0852671 45.1453552,62.0852671 45.295082,62.0766325 C45.4448087,62.0636805 45.5726776,62.0485699 45.6349727,62.0302213 C45.6754098,62.0215866 45.7245902,62 45.7628415,62 C45.8021858,62 45.810929,62.0302213 45.810929,62.0712358 C45.810929,62.1262817 45.7693989,62.2191042 45.7453552,62.5796006 C45.7387978,62.6583918 45.7245902,63.001619 45.7060109,63.0944414 C45.6983607,63.1332974 45.6830601,63.1807879 45.6273224,63.1807879 C45.5726776,63.1807879 45.5562842,63.1408527 45.5562842,63.0717755 C45.5562842,63.0156503 45.5497268,62.8839719 45.5081967,62.7911495 C45.4535519,62.6508365 45.3748634,62.5536967 44.9781421,62.5083648 C44.8437158,62.4932542 44.0120219,62.4759849 43.8546448,62.4759849 C43.8131148,62.4759849 43.7978142,62.5008095 43.7978142,62.5536967 L43.7978142,64.5342688 C43.7978142,64.5914733 43.8043716,64.6206152 43.8546448,64.6206152 C44.0273224,64.6206152 44.936612,64.6206152 45.1191257,64.6044253 C45.3125683,64.5914733 45.4306011,64.5666487 45.5016393,64.4878575 C45.5562842,64.427415 45.5879781,64.3864004 45.6273224,64.3864004 C45.6601093,64.3864004 45.6830601,64.4025904 45.6830601,64.4490016 C45.6830601,64.4943335 45.642623,64.6206152 45.6196721,65.0188883 C45.6043716,65.1775499 45.5879781,65.4862385 45.5879781,65.5445224 C45.5879781,65.6049649 45.5879781,65.6923907 45.5169399,65.6923907 C45.4612022,65.6923907 45.4448087,65.6600108 45.4448087,65.6222342 C45.4371585,65.5445224 45.4371585,65.441986 45.4120219,65.3405289 C45.3748634,65.1818672 45.263388,65.0663788 44.9693989,65.0339989 C44.8185792,65.0188883 44.0360656,65.0124123 43.8459016,65.0124123 C43.8043716,65.0124123 43.7978142,65.0447922 43.7978142,65.0901241 L43.7978142,65.7085807 C43.7978142,65.9730167 43.7901639,66.6940097 43.7978142,66.9206692 C43.8131148,67.4624933 43.9387978,67.5779817 44.7486339,67.5779817 C44.9551913,67.5779817 45.2863388,67.5779817 45.4939891,67.4830005 C45.6983607,67.3912574 45.7934426,67.2271991 45.8491803,66.9055586 C45.8655738,66.8192121 45.8808743,66.7900702 45.9355191,66.7900702 C46,66.7900702 46,66.8505127 46,66.9303832 C46,67.1084727 45.9355191,67.6416622 45.8983607,67.7960065 C45.842623,68 45.7693989,68 45.4677596,68 C44.273224,68 43.7420765,67.9525094 43.2743169,67.9525094 C43.0918033,67.9525094 42.5945355,67.9762547 42.2754098,67.9762547 C42.1748634,67.9762547 42.1191257,67.9525094 42.1191257,67.8996222 C42.1191257,67.8586077 42.1497268,67.8381004 42.2459016,67.8381004 C42.3639344,67.8381004 42.4568306,67.8197518 42.5311475,67.8046411 C42.6885246,67.7744199 42.7278689,67.6006476 42.7606557,67.3761468 C42.8,67.0469509 42.8,66.4295737 42.8,65.7085807 L42.8,64.3302752" id="Fill-231"></path>
                <path d="M53.6810526,65.684 C53.6810526,66.6952727 53.6810526,67.2429091 53.8410526,67.3847273 C53.9705263,67.5014545 54.1705263,67.5581818 54.7631579,67.5581818 C55.1673684,67.5581818 55.4652632,67.5505455 55.6578947,67.3345455 C55.7473684,67.232 55.8389474,67.0127273 55.8547368,66.86 C55.8621053,66.7912727 55.8789474,66.7432727 55.94,66.7432727 C55.9936842,66.7432727 56,66.7847273 56,66.8752727 C56,66.9658182 55.9473684,67.5581818 55.8852632,67.7872727 C55.8389474,67.9629091 55.8021053,68 55.4042105,68 C54.3063158,68 53.8010526,67.952 53.1831579,67.952 C53.0094737,67.952 52.5294737,67.976 52.2210526,67.976 C52.1252632,67.976 52.0705263,67.952 52.0705263,67.8985455 C52.0705263,67.8570909 52.1010526,67.8363636 52.1926316,67.8363636 C52.3073684,67.8363636 52.3968421,67.8178182 52.4663158,67.8025455 C52.6189474,67.772 52.6568421,67.5963636 52.6884211,67.3694545 C52.7252632,67.0367273 52.7252632,66.4127273 52.7252632,65.684 L52.7252632,64.2909091 C52.7252632,63.0887273 52.7252632,62.8683636 52.7115789,62.6130909 C52.6968421,62.3458182 52.6357895,62.2203636 52.3831579,62.1647273 C52.3221053,62.1483636 52.2315789,62.1396364 52.1315789,62.1396364 C52.0463158,62.1396364 52,62.1254545 52,62.0709091 C52,62.0130909 52.0536842,62 52.1684211,62 C52.5294737,62 53.0094737,62.0218182 53.2147368,62.0218182 C53.3978947,62.0218182 53.9547368,62 54.2526316,62 C54.3589474,62 54.4126316,62.0130909 54.4126316,62.0709091 C54.4126316,62.1254545 54.3673684,62.1396364 54.2747368,62.1396364 C54.1915789,62.1396364 54.0705263,62.1483636 53.9778947,62.1647273 C53.7715789,62.204 53.7084211,62.3381818 53.6947368,62.6130909 C53.6810526,62.8683636 53.6810526,63.0887273 53.6810526,64.2909091 L53.6810526,65.684" id="Fill-232"></path>
                <path d="M62.6785057,65.684 C62.6785057,66.6952727 62.6785057,67.2429091 62.8395159,67.3847273 C62.9679032,67.5014545 63.1689029,67.5581818 63.7624309,67.5581818 C64.1665351,67.5581818 64.4632991,67.5505455 64.6548277,67.3345455 C64.7453302,67.232 64.8379374,67.0127273 64.851618,66.86 C64.8600368,66.7912727 64.8768745,66.7432727 64.9368587,66.7432727 C64.9915812,66.7432727 65,66.7847273 65,66.8752727 C65,66.9658182 64.9452776,67.5581818 64.8852933,67.7872727 C64.8379374,67.9629091 64.8000526,68 64.4012102,68 C63.305709,68 62.7995264,67.952 62.1817943,67.952 C62.0071034,67.952 61.5272297,67.976 61.2199421,67.976 C61.1231255,67.976 61.0694554,67.952 61.0694554,67.8985455 C61.0694554,67.8570909 61.0989213,67.8363636 61.1915285,67.8363636 C61.3051828,67.8363636 61.3956853,67.8178182 61.4682978,67.8025455 C61.6177322,67.772 61.6566693,67.5963636 61.6882399,67.3694545 C61.72402,67.0367273 61.72402,66.4127273 61.72402,65.684 L61.72402,64.2909091 C61.72402,63.0887273 61.72402,62.8683636 61.7103394,62.6130909 C61.6956064,62.3458182 61.6345699,62.2203636 61.3820047,62.1647273 C61.3199158,62.1483636 61.2304657,62.1396364 61.1315443,62.1396364 C61.0452512,62.1396364 61,62.1254545 61,62.0709091 C61,62.0130909 61.0536701,62 61.166272,62 C61.5272297,62 62.0071034,62.0218182 62.2144173,62.0218182 C62.3964746,62.0218182 62.9542226,62 63.2509866,62 C63.3572744,62 63.4119968,62.0130909 63.4119968,62.0709091 C63.4119968,62.1254545 63.3646409,62.1396364 63.273086,62.1396364 C63.18995,62.1396364 63.0678769,62.1483636 62.976322,62.1647273 C62.7721652,62.204 62.7079716,62.3381818 62.6932386,62.6130909 C62.6785057,62.8683636 62.6785057,63.0887273 62.6785057,64.2909091 L62.6785057,65.684" id="Fill-233"></path>
                <path d="M70.8015288,64.3302752 C70.8015288,63.1408527 70.8015288,62.9228278 70.7840568,62.6702644 C70.7687688,62.4058284 70.7043407,62.2817053 70.4455364,62.2266595 C70.3822004,62.2104695 70.2457002,62.2018349 70.1332241,62.2018349 C70.04914,62.2018349 70,62.1878036 70,62.133837 C70,62.0766325 70.0556921,62.0636805 70.1747202,62.0636805 C70.5951406,62.0636805 71.0941851,62.0852671 71.3136773,62.0852671 C71.5692056,62.0852671 73.1427791,62.0852671 73.2934753,62.0766325 C73.4430794,62.0636805 73.5730276,62.0485699 73.6352716,62.0302213 C73.6723997,62.0215866 73.7215397,62 73.7619438,62 C73.8012558,62 73.8099918,62.0302213 73.8099918,62.0712358 C73.8099918,62.1262817 73.7695878,62.2191042 73.7455637,62.5796006 C73.7357357,62.6583918 73.7215397,63.001619 73.7051597,63.0944414 C73.6986077,63.1332974 73.6811357,63.1807879 73.6276276,63.1807879 C73.5730276,63.1807879 73.5544636,63.1408527 73.5544636,63.0717755 C73.5544636,63.0156503 73.5468195,62.8839719 73.5085995,62.7911495 C73.4539995,62.6508365 73.3720994,62.5536967 72.978979,62.5083648 C72.8424788,62.4932542 72.011466,62.4759849 71.8542179,62.4759849 C71.8138138,62.4759849 71.7996178,62.5008095 71.7996178,62.5536967 L71.7996178,64.5342688 C71.7996178,64.5914733 71.8072618,64.6206152 71.8542179,64.6206152 C72.025662,64.6206152 72.9385749,64.6206152 73.1209391,64.6044253 C73.3087633,64.5914733 73.4277914,64.5666487 73.4987715,64.4878575 C73.5544636,64.427415 73.5872236,64.3864004 73.6276276,64.3864004 C73.6582037,64.3864004 73.6811357,64.4025904 73.6811357,64.4490016 C73.6811357,64.4943335 73.6429156,64.6206152 73.6167076,65.0188883 C73.6025116,65.1775499 73.5872236,65.4862385 73.5872236,65.5445224 C73.5872236,65.6049649 73.5872236,65.6923907 73.5162435,65.6923907 C73.4616435,65.6923907 73.4430794,65.6600108 73.4430794,65.6222342 C73.4354354,65.5445224 73.4354354,65.441986 73.4125034,65.3405289 C73.3720994,65.1818672 73.2607153,65.0663788 72.969151,65.0339989 C72.8184548,65.0188883 72.036582,65.0124123 71.8454818,65.0124123 C71.8072618,65.0124123 71.7996178,65.0447922 71.7996178,65.0901241 L71.7996178,65.7085807 C71.7996178,65.9730167 71.7886978,66.6940097 71.7996178,66.9206692 C71.8138138,67.4624933 71.9404859,67.5779817 72.7485667,67.5779817 C72.953863,67.5779817 73.2858313,67.5779817 73.4922195,67.4830005 C73.6986077,67.3912574 73.7925198,67.2271991 73.8471198,66.9055586 C73.8645919,66.8192121 73.8798799,66.7900702 73.9355719,66.7900702 C74,66.7900702 74,66.8505127 74,66.9303832 C74,67.1084727 73.9355719,67.6416622 73.8951679,67.7960065 C73.8405678,68 73.7695878,68 73.4681955,68 C72.2746383,68 71.7439257,67.9525094 71.2765493,67.9525094 C71.0941851,67.9525094 70.5951406,67.9762547 70.2784603,67.9762547 C70.1747202,67.9762547 70.1190281,67.9525094 70.1190281,67.8996222 C70.1190281,67.8586077 70.1528802,67.8381004 70.2457002,67.8381004 C70.3647284,67.8381004 70.4586405,67.8197518 70.5307125,67.8046411 C70.6901447,67.7744199 70.7305487,67.6006476 70.7600328,67.3761468 C70.8015288,67.0469509 70.8015288,66.4295737 70.8015288,65.7085807 L70.8015288,64.3302752" id="Fill-234"></path>
                <path d="M80.6657343,64.9277108 C80.6657343,65.0142388 80.6804196,65.0470975 80.7339161,65.0711939 C80.8933566,65.1259584 81.1230769,65.1522453 81.3108392,65.1522453 C81.615035,65.1522453 81.7136364,65.1182913 81.85,65.0142388 C82.0765734,64.8400876 82.2979021,64.475356 82.2979021,63.8247536 C82.2979021,62.6976999 81.5846154,62.373494 81.1367133,62.373494 C80.9447552,62.373494 80.8083916,62.3778751 80.7339161,62.4030668 C80.6804196,62.4184009 80.6657343,62.4512596 80.6657343,62.5147864 L80.6657343,64.9277108 Z M79.7688811,64.3001095 C79.7688811,63.0930997 79.7688811,62.871851 79.751049,62.6155531 C79.7363636,62.347207 79.6755245,62.2212486 79.4248252,62.1653888 C79.3660839,62.1489595 79.2339161,62.1401972 79.127972,62.1401972 C79.0461538,62.1401972 79,62.1259584 79,62.0711939 C79,62.0131435 79.0513986,62 79.1667832,62 C79.5695804,62 80.048951,62.0219058 80.2073427,62.0219058 C80.4674825,62.0219058 81.0444056,62 81.2804196,62 C81.7597902,62 82.2695804,62.0460022 82.6786713,62.33954 C82.8947552,62.4895947 83.1958042,62.8959474 83.1958042,63.4282585 C83.1958042,64.0175246 82.9618881,64.5564074 82.191958,65.2070099 C82.8695804,66.0974808 83.3951049,66.803943 83.841958,67.2935378 C84.2688811,67.7557503 84.5793706,67.8105148 84.6926573,67.8335159 C84.7797203,67.8488499 84.8468531,67.8598028 84.9076923,67.8598028 C84.9685315,67.8598028 85,67.8806134 85,67.9222344 C85,67.9868565 84.9465035,68 84.8541958,68 L84.1325175,68 C83.7066434,68 83.5167832,67.958379 83.3174825,67.8488499 C82.9902098,67.6670318 82.7027972,67.2935378 82.2769231,66.6823658 C81.9737762,66.2464403 81.6213287,65.7042716 81.5248252,65.5870756 C81.486014,65.5399781 81.4409091,65.5323111 81.3863636,65.5323111 L80.7255245,65.5147864 C80.6877622,65.5147864 80.6657343,65.5323111 80.6657343,65.5783133 L80.6657343,65.6922234 C80.6657343,66.4304491 80.6657343,67.0569551 80.7024476,67.3910186 C80.7255245,67.618839 80.7695804,67.7951807 80.9982517,67.8258488 C81.1125874,67.8411829 81.2804196,67.8598028 81.3727273,67.8598028 C81.4325175,67.8598028 81.463986,67.8806134 81.463986,67.9222344 C81.463986,67.9759036 81.4104895,68 81.3108392,68 C80.8681818,68 80.3059441,67.9759036 80.1916084,67.9759036 C80.048951,67.9759036 79.5695804,68 79.2664336,68 C79.1667832,68 79.1132867,67.9759036 79.1132867,67.9222344 C79.1132867,67.8806134 79.1447552,67.8598028 79.2339161,67.8598028 C79.3482517,67.8598028 79.4405594,67.8411829 79.5087413,67.8258488 C79.6608392,67.7951807 79.6996503,67.618839 79.729021,67.3910186 C79.7688811,67.0569551 79.7688811,66.4304491 79.7688811,65.6987952 L79.7688811,64.3001095 L79.7688811,64.3001095 Z" id="Fill-235"></path>
                <path d="M89.1346535,67.8004575 C89.0207921,67.7466127 89,67.7096604 89,67.5417913 C89,67.1205349 89.0277228,66.6602147 89.0336634,66.5387999 C89.0435644,66.4237199 89.0633663,66.3403132 89.1207921,66.3403132 C89.1851485,66.3403132 89.1930693,66.4089389 89.1930693,66.4701742 C89.1930693,66.5704733 89.2217822,66.7320077 89.2594059,66.8597572 C89.4168317,67.427767 89.8386139,67.6347 90.2851485,67.6347 C90.9306931,67.6347 91.2465347,67.1669893 91.2465347,66.7605138 C91.2465347,66.3857118 91.1386139,66.0246349 90.5435644,65.5368643 L90.2118812,65.2591941 C89.4237624,64.6014429 89.1514851,64.067218 89.1514851,63.4474749 C89.1514851,62.6049622 89.809901,62 90.8089109,62 C91.2742574,62 91.5772277,62.0760162 91.7623762,62.129861 C91.8287129,62.1456977 91.8623762,62.1699806 91.8623762,62.2238254 C91.8623762,62.322013 91.8356436,62.5437269 91.8356436,63.1412986 C91.8356436,63.3070561 91.8128713,63.370403 91.7554455,63.370403 C91.7049505,63.370403 91.6841584,63.3260602 91.6841584,63.2310399 C91.6841584,63.1624142 91.6475248,62.928031 91.4970297,62.7274327 C91.3881188,62.5806792 91.1831683,62.3526307 90.7158416,62.3526307 C90.1841584,62.3526307 89.8613861,62.6830899 89.8613861,63.1412986 C89.8613861,63.4918177 90.0257426,63.7599859 90.6207921,64.2424776 L90.8237624,64.404012 C91.6841584,65.1145522 92,65.6266057 92,66.3550941 C92,66.8006335 91.8425743,67.3285237 91.3237624,67.6853774 C90.9653465,67.9303185 90.5643564,68 90.1841584,68 C89.7673267,68 89.4445545,67.9482668 89.1346535,67.8004575" id="Fill-236"></path>
                <path d="M105.137624,67.8004575 C105.022772,67.7466127 105,67.7096604 105,67.5417913 C105,67.1205349 105.029703,66.6602147 105.036634,66.5387999 C105.044554,66.4237199 105.066337,66.3403132 105.123762,66.3403132 C105.188119,66.3403132 105.19505,66.4089389 105.19505,66.4701742 C105.19505,66.5704733 105.222772,66.7320077 105.258416,66.8597572 C105.416832,67.427767 105.841584,67.6347 106.284158,67.6347 C106.930693,67.6347 107.246535,67.1669893 107.246535,66.7605138 C107.246535,66.3857118 107.139604,66.0246349 106.543564,65.5368643 L106.213861,65.2591941 C105.424752,64.6014429 105.151485,64.067218 105.151485,63.4474749 C105.151485,62.6049622 105.809901,62 106.808911,62 C107.277228,62 107.576238,62.0760162 107.763366,62.129861 C107.829703,62.1456977 107.865347,62.1699806 107.865347,62.2238254 C107.865347,62.322013 107.834653,62.5437269 107.834653,63.1412986 C107.834653,63.3070561 107.814851,63.370403 107.758416,63.370403 C107.706931,63.370403 107.684158,63.3260602 107.684158,63.2310399 C107.684158,63.1624142 107.649505,62.928031 107.49802,62.7274327 C107.391089,62.5806792 107.183168,62.3526307 106.713861,62.3526307 C106.183168,62.3526307 105.860396,62.6830899 105.860396,63.1412986 C105.860396,63.4918177 106.025743,63.7599859 106.623762,64.2424776 L106.821782,64.404012 C107.684158,65.1145522 108,65.6266057 108,66.3550941 C108,66.8006335 107.842574,67.3285237 107.326733,67.6853774 C106.966337,67.9303185 106.565347,68 106.183168,68 C105.767327,68 105.445545,67.9482668 105.137624,67.8004575" id="Fill-237"></path>
                <path d="M113.818298,64.3001095 C113.818298,63.0930997 113.818298,62.871851 113.799059,62.6155531 C113.778538,62.347207 113.690038,62.2124863 113.484823,62.1741512 C113.379649,62.1489595 113.262933,62.1401972 113.147499,62.1401972 C113.055152,62.1401972 113,62.1259584 113,62.0635268 C113,62.0131435 113.073108,62 113.22189,62 C113.574605,62 114.163318,62.0219058 114.433946,62.0219058 C114.662249,62.0219058 115.212484,62 115.566481,62 C115.687046,62 115.761437,62.0131435 115.761437,62.0635268 C115.761437,62.1259584 115.706285,62.1401972 115.613938,62.1401972 C115.51646,62.1401972 115.445917,62.1489595 115.336896,62.1653888 C115.081659,62.2048193 115.008551,62.33954 114.990594,62.6155531 C114.970073,62.871851 114.970073,63.0930997 114.970073,64.3001095 L114.970073,65.6987952 C114.970073,66.4687842 114.970073,67.0963855 115.008551,67.4370208 C115.034203,67.652793 115.099615,67.7951807 115.377939,67.8258488 C115.51133,67.8411829 115.712698,67.8598028 115.853784,67.8598028 C115.956392,67.8598028 116,67.8806134 116,67.9222344 C116,67.9759036 115.926892,68 115.828132,68 C115.212484,68 114.625053,67.9759036 114.377512,67.9759036 C114.163318,67.9759036 113.574605,68 113.203933,68 C113.079521,68 113.019239,67.9759036 113.019239,67.9222344 C113.019239,67.8806134 113.055152,67.8598028 113.165455,67.8598028 C113.305259,67.8598028 113.418127,67.8411829 113.501496,67.8258488 C113.690038,67.7951807 113.74519,67.66046 113.772125,67.4282585 C113.818298,67.0963855 113.818298,66.4687842 113.818298,65.6987952 L113.818298,64.3001095" id="Fill-238"></path>
                <path d="M122.438812,66.869993 C122.45374,67.4645116 122.563976,67.6626845 122.730479,67.7174982 C122.869423,67.7607168 123.030184,67.7712579 123.165682,67.7712579 C123.254101,67.7712579 123.303478,67.7860155 123.303478,67.8313422 C123.303478,67.8935348 123.229987,67.9061841 123.112861,67.9061841 C122.573163,67.9061841 122.240157,67.8829937 122.081693,67.8829937 C122.008202,67.8829937 121.615486,67.9061841 121.18143,67.9061841 C121.072343,67.9061841 121,67.9009136 121,67.8313422 C121,67.7860155 121.048228,67.7712579 121.130906,67.7712579 C121.239993,67.7712579 121.388123,67.7607168 121.505249,67.7301476 C121.723425,67.6711174 121.755577,67.4476458 121.763615,66.7814476 L121.842848,62.2614195 C121.842848,62.1075193 121.864665,62 121.948491,62 C122.040354,62 122.114993,62.0990864 122.253937,62.237175 C122.353839,62.3362614 123.620407,63.5801124 124.837598,64.6900914 C125.402559,65.208714 126.526739,66.3123682 126.665682,66.4325369 L126.709318,66.4325369 L126.627789,63.0014055 C126.618602,62.5344343 126.543963,62.3879129 126.341864,62.313071 C126.216699,62.2666901 126.020341,62.2666901 125.900919,62.2666901 C125.801017,62.2666901 125.770013,62.246662 125.770013,62.2002811 C125.770013,62.1391427 125.85958,62.1317639 125.983596,62.1317639 C126.416503,62.1317639 126.818406,62.1528461 126.99065,62.1528461 C127.08481,62.1528461 127.401739,62.1317639 127.808235,62.1317639 C127.913878,62.1317639 128,62.1391427 128,62.2002811 C128,62.246662 127.949475,62.2666901 127.849573,62.2666901 C127.766896,62.2666901 127.700295,62.2666901 127.600394,62.2909346 C127.366142,62.3489108 127.300689,62.512298 127.290354,62.9423753 L127.200787,67.7607168 C127.200787,67.9293746 127.167487,68 127.092848,68 C127.000984,68 126.901083,67.9156711 126.810367,67.8313422 C126.283301,67.3706957 125.21998,66.3713985 124.353018,65.5839775 C123.445866,64.7607168 122.524934,63.8046381 122.37336,63.6581167 L122.348097,63.6581167 L122.438812,66.869993" id="Fill-239"></path>
                <path d="M134.06709,67.1669893 C133.223898,66.5102939 133,65.6508886 133,64.9076192 C133,64.3881753 133.178642,63.485483 134.006352,62.8108393 C134.630409,62.3061763 135.452164,62 136.738388,62 C137.271933,62 137.592299,62.0295619 137.987694,62.0760162 C138.317586,62.1161358 138.593886,62.18265 138.852322,62.2079887 C138.947598,62.2143234 138.979754,62.2523315 138.979754,62.2987859 C138.979754,62.3600211 138.957126,62.4529298 138.939262,62.721098 C138.919015,62.9723737 138.929734,63.3925743 138.914252,63.5467183 C138.904724,63.6617983 138.88686,63.7230336 138.809448,63.7230336 C138.740373,63.7230336 138.720127,63.6617983 138.720127,63.553053 C138.715363,63.3186697 138.603414,63.0483899 138.384279,62.8499032 C138.102025,62.5806792 137.427948,62.374802 136.634776,62.374802 C135.882096,62.374802 135.392616,62.5437269 135.010322,62.8499032 C134.382692,63.3630125 134.215959,64.0872778 134.215959,64.831603 C134.215959,66.6528242 135.780865,67.557628 136.936086,67.557628 C137.705439,67.557628 138.172291,67.480556 138.516475,67.1279254 C138.662961,66.9832835 138.774911,66.7605138 138.809448,66.6222066 C138.835649,66.4997361 138.852322,66.4701742 138.919015,66.4701742 C138.979754,66.4701742 139,66.5229632 139,66.5831427 C139,66.6771072 138.896387,67.341193 138.809448,67.6030266 C138.766574,67.7318318 138.732037,67.7719514 138.584359,67.8257962 C138.240175,67.9482668 137.583962,68 137.030171,68 C135.847559,68 134.854307,67.7719514 134.06709,67.1669893" id="Fill-240"></path>
                <path d="M143.799781,64.3302752 C143.799781,63.1408527 143.799781,62.9228278 143.7823,62.6702644 C143.769189,62.4058284 143.704725,62.2817053 143.443595,62.2266595 C143.380224,62.2104695 143.244742,62.2018349 143.132204,62.2018349 C143.045889,62.2018349 143,62.1878036 143,62.133837 C143,62.0766325 143.05463,62.0636805 143.17263,62.0636805 C143.594373,62.0636805 144.092598,62.0852671 144.31221,62.0852671 C144.567878,62.0852671 146.143403,62.0852671 146.293089,62.0766325 C146.441683,62.0636805 146.572794,62.0485699 146.637258,62.0302213 C146.675498,62.0215866 146.721388,62 146.760721,62 C146.800055,62 146.810981,62.0302213 146.810981,62.0712358 C146.810981,62.1262817 146.770554,62.2191042 146.74761,62.5796006 C146.736684,62.6583918 146.721388,63.001619 146.707184,63.0944414 C146.699536,63.1332974 146.682054,63.1807879 146.628517,63.1807879 C146.572794,63.1807879 146.555313,63.1408527 146.555313,63.0717755 C146.555313,63.0156503 146.546572,62.8839719 146.510516,62.7911495 C146.454794,62.6508365 146.370664,62.5536967 145.978421,62.5083648 C145.841846,62.4932542 145.011472,62.4759849 144.855231,62.4759849 C144.813712,62.4759849 144.797323,62.5008095 144.797323,62.5536967 L144.797323,64.5342688 C144.797323,64.5914733 144.807157,64.6206152 144.855231,64.6206152 C145.026769,64.6206152 145.939088,64.6206152 146.121551,64.6044253 C146.309478,64.5914733 146.427479,64.5666487 146.49959,64.4878575 C146.555313,64.427415 146.589183,64.3864004 146.628517,64.3864004 C146.660202,64.3864004 146.682054,64.4025904 146.682054,64.4490016 C146.682054,64.4943335 146.642721,64.6206152 146.619776,65.0188883 C146.603387,65.1775499 146.589183,65.4862385 146.589183,65.5445224 C146.589183,65.6049649 146.589183,65.6923907 146.517072,65.6923907 C146.462442,65.6923907 146.441683,65.6600108 146.441683,65.6222342 C146.43622,65.5445224 146.43622,65.441986 146.413275,65.3405289 C146.370664,65.1818672 146.261404,65.0663788 145.968588,65.0339989 C145.818902,65.0188883 145.035509,65.0124123 144.844305,65.0124123 C144.807157,65.0124123 144.797323,65.0447922 144.797323,65.0901241 L144.797323,65.7085807 C144.797323,65.9730167 144.788582,66.6940097 144.797323,66.9206692 C144.813712,67.4624933 144.939361,67.5779817 145.74679,67.5779817 C145.955477,67.5779817 146.287626,67.5779817 146.491942,67.4830005 C146.699536,67.3912574 146.792406,67.2271991 146.847036,66.9055586 C146.866703,66.8192121 146.880907,66.7900702 146.936629,66.7900702 C147,66.7900702 147,66.8505127 147,66.9303832 C147,67.1084727 146.936629,67.6416622 146.892925,67.7960065 C146.841573,68 146.770554,68 146.47009,68 C145.272603,68 144.741601,67.9525094 144.277247,67.9525094 C144.092598,67.9525094 143.594373,67.9762547 143.275335,67.9762547 C143.17263,67.9762547 143.116908,67.9525094 143.116908,67.8996222 C143.116908,67.8586077 143.150778,67.8381004 143.244742,67.8381004 C143.362742,67.8381004 143.459984,67.8197518 143.531002,67.8046411 C143.689429,67.7744199 143.730948,67.6006476 143.760448,67.3761468 C143.799781,67.0469509 143.799781,66.4295737 143.799781,65.7085807 L143.799781,64.3302752" id="Fill-241"></path>
                <path d="M160.174419,64.3909694 C160.174419,63.9716897 160.169133,63.6351908 160.169133,63.3707221 C160.169133,63.1836588 160.169133,63.0922774 160.052854,63.0922774 C159.906977,63.0922774 159.32981,63.3954488 159.163848,63.4653288 C159.123679,63.4803799 159.087738,63.496506 159.053911,63.496506 C159.033827,63.496506 159,63.4567282 159,63.4137251 C159,63.3642716 159.041226,63.3255689 159.080338,63.3029923 C159.109937,63.2857911 160.572939,62.3042466 160.850951,62.1021322 C160.912262,62.0548289 160.986258,62 161.049683,62 C161.116279,62 161.130021,62.0860061 161.130021,62.1644867 C161.130021,62.2279161 161.096195,62.9976707 161.096195,64.1899301 L161.096195,65.6316072 C161.096195,66.3798602 161.096195,67.0421071 161.123679,67.3829063 C161.147992,67.6355492 161.186047,67.7516574 161.433404,67.8075614 C161.546512,67.8290629 161.874207,67.8516395 161.938689,67.8516395 C161.96723,67.8516395 162,67.8774413 162,67.9322702 C162,67.9870991 161.960888,68 161.874207,68 C161.292812,68 160.803383,67.9763483 160.596195,67.9763483 C160.419662,67.9763483 159.775899,68 159.284355,68 C159.201903,68 159.163848,67.9870991 159.163848,67.9322702 C159.163848,67.8774413 159.194503,67.8516395 159.224101,67.8516395 C159.308668,67.8516395 159.690275,67.8290629 159.837209,67.7989608 C160.075053,67.7441319 160.120507,67.6355492 160.14482,67.3829063 C160.174419,67.0421071 160.174419,66.3798602 160.174419,65.6316072 L160.174419,64.3909694" id="Fill-242"></path>
                <path d="M169.056105,62.3262361 C168.380711,62.3262361 168.111408,62.8034489 168.111408,63.2310399 C168.111408,63.7082527 168.44483,64.0197079 169.149078,64.4103466 C169.373497,64.3121591 169.907828,64.0112617 169.907828,63.2415977 C169.907828,62.6661974 169.520972,62.3262361 169.056105,62.3262361 Z M169.010152,67.6484251 C169.612877,67.6484251 170.103393,67.1965511 170.103393,66.4923456 C170.103393,65.7279606 169.482501,65.3689952 168.793214,64.970966 C168.374299,65.2064051 167.87844,65.6741158 167.87844,66.4553933 C167.87844,67.1374274 168.380711,67.6484251 169.010152,67.6484251 Z M167,66.4997361 C167,65.6508886 167.6786,65.0860461 168.429869,64.7862045 C167.786535,64.456801 167.3035,64.0366004 167.3035,63.3883512 C167.3035,62.7876122 167.822869,62 169.13946,62 C170.084157,62 170.730697,62.4265353 170.730697,63.1698047 C170.730697,63.9743093 170.015763,64.4261834 169.592573,64.5877178 C170.138659,64.8780574 171,65.3521028 171,66.3012493 C171,67.2049974 170.246594,68 168.94817,68 C167.799359,68 167,67.4414922 167,66.4997361 L167,66.4997361 Z" id="Fill-243"></path>
                <path d="M177,65.802921 C177,64.3121591 178.173319,62.711596 179.82563,62.0464543 C179.896008,62.0158367 179.955882,62 179.992647,62 C180.040966,62 180.085084,62.0232272 180.085084,62.0675699 C180.085084,62.1372515 179.976891,62.1900405 179.896008,62.2386064 C179.003151,62.7443252 177.952731,63.9838114 177.952731,65.812423 C177.952731,66.7045575 178.341387,67.6632061 179.112395,67.6632061 C179.635504,67.6632061 180.069328,67.2651768 180.069328,66.3793771 C180.069328,65.3140947 179.497899,64.846384 178.995798,64.846384 C178.805672,64.846384 178.706933,64.8706669 178.60084,64.9012845 C178.539916,64.9171212 178.470588,64.9435157 178.433824,64.9435157 C178.40021,64.9435157 178.371849,64.9245117 178.371849,64.8706669 C178.371849,64.8168221 178.407563,64.7862045 178.453782,64.7555868 C178.683824,64.5940524 179.026261,64.4800282 179.444328,64.4800282 C180.515756,64.4800282 181,65.3521028 181,66.0341369 C181,67.2187225 180.122899,68 179.011555,68 C177.837185,68 177,67.1881049 177,65.802921" id="Fill-244"></path>
                <path d="M186.106737,68 C186.05284,68 186,67.9557474 186,67.8931462 C186,67.8305451 186.073976,67.7603886 186.15535,67.6891527 C187.226948,66.7253103 188.748745,65.5045872 188.748745,63.8553697 C188.748745,62.6184566 188.081902,62.3680518 187.701453,62.3680518 C187.371731,62.3680518 187.117041,62.430653 186.889828,62.6486778 C186.704888,62.8289261 186.56856,63.1958985 186.56856,63.4009714 C186.56856,63.4797625 186.54531,63.5466811 186.464993,63.5466811 C186.429062,63.5466811 186.404756,63.4937938 186.398415,63.4009714 C186.391017,63.3308149 186.351915,62.6810577 186.351915,62.4533189 C186.351915,62.3831624 186.357199,62.3518618 186.443857,62.296816 C186.745046,62.140313 187.156143,62 187.829326,62 C189.178864,62 189.753765,62.7533729 189.753765,63.6654074 C189.753765,65.1840259 188.108322,66.5072855 187.117041,67.3124663 C187.078996,67.3437669 187.096962,67.3685915 187.135007,67.3685915 L187.653897,67.3685915 C187.78177,67.3685915 188.68745,67.3513222 188.972787,67.3211009 C189.499075,67.2520237 189.753765,66.9897464 189.845707,66.6238532 C189.87107,66.5299514 189.891149,66.4997302 189.939762,66.4997302 C189.989432,66.4997302 190,66.5698867 190,66.6465192 C190,66.7749595 189.853104,67.5002698 189.778071,67.7668645 C189.71572,67.9784134 189.593131,68 189.111229,68 L186.106737,68" id="Fill-245"></path>
            </g>
        </g>
    </g>
</svg>