<?xml version="1.0" encoding="UTF-8"?>
<svg width="179px" height="43px" viewBox="0 0 179 43" version="1.1" xmlns="http://www.w3.org/2000/svg" xmlns:xlink="http://www.w3.org/1999/xlink">
    <!-- Generator: Sketch 50.2 (55047) - http://www.bohemiancoding.com/sketch -->
    <title>Logo</title>
    <desc>Created with Sketch.</desc>
    <defs>
        <polygon id="path-1" points="-6.37e-14 8.94380523e-15 -6.37e-14 21 21 21 21 0 -6.36908541e-14 0"></polygon>
    </defs>
    <g id="2.-Design" stroke="none" stroke-width="1" fill="none" fill-rule="evenodd">
        <g id="smack-website-project-4-1" transform="translate(-266.000000, -152.000000)">
            <g id="Header">
                <g id="Logo" transform="translate(266.000000, 152.000000)">
                    <g id="Group-3" transform="translate(0.000000, 1.000000)">
                        <mask id="mask-2" fill="white">
                            <use xlink:href="#path-1"></use>
                        </mask>
                        <g id="Clip-2"></g>
                        <path d="M6,17.9173901 C6.28242416,17.9455387 6.56923184,17.9657322 6.86167548,17.9798065 C7.1534929,17.9932688 7.52045644,18 7.96381854,18 C10.2708043,18 12.0198302,17.3085249 13.2115224,15.922515 C14.4032146,14.537729 15,12.4969595 15,9.80020652 C15,7.14016904 14.3706513,5.17466631 13.1132062,3.90492217 C11.8557612,2.63517803 9.89945728,2 7.24304203,2 C6.91302533,2 6.66316449,2.0024477 6.49408572,2.00673117 C6.32438074,2.01162657 6.16469524,2.01835775 6.01377679,2.02753662 L6,17.9173901 Z M0,21 L0,19.9212695 C0,19.7419007 0.0348629601,19.5946294 0.103931088,19.4807145 C0.172999217,19.3674289 0.321002349,19.253514 0.549256069,19.1402284 C1.12219264,18.8375041 1.48397807,18.517787 1.63198121,18.1817065 C1.78064213,17.8462553 1.85497259,17.3421344 1.85497259,16.669344 L1.85497259,4.33065604 C1.85497259,3.64905446 1.79314017,3.14996853 1.66947533,2.8327689 C1.54581049,2.51556928 1.24125294,2.192076 0.756460454,1.86040099 C0.588723571,1.75592651 0.474925607,1.64704648 0.415724354,1.5337609 C0.356523101,1.41984596 0.326264683,1.26879851 0.326264683,1.07873048 L0.326264683,0 L7.95467502,0 C12.0704777,0 15.2726077,0.906914017 17.5617228,2.71885396 C19.8534691,4.53205263 21,7.05706237 21,10.2945125 C21,13.5130818 19.8396554,16.1016573 17.5189663,18.0608685 C15.1982772,20.0207091 12.1250744,21 8.29541112,21 L0,21 Z" id="Fill-1" fill="#FFFFFF" mask="url(#mask-2)"></path>
                    </g>
                    <path d="M33.2397716,18.4631222 C33.2397716,19.1877304 33.3063749,19.7184943 33.4402157,20.055414 C33.5740565,20.3923337 33.917856,20.7246381 34.4703457,21.0516678 C34.6803045,21.1703479 34.8211227,21.2896874 34.8921662,21.4083675 C34.9651126,21.527707 35,21.6819912 35,21.8699014 L35,23 L27,23 L27,21.8699014 C27,21.6819912 27.0310815,21.527707 27.0938788,21.4083675 C27.1547732,21.2896874 27.2917856,21.1703479 27.5011101,21.0516678 C28.0535997,20.7345281 28.4024738,20.3995864 28.5458294,20.047502 C28.6885506,19.696077 28.7608627,19.1679504 28.7608627,18.4631222 L28.7608627,5.53687775 C28.7608627,4.80303893 28.7031399,4.272275 28.5883286,3.9452453 C28.4747859,3.6182156 28.1880748,3.28591123 27.7300983,2.94899152 C27.5493181,2.82965205 27.4294323,2.71031258 27.3723438,2.59163245 C27.314621,2.47295232 27.2860768,2.31932748 27.2860768,2.1300986 L27.2860768,1 L34.685379,1 L34.685379,2.1300986 C34.685379,2.32921749 34.6542975,2.48745767 34.5927688,2.60679713 C34.5299715,2.72547727 34.4221376,2.83954206 34.2699017,2.94899152 C33.8030447,3.27602122 33.5144307,3.59843558 33.4034253,3.91557527 C33.2943229,4.23337429 33.2397716,4.7733689 33.2397716,5.53687775 L33.2397716,18.4631222" id="Fill-4" fill="#FFFFFF"></path>
                    <path d="M45,21.6400557 L45,15.766071 L46.3921636,15.766071 C46.7889141,15.766071 47.1232906,16.0634718 47.3933639,16.6582734 C47.5091096,16.8988744 47.6017062,17.0756556 47.6685815,17.1911696 C48.1424958,17.9684962 48.7861705,18.5658505 49.5983195,18.983871 C50.4111116,19.4012532 51.3447936,19.6099443 52.3987225,19.6099443 C53.6166245,19.6099443 54.5792429,19.3029705 55.2852917,18.6883848 C55.9913405,18.0744372 56.3443649,17.2396728 56.3443649,16.1834532 C56.3443649,15.3767696 56.0922965,14.7347412 55.5900887,14.2541773 C55.087238,13.7742516 53.9593604,13.2368879 52.2096712,12.6414481 C52.0559866,12.5935832 51.8032752,12.5118937 51.455395,12.3963797 C49.4729284,11.7543514 48.0318944,11.0721165 47.1322931,10.3522279 C46.5516354,9.88251334 46.1137309,9.30366674 45.8185793,8.61696449 C45.5240708,7.93090044 45.3768166,7.15102112 45.3768166,6.27732653 C45.3768166,4.4156997 45.9767651,2.90316779 47.1760192,1.74228359 C48.3746303,0.580761197 49.9461997,0 51.8907275,0 C52.6829425,0 53.4918764,0.136574611 54.3130278,0.410362033 C55.1354653,0.683511256 55.5849445,0.820724066 55.6627513,0.820724066 C55.7296266,0.820724066 55.8363699,0.801578092 55.981695,0.762647946 C56.1270202,0.724994198 56.2286192,0.705210026 56.286492,0.705210026 L57.9834527,0.705210026 L57.9834527,6.0756556 L56.6343722,6.0756556 C56.2575556,6.0756556 56.0054872,5.85483871 55.880096,5.41384312 C55.7836413,5.0679392 55.6717538,4.78521699 55.5463626,4.56376189 C55.1200326,3.82536551 54.601106,3.27332328 53.9870108,2.90827338 C53.3729155,2.54322349 52.6540061,2.36069854 51.8328546,2.36069854 C50.9821237,2.36069854 50.3024392,2.58406823 49.7938012,3.03080761 C49.2870922,3.4769088 49.0324517,4.06979578 49.0324517,4.80883036 C49.0324517,5.95120678 50.2516397,6.91616384 52.6887298,7.70242516 C53.0655464,7.82751218 53.3555537,7.92388025 53.5587517,7.99089116 C54.9226219,8.44209793 55.920607,8.83841959 56.5539932,9.17857972 C57.1886655,9.51937805 57.7513182,9.92016709 58.2451665,10.3809469 C58.8348266,10.9189487 59.2746603,11.5711882 59.5646676,12.3389417 C59.8546748,13.1073335 60,14.0046414 60,15.0315038 C60,17.1624507 59.3788314,18.8568693 58.1371372,20.1141216 C56.8928709,21.3720121 55.2184164,22 53.1092725,22 C52.2006688,22 51.191752,21.8468322 50.0838085,21.5398584 C48.9771509,21.2335229 48.3122562,21.0784405 48.0897672,21.0784405 C47.8087624,21.0784405 47.5039654,21.1728939 47.1760192,21.3586099 C46.84743,21.5475168 46.6339435,21.6400557 46.5374887,21.6400557 L45,21.6400557" id="Fill-5" fill="#FFFFFF"></path>
                    <path d="M74.2449934,12.9444961 L74.2449934,18.4631222 C74.2449934,19.177181 74.3141917,19.7033296 74.4532233,20.0402493 C74.59162,20.3771691 74.9420558,20.7147481 75.5058002,21.0516678 C75.6968892,21.1611173 75.8283026,21.2745227 75.8987707,21.3938622 C75.9717781,21.5125423 76.0073296,21.6714418 76.0073296,21.8699014 L76.0073296,23 L68,23 L68,21.8699014 C68,21.6819912 68.0342818,21.527707 68.1009407,21.4083675 C68.1669649,21.2896874 68.3104404,21.1703479 68.5300975,21.0516678 C69.0836844,20.7345281 69.4328505,20.3995864 69.576326,20.047502 C69.7191666,19.696077 69.7909044,19.1679504 69.7909044,18.4631222 L69.7909044,5.53687775 C69.7909044,4.82281895 69.7312287,4.29996703 69.6118774,3.96766266 C69.4925261,3.63535829 69.1985918,3.29646057 68.7313441,2.94899152 C68.5681884,2.83954206 68.4589946,2.72547727 68.4012235,2.60679713 C68.3440873,2.48745767 68.3155191,2.32921749 68.3155191,2.1300986 L68.3155191,1 L75.7057771,1 L75.7057771,2.1300986 C75.7057771,2.31932748 75.677209,2.47493032 75.6200727,2.59888513 C75.5623016,2.72349927 75.4486639,2.83954206 75.2759855,2.94899152 C74.8087378,3.27602122 74.5198823,3.59843558 74.4094188,3.91557527 C74.2995902,4.23337429 74.2449934,4.7733689 74.2449934,5.53687775 L74.2449934,10.47529 L83.7556415,10.47529 L83.7556415,5.53687775 C83.7556415,4.80303893 83.6978704,4.272275 83.5835979,3.9452453 C83.4693253,3.6182156 83.1823743,3.28591123 82.7246494,2.94899152 C82.5519709,2.83954206 82.4402378,2.72547727 82.3881803,2.60679713 C82.3348531,2.48745767 82.3088244,2.32921749 82.3088244,2.1300986 L82.3088244,1 L89.6990824,1 L89.6990824,2.1300986 C89.6990824,2.31932748 89.6698794,2.47493032 89.6127431,2.59888513 C89.5556069,2.72349927 89.4413343,2.83954206 89.2692907,2.94899152 C88.8020431,3.27602122 88.5131875,3.59843558 88.4039938,3.91557527 C88.2928955,4.23337429 88.2382986,4.7733689 88.2382986,5.53687775 L88.2382986,18.4631222 C88.2382986,19.177181 88.307497,19.7033296 88.4452588,20.0402493 C88.5849253,20.3771691 88.9347261,20.7147481 89.4991054,21.0516678 C89.6895596,21.1611173 89.8197034,21.2745227 89.8927108,21.3938622 C89.9631789,21.5125423 90,21.6714418 90,21.8699014 L90,23 L81.9933052,23 L81.9933052,21.8699014 C81.9933052,21.6819912 82.027587,21.527707 82.094246,21.4083675 C82.1602701,21.2896874 82.3037456,21.1703479 82.5234028,21.0516678 C83.0585791,20.7444181 83.3969527,20.4173884 83.5404282,20.0699194 C83.6832689,19.7231097 83.7556415,19.1877304 83.7556415,18.4631222 L83.7556415,12.9444961 L74.2449934,12.9444961" id="Fill-6" fill="#FFFFFF"></path>
                    <path d="M108.993073,2 C107.117866,2 105.649867,2.748499 104.589679,4.245497 C103.530094,5.74312505 103,7.82795938 103,10.5 C103,13.1720406 103.530094,15.257505 104.589679,16.754503 C105.649867,18.2521311 107.117866,19 108.993073,19 C110.877315,19 112.349531,18.2521311 113.409718,16.754503 C114.469906,15.257505 115,13.1720406 115,10.5 C115,7.81850864 114.469906,5.7311541 113.409718,4.23856645 C112.349531,2.7459788 110.877315,2 108.993073,2 Z M98,11 C98,9.33940589 98.2972131,7.80389882 98.8935086,6.39284057 C99.4879347,4.98178232 100.352158,3.762822 101.486179,2.73532142 C102.498697,1.82397308 103.625241,1.13982362 104.865809,0.683511256 C106.108871,0.228475284 107.479665,0 108.978815,0 C110.449303,0 111.813243,0.228475284 113.069389,0.683511256 C114.325535,1.13982362 115.463918,1.82397308 116.485159,2.73532142 C117.618557,3.77175679 118.489011,5.00284289 119.09216,6.42857972 C119.697802,7.85367835 120,9.37833604 120,11 C120,12.6325133 119.697802,14.1584474 119.09216,15.5784405 C118.489011,16.9990717 117.618557,18.2231376 116.485159,19.25 C115.48261,20.1626247 114.353574,20.8486888 113.097428,21.3088304 C111.841282,21.7696101 110.469242,22 108.978815,22 C107.479665,22 106.108871,21.7721629 104.865809,21.3171269 C103.625241,20.8614528 102.498697,20.1715595 101.486179,19.25 C100.352158,18.2231376 99.4879347,17.0041773 98.8935086,15.5931191 C98.2972131,14.1820608 98,12.6510211 98,11 Z" id="Fill-7" fill="#FFFFFF"></path>
                    <path d="M136.993675,2 C135.117866,2 133.650469,2.748499 132.590282,4.245497 C131.530094,5.74312505 131,7.82795938 131,10.5 C131,13.1720406 131.530094,15.257505 132.590282,16.754503 C133.650469,18.2521311 135.117866,19 136.993675,19 C138.877918,19 140.350133,18.2521311 141.410321,16.754503 C142.469906,15.257505 143,13.1720406 143,10.5 C143,7.81850864 142.469906,5.7311541 141.410321,4.23856645 C140.350133,2.7459788 138.877918,2 136.993675,2 Z M126,11 C126,9.33940589 126.297222,7.80389882 126.892911,6.39284057 C127.487354,4.98178232 128.352225,3.762822 129.485654,2.73532142 C130.498201,1.82397308 131.6254,1.13982362 132.866004,0.683511256 C134.108477,0.228475284 135.47931,0 136.979126,0 C138.449656,0 139.813635,0.228475284 141.069193,0.683511256 C142.325998,1.13982362 143.464412,1.82397308 144.485683,2.73532142 C145.619112,3.77175679 146.488968,5.00284289 147.092758,6.42857972 C147.698417,7.85367835 148,9.37833604 148,11 C148,12.6325133 147.698417,14.1584474 147.092758,15.5784405 C146.488968,16.9990717 145.619112,18.2231376 144.485683,19.25 C143.482482,20.1626247 142.354037,20.8486888 141.097856,21.3088304 C139.841051,21.7696101 138.468972,22 136.979126,22 C135.47931,22 134.108477,21.7721629 132.866004,21.3171269 C131.6254,20.8614528 130.498201,20.1715595 129.485654,19.25 C128.352225,18.2231376 127.487354,17.0041773 126.892911,15.5931191 C126.297222,14.1820608 126,12.6510211 126,11 Z" id="Fill-8" fill="#FFFFFF"></path>
                    <path d="M171.605854,23 L171.605854,21.8699014 C171.605854,21.6819912 171.638202,21.527707 171.702286,21.4083675 C171.76576,21.2896874 171.903695,21.1703479 172.115479,21.0516678 C172.647687,20.7345281 172.982148,20.3995864 173.120082,20.047502 C173.258017,19.696077 173.326984,19.1679504 173.326984,18.4631222 L173.326984,4.59996404 L167.006408,23 L165.43664,23 L159.253999,4.59996404 L159.253999,18.4631222 C159.253999,19.1877304 159.318694,19.7184943 159.447473,20.055414 C159.576253,20.3923337 159.907052,20.7246381 160.438649,21.0516678 C160.640058,21.1703479 160.775551,21.2896874 160.845739,21.4083675 C160.912875,21.527707 160.948275,21.6819912 160.948275,21.8699014 L160.948275,23 L155,23 L155,21.8699014 C155,21.6819912 155.032347,21.527707 155.096432,21.4083675 C155.159906,21.2896874 155.297841,21.1703479 155.509625,21.0516678 C156.041223,20.7345281 156.376294,20.3995864 156.514228,20.047502 C156.652163,19.696077 156.72113,19.1679504 156.72113,18.4631222 L156.72113,5.53687775 C156.72113,4.82281895 156.663149,4.29996703 156.549627,3.96766266 C156.434275,3.63535829 156.151082,3.29646057 155.701879,2.94899152 C155.545635,2.83954206 155.440048,2.72547727 155.385118,2.60679713 C155.330188,2.48745767 155.302724,2.32921749 155.302724,2.1300986 L155.302724,1 L162.10485,1 L166.924014,15.8152366 L171.89454,1 L178.683239,1 L178.683239,2.1300986 C178.683239,2.32921749 178.655774,2.48745767 178.600844,2.60679713 C178.545915,2.72547727 178.4446,2.83954206 178.29751,2.94899152 C177.848308,3.27602122 177.570608,3.59843558 177.4638,3.91557527 C177.358823,4.23337429 177.306335,4.7733689 177.306335,5.53687775 L177.306335,18.4631222 C177.306335,19.1877304 177.370419,19.7184943 177.499199,20.055414 C177.627979,20.3923337 177.958777,20.7246381 178.490375,21.0516678 C178.683239,21.1611173 178.81568,21.2778194 178.88953,21.4011149 C178.96338,21.525729 179,21.6819912 179,21.8699014 L179,23 L171.605854,23" id="Fill-9" fill="#FFFFFF"></path>
                    <path d="M9.41939547,39.3159952 L10.4187657,39.3159952 C10.6416877,39.3159952 10.8041562,39.3003629 10.906801,39.2690984 C11.0094458,39.2384852 11.0906801,39.1850749 11.1511335,39.1101703 C11.1656171,39.0912813 11.1838791,39.0554573 11.2052897,39.0033498 C11.2443325,38.9030427 11.2965995,38.8535405 11.3633501,38.8535405 L11.5761965,38.8535405 L11.5761965,40.3763841 L11.3816121,40.3763841 C11.2965995,40.3763841 11.2399244,40.3229739 11.2096977,40.213548 C11.1952141,40.154927 11.1782116,40.1080301 11.1599496,40.0735089 C11.0906801,39.945194 11.0018892,39.8566111 10.8935768,39.809063 C10.7846348,39.7608635 10.6209068,39.7367637 10.4005038,39.7367637 L9.41939547,39.7367637 L9.41939547,41.8783847 C9.41939547,42.0770448 9.44143577,42.2242486 9.48551637,42.3173909 C9.52896725,42.4111845 9.63664987,42.4984647 9.80793451,42.5798828 L9.81738035,42.5837908 C9.91372796,42.6345957 9.96221662,42.7023355 9.96221662,42.7889644 L9.96221662,43 L8,43 L8,42.7889644 C8.00314861,42.7023355 8.05289673,42.6345957 8.14924433,42.5837908 L8.15806045,42.5798828 C8.3243073,42.4984647 8.42884131,42.4124872 8.47292191,42.3199963 C8.5163728,42.2281567 8.53778338,42.0809528 8.53778338,41.8783847 L8.53778338,37.1971713 C8.53778338,36.9985112 8.5163728,36.8539127 8.47292191,36.7627245 C8.42884131,36.6728389 8.32556675,36.5881641 8.16309824,36.5106541 C8.09634761,36.4761329 8.05289673,36.4435656 8.03211587,36.4116498 C8.01070529,36.3810366 8,36.3400019 8,36.2865916 L8,36.0859775 L12.2493703,36.0859775 C12.3551637,36.0859775 12.4710327,36.07751 12.5976071,36.0644831 C12.7241814,36.0495022 12.8583123,36.0293105 13,36 L13,37.3710803 L12.8236776,37.3710803 C12.7147355,37.3710803 12.6397985,37.3065972 12.5976071,37.1789337 C12.5736776,37.1098911 12.5510076,37.0551782 12.529597,37.0154462 C12.4269521,36.8259049 12.2934509,36.6923793 12.127204,36.618126 C11.9609572,36.54257 11.6813602,36.5054434 11.2865239,36.5054434 L9.41939547,36.5054434 L9.41939547,39.3159952" id="Fill-10" fill="#FFFFFF"></path>
                    <path d="M17,39 L17.8503286,39 C18.6224295,39 19.1757473,38.8779804 19.504558,38.6332398 C19.8359127,38.3892006 20,37.9859748 20,37.4249649 C20,37.1458626 19.9503922,36.9032258 19.8486326,36.6963534 C19.749417,36.4873773 19.6031376,36.3204769 19.4104304,36.1970547 C19.2984948,36.1262272 19.1414034,36.0757363 18.9410642,36.045582 C18.740089,36.0154278 18.4189103,36 17.9807081,36 L17,36 L17,39 Z M16.5255369,41.8644371 C16.5255369,42.0655676 16.5505901,42.214602 16.597988,42.3089025 C16.6447088,42.4038625 16.7584639,42.492228 16.9446701,42.5746585 L16.9527955,42.5786152 C17.0584252,42.6300518 17.1085316,42.698634 17.1085316,42.7863401 L17.1085316,43 L15,43 L15,42.7863401 C15.0033856,42.698634 15.0568775,42.6300518 15.1604759,42.5786152 L15.1699555,42.5746585 C15.3487135,42.492228 15.4611143,42.4051813 15.5091894,42.3115403 C15.554556,42.2185586 15.578255,42.0695243 15.578255,41.8644371 L15.578255,37.1250118 C15.578255,36.9238813 15.554556,36.7774847 15.5091894,36.6851625 C15.4611143,36.5941592 15.3500677,36.5084315 15.1746953,36.4299576 C15.1035984,36.3950071 15.0568775,36.3620349 15.0338557,36.3297221 C15.0108338,36.2987282 15,36.2571832 15,36.2031088 L15,36 L17.7612691,36 C18.8920488,36 19.6808861,36.1365049 20.1304895,36.4108337 C20.5780615,36.6851625 20.8028632,37.1494112 20.8028632,37.8029204 C20.8028632,38.2572774 20.6748888,38.6199717 20.4169085,38.8916627 C20.1582511,39.1633537 19.7777133,39.3394253 19.2725866,39.4218559 L21.0500097,42.0213848 C21.1468369,42.1618464 21.2416328,42.2699953 21.3303347,42.3445125 C21.4197137,42.4190297 21.5612304,42.4889308 21.7501451,42.5555346 C21.7636874,42.557513 21.7833237,42.5647668 21.8049913,42.5746585 C21.9336429,42.6148846 22,42.6768724 22,42.7593029 L22,43 L20.5056104,43 L19.0058038,40.7334903 C18.8500677,40.4960904 18.708551,40.3035327 18.583285,40.1531795 C18.4586961,40.0028262 18.3503579,39.8973151 18.255562,39.8379651 C18.1560263,39.7792746 18.0395628,39.733773 17.9061714,39.7054169 C17.7721029,39.6770608 17.5974076,39.662553 17.3807313,39.662553 L16.5255369,39.662553 L16.5255369,41.8644371 Z" id="Fill-11" fill="#FFFFFF"></path>
                    <path d="M26.4971224,36 C25.7144136,36 25.1018033,36.2638175 24.6612099,36.7926854 C24.2206164,37.3209369 24,38.0562975 24,39.0012328 C24,39.9467845 24.2206164,40.6833779 24.6599309,41.2110129 C25.0992454,41.7367988 25.7118557,42 26.4971224,42 C27.2868653,42 27.9020335,41.7367988 28.341348,41.2110129 C28.7806625,40.6833779 29,39.9467845 29,39.0012328 C29,38.0562975 28.7793836,37.3209369 28.3387901,36.7926854 C27.8981967,36.2638175 27.2843075,36 26.4971224,36 Z M23,39.5003191 C23,38.9738354 23.094844,38.4856414 23.2870783,38.0344608 C23.478676,37.5813657 23.7542966,37.1940013 24.1145767,36.8698149 C24.4334819,36.5800893 24.7924889,36.3631142 25.1903246,36.2176133 C25.5875239,36.0727505 26.0235519,36 26.4984087,36 C26.9777212,36 27.4150223,36.0727505 27.8128581,36.2176133 C28.2100573,36.3631142 28.5690643,36.5800893 28.8892425,36.8698149 C29.2450668,37.1940013 29.5194144,37.5813657 29.7116486,38.0344608 C29.9032463,38.4856414 30,38.9738354 30,39.5003191 C30,40.0210593 29.9045194,40.507977 29.7141948,40.9585195 C29.5232336,41.4084237 29.2482495,41.7970645 28.8892425,42.1244416 C28.5690643,42.4148054 28.2100573,42.633695 27.8128581,42.7798341 C27.4150223,42.9266114 26.9777212,43 26.4984087,43 C26.0235519,43 25.5875239,42.9266114 25.1903246,42.7798341 C24.7924889,42.633695 24.4334819,42.4148054 24.1145767,42.1244416 C23.7542966,41.7970645 23.478676,41.4084237 23.2870783,40.9585195 C23.094844,40.507977 23,40.0210593 23,39.5003191 Z" id="Fill-12" fill="#FFFFFF"></path>
                    <path d="M33.0878994,41.8644371 C33.0878994,42.0695243 33.1137229,42.2172398 33.1633835,42.3089025 C33.2156928,42.4012247 33.3414998,42.4889308 33.5441152,42.5746585 C33.6195994,42.6056524 33.6705843,42.6366463 33.6944215,42.6663212 C33.7175964,42.6959962 33.7301771,42.7368818 33.7301771,42.7863401 L33.7301771,43 L32,43 L32,42.7863401 C32,42.7368818 32.0105943,42.6973151 32.0311207,42.668959 C32.0516471,42.6406029 32.1032942,42.609609 32.1860619,42.5746585 C32.3840424,42.492228 32.5105115,42.4051813 32.5634829,42.3115403 C32.6151299,42.2185586 32.6422778,42.0695243 32.6422778,41.8644371 L32.6422778,37.1250118 C32.6422778,36.9271785 32.6177785,36.7821008 32.5701043,36.6897786 C32.5224301,36.5987753 32.4085416,36.5117287 32.2277769,36.4246821 C32.1615627,36.3910504 32.1178613,36.3580782 32.097997,36.3284032 C32.0774706,36.2987282 32.0662142,36.2571832 32.0662142,36.2031088 L32.0662142,36 L33.8016885,36 L36.0112564,41.6936411 L38.2698229,36 L40,36 L40,36.2031088 C40,36.2571832 39.9894057,36.2987282 39.9688793,36.3297221 C39.9483529,36.3620349 39.9053137,36.3936882 39.8371131,36.4246821 C39.6603211,36.5071126 39.5490813,36.5941592 39.5033935,36.6851625 C39.4570435,36.7774847 39.4338686,36.9238813 39.4338686,37.1250118 L39.4338686,41.8644371 C39.4338686,42.0695243 39.4570435,42.2185586 39.5033935,42.3115403 C39.5490813,42.4051813 39.6589969,42.492228 39.8331402,42.5746585 L39.8424102,42.5786152 C39.9470286,42.6300518 40,42.698634 40,42.7863401 L40,43 L37.9738454,43 L37.9738454,42.7863401 C37.9738454,42.7025907 38.0268168,42.6326896 38.1314352,42.5786152 L38.1407052,42.5746585 C38.3148485,42.492228 38.4247641,42.4051813 38.4711141,42.3115403 C38.5168019,42.2185586 38.5399768,42.0695243 38.5399768,41.8644371 L38.5399768,36.5150259 L35.9966893,43 L35.5974176,43 L33.0878994,36.5150259 L33.0878994,41.8644371" id="Fill-13" fill="#FFFFFF"></path>
                    <path d="M48,43 L49.3262274,43 C49.9037468,43 50.3281654,42.8733856 50.5968992,42.6194649 C50.8656331,42.366928 51,41.9697878 51,41.4301199 C51,40.9264299 50.8456072,40.5631919 50.5355297,40.3376384 C50.2273902,40.1120849 49.7235142,40 49.0251938,40 L48,40 L48,43 Z M48,39 L49.1396011,39 C49.767094,39 50.2350427,38.8728989 50.5420228,38.6166245 C50.8490028,38.36035 51,37.9721391 51,37.4533732 C51,36.9346074 50.8397436,36.5622841 50.5156695,36.3370942 C50.1915954,36.1132857 49.6431624,36 48.8689459,36 L48,36 L48,39 Z M47,43 L47,42.7863401 C47.0023978,42.698634 47.0503537,42.6300518 47.1414698,42.5786152 L47.151061,42.5746585 C47.308716,42.492228 47.4082244,42.4051813 47.4501858,42.3115403 C47.4915478,42.2185586 47.5125285,42.0695243 47.5125285,41.8644371 L47.5125285,37.1250118 C47.5125285,36.9238813 47.4915478,36.7774847 47.4501858,36.6851625 C47.4082244,36.5941592 47.3099149,36.5084315 47.1546577,36.4299576 C47.0923151,36.3950071 47.0503537,36.3620349 47.0305719,36.3297221 C47.0095912,36.2987282 47,36.2571832 47,36.2031088 L47,36 L49.3198657,36 C50.0883587,36 50.6734205,36.1490344 51.0768493,36.4490815 C51.4802781,36.7491286 51.6816928,37.1843618 51.6816928,37.7554404 C51.6816928,38.2130947 51.5624026,38.5830429 51.3238221,38.8659444 C51.0864405,39.148846 50.7237741,39.3512953 50.235823,39.4732925 C50.8442633,39.5300047 51.2896535,39.6961846 51.574991,39.9711729 C51.8573313,40.2455016 52,40.6444654 52,41.1693829 C52,41.7681583 51.7997842,42.2231748 51.3981537,42.533773 C50.9959238,42.8450306 50.4090637,43 49.636974,43 L47,43 Z" id="Fill-14" fill="#FFFFFF"></path>
                    <path d="M58.4974418,36 C57.7146329,36 57.1019442,36.2638175 56.6612944,36.7926854 C56.2206447,37.3209369 56,38.0562975 56,39.0012328 C56,39.9467845 56.2206447,40.6833779 56.6600153,41.2110129 C57.099386,41.7367988 57.7120747,42 58.4974418,42 C59.2872858,42 59.9025326,41.7367988 60.3419033,41.2110129 C60.781274,40.6833779 61,39.9467845 61,39.0012328 C61,38.0562975 60.7799949,37.3209369 60.3393451,36.7926854 C59.8986953,36.2638175 59.2847276,36 58.4974418,36 Z M55,39.5003191 C55,38.9738354 55.094844,38.4856414 55.2870783,38.0344608 C55.478676,37.5813657 55.7542966,37.1940013 56.1145767,36.8698149 C56.4334819,36.5800893 56.7924889,36.3631142 57.1903246,36.2176133 C57.5875239,36.0727505 58.0235519,36 58.4984087,36 C58.9777212,36 59.4150223,36.0727505 59.8134946,36.2176133 C60.2100573,36.3631142 60.5690643,36.5800893 60.8892425,36.8698149 C61.2457034,37.1940013 61.5194144,37.5813657 61.7116486,38.0344608 C61.9032463,38.4856414 62,38.9738354 62,39.5003191 C62,40.0210593 61.9045194,40.507977 61.7141948,40.9585195 C61.5232336,41.4084237 61.2482495,41.7970645 60.8892425,42.1244416 C60.5690643,42.4148054 60.2100573,42.633695 59.8134946,42.7798341 C59.4150223,42.9266114 58.9777212,43 58.4984087,43 C58.0235519,43 57.5875239,42.9266114 57.1903246,42.7798341 C56.7924889,42.633695 56.4334819,42.4148054 56.1145767,42.1244416 C55.7542966,41.7970645 55.478676,41.4084237 55.2870783,40.9585195 C55.094844,40.507977 55,40.0210593 55,39.5003191 Z" id="Fill-15" fill="#FFFFFF"></path>
                    <path d="M66.0878093,41.8644371 C66.0878093,42.0695243 66.1136307,42.2172398 66.1639494,42.3089025 C66.2155922,42.4012247 66.3420508,42.4889308 66.5439874,42.5746585 C66.6201275,42.6056524 66.6704461,42.6366463 66.6949433,42.6663212 C66.7174543,42.6959962 66.7300339,42.7368818 66.7300339,42.7863401 L66.7300339,43 L65,43 L65,42.7863401 C65,42.7368818 65.0105934,42.6973151 65.0311181,42.668959 C65.0516428,42.6406029 65.1032856,42.609609 65.1860465,42.5746585 C65.3840106,42.492228 65.5104693,42.4051813 65.5634362,42.3115403 C65.615079,42.2185586 65.6422246,42.0695243 65.6422246,41.8644371 L65.6422246,37.1250118 C65.6422246,36.9271785 65.6177274,36.7821008 65.5707192,36.6897786 C65.5230489,36.5987753 65.4085078,36.5117287 65.227758,36.4246821 C65.1615493,36.3910504 65.1178515,36.3580782 65.0979889,36.3284032 C65.0774642,36.2987282 65.0662087,36.2571832 65.0662087,36.2031088 L65.0662087,36 L66.8022014,36 L69.0115865,41.6936411 L71.269304,36 L73,36 L73,36.2031088 C73,36.2571832 72.9880824,36.2987282 72.9688819,36.3297221 C72.9483572,36.3620349 72.9039974,36.3936882 72.8371265,36.4246821 C72.6596872,36.5071126 72.5484565,36.5941592 72.5027725,36.6851625 C72.4564264,36.7774847 72.4332533,36.9238813 72.4332533,37.1250118 L72.4332533,41.8644371 C72.4332533,42.0695243 72.4564264,42.2185586 72.5027725,42.3115403 C72.5484565,42.4051813 72.658363,42.492228 72.833154,42.5746585 L72.8417612,42.5786152 C72.947033,42.6300518 73,42.698634 73,42.7863401 L73,43 L70.973351,43 L70.973351,42.7863401 C70.973351,42.7025907 71.026318,42.6326896 71.1309277,42.5786152 L71.140197,42.5746585 C71.3143259,42.492228 71.4248945,42.4051813 71.4699164,42.3115403 C71.5162625,42.2185586 71.5400977,42.0695243 71.5400977,41.8644371 L71.5400977,36.5150259 L68.9963585,43 L68.5964578,43 L66.0878093,36.5150259 L66.0878093,41.8644371" id="Fill-16" fill="#FFFFFF"></path>
                    <path d="M76,43 L77.326513,43 C77.9041568,43 78.3280207,42.8733856 78.5968124,42.6194649 C78.8656041,42.366928 79,41.9697878 79,41.4301199 C79,40.9264299 78.8468663,40.5631919 78.5367219,40.3376384 C78.2272238,40.1120849 77.7238854,40 77.0260607,40 L76,40 L76,43 Z M76,39 L77.1386186,39 C77.7673867,39 78.2345122,38.8728989 78.5407073,38.6166245 C78.8483266,38.36035 79,37.9721391 79,37.4533732 C79,36.9346074 78.8390695,36.5622841 78.5143603,36.3370942 C78.1903632,36.1132857 77.6420603,36 76.8694517,36 L76,36 L76,39 Z M75,43 L75,42.7863401 C75.0023975,42.698634 75.0503476,42.6300518 75.1414529,42.5786152 L75.1510429,42.5746585 C75.308679,42.492228 75.4081755,42.4051813 75.4495325,42.3115403 C75.4914889,42.2185586 75.512467,42.0695243 75.512467,41.8644371 L75.512467,37.1250118 C75.512467,36.9238813 75.4914889,36.7774847 75.4495325,36.6851625 C75.4081755,36.5941592 75.3098777,36.5084315 75.1546392,36.4299576 C75.092304,36.3950071 75.0503476,36.3620349 75.0305682,36.3297221 C75.00959,36.2987282 75,36.2571832 75,36.2031088 L75,36 L77.3195876,36 C78.0879885,36 78.6735795,36.1490344 79.0763606,36.4490815 C79.4797411,36.7491286 79.6811316,37.1843618 79.6811316,37.7554404 C79.6811316,38.2130947 79.5618557,38.5830429 79.3233038,38.8659444 C79.0859506,39.148846 78.7239271,39.3512953 78.2354351,39.4732925 C78.8438024,39.5300047 79.2891393,39.6961846 79.5738432,39.9711729 C79.856749,40.2455016 80,40.6444654 80,41.1693829 C80,41.7681583 79.7992088,42.2231748 79.3970271,42.533773 C78.9954447,42.8450306 78.408655,43 77.6366579,43 L75,43 Z" id="Fill-17" fill="#FFFFFF"></path>
                    <path d="M84,40 L87,40 L85.5423515,37 L84,40 Z M83.6685447,40.9919347 L83.2717344,41.9080744 C83.2456444,41.9703052 83.2256219,42.0306113 83.213487,42.0909174 C83.1995319,42.150582 83.1934645,42.2083219 83.1934645,42.2634956 C83.1934645,42.3828247 83.2577793,42.4835487 83.3900494,42.5650261 C83.5192858,42.6465035 83.5854208,42.7189992 83.5854208,42.7844377 L83.5854208,43 L82,43 L82,42.8107415 C82,42.7132252 82.049753,42.6426542 82.1480454,42.6003116 C82.2002254,42.5778572 82.2426974,42.5586106 82.2748548,42.5400055 C82.3871024,42.468793 82.4987432,42.3545963 82.6067435,42.1948492 C82.7171708,42.0344606 82.8500477,41.784896 83.0059808,41.4442306 L85.118055,36.8718724 L84.9439196,36.5530199 C84.9293577,36.5318486 84.9190431,36.5119604 84.9129756,36.49528 C84.9081217,36.477958 84.9056947,36.4593529 84.9056947,36.4368985 C84.9056947,36.3740262 84.9639421,36.3201356 85.0834706,36.2765099 C85.1271561,36.2604711 85.1593135,36.2489231 85.179336,36.2392998 C85.231516,36.2149207 85.2994713,36.1687288 85.3819884,36.1013656 C85.4638988,36.0346439 85.5294271,36 85.5755396,36 C85.5967756,36 85.6131577,36.0070571 85.6277195,36.0211713 C85.6422814,36.0346439 85.6592702,36.0686463 85.6798995,36.1244616 L88.1535928,41.6059023 L88.1669411,41.6424709 C88.3956835,42.1422418 88.6171448,42.457245 88.8295051,42.5861974 C88.8379995,42.5887636 88.8464939,42.5938961 88.855595,42.6003116 C88.9514605,42.6554853 89,42.7228485 89,42.8030428 L89,43 L87.0141285,43 L87.0141285,42.7844377 C87.0141285,42.7189992 87.0778365,42.6465035 87.2088931,42.5650261 C87.3399497,42.4835487 87.4042645,42.3828247 87.4042645,42.2634956 C87.4042645,42.2147374 87.3969836,42.1595637 87.3806015,42.0979745 C87.3648262,42.0357437 87.3423767,41.9715883 87.3138598,41.9042251 L86.939499,40.9919347 L83.6685447,40.9919347 Z" id="Fill-18" fill="#FFFFFF"></path>
                    <path d="M91.2175892,37.3769195 L91.1655832,37.3142723 C90.9296062,36.9997174 90.761237,36.7946302 90.6617756,36.7009892 C90.5746657,36.6178992 90.4335996,36.5367876 90.2372771,36.4583137 C90.2067236,36.4464437 90.1826709,36.436552 90.1683692,36.4299576 C90.1014116,36.3989637 90.0591568,36.366651 90.0377043,36.3349976 C90.0143016,36.3040038 90.0026003,36.259821 90,36.2031088 L90,36 L92.2213039,36 L92.2213039,36.1833255 C92.2213039,36.265756 92.1679978,36.3336788 92.0613856,36.3890721 C91.9560736,36.4451248 91.9040676,36.5150259 91.9040676,36.6000942 C91.9040676,36.6541686 91.9196694,36.7121997 91.9547734,36.7761658 C91.9898774,36.838813 92.0548848,36.9331135 92.1510958,37.0603862 L93.7652303,39.2002826 L95.3709138,37.1546868 C95.4892273,37.0063118 95.5691865,36.8942063 95.6133915,36.8177108 C95.6569465,36.7425341 95.678399,36.6765897 95.678399,36.6198775 C95.678399,36.5625059 95.6627972,36.5176637 95.6315936,36.4866698 C95.6010401,36.4556759 95.5197808,36.4194065 95.3891159,36.378521 C95.3611627,36.3679699 95.3403603,36.3528026 95.3260587,36.3297221 C95.3117571,36.3079604 95.3052563,36.2624588 95.3052563,36.1932171 L95.3052563,36 L97,36 L97,36.1457372 C97,36.2756477 96.9278418,36.3752237 96.7841753,36.4490815 C96.7282689,36.4774376 96.6821137,36.5031559 96.6457095,36.5242581 C96.5390973,36.5816298 96.4214339,36.6706547 96.2907689,36.7919925 C96.160104,36.9139896 96.0255386,37.0603862 95.888373,37.2305228 L93.8906947,39.733773 L93.8906947,41.8644371 C93.8906947,42.0695243 93.9212481,42.2185586 93.9797548,42.3128592 C94.0389116,42.4078191 94.1786776,42.4961846 94.4003529,42.5746585 C94.4861627,42.609609 94.5427192,42.6406029 94.5680721,42.668959 C94.5927749,42.6973151 94.6064264,42.7368818 94.610977,42.7863401 L94.610977,43 L92.2668091,43 L92.2668091,42.7863401 C92.2668091,42.7368818 92.2804606,42.6959962 92.3038633,42.6663212 C92.3292162,42.6366463 92.3838224,42.6056524 92.4683321,42.5746585 C92.6919577,42.4961846 92.8330238,42.4078191 92.8934807,42.3115403 C92.9519874,42.2159209 92.9812407,42.0655676 92.9812407,41.8644371 L92.9812407,39.733773 L91.2175892,37.3769195" id="Fill-19" fill="#FFFFFF"></path>
                    <path d="M107.04249,36.6592874 L107.463794,38 L107.931777,36.6793497 C107.958707,36.6101695 107.975464,36.5492909 107.985637,36.4974057 C107.995212,36.4462124 108,36.3998616 108,36.3569699 C108,36.2310619 107.961101,36.1404358 107.880311,36.0837081 C107.80012,36.0269803 107.670257,36 107.489527,36 C107.326152,36 107.203471,36.0311311 107.122681,36.0961605 C107.040096,36.1598063 107,36.2580422 107,36.3853338 C107,36.4296091 107.003591,36.4745763 107.01137,36.5236942 C107.017953,36.5714286 107.028127,36.6163957 107.04249,36.6592874 Z M106.595543,37.1964302 C106.580685,37.1565274 106.563351,37.1028876 106.542303,37.036819 C106.4513,36.7489954 106.287247,36.5442482 106.05324,36.421269 C105.994428,36.3905243 105.954808,36.3591253 105.933141,36.3270722 C105.912712,36.2963274 105.902187,36.2551163 105.902187,36.2014765 L105.902187,36 L109.470491,36 L109.470491,36.2014765 C109.470491,36.2551163 109.459967,36.2976357 109.437061,36.3296888 C109.416013,36.3637043 109.377012,36.3944491 109.320677,36.421269 C109.056335,36.5403233 108.845852,36.7941314 108.68799,37.1833474 C108.66818,37.2356789 108.653322,37.2729651 108.645274,37.2958602 L108.030541,38.7611438 L109.043954,41.6478834 L110.696863,37.3377254 C110.760627,37.1781142 110.803343,37.050556 110.831201,36.9550509 C110.856583,36.8602 110.87144,36.7882441 110.87144,36.7404915 C110.87144,36.6090085 110.7922,36.5082703 110.636195,36.4356602 C110.625671,36.4330436 110.615766,36.4278105 110.604622,36.421269 C110.548287,36.3944491 110.509286,36.3637043 110.486381,36.3296888 C110.464094,36.2976357 110.45357,36.2551163 110.45357,36.2014765 L110.45357,36 L112,36 L112,36.2014765 C112,36.2917484 111.955427,36.362396 111.866281,36.4127652 C111.860091,36.4160359 111.855138,36.4186525 111.848948,36.421269 C111.700371,36.5030371 111.571605,36.6162041 111.461411,36.7574993 C111.352456,36.9001028 111.255881,37.0806467 111.172926,37.2997851 L108.987,43 L108.698514,43 L107.560669,39.8875806 L106.240198,43 L105.947379,43 L103.781882,37.1911971 C103.705737,36.9844874 103.620924,36.8261845 103.529303,36.7136716 C103.4383,36.6005046 103.312629,36.5030371 103.152291,36.421269 C103.088527,36.3905243 103.048287,36.3591253 103.029715,36.3270722 C103.009905,36.2963274 103,36.2551163 103,36.2014765 L103,36 L104.965539,36 L104.965539,36.2014765 C104.965539,36.2917484 104.89806,36.3722082 104.764961,36.4428558 C104.631861,36.5135034 104.564383,36.6063919 104.564383,36.7221755 C104.564383,36.7588076 104.576145,36.815064 104.595955,36.8896365 C104.616385,36.9635548 104.646719,37.0518643 104.684482,37.1539108 L106.352249,41.72311 L107.368758,39.3282871 L106.595543,37.1964302 Z" id="Fill-20" fill="#FFFFFF"></path>
                    <path d="M115.447191,41.8644371 C115.447191,42.0655676 115.469663,42.214602 115.513965,42.3089025 C115.558909,42.4038625 115.668058,42.492228 115.843339,42.5746585 L115.85297,42.5786152 C115.951204,42.6300518 116,42.698634 116,42.7863401 L116,43 L114,43 L114,42.7863401 C114.002568,42.698634 114.053933,42.6300518 114.150883,42.5786152 L114.161798,42.5746585 C114.330016,42.492228 114.437239,42.4051813 114.481541,42.3115403 C114.526485,42.2185586 114.548957,42.0695243 114.548957,41.8644371 L114.548957,37.1250118 C114.548957,36.9238813 114.526485,36.7774847 114.481541,36.6851625 C114.437239,36.5941592 114.3313,36.5084315 114.16565,36.4299576 C114.098234,36.3950071 114.053933,36.3620349 114.032745,36.3297221 C114.010273,36.2987282 114,36.2571832 114,36.2031088 L114,36 L116,36 L116,36.2031088 C116,36.2571832 115.990369,36.2987282 115.972392,36.3284032 C115.953772,36.3580782 115.908828,36.3923693 115.839486,36.4299576 C115.667416,36.5123881 115.558909,36.5987753 115.513965,36.6897786 C115.469663,36.7821008 115.447191,36.9271785 115.447191,37.1250118 L115.447191,41.8644371" id="Fill-21" fill="#FFFFFF"></path>
                    <path d="M119.621638,36.512084 C119.301887,36.512084 119.067644,36.5400632 118.917102,36.5947202 C118.767764,36.6493772 118.629868,36.7424242 118.506423,36.8771147 C118.452228,36.9363265 118.396226,37.0150586 118.342031,37.1146124 C118.281815,37.2297825 118.206544,37.2883436 118.117423,37.2883436 L118,37.2883436 L118,36 C118.086712,36.0299312 118.185468,36.0533556 118.293858,36.0689719 C118.404055,36.0845882 118.536532,36.093047 118.691891,36.093047 L123.312927,36.093047 C123.466479,36.093047 123.59715,36.0845882 123.706142,36.0689719 C123.815737,36.0533556 123.913288,36.0299312 124,36 L124,37.2883436 L123.878964,37.2883436 C123.789843,37.2883436 123.718185,37.2349879 123.66399,37.1282766 C123.608591,37.0228667 123.554396,36.9389292 123.498394,36.8771147 C123.37495,36.746979 123.234043,36.6532813 123.077479,36.5979736 C122.920313,36.5413646 122.685468,36.512084 122.374749,36.512084 L121.416098,36.512084 L121.416098,41.8795315 C121.416098,42.0779885 121.443798,42.2263432 121.500401,42.3206916 C121.555801,42.4156906 121.687676,42.5028816 121.895424,42.5803123 C121.973705,42.6108942 122.024287,42.6414761 122.046568,42.6707566 C122.06945,42.7000372 122.080289,42.7403793 122.080289,42.7891801 L122.080289,43 L119.911883,43 L119.911883,42.7891801 C119.914894,42.7403793 119.926937,42.7013385 119.950422,42.6733594 C119.973304,42.6453802 120.025692,42.6147983 120.105781,42.5803123 C120.31112,42.5028816 120.440586,42.4156906 120.495383,42.3219929 C120.549578,42.2289459 120.576074,42.0818925 120.576074,41.8795315 L120.576074,36.512084 L119.621638,36.512084" id="Fill-22" fill="#FFFFFF"></path>
                    <path d="M128.478033,41.8644371 C128.478033,42.0655676 128.500984,42.214602 128.54623,42.3089025 C128.592131,42.4038625 128.703607,42.492228 128.882623,42.5746585 L128.891803,42.5786152 C128.993443,42.6300518 129.042623,42.698634 129.042623,42.7863401 L129.042623,43 L127,43 L127,42.7863401 C127.002623,42.698634 127.055082,42.6300518 127.154754,42.5786152 L127.165246,42.5746585 C127.337049,42.492228 127.445902,42.4051813 127.492459,42.3115403 C127.537705,42.2185586 127.560656,42.0695243 127.560656,41.8644371 L127.560656,37.1250118 C127.560656,36.9238813 127.537705,36.7774847 127.492459,36.6851625 C127.445902,36.5941592 127.338361,36.5084315 127.16918,36.4299576 C127.100984,36.3950071 127.055082,36.3620349 127.033443,36.3297221 C127.010492,36.2987282 127,36.2571832 127,36.2031088 L127,36 L129.042623,36 L129.042623,36.2031088 C129.042623,36.2571832 129.033443,36.2987282 129.014426,36.3284032 C128.996066,36.3580782 128.949508,36.3923693 128.878689,36.4299576 C128.702295,36.5123881 128.592131,36.5987753 128.54623,36.6897786 C128.500984,36.7821008 128.478033,36.9271785 128.478033,37.1250118 L128.478033,39.1804993 L132.516721,39.1804993 L132.516721,37.1250118 C132.516721,36.9238813 132.49377,36.7774847 132.447869,36.6851625 C132.402623,36.5941592 132.291803,36.5071126 132.116721,36.4246821 C132.049836,36.3910504 132.006557,36.3580782 131.986885,36.3284032 C131.966557,36.2987282 131.95541,36.2571832 131.95541,36.2031088 L131.95541,36 L134,36 L134,36.2031088 C134,36.2571832 133.989508,36.2987282 133.96918,36.3297221 C133.948852,36.3620349 133.90623,36.3936882 133.838689,36.4246821 C133.660984,36.5117287 133.548197,36.5987753 133.499672,36.6897786 C133.45377,36.7821008 133.429508,36.9271785 133.429508,37.1250118 L133.429508,41.8644371 C133.429508,42.0655676 133.45377,42.214602 133.499672,42.3089025 C133.548197,42.4038625 133.658361,42.492228 133.834098,42.5746585 L133.843934,42.5786152 C133.947541,42.6326896 134,42.7025907 134,42.7863401 L134,43 L131.95541,43 L131.95541,42.7863401 C131.95541,42.7025907 132.007869,42.6326896 132.112131,42.5786152 L132.121311,42.5746585 C132.29377,42.492228 132.402623,42.4051813 132.447869,42.3115403 C132.49377,42.2185586 132.516721,42.0695243 132.516721,41.8644371 L132.516721,39.6355158 L128.478033,39.6355158 L128.478033,41.8644371" id="Fill-23" fill="#FFFFFF"></path>
                    <path d="M141.5979,37.1250118 C141.5979,36.9238813 141.574096,36.7774847 141.525088,36.6851625 C141.476079,36.5941592 141.36126,36.5084315 141.17993,36.4299576 C141.107118,36.3950071 141.05881,36.3620349 141.035006,36.3297221 C141.010502,36.2987282 141,36.2571832 141,36.2031088 L141,36 L143.180863,36 L143.180863,36.2031088 C143.180863,36.2571832 143.170362,36.2987282 143.150758,36.3284032 C143.130455,36.3580782 143.081447,36.3923693 143.005834,36.4299576 C142.816803,36.5123881 142.699183,36.5987753 142.650875,36.6897786 C142.601867,36.7821008 142.578063,36.9271785 142.578063,37.1250118 L142.578063,42.5746585 L144.879347,42.5746585 C145.304317,42.5746585 145.638973,42.521903 145.881214,42.4190297 C146.124154,42.3128592 146.306884,42.1466792 146.427305,41.9158738 C146.467211,41.8373999 146.506418,41.7338672 146.543524,41.6085728 C146.589732,41.4575601 146.647141,41.3810645 146.712952,41.3810645 L147,41.3810645 L147,43 L141,43 L141,42.7863401 C141.0028,42.698634 141.05881,42.6300518 141.164527,42.5786152 L141.176429,42.5746585 C141.35986,42.492228 141.476079,42.4051813 141.525088,42.3115403 C141.574096,42.2185586 141.5979,42.0695243 141.5979,41.8644371 L141.5979,37.1250118" id="Fill-24" fill="#FFFFFF"></path>
                    <path d="M152.497442,36 C151.713993,36 151.101305,36.2638175 150.661294,36.7926854 C150.220005,37.3209369 150,38.0562975 150,39.0012328 C150,39.9467845 150.220005,40.6833779 150.660015,41.2110129 C151.098746,41.7367988 151.711435,42 152.497442,42 C153.286646,42 153.901893,41.7367988 154.341903,41.2110129 C154.780634,40.6833779 155,39.9467845 155,39.0012328 C155,38.0562975 154.779355,37.3209369 154.339345,36.7926854 C153.898056,36.2638175 153.284088,36 152.497442,36 Z M149,39.5003191 C149,38.9738354 149.094844,38.4856414 149.287078,38.0344608 C149.478676,37.5813657 149.75366,37.1940013 150.114577,36.8698149 C150.433482,36.5800893 150.791852,36.3631142 151.190325,36.2176133 C151.586887,36.0727505 152.023552,36 152.498409,36 C152.977721,36 153.414386,36.0727505 153.812858,36.2176133 C154.209421,36.3631142 154.569064,36.5800893 154.889243,36.8698149 C155.245067,37.1940013 155.519414,37.5813657 155.711649,38.0344608 C155.903246,38.4856414 156,38.9738354 156,39.5003191 C156,40.0210593 155.903883,40.507977 155.714195,40.9585195 C155.523234,41.4084237 155.247613,41.7970645 154.889243,42.1244416 C154.569064,42.4148054 154.209421,42.633695 153.812858,42.7798341 C153.414386,42.9266114 152.977721,43 152.498409,43 C152.023552,43 151.586887,42.9266114 151.190325,42.7798341 C150.791852,42.633695 150.433482,42.4148054 150.114577,42.1244416 C149.75366,41.7970645 149.478676,41.4084237 149.287078,40.9585195 C149.094844,40.507977 149,40.0210593 149,39.5003191 Z" id="Fill-25" fill="#FFFFFF"></path>
                    <path d="M160.273021,43 L157.782055,37.1911971 C157.676355,36.9439305 157.581653,36.7738529 157.496116,36.6796561 C157.41119,36.5861134 157.295714,36.5004205 157.150301,36.421269 C157.091647,36.3905243 157.051322,36.3591253 157.031771,36.3270722 C157.010998,36.2963274 157,36.2551163 157,36.2014765 L157,36 L158.987519,36 L158.987519,36.2014765 C158.987519,36.2917484 158.923366,36.3722082 158.794449,36.4428558 C158.665532,36.5135034 158.601379,36.6063919 158.601379,36.7221755 C158.601379,36.7725446 158.611155,36.8366508 158.630706,36.9171106 C158.649036,36.9969162 158.674086,37.0760677 158.707079,37.1539108 L160.684211,41.7891786 L162.715109,37.3377254 C162.770708,37.208859 162.817142,37.0917671 162.851968,36.9844874 C162.887405,36.878516 162.905124,36.8006728 162.905124,36.751612 C162.905124,36.6757312 162.887405,36.6148958 162.85319,36.5671433 C162.819586,36.5200449 162.748102,36.4736006 162.636292,36.4265022 C162.575194,36.3957574 162.533648,36.3637043 162.513485,36.3323054 C162.493934,36.3015606 162.481103,36.2577329 162.478659,36.2014765 L162.478659,36 L164,36 L164,36.2014765 C164,36.2917484 163.954787,36.362396 163.864362,36.4127652 C163.858253,36.4160359 163.853365,36.4186525 163.847255,36.421269 C163.612639,36.5527521 163.397574,36.8333801 163.197783,37.2624988 L163.180676,37.2997851 L160.557738,43 L160.273021,43" id="Fill-26" fill="#FFFFFF"></path>
                    <path d="M167,43 L167,42.7889644 C167.0035,42.7023355 167.058803,42.6345957 167.165208,42.5837908 L167.177109,42.5798828 C167.359818,42.4984647 167.476724,42.4124872 167.525726,42.3199963 C167.574029,42.2281567 167.59853,42.0809528 167.59853,41.8783847 L167.59853,37.1971713 C167.59853,36.9985112 167.574029,36.8539127 167.525726,36.7627245 C167.476724,36.6728389 167.361918,36.5881641 167.180609,36.5106541 C167.107805,36.4761329 167.058803,36.4435656 167.035702,36.4116498 C167.011201,36.3810366 167,36.3400019 167,36.2865916 L167,36.0859775 L171.642632,36.0859775 C171.766538,36.0859775 171.896045,36.07751 172.029051,36.0644831 C172.164858,36.0495022 172.306965,36.0293105 172.457473,36 L172.457473,37.2909649 L172.262163,37.2909649 C172.137557,37.2909649 172.052153,37.2349493 172.00525,37.1222667 C171.977949,37.0610403 171.953448,37.0102354 171.928946,36.9724574 C171.819741,36.7991998 171.671334,36.6773983 171.486524,36.6096585 C171.303115,36.5399646 170.9916,36.5054434 170.553378,36.5054434 L168.577879,36.5054434 L168.577879,39.2469526 L169.818341,39.2469526 C170.084354,39.2469526 170.269863,39.2319717 170.376969,39.2033126 C170.484074,39.1753047 170.568778,39.1264539 170.633882,39.0541546 C170.653483,39.0333116 170.674484,38.9968363 170.694085,38.9473341 C170.739587,38.8405136 170.80189,38.7871034 170.879594,38.7871034 L171.095905,38.7871034 L171.095905,40.3125523 L170.889394,40.3125523 C170.79559,40.3086443 170.734687,40.2571881 170.703185,40.1575323 C170.682184,40.0943519 170.665383,40.0481064 170.648582,40.0168419 C170.567378,39.886573 170.465873,39.7953848 170.340567,39.7432772 C170.217361,39.6924723 170.033952,39.6657672 169.789639,39.6657672 L168.577879,39.6657672 L168.577879,42.5798828 L170.879594,42.5798828 C171.304515,42.5798828 171.639132,42.5277752 171.881344,42.4261654 C172.124256,42.321299 172.306965,42.1571601 172.427371,41.9291895 C172.467273,41.8516795 172.506475,41.7494184 172.543577,41.625663 C172.589079,41.4765051 172.646482,41.4009491 172.712986,41.4009491 L173,41.4009491 L173,43 L167,43" id="Fill-27" fill="#FFFFFF"></path>
                </g>
            </g>
        </g>
    </g>
</svg>