<?xml version="1.0" encoding="UTF-8"?>
<svg width="224px" height="127px" viewBox="0 0 224 127" version="1.1" xmlns="http://www.w3.org/2000/svg" xmlns:xlink="http://www.w3.org/1999/xlink">
    <!-- Generator: Sketch 50 (54983) - http://www.bohemiancoding.com/sketch -->
    <title>Molton Brown Copy</title>
    <desc>Created with Sketch.</desc>
    <defs></defs>
    <g id="Molton-Brown-Copy" stroke="none" stroke-width="1" fill="none" fill-rule="evenodd">
        <g>
            <rect id="Rectangle-Copy-4" x="0" y="0" width="224" height="127"></rect>
            <g id="MB-logo_no-compass_black" transform="translate(47.157895, 20.177570)" fill="#242527" fill-opacity="0.9">
                <path d="M25.8866408,76.0708837 L24.7578947,76.0708837 L24.7578947,84.315739 L29.4355448,84.315739 L29.4355448,83.2522906 L25.8866408,83.2522906 L25.8866408,76.0708837 Z M36.3019574,80.1933113 C36.3019574,82.4302384 37.926767,84.4248875 40.4959793,84.4248875 C43.1569431,84.4248875 44.7471358,82.4180716 44.7471358,80.1933113 C44.7471358,77.8962556 43.1115715,75.9626168 40.5190012,75.9626168 C37.9724748,75.9626168 36.3019574,77.9087751 36.3019574,80.1933113 L36.3019574,80.1933113 Z M37.4656565,80.1933113 C37.4656565,78.3801062 38.7679912,77.0502225 40.5190012,77.0502225 C42.2819422,77.0502225 43.5839408,78.3801062 43.5839408,80.1933113 C43.5839408,81.9948787 42.2819422,83.3367528 40.5190012,83.3367528 C38.7679912,83.3367528 37.4656565,81.9948787 37.4656565,80.1933113 L37.4656565,80.1933113 Z M59.4073913,76.0708837 L58.3475429,76.0708837 L58.3475429,82.454043 L53.024607,76.0708837 L52.1262481,76.0708837 L52.1262481,84.315739 L53.1859285,84.315739 L53.1859285,77.9689037 L58.4397987,84.315739 L59.4073913,84.315739 L59.4073913,76.0708837 Z M66.9770647,84.315739 L70.0416682,84.315739 C72.6339024,84.315739 74.212332,82.3089231 74.212332,80.1933113 C74.212332,78.2471531 72.9335234,76.0708837 70.0302413,76.0708837 L66.9770647,76.0708837 L66.9770647,84.315739 Z M68.1061468,77.1346848 L69.8457299,77.1346848 C72.0464234,77.1346848 73.048801,78.5373929 73.048801,80.1933113 C73.048801,81.2091506 72.4613221,83.2522906 69.9035367,83.2522906 L68.1061468,83.2522906 L68.1061468,77.1346848 Z M80.5144556,80.1933113 C80.5144556,82.4302384 82.1392652,84.4248875 84.7086455,84.4248875 C87.3696093,84.4248875 88.959634,82.4180716 88.959634,80.1933113 C88.959634,77.8962556 87.3232294,75.9626168 84.7316674,75.9626168 C82.185141,75.9626168 80.5144556,77.9087751 80.5144556,80.1933113 L80.5144556,80.1933113 Z M81.6783227,80.1933113 C81.6783227,78.3801062 82.9799852,77.0502225 84.7316674,77.0502225 C86.4942724,77.0502225 87.796439,78.3801062 87.796439,80.1933113 C87.796439,81.9948787 86.4942724,83.3367528 84.7316674,83.3367528 C82.9799852,83.3367528 81.6783227,81.9948787 81.6783227,80.1933113 L81.6783227,80.1933113 Z M102.808577,76.0708837 L101.748561,76.0708837 L101.748561,82.454043 L96.4257927,76.0708837 L95.5270977,76.0708837 L95.5270977,84.315739 L96.5867781,84.315739 L96.5867781,77.9689037 L101.840648,84.315739 L102.808577,84.315739 L102.808577,76.0708837 L102.808577,76.0708837 Z" id="Fill-1"></path>
                <polyline id="Fill-2" points="123.291111 37.9813084 126.227615 40.4859171 126.227615 58.1509337 114.934982 37.9813084 109.642105 37.9813084 112.870515 41.9286523 112.870515 62.8103455 109.934171 65.3149542 116.698261 65.3149542 113.761917 62.8103455 113.761917 43.5208654 126.227615 65.7859121 127.118857 65.7859121 127.118857 40.4859171 130.055361 37.9813084 123.291111 37.9813084"></polyline>
                <polyline id="Fill-3" points="104.793984 37.9813084 100.779753 37.9813084 103.869825 40.4182992 97.0376506 58.4348964 92.1413596 40.4182992 95.231095 37.9813084 85.0532223 37.9813084 88.1427893 40.4182992 88.7316712 42.5851588 82.7212703 58.4348964 77.8249794 40.4182992 80.9147148 37.9813084 70.7368421 37.9813084 73.8265775 40.4182992 80.3920126 64.5770163 81.3934655 64.5770163 89.1497992 44.1230962 94.7085613 64.5770163 95.7098457 64.5770163 104.87111 40.4182992 107.961014 37.9813084 104.793984 37.9813084"></polyline>
                <path d="M59.2364842,63.6544463 C55.047413,63.6544463 52.1235497,58.3826742 52.1235497,50.8347557 C52.1235497,43.3690973 55.1808187,37.7392816 59.2364842,37.7392816 C63.2495522,37.7392816 66.1641696,43.218485 66.1641696,50.768778 C66.1641696,58.2356236 63.2495522,63.6544463 59.2364842,63.6544463 Z M59.2866764,36.7943925 C53.0433556,36.7943925 48.3368421,42.8350001 48.3368421,50.844593 C48.3368421,58.9428912 52.8377986,64.5989962 59.2866764,64.5989962 C65.4649454,64.5989962 69.9508772,58.7853248 69.9508772,50.7740358 C69.9508772,42.6733632 65.4649454,36.7943925 59.2866764,36.7943925 L59.2866764,36.7943925 Z" id="Fill-4"></path>
                <path d="M11.4800132,63.6522283 L6.6133065,63.6522283 L6.6133065,51.1184451 L11.4800132,51.1184451 C14.3844983,51.1184451 16.7393564,53.9241889 16.7393564,57.3854197 C16.7393564,60.8464845 14.3844983,63.6522283 11.4800132,63.6522283 Z M6.6133065,38.9059304 L10.8416384,38.9059304 C13.4143609,38.9059304 15.4997719,41.4327435 15.4997719,44.5499598 C15.4997719,47.6658479 13.4156424,50.1919968 10.8442015,50.1936571 L6.6133065,50.1936571 L6.6133065,38.9059304 Z M15.5074612,50.5076202 C17.6728093,49.4629584 19.1738311,47.1881791 19.1738311,44.5499598 C19.1738311,40.9222007 16.3364674,37.9813084 12.8362192,37.9813084 L0,37.9813084 L2.93924733,40.4182992 L2.93924733,62.1400255 L0,64.5770163 L13.4744338,64.5770163 C17.306765,64.5770163 20.4132554,61.3571933 20.4132554,57.3854197 C20.4132554,54.1466693 18.3477084,51.4083338 15.5074612,50.5076202 L15.5074612,50.5076202 Z" id="Fill-5"></path>
                <path d="M34.9828162,50.1936571 L30.5350411,50.1936571 L30.5350411,38.9059304 L34.9828162,38.9059304 C37.6889561,38.9059304 39.8826818,41.4327435 39.8826818,44.5499598 C39.8826818,47.6668441 37.6889561,50.1936571 34.9828162,50.1936571 Z M44.5687185,63.0696284 C43.2751298,62.0017224 42.7278357,60.0394119 42.3158487,58.2848051 C42.2523235,58.0047122 42.1894723,57.717148 42.1254416,57.4239387 C41.6128589,55.0536921 40.9742369,52.1041662 37.9740613,51.3825991 L36.6496366,51.1184451 L37.0808329,51.1184451 C40.7625985,51.1184451 43.7471035,48.1775528 43.7471035,44.5499598 C43.7471035,40.9222007 40.7625985,37.9813084 37.0808329,37.9813084 L23.5789474,37.9813084 L26.670451,40.4182992 L26.670451,62.1400255 L23.5789474,64.5770163 L33.6268818,64.5770163 L30.5350411,62.1400255 L30.5350411,51.1184451 L35.4025544,51.1184451 C35.4035654,51.1192753 37.0444365,52.3744633 37.5059631,53.1909997 C37.8990779,54.1073202 38.085104,55.40551 38.2557964,56.6929079 L38.5215238,58.5685507 C39.0755579,61.8943009 39.9724933,63.5106045 40.4581157,64.1782118 L40.7462538,64.5768502 L46.3937622,64.5768502 L44.5687185,63.0696284 L44.5687185,63.0696284 Z" id="Fill-6"></path>
                <path d="M22.2303574,3.62389142 L25.2163743,1.18691589 L18.0391283,1.18691589 L12.3230761,20.4711991 C10.8757148,15.5882824 6.60686126,1.18691589 6.60686126,1.18691589 L0,1.18691589 L2.98585409,3.62389142 L2.98585409,25.3454822 L0,27.7826237 L6.8781398,27.7826237 L3.89228571,25.3454822 L3.89228571,5.18373508 L10.591092,27.7826237 L11.1027295,27.7826237 L18.4980398,2.83292866 L18.4980398,25.3454822 L15.5121857,27.7826237 L25.2163743,27.7826237 L22.2303574,25.3454822 L22.2303574,3.62389142" id="Fill-7"></path>
                <path d="M36.8367339,26.8598842 C32.6475668,26.8598842 29.7236365,21.5881121 29.7236365,14.0401936 C29.7236365,6.5747048 32.7809756,0.944719475 36.8367339,0.944719475 C40.8498939,0.944719475 43.7640828,6.42409243 43.7640828,13.9743855 C43.7640828,21.4412311 40.8498939,26.8598842 36.8367339,26.8598842 Z M36.8870924,0 C30.6434635,0 25.9368421,6.04043795 25.9368421,14.0502005 C25.9368421,22.148329 30.4379017,27.8046037 36.8870924,27.8046037 C43.0648426,27.8046037 47.5508772,21.9907627 47.5508772,13.9794737 C47.5508772,5.87897064 43.0648426,0 36.8870924,0 L36.8870924,0 Z" id="Fill-8"></path>
                <path d="M96.9629679,26.8598842 C92.7739339,26.8598842 89.8498161,21.5881121 89.8498161,14.0401936 C89.8498161,6.5747048 92.9073437,0.944719475 96.9629679,0.944719475 C100.976324,0.944719475 103.890535,6.42409243 103.890535,13.9743855 C103.890535,21.4412311 100.976324,26.8598842 96.9629679,26.8598842 Z M97.0133268,0 C90.7698152,0 86.0631579,6.04043795 86.0631579,14.0502005 C86.0631579,22.148329 90.564417,27.8046037 97.0133268,27.8046037 C103.191289,27.8046037 107.677193,21.9907627 107.677193,13.9794737 C107.677193,5.87897064 103.191289,0 97.0133268,0 L97.0133268,0 Z" id="Fill-9"></path>
                <polyline id="Fill-10" points="62.2310114 26.8578357 56.305816 26.8578357 56.305816 3.62390664 59.3238432 1.18691589 49.5157895 1.18691589 52.5336521 3.62390664 52.5336521 25.345467 49.5157895 27.7826237 66.3267057 27.7826237 66.3267057 21.6898148 62.2310114 26.8578357"></polyline>
                <polyline id="Fill-11" points="64.8421053 1.18691589 64.8421053 7.27952075 68.8943999 2.11169813 72.5821655 2.11169813 72.5821655 25.3454822 69.5962813 27.7826237 79.3004049 27.7826237 76.3145207 25.3454822 76.3145207 2.11169813 80.0022862 2.11169813 84.0545809 7.27952075 84.0545809 1.18691589 64.8421053 1.18691589"></polyline>
                <polyline id="Fill-12" points="123.291111 1.18691589 126.227615 3.69150924 126.227615 21.356588 114.934982 1.18691589 109.642105 1.18691589 112.870515 5.13440618 112.870515 26.0158006 109.934171 28.5205645 116.698261 28.5205645 113.761917 26.0158006 113.761917 6.72643888 126.227615 28.9915196 127.118857 28.9915196 127.118857 3.69150924 130.055361 1.18691589 123.291111 1.18691589"></polyline>
            </g>
        </g>
    </g>
</svg>