<?xml version="1.0" encoding="UTF-8"?>
<svg width="224px" height="127px" viewBox="0 0 224 127" version="1.1" xmlns="http://www.w3.org/2000/svg" xmlns:xlink="http://www.w3.org/1999/xlink">
    <title>Slice</title>
    <g id="Page-1" stroke="none" stroke-width="1" fill="none" fill-rule="evenodd">
        <path d="M33.7466006,37.1274898 C36.638462,37.1274898 37.4914243,39.5696065 37.4458114,41.4509634 L40.7573121,41.4509634 C40.7573121,38.1867028 38.7655463,34 33.7466006,34 C29.5426063,34 26,36.828114 26,45.2379919 C26,53.6478697 29.5426063,56.4759837 33.7466006,56.4759837 C38.7655463,56.4759837 40.7573121,52.2892809 40.7573121,49.0250204 L37.4458114,49.0250204 C37.4914243,50.9063772 36.638462,53.3484939 33.7466006,53.3484939 C29.9105509,53.3484939 29.382961,48.830502 29.382961,45.2379919 C29.382961,41.6454817 29.9105509,37.1274898 33.7466006,37.1274898 Z M62.0023071,44.8899864 C62.8735145,43.6666486 63.1259062,42.2199186 63.1259062,40.9494708 C63.1259062,38.1669471 61.467115,34.4467843 56.936228,34.4467843 L53.1822816,34.4498236 L53.1822816,34.4467843 L49.8799035,34.4467843 L49.8799035,56.0291995 L53.1822816,56.0291995 L53.1822816,47.3670556 L56.6427846,47.379213 L59.97101,56.0291995 L63.3737366,56.0291995 L59.6091472,46.7926187 C60.5214064,46.3929444 61.389573,45.7698779 62.0023071,44.8899864 L62.0023071,44.8899864 Z M56.5317931,44.7942469 L53.1822816,44.8109634 L53.1822816,37.2262687 C53.1822816,37.2262687 56.0224484,37.2399457 56.4937823,37.2399457 C59.6182698,37.2399457 60.1032894,39.7504478 60.1032894,40.976825 C60.104808,42.8490638 59.1438951,44.7942469 56.5317931,44.7942469 Z M77.354108,34.4467843 L71.2282879,56.0291995 L74.5641154,56.0291995 L75.7971857,51.6206242 L82.6072002,51.6206242 L83.806821,56.0291995 L87.1928228,56.0291995 L81.0092263,34.4467843 L77.354108,34.4467843 Z M76.4083993,49.0083039 L79.1907897,37.8204613 L81.9731801,49.0083039 L76.4083993,49.0083039 Z M106.836803,44.6939484 C108.422614,43.7091995 109.003419,41.7108277 109.003419,40.131886 C109.003419,37.0743012 107.195625,34.4680597 102.81374,34.4680597 L96.0569408,34.4467843 L96.0569408,56.0307191 L103.440158,56.0337585 C106.102434,56.0337585 109.570542,54.5794301 109.570542,49.5675441 C109.57206,47.5950068 108.700853,45.6862958 106.836803,44.6939484 Z M99.3593189,37.3022524 L102.422989,37.2885753 C105.038132,37.2885753 105.983841,38.6289281 105.983841,40.4662144 C105.983841,42.2199186 105.044214,43.618019 102.678422,43.6438535 L99.3593189,43.6438535 L99.3593189,37.3022524 Z M102.552226,53.1372592 L99.3593189,53.1311805 L99.3593189,46.1832293 L102.398662,46.1832293 C104.772057,46.1832293 106.380673,46.9597829 106.380673,49.5417096 C106.380673,50.8866214 105.69952,53.1372592 102.552226,53.1372592 L102.552226,53.1372592 Z M117.414448,37.3827951 L122.713153,37.3827951 L122.713153,56.0291995 L126.014011,56.0291995 L126.014011,37.3827951 L131.312716,37.3827951 L131.312716,34.4467843 L117.414448,34.4467843 L117.414448,37.3827951 Z M152.560752,44.8899864 C153.431959,43.6666486 153.684351,42.2199186 153.684351,40.9494708 C153.684351,38.1669471 152.02556,34.4467843 147.494673,34.4467843 L143.740726,34.4498236 L143.740726,34.4467843 L140.438348,34.4467843 L140.438348,56.0291995 L143.740726,56.0291995 L143.740726,47.3670556 L147.201229,47.379213 L150.529455,56.0291995 L153.932181,56.0291995 L150.167592,46.7926187 C151.079851,46.3929444 151.948018,45.7698779 152.560752,44.8899864 L152.560752,44.8899864 Z M147.090238,44.7942469 L143.740726,44.8109634 L143.740726,37.2262687 C143.740726,37.2262687 146.580893,37.2399457 147.052227,37.2399457 C150.176714,37.2399457 150.660214,39.7504478 150.660214,40.976825 C150.661732,42.8490638 149.70234,44.7942469 147.090238,44.7942469 Z M163.675109,56.0291995 L176.051425,56.0291995 L176.051425,53.1737313 L166.977487,53.1737313 L166.977487,46.3671099 L174.73169,46.3671099 L174.73169,43.5116418 L166.977487,43.5116418 L166.977487,37.3098507 L176.051425,37.3098507 L176.051425,34.4467843 L163.675109,34.4467843 L163.675109,56.0291995 Z M185.906864,56.0291995 L198.28318,56.0291995 L198.28318,53.1737313 L189.209242,53.1737313 L189.209242,46.3671099 L196.963445,46.3671099 L196.963445,43.5116418 L189.209242,43.5116418 L189.209242,37.3098507 L198.28318,37.3098507 L198.28318,34.4467843 L185.906864,34.4467843 L185.906864,56.0291995 Z M45.2638722,82.2922117 L41.3122697,82.2922117 C40.4775526,83.1371506 39.5379257,84.0899864 38.6515139,84.988114 L30.8562595,77.1967436 C30.3446969,76.6884902 30.0578151,75.9968148 30.0595532,75.2758752 C30.0595532,73.7774763 31.2789396,72.5586974 32.7780854,72.5586974 C34.2772313,72.5586974 35.4966177,73.7774763 35.4966177,75.2758752 L38.3109371,75.2758752 C38.3109371,72.2258887 35.8295923,69.7457802 32.7780854,69.7457802 C29.7265786,69.7457802 27.2452337,72.2258887 27.2452337,75.2758752 C27.2452337,76.7529986 27.8214774,78.141981 28.8660141,79.187517 L29.6429548,79.9640706 C29.1777027,80.4230122 28.6425106,80.9548982 28.2289532,81.3728087 C27.0414959,82.5748711 26.3877101,84.1674898 26.3877101,85.8573677 C26.3877101,89.3769335 29.2522038,92.24 32.7735241,92.24 C34.4794487,92.24 36.081984,91.5759023 37.2892069,90.3708005 C37.4823017,90.1778019 37.9946873,89.6595929 38.6651978,88.9818182 L41.338117,91.6534057 L45.3186078,91.6534057 L40.6417592,86.9788874 C42.3750516,85.2206242 44.3029593,83.2663229 45.2638722,82.2922117 L45.2638722,82.2922117 Z M35.2974411,88.3800271 C34.6223693,89.0532429 33.7268349,89.4255631 32.7720037,89.4255631 C30.8030444,89.4255631 29.2005092,87.8238263 29.2005092,85.855848 C29.2005092,84.9106106 29.5669332,84.0200814 30.2298416,83.3468657 C30.6388377,82.9335142 31.1709889,82.4061872 31.6316798,81.9518046 L36.673432,86.9910448 C36.0014011,87.6703392 35.4890155,88.1885482 35.2974411,88.3800271 L35.2974411,88.3800271 Z M75.678592,91.7415468 L88.0549077,91.7415468 L88.0549077,88.8860787 L78.9809701,88.8860787 L78.9809701,82.0809769 L86.7351728,82.0809769 L86.7351728,79.2255088 L78.9809701,79.2255088 L78.9809701,73.0237178 L88.0549077,73.0237178 L88.0549077,70.1591316 L75.678592,70.1591316 L75.678592,91.7415468 Z M103.843073,86.700787 L103.771612,87.0168792 L103.725999,87.0168792 L103.640855,86.700787 L99.1890306,70.1591316 L98.4744276,70.1545726 L95.8167126,70.1545726 L102.020075,91.717232 L105.494262,91.7415468 L111.652011,70.1591316 L108.26905,70.1591316 L103.843073,86.700787 Z M120.075204,91.7415468 L132.451519,91.7415468 L132.451519,88.8860787 L123.377582,88.8860787 L123.377582,82.0809769 L131.131784,82.0809769 L131.131784,79.2255088 L123.377582,79.2255088 L123.377582,73.0237178 L132.451519,73.0237178 L132.451519,70.1591316 L120.075204,70.1591316 L120.075204,91.7415468 Z M145.835881,70.1591316 L142.533503,70.1591316 L142.533503,91.7415468 L154.035571,91.7415468 L154.035571,88.8860787 L145.835881,88.8860787 L145.835881,70.1591316 Z M166.667319,79.9397558 L166.60194,80.2482497 L166.548725,80.2482497 L166.462061,79.9397558 L162.090819,70.1591316 L158.619673,70.1591316 L164.87625,83.8650746 L164.9097,84.0413569 L164.9097,91.708114 L168.21968,91.708114 L168.21968,84.0413569 L168.253129,83.8650746 L174.339418,70.1591316 L170.845466,70.1591316 L166.667319,79.9397558 Z M194.650868,70.1424152 L194.650868,85.8056988 L194.591571,85.8056988 L194.541397,85.6202985 L185.660554,70.1424152 L182.417473,70.1424152 L182.417473,91.7248304 L185.660554,91.7248304 L185.660554,76.0630665 L185.694004,76.0630665 L185.770025,76.2499864 L194.666072,91.7248304 L197.893949,91.7248304 L197.893949,70.1424152 L194.650868,70.1424152 Z" id="Shape" fill="#7A7A7A" fill-rule="nonzero"></path>
    </g>
</svg>