<?xml version="1.0" encoding="UTF-8"?>
<svg width="224px" height="127px" viewBox="0 0 224 127" version="1.1" xmlns="http://www.w3.org/2000/svg" xmlns:xlink="http://www.w3.org/1999/xlink">
    <title>ebay-logo</title>
    <g id="Page-1" stroke="none" stroke-width="1" fill="none" fill-rule="evenodd">
        <g id="ebay-logo" transform="translate(19.000000, 26.000000)" fill="#7A7A7A" fill-rule="nonzero">
            <path d="M24.1811596,16 C10.9911916,16 0,21.5610444 0,38.3384616 C0,51.6298697 7.39078074,60 24.5217391,60 C44.6856792,60 45.9782609,46.7999997 45.9782609,46.7999997 L36.2078805,46.7999997 C36.2078805,46.7999997 34.113029,53.9076925 23.9257247,53.9076925 C15.6284436,53.9076925 9.66071375,48.3374954 9.66071375,40.530054 L47,40.530054 L47,35.6307692 C47,27.906755 42.0659743,16 24.1811596,16 L24.1811596,16 Z M23.8405795,22.2615382 C31.738732,22.2615382 37.1231885,27.0700209 37.1231885,34.2769226 L9.87681155,34.2769226 C9.87681155,26.6259149 16.9048991,22.2615382 23.8405795,22.2615382 L23.8405795,22.2615382 Z" id="e"></path>
            <path d="M46.2116257,0 L46.2116257,51.5003743 C46.2116257,54.4236988 46,58.5283817 46,58.5283817 L55.3352392,58.5283817 C55.3352392,58.5283817 55.6703128,55.5803405 55.6703128,52.8861176 C55.6703128,52.8861176 60.282524,60 72.8234679,60 C86.029587,60 95,50.9606146 95,38.0098108 C95,25.9618647 86.7603856,16.2718992 72.8447881,16.2718992 C59.8138141,16.2718992 55.7645942,23.2095306 55.7645942,23.2095306 L55.7645942,0 L46.2116257,0 Z M70.4352223,22.6419061 C79.4032046,22.6419061 85.1058567,29.2039164 85.1058567,38.0098108 C85.1058567,47.4525343 78.5194841,53.6299931 70.4991955,53.6299931 C60.9276836,53.6299931 55.7645942,46.2619024 55.7645942,38.0939035 C55.7645942,30.4829201 60.3975856,22.6419061 70.4352223,22.6419061 Z" id="b"></path>
            <path d="M118.204544,16 C98.3420448,16 97.0681835,26.7382803 97.0681835,28.4542196 L106.954544,28.4542196 C106.954544,28.4542196 107.472982,22.1850343 117.522728,22.1850343 C124.053215,22.1850343 129.113639,25.1363646 129.113639,30.810423 L129.113639,32.8300261 L117.522728,32.8300261 C102.13497,32.8300261 94,37.2746611 94,46.2940473 C94,55.1704187 101.516452,60 111.674007,60 C125.517178,60 129.97656,52.4475259 129.97656,52.4475259 C129.97656,55.4514867 130.211123,58.4116665 130.211123,58.4116665 L139,58.4116665 C139,58.4116665 138.659089,54.7424312 138.659089,52.3949318 L138.659089,32.1042314 C138.659089,18.7998969 127.79039,16 118.204544,16 L118.204544,16 Z M129.113639,38.8888355 L129.113639,41.5816398 C129.113639,45.0937906 126.918654,53.825484 113.996452,53.825484 C106.920298,53.825484 103.886367,50.3385922 103.886367,46.2940473 C103.886367,38.9362222 114.103393,38.8888355 129.113639,38.8888355 L129.113639,38.8888355 Z" id="a"></path>
            <polygon id="y" points="133 18 144.104474 18 160.040937 50.0167985 175.940939 18 186 18 157.038418 75 146.48704 75 154.844267 59.1104726"></polygon>
        </g>
    </g>
</svg>