<?xml version="1.0" encoding="UTF-8"?>
<svg width="224px" height="127px" viewBox="0 0 224 127" version="1.1" xmlns="http://www.w3.org/2000/svg" xmlns:xlink="http://www.w3.org/1999/xlink">
    <title>Slice</title>
    <defs>
        <polygon id="path-1" points="0.1281375 0.460027586 8.8205625 0.460027586 8.8205625 31.9099586 0.1281375 31.9099586"></polygon>
    </defs>
    <g id="Page-1" stroke="none" stroke-width="1" fill="none" fill-rule="evenodd">
        <g id="Gucci-Logo" transform="translate(10.000000, 47.000000)">
            <path d="M8.53037761,26.1886758 C6.87815239,23.5580384 5.82228591,19.9972829 5.82228591,16.5393211 C5.82228591,13.1410461 6.72183075,9.95056938 8.29061025,7.18784752 L8.47363452,6.87338688 C10.0457519,3.72933314 13.5999831,1.57840025 17.0607552,1.57840025 L17.0607552,1.57508432 C19.3260283,1.57508432 21.7442852,2.23384897 23.6168071,3.20375832 C27.0208361,5.29113589 29.7022252,8.42192592 31.2214936,12.1578731 L31.2214936,6.48929172 C31.2114801,5.21542217 29.2594066,3.82881102 29.2594066,3.82881102 C25.938267,1.39989272 21.8310688,0.0033337783 17.3845246,5.32907052e-14 C15.5820971,-0.00329808054 13.0570297,0.456510799 13.0570297,0.456510799 C5.58585637,2.02218214 0,8.6501724 0,16.5393211 C0,24.9573606 6.39194201,31.8871005 14.6196898,32.8067182 C14.6196898,32.8067182 16.3186446,33.0620448 17.4507249,32.9857784 C22.267768,32.9857784 26.6742583,31.3012863 30.1350303,28.4921414 L30.5884187,27.978725 C30.9945212,27.4398865 31.2476399,26.7678581 31.2476399,26.0433275 L31.2476399,21.3341551 C31.2476399,19.9375961 31.9374579,18.6968859 33,17.939196 L24.1558665,17.939196 C25.2156271,18.6968859 25.9048887,19.9348329 25.9048887,21.3341551 L25.9649697,25.7388147 C25.9649697,26.6153253 25.6117161,27.4067272 25.0320465,27.9825936 C24.3060688,28.7795219 21.5345583,30.1799495 21.5345583,30.1799495 C20.1955327,30.8978482 18.6595752,31.3012863 17.0312711,31.3012863 C13.3435266,31.3012863 10.1191841,29.2332516 8.53037761,26.1853598 L8.53037761,26.1886758 Z" id="Fill-1" fill="#7A7A7A" fill-rule="nonzero"></path>
            <path d="M97,16.5828332 C97,24.4930097 102.413819,30.972982 109.644638,32.5422724 C109.644638,32.5422724 112.093169,33.0033069 113.842274,33 C118.146602,32.9972115 122.053798,31.613554 125.270189,29.1814864 C125.270189,29.1814864 127.228907,27.9335902 127.235373,26.6629748 L128,20.6473617 C125.78048,26.3177531 122.047332,28.4450503 119.875769,29.7356143 C118.059308,30.70423 115.720163,31.401323 113.525969,31.401323 L113.525969,31.3974441 C110.170554,31.3974441 106.753711,29.4236403 105.223918,26.2745311 L105.037476,25.9597864 C103.514149,23.1924714 102.643369,19.9940449 102.643369,16.5828332 C102.643369,13.1755004 103.514149,9.97707383 105.037476,7.20975882 L105.208291,6.89446002 C106.734313,3.74258021 110.170554,1.58591421 113.525969,1.58591421 L113.525969,1.57926467 C115.720163,1.57926467 118.059308,2.24255583 119.875769,3.21172563 C123.173527,5.30522104 125.774014,8.44380178 127.235373,12.1902609 L127.235373,6.50601632 C127.228907,5.23207615 125.341318,3.84176911 125.341318,3.84176911 C122.124387,1.40305198 118.146602,0.00332476773 113.842274,0 C112.093169,0 109.644638,0.457709691 109.644638,0.457709691 C102.413819,2.02700006 97,8.67598139 97,16.5828332" id="Fill-3" fill="#7A7A7A" fill-rule="nonzero"></path>
            <path d="M147,16.583393 C147,24.490239 152.413348,30.9729771 159.643539,32.5422663 C159.643539,32.5422663 162.091857,33.0038546 163.84081,33 C168.144225,32.9972051 172.051082,31.6168733 175.270965,29.178158 C175.270965,29.178158 177.232206,27.9308169 177.232206,26.6602024 L178,20.6479185 C175.77744,26.3177516 172.044616,28.4417225 169.877014,29.7322855 C168.063944,30.7014546 165.717998,31.4013177 163.524533,31.4013177 L163.524533,31.397993 C160.172104,31.397993 156.749631,29.4236365 155.226436,26.2750838 L155.036239,25.9597852 C153.513583,23.1924722 152.642339,19.9907233 152.642339,16.583393 C152.642339,13.1755086 153.513583,9.97708438 155.036239,7.20977141 L155.207039,6.89447283 C156.732928,3.74259535 160.172104,1.5892557 163.524533,1.5892557 L163.524533,1.5792814 C165.717998,1.5792814 168.063944,2.23980144 169.877014,3.21174116 C173.170713,5.30523503 175.770435,8.44436758 177.232206,12.1902698 L177.232206,6.50658355 C177.232206,5.23264432 175.342087,3.83901354 175.342087,3.83901354 C172.125437,1.40362297 168.144225,0.00334266172 163.84081,6.03961325e-14 C162.091857,-0.00330686884 159.643539,0.45772725 159.643539,0.45772725 C152.413348,2.02701646 147,8.67654702 147,16.583393" id="Fill-5" fill="#7A7A7A" fill-rule="nonzero"></path>
            <g id="Fill-7-Clipped" transform="translate(195.000000, 1.000000)">
                <mask id="mask-2" fill="white">
                    <use xlink:href="#path-1"></use>
                </mask>
                <g id="path-1"></g>
                <path d="M8.8210125,0.460027586 L0.1281375,0.460027586 C1.198575,1.18995862 1.896075,2.39602759 1.896075,3.77037241 L1.896075,28.6525793 C1.896075,29.9872 1.2362625,31.1734069 0.222075,31.9099586 L8.7298875,31.9099586 C7.7162625,31.1734069 7.0558875,29.9872 7.0558875,28.6525793 L7.0558875,3.77037241 C7.0558875,2.39602759 7.7533875,1.18995862 8.8210125,0.460027586" id="Fill-7" fill="#7A7A7A" fill-rule="nonzero" mask="url(#mask-2)"></path>
            </g>
            <path d="M56.6840845,5.29833518 C56.6840845,3.9403891 57.3622904,2.71948845 58.3986501,2 L58.4079033,2 L50,2 C51.0330938,2.71948845 51.7107555,3.9403891 51.7107555,5.29833518 L51.7042238,5.30866796 L51.7042238,23.615108 L51.7042238,23.6379489 C51.9910734,26.9787029 54.0931853,29.8218515 57.0231875,31.1303089 L57.05258,31.1471677 C59.4448073,32.3125976 62.107555,33 64.9493795,33 C67.8336599,33 70.5551927,32.3843833 72.9735467,31.1863235 L73.0192685,31.1634826 C75.942739,29.8310966 78.0350533,26.9852288 78.299042,23.6346859 L78.299042,23.6314229 L78.299042,5.21730435 C78.299042,3.86262127 78.970172,2.71948845 80,2 L75.0952536,2 C76.1283475,2.71948845 76.8027433,3.86262127 76.8027433,5.21730435 L76.8027433,23.6314229 L76.7967559,23.6934196 C76.5910081,25.7153834 75.603636,27.5034998 74.1171348,28.7341894 L74.0490965,28.7989053 C72.3965818,30.0823465 69.4763771,31.0590671 66.7254518,31.0590671 C65.0081646,31.0590671 63.3687133,30.6979633 61.8631613,30.1242215 L61.7036795,30.0660316 C59.0011975,29.121941 57.0035924,26.5947582 56.693882,23.6542638 L56.693882,23.615108 L56.693882,5.30866796 L56.6840845,5.29833518 Z" id="Fill-10" fill="#7A7A7A" fill-rule="nonzero"></path>
        </g>
    </g>
</svg>