<?xml version="1.0" encoding="UTF-8"?>
<svg width="223px" height="127px" viewBox="0 0 223 127" version="1.1" xmlns="http://www.w3.org/2000/svg" xmlns:xlink="http://www.w3.org/1999/xlink">
    <!-- Generator: Sketch 53.2 (72643) - https://sketchapp.com/ -->
    <title>Rectangle Copy 4</title>
    <desc>Created with Sketch.</desc>
    <g id="Design-Round-3" stroke="none" stroke-width="1" fill="none" fill-rule="evenodd">
        <g id="smack_website_home-1-1-copy" transform="translate(-481.000000, -2575.000000)">
            <g id="Clients-&amp;-Awards" transform="translate(0.000000, 2399.000000)">
                <g id="Group-18" transform="translate(33.000000, 176.000000)">
                    <g id="Molton-Brown-Copy" transform="translate(448.000000, 0.000000)">
                        <rect id="Rectangle-Copy-4" x="0" y="0" width="223" height="127"></rect>
                        <g id="MB-logo_no-compass_black" transform="translate(46.947368, 20.177570)" fill="#7A7A7A" fill-opacity="0.9">
                            <path d="M25.7710755,76.0708837 L24.6473684,76.0708837 L24.6473684,84.315739 L29.3041362,84.315739 L29.3041362,83.2522906 L25.7710755,83.2522906 L25.7710755,76.0708837 Z M36.1398951,80.1933113 C36.1398951,82.4302384 37.7574511,84.4248875 40.3151936,84.4248875 C42.9642782,84.4248875 44.5473718,82.4180716 44.5473718,80.1933113 C44.5473718,77.8962556 42.9191091,75.9626168 40.3381128,75.9626168 C37.8029548,75.9626168 36.1398951,77.9087751 36.1398951,80.1933113 L36.1398951,80.1933113 Z M37.2983991,80.1933113 C37.2983991,78.3801062 38.5949198,77.0502225 40.3381128,77.0502225 C42.0931836,77.0502225 43.3893697,78.3801062 43.3893697,80.1933113 C43.3893697,81.9948787 42.0931836,83.3367528 40.3381128,83.3367528 C38.5949198,83.3367528 37.2983991,81.9948787 37.2983991,80.1933113 L37.2983991,80.1933113 Z M59.1421797,76.0708837 L58.0870628,76.0708837 L58.0870628,82.454043 L52.78789,76.0708837 L51.8935417,76.0708837 L51.8935417,84.315739 L52.9484913,84.315739 L52.9484913,77.9689037 L58.1789067,84.315739 L59.1421797,84.315739 L59.1421797,76.0708837 Z M66.6780599,84.315739 L69.7289822,84.315739 C72.3096439,84.315739 73.881027,82.3089231 73.881027,80.1933113 C73.881027,78.2471531 72.6079273,76.0708837 69.7176063,76.0708837 L66.6780599,76.0708837 L66.6780599,84.315739 Z M67.8021015,77.1346848 L69.5339186,77.1346848 C71.7247876,77.1346848 72.7226903,78.5373929 72.7226903,80.1933113 C72.7226903,81.2091506 72.137834,83.2522906 69.5914674,83.2522906 L67.8021015,83.2522906 L67.8021015,77.1346848 Z M80.1550161,80.1933113 C80.1550161,82.4302384 81.772572,84.4248875 84.3304819,84.4248875 C86.9795664,84.4248875 88.5624927,82.4180716 88.5624927,80.1933113 C88.5624927,77.8962556 86.9333936,75.9626168 84.353401,75.9626168 C81.818243,75.9626168 80.1550161,77.9087751 80.1550161,80.1933113 L80.1550161,80.1933113 Z M81.3136874,80.1933113 C81.3136874,78.3801062 82.6095389,77.0502225 84.353401,77.0502225 C86.1081372,77.0502225 87.4044906,78.3801062 87.4044906,80.1933113 C87.4044906,81.9948787 86.1081372,83.3367528 84.353401,83.3367528 C82.6095389,83.3367528 81.3136874,81.9948787 81.3136874,80.1933113 L81.3136874,80.1933113 Z M102.34961,76.0708837 L101.294326,76.0708837 L101.294326,82.454043 L95.9953204,76.0708837 L95.1006375,76.0708837 L95.1006375,84.315739 L96.1555871,84.315739 L96.1555871,77.9689037 L101.386002,84.315739 L102.34961,84.315739 L102.34961,76.0708837 L102.34961,76.0708837 Z" id="Fill-1"></path>
                            <polyline id="Fill-2" points="122.740705 37.9813084 125.664099 40.4859171 125.664099 58.1509337 114.421879 37.9813084 109.152632 37.9813084 112.366629 41.9286523 112.366629 62.8103455 109.443394 65.3149542 116.177286 65.3149542 113.254051 62.8103455 113.254051 43.5208654 125.664099 65.7859121 126.551362 65.7859121 126.551362 40.4859171 129.474756 37.9813084 122.740705 37.9813084"></polyline>
                            <polyline id="Fill-3" points="104.326154 37.9813084 100.329844 37.9813084 103.406121 40.4182992 96.6044468 58.4348964 91.7300142 40.4182992 94.8059562 37.9813084 84.6735205 37.9813084 87.7492947 40.4182992 88.3355477 42.5851588 82.3519789 58.4348964 77.4775464 40.4182992 80.5534884 37.9813084 70.4210526 37.9813084 73.4969946 40.4182992 80.0331197 64.5770163 81.0301018 64.5770163 88.7518091 44.1230962 94.2857552 64.5770163 95.2825696 64.5770163 104.402935 40.4182992 107.479045 37.9813084 104.326154 37.9813084"></polyline>
                            <path d="M58.9720356,63.6544463 C54.8016657,63.6544463 51.8908553,58.3826742 51.8908553,50.8347557 C51.8908553,43.3690973 54.9344758,37.7392816 58.9720356,37.7392816 C62.9671881,37.7392816 65.8687938,43.218485 65.8687938,50.768778 C65.8687938,58.2356236 62.9671881,63.6544463 58.9720356,63.6544463 Z M59.0220037,36.7943925 C52.8065549,36.7943925 48.1210526,42.8350001 48.1210526,50.844593 C48.1210526,58.9428912 52.6019155,64.5989962 59.0220037,64.5989962 C65.1726912,64.5989962 69.6385965,58.7853248 69.6385965,50.7740358 C69.6385965,42.6733632 65.1726912,36.7943925 59.0220037,36.7943925 L59.0220037,36.7943925 Z" id="Fill-4"></path>
                            <path d="M11.4287631,63.6522283 L6.58378281,63.6522283 L6.58378281,51.1184451 L11.4287631,51.1184451 C14.3202818,51.1184451 16.6646271,53.9241889 16.6646271,57.3854197 C16.6646271,60.8464845 14.3202818,63.6522283 11.4287631,63.6522283 Z M6.58378281,38.9059304 L10.7932382,38.9059304 C13.3544753,38.9059304 15.4305765,41.4327435 15.4305765,44.5499598 C15.4305765,47.6658479 13.3557512,50.1919968 10.7957899,50.1936571 L6.58378281,50.1936571 L6.58378281,38.9059304 Z M15.4382315,50.5076202 C17.5939128,49.4629584 19.0882336,47.1881791 19.0882336,44.5499598 C19.0882336,40.9222007 16.2635367,37.9813084 12.7789146,37.9813084 L0,37.9813084 L2.92612569,40.4182992 L2.92612569,62.1400255 L0,64.5770163 L13.4142801,64.5770163 C17.2295027,64.5770163 20.3221248,61.3571933 20.3221248,57.3854197 C20.3221248,54.1466693 18.265799,51.4083338 15.4382315,50.5076202 L15.4382315,50.5076202 Z" id="Fill-5"></path>
                            <path d="M34.826643,50.1936571 L30.398724,50.1936571 L30.398724,38.9059304 L34.826643,38.9059304 C37.5207018,38.9059304 39.7046341,41.4327435 39.7046341,44.5499598 C39.7046341,47.6668441 37.5207018,50.1936571 34.826643,50.1936571 Z M44.369751,63.0696284 C43.0819372,62.0017224 42.5370865,60.0394119 42.1269386,58.2848051 C42.063697,58.0047122 42.0011264,57.717148 41.9373816,57.4239387 C41.4270872,55.0536921 40.7913162,52.1041662 37.8045342,51.3825991 L36.4860222,51.1184451 L36.9152935,51.1184451 C40.5806226,51.1184451 43.5518039,48.1775528 43.5518039,44.5499598 C43.5518039,40.9222007 40.5806226,37.9813084 36.9152935,37.9813084 L23.4736842,37.9813084 L26.5513865,40.4182992 L26.5513865,62.1400255 L23.4736842,64.5770163 L33.4767618,64.5770163 L30.398724,62.1400255 L30.398724,51.1184451 L35.2445073,51.1184451 C35.2455137,51.1192753 36.8790595,52.3744633 37.3385258,53.1909997 C37.7298856,54.1073202 37.9150812,55.40551 38.0850116,56.6929079 L38.3495527,58.5685507 C38.9011135,61.8943009 39.7940447,63.5106045 40.2774991,64.1782118 L40.5643509,64.5768502 L46.1866472,64.5768502 L44.369751,63.0696284 L44.369751,63.0696284 Z" id="Fill-6"></path>
                            <path d="M22.1311148,3.62389142 L25.1038012,1.18691589 L17.9585965,1.18691589 L12.2680624,20.4711991 C10.8271625,15.5882824 6.57736634,1.18691589 6.57736634,1.18691589 L0,1.18691589 L2.97252439,3.62389142 L2.97252439,25.3454822 L0,27.7826237 L6.84743382,27.7826237 L3.87490943,25.3454822 L3.87490943,5.18373508 L10.5438103,27.7826237 L11.0531638,27.7826237 L18.4154593,2.83292866 L18.4154593,25.3454822 L15.4429349,27.7826237 L25.1038012,27.7826237 L22.1311148,25.3454822 L22.1311148,3.62389142" id="Fill-7"></path>
                            <path d="M36.6722842,26.8598842 C32.5018188,26.8598842 29.5909417,21.5881121 29.5909417,14.0401936 C29.5909417,6.5747048 32.634632,0.944719475 36.6722842,0.944719475 C40.6675283,0.944719475 43.5687074,6.42409243 43.5687074,13.9743855 C43.5687074,21.4412311 40.6675283,26.8598842 36.6722842,26.8598842 Z M36.7224179,0 C30.5066623,0 25.8210526,6.04043795 25.8210526,14.0502005 C25.8210526,22.148329 30.3020182,27.8046037 36.7224179,27.8046037 C42.8725888,27.8046037 47.3385965,21.9907627 47.3385965,13.9794737 C47.3385965,5.87897064 42.8725888,0 36.7224179,0 L36.7224179,0 Z" id="Fill-8"></path>
                            <path d="M96.5300975,26.8598842 C92.3597645,26.8598842 89.4487009,21.5881121 89.4487009,14.0401936 C89.4487009,6.5747048 92.4925787,0.944719475 96.5300975,0.944719475 C100.525536,0.944719475 103.426738,6.42409243 103.426738,13.9743855 C103.426738,21.4412311 100.525536,26.8598842 96.5300975,26.8598842 Z M96.5802316,0 C90.3645928,0 85.6789474,6.04043795 85.6789474,14.0502005 C85.6789474,22.148329 90.1601116,27.8046037 96.5802316,27.8046037 C102.730614,27.8046037 107.196491,21.9907627 107.196491,13.9794737 C107.196491,5.87897064 102.730614,0 96.5802316,0 L96.5802316,0 Z" id="Fill-9"></path>
                            <polyline id="Fill-10" points="61.9531944 26.8578357 56.0544508 26.8578357 56.0544508 3.62390664 59.0590046 1.18691589 49.2947368 1.18691589 52.2991269 3.62390664 52.2991269 25.345467 49.2947368 27.7826237 66.0306043 27.7826237 66.0306043 21.6898148 61.9531944 26.8578357"></polyline>
                            <polyline id="Fill-11" points="64.5526316 1.18691589 64.5526316 7.27952075 68.5868356 2.11169813 72.2581379 2.11169813 72.2581379 25.3454822 69.2855836 27.7826237 78.9463852 27.7826237 75.9738309 25.3454822 75.9738309 2.11169813 79.6451332 2.11169813 83.6793372 7.27952075 83.6793372 1.18691589 64.5526316 1.18691589"></polyline>
                            <polyline id="Fill-12" points="122.740705 1.18691589 125.664099 3.69150924 125.664099 21.356588 114.421879 1.18691589 109.152632 1.18691589 112.366629 5.13440618 112.366629 26.0158006 109.443394 28.5205645 116.177286 28.5205645 113.254051 26.0158006 113.254051 6.72643888 125.664099 28.9915196 126.551362 28.9915196 126.551362 3.69150924 129.474756 1.18691589 122.740705 1.18691589"></polyline>
                        </g>
                    </g>
                </g>
            </g>
        </g>
    </g>
</svg>