<?xml version="1.0" encoding="UTF-8"?>
<svg width="224px" height="127px" viewBox="0 0 224 127" version="1.1" xmlns="http://www.w3.org/2000/svg" xmlns:xlink="http://www.w3.org/1999/xlink">
    <!-- Generator: Sketch 53.2 (72643) - https://sketchapp.com/ -->
    <title>Rectangle Copy 3</title>
    <desc>Created with Sketch.</desc>
    <g id="Design-Round-3" stroke="none" stroke-width="1" fill="none" fill-rule="evenodd">
        <g id="smack_website_home-1-1-copy" transform="translate(-33.000000, -2575.000000)">
            <g id="Clients-&amp;-Awards" transform="translate(0.000000, 2399.000000)">
                <g id="Group-18" transform="translate(33.000000, 176.000000)">
                    <g id="Ted-Baker-Copy-2">
                        <rect id="Rectangle-Copy-3" x="0" y="0" width="224" height="127"></rect>
                        <g id="Group" transform="translate(28.294737, 37.981308)" fill="#7A7A7A" fill-opacity="0.9">
                            <polyline id="Fill-56" points="45.9789474 32.046729 45.9789474 39.020883 49.4426134 39.020883 49.4426134 38.008139 47.0495006 38.008139 47.0495006 32.046729 45.9789474 32.046729"></polyline>
                            <path d="M64.6713612,34.9356863 C64.6713612,33.8325626 64.2559015,32.8278988 63.4847996,32.0450488 C62.7126101,31.280033 61.7218148,30.8598131 60.6266109,30.8598131 C59.5324945,30.8598131 58.5308233,31.280033 57.7622591,32.0450488 C56.9842692,32.8278988 56.5894737,33.8277325 56.5894737,34.9356863 C56.5894737,36.0343515 56.9842692,37.0282404 57.7622591,37.795857 C58.5239352,38.5738769 59.5473582,38.9963261 60.6266109,38.9963261 C61.7109389,38.9963261 62.7126101,38.5738769 63.4847996,37.795857 C64.2559015,37.0282404 64.6713612,36.0343515 64.6713612,34.9356863 M63.3782157,34.9356863 C63.3782157,35.7055322 63.0994299,36.419646 62.5733984,36.9780815 C62.0441042,37.5335446 61.3679853,37.8240946 60.6266109,37.8240946 C59.8910369,37.8240946 59.1935287,37.5335446 58.6722101,36.9780815 C58.1407407,36.419646 57.861955,35.7055322 57.861955,34.9356863 C57.861955,34.1472631 58.1407407,33.4220029 58.6722101,32.8698837 C59.1935287,32.3114482 59.8990126,32.0231275 60.6266109,32.0231275 C61.3545717,32.0231275 62.0520799,32.3114482 62.5733984,32.8698837 C63.0994299,33.4220029 63.3782157,34.1472631 63.3782157,34.9356863" id="Fill-57"></path>
                            <path d="M71.9157895,38.6984723 L72.8810146,38.6984723 L72.8810146,33.4500196 C73.060253,33.7504069 73.2695192,34.0392129 73.5001455,34.3023232 L77.6885662,38.9963261 L77.6885662,31.1507906 L76.7159116,31.1507906 L76.7159116,36.3887478 C76.5001444,36.0695411 76.2803529,35.764449 76.013198,35.4716619 L71.9157895,30.8598131 L71.9157895,38.6984723" id="Fill-58"></path>
                            <path d="M84.8842105,39.0207588 L86.3723592,39.0207588 C87.6167256,39.0207588 88.6052349,39.0461736 89.4654893,38.3700054 C90.2405667,37.753027 90.6569873,36.7912763 90.6569873,35.5409336 C90.6569873,34.2942693 90.2405667,33.3151296 89.4654893,32.7061769 C88.6300374,32.046729 87.6545821,32.046729 86.3723592,32.046729 L84.8842105,32.046729 L84.8842105,39.0207588 Z M85.9885735,37.9991495 L85.9885735,33.0629877 L86.3831287,33.0629877 C87.400683,33.0629877 88.1565059,33.0201838 88.7302264,33.5251363 C89.2536892,33.9678894 89.5088936,34.6440576 89.5088936,35.5345799 C89.5088936,36.4174108 89.2536892,37.0892318 88.7302264,37.5423514 C88.1427993,38.0566673 87.3964405,37.9991495 86.3831287,37.9991495 L85.9885735,37.9991495 L85.9885735,37.9991495 Z" id="Fill-59"></path>
                            <path d="M107.113466,34.9356863 C107.113466,33.8325626 106.698528,32.8278988 105.928393,32.0450488 C105.159345,31.280033 104.15893,30.8598131 103.071255,30.8598131 C101.989012,30.8598131 100.980631,31.280033 100.213031,32.0450488 C99.4360173,32.8278988 99.0315789,33.8277325 99.0315789,34.9356863 C99.0315789,36.0343515 99.4360173,37.0282404 100.213031,37.795857 C100.971217,38.5738769 101.993719,38.9963261 103.071255,38.9963261 C104.151327,38.9963261 105.159345,38.5738769 105.928393,37.795857 C106.698528,37.0282404 107.113466,36.0343515 107.113466,34.9356863 M105.827374,34.9356863 C105.827374,35.7055322 105.541335,36.419646 105.018135,36.9780815 C104.495298,37.5335446 103.809527,37.8240946 103.071255,37.8240946 C102.334432,37.8240946 101.65373,37.5335446 101.119668,36.9780815 C100.591038,36.419646 100.312602,35.7055322 100.312602,34.9356863 C100.312602,34.1472631 100.591038,33.4220029 101.119668,32.8698837 C101.65373,32.3114482 102.339139,32.0231275 103.071255,32.0231275 C103.797941,32.0231275 104.495298,32.3114482 105.018135,32.8698837 C105.541335,33.4220029 105.827374,34.1472631 105.827374,34.9356863" id="Fill-60"></path>
                            <path d="M114.357895,38.6984723 L115.319508,38.6984723 L115.319508,33.4500196 C115.49981,33.7504069 115.708304,34.0392129 115.950566,34.3023232 L120.130672,38.9963261 L120.130672,31.1507906 L119.169058,31.1507906 L119.169058,36.3887478 C118.945384,36.0695411 118.719232,35.764449 118.456213,35.4716619 L114.357895,30.8598131 L114.357895,38.6984723" id="Fill-61"></path>
                            <polyline id="Fill-62" points="0 1.18691589 0 3.59291337 3.10754641 3.59291337 3.10754641 18.622301 4.99600922 18.622301 4.99600922 3.59291337 8.08188748 3.59291337 8.08188748 1.18691589 0 1.18691589"></polyline>
                            <polyline id="Fill-63" points="21.2210526 1.18691589 21.2210526 18.622301 26.9938294 18.622301 26.9938294 16.0840799 22.9025901 16.0840799 22.9025901 10.4509005 26.9938294 10.4509005 26.9938294 7.96803979 22.9025901 7.96803979 22.9025901 3.59248094 26.9938294 3.59248094 26.9938294 1.18691589 21.2210526 1.18691589"></polyline>
                            <path d="M38.9052632,18.6219273 L41.5942873,18.6219273 C43.8382822,18.6219273 45.6002493,18.6901688 47.1440647,16.98239 C48.5356975,15.4455632 49.2962613,13.0334344 49.2962613,9.91034048 C49.2962613,6.79212094 48.5356975,4.35527206 47.1440647,2.8163562 C45.6550489,1.18691589 43.8885443,1.18691589 41.5942873,1.18691589 L38.9052632,1.18691589 L38.9052632,18.6219273 Z M40.8982964,16.057996 L40.8982964,3.72264534 L41.6201165,3.72264534 C43.4414208,3.72264534 44.795008,3.62411294 45.8393434,4.86603893 C46.7684948,5.99097945 47.2253916,7.66742285 47.2253916,9.88840571 C47.2253916,12.1111294 46.7684948,13.792099 45.8393434,14.9125134 C44.7827915,16.2021388 43.4292043,16.057996 41.6201165,16.057996 L40.8982964,16.057996 L40.8982964,16.057996 Z" id="Fill-64"></path>
                            <path d="M77.8105263,18.622301 L81.0008303,18.622301 C82.7571523,18.622301 83.961251,18.5457017 84.8602778,17.2933038 C85.4905679,16.4239021 85.8924138,15.1102248 85.8924138,13.6718995 C85.8924138,11.3286584 84.9854724,9.69082686 83.5176736,9.37502899 C84.698748,8.88723095 85.3322759,7.59792607 85.3322759,5.74387572 C85.3322759,4.18403617 84.8807838,2.84911991 84.1022748,2.06258474 C83.3255646,1.26351515 82.3193309,1.18691589 80.9774462,1.18691589 L77.8105263,1.18691589 L77.8105263,18.622301 Z M79.8244327,16.251902 L79.8244327,10.6921881 L80.5180396,10.6921881 C81.4051945,10.6921881 82.1631974,10.6253379 82.7981643,11.0835407 C83.4291739,11.5494035 83.7684225,12.3996554 83.7684225,13.5009439 C83.7684225,14.4469448 83.4673079,15.2526298 82.9766026,15.7160553 C82.4783425,16.179829 81.665297,16.251902 80.5180396,16.251902 L79.8244327,16.251902 Z M79.8244327,8.55297962 L79.8244327,3.54756592 L80.5925088,3.54756592 C82.4139464,3.54756592 83.2698026,3.96433555 83.2698026,6.13313925 C83.2698026,7.96803979 82.4470438,8.55297962 80.5925088,8.55297962 L79.8244327,8.55297962 L79.8244327,8.55297962 Z" id="Fill-65"></path>
                            <path d="M106.162174,17.4353851 L108.219238,17.4353851 L102.446801,0 L96.6736842,17.4353851 L98.715778,17.4353851 L100.094753,13.1118063 L104.81382,13.1118063 L106.162174,17.4353851 Z M100.809247,10.839272 L102.027291,7.01731276 C102.160663,6.56696092 102.309006,5.95744454 102.465854,5.11035417 C102.629848,5.95744454 102.782614,6.56696092 102.909181,7.01731276 L104.127225,10.839272 L100.809247,10.839272 L100.809247,10.839272 Z" id="Fill-66"></path>
                            <polyline id="Fill-67" points="125.347041 1.18691589 121.028147 8.39490659 121.028147 1.18691589 119.073684 1.18691589 119.073684 18.622301 121.028147 18.622301 121.028147 9.7225111 125.785826 18.622301 128.310127 18.622301 122.976779 8.93353869 127.73583 1.18691589 125.347041 1.18691589"></polyline>
                            <polyline id="Fill-68" points="140.294737 1.18691589 140.294737 18.622301 146.067514 18.622301 146.067514 16.0840799 141.971781 16.0840799 141.971781 10.4509005 146.067514 10.4509005 146.067514 7.96803979 141.971781 7.96803979 141.971781 3.59248094 146.067514 3.59248094 146.067514 1.18691589 140.294737 1.18691589"></polyline>
                            <path d="M160.94999,10.820391 L161.167875,10.820391 L165.082083,18.622301 L167.239782,18.622301 L163.191956,10.6919029 C164.969951,10.3795618 165.885807,8.78721447 165.885807,5.99146621 C165.885807,4.35524488 165.46313,2.98122288 164.747702,2.16050066 C164.028581,1.32724302 163.08956,1.18691589 161.821866,1.18691589 L159.157895,1.18691589 L159.157895,18.622301 L160.94999,18.622301 L160.94999,10.820391 Z M161.064808,8.61624519 L161.064808,3.62296706 L161.412954,3.62296706 C163.127497,3.62296706 163.925513,4.08190294 163.925513,6.23660344 C163.925513,8.32967142 163.08956,8.61624519 161.412954,8.61624519 L161.064808,8.61624519 L161.064808,8.61624519 Z" id="Fill-69"></path>
                        </g>
                    </g>
                </g>
            </g>
        </g>
    </g>
</svg>