<?xml version="1.0" encoding="UTF-8"?>
<svg width="224px" height="127px" viewBox="0 0 224 127" version="1.1" xmlns="http://www.w3.org/2000/svg" xmlns:xlink="http://www.w3.org/1999/xlink">
    <title>Slice</title>
    <g id="Page-1" stroke="none" stroke-width="1" fill="none" fill-rule="evenodd">
        <path d="M200.653334,63.6088808 L196.235805,63.6088808 L196.235805,58.0809347 L200.653334,58.0809347 C201.409136,57.9730424 202.171428,58.2290504 202.708895,58.7712741 C203.246362,59.3134977 203.495644,60.0780158 203.381097,60.832838 C203.504271,61.5914602 203.258842,62.3633985 202.720178,62.9115962 C202.181514,63.459794 201.414,63.7187277 200.653334,63.6088808 M200.653334,55.3290315 L193.411483,55.3290315 L193.411483,72.7094731 L196.259944,72.7094731 L196.259944,66.360784 L200.556776,66.360784 C202.091359,66.5177432 203.617951,65.9965998 204.736211,64.9340199 C205.854472,63.87144 206.45284,62.3734321 206.374396,60.832838 C206.472314,59.3194199 205.903366,57.8388895 204.817145,56.7805201 C203.730923,55.7221507 202.236117,55.1918436 200.725752,55.3290315 M182.621125,57.9360977 C185.32475,57.9360977 187.159352,60.3500479 187.159352,64.0433918 C187.159352,67.7367357 185.421308,70.1024069 182.717683,70.1024069 C180.014059,70.1024069 178.179457,67.6884567 178.179457,63.9951128 C178.179457,60.3017689 179.917501,57.9360977 182.621125,57.9360977 M182.621125,55.0634969 C178.155317,55.0634969 175.162019,58.6844223 175.162019,64.0433918 C175.162019,69.4023613 178.131178,72.9991472 182.572846,72.9991472 C187.014515,72.9991472 190.031953,69.3782218 190.031953,63.9951128 C190.031953,58.6120038 187.062794,55.0634969 182.621125,55.0634969 M168.885749,62.3053476 L161.378363,62.3053476 L161.378363,55.3290315 L158.481623,55.3290315 L158.481623,72.7094731 L161.378363,72.7094731 L161.378363,65.1296694 L168.861609,65.1296694 L168.861609,72.7094731 L171.758349,72.7094731 L171.758349,55.3290315 L168.861609,55.3290315 L168.885749,62.3053476 Z M149.574147,62.4260451 C146.48429,61.5087441 145.977361,60.929396 145.977361,60.0120949 C145.977361,59.0947938 146.96708,58.0567952 148.656846,58.0567952 C150.111035,57.981884 151.521356,58.5673005 152.495026,59.6500024 L152.495026,59.6500024 L154.546884,57.5740052 L154.426187,57.4533077 C152.944776,55.8925278 150.881045,55.0180655 148.729264,55.0393574 C147.311225,54.863361 145.883626,55.282587 144.7859,56.197359 C143.688174,57.112131 143.018384,58.4407278 142.935784,59.8672579 C142.935784,63.1743697 144.987641,64.0433918 148.391311,65.0572509 C151.239772,65.9021335 152.108794,66.5297605 152.108794,67.7125962 C152.108794,68.2678047 152.108794,70.0058489 148.753404,70.0058489 C147.11568,69.9618034 145.565596,69.2564281 144.456572,68.0505492 L144.456572,67.9298517 L142.380575,69.9334304 L142.380575,69.9334304 C143.935057,71.9023865 146.317461,73.0355896 148.825822,72.9991472 C154.450326,72.9991472 155.295209,69.6437563 155.295209,67.6643171 C155.295209,64.3089263 152.881259,63.2709277 149.718984,62.3536266 M129.852173,60.1569319 C129.321104,61.0983725 128.621059,62.4260451 128.258966,63.1985092 C127.872734,62.4019056 127.148549,61.025954 126.64162,60.1086529 L123.937995,55.2807525 L120.413628,55.2807525 L126.665759,65.8055755 L126.665759,72.6611941 L129.51422,72.6611941 L129.51422,65.8538545 L135.766351,55.3290315 L132.45924,55.3290315 L129.852173,60.1569319 Z M109.599131,58.1533532 L111.530291,58.1533532 C113.094997,58.0188972 114.635355,58.6069111 115.712434,59.7498382 C116.789513,60.8927652 117.285197,62.4652666 117.058237,64.0192523 C117.292347,65.5961721 116.781753,67.192488 115.675947,68.3408247 C114.570141,69.4891614 112.994222,70.0596096 111.409594,69.8851514 L109.478433,69.8851514 L109.599131,58.1533532 Z M111.530291,55.3290315 L106.702391,55.3290315 L106.702391,72.7094731 L111.530291,72.7094731 C113.839191,72.8325189 116.087078,71.9432355 117.686886,70.2738711 C119.286693,68.6045068 120.07956,66.3208296 119.858419,64.0192523 C120.102382,61.6868252 119.296612,59.3666838 117.659461,57.6875552 C116.022311,56.0084266 113.723309,55.1441862 111.385454,55.3290315 M95.718917,57.9360977 C98.4225413,57.9360977 100.257143,60.3500479 100.257143,64.0433918 C100.257143,67.7367357 98.5190993,70.1024069 95.815475,70.1024069 C93.1118508,70.1024069 91.2772486,67.6884567 91.2772486,63.9951128 C91.2772486,60.3017689 93.0152928,57.9360977 95.718917,57.9360977 M95.718917,55.0634969 C91.2531091,55.0634969 88.2598108,58.6844223 88.2598108,64.0433918 C88.2598108,69.4023613 91.2289696,72.9991472 95.670638,72.9991472 C100.112306,72.9991472 103.129744,69.3782218 103.129744,63.9951128 C103.129744,58.6120038 100.160585,55.0634969 95.718917,55.0634969 M79.907543,62.0880921 L75.5865721,62.0880921 L75.5865721,58.0085162 L79.9799615,58.0085162 C80.5645048,57.9155824 81.159065,58.0993357 81.5892419,58.5058765 C82.0194187,58.9124172 82.2364432,59.4956561 82.1766562,60.0845134 C82.1951892,60.6560966 81.9625579,61.207143 81.5400292,61.5925263 C81.1175005,61.9779096 80.5474327,62.1589954 79.9799615,62.0880921 M79.9799615,70.0299884 L75.5865721,70.0299884 L75.5865721,64.7434374 L80.0282405,64.7434374 C80.7792856,64.6014321 81.553209,64.8235165 82.1146751,65.342159 C82.6761412,65.8608014 82.9588006,66.6147129 82.8767018,67.3746431 C82.8767018,69.1609663 81.9352612,70.0299884 79.955822,70.0299884 M83.1663758,63.2950672 C84.3864452,62.6282626 85.1248066,61.3291204 85.0733965,59.9396764 C85.1285937,58.6179306 84.5949423,57.3397342 83.6162881,56.4496249 C82.6376339,55.5595156 81.3147065,55.1491095 80.004101,55.3290315 L72.7622503,55.3290315 L72.7622503,72.7094731 L79.6902875,72.7094731 C83.5767474,72.7094731 85.7010236,70.8024524 85.7010236,67.3022246 C85.7726066,65.547998 84.726725,63.9404392 83.0939573,63.2950672 M52.8954399,64.8641349 L57.7233404,64.8641349 L57.7233404,62.0398131 L52.8954399,62.0398131 L52.8954399,58.1533532 L61.3201262,58.1533532 L61.3201262,55.3290315 L50.0711182,55.3290315 L50.0711182,72.7094731 L61.7546373,72.7094731 L61.7546373,69.8851514 L52.9678584,69.8851514 L52.8954399,64.8641349 Z M42.9258255,62.2329291 L35.4908588,62.2329291 L35.4908588,55.3290315 L32.5941185,55.3290315 L32.5941185,72.7094731 L35.4908588,72.7094731 L35.4908588,65.1296694 L42.998244,65.1296694 L42.998244,72.7094731 L45.8949843,72.7094731 L45.8949843,55.3290315 L42.998244,55.3290315 L42.9258255,62.2329291 Z M17,58.1774927 L21.8279005,58.1774927 L21.8279005,72.6611941 L24.7246407,72.6611941 L24.7246407,58.1774927 L29.8180757,58.1774927 L29.8180757,55.3290315 L17,55.3290315 L17,58.1774927 Z" id="Shape" fill="#7A7A7A" fill-rule="nonzero"></path>
    </g>
</svg>