<?xml version="1.0" encoding="UTF-8"?>
<svg width="224px" height="127px" viewBox="0 0 224 127" version="1.1" xmlns="http://www.w3.org/2000/svg" xmlns:xlink="http://www.w3.org/1999/xlink">
    <title>Slice</title>
    <g id="Page-1" stroke="none" stroke-width="1" fill="none" fill-rule="evenodd">
        <g id="zizzi-logo" transform="translate(24.000000, 36.000000)" fill="#7A7A7A" fill-rule="nonzero">
            <path d="M173.561095,29.7169554 C173.018671,27.5889053 172.115077,25.5497417 171.752573,23.3328049 C171.453186,21.1980089 170.96944,19.092016 170.306555,17.037541 C169.673506,15.2637301 168.860537,12.8703273 166.96139,12.0703477 C165.369653,11.8131571 163.74415,12.2688098 162.531378,13.312146 C161.08536,14.8192971 161.175986,17.3015865 160.722856,19.164284 C159.612627,23.5747907 159.036021,28.0982244 159.00496,32.6410637 C158.914334,36.9860507 160.089807,41.3297305 160.541604,45.6747174 C160.722856,47.3596417 160.63223,49.3988052 161.807703,50.8170696 C163.15499,52.3510718 164.955758,53.4356487 166.960057,53.9202583 C170.305222,54.5411574 175.00578,51.4366616 175.366951,48.0681203 C175.633498,46.0289567 175.909374,44.0786798 176,42.0382091 C175.953986,39.9602057 175.77281,37.8872005 175.457577,35.8318318 C175.097738,33.7965897 174.103518,31.756119 173.561095,29.7169554 Z M54.0559428,49.9744352 C55.2171239,51.4618278 56.7192076,52.6511043 58.4366824,53.4428907 C60.0850516,54.2158758 62.0008124,54.182927 63.6213483,53.3537206 C64.9616648,52.7308411 66.9293075,51.4863933 67.2864617,49.8852651 C68.3457635,43.542526 68.224702,37.0600994 66.9293075,30.7608967 C66.3923848,28.6975593 65.7052556,26.6758381 64.8733647,24.711753 C64.0731154,22.7531827 63.4451911,20.7292092 62.996658,18.6626093 C62.63046,16.6206009 61.7711378,14.6976891 60.4926251,13.0593162 C59.3302267,11.6365282 58.2521747,11.8135571 56.8275118,12.6147769 C54.861187,13.6821957 54.681951,15.1941538 54.1455608,17.2398213 C52.8525116,21.6670807 52.131522,26.2401977 52,30.8487555 C52.4467722,35.296771 52.8935444,39.7434751 53.1623984,44.1914906 C53.1623984,45.8817889 52.9831624,48.4611658 54.0559428,49.9731239 L54.0559428,49.9744352 Z M56.6435,9.28317498 C57.3617445,9.13129082 58.0605191,8.89948887 58.7266291,8.59214614 C59.3996775,8.52655558 60.0668901,8.41127836 60.7227479,8.24726802 C62.285615,7.14865629 63.1448826,5.30768084 62.9798976,3.41133873 C62.6331359,2.46196946 61.5045611,1.94401598 60.4629965,1.51260018 C59.52945,0.897429624 58.3347577,0.831256161 57.3383029,1.33952482 C57.0842196,1.66770303 56.7576059,1.93332254 56.3837486,2.11581873 C54.8214018,3.4966038 52.4785214,3.75621685 51.1759259,5.56841772 C50.9758258,6.21173689 50.945858,6.89549787 51.0889156,7.55369395 C51.3468236,8.33985455 51.6963914,9.09327985 52.1304801,9.79858323 C52.3705076,9.81522011 52.6057074,9.87380836 52.825283,9.9716586 C54.1265989,10.1472792 55.3370658,9.45625034 56.6435,9.28317498 L56.6435,9.28317498 Z M87.5616249,28.279259 C86.6605686,29.7060778 85.669141,31.1328966 84.5873419,32.5597154 C83.4456511,33.8139473 82.4481241,35.1895803 81.6130588,36.6613813 C80.9817878,38.1771571 79.539832,39.3366665 78.6387758,40.6736518 C78.1882476,41.3874994 77.6473481,41.9225565 77.1064485,42.6350895 C76.3419041,43.6073694 75.6776426,44.6528946 75.1235932,45.7560365 C74.1321655,47.5399982 75.0332217,49.23325 77.1064485,50.5715499 C78.3689905,51.3747928 80.171103,50.8344772 81.7938017,50.6609452 C82.5154441,50.5715499 83.3261289,50.6609452 84.2271851,50.5715499 C84.8584561,50.5715499 85.4897271,50.4821546 86.0306267,50.4821546 C86.9633972,50.4945585 87.8949126,50.5542336 88.8215089,50.6609452 C91.8861633,50.8397358 95.4930464,50.7503405 98.1962151,50.6609452 C100.07438,50.7041591 101.951012,50.5245255 103.785954,50.1258882 C105.39396,49.6895017 106.816553,48.7511967 107.842036,47.4506029 C108.844259,46.3971456 109.557886,45.1079398 109.915262,43.7052036 C110.038732,43.4460894 110.026683,43.1436912 109.88298,42.8949936 C109.739278,42.646296 109.481985,42.4825601 109.19362,42.4562989 C108.02145,42.2775083 106.849279,42.4562989 105.588066,42.2775083 C105.407323,42.2775083 105.137538,42.188113 104.956795,42.2775083 C102.697509,42.3669036 100.269442,42.5404356 97.9251009,42.4562989 C96.5160623,42.3225449 95.0973144,42.3225449 93.6882759,42.4562989 C93.2377477,42.3669036 92.6968482,42.6350895 92.3366915,42.3669036 C92.7872196,41.2967895 93.8690187,40.6723372 94.5002897,39.6916184 C96.8446307,36.2144049 98.376958,32.2902149 101.26087,29.2586632 C102.088106,28.4308203 102.843839,27.5359345 103.520155,26.583378 C104.151426,25.6920544 104.782697,24.532545 105.503011,23.6412215 C106.224653,22.6605027 106.765553,21.4063395 107.485866,20.4308792 C108.206179,19.4554189 109.37835,18.8257081 109.649464,17.5768034 C109.830207,16.5066893 109.198936,15.882237 108.386922,15.169704 C107.485866,14.3677757 106.764224,13.3857423 105.861838,13.2976616 C105.374349,13.2742647 104.886453,13.3347597 104.419882,13.4764522 C102.915013,13.4504241 101.409876,13.5101198 99.9119432,13.6552428 C99.2806722,13.744638 98.6494012,13.9181701 98.0194593,14.0115092 C96.6678749,14.1902998 95.1342186,13.4764522 93.9633771,13.6552428 C92.1653,13.2125387 90.3167274,13.0026335 88.4640101,13.0307904 C86.3288594,12.9566763 84.1911068,13.0163927 82.0635869,13.209581 C80.9292851,13.3820468 79.8500021,13.8092768 78.908561,14.4584857 C78.1961296,14.8063714 77.5039686,15.1934816 76.8353343,15.617995 C75.9401491,16.4272306 75.2062728,17.3953117 74.671736,18.4720708 C74.1262318,19.2524957 73.9006056,20.2086848 74.0404651,21.1473561 L74.0404651,21.3261467 C74.2212079,21.589074 74.5813646,21.589074 74.8524789,21.589074 C75.7535351,21.6784692 76.7449628,21.3261467 77.7377195,21.4102834 C78.2172974,21.4552344 78.7000974,21.4552344 79.1796753,21.4102834 C82.0649159,21.2314928 85.1295704,21.4996787 88.1942249,21.4102834 C89.6938263,21.276459 91.2025627,21.276459 92.7021641,21.4102834 C92.0708932,22.4803975 90.9890941,23.7293021 90.3578231,24.6206257 C89.2865776,25.7274595 88.3499167,26.9544679 87.5669409,28.2766298 L87.5616249,28.279259 Z M161.560686,2.09242092 C160.394757,2.09749445 159.233658,2.24237607 158.102328,2.52395376 C157.928964,2.77854541 157.670192,2.86892545 157.496828,3.04204777 C156.719239,3.90511345 157.064693,5.3728343 157.151375,6.49558346 C157.406322,7.35864915 157.238057,8.30827599 157.756874,9.08605348 C158.302607,9.79983852 159.21127,10.1358375 160.090916,9.94911916 C160.741139,9.70823295 161.405183,9.50632212 162.079503,9.344464 C163.549274,8.91293116 165.365772,8.48139831 166.923499,8.04986547 C167.615681,7.87674315 167.78777,7.70489379 168.219905,6.92711631 C168.760609,5.95069543 169.029136,4.84731404 168.997494,3.73199113 C167.266403,1.57432692 163.981409,2.00713272 161.559411,2.09242092 L161.560686,2.09242092 Z M130.955837,26.3214169 C129.968362,27.661067 128.705558,28.9124608 127.9034,30.2534282 C127.326647,31.5444329 126.569028,32.7476248 125.653122,33.8271456 C124.807962,34.6372032 124.053468,35.5359851 123.402843,36.5077629 C122.954111,37.1334599 122.774089,37.847413 122.325357,38.3835365 C120.97916,40.1710538 119.631641,41.9572539 118.285444,43.8343446 C117.297969,45.1739947 115.505688,46.7823651 116.669215,48.3907355 C117.40674,49.298788 118.285798,50.0832914 119.27292,50.7143764 C119.742886,50.9546428 120.275313,51.0465489 120.799138,50.9778277 C122.415368,50.9778277 124.300307,50.8882542 125.647827,50.7986808 C127.712788,50.7091073 129.687739,50.5352294 131.754024,50.6195339 C132.411574,50.6642501 133.071425,50.6642501 133.728975,50.6195339 C135.793936,50.5299604 137.858898,50.7986808 139.65515,50.7091073 C141.001346,50.9725587 142.348866,50.445656 143.606374,50.6195339 C145.365768,50.3428238 147.047821,49.7039614 148.545074,48.7437603 C149.402359,48.038699 150.131321,47.1920814 150.700047,46.2409726 C151.148779,45.5257022 152.226265,43.9173318 151.957556,43.1138052 C151.692817,42.3985349 150.521348,42.4881083 149.982605,42.4881083 C148.636409,42.4881083 147.108867,42.4881083 145.762671,42.5776818 C144.236452,42.6672552 142.982915,42.6672552 141.542736,42.6672552 C139.119054,42.4038039 136.604037,43.0242318 134.270365,42.4881083 C134.180354,42.1311317 134.360376,41.9519848 134.450388,41.6832645 C135.527874,40.074894 136.60536,37.7512532 137.862869,36.2324563 C138.473715,35.4757257 139.133428,34.759379 139.837819,34.0879624 C140.24797,33.5874567 140.608793,33.0488533 140.915306,32.479592 C141.274027,31.853895 141.902781,31.1399419 142.351513,30.514245 C143.158966,29.5315715 143.877731,28.3697511 144.601792,27.3870776 C145.8593,25.5995603 147.116809,23.2772367 148.463005,21.4897194 C149.630503,19.9709224 151.515442,18.9869317 151.242761,17.0215847 C151.422784,16.1284846 150.614007,15.6819346 150.075264,15.0562377 C149.641584,14.4539844 149.161394,13.886284 148.639056,13.3582938 C146.035352,13.1791469 143.431647,13.4478673 140.916629,13.4478673 C139.839143,13.4478673 138.761657,13.1844159 137.68417,13.2687204 C136.412366,13.0134963 135.10533,12.9831753 133.822957,13.1791469 C133.194203,13.1791469 132.655459,13.0895735 132.116716,13.0895735 C131.03923,13.1791469 129.961743,13 128.884257,13 C126.999318,13 124.574312,13.0895735 122.419339,13.2634513 C121.007104,13.6552025 119.732416,14.4306187 118.738148,15.5027877 C117.669516,16.4790891 116.866292,17.7084255 116.403153,19.0765051 C116.22313,19.6126286 115.774398,20.5953021 116.138414,21.0418521 C116.587146,21.7571225 118.562096,21.3053034 119.280862,21.220999 C120.386528,21.1315595 121.497665,21.1315595 122.603332,21.220999 C123.143639,21.2357425 123.684242,21.2057816 124.219562,21.1314256 C125.150441,21.1663624 126.078546,21.2543235 126.999318,21.3948769 C127.507064,21.4396186 128.01779,21.4396186 128.525536,21.3948769 C130.410475,21.4844504 132.565448,21.3053034 134.271689,21.3948769 C134.271689,21.7518535 133.822957,22.1984035 133.642935,22.5566973 C132.857197,23.883737 131.955826,25.1395191 130.949219,26.3095616 L130.955837,26.3214169 Z M29.6433209,50.3398038 C33.0354094,49.8917978 36.0696049,50.0754935 39.1932736,49.8917978 C40.6237821,49.8154438 42.0582769,49.875624 43.477463,50.0715288 C44.1497785,50.2321431 44.8464041,50.2626419 45.5300844,50.1613943 C46.6102505,49.3891724 47.1630086,48.0700406 46.9577089,46.7544343 C42.3662067,44.0200536 37.3628958,42.0530707 32.1433085,40.9303564 C31.0722612,40.666046 30.0012139,40.666046 28.6630626,40.3924848 C27.4213196,40.215296 26.1686085,40.1269701 24.9143969,40.1281745 C24.5196928,40.1430045 24.1257996,40.0820019 23.7538764,39.9484435 C23.2183527,39.590303 23.6644031,38.962566 23.9328228,38.6044255 C25.895971,35.646793 27.3249113,32.5979735 29.2880595,29.908616 C31.0976323,27.4963828 32.7670671,24.9812519 34.2880348,22.3757718 C35.6749111,19.7588857 37.2876631,17.269232 39.1077477,14.9354362 C39.9103753,13.7698277 40.9814227,12.5156753 41.4287889,11.7082072 C42.334595,10.0671575 43.379694,8.50766935 44.5524576,7.04709471 C45.1774545,6.24094823 46.1590286,5.52334571 46.1590286,4.35773719 C44.8208774,3.28199418 43.3024638,1.04064266 41.5182621,1.58247882 C38.6573254,2.27462165 35.7021084,2.48672971 32.7722528,2.21021583 C32.0831248,2.16626254 31.3975114,2.07797802 30.7196314,1.94590551 C30.0051612,1.85604 29.3814801,1.68159519 28.6670099,1.58776502 C27.0604389,1.22962454 25.2749215,0.960028009 23.6670347,0.601887523 C20.5865926,-0.0536518264 17.4171615,-0.174780931 14.2960284,0.243747038 C11.2618329,0.508057359 6.08554275,2.49038477 5.19212611,5.44273106 C4.74607569,6.87661455 3.67502836,8.3118196 4.38949851,9.92543411 C7.85710815,10.2982888 11.3449168,10.4479298 14.8315521,10.3734401 C17.9552208,10.5531711 20.7223124,9.92543411 23.8459812,10.4633056 C25.0065017,10.6430366 27.0591232,10.1989953 28.1301705,10.9113116 C28.1301705,10.9113116 24.4709781,16.197518 20.9894164,20.1449927 C19.3360213,21.9635188 17.8706273,23.945869 16.6157538,26.0615792 C15.2936448,28.0701563 13.80032,29.9595881 12.152618,31.7085692 C8.67237205,35.7419447 4.56581342,41.1206598 3.49476609,42.5558648 C2.19140539,44.1366558 1.05463896,45.8488382 0.102677618,47.6649833 C-0.245145018,48.8969566 0.31290805,50.2053403 1.44082889,50.8023469 C1.97889005,51.5668778 2.6427833,52.2336817 3.40397707,52.7741018 C5.95917165,54.0038098 8.85594155,54.3199349 11.6144628,53.6701138 C12.3289329,53.5802483 13.0420873,53.4058035 13.7565574,53.3119734 C17.9512735,52.4159614 22.4144093,51.9679554 26.4301789,50.8922124 C27.4738938,50.5755461 28.5537687,50.3947779 29.6433209,50.3543409 L29.6433209,50.3398038 Z" id="Shape"></path>
        </g>
    </g>
</svg>