<?xml version="1.0" encoding="UTF-8"?>
<svg width="145px" height="86px" viewBox="0 0 145 86" version="1.1" xmlns="http://www.w3.org/2000/svg" xmlns:xlink="http://www.w3.org/1999/xlink">
    <!-- Generator: Sketch 64 (93537) - https://sketch.com/ -->
    <title>Page 1 Copy</title>
    <desc>Created with Sketch.</desc>
    <defs>
        <polygon id="path-1" points="22.4501161 23.2974066 22.4501161 0.124227689 0.070476682 0.124227689 0.070476682 23.2974066 22.4501161 23.2974066"></polygon>
        <polygon id="path-3" points="0.107989439 8.26007905 15.8415082 8.26007905 15.8415082 0.0629248586 0.107989439 0.0629248586 0.107989439 8.26007905"></polygon>
        <polygon id="path-5" points="0.163323951 8.26007905 15.8968427 8.26007905 15.8968427 0.0629248586 0.163323951 0.0629248586"></polygon>
        <polygon id="path-7" points="0.174118832 8.26007905 15.6948076 8.26007905 15.6948076 0.0629248586 0.174118832 0.0629248586"></polygon>
        <polygon id="path-9" points="0.0269483429 8.26007905 15.7602493 8.26007905 15.7602493 0.0629248586 0.0269483429 0.0629248586"></polygon>
        <polygon id="path-11" points="0.0950272205 8.26007905 15.828546 8.26007905 15.828546 0.0629248586 0.0950272205 0.0629248586 0.0950272205 8.26007905"></polygon>
    </defs>
    <g id="5.-Food-&amp;-Drink" stroke="none" stroke-width="1" fill="none" fill-rule="evenodd">
        <g id="Grand-Folly-Hotel" transform="translate(-263.000000, -149.000000)">
            <g id="Page-1-Copy" transform="translate(263.000000, 149.000000)">
                <g id="Group-23" transform="translate(61.741935, 0.000000)" fill="#FFFFFF">
                    <path d="M0.174863524,0.802243789 L0.353828784,0.190495342 C0.365486352,0.109569876 0.381461538,0.0574891304 0.401754342,0.0344534161 C0.422263027,0.0116180124 0.445578164,0 0.471699752,0 C0.523942928,0 0.583741935,0.0582903727 0.650665012,0.174270186 C0.700317618,0.258 0.740903226,0.311282609 0.773069479,0.334318323 C0.805019851,0.357354037 0.851650124,0.37277795 0.912744417,0.380790373 L0.956352357,0.376784161 L1.14395285,0.393009317 L2.17456824,0.405228261 L3.39256824,0.40122205 L3.75049876,0.40122205 L4.42728536,0.389403727 C4.45642928,0.389403727 4.49291315,0.392208075 4.53652109,0.397416149 C4.73448387,0.413440994 4.85667246,0.421453416 4.90330273,0.421453416 C4.94691067,0.421453416 4.98188337,0.408232919 5.00822084,0.381591615 C5.01685608,0.371175466 5.06478164,0.282037267 5.1522134,0.114177019 C5.18977667,0.0380590062 5.23640695,0 5.29188834,0 C5.31520347,0 5.34413151,0.00540838509 5.37910422,0.0162251553 C5.39378412,0.0697080745 5.40112407,0.117982919 5.40112407,0.160849379 L5.39659057,0.321698758 L5.40112407,0.663428571 C5.40112407,0.746557453 5.39378412,1.01457298 5.37910422,1.46747516 C5.37910422,1.49692081 5.37327543,1.52376242 5.36161787,1.54779969 C5.32966749,1.56662888 5.30203474,1.57604348 5.27893548,1.57604348 C5.25540447,1.57604348 5.23511166,1.56602795 5.21762531,1.54579658 C5.20013896,1.52576553 5.17833499,1.46366925 5.1522134,1.35910714 C5.09392556,1.11833385 5.0211737,0.945465839 4.93395782,0.841104037 C4.87545409,0.774200311 4.79190819,0.726125776 4.68288834,0.696479814 C4.57365261,0.667034161 4.31243672,0.65221118 3.89902481,0.65221118 L3.16114392,0.65221118 C3.15531514,0.760579193 3.15250868,0.859131988 3.15250868,0.948270186 L3.18748139,3.46637422 C3.18748139,3.56632919 3.18165261,3.75562267 3.16999504,4.03405435 L3.17431266,4.57329037 L3.16999504,4.87335559 C3.16999504,4.96790217 3.18748139,5.03560714 3.22223821,5.07606988 C3.25721092,5.11673292 3.35176675,5.15579348 3.50612159,5.19365217 C3.7738139,5.25594876 3.95299504,5.29380745 4.04323325,5.30722826 C4.09849876,5.31263665 4.14361787,5.32345342 4.17859057,5.33967857 L4.17859057,5.46106677 L3.55858065,5.44684472 C3.2179206,5.44424068 2.96166998,5.43843168 2.79004467,5.42881677 L2.15254839,5.45706056 L1.68538213,5.48149845 C1.55455831,5.48149845 1.4744665,5.4786941 1.44532258,5.47328571 L1.38422829,5.44904814 C1.39005707,5.38695186 1.40300993,5.34709006 1.42351861,5.32946273 C1.44381141,5.31203571 1.49778164,5.29781366 1.58499752,5.28699689 C1.70740199,5.27077174 1.85139454,5.24172671 2.01719107,5.1998618 C2.18320347,5.15799689 2.29243921,5.11553106 2.34468238,5.07226398 C2.3738263,5.0480264 2.39411911,5.00736335 2.40577667,4.95067547 C2.43211414,4.8318913 2.44528288,4.59832919 2.44528288,4.24978882 L2.44528288,3.56112112 L2.42779653,2.05819099 L2.41009429,1.7338882 L2.40577667,0.65221118 L1.70286849,0.65221118 C1.28384367,0.65221118 1.02910422,0.676048137 0.938866005,0.722920807 C0.796168734,0.796434783 0.583741935,1.0111677 0.301369727,1.36752019 C0.208109181,1.50112733 0.126722084,1.56783075 0.0567766749,1.56783075 L0.0174863524,1.55981832 C0.00604466501,1.54359317 0,1.52877019 0,1.51534938 C0,1.48269876 0.0235310174,1.38554814 0.0701612903,1.2236972 C0.128233251,1.01557453 0.162990074,0.875156832 0.174863524,0.802243789" id="Fill-21"></path>
                </g>
                <g id="Group-38" transform="translate(122.548387, 40.195652)">
                    <mask id="mask-2" fill="white">
                        <use xlink:href="#path-1"></use>
                    </mask>
                    <g id="Clip-37"></g>
                    <path d="M4.79707576,0.124227689 L5.410967,0.469646262 C5.63248959,0.594078947 6.11167115,0.878408658 6.84893935,1.3224304 C7.98156977,2.01839245 8.93159373,2.58172197 9.69901124,3.01364893 L11.2101117,3.83055873 C11.4230813,3.9506865 11.6176619,4.08188406 11.7940675,4.2247664 C11.8133117,4.32418955 11.8009099,4.41028795 11.7560066,4.48388158 L11.6734702,4.61876907 L11.2618573,4.5847397 L11.1203053,4.50561117 L10.392873,4.11242849 L10.0272324,3.89062262 C9.73578912,3.72642067 9.4623071,3.655082 9.20742783,3.6764016 C9.01562691,3.68952136 8.89011171,3.74528032 8.83002691,3.8432685 C8.76502415,3.94945652 8.74193106,4.11796339 8.76160295,4.3485841 C8.76395502,4.43775744 8.77229419,4.5742849 8.78597899,4.75816648 C8.78619281,5.13207952 8.8144177,5.58245614 8.87108129,6.10909134 C8.94142968,6.8745471 8.97756608,7.75254577 8.97927668,8.74308734 C8.97799373,9.13831998 8.99296147,9.52637777 9.02417991,9.90664569 L9.24185364,13.8228928 C9.464873,13.7394594 9.78047853,13.6090818 10.1878149,13.4313501 L13.5880582,11.9293431 L17.5857283,10.0704376 C17.9428159,9.89824085 18.1788785,9.75617849 18.2932748,9.64445557 C18.3501523,9.58869661 18.4012564,9.52391781 18.4463735,9.45073417 C18.5513615,9.27894737 18.5554241,9.0942458 18.4585615,8.89683448 C18.2992619,8.57663043 17.8055403,8.12850877 16.9776103,7.55287948 C16.9226573,7.51126526 16.8491016,7.45345633 16.7571569,7.37945271 C16.7573707,7.24784516 16.7774702,7.14924199 16.8176693,7.0840532 C16.8476048,7.03464912 16.8841688,6.98422006 16.9277891,6.93174104 L17.6004822,7.29335431 L19.967096,8.70721301 L21.9206002,9.75658848 C21.9717043,9.78528795 22.1481099,9.890246 22.4502444,10.0712576 L22.149179,10.4783801 C22.0794721,10.4615704 21.9783329,10.4211861 21.8453338,10.3570223 L21.5158297,10.2213148 C21.4598076,10.2006102 21.3734223,10.1633009 21.2579569,10.1091819 C21.0387864,10.0741276 20.8557523,10.0640828 20.7084269,10.0800725 C18.6796564,10.642172 16.8811753,11.2399409 15.3127698,11.8741991 C13.7443642,12.5080473 12.374602,13.116476 11.2041246,13.6994851 C10.8228748,13.8917715 10.5275827,14.027889 10.3182481,14.1078375 C9.9263071,14.2607647 9.66907576,14.3909373 9.54676793,14.4979453 C9.25703521,14.7644403 8.91470157,15.2213768 8.51891171,15.8679348 C6.96012829,18.4148074 6.08750894,19.943464 5.90083982,20.4547244 C5.81146101,20.7130196 5.79456885,20.8903413 5.84994949,20.9877145 C6.00625548,21.2187452 6.81087853,21.8421386 8.26403244,22.8574847 L8.17615041,23.0007771 C8.11734857,23.0969203 8.01685088,23.1953185 7.87422968,23.2974066 L4.67754765,21.3179634 L2.41977069,20.1962243 L0.626421382,19.187643 C0.4555753,19.0914998 0.270402949,18.9814169 0.070476682,18.8580092 C0.0912176959,18.7487462 0.114310783,18.6743326 0.139328295,18.6331283 C0.164131982,18.5925391 0.212242581,18.54211 0.283018618,18.4832761 C0.372825069,18.4681064 0.450229677,18.4732313 0.515232442,18.4984458 L2.32205272,19.1851831 C3.00543705,19.3280654 3.40165456,19.3860793 3.51006378,19.3594298 C3.67299834,19.3188406 3.82973198,19.2040427 3.98047853,19.0142162 C4.0790518,18.8717439 4.778473,17.738115 6.07916977,15.6129195 C6.56455226,14.8201993 6.83290249,14.3202136 6.88550341,14.1131674 C6.93746286,13.9061213 6.94516055,13.4957189 6.90838267,12.8819603 L6.72620387,9.49952326 L6.31330802,3.91091724 C6.24082138,2.94292525 6.09328221,2.23814836 5.87069051,1.79699657 C5.77297253,1.60040523 5.4178094,1.29127098 4.80477346,0.870003814 C4.73656332,0.831669527 4.63948682,0.765865751 4.51290249,0.673002479 L4.79707576,0.124227689 Z" id="Fill-36" fill="#FFFFFF" mask="url(#mask-2)"></path>
                </g>
                <g id="Group-49" transform="translate(16.838710, 77.586957)">
                    <mask id="mask-4" fill="white">
                        <use xlink:href="#path-3"></use>
                    </mask>
                    <g id="Clip-48"></g>
                    <polygon id="Fill-47" fill="#FFFFFF" mask="url(#mask-4)" points="8.03563858 0.122439787 7.97485776 0.0629248586 7.91407693 0.122439787 0.107989439 8.14869506 0.229551083 8.26010023 7.97485776 0.296113244 15.7201644 8.26010023 15.8415082 8.14869506"></polygon>
                </g>
                <g id="Group-60" transform="translate(110.387097, 77.586957)">
                    <mask id="mask-6" fill="white">
                        <use xlink:href="#path-5"></use>
                    </mask>
                    <g id="Clip-59"></g>
                    <polygon id="Fill-58" fill="#FFFFFF" mask="url(#mask-6)" points="8.09075524 0.122439787 8.03041012 0.0629248586 7.96941144 0.122439787 0.163323951 8.14869506 0.284667742 8.26010023 8.03041012 0.296113244 15.7754989 8.26010023 15.8968427 8.14869506"></polygon>
                </g>
                <g id="Group-71" transform="translate(39.290323, 77.586957)">
                    <mask id="mask-8" fill="white">
                        <use xlink:href="#path-7"></use>
                    </mask>
                    <g id="Clip-70"></g>
                    <polygon id="Fill-69" fill="#FFFFFF" mask="url(#mask-8)" points="7.99420776 0.122439787 7.93446321 0.0629248586 7.87450375 0.122439787 0.174118832 8.14869506 0.293822842 8.26010023 7.93446321 0.296113244 15.5751036 8.26010023 15.6948076 8.14869506"></polygon>
                </g>
                <g id="Group-82" transform="translate(62.677419, 77.586957)">
                    <mask id="mask-10" fill="white">
                        <use xlink:href="#path-9"></use>
                    </mask>
                    <g id="Clip-81"></g>
                    <polygon id="Fill-80" fill="#FFFFFF" mask="url(#mask-10)" points="7.95437963 0.122439787 7.89381666 0.0629248586 7.83281798 0.122439787 0.0269483429 8.14869506 0.148292134 8.26010023 7.89381666 0.296113244 15.6389055 8.26010023 15.7602493 8.14869506"></polygon>
                </g>
                <g id="Group-93" transform="translate(86.064516, 77.586957)">
                    <mask id="mask-12" fill="white">
                        <use xlink:href="#path-11"></use>
                    </mask>
                    <g id="Clip-92"></g>
                    <polygon id="Fill-91" fill="#FFFFFF" mask="url(#mask-12)" points="8.02267636 0.122439787 7.96189554 0.0629248586 7.90111471 0.122439787 0.0950272205 8.14869506 0.216588864 8.26010023 7.96189554 0.296113244 15.7072022 8.26010023 15.828546 8.14869506"></polygon>
                </g>
                <path d="M49.9128788,12.9059125 L49.9906399,14.0748949 C50.0189352,14.428695 50.0329811,14.6698115 50.0329811,14.7978007 L49.8351176,14.8363971 C49.5197983,14.0569276 49.1283463,13.4724364 48.6601509,13.0827016 C48.1919556,12.6931887 47.6191288,12.4984323 46.941467,12.4984323 C46.1133719,12.4984323 45.4688909,12.608676 45.0076167,12.8289415 C44.3395223,13.1417053 43.7679169,13.6853819 43.2928004,14.459306 C42.8174804,15.2336736 42.5799222,16.1668632 42.5799222,17.2588746 C42.5799222,17.889504 42.6668436,18.4560279 42.8410937,18.9584464 C43.0149367,19.4610866 43.260841,19.9289014 43.5786031,20.3621125 C43.8961617,20.7953236 44.2713287,21.170862 44.7043076,21.4887276 C44.9866497,21.6990113 45.3229361,21.8578332 45.7135738,21.9656369 C45.9346435,22.0219788 46.2640087,22.0501497 46.7016695,22.0501497 C46.9838081,22.0501497 47.2966847,22.0066733 47.6402994,21.9194987 C47.9835069,21.8323241 48.2424393,21.7156477 48.4164858,21.5694695 C48.5907359,21.4232912 48.7096168,21.2580366 48.7729249,21.0734838 C48.8366402,20.8889309 48.8683961,20.5300289 48.8683961,19.9967778 C48.8683961,19.1097264 48.8142483,18.5931116 48.7059527,18.4469334 C48.597657,18.3009769 48.2564851,18.2049296 47.6826405,18.1585696 L47.4002984,18.1355005 L47.2097632,18.1432641 C47.181468,18.1381623 47.1438088,18.1306205 47.0967857,18.120195 L46.9909328,17.9278786 C46.9909328,17.9023695 47.0074214,17.8690967 47.0403987,17.8278385 C47.2850816,17.787024 47.8167887,17.7663949 48.6355198,17.7663949 C48.8189302,17.7663949 49.117761,17.7717185 49.5318085,17.7817003 L50.2587326,17.8125331 L50.9150203,17.8047694 C51.0420438,17.8047694 51.1949197,17.8100931 51.3738518,17.8202967 C51.4066254,17.8253985 51.427796,17.8344931 51.4373635,17.8471367 C51.4467274,17.8600022 51.4516129,17.8817404 51.4516129,17.9125731 C51.4516129,17.9691368 51.4396027,18.0407841 51.4161929,18.1279587 C51.2185331,18.1740969 51.0656571,18.197166 50.9573615,18.197166 L50.4987336,18.1894023 C50.3434149,18.1894023 50.2186307,18.248406 50.1245845,18.3664133 C50.0775614,18.4227552 50.0539481,18.6150716 50.0539481,18.9431409 L50.0612763,19.9506396 C50.0612763,20.6427126 50.0352203,21.0836874 49.9835152,21.273342 C49.9552199,21.3862475 49.8963902,21.4876185 49.8068224,21.5772331 C49.7176617,21.6670695 49.5293657,21.7733205 49.2423417,21.8964296 C48.8329761,22.0758806 48.4612697,22.1963279 48.1274261,22.2577716 C47.5061512,22.3755571 46.9062505,22.4347826 46.3275204,22.4347826 C45.3960153,22.4347826 44.6326533,22.3052407 44.0374346,22.0463788 C43.4420123,21.7875168 42.9292366,21.4272839 42.4987005,20.9656801 C42.0681643,20.504298 41.761191,20.0378142 41.5777806,19.5660067 C41.2999169,18.8739336 41.1612903,18.1689951 41.1612903,17.4511911 C41.1612903,16.5539361 41.3788994,15.6759793 41.8141175,14.8170989 C42.2493355,13.9584403 42.9516285,13.2597126 43.9207929,12.7213596 C44.6031367,12.3420504 45.5301634,12.1521739 46.7016695,12.1521739 C47.5108332,12.1521739 48.1730242,12.2291449 48.6882427,12.3828649 C49.2036646,12.5368068 49.6118088,12.711156 49.9128788,12.9059125" id="Fill-1" fill="#FFFFFF"></path>
                <path d="M56.4420216,16.9517484 C56.5878511,16.9570199 56.6960546,16.9597702 56.7661649,16.9597702 C57.1552771,16.9597702 57.6035156,16.914848 58.1113479,16.8250035 C58.4677419,16.756245 58.7565964,16.6439394 58.9783786,16.4878575 C59.1996935,16.3317756 59.384551,16.1005178 59.5334185,15.7936256 C59.6815849,15.4869625 59.7561356,15.1697565 59.7561356,14.8417783 C59.7561356,14.4824004 59.6399862,14.1014782 59.4074537,13.6996992 C59.2293735,13.3930362 58.9283666,13.1365668 58.5041993,12.9305205 C58.080032,12.7242449 57.5710312,12.6208779 56.9767295,12.6208779 C56.8309001,12.6208779 56.641836,12.6288997 56.4095372,12.6447142 C56.3880367,12.9197483 56.3772865,13.1312954 56.3772865,13.2793554 L56.4177167,14.7624768 L56.4095372,15.3732818 C56.4095372,15.7858329 56.4202874,16.3118357 56.4420216,16.9517484 M53.4354582,22.1487471 C54.2204599,22.0589027 54.6640244,21.9951864 54.7661517,21.958286 C54.8360283,21.9319286 54.9002961,21.8523979 54.9596562,21.7201523 L54.9596562,21.6325998 C54.9596562,21.5003542 54.9811567,21.0213365 55.0243914,20.1955465 C55.0349079,19.9626843 55.040283,19.7350936 55.040283,19.5127744 L55.0159781,18.567803 L55.0323372,17.4960867 L55.0241577,15.5030062 L55.0323372,14.0739748 C55.0374786,13.4705041 54.990271,13.102646 54.890247,12.9701712 C54.7904566,12.8379256 54.5324507,12.7439556 54.1166967,12.6882612 C53.7007089,12.632796 53.4709808,12.5917701 53.4279798,12.5654127 C53.3845114,12.538826 53.3630109,12.4966541 53.3630109,12.4382094 C53.3630109,12.401309 53.3711905,12.3536364 53.3875495,12.2951917 C53.4413008,12.2475191 53.5656297,12.2209324 53.7600689,12.215661 C53.7871782,12.215661 53.8614952,12.2092435 53.9830197,12.1959502 C54.1045442,12.1826569 54.2190577,12.1760102 54.3272613,12.1760102 L54.9916732,12.1760102 L57.1227927,12.1521739 C58.3270539,12.1521739 59.1714157,12.2394972 59.6547093,12.4143731 C60.138003,12.589249 60.5231423,12.8844522 60.8091923,13.3004413 C61.0957097,13.7164304 61.2387347,14.1812381 61.2387347,14.6950935 C61.2387347,15.6698602 60.7180489,16.4140567 59.6769109,16.9279121 C59.4988308,17.018215 59.3586102,17.0975165 59.2560154,17.1665042 C59.4394707,17.5474264 59.695607,18.005129 60.024658,18.539612 L61.0520076,20.2700349 C61.4623866,20.9069681 61.7458659,21.3064552 61.9026793,21.4682669 C62.0594927,21.6300786 62.249959,21.7641578 62.4743119,21.8700459 C62.6984312,21.9763924 63.0751572,22.0772383 63.6047237,22.1725834 C63.6100988,22.2257567 63.6129032,22.2679286 63.6129032,22.2997867 C63.6129032,22.3316448 63.6100988,22.3712956 63.6047237,22.4189681 C62.8645926,22.4295111 61.9975619,22.4347826 61.0038652,22.4347826 C60.9337549,22.4347826 60.8365353,22.4295111 60.7119727,22.4189681 C60.328703,21.697462 59.8776601,20.9042178 59.3588439,20.0392355 L58.1599577,17.8903023 C57.9977692,17.6675247 57.8640922,17.5284032 57.7589268,17.4727088 C57.6535276,17.4170144 57.5142418,17.3890526 57.3415368,17.3890526 L56.6525862,17.3968452 L56.4258963,17.3890526 C56.4095372,17.558657 56.4015914,17.9056584 56.4015914,18.4300567 L56.4015914,21.147623 C56.3962162,21.2482396 56.4177167,21.3887362 56.4663265,21.5686543 C56.5095612,21.669271 56.5838781,21.7501769 56.6892773,21.8111428 C56.7946765,21.8721087 57.0984878,21.9633283 57.6007112,22.0852601 L57.933034,22.1647908 C57.976035,22.2177349 57.9977692,22.2892437 57.9977692,22.3793174 C57.8519398,22.4056748 57.7495788,22.4189681 57.6902187,22.4189681 C57.2050554,22.4189681 56.8626834,22.4136967 56.6631028,22.4031537 C56.5607417,22.397653 56.4768431,22.3951319 56.4123416,22.3951319 L55.312311,22.4109463 L54.2363516,22.4031537 C54.1877418,22.4031537 53.9428231,22.4109463 53.5006608,22.42699 L53.3389397,22.3951319 L53.3225806,22.3156012 C53.3225806,22.2679286 53.3599728,22.2124634 53.4354582,22.1487471" id="Fill-3" fill="#FFFFFF"></path>
                <path d="M67.1853401,16.6611253 C67.7151134,16.691821 68.3187638,16.7070584 68.9969336,16.7070584 C69.3830215,16.7070584 69.7219993,16.6942501 70.0140813,16.6688544 C69.9646158,16.4698847 69.9076555,16.2835023 69.8434146,16.110149 C69.521996,15.2221828 69.3442628,14.7325979 69.3097868,14.6407317 L68.6350432,12.8727493 L68.5607379,12.73495 C68.5309729,12.7961205 68.4217634,13.0589108 68.2337516,13.5231001 C67.9164016,14.3192001 67.6885605,14.939076 67.549586,15.3829487 C67.4851309,15.5819185 67.4183204,15.7795633 67.3489402,15.9761039 C67.2793459,16.1726445 67.2360904,16.3104438 67.2187453,16.3895017 C67.2014003,16.4685597 67.1754898,16.5489426 67.1407997,16.6304296 L67.1853401,16.6611253 Z M63.6426682,21.2550971 C63.7120484,21.2142432 63.7737196,21.1937058 63.8281103,21.1937058 L63.9989911,21.1937058 C64.033467,21.1937058 64.0929969,21.1912766 64.1771525,21.1861975 C64.557887,21.1504227 64.7831584,21.1146478 64.8523245,21.078873 C65.0255608,20.9819277 65.1739573,20.8136536 65.2977281,20.573609 C65.55512,20.0528867 65.8446323,19.3155281 66.1664793,18.3608706 C66.320015,17.9066188 66.4165905,17.6310202 66.4562058,17.5340749 C66.5799766,17.2275599 66.6988223,16.9060282 66.8127428,16.5692591 L67.5108273,14.5554905 C67.6196086,14.239038 67.8821398,13.5142668 68.2977784,12.3811769 C68.4018487,12.09542 68.5281891,11.712497 68.6767998,11.2326287 L68.8952189,11.2173913 L69.1547521,11.2248996 C69.3671754,11.6588348 69.5551871,12.1258949 69.718359,12.6260798 C69.8074397,12.89152 69.9532666,13.2872513 70.1560537,13.8128319 L71.2830534,16.9596904 L71.8837058,18.6671648 C72.2004135,19.6370597 72.4083399,20.232865 72.507485,20.4550221 C72.6062019,20.6769585 72.6978523,20.8238119 72.782222,20.8951407 C72.8068477,20.9156781 72.8997828,20.9461529 73.0605992,20.9870069 C73.2212015,21.0278608 73.3340514,21.0585565 73.3982923,21.078873 C73.6259192,21.1453435 73.7843801,21.2014349 73.8734609,21.247368 C73.8931614,21.3034594 73.9032258,21.3469633 73.9032258,21.3774381 C73.9032258,21.4030547 73.895731,21.4412586 73.8809556,21.4922709 C73.7222806,21.4975708 73.6111438,21.5 73.5466888,21.5 C73.294222,21.5 72.8488184,21.4922709 72.2104779,21.4770335 L71.4680672,21.4598085 L70.5697652,21.4712918 C70.5102352,21.4712918 70.4496347,21.468421 70.3877493,21.4626794 C70.3258638,21.4569377 70.272758,21.4540669 70.2282177,21.4540669 L70.0648316,21.4540669 C70.0102269,21.4489878 69.9609755,21.4337503 69.916221,21.4081338 C69.916221,21.336805 69.9286409,21.2679054 69.9534807,21.2014349 C70.0127965,21.1707392 70.0671871,21.1528518 70.1166526,21.1477727 L70.896109,21.0941105 C71.098682,21.0839522 71.2522177,21.0559065 71.356288,21.0097526 C71.3858388,20.9176655 71.4008284,20.8487659 71.4008284,20.802612 C71.4008284,20.710525 71.3365874,20.4726887 71.2076774,20.0891032 C71.1188108,19.8336004 71.0410793,19.590685 70.9742687,19.3605779 C70.9074582,19.1304707 70.6440705,18.3736789 70.184748,17.0899814 C69.9817467,17.0542066 69.8035853,17.0363192 69.6500495,17.0363192 L68.0613719,17.0515566 L67.5934839,17.0438275 C67.4251728,17.0438275 67.2397307,17.0568566 67.0367294,17.0822523 C66.9722744,17.235289 66.9303037,17.3452634 66.910389,17.4112922 L66.2562024,19.516927 C65.9788958,20.3185478 65.8403496,20.7599914 65.8403496,20.8414784 C65.8403496,20.8874115 65.8626198,20.9640403 65.9071601,21.0713647 C66.0112304,21.1018396 66.1495625,21.1298853 66.3230129,21.1555018 L67.3324517,21.247368 C67.3870565,21.2933011 67.4142518,21.334155 67.4142518,21.3699298 C67.4142518,21.3953255 67.406757,21.4337503 67.3919816,21.4847626 C67.1692798,21.4898417 66.9986131,21.4922709 66.8797675,21.4922709 C66.4838293,21.4922709 66.0234362,21.4796834 65.4988021,21.4540669 C65.2561856,21.4439086 65.0831634,21.4388295 64.9790932,21.4388295 C64.875237,21.4388295 64.694506,21.4439086 64.4371141,21.4540669 C64.2688029,21.4642252 64.1476017,21.4693043 64.0735105,21.4693043 C63.9546648,21.4693043 63.8011291,21.461796 63.6129032,21.4463378 L63.6129032,21.4004047 C63.6129032,21.3648507 63.6229676,21.3162676 63.6426682,21.2550971 L63.6426682,21.2550971 Z" id="Fill-5" fill="#FFFFFF"></path>
                <path d="M75.7812412,12.6383046 L75.7741935,12.2680888 C76.4956679,12.2680888 77.0238363,12.2476202 77.3589,12.2062379 C77.4891802,12.1908864 77.5799937,12.1830994 77.6313406,12.1830994 C77.6732236,12.1830994 77.7358467,12.1857692 77.8196126,12.1908864 C78.015335,12.3708771 78.1967607,12.5766761 78.3642925,12.8080609 C78.4015442,12.8543379 78.4434272,12.905732 78.4899414,12.9622433 L79.9630942,14.759703 L80.1725091,15.0373649 C80.4701198,15.4229321 80.7413522,15.7522105 80.9858038,16.0247551 C81.2302553,16.2972998 81.7058686,16.8655276 82.4134491,17.7294384 L84.0821229,19.7736345 C84.2448221,19.9740939 84.4542369,20.2237225 84.7103673,20.521853 L84.7172136,20.3983736 C84.6892245,19.6837504 84.6753306,19.3057476 84.6753306,19.2645878 L84.7033197,18.8015957 L84.6892245,18.0765157 L84.6892245,17.7447899 C84.6892245,17.5340962 84.6729143,16.8835489 84.6404953,15.7933703 C84.635864,15.6440826 84.6171375,15.3626385 84.5847184,14.9485932 C84.5520981,14.5345478 84.5357879,14.1707841 84.5357879,13.8570797 C84.5357879,13.2915218 84.5053824,12.9622433 84.4449743,12.8696894 C84.4030914,12.8029438 84.2051541,12.7335283 83.8515652,12.661443 C83.7677993,12.6563259 83.6375191,12.6409744 83.4607246,12.6151661 C83.2513098,12.6049317 83.1276745,12.5920276 83.0906242,12.5766761 C83.0531711,12.5611021 83.0161208,12.517495 82.9788691,12.4454097 C82.9881317,12.3633126 83.0092746,12.2861101 83.041895,12.2140249 C83.1675439,12.1728651 83.2907764,12.1521739 83.411794,12.1521739 C83.5420742,12.1521739 83.7037666,12.1704177 83.8970726,12.2062379 C84.0901773,12.2422805 84.2635486,12.2603018 84.4171866,12.2603018 C84.6310313,12.2603018 84.9640815,12.2449503 85.4155315,12.2140249 C85.6712592,12.1935562 85.848255,12.1830994 85.9459148,12.1830994 L86.0645161,12.1830994 L86.0506223,12.4222712 C85.9763203,12.4583139 85.8738278,12.4801174 85.7435476,12.4879044 C85.6130661,12.4954689 85.4922498,12.517495 85.3804948,12.5535376 C85.2129629,12.6100489 85.1128868,12.6589957 85.0804678,12.699933 C84.9685114,12.8336468 84.9127346,12.9700303 84.9127346,13.1088612 L84.9894529,15.5464115 L85.0454311,16.6648457 L85.0385848,16.989007 L85.0804678,18.5392854 C85.1082555,19.5987609 85.1223508,20.5191831 85.1223508,21.3009969 C85.1223508,21.4705308 85.1128868,21.8385217 85.0943617,22.4040796 L84.7687619,22.4347826 C84.6056599,22.2289836 84.0446698,21.5813285 83.0855902,20.4909275 C82.8620801,20.239074 82.7108584,20.0617531 82.6317238,19.9587424 L82.0310657,19.1951724 C81.798293,18.9123934 81.64687,18.7321802 81.5769979,18.6549778 L81.4235613,18.4854439 C80.9159317,17.8478007 80.2570804,17.0506354 79.4470075,16.0941706 C79.2281287,15.8369775 78.9067575,15.4358362 78.4832966,14.890747 C78.2179035,14.5463395 78.0503717,14.3352009 77.9804996,14.2582209 C77.9106275,14.1810185 77.8151827,14.0938042 77.6939637,13.9959106 L77.6732236,14.2582209 C77.6732236,15.2609627 77.6963801,16.644377 77.7428943,18.4082415 L77.7916235,20.9614842 C77.7964562,21.1775175 77.8079337,21.3857638 77.8266602,21.5864457 L78.0711118,21.6480742 C78.5130979,21.6943511 78.9484391,21.7637666 79.3765313,21.8563205 C79.4091517,21.887246 79.4369395,21.9103845 79.4602973,21.925736 L79.4532497,22.2189718 C79.3787463,22.2445576 79.3181368,22.2574617 79.2718239,22.2574617 C79.220477,22.2574617 79.1578539,22.2521221 79.0831492,22.2421102 C78.6224366,22.2007279 78.0616478,22.1802593 77.400783,22.1802593 C76.9352377,22.1802593 76.5256706,22.1931634 76.1720817,22.2189718 L76.0744219,22.2265363 C76.032539,22.2265363 75.9719295,22.2214191 75.8929962,22.2111848 L75.8859486,21.9797999 L76.0673743,21.887246 L76.3955918,21.833182 C76.6887725,21.7869051 76.9026173,21.7355109 77.0377301,21.6789996 C77.1261274,21.642957 77.1984158,21.588893 77.2541926,21.5170302 C77.3053381,21.162166 77.3309109,20.6426625 77.3309109,19.9587424 C77.3309109,19.6399208 77.3240647,19.056119 77.3101708,18.2077821 L77.3101708,17.1585409 L77.2960756,14.9679494 C77.286813,13.9907934 77.2564076,13.4147787 77.205262,13.2399051 C77.1774743,13.1473512 77.1192811,13.0652541 77.0308839,12.9931688 C76.8538881,12.8543379 76.622525,12.7669011 76.3361905,12.7308585 C76.049856,12.6948159 75.8650071,12.6641129 75.7812412,12.6383046" id="Fill-7" fill="#FFFFFF"></path>
                <path d="M93.4154793,21.8418624 C93.7733877,21.9770977 94.1357775,22.0446029 94.5032599,22.0446029 C94.9787056,22.0446029 95.4447808,21.9626966 95.9014857,21.7988841 C96.3581906,21.6350717 96.7619323,21.403754 97.112711,21.1044812 C97.4634897,20.8056584 97.7519349,20.4674577 97.9778429,20.0903289 C98.2039545,19.7134252 98.3638624,19.3738743 98.4581774,19.0721263 C98.589974,18.6301926 98.6559742,18.0554988 98.6559742,17.3480449 C98.6559742,16.6720934 98.5264183,15.9855661 98.2675103,15.2884629 C98.0884542,14.8049011 97.7741386,14.3418158 97.3245634,13.8998821 C96.8747845,13.4577234 96.344135,13.1339237 95.7320038,12.9284831 C95.1198726,12.7230424 94.4582413,12.6204346 93.7475172,12.6204346 C93.2578123,12.6204346 92.8952188,12.6800641 92.6597367,12.7997733 C92.6314218,12.8310507 92.6033106,12.8675034 92.5749957,12.9089066 C92.5466808,13.0389665 92.5326252,13.1586756 92.5326252,13.2678089 C92.5326252,13.3355391 92.5350697,13.4160952 92.5397549,13.5097024 C92.5540142,14.1129734 92.5609401,14.5967602 92.5609401,14.960838 L92.5540142,16.7317229 C92.5540142,19.3324712 92.5971995,20.7795565 92.6845886,21.0732038 C92.7715703,21.3673012 93.0152005,21.6233708 93.4154793,21.8418624 L93.4154793,21.8418624 Z M89.8207109,22.1539612 C89.9946743,22.0707049 90.1971563,22.0160257 90.4279532,21.9901487 C90.7624355,21.9482955 91.0117695,21.8598638 91.1767699,21.7246285 C91.3038814,21.4384067 91.3672334,20.7095761 91.3672334,19.5383619 L91.3672334,18.3045928 L91.3814927,17.5629363 L91.3672334,17.0163696 L91.3814927,16.0091929 L91.3603074,13.4714495 C91.3603074,13.1852276 91.3226222,12.9977884 91.2472516,12.9093566 C91.1388809,12.7792967 90.8518617,12.6595876 90.3855827,12.5502293 C90.1926748,12.5034257 90.0749338,12.4604474 90.0325633,12.4212944 C89.9901928,12.3823665 89.9643224,12.3081108 89.954952,12.1989775 C90.0631189,12.1731005 90.1384895,12.1600495 90.18086,12.1600495 L90.6821761,12.1600495 L90.9435286,12.1521739 C91.1176957,12.1521739 91.3108073,12.1731005 91.5226597,12.2145037 C91.9559386,12.245781 92.4008286,12.2613072 92.8575335,12.2613072 C92.9893301,12.2613072 93.1777565,12.2536566 93.422609,12.2379054 C94.0724255,12.1965023 94.5385007,12.1755757 94.8208348,12.1755757 C95.3905955,12.1755757 95.9285784,12.2379054 96.4347834,12.363015 C96.9409884,12.4876745 97.4622675,12.7192171 97.9992318,13.0571929 C98.3335104,13.2705091 98.6759372,13.6071348 99.0267159,14.0675199 C99.3774946,14.527905 99.6435323,15.0299182 99.8248291,15.5733347 C100.006126,16.1167511 100.096774,16.7292478 100.096774,17.4105997 C100.096774,18.0190461 99.9967554,18.622317 99.7965142,19.2204126 C99.5964766,19.8187332 99.3174018,20.3373978 98.9596972,20.7768562 C98.6017889,21.2165398 98.2393991,21.5466399 97.8719167,21.7676068 C97.5046379,21.9887986 96.9442476,22.1798382 96.1911531,22.3411755 C95.8805042,22.4035052 95.3223546,22.4347826 94.5173155,22.4347826 C93.9852401,22.4347826 93.5519612,22.4165562 93.2176825,22.3801034 C93.0858859,22.3591768 92.9445152,22.3488261 92.7939778,22.3488261 C92.7703481,22.3488261 92.7444776,22.3515263 92.7161627,22.3567017 L89.8347665,22.4190314 L89.8207109,22.3567017 C89.8111368,22.3305997 89.8064516,22.3020225 89.8064516,22.2709701 L89.8207109,22.1539612 Z" id="Fill-9" fill="#FFFFFF"></path>
                <path d="M43.0322581,68.1997387 L43.0391464,68.0267771 C43.1981853,67.9278449 43.3833592,67.8649087 43.5940604,67.8384211 C43.9265226,67.7915585 44.1372238,67.7428848 44.2263666,67.6935319 C44.3151042,67.6434998 44.3785172,67.5739982 44.4159977,67.4852536 C44.4814366,67.312292 44.5142574,67.1368402 44.5142574,66.9586717 L44.5002782,66.3616827 L44.5071665,65.8115564 L44.4931873,65.1677048 C44.4931873,64.9007916 44.5002782,64.5668672 44.5142574,64.1659315 C44.5284392,63.7652222 44.5353275,63.5521897 44.5353275,63.5257021 L44.5353275,61.3811149 C44.5353275,61.0406252 44.5424184,60.6727423 44.5563976,60.2774664 C44.5705794,59.8821904 44.5774677,59.6084855 44.5774677,59.4563518 C44.5774677,59.0062896 44.5681483,58.744357 44.5493067,58.6710068 C44.5306678,58.5976567 44.4956184,58.5453607 44.4441587,58.5136662 C44.3924964,58.482198 44.2239354,58.4534466 43.9384758,58.4274118 C43.7182526,58.406584 43.566102,58.38802 43.4818215,58.3726255 C43.4583202,58.3151226 43.4465696,58.2678072 43.4465696,58.2311321 C43.4465696,58.1894765 43.4490007,58.1394444 43.4536605,58.0821679 C43.566102,58.0715276 43.6528136,58.0660942 43.7133902,58.0660942 L44.3738575,58.0740179 C44.8420598,58.0740179 45.3384232,58.0534164 45.8629477,58.011308 C46.1204489,57.9904802 46.5092331,57.9719162 47.0290978,57.9565217 C47.0382147,58.0033844 47.043077,58.0479831 47.043077,58.0900915 C47.043077,58.1421611 47.032542,58.1829112 47.0114718,58.2116626 C46.9904017,58.2404141 46.9539342,58.2598836 46.9026771,58.2705239 C46.2890098,58.3280268 45.927171,58.4129229 45.8173633,58.5256648 C45.7071504,58.637954 45.6522465,58.9243366 45.6522465,59.3850392 C45.6522465,60.2328676 45.6637945,61.1065045 45.6872958,62.0068553 L45.7154568,62.7442058 C45.7387555,62.7654864 46.0430567,62.7915212 46.6285629,62.8229893 C46.7878044,62.8336296 46.8814044,62.8383838 46.9095654,62.8383838 L47.9420013,62.8229893 L48.6235386,62.8465338 L50.4076105,62.7840503 C50.6276312,62.7788434 50.7611429,62.7682031 50.8079428,62.7525822 C50.8361039,61.8454397 50.8500831,60.9668222 50.8500831,60.1165035 C50.8500831,59.2981056 50.8336727,58.8156697 50.8010545,58.6691957 C50.782213,58.5809038 50.7493922,58.521137 50.7025922,58.4896689 C50.6746338,58.4738216 50.4311118,58.432166 49.9722289,58.3647019 C49.8924056,58.3540616 49.8174446,58.3411574 49.7473459,58.3253101 C49.7238446,58.2447155 49.7122966,58.1537069 49.7122966,58.0516053 C49.8713355,58.0251177 49.9722289,58.011308 50.0143692,58.011308 L50.4779118,58.0391539 C50.903974,58.0626984 51.3324673,58.0740179 51.7633917,58.0740179 C52.0395319,58.0740179 52.4984148,58.0479831 53.1400405,57.9959135 C53.1353807,58.100279 53.1236301,58.1949098 53.1049911,58.2784475 C52.9269081,58.3565519 52.7137757,58.406584 52.4657966,58.4274118 C52.3063525,58.4380521 52.1730435,58.4668036 52.0652617,58.5136662 C51.9763215,58.5870163 51.9319527,58.7359806 51.9319527,58.9610117 C51.9319527,59.0137605 51.9341813,59.0712634 51.938841,59.1339733 C51.9435008,59.3223293 51.9459319,59.4452587 51.9459319,59.5027617 L51.9459319,60.40515 L51.9528202,60.9702181 L51.938841,61.700324 L51.9459319,63.0661316 L51.9319527,64.353382 C51.9319527,64.6098812 51.938841,65.0103641 51.9528202,65.5541516 L51.9459319,66.614107 C51.9459319,66.9699912 51.9740929,67.2237738 52.0302124,67.3754547 C52.0583734,67.4490313 52.1049708,67.5011008 52.1706123,67.532569 L52.7397082,67.6736096 C53.0207107,67.7521667 53.188056,67.8164613 53.2419469,67.8658142 C53.2956352,67.9158463 53.3225806,67.9747076 53.3225806,68.0428508 L53.3015105,68.1370288 L53.2664612,68.1449524 C53.2429599,68.1449524 53.2125703,68.1395191 53.1750898,68.1291052 C52.6647472,68.0242868 52.1284721,67.9719909 51.5666698,67.9719909 C51.1264258,67.9719909 50.8138182,67.9799145 50.6288468,67.9955354 C50.4438755,68.0113827 50.058738,68.0688856 49.4734343,68.1682705 C49.4639123,68.1003537 49.4594551,68.0503216 49.4594551,68.0188535 C49.4594551,67.9826312 49.4639123,67.9325991 49.4734343,67.8698892 C49.618494,67.7757112 49.8480368,67.7102847 50.1616574,67.6736096 C50.3958599,67.6475748 50.5808312,67.5638107 50.716774,67.4223173 C50.8055117,67.3281393 50.8500831,67.1898153 50.8500831,67.0066663 L50.8431948,65.8760774 C50.857174,65.5360404 50.8640623,65.3504011 50.8640623,65.318933 C50.8640623,64.8743041 50.857174,64.2254719 50.8431948,63.3726629 C50.829013,63.2993127 50.8032831,63.2544876 50.7658026,63.2390931 C50.6393819,63.1917777 50.0165977,63.202418 48.8974502,63.2705612 C48.6727698,63.2859557 48.5040062,63.2938793 48.3915647,63.2938793 C48.2791232,63.2938793 48.0439077,63.2873141 47.6857157,63.2744099 C47.3275236,63.2612793 46.9960744,63.2544876 46.6917733,63.2544876 C46.5278721,63.2544876 46.3897007,63.2572043 46.2774618,63.2624112 C46.0618982,63.2678446 45.9423658,63.2705612 45.9190671,63.2705612 C45.811488,63.2705612 45.7377425,63.2938793 45.6978309,63.340742 C45.6581218,63.3880574 45.6380647,63.4743117 45.6380647,63.5999579 L45.6451556,64.1494051 C45.6451556,64.2383761 45.6334049,64.7330371 45.6101062,65.6329351 C45.6052439,65.8160842 45.6030153,65.9677651 45.6030153,66.0884307 C45.6030153,66.8051797 45.6265166,67.2812767 45.6733166,67.5164953 C45.6966153,67.626747 45.7387555,67.7028138 45.7997373,67.7442431 C45.8418776,67.7757112 46.0246203,67.8304975 46.3475604,67.909281 C46.5629214,67.9613506 46.7268226,68.0113827 46.8392641,68.0582453 L46.8814044,68.1370288 C46.8814044,68.1630636 46.8720849,68.1838914 46.8532433,68.1997387 C46.8252849,68.2257735 46.7853732,68.2391304 46.7339135,68.2391304 C46.696433,68.2391304 46.6518616,68.2373193 46.6004019,68.2350554 C46.5487396,68.2325651 46.4482513,68.2284901 46.2985319,68.2232832 C46.0594671,68.2178498 45.7622568,68.1997387 45.4064959,68.1682705 C45.1769532,68.1472163 44.9731403,68.1370288 44.7952599,68.1370288 C44.4956184,68.1370288 44.0156654,68.1546872 43.3554008,68.1909095 C43.2289801,68.1965692 43.1209957,68.1997387 43.0322581,68.1997387" id="Fill-11" fill="#FFFFFF"></path>
                <path d="M61.2011535,67.949107 C61.6105151,67.949107 62.0354755,67.8878472 62.476667,67.7651015 C62.9174369,67.6423557 63.3084594,67.4382317 63.6495239,67.1534074 C63.9903775,66.8688092 64.2572425,66.5451041 64.4496973,66.1818401 C64.642152,65.8188022 64.7970855,65.3522329 64.9138653,64.7825843 C65.0308559,64.2136139 65.0892457,63.6435132 65.0892457,63.0740907 C65.0892457,62.3636124 64.9916482,61.6608198 64.7970855,60.9657129 C64.6459463,60.4381098 64.3997391,59.9665674 64.0588855,59.5513117 C63.7176103,59.1358299 63.3059299,58.8143854 62.8236336,58.5874301 C62.3413373,58.3600228 61.8272112,58.2460931 61.2816767,58.2460931 C60.8381665,58.2460931 60.4047744,58.3247588 59.9806572,58.4814122 C59.5567508,58.6382916 59.2085194,58.8381207 58.9355414,59.0811256 C58.6627741,59.3239043 58.4094,59.6686321 58.1754188,60.115535 C57.9416484,60.5622118 57.7637384,61.055003 57.6418996,61.5927784 C57.5200608,62.1310059 57.4593521,62.6063912 57.4593521,63.0191603 C57.4593521,63.4531783 57.5200608,63.9441611 57.6418996,64.4925609 C57.7637384,65.0414127 57.9306872,65.516798 58.142535,65.9191688 C58.3545936,66.3217657 58.6151347,66.6780221 58.9245801,66.9888423 C59.2340254,67.3001145 59.5809921,67.5376941 59.9661124,67.7022593 C60.351022,67.8670505 60.7627023,67.949107 61.2011535,67.949107 M56.1290323,63.0740907 C56.1290323,62.5410624 56.1888977,62.0670334 56.308207,61.6520038 C56.4275163,61.236522 56.6286136,60.7857763 56.9110774,60.2995405 C57.1937519,59.813983 57.5348163,59.4077693 57.9344814,59.0811256 C58.333725,58.7542558 58.886848,58.4655886 59.5934289,58.214672 C60.09027,58.0426472 60.7188572,57.9565217 61.478769,57.9565217 C61.9905764,57.9565217 62.4912117,58.0293102 62.980675,58.1760173 C63.4705599,58.3220462 63.9151241,58.5259443 64.3147892,58.7870332 C64.7140327,59.0483482 65.1136978,59.4504929 65.5131521,59.9941456 C65.7907676,60.3702945 66.0005075,60.7751519 66.1415286,61.2091698 C66.3268163,61.7785923 66.4193548,62.366325 66.4193548,62.9723678 C66.4193548,63.6620494 66.3573815,64.2341846 66.2330131,64.6885471 C66.1088555,65.1433617 65.9005912,65.5927512 65.6082202,66.0369414 C65.3790873,66.3816692 64.9870107,66.7786148 64.431569,67.2282303 C64.0612042,67.5309126 63.6008305,67.7754998 63.050237,67.9610877 C62.4996435,68.1464495 61.9052049,68.2391304 61.2669212,68.2391304 C60.6189409,68.2391304 60.0415766,68.1579781 59.535039,67.9958995 C59.0280799,67.8342731 58.605649,67.6369305 58.2669033,67.404324 C57.9283684,67.1719436 57.5799262,66.82812 57.2217875,66.3737574 C56.8636488,65.9191688 56.5921463,65.4175616 56.4068585,64.8691619 C56.2217815,64.32031 56.1290323,63.722179 56.1290323,63.0740907" id="Fill-13" fill="#FFFFFF"></path>
                <path d="M69.4980888,59.4608821 L69.777242,58.3135963 C69.7953025,58.1614725 69.8202339,58.0639291 69.8520362,58.0207469 C69.8838385,57.977784 69.9199596,57.9565217 69.9607921,57.9565217 C70.0424572,57.9565217 70.1355082,58.0652443 70.2399453,58.2831277 C70.3170952,58.4402932 70.3805035,58.5404669 70.4305626,58.5832107 C70.4804254,58.6263928 70.5530602,58.6555462 70.6482707,58.6706709 L70.7163903,58.6627798 L71.0090889,58.6932484 L72.6152996,58.7164835 L74.5144051,58.7090307 L75.0725152,58.7090307 L76.1274866,58.6868916 C76.172638,58.6868916 76.2295679,58.6914948 76.2976876,58.7013588 C76.606091,58.7318274 76.7967083,58.7467329 76.8693431,58.7467329 C76.9374628,58.7467329 76.9918407,58.7219634 77.0326732,58.6717669 C77.0462187,58.6522583 77.1210129,58.4852289 77.2572522,58.1700212 C77.3161453,58.0275421 77.3887801,57.9565217 77.4751566,57.9565217 C77.5112777,57.9565217 77.5568217,57.9663857 77.6111996,57.9863328 C77.6337753,58.0869449 77.6451613,58.177474 77.6451613,58.2579199 L77.6384867,58.5597564 L77.6451613,59.2006933 C77.6451613,59.3563243 77.6337753,59.8593852 77.6111996,60.70878 C77.6111996,60.7644565 77.601973,60.8146529 77.5839125,60.8600271 C77.5340497,60.8950988 77.4908614,60.9126347 77.454544,60.9126347 C77.4182266,60.9126347 77.3866207,60.8937837 77.3593335,60.8560815 C77.3320464,60.8183793 77.2980847,60.7015464 77.2572522,60.5060212 C77.1665569,60.0538144 77.0528932,59.7298388 76.9168502,59.5340944 C76.8261548,59.4082744 76.6958048,59.3179646 76.5256038,59.2627265 C76.3554028,59.2074884 75.948059,59.1800886 75.3037687,59.1800886 L74.1535868,59.1800886 C74.1443603,59.3826282 74.1400414,59.567851 74.1400414,59.7353188 L74.1944194,64.4588305 C74.1944194,64.6462454 74.1851928,65.001128 74.1671322,65.5234784 L74.1740031,66.5350801 L74.1671322,67.0982015 C74.1671322,67.2757524 74.1944194,67.4024492 74.2487973,67.4787303 C74.3033716,67.554573 74.4508006,67.6282238 74.6912807,67.6992442 C75.1086363,67.8156386 75.3877895,67.886659 75.528544,67.912086 C75.6145279,67.9223884 75.6850032,67.9423355 75.7393812,67.9728041 L75.7393812,68.2009899 L74.7729457,68.1740284 C74.2421228,68.1694253 73.8428277,68.1582461 73.5750605,68.1402718 L72.5813379,68.1933179 L71.8530268,68.2391304 C71.6488641,68.2391304 71.5240108,68.2338697 71.4786631,68.2237865 L71.3834526,68.1784124 C71.3924829,68.0613603 71.4128992,67.9868328 71.4447014,67.953953 C71.4763074,67.9210732 71.5605245,67.8945502 71.6965675,67.8739455 C71.8871848,67.8434769 72.1115674,67.7891156 72.3703043,67.7108617 C72.628845,67.6319502 72.799046,67.5523811 72.880711,67.4714968 C72.9260587,67.4256842 72.957861,67.3498415 72.9761178,67.243311 C73.0169504,67.0201667 73.0373666,66.5822078 73.0373666,65.9285575 L73.0373666,64.6363814 L73.0102758,61.8168292 L72.9829887,61.2089913 L72.9761178,59.1800886 L71.8803139,59.1800886 C71.2269933,59.1800886 70.8296614,59.2241475 70.6891032,59.3122654 C70.46688,59.4501413 70.1355082,59.8530285 69.6955769,60.5213651 C69.5503073,60.7721284 69.4232946,60.8972908 69.3143424,60.8972908 L69.2530936,60.8821661 C69.235033,60.8519167 69.2258065,60.8240785 69.2258065,60.7988706 C69.2258065,60.7379334 69.2621239,60.5555601 69.3347587,60.2515316 C69.425454,59.8611388 69.4798319,59.5978812 69.4980888,59.4608821" id="Fill-15" fill="#FFFFFF"></path>
                <path d="M79.5227502,68.0058322 C79.5675402,67.9591265 79.6060985,67.930827 79.6376463,67.9200134 C79.7139841,67.8935545 79.8444593,67.8719273 80.0292668,67.856282 C80.4656774,67.8243013 80.7357807,67.7762152 80.8393819,67.7124838 C80.9022827,67.6059581 80.9338305,67.456638 80.9338305,67.2647536 L80.9272093,66.7058962 L80.9338305,64.6759254 L80.9203934,63.7169637 L80.9272093,61.7116112 L80.8933247,59.4345375 C80.8888457,58.8913253 80.8596348,58.5848625 80.8056921,58.5156093 C80.7246805,58.4141452 80.4837881,58.3557056 80.0832096,58.3393701 C79.9120338,58.3345385 79.7613057,58.3184331 79.6308304,58.2917442 C79.5722139,58.2544717 79.543003,58.2068457 79.543003,58.1479459 C79.543003,58.1058418 79.5541032,58.0549948 79.5766929,57.9965552 C79.6171987,57.9700963 79.6532254,57.9565217 79.6847732,57.9565217 C79.7476739,57.9565217 79.8244012,57.9592827 79.9143707,57.9645744 C80.179995,57.9965552 80.4545773,58.0126606 80.7381176,58.0126606 L81.2378184,57.9965552 L82.4259223,58.0285359 C83.0202663,58.0285359 83.4837456,58.0204832 83.8169444,58.0046079 C84.1499484,57.9885025 84.375067,57.9809099 84.4921052,57.9809099 C84.5957065,57.9809099 84.852178,57.9912634 85.2619093,58.0126606 L86.2206104,58.0046079 L86.3353118,58.0285359 L86.8955765,58.0046079 L86.963151,58.0446413 C86.9857408,58.0874356 87.0013199,58.1323007 87.0104726,58.1799267 C87.0104726,58.2544717 87.0003462,58.3690501 86.9800933,58.5232018 C86.9598404,58.6773535 86.949714,58.7730656 86.949714,58.8103381 C86.949714,59.3634436 86.9654879,59.8314206 86.9970356,60.214269 C86.9925566,60.2460196 86.9793144,60.2676469 86.9573088,60.2780003 C86.9088188,60.2780003 86.8644182,60.2699476 86.8248862,60.2543024 C86.7752277,60.1530684 86.7088216,59.9752188 86.625668,59.719373 C86.5421249,59.4642174 86.4171023,59.1694886 86.2506003,58.8342661 C86.1378463,58.6108612 86.0502136,58.4778766 85.9869234,58.4350822 C85.9238279,58.3929781 85.7931579,58.3713509 85.5953028,58.3713509 C85.5546023,58.3713509 85.349542,58.3665192 84.9803164,58.3557056 C84.8811942,58.3501838 84.7844088,58.3474228 84.6897655,58.3474228 L82.7641843,58.395509 L82.5951506,58.395509 C82.3474424,58.395509 82.1988563,58.4330115 82.1491978,58.5070964 C82.0728601,58.6347892 82.0343017,59.009815 82.0343017,59.6319437 C82.0343017,59.695675 82.0455966,60.333679 82.0681863,61.5466458 L82.0681863,62.6551576 C82.1176501,62.671263 82.1717876,62.6790856 82.2302093,62.6790856 L82.3449107,62.6790856 C82.421638,62.6790856 82.5340025,62.6816165 82.6827833,62.6871383 C82.9166651,62.697952 83.0742091,62.7032437 83.1552206,62.7032437 C83.2093581,62.7032437 83.256485,62.7004828 83.2969907,62.695191 C83.7832545,62.6740239 84.4087568,62.6632103 85.1740819,62.6632103 C85.4124427,62.6151242 85.5520707,62.5594455 85.5925765,62.4957141 C85.660151,62.400002 85.7107832,62.1501382 85.7444731,61.7456626 C85.7783577,61.3416471 85.8537218,61.1129504 85.9705653,61.0600326 C86.0291818,61.0600326 86.0831245,61.072917 86.132783,61.099836 C86.141741,61.1421702 86.1464148,61.1822036 86.1464148,61.2194761 C86.1464148,61.2567486 86.141741,61.3179491 86.132783,61.4028476 C86.1101933,61.5995636 86.0990932,62.2166305 86.0990932,63.2533583 C86.0990932,63.5301411 86.1113617,63.8384445 86.1360936,64.1789587 C86.1608255,64.5192428 86.1732888,64.7026143 86.1732888,64.7295333 C86.1732888,64.7771593 86.1664729,64.8408907 86.1530359,64.9209575 C86.1168144,64.9421246 86.0877983,64.9527082 86.0654033,64.9527082 L86.0180816,64.9527082 C85.9458334,64.8036182 85.8761168,64.5726207 85.8085423,64.2585654 C85.6916987,63.7215653 85.569013,63.3849624 85.4408746,63.249677 C85.3123468,63.1139315 85.1041706,63.0460587 84.8161513,63.0460587 C84.7530558,63.0460587 84.6383544,63.0502001 84.4718524,63.0582528 C84.3053503,63.0658454 84.0576421,63.0699867 83.7293118,63.0699867 L83.2903696,63.0699867 C82.6646725,63.0699867 82.2549412,63.0860922 82.0613705,63.1180729 L82.0547493,63.3817413 L82.0613705,64.8517043 L82.0547493,65.7786852 L82.0613705,66.6819682 C82.0660442,67.2251804 82.0952551,67.5394658 82.1491978,67.6248244 C82.2257303,67.7421638 82.3922324,67.8003733 82.6488986,67.8003733 L83.0607721,67.7923206 C83.0967988,67.7923206 83.2372058,67.796462 83.4827719,67.8045147 C83.7279486,67.8125674 84.0305733,67.8162486 84.3908408,67.8162486 C85.2593777,67.8162486 85.8379479,67.7725339 86.1259672,67.6846445 C86.4139865,67.5965249 86.6513735,67.4400724 86.8383232,67.2162074 C87.0250781,66.9921122 87.260323,66.5089501 87.5438633,65.7674114 C87.6293538,65.5486081 87.7148444,65.4390913 87.8005296,65.4390913 C87.8410354,65.4390913 87.8858254,65.4604885 87.9354839,65.5028227 C87.8048139,66.0294693 87.7306182,66.3750452 87.7127022,66.5400106 C87.6632385,66.9125055 87.6338328,67.292593 87.6248748,67.6809632 C87.6248748,67.856282 87.5888481,68.0026111 87.5169893,68.1194903 L87.3684033,68.1194903 L85.4710592,68.1434183 L84.6204384,68.1355957 L82.5947611,68.1675764 L81.771209,68.1675764 C81.6676078,68.1675764 81.5708224,68.1698772 81.4808529,68.175169 C80.6707378,68.2179633 80.0740569,68.2391304 79.6915891,68.2391304 C79.6242093,68.2391304 79.5778614,68.226016 79.5531295,68.2004775 C79.5283976,68.1742487 79.516129,68.1351356 79.516129,68.0835983 L79.5227502,68.0058322 Z" id="Fill-17" fill="#FFFFFF"></path>
                <path d="M91.6774194,68.2391304 C91.6820012,68.1590255 91.7013699,68.0867921 91.735109,68.0224303 C92.1106123,67.9099129 92.4763271,67.8353643 92.83267,67.7978585 C93.0684269,67.7760959 93.2200444,67.7172905 93.2875226,67.6209793 C93.335632,67.5512926 93.3645809,67.2940769 93.3741612,66.8495637 L93.4247698,64.7288654 L93.4174804,63.2909115 L93.4247698,61.4107596 L93.4247698,60.912766 C93.4295599,59.7829616 93.4247698,59.0784545 93.4101911,58.7999392 C93.405401,58.7464587 93.3860323,58.6714471 93.3522932,58.5751359 C93.2262924,58.5107741 93.1211182,58.4679434 93.036354,58.4466438 C92.951798,58.4248812 92.573379,58.3475544 91.9010969,58.2132744 C91.8963068,58.154469 91.8940158,58.1121014 91.8940158,58.0850138 C91.8940158,58.0528329 91.8963068,58.0102337 91.9010969,57.9565217 C91.9929421,57.9565217 92.1422687,57.9627727 92.3497015,57.9750431 L93.4489286,58.020652 L94.0855973,58.0370898 L94.273453,58.0287551 C94.2976119,58.0287551 94.3673809,58.0343115 94.4831767,58.0451929 C94.7676679,58.0451929 94.9315731,58.0424147 94.9748924,58.0370898 L95.5536632,57.9887026 C95.9439533,57.9887026 96.2190725,57.9968057 96.3779794,58.013012 C96.3731892,58.1093231 96.3563197,58.2132744 96.3273708,58.3260233 C96.2744712,58.3369046 96.0241357,58.3512587 95.5765724,58.3702431 C95.1288009,58.3887645 94.871176,58.4195563 94.8039061,58.462387 C94.6931087,58.5320737 94.6379183,58.7459957 94.6379183,59.104616 C94.6379183,59.1900458 94.6329199,59.3641468 94.6235479,59.6264559 L94.6235479,60.1080119 L94.630629,61.5929637 L94.630629,62.0985975 L94.6449993,64.7554898 L94.6235479,67.0190343 L94.630629,67.517028 C94.630629,67.6774695 94.6545795,67.7765589 94.7026889,67.8136017 C94.8230666,67.8191581 95.1769103,67.824483 95.7642199,67.8298079 L96.2551025,67.8298079 L97.5044893,67.7814208 C97.8318832,67.771234 98.0651409,67.7348858 98.2048873,67.6735337 C98.3444254,67.6119501 98.5778914,67.4311351 98.9052853,67.1317833 C99.1025131,66.9386978 99.2566298,66.7409821 99.3674272,66.5374784 C99.3913778,66.4946477 99.4324062,66.4305174 99.4903041,66.344856 C99.5815245,66.2057141 99.7044014,65.9276619 99.8583098,65.5102362 L100.096774,65.5102362 C100.067825,65.7028586 100.036585,65.8845996 100.002846,66.0559224 C99.8633082,66.8102058 99.7670894,67.4392382 99.7139816,67.9420938 C99.7044014,68.0492863 99.6946129,68.1481441 99.6850326,68.2391304 L96.9844495,68.1509223 C94.664368,68.1509223 93.2875226,68.1750001 92.8543296,68.2233873 C92.7195816,68.2338055 92.577336,68.2391304 92.4282177,68.2391304 L91.6774194,68.2391304 Z" id="Fill-19" fill="#FFFFFF"></path>
                <path d="M67.3548387,5.58731508 L67.3586275,5.49311355 C67.4455802,5.43892121 67.5463621,5.40462762 67.6611624,5.39023278 C67.8426454,5.36461843 67.9576352,5.33836901 68.0061317,5.31106115 C68.0546283,5.28396498 68.0891062,5.24607268 68.1095657,5.19759594 C68.1453698,5.10318272 68.1633665,5.00749936 68.1633665,4.91033419 L68.1555995,4.58475676 L68.1593883,4.28479369 L68.1516213,3.93360191 C68.1516213,3.7877483 68.1555995,3.60569591 68.1633665,3.38702134 C68.1709441,3.16855846 68.1747329,3.05212961 68.1747329,3.03794645 L68.1747329,1.86815396 C68.1747329,1.68250285 68.1785217,1.48182184 68.1862887,1.26611092 C68.1938663,1.05039999 68.1976551,0.901159366 68.1976551,0.818389032 C68.1976551,0.572618295 68.1925402,0.429728333 68.1823105,0.389719143 C68.1720808,0.349709953 68.1529474,0.32134365 68.1247209,0.303985165 C68.0966838,0.287050059 68.0048057,0.271385085 67.848897,0.256990244 C67.7289817,0.245559047 67.6460072,0.235609672 67.5999734,0.22693043 C67.587281,0.195600482 67.58084,0.169986134 67.58084,0.149875694 C67.58084,0.127224989 67.5819767,0.100128818 67.5846288,0.0685871822 C67.6460072,0.0628715836 67.6931777,0.0601196288 67.726519,0.0601196288 L68.0864541,0.0643534055 C68.342008,0.0643534055 68.6127171,0.0529222085 68.8987707,0.0300598144 C69.0393348,0.0186286174 69.2513176,0.00867924219 69.5349086,9e-16 C69.539834,0.0258260377 69.5424862,0.0499585648 69.5424862,0.0728209588 C69.5424862,0.101398951 69.536803,0.123626279 69.5252472,0.139291253 C69.5136914,0.154956226 69.4939897,0.165752357 69.4659526,0.171467955 C69.131213,0.202797903 68.933817,0.249157757 68.8739541,0.310547519 C68.8139018,0.371937281 68.7839704,0.52816364 68.7839704,0.779226597 C68.7839704,1.2417667 68.7902219,1.71848995 68.8031038,2.20918467 L68.8184484,2.61160514 C68.8311408,2.62324803 68.9970898,2.63743118 69.3162954,2.65457798 C69.4032481,2.66029357 69.4543968,2.66304553 69.4697414,2.66304553 L70.0329451,2.65457798 L70.4046254,2.667491 L71.3775867,2.6331974 C71.4976913,2.63044545 71.5706256,2.62472985 71.5961999,2.6162623 C71.6115445,2.1213338 71.6191221,1.64207028 71.6191221,1.17826005 C71.6191221,0.731808299 71.610029,0.468679078 71.5922217,0.389084077 C71.5819919,0.340607334 71.5641846,0.308007253 71.5386103,0.290860458 C71.5232657,0.282392904 71.3904686,0.259742199 71.1400295,0.222696653 C71.0966479,0.216981055 71.0559184,0.209995323 71.0176516,0.201316081 C71.0047697,0.157496492 70.9983288,0.107749616 70.9983288,0.0520754531 C71.0850921,0.0374689236 71.1400295,0.0300598144 71.1633306,0.0300598144 L71.4158535,0.0453014104 C71.6484852,0.0580027405 71.8820641,0.0643534055 72.1171585,0.0643534055 C72.2679524,0.0643534055 72.518202,0.0499585648 72.8680968,0.0215922611 C72.865634,0.0787482462 72.8591931,0.129976944 72.8489634,0.175701732 C72.7517809,0.218462877 72.6356545,0.245559047 72.5002052,0.256990244 C72.4134419,0.262705843 72.3405077,0.278370816 72.2819709,0.303985165 C72.233285,0.343994355 72.2090367,0.425494556 72.2090367,0.548062391 C72.2090367,0.576640383 72.2103628,0.60818202 72.2130149,0.642263922 C72.2154776,0.744933006 72.2168037,0.812038367 72.2168037,0.843580003 L72.2168037,1.33596823 L72.2205925,1.64418717 L72.2130149,2.04237387 L72.2168037,2.78730687 L72.2090367,3.48947874 C72.2090367,3.62919337 72.2130149,3.84765624 72.2205925,4.14444399 L72.2168037,4.72256619 C72.2168037,4.91668485 72.2321483,5.05491766 72.2626481,5.137688 C72.2779927,5.17769719 72.303567,5.20627518 72.3393711,5.22342197 L72.649673,5.30047671 C72.8029296,5.34323785 72.8942394,5.37816651 72.9236025,5.40526268 C72.9529657,5.43257054 72.9677419,5.46453556 72.9677419,5.5015811 L72.9561861,5.55302149 L72.9370527,5.55725527 C72.9241708,5.55725527 72.9076896,5.55450331 72.8872301,5.54878771 C72.6087541,5.49163173 72.3162595,5.46326542 72.0097463,5.46326542 C71.7697265,5.46326542 71.5992309,5.4674992 71.4984491,5.47596675 C71.3974778,5.484646 71.1873894,5.51597594 70.8681839,5.57016828 C70.863069,5.53312274 70.8604168,5.50602657 70.8604168,5.48887977 C70.8604168,5.46876933 70.863069,5.44167316 70.8681839,5.40737957 C70.9473696,5.35615087 71.0723996,5.32037546 71.2434635,5.30047671 C71.3713352,5.28629356 71.472117,5.24056877 71.5463773,5.16351403 C71.5948738,5.11207365 71.6191221,5.03650073 71.6191221,4.9365836 L71.6151438,4.31993403 C71.6229109,4.13449461 71.6266996,4.03309566 71.6266996,4.01594887 C71.6266996,3.77356515 71.6229109,3.41940973 71.6151438,2.95432936 C71.6075663,2.91432018 71.5935477,2.88997596 71.5730883,2.88150841 C71.5041323,2.85568237 71.1642778,2.86160966 70.5540931,2.8986552 C70.4313363,2.90712275 70.3394582,2.91135653 70.2780798,2.91135653 C70.2167014,2.91135653 70.0884508,2.90796951 69.8929493,2.90077209 C69.6976371,2.89357467 69.5169118,2.88997596 69.3509628,2.88997596 C69.2613579,2.88997596 69.1861504,2.89145778 69.1249615,2.89420974 C69.007509,2.89717338 68.9421524,2.8986552 68.9296494,2.8986552 C68.8707337,2.8986552 68.830383,2.91135653 68.8087869,2.93697088 C68.7871908,2.96279692 68.7762033,3.01000353 68.7762033,3.07837902 L68.7799921,3.37813041 C68.7799921,3.42660715 68.7735512,3.69629873 68.7608587,4.18720513 C68.7582066,4.28712226 68.75707,4.37010429 68.75707,4.43572782 C68.75707,4.8267171 68.7699518,5.0864593 68.7953367,5.21474273 C68.8082186,5.27465067 68.8311408,5.31614168 68.8642927,5.33900408 C68.8874043,5.35615087 68.9868601,5.385999 69.1632283,5.42876014 C69.2806808,5.45754982 69.3700962,5.484646 69.4314746,5.51026034 L69.4543968,5.55302149 C69.4543968,5.56720464 69.4492819,5.57863584 69.4390522,5.58731508 C69.4237076,5.60149823 69.4021115,5.60869565 69.373885,5.60869565 C69.3534255,5.60869565 69.3291773,5.60806059 69.3009508,5.60657876 C69.2729137,5.60509694 69.2181657,5.60298005 69.1363279,5.6002281 C69.0061829,5.59726446 68.8438333,5.58731508 68.6498472,5.57016828 C68.5246277,5.55873709 68.4134267,5.55302149 68.3164337,5.55302149 C68.1529474,5.55302149 67.891142,5.56275918 67.5310175,5.58244624 C67.4620615,5.58562157 67.4033352,5.58731508 67.3548387,5.58731508" id="Fill-24" fill="#FFFFFF"></path>
                <path d="M73.9078995,5.48133287 C73.9377222,5.45594637 73.9633164,5.44024116 73.9844593,5.43464752 C74.0352025,5.42001801 74.1222225,5.40840046 74.2455194,5.39979487 C74.5364022,5.38236854 74.7164514,5.35612148 74.7854442,5.32126882 C74.8275076,5.26318107 74.8486506,5.18185821 74.8486506,5.07730025 L74.8439769,4.77223195 L74.8486506,3.66512233 L74.8395257,3.14211738 L74.8439769,2.04813129 L74.8214986,0.805913844 C74.8186053,0.509666283 74.7990202,0.342502627 74.7629659,0.304638015 C74.709107,0.249562215 74.5484204,0.217506379 74.2813512,0.208900786 C74.1674017,0.205888828 74.0668057,0.197283234 73.9797856,0.182653725 C73.9406155,0.16243058 73.9214755,0.136398659 73.9214755,0.104342823 C73.9214755,0.08110772 73.9288199,0.0535698204 73.9437313,0.0217291239 C73.9706608,0.00731475459 73.9949195,9e-16 74.01584,9e-16 C74.0579034,9e-16 74.1086465,0.00150597889 74.1689596,0.00430279682 C74.3458929,0.0217291239 74.5288353,0.0305498574 74.7180093,0.0305498574 L75.051178,0.0217291239 L75.8432606,0.039155451 C76.2394132,0.039155451 76.5483231,0.0348526542 76.7704357,0.0260319207 C76.9925482,0.0174263271 77.142552,0.0131235303 77.2206697,0.0131235303 C77.2896626,0.0131235303 77.4608094,0.018932306 77.733665,0.0305498574 L78.3728505,0.0260319207 L78.4494104,0.039155451 L78.8230846,0.0260319207 L78.8680412,0.0477610447 C78.8829526,0.0712112873 78.8934128,0.0957372292 78.8996444,0.12176915 C78.8996444,0.16243058 78.8927451,0.224821134 78.8793917,0.308940812 C78.8658157,0.393060489 78.8591389,0.445339471 78.8591389,0.465562616 C78.8591389,0.767188673 78.8695991,1.02255966 78.8907421,1.23146045 C78.8876263,1.24867164 78.878724,1.26028919 78.8642578,1.26609796 C78.8317643,1.26609796 78.8021642,1.26179517 78.7756798,1.25318957 C78.7427413,1.19811377 78.6984523,1.10087057 78.6428129,0.961675089 C78.5873961,0.822264472 78.503937,0.661339871 78.3928807,0.478686146 C78.3176562,0.356701856 78.2593461,0.28419973 78.2170602,0.260964627 C78.1752194,0.237729524 78.0879768,0.226327113 77.9560001,0.226327113 C77.9288481,0.226327113 77.7921977,0.223315155 77.5462715,0.217506379 C77.4801719,0.214709561 77.4154076,0.213203582 77.3526464,0.213203582 L76.0687115,0.239235503 L75.9560973,0.239235503 C75.7909596,0.239235503 75.6919214,0.259673788 75.6587603,0.300120078 C75.6077946,0.369825387 75.5822005,0.574208235 75.5822005,0.913698904 C75.5822005,0.948551559 75.5897675,1.29664782 75.6046788,1.95798769 L75.6046788,2.56274578 C75.6376174,2.57156652 75.6738942,2.57586932 75.7126193,2.57586932 L75.7891791,2.57586932 C75.8403673,2.57586932 75.9153693,2.57737529 76.0144074,2.58017211 C76.1704203,2.58598089 76.2754675,2.58899285 76.329549,2.58899285 C76.3653808,2.58899285 76.396984,2.58748687 76.4239134,2.58469005 C76.7481799,2.5730725 77.1650303,2.56726372 77.6753549,2.56726372 C77.8342611,2.54101666 77.9275127,2.5104668 77.9544422,2.47582929 C77.9993988,2.42355031 78.033005,2.28715165 78.0557059,2.06684845 C78.0779617,1.84633011 78.1282597,1.72154901 78.2063774,1.69250513 C78.245325,1.69250513 78.2813793,1.69981988 78.3145404,1.71423425 C78.3203269,1.73768449 78.3234427,1.75941362 78.3234427,1.77963676 C78.3234427,1.79985991 78.3203269,1.83320658 78.3145404,1.87967679 C78.299184,1.98703157 78.2918396,2.32351028 78.2918396,2.88911292 C78.2918396,3.03992595 78.3000742,3.20838045 78.316766,3.39383099 C78.3332353,3.57949667 78.3414699,3.6795367 78.3414699,3.69416621 C78.3414699,3.72019813 78.3367962,3.75505078 78.3278939,3.79850903 C78.3038577,3.81012658 78.2842726,3.81593536 78.2695838,3.81593536 L78.2379806,3.81593536 C78.1899082,3.73482764 78.1433936,3.60854055 78.098437,3.43750438 C78.0203193,3.14448391 77.9384181,2.96096963 77.8531785,2.88696152 C77.7674938,2.81295342 77.6288404,2.77594937 77.4365506,2.77594937 C77.3947098,2.77594937 77.31815,2.77831591 77.2070937,2.7826187 C77.0960375,2.7869215 76.9311223,2.7890729 76.7121256,2.7890729 L76.4194623,2.7890729 C76.0021667,2.7890729 75.7293111,2.79789363 75.6002277,2.81531996 L75.5957765,2.95903337 L75.6002277,3.7610747 L75.5957765,4.26665332 L75.6002277,4.75910842 C75.6031209,5.05557112 75.622706,5.22703757 75.6587603,5.27350778 C75.709726,5.33740431 75.8207823,5.36924501 75.9917065,5.36924501 L76.2665652,5.36494221 C76.2903789,5.36494221 76.3840756,5.36709361 76.5476555,5.37139641 C76.7112353,5.37591434 76.9130951,5.37806574 77.1530122,5.37806574 C77.7323297,5.37806574 78.1177995,5.35397008 78.3098667,5.3059939 C78.5019339,5.25801771 78.660395,5.17282233 78.7848047,5.0506229 C78.909437,4.92842348 79.0661175,4.66509231 79.2550689,4.26041427 C79.3120437,4.1412268 79.369241,4.08141792 79.4262158,4.08141792 C79.4531452,4.08141792 79.4831905,4.09303547 79.516129,4.11627058 C79.4293316,4.40326712 79.3797012,4.59194476 79.3676831,4.68187322 C79.3347446,4.88496523 79.3151595,5.09236003 79.309373,5.30405764 C79.309373,5.39979487 79.2851142,5.47961175 79.2370418,5.54350828 L79.1382262,5.54350828 L77.8732087,5.55641667 L77.3063544,5.55211387 L75.9558748,5.5695402 L75.4066025,5.5695402 C75.3376097,5.5695402 75.273068,5.57104618 75.2129774,5.573843 C74.6730526,5.5970781 74.2753422,5.60869565 74.0202911,5.60869565 C73.9753345,5.60869565 73.944399,5.60159604 73.9281523,5.58739681 C73.911683,5.57319758 73.9032258,5.55211387 73.9032258,5.52371542 L73.9078995,5.48133287 Z" id="Fill-26" fill="#FFFFFF"></path>
                <path d="M9.8917717,65.4347826 L9.71514441,65.1321266 C9.84439958,64.9375182 10.103553,64.6798821 10.4926046,64.3579904 C10.8816562,64.0363033 11.1360939,63.7936055 11.2559175,63.6290785 C11.3759554,63.4647562 11.4541945,63.2936809 11.4910633,63.1170804 C11.3390866,62.7174272 10.9654685,62.0535894 10.36978,61.1247487 L4.32886926,51.7002585 L3.36513585,50.1151516 C3.15807035,49.7922367 2.94971873,49.6086786 2.7405097,49.5642727 C2.53130067,49.5200714 2.11545485,49.6107249 1.49254353,49.8356194 C0.869846568,50.0607185 0.487654249,50.1706078 0.345752221,50.1646734 C0.20363584,50.1591482 0.109320293,50.1194489 0.0628055802,50.0472126 C0.0368688048,50.0066947 0.0160765137,49.9467365 0,49.8673379 C0.0683787716,49.7390314 0.161622551,49.6397832 0.280160045,49.570821 C0.407057327,49.4963337 0.670069091,49.354112 1.06919534,49.1431327 L1.42416476,48.9356323 C1.54227355,48.8664654 1.87109184,48.663467 2.41019093,48.3262276 L4.17239119,47.2969108 L7.77224414,45.1107892 L11.5332909,42.7138931 L11.8758278,42.5135549 L12.4132121,42.1830684 C12.5654031,42.0942566 12.7263826,42.0555805 12.8965793,42.0672447 C13.0301215,42.1666976 13.1190782,42.2422081 13.1636638,42.2937763 L13.4611865,42.7853109 L14.9642333,44.8848716 C15.0212513,44.9740927 15.0851287,45.0919628 15.1560797,45.2386865 C15.0570484,45.3745645 14.9524439,45.4740173 14.8426949,45.5382729 C14.7665994,45.5826788 14.6920043,45.5931152 14.6186954,45.5695821 C14.494156,45.5204696 14.3432512,45.375383 14.1659808,45.1351409 C13.9100427,44.807724 13.4920534,44.4365151 12.9124415,44.0206957 C12.6372115,43.8269058 12.3418324,43.755488 12.0265184,43.8062376 C11.4014635,43.9165362 10.4893893,44.3217146 9.29115315,45.0215681 C8.72590293,45.3520545 8.20738177,45.6743555 7.73580404,45.9884711 C7.26444066,46.3029959 6.97399164,46.4920792 6.864457,46.5559255 L5.86899927,47.1207196 C5.46408548,47.3572783 5.1669915,47.6087754 4.97771735,47.8743923 C4.84717606,48.0507882 4.86968318,48.2756826 5.04566741,48.5498943 L5.16206137,48.7318153 C5.45100991,49.1281943 5.75603497,49.5771647 6.07670783,50.0770894 L8.14886327,53.3915713 C8.35592876,53.7146909 8.5775703,54.0062965 8.81464529,54.2670022 L9.19705196,54.0766911 L9.88234015,53.6266976 L12.2993904,52.2145077 C13.2695544,51.6478718 13.9031834,51.1890789 14.1998487,50.838129 C14.3959821,50.6015703 14.5003723,50.3576447 14.5134479,50.105943 C14.5192354,50.0251119 14.4204184,49.6446944 14.2167826,48.9653044 L13.7370594,47.8645698 C13.8077961,47.7565222 13.8682438,47.688174 13.9188312,47.6582972 C13.9610589,47.6339455 14.0414414,47.6147098 14.160622,47.6003853 C14.3132417,47.7665494 14.515377,48.0364637 14.7670281,48.4109467 L17.7741935,52.775823 C17.6665881,52.9164076 17.5750591,53.0086982 17.4989636,53.0531041 L17.343986,53.1106067 C16.6914939,52.3829227 16.0741558,51.8729709 15.4919717,51.5807514 C15.2872641,51.4784336 15.1134234,51.4524449 14.9710926,51.5019667 C14.720299,51.5823884 13.6991189,52.1455455 11.9071235,53.1922563 C11.3493756,53.5184454 10.9673976,53.7470233 10.7614039,53.8783993 C10.269677,54.1990632 9.97322604,54.3887604 9.87162247,54.4481047 L9.74472519,54.5219781 C9.49135934,54.6701342 9.33016549,54.8088771 9.26200107,54.9371836 C9.28986703,55.0538259 9.31708993,55.1326106 9.34281235,55.1727191 L9.87848179,56.0080414 C9.94042995,56.1046294 10.2032274,56.5059197 10.666874,57.2108892 L13.2097498,61.2321824 C13.2819869,61.3453458 13.406312,61.4662854 13.5825105,61.596229 C13.8480945,61.6297892 14.2294295,61.5319734 14.7271583,61.3021677 C15.2246728,61.0727713 15.7346198,60.9211363 16.2574281,60.8489 C16.561167,60.815749 16.7549426,60.8636337 16.8374687,60.9923495 C16.8736944,61.0490335 16.8901996,61.1114474 16.8876274,61.1793864 C16.8850552,61.2477347 16.8492581,61.3185386 16.7804506,61.3920027 C16.0004182,61.6586428 14.9987442,62.1497682 13.7756431,62.8643555 C13.1259376,63.2441591 12.4745172,63.7021334 11.8211677,64.2388925 C11.3699536,64.6027345 10.8237808,64.9714877 10.1826494,65.3459708 L9.8917717,65.4347826 Z" id="Fill-28" fill="#FFFFFF"></path>
                <path d="M43.366306,49.5534216 C44.1536649,49.3469296 44.941234,49.0265736 45.7294335,48.5915448 C46.5174228,48.1571226 47.1698779,47.6080276 47.6867989,46.9440575 C48.2032997,46.2802897 48.5577898,45.5867918 48.7504795,44.8623504 C48.942959,44.1383136 49.0125122,43.2549077 48.9589289,42.2129418 C48.9053456,41.1709759 48.7391324,40.1581333 48.4604994,39.1746162 C48.1131537,37.948203 47.5817337,36.7840811 46.8670799,35.6828575 C46.3184292,34.8479904 45.6142819,34.1579307 44.7552685,33.6130828 C43.8960449,33.068235 42.9470957,32.7213849 41.9082105,32.5725327 C40.8689051,32.4234781 39.8247667,32.4869831 38.7749548,32.7624407 C37.9222453,32.9861235 37.1266913,33.3404567 36.3878725,33.8250355 C35.6490537,34.3096144 35.0768684,34.8305973 34.6708963,35.3877821 C34.2649242,35.9449669 33.9461562,36.6681948 33.7148025,37.5574657 C33.483659,38.4467367 33.382166,39.3869734 33.4113741,40.3773668 C33.4403721,41.3679625 33.5557338,42.2196159 33.757459,42.9319226 C33.9696908,43.6808356 34.3269127,44.4977028 34.8297549,45.3833334 C35.332387,46.2693684 35.8858707,47.00554 36.4904162,47.593466 C37.0947514,48.1807853 37.7705311,48.6649597 38.5179652,49.0453824 C39.264769,49.4258051 40.048976,49.6608137 40.8699558,49.7510149 C41.6905153,49.8406095 42.5228422,49.7746776 43.366306,49.5534216 M31.226017,43.6982286 C30.9652451,42.7782164 30.8479923,41.9293944 30.8746789,41.1519649 C30.9009452,40.3745354 31.0671584,39.4953767 31.3731084,38.513882 C31.6788483,37.5321851 32.1363023,36.6588915 32.7450503,35.8933944 C33.3537984,35.1278974 34.2760611,34.3502656 35.5124689,33.5604992 C36.38388,33.0120109 37.5507346,32.5460386 39.0128225,32.1621777 C39.9968636,31.9039109 40.9956138,31.7775078 42.0090732,31.7827662 C43.0223224,31.7882268 43.9771553,31.9156411 44.873572,32.1648069 C45.7697785,32.4141749 46.7349078,32.9070458 47.7693802,33.6434196 C48.4876062,34.1526723 49.0883693,34.7460589 49.5725099,35.423175 C50.2073141,36.3130527 50.6727532,37.2809969 50.9692473,38.3274122 C51.3065067,39.5178259 51.4670464,40.5369381 51.4504461,41.3845466 C51.4338458,42.2319529 51.2529235,43.113134 50.9078892,44.0272811 C50.6359803,44.7381721 50.0757725,45.6219824 49.2272656,46.677701 C48.6630652,47.3879852 47.8971396,48.0420453 46.9286481,48.6400835 C45.9603669,49.2381218 44.8624351,49.6988358 43.6346426,50.0208097 C42.3883587,50.3482442 41.2381044,50.4995234 40.1840899,50.4758608 C39.1302855,50.4519959 38.2208407,50.3247838 37.4557556,50.0946291 C36.6904604,49.8642721 35.8526701,49.4468386 34.9413342,48.842733 C34.0302084,48.2388296 33.2623916,47.5099389 32.6378838,46.6564652 C32.013376,45.8027894 31.5426837,44.8168453 31.226017,43.6982286" id="Fill-30" fill="#FFFFFF"></path>
                <path d="M66.4193548,44.6237523 C66.4311715,44.4870362 66.4715968,44.3649188 66.5406309,44.2562167 C67.2912984,44.0762958 68.0216495,43.9598997 68.7318917,43.9066336 C69.2020695,43.877436 69.5055705,43.7813598 69.6426021,43.6191943 C69.7404521,43.5024036 69.80534,43.0652275 69.837473,42.3080607 L69.9997963,38.695637 L70.0269538,36.2448074 L70.0959878,33.0417431 L70.1104995,32.1930375 C70.1527906,30.2675689 70.1635707,29.0673076 70.1428398,28.5922534 C70.1347547,28.5007148 70.0984756,28.3724817 70.0340023,28.2069624 C69.785231,28.0935255 69.576885,28.0175721 69.409379,27.978313 C69.2414583,27.9392513 68.4901689,27.795433 67.1561326,27.5464636 C67.1480475,27.4460472 67.1445233,27.373053 67.1453525,27.327481 C67.1463891,27.2726367 67.1521937,27.1998398 67.1635957,27.1086957 C67.3458207,27.1114576 67.6431025,27.1266483 68.0558556,27.1536759 L70.2423483,27.2657318 L71.5092163,27.3124876 L71.8834099,27.3045963 C71.9315057,27.3053854 72.070403,27.3168278 72.3005165,27.3383315 C72.8670932,27.3472091 73.1933983,27.347801 73.2798463,27.3399097 L74.4329014,27.2755959 C75.2103119,27.2876301 75.7571942,27.3097256 76.0733411,27.3418825 C76.0609025,27.5060208 76.024416,27.6831797 75.9636744,27.8737538 C75.8577393,27.8905227 75.35916,27.9078835 74.4675221,27.9260334 C73.5758842,27.9443806 73.0621714,27.988769 72.9270056,28.0595931 C72.7043553,28.1748055 72.5880547,28.5378037 72.5776892,29.1487849 C72.5752015,29.294576 72.5604825,29.590893 72.5337396,30.0373413 L72.5198499,30.8580328 L72.4910339,33.3887614 L72.4765222,34.2504875 L72.4280118,38.7786925 L72.3191743,42.6351536 L72.3191743,43.4836618 C72.3146135,43.7570942 72.3593924,43.9267564 72.4541328,43.9918593 C72.6935752,44.0044853 73.3975981,44.024608 74.566616,44.0516356 L75.5440801,44.0670236 L78.032208,44.0230298 C78.6837816,44.0149412 79.1496059,43.9606888 79.4294737,43.8600752 C79.7089268,43.7594615 80.1788973,43.4590016 80.8393852,42.9581036 C81.2376267,42.6359427 81.550042,42.3033259 81.7764239,41.9600559 C81.8255563,41.8880481 81.909102,41.7797405 82.0264391,41.6357249 C82.2123957,41.4013544 82.4646913,40.9308377 82.7837405,40.2241749 L83.2580645,40.2314744 C83.1950424,40.5589618 83.1272523,40.8681021 83.0553159,41.1590925 C82.7555464,42.4406339 82.545542,43.5091112 82.4257171,44.3645243 C82.4033277,44.5466152 82.3811456,44.7150937 82.3595854,44.8695652 L76.9865392,44.6363783 C72.3674774,44.5651597 69.6266393,44.5635814 68.7627808,44.63263 C68.4941078,44.6464397 68.2111304,44.651569 67.9142632,44.6468343 L66.4193548,44.6237523 Z" id="Fill-32" fill="#FFFFFF"></path>
                <path d="M93.5483871,47.9753444 C93.5967204,47.8359689 93.6695369,47.7184771 93.7668366,47.6235063 C94.5551545,47.6296677 95.3059033,47.6968059 96.0201383,47.8251333 C96.4910184,47.9160674 96.8158433,47.8943962 96.9948242,47.7607572 C97.122728,47.6640866 97.3044526,47.2251388 97.5402093,46.444126 L98.6738252,42.7213552 L99.3616774,40.1739279 L100.293096,36.8537738 L100.536028,35.9729036 C101.096821,33.9772418 101.430933,32.7290236 101.538574,32.2284616 C101.555459,32.1311537 101.554404,31.9879539 101.535197,31.7990746 C101.320758,31.6165691 101.136079,31.4835675 100.98137,31.3994323 C100.82645,31.3152971 100.125301,30.97132 98.8779225,30.3675011 C98.8971291,30.2608449 98.9133809,30.1837209 98.9262557,30.1363417 C98.9420854,30.0794017 98.967624,30.0050398 99.0032935,29.9130435 C99.1820633,29.9631847 99.4712187,30.0556059 99.8701266,30.1905197 L101.994469,30.8718875 L103.229817,31.2477339 L103.600865,31.3363309 C103.647932,31.3495036 103.781534,31.3970952 104.002516,31.4791058 C104.558243,31.634416 104.879691,31.7194011 104.967071,31.7334236 L106.120527,31.9643705 C106.883306,32.177683 107.416028,32.3417042 107.718902,32.4570714 C107.662337,32.6249169 107.578757,32.8001986 107.467316,32.983129 C107.358619,32.9731432 106.862622,32.8626627 105.979115,32.6512623 C105.095819,32.4398619 104.577661,32.3536021 104.425274,32.3924828 C104.174954,32.4551593 103.962625,32.8033856 103.787655,33.4375866 C103.745653,33.5890725 103.651309,33.8939564 103.504831,34.3522384 L103.269919,35.2040012 L102.559061,37.8340765 L102.312329,38.7283319 L101.044055,43.4348048 L99.8971425,47.4263409 L99.668351,48.3101856 C99.5900468,48.5940357 99.5885694,48.7824901 99.6645518,48.8749114 C99.8967204,48.9501232 100.585206,49.153025 101.729586,49.4829795 L102.688653,49.7508949 L105.151751,50.3481275 C105.795913,50.5078994 106.269537,50.5714257 106.572411,50.538919 C106.875075,50.5061997 107.418983,50.3145584 108.204557,49.9629327 C108.68409,49.7302861 109.08131,49.4642828 109.397059,49.1651354 C109.46481,49.1024589 109.57604,49.0115249 109.730748,48.891271 C109.977058,48.6953804 110.352538,48.2700302 110.857399,47.6160701 L111.322581,47.7463097 C111.172304,48.0711651 111.022239,48.3758366 110.873018,48.6605365 C110.232021,49.9183155 109.73708,50.9780793 109.388405,51.8387655 C109.317277,52.0225457 109.250159,52.1923034 109.187052,52.3478261 L103.956294,50.7169627 C99.4245739,49.4500478 96.7242423,48.7410599 95.8546654,48.589574 C95.5861941,48.5347586 95.3061143,48.4667706 95.0148483,48.3853974 L93.5483871,47.9753444 Z" id="Fill-34" fill="#FFFFFF"></path>
                <polygon id="Fill-39" fill="#FFFFFF" points="25.2602372 83.6640851 26.1971827 86 29.9354839 86 29.5986765 84.2561363 27.6586565 84.8163142 27.4770982 84.8683947 27.3588245 84.7361102 24.3225806 81.326087"></polygon>
                <polygon id="Fill-41" fill="#FFFFFF" points="22.4492428 83.6640851 23.3870968 81.326087 20.3507441 84.7361102 20.2327125 84.8683947 20.0511618 84.8163142 18.1109867 84.2561363 17.7741935 86 21.5123369 86"></polygon>
                <polygon id="Fill-43" fill="#FFFFFF" points="23.3870968 79.717244 20.5312582 83.1956522 17.7741935 82.3322522 23.3870968 76.6521739 29 82.3322522 26.2431403 83.1956522"></polygon>
                <path d="M23.8548387,76.6521739 L23.5789219,76.9071644 L18.1829359,81.8946172 L17.7741935,82.2723606 L18.340483,82.4343287 L20.7495699,83.1234231 L21.0024412,83.1956522 L21.1664829,83.0132556 L23.8548387,80.0226808 L26.543404,83.0132556 L26.7074457,83.1956522 L26.960317,83.1234231 L29.3691945,82.4343287 L29.9354839,82.2723606 L29.5267415,81.8946172 L24.1307555,76.9071644 L23.8548387,76.6521739 Z M23.8548387,77.1335186 L29.2508247,82.120789 L26.8419473,82.8098834 L23.8548387,79.4871644 L20.8679397,82.8098834 L18.4588527,82.120789 L23.8548387,77.1335186 Z" id="Fill-45" fill="#FFFFFF"></path>
                <polygon id="Fill-50" fill="#FFFFFF" points="118.808624 83.6640851 119.745807 86 123.483871 86 123.147064 84.2561363 121.206807 84.8163142 121.025248 84.8683947 120.907212 84.7361102 117.870968 81.326087"></polygon>
                <polygon id="Fill-52" fill="#FFFFFF" points="118.804279 83.6640851 119.741935 81.326087 116.705692 84.7361102 116.587655 84.8683947 116.406097 84.8163142 114.46584 84.2561363 114.129032 86 117.867096 86"></polygon>
                <polygon id="Fill-54" fill="#FFFFFF" points="117.871275 79.717244 115.014975 83.1956522 112.258065 82.3322522 117.871275 76.6521739 123.483871 82.3322522 120.727166 83.1956522"></polygon>
                <path d="M117.40354,76.6521739 L117.127618,76.9071644 L111.73133,81.8946172 L111.322581,82.2723606 L111.889089,82.4343287 L114.298008,83.1234231 L114.550674,83.1956522 L114.714719,83.0132556 L117.40354,80.0226808 L120.091942,83.0132556 L120.255987,83.1956522 L120.508653,83.1234231 L122.917362,82.4343287 L123.483871,82.2723606 L123.075122,81.8946172 L117.679462,76.9071644 L117.40354,76.6521739 Z M117.40354,77.1335186 L122.7992,82.120789 L120.390491,82.8098834 L117.40354,79.4871644 L114.416171,82.8098834 L112.007252,82.120789 L117.40354,77.1335186 Z" id="Fill-56" fill="#FFFFFF"></path>
                <polygon id="Fill-61" fill="#FFFFFF" points="47.7118105 83.6640851 48.6487165 86 52.3870968 86 52.0500666 84.2561363 50.1101286 84.8163142 49.9283408 84.8683947 49.8103092 84.7361102 46.7741935 81.326087"></polygon>
                <polygon id="Fill-63" fill="#FFFFFF" points="47.7075047 83.6640851 48.6451613 81.326087 45.6089175 84.7361102 45.4908808 84.8683947 45.3093224 84.8163142 43.3693025 84.2561363 43.0322581 86 46.7705592 86"></polygon>
                <polygon id="Fill-65" fill="#FFFFFF" points="41.1612903 82.3322522 46.7740911 76.6521739 52.3870968 82.3322522 49.6301868 83.1956522 46.7740911 79.717244 43.9182003 83.1956522"></polygon>
                <path d="M47.2418307,76.6521739 L46.9659092,76.9071644 L41.5700397,81.8946172 L41.1612903,82.2723606 L41.7275895,82.4343287 L44.1365084,83.1234231 L44.3893841,83.1956522 L44.5534286,83.0132556 L47.2418307,80.0226808 L49.9304424,83.0132556 L50.0944868,83.1956522 L50.3473626,83.1234231 L52.7562815,82.4343287 L53.3225806,82.2723606 L52.9138312,81.8946172 L47.5177523,76.9071644 L47.2418307,76.6521739 Z M47.2418307,77.1335186 L52.6379097,82.120789 L50.2289907,82.8098834 L47.2418307,79.4871644 L44.2548802,82.8098834 L41.8459613,82.120789 L47.2418307,77.1335186 Z" id="Fill-67" fill="#FFFFFF"></path>
                <polygon id="Fill-72" fill="#FFFFFF" points="72.0346282 83.6640851 72.9717711 86 76.7096774 86 76.3731213 84.2561363 74.4329462 84.8163142 74.2511585 84.8683947 74.1331268 84.7361102 71.0967742 81.326087"></polygon>
                <polygon id="Fill-74" fill="#FFFFFF" points="71.0945619 83.6640851 72.0322581 81.326087 68.995886 84.7361102 68.8778444 84.8683947 68.6962783 84.8163142 66.7559394 84.2561363 66.4193548 86 70.1578139 86"></polygon>
                <polygon id="Fill-76" fill="#FFFFFF" points="71.0969791 79.717244 68.2409356 83.1956522 65.483871 82.3322522 71.0969791 76.6521739 76.7096774 82.3322522 73.9528177 83.1956522"></polygon>
                <path d="M71.5647256,76.6521739 L71.2888088,76.9071644 L65.8926133,81.8946172 L65.483871,82.2723606 L66.0503699,82.4343287 L68.4594568,83.1234231 L68.7121187,83.1956522 L68.8761603,83.0132556 L71.5647256,80.0226808 L74.2530814,83.0132556 L74.4169136,83.1956522 L74.669785,83.1234231 L77.0786624,82.4343287 L77.6451613,82.2723606 L77.2364189,81.8946172 L71.8406424,76.9071644 L71.5647256,76.6521739 Z M71.5647256,77.1335186 L76.9605021,82.120789 L74.5516247,82.8098834 L71.5647256,79.4871644 L68.5776171,82.8098834 L66.1685302,82.120789 L71.5647256,77.1335186 Z" id="Fill-78" fill="#FFFFFF"></path>
                <polygon id="Fill-83" fill="#FFFFFF" points="95.4214879 83.6640851 96.3586309 86 100.096774 86 99.759981 84.2561363 97.819806 84.8163142 97.6380183 84.8683947 97.5199866 84.7361102 94.483871 81.326087"></polygon>
                <polygon id="Fill-85" fill="#FFFFFF" points="94.4816983 83.6640851 95.4193548 81.326087 92.383111 84.7361102 92.2650744 84.8683947 92.083516 84.8163142 90.143259 84.2561363 89.8064516 86 93.5447528 86"></polygon>
                <polygon id="Fill-87" fill="#FFFFFF" points="94.483871 79.717244 91.6280324 83.1956522 88.8709677 82.3322522 94.483871 76.6521739 100.096774 82.3322522 97.3399145 83.1956522"></polygon>
                <path d="M94.9516129,76.6521739 L94.6756961,76.9071644 L89.2797101,81.8946172 L88.8709677,82.2723606 L89.4374667,82.4343287 L91.8465536,83.1234231 L92.0994249,83.1956522 L92.2632571,83.0132556 L94.9516129,80.0226808 L97.6401782,83.0132556 L97.8042199,83.1956522 L98.0568817,83.1234231 L100.465759,82.4343287 L101.032258,82.2723606 L100.623516,81.8946172 L95.2275297,76.9071644 L94.9516129,76.6521739 Z M94.9516129,77.1335186 L100.347599,82.120789 L97.9387215,82.8098834 L94.9516129,79.4871644 L91.9647139,82.8098834 L89.5556269,82.120789 L94.9516129,77.1335186 Z" id="Fill-89" fill="#FFFFFF"></path>
            </g>
        </g>
    </g>
</svg>